G04*
G04 #@! TF.GenerationSoftware,Altium Limited,Altium Designer,21.3.2 (30)*
G04*
G04 Layer_Color=8421504*
%FSTAX44Y44*%
%MOMM*%
G71*
G04*
G04 #@! TF.SameCoordinates,1521B721-1041-421A-BEC2-2198B3717C83*
G04*
G04*
G04 #@! TF.FilePolarity,Positive*
G04*
G01*
G75*
%ADD20R,1.3970X1.2700*%
G04:AMPARAMS|DCode=21|XSize=2.33mm|YSize=1.55mm|CornerRadius=0.3875mm|HoleSize=0mm|Usage=FLASHONLY|Rotation=180.000|XOffset=0mm|YOffset=0mm|HoleType=Round|Shape=RoundedRectangle|*
%AMROUNDEDRECTD21*
21,1,2.3300,0.7750,0,0,180.0*
21,1,1.5550,1.5500,0,0,180.0*
1,1,0.7750,-0.7775,0.3875*
1,1,0.7750,0.7775,0.3875*
1,1,0.7750,0.7775,-0.3875*
1,1,0.7750,-0.7775,-0.3875*
%
%ADD21ROUNDEDRECTD21*%
G04:AMPARAMS|DCode=22|XSize=7.3mm|YSize=4mm|CornerRadius=0mm|HoleSize=0mm|Usage=FLASHONLY|Rotation=270.000|XOffset=0mm|YOffset=0mm|HoleType=Round|Shape=Octagon|*
%AMOCTAGOND22*
4,1,8,-1.0000,-3.6500,1.0000,-3.6500,2.0000,-2.6500,2.0000,2.6500,1.0000,3.6500,-1.0000,3.6500,-2.0000,2.6500,-2.0000,-2.6500,-1.0000,-3.6500,0.0*
%
%ADD22OCTAGOND22*%

%ADD23R,0.9900X3.7900*%
G36*
X0078587Y008115D02*
X0077337D01*
Y008267D01*
X0078587D01*
Y008115D01*
D02*
G37*
G36*
X0076777D02*
X0075527D01*
Y008267D01*
X0076777D01*
Y008115D01*
D02*
G37*
G36*
X0074967D02*
X0073717D01*
Y008267D01*
X0074967D01*
Y008115D01*
D02*
G37*
G36*
X0078587Y007852D02*
X0077337D01*
Y008004D01*
X0078587D01*
Y007852D01*
D02*
G37*
G36*
X0076777D02*
X0075527D01*
Y008004D01*
X0076777D01*
Y007852D01*
D02*
G37*
G36*
X0074967D02*
X0073717D01*
Y008004D01*
X0074967D01*
Y007852D01*
D02*
G37*
G36*
X0078587Y007589D02*
X0077337D01*
Y007741D01*
X0078587D01*
Y007589D01*
D02*
G37*
G36*
X0076777D02*
X0075527D01*
Y007741D01*
X0076777D01*
Y007589D01*
D02*
G37*
G36*
X0074967D02*
X0073717D01*
Y007741D01*
X0074967D01*
Y007589D01*
D02*
G37*
G36*
X0084017Y008115D02*
X0082767D01*
Y008267D01*
X0084017D01*
Y008115D01*
D02*
G37*
G36*
X0082207D02*
X0080957D01*
Y008267D01*
X0082207D01*
Y008115D01*
D02*
G37*
G36*
X0080397D02*
X0079147D01*
Y008267D01*
X0080397D01*
Y008115D01*
D02*
G37*
G36*
X0084017Y007852D02*
X0082767D01*
Y008004D01*
X0084017D01*
Y007852D01*
D02*
G37*
G36*
X0082207D02*
X0080957D01*
Y008004D01*
X0082207D01*
Y007852D01*
D02*
G37*
G36*
X0080397D02*
X0079147D01*
Y008004D01*
X0080397D01*
Y007852D01*
D02*
G37*
G36*
X0084017Y007589D02*
X0082767D01*
Y007741D01*
X0084017D01*
Y007589D01*
D02*
G37*
G36*
X0082207D02*
X0080957D01*
Y007741D01*
X0082207D01*
Y007589D01*
D02*
G37*
G36*
X0080397D02*
X0079147D01*
Y007741D01*
X0080397D01*
Y007589D01*
D02*
G37*
D20*
X0069215Y0027659D02*
D03*
Y0029945D02*
D03*
X0035814Y0029083D02*
D03*
Y0026797D02*
D03*
D21*
X005357Y0047471D02*
D03*
X00493D02*
D03*
D22*
X0060452Y0053821D02*
D03*
X0054102D02*
D03*
D23*
X0082267Y006853D02*
D03*
X0080567D02*
D03*
X0078867D02*
D03*
X0077167D02*
D03*
X0075467D02*
D03*
M02*
