G04*
G04 #@! TF.GenerationSoftware,Altium Limited,Altium Designer,21.3.2 (30)*
G04*
G04 Layer_Color=32896*
%FSTAX44Y44*%
%MOMM*%
G71*
G04*
G04 #@! TF.SameCoordinates,1521B721-1041-421A-BEC2-2198B3717C83*
G04*
G04*
G04 #@! TF.FilePolarity,Positive*
G04*
G01*
G75*
%ADD10C,0.2540*%
%ADD11C,0.1778*%
%ADD12C,0.2000*%
D10*
X00658124Y00460219D02*
G03*
X00658124Y0048412I-0000001J00011951D01*
G01*
X0060705D02*
G03*
X0060705Y00460219I0000001J-00011951D01*
G01*
X00607568Y00484108D02*
X00658368D01*
X00606806Y00460232D02*
X00658114D01*
X00629158Y00463534D02*
Y00480552D01*
X00636016Y00463534D02*
Y00480552D01*
Y0047217D02*
X0064643D01*
X00617982D02*
X00628396D01*
X00773938Y00280924D02*
Y00296159D01*
X0076632D01*
X00763781Y0029362D01*
Y00288542D01*
X0076632Y00286002D01*
X00773938D01*
X0076886D02*
X00763781Y00280924D01*
X00758703D02*
X00753625D01*
X00756164D01*
Y00296159D01*
X00758703Y0029362D01*
X0073839Y00280924D02*
Y00296159D01*
X00746007Y00288542D01*
X0073585D01*
X00860298Y00280924D02*
Y00296159D01*
X00852681D01*
X00850141Y0029362D01*
Y00288542D01*
X00852681Y00286002D01*
X00860298D01*
X0085522D02*
X00850141Y00280924D01*
X00845063D02*
X00839985D01*
X00842524D01*
Y00296159D01*
X00845063Y0029362D01*
X00832367D02*
X00829828Y00296159D01*
X0082475D01*
X0082221Y0029362D01*
Y00291081D01*
X0082475Y00288542D01*
X00827289D01*
X0082475D01*
X0082221Y00286002D01*
Y00283463D01*
X0082475Y00280924D01*
X00829828D01*
X00832367Y00283463D01*
X00806958Y00429768D02*
Y00445003D01*
X00799341D01*
X00796801Y00442464D01*
Y00437385D01*
X00799341Y00434846D01*
X00806958D01*
X0080188D02*
X00796801Y00429768D01*
X00791723D02*
X00786645D01*
X00789184D01*
Y00445003D01*
X00791723Y00442464D01*
X0076887Y00429768D02*
X00779027D01*
X0076887Y00439925D01*
Y00442464D01*
X0077141Y00445003D01*
X00776488D01*
X00779027Y00442464D01*
X00897382Y00413004D02*
Y00428239D01*
X00889764D01*
X00887225Y004257D01*
Y00420621D01*
X00889764Y00418082D01*
X00897382D01*
X00892304D02*
X00887225Y00413004D01*
X00882147D02*
X00877069D01*
X00879608D01*
Y00428239D01*
X00882147Y004257D01*
X00869451Y00413004D02*
X00864373D01*
X00866912D01*
Y00428239D01*
X00869451Y004257D01*
X00768858Y00429768D02*
Y00445003D01*
X0076124D01*
X00758701Y00442464D01*
Y00437385D01*
X0076124Y00434846D01*
X00768858D01*
X0076378D02*
X00758701Y00429768D01*
X00753623D02*
X00748545D01*
X00751084D01*
Y00445003D01*
X00753623Y00442464D01*
X00740927D02*
X00738388Y00445003D01*
X00733309D01*
X0073077Y00442464D01*
Y00432307D01*
X00733309Y00429768D01*
X00738388D01*
X00740927Y00432307D01*
Y00442464D01*
X00461518Y00282702D02*
Y00297937D01*
X004539D01*
X00451361Y00295398D01*
Y00290319D01*
X004539Y0028778D01*
X00461518D01*
X0045644D02*
X00451361Y00282702D01*
X00446283Y00285241D02*
X00443744Y00282702D01*
X00438665D01*
X00436126Y00285241D01*
Y00295398D01*
X00438665Y00297937D01*
X00443744D01*
X00446283Y00295398D01*
Y00292859D01*
X00443744Y00290319D01*
X00436126D01*
X00531368Y00276098D02*
Y00291333D01*
X0052375D01*
X00521211Y00288794D01*
Y00283715D01*
X0052375Y00281176D01*
X00531368D01*
X0052629D02*
X00521211Y00276098D01*
X00516133Y00288794D02*
X00513594Y00291333D01*
X00508515D01*
X00505976Y00288794D01*
Y00286255D01*
X00508515Y00283715D01*
X00505976Y00281176D01*
Y00278637D01*
X00508515Y00276098D01*
X00513594D01*
X00516133Y00278637D01*
Y00281176D01*
X00513594Y00283715D01*
X00516133Y00286255D01*
Y00288794D01*
X00513594Y00283715D02*
X00508515D01*
X00458978Y00422402D02*
Y00437637D01*
X00451361D01*
X00448821Y00435098D01*
Y00430019D01*
X00451361Y0042748D01*
X00458978D01*
X004539D02*
X00448821Y00422402D01*
X00443743Y00437637D02*
X00433586D01*
Y00435098D01*
X00443743Y00424941D01*
Y00422402D01*
X00550672Y00427228D02*
Y00442463D01*
X00543055D01*
X00540515Y00439924D01*
Y00434846D01*
X00543055Y00432306D01*
X00550672D01*
X00545594D02*
X00540515Y00427228D01*
X0052528Y00442463D02*
X00530359Y00439924D01*
X00535437Y00434846D01*
Y00429767D01*
X00532898Y00427228D01*
X00527819D01*
X0052528Y00429767D01*
Y00432306D01*
X00527819Y00434846D01*
X00535437D01*
X00428498Y00421132D02*
Y00436367D01*
X00420881D01*
X00418341Y00433828D01*
Y0042875D01*
X00420881Y0042621D01*
X00428498D01*
X0042342D02*
X00418341Y00421132D01*
X00403106Y00436367D02*
X00413263D01*
Y0042875D01*
X00408185Y00431289D01*
X00405645D01*
X00403106Y0042875D01*
Y00423671D01*
X00405645Y00421132D01*
X00410724D01*
X00413263Y00423671D01*
X00527558Y00626602D02*
Y00641837D01*
X0051994D01*
X00517401Y00639298D01*
Y0063422D01*
X0051994Y0063168D01*
X00527558D01*
X0052248D02*
X00517401Y00626602D01*
X00512323Y00639298D02*
X00509784Y00641837D01*
X00504705D01*
X00502166Y00639298D01*
Y00636759D01*
X00504705Y0063422D01*
X00507245D01*
X00504705D01*
X00502166Y0063168D01*
Y00629141D01*
X00504705Y00626602D01*
X00509784D01*
X00512323Y00629141D01*
X00489458Y00627872D02*
Y00643107D01*
X00481841D01*
X00479301Y00640568D01*
Y0063549D01*
X00481841Y0063295D01*
X00489458D01*
X0048438D02*
X00479301Y00627872D01*
X00464066D02*
X00474223D01*
X00464066Y00638029D01*
Y00640568D01*
X00466605Y00643107D01*
X00471684D01*
X00474223Y00640568D01*
X00792232Y00215796D02*
X00789693Y00213257D01*
X00784614D01*
X00782075Y00215796D01*
Y00225953D01*
X00784614Y00228492D01*
X00789693D01*
X00792232Y00225953D01*
X0079731Y00228492D02*
X00802388D01*
X00799849D01*
Y00213257D01*
X0079731Y00215796D01*
X00810006D02*
X00812545Y00213257D01*
X00817624D01*
X00820163Y00215796D01*
Y00218335D01*
X00817624Y00220875D01*
X00815084D01*
X00817624D01*
X00820163Y00223414D01*
Y00225953D01*
X00817624Y00228492D01*
X00812545D01*
X00810006Y00225953D01*
X00482327Y00209446D02*
X00479787Y00206907D01*
X00474709D01*
X0047217Y00209446D01*
Y00219603D01*
X00474709Y00222142D01*
X00479787D01*
X00482327Y00219603D01*
X00487405D02*
X00489944Y00222142D01*
X00495023D01*
X00497562Y00219603D01*
Y00209446D01*
X00495023Y00206907D01*
X00489944D01*
X00487405Y00209446D01*
Y00211985D01*
X00489944Y00214524D01*
X00497562D01*
X00265941Y00520172D02*
X0026848Y00522711D01*
X00273559D01*
X00276098Y00520172D01*
Y00510015D01*
X00273559Y00507476D01*
X0026848D01*
X00265941Y00510015D01*
X00250706Y00522711D02*
X00255785Y00520172D01*
X00260863Y00515093D01*
Y00510015D01*
X00258324Y00507476D01*
X00253245D01*
X00250706Y00510015D01*
Y00512554D01*
X00253245Y00515093D01*
X00260863D01*
X00627381Y00440692D02*
X00624842Y00438152D01*
X00619763D01*
X00617224Y00440692D01*
Y00450848D01*
X00619763Y00453387D01*
X00624842D01*
X00627381Y00450848D01*
X00642616Y00438152D02*
X00632459D01*
Y0044577D01*
X00637537Y00443231D01*
X00640077D01*
X00642616Y0044577D01*
Y00450848D01*
X00640077Y00453387D01*
X00634998D01*
X00632459Y00450848D01*
X00378717Y00593578D02*
X00381256Y00596117D01*
X00386335D01*
X00388874Y00593578D01*
Y00583421D01*
X00386335Y00580882D01*
X00381256D01*
X00378717Y00583421D01*
X00373639Y00593578D02*
X003711Y00596117D01*
X00366021D01*
X00363482Y00593578D01*
Y00591039D01*
X00366021Y00588499D01*
X00368561D01*
X00366021D01*
X00363482Y0058596D01*
Y00583421D01*
X00366021Y00580882D01*
X003711D01*
X00373639Y00583421D01*
D11*
X00879052Y00388504D02*
X00883624D01*
X00879052Y0040222D02*
X00883624D01*
X00768196Y00401262D02*
Y00405834D01*
X0075448Y00401262D02*
Y00405834D01*
X00806296Y00401262D02*
Y00405834D01*
X0079258Y00401262D02*
Y00405834D01*
X00759614Y00252476D02*
Y00257048D01*
X0077333Y00252476D02*
Y00257048D01*
X00845974Y00252476D02*
Y00257048D01*
X0085969Y00252476D02*
Y00257048D01*
X00264456Y00496842D02*
X00269028D01*
X00264456Y00483126D02*
X00269028D01*
X00377732Y00552392D02*
Y00556964D01*
X00364016Y00552392D02*
Y00556964D01*
X004446Y00393912D02*
Y00398484D01*
X00458316Y00393912D02*
Y00398484D01*
X0041412Y00392642D02*
Y00397214D01*
X00427836Y00392642D02*
Y00397214D01*
X00532426Y0040269D02*
X00536998D01*
X00532426Y00416406D02*
X00536998D01*
X0046091Y00254296D02*
Y00258868D01*
X00447194Y00254296D02*
Y00258868D01*
X0053076Y00247676D02*
Y00252248D01*
X00517044Y00247676D02*
Y00252248D01*
X0052695Y00598196D02*
Y00602768D01*
X00513234Y00598196D02*
Y00602768D01*
X0047508Y00599382D02*
Y00603954D01*
X00488796Y00599382D02*
Y00603954D01*
D12*
X0086388Y00386318D02*
X00877298D01*
X0086388D02*
Y00404352D01*
X00877298D01*
X00885048D02*
X0089888D01*
X00885048Y00386318D02*
X0089888D01*
Y00404352D01*
X00770382Y0038609D02*
Y00399508D01*
X00752348Y0038609D02*
X00770382D01*
X00752348D02*
Y00399508D01*
Y00407258D02*
Y0042109D01*
X00770382Y00407258D02*
Y0042109D01*
X00752348D02*
X00770382D01*
X00808482Y0038609D02*
Y00399508D01*
X00790448Y0038609D02*
X00808482D01*
X00790448D02*
Y00399508D01*
Y00407258D02*
Y0042109D01*
X00808482Y00407258D02*
Y0042109D01*
X00790448D02*
X00808482D01*
X0080137Y0023722D02*
X00816356D01*
X0080137D02*
Y0029056D01*
X0082169D01*
X00818642Y00260334D02*
Y00267446D01*
X00804164Y00260334D02*
Y00267446D01*
X0082169Y0023722D02*
Y0029056D01*
X00816356Y0023722D02*
X0082169D01*
X00757428Y00258802D02*
Y0027222D01*
X00775462D01*
Y00258802D02*
Y0027222D01*
Y0023722D02*
Y00251052D01*
X00757428Y0023722D02*
Y00251052D01*
Y0023722D02*
X00775462D01*
X00843788Y00258802D02*
Y0027222D01*
X00861822D01*
Y00258802D02*
Y0027222D01*
Y0023722D02*
Y00251052D01*
X00843788Y0023722D02*
Y00251052D01*
Y0023722D02*
X00861822D01*
X00284226Y0048106D02*
Y0049884D01*
X00249174Y0048106D02*
Y0049884D01*
X00270782D02*
X00284226D01*
X00249174D02*
X00263032D01*
X00249174Y0048106D02*
X00263032D01*
X00270782D02*
X00284226D01*
X0036195Y00537194D02*
X0037973D01*
X0036195Y00572246D02*
X0037973D01*
Y00537194D02*
Y00550638D01*
Y00558388D02*
Y00572246D01*
X0036195Y00558388D02*
Y00572246D01*
Y00537194D02*
Y00550638D01*
X00442468Y0041374D02*
X00460502D01*
Y00399908D02*
Y0041374D01*
X00442468Y00399908D02*
Y0041374D01*
Y0037874D02*
Y00392158D01*
Y0037874D02*
X00460502D01*
Y00392158D01*
X00411988Y0041247D02*
X00430022D01*
Y00398638D02*
Y0041247D01*
X00411988Y00398638D02*
Y0041247D01*
Y0037747D02*
Y00390888D01*
Y0037747D02*
X00430022D01*
Y00390888D01*
X0051717Y00400558D02*
Y00418592D01*
X00531002D01*
X0051717Y00400558D02*
X00531002D01*
X00538752D02*
X0055217D01*
Y00418592D01*
X00538752D02*
X0055217D01*
X00445008Y0023904D02*
X00463042D01*
X00445008D02*
Y00252872D01*
X00463042Y0023904D02*
Y00252872D01*
Y00260622D02*
Y0027404D01*
X00445008D02*
X00463042D01*
X00445008Y00260622D02*
Y0027404D01*
X00514858Y0023242D02*
X00532892D01*
X00514858D02*
Y00246252D01*
X00532892Y0023242D02*
Y00246252D01*
Y00254002D02*
Y0026742D01*
X00514858D02*
X00532892D01*
X00514858Y00254002D02*
Y0026742D01*
X00493776Y0023087D02*
X0049911D01*
Y0028421D01*
X00481584Y00253984D02*
Y00261096D01*
X00496062Y00253984D02*
Y00261096D01*
X0047879Y0028421D02*
X0049911D01*
X0047879Y0023087D02*
Y0028421D01*
Y0023087D02*
X00493776D01*
X00511048Y0058294D02*
X00529082D01*
X00511048D02*
Y00596772D01*
X00529082Y0058294D02*
Y00596772D01*
Y00604522D02*
Y0061794D01*
X00511048D02*
X00529082D01*
X00511048Y00604522D02*
Y0061794D01*
X00472948Y0061921D02*
X00490982D01*
Y00605378D02*
Y0061921D01*
X00472948Y00605378D02*
Y0061921D01*
Y0058421D02*
Y00597628D01*
Y0058421D02*
X00490982D01*
Y00597628D01*
M02*
