G04*
G04 #@! TF.GenerationSoftware,Altium Limited,Altium Designer,21.3.2 (30)*
G04*
G04 Layer_Color=255*
%FSTAX44Y44*%
%MOMM*%
G71*
G04*
G04 #@! TF.SameCoordinates,1521B721-1041-421A-BEC2-2198B3717C83*
G04*
G04*
G04 #@! TF.FilePolarity,Positive*
G04*
G01*
G75*
%ADD62C,3.5000*%
%ADD63C,1.4000*%
%ADD64R,2.2000X2.2000*%
%ADD65C,2.2000*%
%ADD66R,2.1000X2.1000*%
%ADD67C,2.1000*%
%ADD68C,2.7940*%
%ADD69O,3.2000X2.2000*%
%ADD70C,2.0000*%
%ADD71R,2.0000X2.0000*%
%ADD72C,1.8000*%
%ADD73O,2.0000X1.5000*%
%ADD74R,1.5000X1.5000*%
%ADD75C,1.5000*%
%ADD76R,2.1000X2.1000*%
%ADD77R,1.9400X1.9400*%
%ADD78C,1.9400*%
%ADD79R,2.0320X2.0320*%
%ADD80C,2.0320*%
%ADD81C,1.2080*%
%ADD82R,1.2080X1.2080*%
%ADD83C,1.3500*%
%ADD84R,1.3500X1.3500*%
%ADD88R,1.2000X1.4000*%
%ADD89R,1.4000X1.2000*%
%ADD90R,1.7000X1.7000*%
D62*
X0038961Y0072517D02*
D03*
X0068961D02*
D03*
D63*
X0018816Y0048995D02*
D03*
X0008616D02*
D03*
Y0055218D02*
D03*
X0018816D02*
D03*
D64*
X001651Y0043307D02*
D03*
D65*
Y0038227D02*
D03*
D66*
X0061087Y0024328D02*
D03*
X0092075Y0023594D02*
D03*
X0067818Y0054963D02*
D03*
D67*
X0061087Y0020828D02*
D03*
X0092075Y0020094D02*
D03*
X0046553Y0054102D02*
D03*
X0067818Y0051463D02*
D03*
D68*
X0004191Y0043053D02*
D03*
Y0037973D02*
D03*
D69*
X00077718Y0068834D02*
D03*
X00172719D02*
D03*
D70*
X00269494Y005842D02*
D03*
X0030353D02*
D03*
X00337566D02*
D03*
X00320294Y00541782D02*
D03*
X00286766D02*
D03*
X0057161Y0036068D02*
D03*
X0055461Y0030988D02*
D03*
X0053761Y0036068D02*
D03*
X0052061Y0030988D02*
D03*
X0050361Y0036068D02*
D03*
X0048661Y0030988D02*
D03*
X0046961Y0036068D02*
D03*
X0045261Y0030988D02*
D03*
X0043561Y0036068D02*
D03*
X0041861Y0030988D02*
D03*
X0074402Y0031215D02*
D03*
X0076102Y0036295D02*
D03*
X0077802Y0031215D02*
D03*
X0079502Y0036295D02*
D03*
X0081202Y0031215D02*
D03*
X0082902Y0036295D02*
D03*
X0084602Y0031215D02*
D03*
X0086302Y0036295D02*
D03*
X0088002Y0031215D02*
D03*
X0089702Y0036295D02*
D03*
D71*
X0040161Y0036068D02*
D03*
X0072702Y0036295D02*
D03*
D72*
X0030099Y0079375D02*
D03*
Y0074256D02*
D03*
X0073914Y005598D02*
D03*
Y00509D02*
D03*
X0068707Y0039724D02*
D03*
Y0034644D02*
D03*
X0094107Y0039724D02*
D03*
Y0034644D02*
D03*
X0065786Y0047217D02*
D03*
X0060706D02*
D03*
X0035814Y003429D02*
D03*
Y003937D02*
D03*
X0061849Y0034136D02*
D03*
Y0039216D02*
D03*
D73*
X009144Y0051181D02*
D03*
X00889D02*
D03*
X009144Y0053721D02*
D03*
Y0056261D02*
D03*
X00889D02*
D03*
Y0053721D02*
D03*
X0092202Y0071501D02*
D03*
X0089662D02*
D03*
X0092202Y0074041D02*
D03*
Y0076581D02*
D03*
X0089662D02*
D03*
Y0074041D02*
D03*
D74*
X0015748Y0028575D02*
D03*
X0004953Y0021971D02*
D03*
D75*
X0015748Y0031115D02*
D03*
X0018288Y0028575D02*
D03*
Y0031115D02*
D03*
X0020828Y0028575D02*
D03*
Y0031115D02*
D03*
X0023368Y0028575D02*
D03*
Y0031115D02*
D03*
X0025908Y0028575D02*
D03*
Y0031115D02*
D03*
X0004953Y0024511D02*
D03*
X0007493Y0021971D02*
D03*
Y0024511D02*
D03*
X0010033Y0021971D02*
D03*
Y0024511D02*
D03*
X0012573Y0021971D02*
D03*
Y0024511D02*
D03*
X0015113Y0021971D02*
D03*
Y0024511D02*
D03*
X0017653Y0021971D02*
D03*
Y0024511D02*
D03*
X0020193Y0021971D02*
D03*
Y0024511D02*
D03*
X0022733Y0021971D02*
D03*
Y0024511D02*
D03*
X0025273Y0021971D02*
D03*
Y0024511D02*
D03*
X0027813Y0021971D02*
D03*
Y0024511D02*
D03*
D76*
X0043053Y0054102D02*
D03*
D77*
X0026416Y0037438D02*
D03*
D78*
Y0039978D02*
D03*
Y0042518D02*
D03*
D79*
X000887Y0059409D02*
D03*
D80*
X001649D02*
D03*
D81*
X0005334Y0052102D02*
D03*
Y0054102D02*
D03*
Y0056102D02*
D03*
D82*
Y0058102D02*
D03*
D83*
X0025567Y0065632D02*
D03*
D84*
X0030567Y0065632D02*
D03*
D88*
X00871836Y00395362D02*
D03*
X00890836D02*
D03*
X00257244Y00489984D02*
D03*
X00276244D02*
D03*
X00525214Y00409548D02*
D03*
X00544214D02*
D03*
D89*
X00761338Y00394046D02*
D03*
Y00413046D02*
D03*
X00799438Y00394046D02*
D03*
Y00413046D02*
D03*
X00766472Y00264264D02*
D03*
Y00245264D02*
D03*
X00852832Y00264264D02*
D03*
Y00245264D02*
D03*
X00370874Y00564176D02*
D03*
Y00545176D02*
D03*
X00451458Y00405696D02*
D03*
Y00386696D02*
D03*
X00420978Y00404426D02*
D03*
Y00385426D02*
D03*
X00454052Y00247084D02*
D03*
Y00266084D02*
D03*
X00523902Y00240464D02*
D03*
Y00259464D02*
D03*
X00520092Y00590984D02*
D03*
Y00609984D02*
D03*
X00481938Y00611166D02*
D03*
Y00592166D02*
D03*
D90*
X0081153Y0028039D02*
D03*
Y0024739D02*
D03*
X0048895Y0024104D02*
D03*
Y0027404D02*
D03*
M02*
