M48
;Layer_Color=9474304
;FILE_FORMAT=4:4
METRIC,LZ
;TYPE=PLATED
T1F00S00C0.6000
T2F00S00C0.7000
T3F00S00C0.7112
T4F00S00C0.8000
T5F00S00C0.8890
T6F00S00C0.9000
T7F00S00C1.0160
T8F00S00C1.1000
T10F00S00C1.2700
T11F00S00C1.2900
T12F00S00C1.3300
T13F00S00C1.3500
T14F00S00C3.5000
%
T01
X0008616Y0048995
Y0055218
X0018816
Y0048995
T02
X0005334Y0052102
Y0054102
Y0056102
Y0058102
T03
X0003175Y0018288
X0008509Y0018923
X0022733Y00330326
X0030353Y0032258
X00337448Y00285378
X00396522Y00235853
X00673608Y00264975
X0069342Y0024892
X0087503Y00264642
X008382Y0039497
X0083566Y0041529
X0085852Y0042799
X0072517Y0061849
X0067056Y0058674
X0078994Y0078359
X0042545Y0048387
X0042926Y0042545
X0040132Y0041529
X0035433Y0052578
X0029083Y0050546
X0024384Y0046201
X0009017Y004572
T04
X0035814Y003429
Y003937
X0061849Y0039216
Y0034136
X0068707Y0034644
X0094107
Y0039724
X0068707
X0065786Y0047217
X0060706
X0073914Y00509
Y005598
X0030567Y0065632
X0025567Y0065632
T05
X000887Y0059409
X001649
T06
X0004953Y0021971
Y0024511
X0007493
Y0021971
X0010033
Y0024511
X0012573
Y0021971
X0015113
Y0024511
X0017653
Y0021971
X0020193
Y0024511
X0022733
Y0021971
X0025273
Y0024511
X0027813
Y0021971
X0025908Y0028575
X0023368
X0020828
X0018288
X0015748
Y0031115
X0018288
X0020828
X0023368
X0025908
X001651Y0038227
X0061087Y0024328
Y0020828
X0092075Y0020094
Y0023594
X009144Y0051181
X00889
Y0053721
X009144
Y0056261
X00889
X0089662Y0071501
X0092202
Y0074041
Y0076581
X0089662
Y0074041
X0067818Y0054963
Y0051463
X0046553Y0054102
X0043053
X001651Y0043307
T07
X007239Y0022733
X0078613Y0028067
X0086233Y0051562
X0088392Y006731
X0057404Y0067691
X0061214Y0041783
X0036957Y0044704
T08
X00286766Y00541782
X00320294
X0030353Y005842
X00269494
X00337566
X0030099Y0074256
Y0079375
T10
X0004191Y0037973
Y0043053
X0032639
X00327532Y0048133
T11
X0026416Y0037438
Y0039978
Y0042518
T12
X0041861Y0030988
X0045261
X0048661
X0052061
X0055461
X0057161Y0036068
X0053761
X0050361
X0046961
X0043561
X0040161
X0072702Y0036295
X0076102
X0077802Y0031215
X0074402
X0081202
X0084602
X0088002
X0086302Y0036295
X0089702
X0082902
X0079502
T13
X0068961Y0072517
X0038961
T14
X0010635Y0010762
X0090635
X0010635Y0090762
X0090635
M30
