G04*
G04 #@! TF.GenerationSoftware,Altium Limited,Altium Designer,21.3.2 (30)*
G04*
G04 Layer_Color=65535*
%FSTAX44Y44*%
%MOMM*%
G71*
G04*
G04 #@! TF.SameCoordinates,1521B721-1041-421A-BEC2-2198B3717C83*
G04*
G04*
G04 #@! TF.FilePolarity,Positive*
G04*
G01*
G75*
%ADD10C,0.2540*%
%ADD11C,0.1778*%
%ADD12C,0.2000*%
%ADD13C,0.1270*%
%ADD14C,0.1016*%
%ADD15C,0.7620*%
%ADD16C,0.2032*%
%ADD17C,0.3048*%
%ADD18R,1.2533X5.2764*%
%ADD19R,0.5080X3.2000*%
G36*
X000635Y0040513D02*
X0005715Y0041148D01*
Y0040767D01*
X000508D01*
Y0040259D01*
X0005715D01*
Y0039878D01*
X000635Y0040513D01*
D02*
G37*
G36*
X0002544Y0057733D02*
X0003044Y0058233D01*
X0002544Y0058733D01*
Y0057733D01*
D02*
G37*
D10*
X0071461Y0072517D02*
G03*
X0071461Y0072517I-00175J0D01*
G01*
X002301Y0040767D02*
G03*
X002301Y0040767I-00065J0D01*
G01*
X0065087Y0022578D02*
G03*
X0065087Y0022578I-0004J0D01*
G01*
X0096075Y0021844D02*
G03*
X0096075Y0021844I-0004J0D01*
G01*
X0075109Y0055981D02*
G03*
X00727189Y0055981I-00011951J-0000001D01*
G01*
Y00508736D02*
G03*
X0075109Y00508736I00011951J0000001D01*
G01*
X0069902Y0039725D02*
G03*
X00675119Y0039725I-00011951J-0000001D01*
G01*
Y00346176D02*
G03*
X0069902Y00346176I00011951J0000001D01*
G01*
X0095302Y0039725D02*
G03*
X00929119Y0039725I-00011951J-0000001D01*
G01*
Y00346176D02*
G03*
X0095302Y00346176I00011951J0000001D01*
G01*
X0048803Y0054102D02*
G03*
X0048803Y0054102I-0004J0D01*
G01*
X0071818Y0053213D02*
G03*
X0071818Y0053213I-0004J0D01*
G01*
X00346189Y00342636D02*
G03*
X0037009Y00342636I00011951J0000001D01*
G01*
Y0039371D02*
G03*
X00346189Y0039371I-00011951J-0000001D01*
G01*
X00606539Y00341096D02*
G03*
X0063044Y00341096I00011951J0000001D01*
G01*
Y0039217D02*
G03*
X00606539Y0039217I-00011951J-0000001D01*
G01*
X0016764Y0047745D02*
Y0050245D01*
X0010668Y0047745D02*
X0016764D01*
X0010668D02*
Y0050245D01*
X0016764D01*
X00093218Y0048995D02*
X00106426D01*
X00168148D02*
X00181356D01*
X001001Y0040767D02*
X002301D01*
X0021209D02*
X0021463D01*
X0021209D02*
X0021463D01*
X002286Y003937D01*
X0020066Y0040767D02*
X0020447D01*
X0022606Y0038608D01*
X0019177Y0040767D02*
X0019304D01*
X0022225Y0037846D01*
X0018034Y0040767D02*
X0018161D01*
X0021844Y0037084D01*
X0016891Y0040767D02*
X0017018D01*
X0021209Y0036576D01*
X001524Y0040767D02*
X0015875D01*
X0020701Y0035941D01*
X0014478Y0040767D02*
X0014732D01*
X0020066Y0035433D01*
X0013081Y0040767D02*
X0013462D01*
X0019177Y0035052D01*
X0012192Y0040767D02*
X00123444D01*
X00184404Y0034671D01*
X0011049Y00406908D02*
Y0040767D01*
Y00406908D02*
X00173228Y0034417D01*
X001016Y0040259D02*
Y0040767D01*
Y0040259D02*
X0016129Y003429D01*
X0010414Y0038608D02*
X0014224Y0034798D01*
X0016129Y003429D02*
X0016256D01*
X00173228Y0034417D02*
X0017526D01*
X00184404Y0034671D02*
X0018542D01*
X0019177Y0035052D02*
X0019304D01*
X0010668Y0053968D02*
Y0056468D01*
X0016764D01*
Y0053968D02*
Y0056468D01*
X0010668Y0053968D02*
X0016764D01*
X00167894Y0055218D02*
X00181102D01*
X00092964D02*
X00106172D01*
X0057087Y0022578D02*
X0065087D01*
X00637286D02*
X00639318D01*
X0064897Y00216128D01*
X00623824Y0022578D02*
X00629666D01*
X0064643Y00209016D01*
X00616458Y0022578D02*
X00619506D01*
X0064262Y00202666D01*
X00605028Y0022578D02*
X006096D01*
X00638302Y00197078D01*
X00597154Y0022578D02*
X00599186D01*
X0063246Y00192506D01*
X00589026Y0022578D02*
X00625856Y0018895D01*
X00578866Y0022578D02*
X00617728Y00186918D01*
X00570992Y0022197D02*
Y00225272D01*
Y0022197D02*
X0060706Y00185902D01*
X0057531Y00208D02*
Y00208508D01*
Y00208D02*
X00593344Y00189966D01*
X0088519Y0020066D02*
X00903224Y00182626D01*
X0088519Y0020066D02*
Y00201168D01*
X00880872Y0021463D02*
X0091694Y00178562D01*
X00880872Y0021463D02*
Y00217932D01*
X00888746Y0021844D02*
X00927608Y00179578D01*
X00898906Y0021844D02*
X00935736Y0018161D01*
X00909066Y0021844D02*
X0094234Y00185166D01*
X00907034Y0021844D02*
X00909066D01*
X0091948D02*
X00948182Y00189738D01*
X00914908Y0021844D02*
X0091948D01*
X00929386D02*
X009525Y00195326D01*
X00926338Y0021844D02*
X00929386D01*
X00939546D02*
X0095631Y00201676D01*
X00933704Y0021844D02*
X00939546D01*
X00949198D02*
X0095885Y00208788D01*
X00947166Y0021844D02*
X00949198D01*
X0088075D02*
X0096075D01*
X0002272Y00824847D02*
X00227718D01*
X00022618Y00644848D02*
Y00824847D01*
Y00644848D02*
X00227616D01*
X00227819D02*
Y00824847D01*
X0017272Y0079375D02*
Y00823719D01*
Y0079375D02*
Y00795531D01*
Y0079375D02*
Y00794261D01*
Y0079375D02*
Y00794261D01*
X00164589Y00802393D02*
X0017272Y00794261D01*
Y00794641D02*
X00180851Y00802772D01*
X00076959Y00794261D02*
Y0082423D01*
Y00794261D02*
Y00796043D01*
Y00794261D02*
Y00794773D01*
Y00794261D02*
Y00794773D01*
X00068827Y00802904D02*
X00076959Y00794773D01*
Y00795152D02*
X0008509Y00803283D01*
X0028702Y0081788D02*
X0031369D01*
X0028702Y0072136D02*
X0031369D01*
Y0081788D01*
X0028702Y0072136D02*
Y0081788D01*
X0073914Y00538464D02*
Y00548878D01*
Y0052043D02*
Y00530844D01*
X00730758D02*
X00747776D01*
X00730758Y00537702D02*
X00747776D01*
X00751078Y00508746D02*
Y00560054D01*
X00727202Y00508492D02*
Y00559292D01*
X00944521Y00461221D02*
Y00613421D01*
X00856022Y00461221D02*
X00944521D01*
X00856022D02*
Y00613421D01*
X00944521D01*
X00952141Y00664421D02*
Y00816621D01*
X00863642Y00664421D02*
X00952141D01*
X00863642D02*
Y00816621D01*
X00952141D01*
X0068707Y00375904D02*
Y00386318D01*
Y0035787D02*
Y00368284D01*
X00678688D02*
X00695706D01*
X00678688Y00375142D02*
X00695706D01*
X00699008Y00346186D02*
Y00397494D01*
X00675132Y00345932D02*
Y00396732D01*
X0094107Y00375904D02*
Y00386318D01*
Y0035787D02*
Y00368284D01*
X00932688D02*
X00949706D01*
X00932688Y00375142D02*
X00949706D01*
X00953008Y00346186D02*
Y00397494D01*
X00929132Y00345932D02*
Y00396732D01*
X0044803Y0050102D02*
Y0058102D01*
Y00567436D02*
Y00569468D01*
X00457682Y0057912D01*
X0044803Y00553974D02*
Y00559816D01*
X00464794Y0057658D01*
X0044803Y00546608D02*
Y00549656D01*
X00471144Y0057277D01*
X0044803Y00535178D02*
Y0053975D01*
X00476732Y00568452D01*
X0044803Y00527304D02*
Y00529336D01*
X00481304Y0056261D01*
X0044803Y00519176D02*
X0048486Y00556006D01*
X0044803Y00509016D02*
X00486892Y00547878D01*
X00448538Y00501142D02*
X0045184D01*
X00487908Y0053721D01*
X00465302Y0050546D02*
X0046581D01*
X00483844Y00523494D01*
X0063818Y0053213D02*
X0071818D01*
X00704596D02*
X00706628D01*
X0071628Y00522478D01*
X00691134Y0053213D02*
X00696976D01*
X0071374Y00515366D01*
X00683768Y0053213D02*
X00686816D01*
X0070993Y00509016D01*
X00672338Y0053213D02*
X0067691D01*
X00705612Y00503428D01*
X00664464Y0053213D02*
X00666496D01*
X0069977Y00498856D01*
X00656336Y0053213D02*
X00693166Y004953D01*
X00646176Y0053213D02*
X00685038Y00493268D01*
X00638302Y0052832D02*
Y00531622D01*
Y0052832D02*
X0067437Y00492252D01*
X0064262Y0051435D02*
Y00514858D01*
Y0051435D02*
X00660654Y00496316D01*
X00346202Y00342392D02*
Y00393192D01*
X00370078Y00342646D02*
Y00393954D01*
X00349758Y00371602D02*
X00366776D01*
X00349758Y00364744D02*
X00366776D01*
X0035814Y0035433D02*
Y00364744D01*
Y00372364D02*
Y00382778D01*
X00606552Y00340852D02*
Y00391652D01*
X00630428Y00341106D02*
Y00392414D01*
X00610108Y00370062D02*
X00627126D01*
X00610108Y00363204D02*
X00627126D01*
X0061849Y0035279D02*
Y00363204D01*
Y00370824D02*
Y00381238D01*
X0085979Y000381D02*
Y00053335D01*
X00869947Y000381D01*
Y00053335D01*
X00875025Y000381D02*
Y00048257D01*
X00880103Y00053335D01*
X00885182Y00048257D01*
Y000381D01*
Y00045718D01*
X00875025D01*
X0089026Y000381D02*
Y00053335D01*
X00897878D01*
X00900417Y00050796D01*
Y00045718D01*
X00897878Y00043178D01*
X0089026D01*
X0092073Y00053335D02*
X00930887D01*
X00925809D01*
Y000381D01*
X00946122Y00053335D02*
X00935965D01*
Y000381D01*
X00946122D01*
X00935965Y00045718D02*
X00941044D01*
X009512Y000381D02*
Y00048257D01*
X00956279Y00053335D01*
X00961357Y00048257D01*
Y000381D01*
Y00045718D01*
X009512D01*
X00966435Y000381D02*
Y00053335D01*
X00971514Y00048257D01*
X00976592Y00053335D01*
Y000381D01*
X00021588Y00342474D02*
X00019896Y00344167D01*
X0001651D01*
X00014817Y00342474D01*
Y00335703D01*
X0001651Y0033401D01*
X00019896D01*
X00021588Y00335703D01*
Y00339088D01*
X00018203D01*
X00024974Y0033401D02*
Y00344167D01*
X00031745Y0033401D01*
Y00344167D01*
X00035131D02*
Y0033401D01*
X00040209D01*
X00041902Y00335703D01*
Y00342474D01*
X00040209Y00344167D01*
X00035131D01*
X0001651Y0046609D02*
X00019896D01*
X00018203D01*
Y00476247D01*
X0001651Y00474554D01*
X00031745Y0046609D02*
X00024974D01*
X00031745Y00472861D01*
Y00474554D01*
X00030052Y00476247D01*
X00026667D01*
X00024974Y00474554D01*
X00035131Y00476247D02*
Y00469476D01*
X00038516Y0046609D01*
X00041902Y00469476D01*
Y00476247D01*
X00340355Y00786133D02*
Y0079629D01*
X00332738D01*
Y00791212D01*
Y0079629D01*
X0032512D01*
X00335277Y00781055D02*
X00327659D01*
X0032512Y00778516D01*
Y00770898D01*
X00335277D01*
X0032512Y0076582D02*
Y00758202D01*
X00327659Y00755663D01*
X00330198Y00758202D01*
Y00763281D01*
X00332738Y0076582D01*
X00335277Y00763281D01*
Y00755663D01*
X0032512Y00742967D02*
Y00748046D01*
X00327659Y00750585D01*
X00332738D01*
X00335277Y00748046D01*
Y00742967D01*
X00332738Y00740428D01*
X00330198D01*
Y00750585D01*
X00105416Y00287864D02*
X00107108Y00289557D01*
X00110494D01*
X00112187Y00287864D01*
Y00286171D01*
X00110494Y00284478D01*
X00108801D01*
X00110494D01*
X00112187Y00282786D01*
Y00281093D01*
X00110494Y002794D01*
X00107108D01*
X00105416Y00281093D01*
X00115573Y002794D02*
Y00281093D01*
X00117265D01*
Y002794D01*
X00115573D01*
X00124036Y00287864D02*
X00125729Y00289557D01*
X00129115D01*
X00130808Y00287864D01*
Y00286171D01*
X00129115Y00284478D01*
X00127422D01*
X00129115D01*
X00130808Y00282786D01*
Y00281093D01*
X00129115Y002794D01*
X00125729D01*
X00124036Y00281093D01*
X00134193Y00289557D02*
Y00282786D01*
X00137579Y002794D01*
X00140964Y00282786D01*
Y00289557D01*
X00117689Y00314534D02*
X00115996Y00316227D01*
X00112611D01*
X00110918Y00314534D01*
Y00307763D01*
X00112611Y0030607D01*
X00115996D01*
X00117689Y00307763D01*
Y00311148D01*
X00114303D01*
X00121074Y0030607D02*
Y00316227D01*
X00127846Y0030607D01*
Y00316227D01*
X00131231D02*
Y0030607D01*
X00136309D01*
X00138002Y00307763D01*
Y00314534D01*
X00136309Y00316227D01*
X00131231D01*
X00298447Y00873755D02*
X0028829D01*
Y00866137D01*
X00293368D01*
X0028829D01*
Y0085852D01*
X00303525D02*
X00308603D01*
X00306064D01*
Y00873755D01*
X00303525Y00871216D01*
X00100334Y00346712D02*
Y00361948D01*
X00107952D01*
X00110491Y00359408D01*
Y0035433D01*
X00107952Y00351791D01*
X00100334D01*
X00125726Y00346712D02*
X00115569D01*
X00125726Y00356869D01*
Y00359408D01*
X00123187Y00361948D01*
X00118108D01*
X00115569Y00359408D01*
X00482496Y00468362D02*
Y00483597D01*
X00474878D01*
X00472339Y00481058D01*
Y00470902D01*
X00474878Y00468362D01*
X00482496D01*
X00467261Y00470902D02*
X00464721Y00468362D01*
X00459643D01*
X00457104Y00470902D01*
Y00473441D01*
X00459643Y0047598D01*
X00462182D01*
X00459643D01*
X00457104Y00478519D01*
Y00481058D01*
X00459643Y00483597D01*
X00464721D01*
X00467261Y00481058D01*
X00236474Y00478007D02*
Y00462772D01*
X00244091D01*
X00246631Y00465311D01*
Y00475468D01*
X00244091Y00478007D01*
X00236474D01*
X00261866Y00462772D02*
X00251709D01*
X00261866Y00472929D01*
Y00475468D01*
X00259327Y00478007D01*
X00254248D01*
X00251709Y00475468D01*
X00807466Y00857753D02*
Y00847596D01*
X00812544Y00842518D01*
X00817623Y00847596D01*
Y00857753D01*
X00822701Y00842518D02*
Y00857753D01*
X00830319D01*
X00832858Y00855214D01*
Y00850135D01*
X00830319Y00847596D01*
X00822701D01*
X00827779D02*
X00832858Y00842518D01*
X00837936D02*
X00843015D01*
X00840475D01*
Y00857753D01*
X00837936Y00855214D01*
X00710438Y00431541D02*
Y00418845D01*
X00712977Y00416306D01*
X00718055D01*
X00720595Y00418845D01*
Y00431541D01*
X0073583Y00416306D02*
X00725673D01*
X0073583Y00426463D01*
Y00429002D01*
X00733291Y00431541D01*
X00728212D01*
X00725673Y00429002D01*
X00123194Y00546102D02*
Y00561338D01*
X00130812D01*
X00133351Y00558798D01*
Y0055372D01*
X00130812Y00551181D01*
X00123194D01*
X00128272D02*
X00133351Y00546102D01*
X00146047D02*
Y00561338D01*
X00138429Y0055372D01*
X00148586D01*
X00125733Y00482603D02*
Y00497837D01*
X00133351D01*
X0013589Y00495298D01*
Y0049022D01*
X00133351Y00487681D01*
X00125733D01*
X00130812D02*
X0013589Y00482603D01*
X00140968D02*
X00146047D01*
X00143508D01*
Y00497837D01*
X00140968Y00495298D01*
X00024638Y00266446D02*
Y00281681D01*
X00032255D01*
X00034795Y00279142D01*
Y00274063D01*
X00032255Y00271524D01*
X00024638D01*
X00039873Y00266446D02*
X00044951D01*
X00042412D01*
Y00281681D01*
X00039873Y00279142D01*
X0085725Y0062484D02*
Y00640075D01*
X00862328Y00634997D01*
X00867407Y00640075D01*
Y0062484D01*
X00875024D02*
X00880103D01*
X00882642Y00627379D01*
Y00632458D01*
X00880103Y00634997D01*
X00875024D01*
X00872485Y00632458D01*
Y00627379D01*
X00875024Y0062484D01*
X00890259Y00637536D02*
Y00634997D01*
X0088772D01*
X00892798D01*
X00890259D01*
Y00627379D01*
X00892798Y0062484D01*
X00902955D02*
X00908034D01*
X00910573Y00627379D01*
Y00632458D01*
X00908034Y00634997D01*
X00902955D01*
X00900416Y00632458D01*
Y00627379D01*
X00902955Y0062484D01*
X00915651Y00634997D02*
Y0062484D01*
Y00629918D01*
X0091819Y00632458D01*
X0092073Y00634997D01*
X00923269D01*
X00930886Y00622301D02*
X00941043D01*
X00946121Y0062484D02*
Y00640075D01*
X00953739D01*
X00956278Y00637536D01*
Y00632458D01*
X00953739Y00629918D01*
X00946121D01*
X009512D02*
X00956278Y0062484D01*
X00961356D02*
X00966435D01*
X00963895D01*
Y00640075D01*
X00961356Y00637536D01*
X0086487Y0082804D02*
Y00843275D01*
X00869948Y00838197D01*
X00875027Y00843275D01*
Y0082804D01*
X00882644D02*
X00887723D01*
X00890262Y00830579D01*
Y00835658D01*
X00887723Y00838197D01*
X00882644D01*
X00880105Y00835658D01*
Y00830579D01*
X00882644Y0082804D01*
X00897879Y00840736D02*
Y00838197D01*
X0089534D01*
X00900418D01*
X00897879D01*
Y00830579D01*
X00900418Y0082804D01*
X00910575D02*
X00915654D01*
X00918193Y00830579D01*
Y00835658D01*
X00915654Y00838197D01*
X00910575D01*
X00908036Y00835658D01*
Y00830579D01*
X00910575Y0082804D01*
X00923271Y00838197D02*
Y0082804D01*
Y00833118D01*
X0092581Y00835658D01*
X0092835Y00838197D01*
X00930889D01*
X00938506Y00825501D02*
X00948663D01*
X00953741Y00843275D02*
Y0082804D01*
X00963898D01*
X00968976D02*
X00974055D01*
X00971516D01*
Y00843275D01*
X00968976Y00840736D01*
X00685292Y00329687D02*
Y00314452D01*
X00695449D01*
X00708145D02*
Y00329687D01*
X00700527Y0032207D01*
X00710684D01*
X00351282Y00321051D02*
Y00305816D01*
X00361439D01*
X00366517Y00318512D02*
X00369056Y00321051D01*
X00374135D01*
X00376674Y00318512D01*
Y00315973D01*
X00374135Y00313433D01*
X00371595D01*
X00374135D01*
X00376674Y00310894D01*
Y00308355D01*
X00374135Y00305816D01*
X00369056D01*
X00366517Y00308355D01*
X00600456Y00601451D02*
Y00586216D01*
X00610613D01*
X00625848D02*
X00615691D01*
X00625848Y00596373D01*
Y00598912D01*
X00623309Y00601451D01*
X0061823D01*
X00615691Y00598912D01*
X00373383Y00872487D02*
Y00857253D01*
X0038354D01*
X00388618D02*
X00393697D01*
X00391158D01*
Y00872487D01*
X00388618Y00869948D01*
X00072393Y00346707D02*
X00067314D01*
X00069853D01*
Y00334012D01*
X00067314Y00331473D01*
X00064775D01*
X00062236Y00334012D01*
X00077471Y00331473D02*
Y00346707D01*
X00085088D01*
X00087628Y00344168D01*
Y0033909D01*
X00085088Y00336551D01*
X00077471D01*
X00092706Y00331473D02*
X00097784D01*
X00095245D01*
Y00346707D01*
X00092706Y00344168D01*
X00037335Y00624073D02*
X00032256D01*
X00034795D01*
Y00611377D01*
X00032256Y00608838D01*
X00029717D01*
X00027178Y00611377D01*
X0005257Y00608838D02*
X00042413D01*
X0005257Y00618995D01*
Y00621534D01*
X00050031Y00624073D01*
X00044952D01*
X00042413Y00621534D01*
X0008001Y00634471D02*
Y00619236D01*
X00087627D01*
X00090167Y00621775D01*
Y00631932D01*
X00087627Y00634471D01*
X0008001D01*
X00095245Y00619236D02*
X00100323D01*
X00097784D01*
Y00634471D01*
X00095245Y00631932D01*
X00940559Y0043078D02*
X00938019Y00433319D01*
X00932941D01*
X00930402Y0043078D01*
Y00420623D01*
X00932941Y00418084D01*
X00938019D01*
X00940559Y00420623D01*
X00945637Y00418084D02*
X00950715D01*
X00948176D01*
Y00433319D01*
X00945637Y0043078D01*
X0096849Y00433319D02*
X00963411Y0043078D01*
X00958333Y00425701D01*
Y00420623D01*
X00960872Y00418084D01*
X0096595D01*
X0096849Y00420623D01*
Y00423162D01*
X0096595Y00425701D01*
X00958333D01*
X00892299Y00279904D02*
X0088976Y00282443D01*
X00884681D01*
X00882142Y00279904D01*
Y00269747D01*
X00884681Y00267208D01*
X0088976D01*
X00892299Y00269747D01*
X00897377Y00267208D02*
X00902455D01*
X00899916D01*
Y00282443D01*
X00897377Y00279904D01*
X0092023Y00282443D02*
X00910073D01*
Y00274825D01*
X00915151Y00277365D01*
X00917691D01*
X0092023Y00274825D01*
Y00269747D01*
X00917691Y00267208D01*
X00912612D01*
X00910073Y00269747D01*
X00686559Y0043078D02*
X00684019Y00433319D01*
X00678941D01*
X00676402Y0043078D01*
Y00420623D01*
X00678941Y00418084D01*
X00684019D01*
X00686559Y00420623D01*
X00691637Y00418084D02*
X00696715D01*
X00694176D01*
Y00433319D01*
X00691637Y0043078D01*
X00711951Y00418084D02*
Y00433319D01*
X00704333Y00425701D01*
X0071449D01*
X00617979Y004257D02*
X00615439Y00428239D01*
X00610361D01*
X00607822Y004257D01*
Y00415543D01*
X00610361Y00413004D01*
X00615439D01*
X00617979Y00415543D01*
X00623057Y00413004D02*
X00628135D01*
X00625596D01*
Y00428239D01*
X00623057Y004257D01*
X0064591Y00413004D02*
X00635753D01*
X0064591Y00423161D01*
Y004257D01*
X00643371Y00428239D01*
X00638292D01*
X00635753Y004257D01*
X00582419Y0028727D02*
X00579879Y00289809D01*
X00574801D01*
X00572262Y0028727D01*
Y00277113D01*
X00574801Y00274574D01*
X00579879D01*
X00582419Y00277113D01*
X00587497Y00274574D02*
X00592575D01*
X00590036D01*
Y00289809D01*
X00587497Y0028727D01*
X00600193Y00274574D02*
X00605271D01*
X00602732D01*
Y00289809D01*
X00600193Y0028727D01*
X00357629Y00427224D02*
X00355089Y00429763D01*
X00350011D01*
X00347472Y00427224D01*
Y00417067D01*
X00350011Y00414528D01*
X00355089D01*
X00357629Y00417067D01*
X00362707Y00414528D02*
X00367785D01*
X00365246D01*
Y00429763D01*
X00362707Y00427224D01*
X00375403D02*
X00377942Y00429763D01*
X00383021D01*
X0038556Y00427224D01*
Y00417067D01*
X00383021Y00414528D01*
X00377942D01*
X00375403Y00417067D01*
Y00427224D01*
X00201931Y00427988D02*
X00199392Y00430527D01*
X00194313D01*
X00191774Y00427988D01*
Y00417832D01*
X00194313Y00415293D01*
X00199392D01*
X00201931Y00417832D01*
X00207009Y00430527D02*
X00217166D01*
Y00427988D01*
X00207009Y00417832D01*
Y00415293D01*
X00471421Y00602484D02*
X00468881Y00605023D01*
X00463803D01*
X00461264Y00602484D01*
Y00592327D01*
X00463803Y00589788D01*
X00468881D01*
X00471421Y00592327D01*
X00484117Y00589788D02*
Y00605023D01*
X00476499Y00597406D01*
X00486656D01*
X00734565Y00593324D02*
X00732026Y00595863D01*
X00726947D01*
X00724408Y00593324D01*
Y00583167D01*
X00726947Y00580628D01*
X00732026D01*
X00734565Y00583167D01*
X007498Y00580628D02*
X00739643D01*
X007498Y00590785D01*
Y00593324D01*
X00747261Y00595863D01*
X00742182D01*
X00739643Y00593324D01*
X00649729Y00593594D02*
X00647189Y00596133D01*
X00642111D01*
X00639572Y00593594D01*
Y00583437D01*
X00642111Y00580898D01*
X00647189D01*
X00649729Y00583437D01*
X00654807Y00580898D02*
X00659885D01*
X00657346D01*
Y00596133D01*
X00654807Y00593594D01*
X00256537Y00822942D02*
X00241302D01*
X0024892D01*
Y00812785D01*
X00256537D01*
X00241302D01*
Y00800089D02*
Y00805168D01*
X00243841Y00807707D01*
X0024892D01*
X00251459Y00805168D01*
Y00800089D01*
X0024892Y0079755D01*
X0024638D01*
Y00807707D01*
X00251459Y00789933D02*
Y00784854D01*
X0024892Y00782315D01*
X00241302D01*
Y00789933D01*
X00243841Y00792472D01*
X0024638Y00789933D01*
Y00782315D01*
X00256537Y0076708D02*
X00241302D01*
Y00774697D01*
X00243841Y00777237D01*
X0024892D01*
X00251459Y00774697D01*
Y0076708D01*
X00241302Y00754384D02*
Y00759462D01*
X00243841Y00762002D01*
X0024892D01*
X00251459Y00759462D01*
Y00754384D01*
X0024892Y00751845D01*
X0024638D01*
Y00762002D01*
X00251459Y00746767D02*
X00241302D01*
X0024638D01*
X0024892Y00744227D01*
X00251459Y00741688D01*
Y00739149D01*
X00238763Y00731532D02*
Y00721375D01*
X00241302Y00716296D02*
Y00711218D01*
Y00713757D01*
X00256537D01*
X00253998Y00716296D01*
X00260601Y00697718D02*
X00258062Y00700257D01*
X00252983D01*
X00250444Y00697718D01*
Y00687561D01*
X00252983Y00685022D01*
X00258062D01*
X00260601Y00687561D01*
X00265679Y00697718D02*
X00268218Y00700257D01*
X00273297D01*
X00275836Y00697718D01*
Y00695179D01*
X00273297Y00692639D01*
X00275836Y006901D01*
Y00687561D01*
X00273297Y00685022D01*
X00268218D01*
X00265679Y00687561D01*
Y006901D01*
X00268218Y00692639D01*
X00265679Y00695179D01*
Y00697718D01*
X00268218Y00692639D02*
X00273297D01*
X00264919Y00650235D02*
X0025984D01*
X00262379D01*
Y00637539D01*
X0025984Y00635D01*
X00257301D01*
X00254762Y00637539D01*
X00269997Y00635D02*
X00275075D01*
X00272536D01*
Y00650235D01*
X00269997Y00647696D01*
X00385064Y00429255D02*
Y00416559D01*
X00387603Y0041402D01*
X00392682D01*
X00395221Y00416559D01*
Y00429255D01*
X00400299Y0041402D02*
X00405377D01*
X00402838D01*
Y00429255D01*
X00400299Y00426716D01*
D11*
X00053671Y00369889D02*
G03*
X00053372Y00369542I-00011761J00009841D01*
G01*
X00082144Y0043053D02*
G03*
X00082144Y0043053I-00001626J0D01*
G01*
X00082398Y00379222D02*
G03*
X00082398Y00379222I-00001626J0D01*
G01*
X00053652Y00420667D02*
G03*
X00053372Y00420342I-00011742J00009863D01*
G01*
X0056642Y005725D02*
G03*
X0057531Y0056361I0000889J0D01*
G01*
X0057277D02*
G03*
X0056642Y0055726I0J-0000635D01*
G01*
D02*
G03*
X0057277Y0055091I0000635J0D01*
G01*
X005715D02*
G03*
X0056642Y0054583I0J-0000508D01*
G01*
D02*
G03*
X005715Y0054075I0000508J0D01*
G01*
D02*
G03*
X0056642Y0053567I0J-0000508D01*
G01*
D02*
G03*
X005715Y0053059I0000508J0D01*
G01*
D02*
G03*
X0056642Y0052551I0J-0000508D01*
G01*
D02*
G03*
X005715Y0052043I0000508J0D01*
G01*
D02*
G03*
X0056642Y0051535I0J-0000508D01*
G01*
D02*
G03*
X005715Y0051027I0000508J0D01*
G01*
X0057531D02*
G03*
X0056642Y0050138I0J-0000889D01*
G01*
X0001651Y0035433D02*
Y0045593D01*
X00021844Y0040513D02*
X00060198D01*
X0008128Y00457454D02*
X0008763D01*
X0005461Y0045593D02*
X0009271D01*
Y0035433D02*
Y0045593D01*
X00088138Y0035433D02*
X0009271D01*
X00088138D02*
Y003556D01*
X00080264D02*
X00088138D01*
X00080264Y0035433D02*
Y003556D01*
X0001651Y0035433D02*
X00080264D01*
X0001651Y0045593D02*
X0005461D01*
X0006731Y00354584D02*
Y00455422D01*
X0051816Y0057758D02*
X0062738D01*
X0051816Y0049884D02*
Y0057758D01*
Y0049884D02*
X0062738D01*
Y0057758D01*
X0056642Y005725D02*
Y0057758D01*
X0057277Y0056361D02*
X0057531D01*
X0057277Y0055091D02*
X0057531D01*
X005715D02*
X0057531D01*
X005715Y0054075D02*
X0057531D01*
X005715D02*
X0057531D01*
X005715Y0053059D02*
X0057531D01*
X005715D02*
X0057531D01*
X005715Y0052043D02*
X0057531D01*
X005715D02*
X0057531D01*
X005715Y0051027D02*
X0057531D01*
X0056642Y0049884D02*
Y0050138D01*
X0010775Y00590026D02*
Y0059409D01*
Y00599424D01*
X00118164Y0058139D02*
Y00606028D01*
X0010013Y0059409D02*
X0010775D01*
X0014585D02*
X0015347D01*
X0010775Y005786D02*
Y0059409D01*
Y005786D02*
X0014585D01*
Y006106D01*
X0010775D02*
X0014585D01*
X0010775Y0059409D02*
Y006106D01*
D12*
X0040261Y0034068D02*
G03*
X0040261Y0034068I-00001J0D01*
G01*
X0072802Y0034295D02*
G03*
X0072802Y0034295I-00001J0D01*
G01*
X0055535Y0047471D02*
G03*
X0055535Y0047471I-00001J0D01*
G01*
X0075167Y006593D02*
G03*
X0075167Y006593I-00001J0D01*
G01*
X0026516Y0033978D02*
G03*
X0026516Y0033978I-00001J0D01*
G01*
X00262481Y00648003D02*
G03*
X00297535Y0064557I00018189J00008317D01*
G01*
Y0066707D02*
G03*
X00262481Y00664637I-00016865J-0001075D01*
G01*
X0027178Y0027305D02*
Y0032385D01*
X0014478Y0027305D02*
Y0032385D01*
X0027178D01*
X0014478Y0027305D02*
X0027178D01*
X0029083Y0020701D02*
Y0025781D01*
X0003683Y0020701D02*
X0005588D01*
X0003683D02*
Y0025781D01*
X0005588D01*
X0029083D01*
X0005588Y0020701D02*
X0029083D01*
D13*
X0025273Y00626872D02*
X0035433D01*
X0025273Y00525272D02*
Y00626872D01*
Y00525272D02*
X0035433D01*
Y00626872D01*
X0038521Y0035738D02*
Y0040358D01*
X0058801D01*
Y0035738D02*
Y0040358D01*
X0091342Y0035965D02*
Y0040585D01*
X0071062D02*
X0091342D01*
X0071062Y0035965D02*
Y0040585D01*
X0048835Y0046011D02*
X0054035D01*
X0048835Y0048931D02*
X0054035D01*
X0073787Y0072377D02*
Y007502D01*
Y0072377D02*
X0083947D01*
Y007502D01*
X0023668Y0034728D02*
X0028258D01*
X0023668D02*
Y0045228D01*
X0028258D01*
Y0034728D02*
Y0045228D01*
X0002534Y0050152D02*
X0007034D01*
Y0060052D01*
X0002534D02*
X0007034D01*
X0002534Y0050152D02*
Y0060052D01*
D14*
X0068326Y0029945D02*
X0068453D01*
X0068326Y0027659D02*
Y0029945D01*
Y0027659D02*
X0068453D01*
X0069977Y0029945D02*
X0070104D01*
Y0027659D02*
Y0029945D01*
X0069977Y0027659D02*
X0070104D01*
X0036576Y0026797D02*
X0036703D01*
Y0029083D01*
X0036576D02*
X0036703D01*
X0034925Y0026797D02*
X0035052D01*
X0034925D02*
Y0029083D01*
X0035052D01*
D15*
X00282016Y009398D02*
Y0097027D01*
X00297251D01*
X00302329Y00965192D01*
Y00955035D01*
X00297251Y00949957D01*
X00282016D01*
X00317564Y009398D02*
X00327721D01*
X00332799Y00944878D01*
Y00955035D01*
X00327721Y00960113D01*
X00317564D01*
X00312486Y00955035D01*
Y00944878D01*
X00317564Y009398D01*
X00342956Y00960113D02*
Y00944878D01*
X00348034Y009398D01*
X00353113Y00944878D01*
X00358191Y009398D01*
X00363269Y00944878D01*
Y00960113D01*
X00388661Y009398D02*
X00378504D01*
X00373426Y00944878D01*
Y00955035D01*
X00378504Y00960113D01*
X00388661D01*
X00393739Y00955035D01*
Y00949957D01*
X00373426D01*
X00403896Y00960113D02*
Y009398D01*
Y00949957D01*
X00408974Y00955035D01*
X00414053Y00960113D01*
X00419131D01*
X00464836Y0097027D02*
Y009398D01*
X00480071D01*
X0048515Y00944878D01*
Y00949957D01*
X00480071Y00955035D01*
X00464836D01*
X00480071D01*
X0048515Y00960113D01*
Y00965192D01*
X00480071Y0097027D01*
X00464836D01*
X00500385Y009398D02*
X00510542D01*
X0051562Y00944878D01*
Y00955035D01*
X00510542Y00960113D01*
X00500385D01*
X00495307Y00955035D01*
Y00944878D01*
X00500385Y009398D01*
X00530855Y00960113D02*
X00541012D01*
X0054609Y00955035D01*
Y009398D01*
X00530855D01*
X00525777Y00944878D01*
X00530855Y00949957D01*
X0054609D01*
X00556247Y00960113D02*
Y009398D01*
Y00949957D01*
X00561325Y00955035D01*
X00566404Y00960113D01*
X00571482D01*
X0060703Y0097027D02*
Y009398D01*
X00591795D01*
X00586717Y00944878D01*
Y00955035D01*
X00591795Y00960113D01*
X0060703D01*
X00647657Y0097027D02*
Y00949957D01*
X00657814Y009398D01*
X00667971Y00949957D01*
Y0097027D01*
X00678127Y009398D02*
X00688284D01*
X00683206D01*
Y0097027D01*
X00678127Y00965192D01*
X00703519Y009398D02*
Y00944878D01*
X00708598D01*
Y009398D01*
X00703519D01*
X00728911Y00965192D02*
X00733989Y0097027D01*
X00744146D01*
X00749224Y00965192D01*
Y00944878D01*
X00744146Y009398D01*
X00733989D01*
X00728911Y00944878D01*
Y00965192D01*
D16*
X00976005Y00557022D02*
X00980238D01*
X00982353Y00559138D01*
X00980238Y00561254D01*
X00976005D01*
X00977064Y00567602D02*
X00976005Y00566544D01*
Y00564428D01*
X00977064Y0056337D01*
X00981295D01*
X00982353Y00564428D01*
Y00566544D01*
X00981295Y00567602D01*
X00977064Y0057395D02*
X00976005Y00572892D01*
Y00570776D01*
X00977064Y00569718D01*
X00981295D01*
X00982353Y00570776D01*
Y00572892D01*
X00981295Y0057395D01*
X00960554Y00561254D02*
X00959495Y00560196D01*
Y0055808D01*
X00960554Y00557022D01*
X00964785D01*
X00965843Y0055808D01*
Y00560196D01*
X00964785Y00561254D01*
X00962669D01*
Y00559138D01*
X00965843Y0056337D02*
X00959495D01*
X00965843Y00567602D01*
X00959495D01*
Y00569718D02*
X00965843D01*
Y00572892D01*
X00964785Y0057395D01*
X00960554D01*
X00959495Y00572892D01*
Y00569718D01*
X00965708Y00526542D02*
X0095936D01*
X00961476Y00528658D01*
X0095936Y00530774D01*
X00965708D01*
Y0053289D02*
X0095936D01*
Y00536064D01*
X00960418Y00537122D01*
X00962534D01*
X00963592Y00536064D01*
Y0053289D01*
Y00535006D02*
X00965708Y00537122D01*
Y0054347D02*
Y00539238D01*
X00961476Y0054347D01*
X00960418D01*
X0095936Y00542412D01*
Y00540296D01*
X00960418Y00539238D01*
X00976005Y00526371D02*
Y0052214D01*
X00982353D01*
Y00526371D01*
X00979179Y0052214D02*
Y00524255D01*
X00982353Y00528487D02*
X00978121D01*
Y00531661D01*
X00979179Y00532719D01*
X00982353D01*
Y00534835D02*
X00976005D01*
Y00538009D01*
X00977064Y00539067D01*
X00979179D01*
X00980237Y00538009D01*
Y00534835D01*
Y00536951D02*
X00982353Y00539067D01*
Y00545415D02*
Y00541183D01*
X00978121Y00545415D01*
X00977064D01*
X00976005Y00544357D01*
Y00542241D01*
X00977064Y00541183D01*
X00965708Y00494792D02*
X0095936D01*
X00961476Y00496908D01*
X0095936Y00499024D01*
X00965708D01*
Y0050114D02*
X0095936D01*
Y00504314D01*
X00960418Y00505372D01*
X00962534D01*
X00963592Y00504314D01*
Y0050114D01*
Y00503256D02*
X00965708Y00505372D01*
Y00507488D02*
Y00509604D01*
Y00508546D01*
X0095936D01*
X00960418Y00507488D01*
X00976005Y00494621D02*
Y0049039D01*
X00982353D01*
Y00494621D01*
X00979179Y0049039D02*
Y00492505D01*
X00982353Y00496737D02*
X00978121D01*
Y00499911D01*
X00979179Y00500969D01*
X00982353D01*
Y00503085D02*
X00976005D01*
Y00506259D01*
X00977064Y00507317D01*
X00979179D01*
X00980238Y00506259D01*
Y00503085D01*
Y00505201D02*
X00982353Y00507317D01*
Y00509433D02*
Y00511549D01*
Y00510491D01*
X00976005D01*
X00977064Y00509433D01*
X00979816Y00699091D02*
Y00694859D01*
X00986163D01*
Y00699091D01*
X00982989Y00694859D02*
Y00696975D01*
X00986163Y00701207D02*
X00981932D01*
Y00704381D01*
X00982989Y00705439D01*
X00986163D01*
X00979816Y00707555D02*
X00986163D01*
Y00711787D01*
Y00713903D02*
Y00716019D01*
Y00714961D01*
X00979816D01*
X00980873Y00713903D01*
X00969518Y00699262D02*
X0096317D01*
X00965286Y00701378D01*
X0096317Y00703494D01*
X00969518D01*
X0096317Y0070561D02*
X00969518D01*
Y00709842D01*
Y00711958D02*
Y00714074D01*
Y00713016D01*
X0096317D01*
X00964228Y00711958D01*
X00979816Y00730842D02*
Y00726609D01*
X00986163D01*
Y00730842D01*
X00982989Y00726609D02*
Y00728726D01*
X00986163Y00732957D02*
X00981931D01*
Y00736131D01*
X00982989Y00737189D01*
X00986163D01*
X00979816Y00739305D02*
X00986163D01*
Y00743537D01*
Y00749885D02*
Y00745653D01*
X00981931Y00749885D01*
X00980873D01*
X00979816Y00748827D01*
Y00746711D01*
X00980873Y00745653D01*
X00969518Y00731012D02*
X0096317D01*
X00965286Y00733128D01*
X0096317Y00735244D01*
X00969518D01*
X0096317Y0073736D02*
X00969518D01*
Y00741592D01*
Y0074794D02*
Y00743708D01*
X00965286Y0074794D01*
X00964228D01*
X0096317Y00746882D01*
Y00744766D01*
X00964228Y00743708D01*
X00964363Y00765724D02*
X00963306Y00764666D01*
Y0076255D01*
X00964363Y00761492D01*
X00968595D01*
X00969653Y0076255D01*
Y00764666D01*
X00968595Y00765724D01*
X00966479D01*
Y00763608D01*
X00969653Y0076784D02*
X00963306D01*
X00969653Y00772072D01*
X00963306D01*
Y00774188D02*
X00969653D01*
Y00777362D01*
X00968595Y0077842D01*
X00964363D01*
X00963306Y00777362D01*
Y00774188D01*
X00979816Y00761492D02*
X00984047D01*
X00986163Y00763608D01*
X00984047Y00765724D01*
X00979816D01*
X00980873Y00772072D02*
X00979816Y00771014D01*
Y00768898D01*
X00980873Y0076784D01*
X00985105D01*
X00986163Y00768898D01*
Y00771014D01*
X00985105Y00772072D01*
X00980873Y0077842D02*
X00979816Y00777362D01*
Y00775246D01*
X00980873Y00774188D01*
X00985105D01*
X00986163Y00775246D01*
Y00777362D01*
X00985105Y0077842D01*
X0001854Y00505968D02*
X00010922D01*
Y00502159D01*
X00012192Y0050089D01*
X0001727D01*
X0001854Y00502159D01*
Y00505968D01*
Y0049835D02*
Y00495811D01*
Y00497081D01*
X00010922D01*
Y0049835D01*
Y00495811D01*
Y00492002D02*
X0001854D01*
Y00488194D01*
X0001727Y00486924D01*
X00014731D01*
X00013461Y00488194D01*
Y00492002D01*
Y00489463D02*
X00010922Y00486924D01*
Y00550418D02*
X0001854D01*
Y00546609D01*
X0001727Y0054534D01*
X00014731D01*
X00013461Y00546609D01*
Y00550418D01*
X0001854Y005428D02*
X00012192D01*
X00010922Y00541531D01*
Y00538992D01*
X00012192Y00537722D01*
X0001854D01*
Y00535183D02*
X00010922D01*
Y00530105D01*
X0001727Y00522487D02*
X0001854Y00523757D01*
Y00526296D01*
X0001727Y00527565D01*
X00016D01*
X00014731Y00526296D01*
Y00523757D01*
X00013461Y00522487D01*
X00012192D01*
X00010922Y00523757D01*
Y00526296D01*
X00012192Y00527565D01*
X0001854Y00514869D02*
Y00519948D01*
X00010922D01*
Y00514869D01*
X00014731Y00519948D02*
Y00517409D01*
X0001727Y0057582D02*
X0001854Y00577089D01*
Y00579628D01*
X0001727Y00580898D01*
X00012192D01*
X00010922Y00579628D01*
Y00577089D01*
X00012192Y0057582D01*
X00014731D01*
Y00578359D01*
X00010922Y0057328D02*
X0001854D01*
X00010922Y00568202D01*
X0001854D01*
Y00565663D02*
X00010922D01*
Y00561854D01*
X00012192Y00560585D01*
X0001727D01*
X0001854Y00561854D01*
Y00565663D01*
Y00615188D02*
X00013461D01*
X00010922Y00612649D01*
X00013461Y0061011D01*
X0001854D01*
X0001727Y00602492D02*
X0001854Y00603762D01*
Y00606301D01*
X0001727Y0060757D01*
X00012192D01*
X00010922Y00606301D01*
Y00603762D01*
X00012192Y00602492D01*
X0001727Y00594875D02*
X0001854Y00596144D01*
Y00598683D01*
X0001727Y00599953D01*
X00012192D01*
X00010922Y00598683D01*
Y00596144D01*
X00012192Y00594875D01*
X00301834Y0024003D02*
X0029337D01*
X00301834Y00248494D01*
Y0025061D01*
X00299718Y00252726D01*
X00295486D01*
X0029337Y0025061D01*
X00306066D02*
X00308182Y00252726D01*
X00312414D01*
X0031453Y0025061D01*
Y00242146D01*
X00312414Y0024003D01*
X00308182D01*
X00306066Y00242146D01*
Y0025061D01*
X0029337Y0021463D02*
X00297602D01*
X00295486D01*
Y00227326D01*
X0029337Y0022521D01*
X0030395Y00216746D02*
X00306066Y0021463D01*
X00310298D01*
X00312414Y00216746D01*
Y0022521D01*
X00310298Y00227326D01*
X00306066D01*
X0030395Y0022521D01*
Y00223094D01*
X00306066Y00220978D01*
X00312414D01*
X0002413Y0021463D02*
X00028362D01*
X00026246D01*
Y00227326D01*
X0002413Y0022521D01*
X00032594Y0024003D02*
X0002413D01*
X00032594Y00248494D01*
Y0025061D01*
X00030478Y00252726D01*
X00026246D01*
X0002413Y0025061D01*
D17*
X00047916Y00839978D02*
X00030988D01*
X00047916Y00856906D01*
Y00861138D01*
X00043684Y0086537D01*
X0003522D01*
X00030988Y00861138D01*
X00069076Y00839978D02*
Y0086537D01*
X0005638Y00852674D01*
X00073308D01*
X00081772Y0086537D02*
Y00848442D01*
X00090236Y00839978D01*
X00098699Y00848442D01*
Y0086537D01*
X00174875Y00861138D02*
X00170643Y0086537D01*
X00162179D01*
X00157947Y00861138D01*
Y0084421D01*
X00162179Y00839978D01*
X00170643D01*
X00174875Y0084421D01*
Y00852674D01*
X00166411D01*
X00183339Y00839978D02*
Y0086537D01*
X00200267Y00839978D01*
Y0086537D01*
X00208731D02*
Y00839978D01*
X00221427D01*
X00225658Y0084421D01*
Y00861138D01*
X00221427Y0086537D01*
X00208731D01*
D18*
X00938631Y00537211D02*
D03*
X00946251Y00740411D02*
D03*
D19*
X0011029Y005946D02*
D03*
M02*
