G04*
G04 #@! TF.GenerationSoftware,Altium Limited,Altium Designer,21.3.2 (30)*
G04*
G04 Layer_Color=2752767*
%FSTAX44Y44*%
%MOMM*%
G71*
G04*
G04 #@! TF.SameCoordinates,1521B721-1041-421A-BEC2-2198B3717C83*
G04*
G04*
G04 #@! TF.FilePolarity,Positive*
G04*
G01*
G75*
%ADD94C,0.0508*%
%ADD95C,0.0677*%
%ADD96C,0.0339*%
D94*
X00387578Y00723138D02*
Y00727202D01*
X00391642D01*
Y00723138D01*
X00387578D01*
X00687578D02*
Y00727202D01*
X00691642D01*
Y00723138D01*
X00687578D01*
X001651Y00431038D02*
X00163068Y00435102D01*
X00167132D01*
X001651Y00431038D01*
Y00380238D02*
X00163068Y00384302D01*
X00167132D01*
X001651Y00380238D01*
X0061087Y00241248D02*
X00608838Y00245312D01*
X00612902D01*
X0061087Y00241248D01*
Y00206248D02*
X00608838Y00210312D01*
X00612902D01*
X0061087Y00206248D01*
X0092075Y00198908D02*
X00918718Y00202972D01*
X00922782D01*
X0092075Y00198908D01*
Y00233908D02*
X00918718Y00237972D01*
X00922782D01*
X0092075Y00233908D01*
X0004191Y00428498D02*
X00042926Y00429514D01*
X00043942D01*
X00042926Y0043053D01*
X00043942Y00431546D01*
X00042926D01*
X0004191Y00432562D01*
X00040894Y00431546D01*
X00039878D01*
X00040894Y0043053D01*
X00039878Y00429514D01*
X00040894D01*
X0004191Y00428498D01*
Y00377698D02*
X00042926Y00378714D01*
X00043942D01*
X00042926Y0037973D01*
X00043942Y00380746D01*
X00042926D01*
X0004191Y00381762D01*
X00040894Y00380746D01*
X00039878D01*
X00040894Y0037973D01*
X00039878Y00378714D01*
X00040894D01*
X0004191Y00377698D01*
X00075687Y00686308D02*
X00076703Y0068834D01*
X00075687Y00690372D01*
X00077719Y00689356D01*
X00079751Y00690372D01*
X00078735Y0068834D01*
X00079751Y00686308D01*
X00077719Y00687324D01*
X00075687Y00686308D01*
X00171704Y00687324D02*
Y00686308D01*
X00173736D01*
Y00687324D01*
X00174752D01*
Y00689356D01*
X00173736D01*
Y00690372D01*
X00171704D01*
Y00689356D01*
X00170688D01*
Y00687324D01*
X00171704D01*
X00267462Y00582168D02*
X00268478D01*
X00269494Y00583184D01*
X0027051Y00582168D01*
X00271526D01*
Y00583184D01*
X0027051Y005842D01*
X00271526Y00585216D01*
Y00586232D01*
X0027051D01*
X00269494Y00585216D01*
X00268478Y00586232D01*
X00267462D01*
Y00585216D01*
X00268478Y005842D01*
X00267462Y00583184D01*
Y00582168D01*
X00301498D02*
X00302514D01*
X0030353Y00583184D01*
X00304546Y00582168D01*
X00305562D01*
Y00583184D01*
X00304546Y005842D01*
X00305562Y00585216D01*
Y00586232D01*
X00304546D01*
X0030353Y00585216D01*
X00302514Y00586232D01*
X00301498D01*
Y00585216D01*
X00302514Y005842D01*
X00301498Y00583184D01*
Y00582168D01*
X00335534D02*
X0033655D01*
X00337566Y00583184D01*
X00338582Y00582168D01*
X00339598D01*
Y00583184D01*
X00338582Y005842D01*
X00339598Y00585216D01*
Y00586232D01*
X00338582D01*
X00337566Y00585216D01*
X0033655Y00586232D01*
X00335534D01*
Y00585216D01*
X0033655Y005842D01*
X00335534Y00583184D01*
Y00582168D01*
X00318262Y0053975D02*
X00319278D01*
X00320294Y00540766D01*
X0032131Y0053975D01*
X00322326D01*
Y00540766D01*
X0032131Y00541782D01*
X00322326Y00542798D01*
Y00543814D01*
X0032131D01*
X00320294Y00542798D01*
X00319278Y00543814D01*
X00318262D01*
Y00542798D01*
X00319278Y00541782D01*
X00318262Y00540766D01*
Y0053975D01*
X00284734D02*
X0028575D01*
X00286766Y00540766D01*
X00287782Y0053975D01*
X00288798D01*
Y00540766D01*
X00287782Y00541782D01*
X00288798Y00542798D01*
Y00543814D01*
X00287782D01*
X00286766Y00542798D01*
X0028575Y00543814D01*
X00284734D01*
Y00542798D01*
X0028575Y00541782D01*
X00284734Y00540766D01*
Y0053975D01*
X00569578Y0036068D02*
X0057161Y00362712D01*
X00573642Y0036068D01*
X0057161Y00358648D01*
X00569578Y0036068D01*
X00552578Y0030988D02*
X0055461Y00311912D01*
X00556642Y0030988D01*
X0055461Y00307848D01*
X00552578Y0030988D01*
X00535578Y0036068D02*
X0053761Y00362712D01*
X00539642Y0036068D01*
X0053761Y00358648D01*
X00535578Y0036068D01*
X00518578Y0030988D02*
X0052061Y00311912D01*
X00522642Y0030988D01*
X0052061Y00307848D01*
X00518578Y0030988D01*
X00501578Y0036068D02*
X0050361Y00362712D01*
X00505642Y0036068D01*
X0050361Y00358648D01*
X00501578Y0036068D01*
X00484578Y0030988D02*
X0048661Y00311912D01*
X00488642Y0030988D01*
X0048661Y00307848D01*
X00484578Y0030988D01*
X00467578Y0036068D02*
X0046961Y00362712D01*
X00471642Y0036068D01*
X0046961Y00358648D01*
X00467578Y0036068D01*
X00450578Y0030988D02*
X0045261Y00311912D01*
X00454642Y0030988D01*
X0045261Y00307848D01*
X00450578Y0030988D01*
X00433578Y0036068D02*
X0043561Y00362712D01*
X00437642Y0036068D01*
X0043561Y00358648D01*
X00433578Y0036068D01*
X00416578Y0030988D02*
X0041861Y00311912D01*
X00420642Y0030988D01*
X0041861Y00307848D01*
X00416578Y0030988D01*
X00399578Y0036068D02*
X0040161Y00362712D01*
X00403642Y0036068D01*
X0040161Y00358648D01*
X00399578Y0036068D01*
X00724988Y0036295D02*
X0072702Y00364982D01*
X00729052Y0036295D01*
X0072702Y00360918D01*
X00724988Y0036295D01*
X00741988Y0031215D02*
X0074402Y00314182D01*
X00746052Y0031215D01*
X0074402Y00310118D01*
X00741988Y0031215D01*
X00758988Y0036295D02*
X0076102Y00364982D01*
X00763052Y0036295D01*
X0076102Y00360918D01*
X00758988Y0036295D01*
X00775988Y0031215D02*
X0077802Y00314182D01*
X00780052Y0031215D01*
X0077802Y00310118D01*
X00775988Y0031215D01*
X00792988Y0036295D02*
X0079502Y00364982D01*
X00797052Y0036295D01*
X0079502Y00360918D01*
X00792988Y0036295D01*
X00809988Y0031215D02*
X0081202Y00314182D01*
X00814052Y0031215D01*
X0081202Y00310118D01*
X00809988Y0031215D01*
X00826988Y0036295D02*
X0082902Y00364982D01*
X00831052Y0036295D01*
X0082902Y00360918D01*
X00826988Y0036295D01*
X00843988Y0031215D02*
X0084602Y00314182D01*
X00848052Y0031215D01*
X0084602Y00310118D01*
X00843988Y0031215D01*
X00860988Y0036295D02*
X0086302Y00364982D01*
X00865052Y0036295D01*
X0086302Y00360918D01*
X00860988Y0036295D01*
X00877988Y0031215D02*
X0088002Y00314182D01*
X00882052Y0031215D01*
X0088002Y00310118D01*
X00877988Y0031215D01*
X00894988Y0036295D02*
X0089702Y00364982D01*
X00899052Y0036295D01*
X0089702Y00360918D01*
X00894988Y0036295D01*
X00298958Y00791718D02*
X00299974D01*
X0030099Y00792734D01*
X00302006Y00791718D01*
X00303022D01*
Y00792734D01*
X00302006Y0079375D01*
X00303022Y00794766D01*
Y00795782D01*
X00302006D01*
X0030099Y00794766D01*
X00299974Y00795782D01*
X00298958D01*
Y00794766D01*
X00299974Y0079375D01*
X00298958Y00792734D01*
Y00791718D01*
Y00740528D02*
X00299974D01*
X0030099Y00741544D01*
X00302006Y00740528D01*
X00303022D01*
Y00741544D01*
X00302006Y0074256D01*
X00303022Y00743576D01*
Y00744592D01*
X00302006D01*
X0030099Y00743576D01*
X00299974Y00744592D01*
X00298958D01*
Y00743576D01*
X00299974Y0074256D01*
X00298958Y00741544D01*
Y00740528D01*
X00737108Y00557768D02*
Y00561832D01*
X00741172D01*
Y00557768D01*
X00737108D01*
X00738124Y00558784D02*
Y00560816D01*
X00740156D01*
Y00558784D01*
X00738124D01*
X00737108Y00506968D02*
Y00511032D01*
X00741172D01*
Y00506968D01*
X00737108D01*
X00738124Y00507984D02*
Y00510016D01*
X00740156D01*
Y00507984D01*
X00738124D01*
X009144Y00509778D02*
X00912368Y00513842D01*
X00916432D01*
X009144Y00509778D01*
X00889D02*
X00886968Y00513842D01*
X00891032D01*
X00889Y00509778D01*
X009144Y00535178D02*
X00912368Y00539242D01*
X00916432D01*
X009144Y00535178D01*
Y00560578D02*
X00912368Y00564642D01*
X00916432D01*
X009144Y00560578D01*
X00889D02*
X00886968Y00564642D01*
X00891032D01*
X00889Y00560578D01*
Y00535178D02*
X00886968Y00539242D01*
X00891032D01*
X00889Y00535178D01*
X0092202Y00712978D02*
X00919988Y00717042D01*
X00924052D01*
X0092202Y00712978D01*
X0089662D02*
X00894588Y00717042D01*
X00898652D01*
X0089662Y00712978D01*
X0092202Y00738378D02*
X00919988Y00742442D01*
X00924052D01*
X0092202Y00738378D01*
Y00763778D02*
X00919988Y00767842D01*
X00924052D01*
X0092202Y00763778D01*
X0089662D02*
X00894588Y00767842D01*
X00898652D01*
X0089662Y00763778D01*
Y00738378D02*
X00894588Y00742442D01*
X00898652D01*
X0089662Y00738378D01*
X0015748Y00283718D02*
X00155448Y00287782D01*
X00159512D01*
X0015748Y00283718D01*
Y00309118D02*
X00155448Y00313182D01*
X00159512D01*
X0015748Y00309118D01*
X0018288Y00283718D02*
X00180848Y00287782D01*
X00184912D01*
X0018288Y00283718D01*
Y00309118D02*
X00180848Y00313182D01*
X00184912D01*
X0018288Y00309118D01*
X0020828Y00283718D02*
X00206248Y00287782D01*
X00210312D01*
X0020828Y00283718D01*
Y00309118D02*
X00206248Y00313182D01*
X00210312D01*
X0020828Y00309118D01*
X0023368Y00283718D02*
X00231648Y00287782D01*
X00235712D01*
X0023368Y00283718D01*
Y00309118D02*
X00231648Y00313182D01*
X00235712D01*
X0023368Y00309118D01*
X0025908Y00283718D02*
X00257048Y00287782D01*
X00261112D01*
X0025908Y00283718D01*
Y00309118D02*
X00257048Y00313182D01*
X00261112D01*
X0025908Y00309118D01*
X00685038Y00395208D02*
Y00399272D01*
X00689102D01*
Y00395208D01*
X00685038D01*
X00686054Y00396224D02*
Y00398256D01*
X00688086D01*
Y00396224D01*
X00686054D01*
X00685038Y00344408D02*
Y00348472D01*
X00689102D01*
Y00344408D01*
X00685038D01*
X00686054Y00345424D02*
Y00347456D01*
X00688086D01*
Y00345424D01*
X00686054D01*
X00939038Y00395208D02*
Y00399272D01*
X00943102D01*
Y00395208D01*
X00939038D01*
X00940054Y00396224D02*
Y00398256D01*
X00942086D01*
Y00396224D01*
X00940054D01*
X00939038Y00344408D02*
Y00348472D01*
X00943102D01*
Y00344408D01*
X00939038D01*
X00940054Y00345424D02*
Y00347456D01*
X00942086D01*
Y00345424D01*
X00940054D01*
X0043053Y00538988D02*
X00428498Y00543052D01*
X00432562D01*
X0043053Y00538988D01*
X0046553D02*
X00463498Y00543052D01*
X00467562D01*
X0046553Y00538988D01*
X0067818Y00547598D02*
X00676148Y00551662D01*
X00680212D01*
X0067818Y00547598D01*
Y00512598D02*
X00676148Y00516662D01*
X00680212D01*
X0067818Y00512598D01*
X00655828Y00470138D02*
Y00474202D01*
X00659892D01*
Y00470138D01*
X00655828D01*
X00656844Y00471154D02*
Y00473186D01*
X00658876D01*
Y00471154D01*
X00656844D01*
X00605028Y00470138D02*
Y00474202D01*
X00609092D01*
Y00470138D01*
X00605028D01*
X00606044Y00471154D02*
Y00473186D01*
X00608076D01*
Y00471154D01*
X00606044D01*
X000887Y00592058D02*
X00086668Y00596122D01*
X00090732D01*
X000887Y00592058D01*
Y00593074D02*
X00087684Y00595106D01*
X00089716D01*
X000887Y00593074D01*
X001649Y00592058D02*
X00162868Y00596122D01*
X00166932D01*
X001649Y00592058D01*
Y00593074D02*
X00163884Y00595106D01*
X00165916D01*
X001649Y00593074D01*
X0004953Y00217678D02*
X00047498Y00221742D01*
X00051562D01*
X0004953Y00217678D01*
Y00243078D02*
X00047498Y00247142D01*
X00051562D01*
X0004953Y00243078D01*
X0007493Y00217678D02*
X00072898Y00221742D01*
X00076962D01*
X0007493Y00217678D01*
Y00243078D02*
X00072898Y00247142D01*
X00076962D01*
X0007493Y00243078D01*
X0010033Y00217678D02*
X00098298Y00221742D01*
X00102362D01*
X0010033Y00217678D01*
Y00243078D02*
X00098298Y00247142D01*
X00102362D01*
X0010033Y00243078D01*
X0012573Y00217678D02*
X00123698Y00221742D01*
X00127762D01*
X0012573Y00217678D01*
Y00243078D02*
X00123698Y00247142D01*
X00127762D01*
X0012573Y00243078D01*
X0015113Y00217678D02*
X00149098Y00221742D01*
X00153162D01*
X0015113Y00217678D01*
Y00243078D02*
X00149098Y00247142D01*
X00153162D01*
X0015113Y00243078D01*
X0017653Y00217678D02*
X00174498Y00221742D01*
X00178562D01*
X0017653Y00217678D01*
Y00243078D02*
X00174498Y00247142D01*
X00178562D01*
X0017653Y00243078D01*
X0020193Y00217678D02*
X00199898Y00221742D01*
X00203962D01*
X0020193Y00217678D01*
Y00243078D02*
X00199898Y00247142D01*
X00203962D01*
X0020193Y00243078D01*
X0022733Y00217678D02*
X00225298Y00221742D01*
X00229362D01*
X0022733Y00217678D01*
Y00243078D02*
X00225298Y00247142D01*
X00229362D01*
X0022733Y00243078D01*
X0025273Y00217678D02*
X00250698Y00221742D01*
X00254762D01*
X0025273Y00217678D01*
Y00243078D02*
X00250698Y00247142D01*
X00254762D01*
X0025273Y00243078D01*
X0027813Y00217678D02*
X00276098Y00221742D01*
X00280162D01*
X0027813Y00217678D01*
Y00243078D02*
X00276098Y00247142D01*
X00280162D01*
X0027813Y00243078D01*
X00356108Y00340868D02*
Y00344932D01*
X00360172D01*
Y00340868D01*
X00356108D01*
X00357124Y00341884D02*
Y00343916D01*
X00359156D01*
Y00341884D01*
X00357124D01*
X00356108Y00391668D02*
Y00395732D01*
X00360172D01*
Y00391668D01*
X00356108D01*
X00357124Y00392684D02*
Y00394716D01*
X00359156D01*
Y00392684D01*
X00357124D01*
X00616458Y00339328D02*
Y00343392D01*
X00620522D01*
Y00339328D01*
X00616458D01*
X00617474Y00340344D02*
Y00342376D01*
X00619506D01*
Y00340344D01*
X00617474D01*
X00616458Y00390128D02*
Y00394192D01*
X00620522D01*
Y00390128D01*
X00616458D01*
X00617474Y00391144D02*
Y00393176D01*
X00619506D01*
Y00391144D01*
X00617474D01*
X0005334Y00518988D02*
X00054356Y00520004D01*
X00055372D01*
X00054356Y0052102D01*
X00055372Y00522036D01*
X00054356D01*
X0005334Y00523052D01*
X00052324Y00522036D01*
X00051308D01*
X00052324Y0052102D01*
X00051308Y00520004D01*
X00052324D01*
X0005334Y00518988D01*
Y00520004D02*
X00053848Y00520512D01*
X00054356D01*
X00053848Y0052102D01*
X00054356Y00521528D01*
X00053848D01*
X0005334Y00522036D01*
X00052832Y00521528D01*
X00052324D01*
X00052832Y0052102D01*
X00052324Y00520512D01*
X00052832D01*
X0005334Y00520004D01*
Y00538988D02*
X00054356Y00540004D01*
X00055372D01*
X00054356Y0054102D01*
X00055372Y00542036D01*
X00054356D01*
X0005334Y00543052D01*
X00052324Y00542036D01*
X00051308D01*
X00052324Y0054102D01*
X00051308Y00540004D01*
X00052324D01*
X0005334Y00538988D01*
Y00540004D02*
X00053848Y00540512D01*
X00054356D01*
X00053848Y0054102D01*
X00054356Y00541528D01*
X00053848D01*
X0005334Y00542036D01*
X00052832Y00541528D01*
X00052324D01*
X00052832Y0054102D01*
X00052324Y00540512D01*
X00052832D01*
X0005334Y00540004D01*
Y00558988D02*
X00054356Y00560004D01*
X00055372D01*
X00054356Y0056102D01*
X00055372Y00562036D01*
X00054356D01*
X0005334Y00563052D01*
X00052324Y00562036D01*
X00051308D01*
X00052324Y0056102D01*
X00051308Y00560004D01*
X00052324D01*
X0005334Y00558988D01*
Y00560004D02*
X00053848Y00560512D01*
X00054356D01*
X00053848Y0056102D01*
X00054356Y00561528D01*
X00053848D01*
X0005334Y00562036D01*
X00052832Y00561528D01*
X00052324D01*
X00052832Y0056102D01*
X00052324Y00560512D01*
X00052832D01*
X0005334Y00560004D01*
Y00578988D02*
X00054356Y00580004D01*
X00055372D01*
X00054356Y0058102D01*
X00055372Y00582036D01*
X00054356D01*
X0005334Y00583052D01*
X00052324Y00582036D01*
X00051308D01*
X00052324Y0058102D01*
X00051308Y00580004D01*
X00052324D01*
X0005334Y00578988D01*
Y00580004D02*
X00053848Y00580512D01*
X00054356D01*
X00053848Y0058102D01*
X00054356Y00581528D01*
X00053848D01*
X0005334Y00582036D01*
X00052832Y00581528D01*
X00052324D01*
X00052832Y0058102D01*
X00052324Y00580512D01*
X00052832D01*
X0005334Y00580004D01*
X00253638Y00654288D02*
Y00658352D01*
X00257702D01*
Y00654288D01*
X00253638D01*
X00254654Y00655304D02*
Y00657336D01*
X00256686D01*
Y00655304D01*
X00254654D01*
X00303638Y00654288D02*
Y00658352D01*
X00307702D01*
Y00654288D01*
X00303638D01*
X00304654Y00655304D02*
Y00657336D01*
X00306686D01*
Y00655304D01*
X00304654D01*
X00881888Y00671068D02*
X00882904Y006731D01*
X00881888Y00675132D01*
X0088392Y00674116D01*
X00885952Y00675132D01*
X00884936Y006731D01*
X00885952Y00671068D01*
X0088392Y00672084D01*
X00881888Y00671068D01*
X00882904Y00672084D02*
X00883412Y006731D01*
X00882904Y00674116D01*
X0088392Y00673608D01*
X00884936Y00674116D01*
X00884428Y006731D01*
X00884936Y00672084D01*
X0088392Y00672592D01*
X00882904Y00672084D01*
X00367538Y00445008D02*
X00368554Y0044704D01*
X00367538Y00449072D01*
X0036957Y00448056D01*
X00371602Y00449072D01*
X00370586Y0044704D01*
X00371602Y00445008D01*
X0036957Y00446024D01*
X00367538Y00445008D01*
X00368554Y00446024D02*
X00369062Y0044704D01*
X00368554Y00448056D01*
X0036957Y00447548D01*
X00370586Y00448056D01*
X00370078Y0044704D01*
X00370586Y00446024D01*
X0036957Y00446532D01*
X00368554Y00446024D01*
X00395506Y00234837D02*
Y00233821D01*
X00397538D01*
Y00234837D01*
X00398554D01*
Y00236869D01*
X00397538D01*
Y00237885D01*
X00395506D01*
Y00236869D01*
X0039449D01*
Y00234837D01*
X00395506D01*
X00396014Y00235345D02*
Y00234837D01*
X0039703D01*
Y00235345D01*
X00397538D01*
Y00236361D01*
X0039703D01*
Y00236869D01*
X00396014D01*
Y00236361D01*
X00395506D01*
Y00235345D01*
X00396014D01*
X00289814Y00504444D02*
Y00503428D01*
X00291846D01*
Y00504444D01*
X00292862D01*
Y00506476D01*
X00291846D01*
Y00507492D01*
X00289814D01*
Y00506476D01*
X00288798D01*
Y00504444D01*
X00289814D01*
X00290322Y00504952D02*
Y00504444D01*
X00291338D01*
Y00504952D01*
X00291846D01*
Y00505968D01*
X00291338D01*
Y00506476D01*
X00290322D01*
Y00505968D01*
X00289814D01*
Y00504952D01*
X00290322D01*
X00669544Y00585724D02*
Y00584708D01*
X00671576D01*
Y00585724D01*
X00672592D01*
Y00587756D01*
X00671576D01*
Y00588772D01*
X00669544D01*
Y00587756D01*
X00668528D01*
Y00585724D01*
X00669544D01*
X00670052Y00586232D02*
Y00585724D01*
X00671068D01*
Y00586232D01*
X00671576D01*
Y00587248D01*
X00671068D01*
Y00587756D01*
X00670052D01*
Y00587248D01*
X00669544D01*
Y00586232D01*
X00670052D01*
X00724154Y00617474D02*
Y00616458D01*
X00726186D01*
Y00617474D01*
X00727202D01*
Y00619506D01*
X00726186D01*
Y00620522D01*
X00724154D01*
Y00619506D01*
X00723138D01*
Y00617474D01*
X00724154D01*
X00724662Y00617982D02*
Y00617474D01*
X00725678D01*
Y00617982D01*
X00726186D01*
Y00618998D01*
X00725678D01*
Y00619506D01*
X00724662D01*
Y00618998D01*
X00724154D01*
Y00617982D01*
X00724662D01*
X00089154Y00456184D02*
Y00455168D01*
X00091186D01*
Y00456184D01*
X00092202D01*
Y00458216D01*
X00091186D01*
Y00459232D01*
X00089154D01*
Y00458216D01*
X00088138D01*
Y00456184D01*
X00089154D01*
X00089662Y00456692D02*
Y00456184D01*
X00090678D01*
Y00456692D01*
X00091186D01*
Y00457708D01*
X00090678D01*
Y00458216D01*
X00089662D01*
Y00457708D01*
X00089154D01*
Y00456692D01*
X00089662D01*
X0032639Y00428498D02*
X00327406Y00429514D01*
X00328422D01*
X00327406Y0043053D01*
X00328422Y00431546D01*
X00327406D01*
X0032639Y00432562D01*
X00325374Y00431546D01*
X00324358D01*
X00325374Y0043053D01*
X00324358Y00429514D01*
X00325374D01*
X0032639Y00428498D01*
X00424434Y00482854D02*
Y00481838D01*
X00426466D01*
Y00482854D01*
X00427482D01*
Y00484886D01*
X00426466D01*
Y00485902D01*
X00424434D01*
Y00484886D01*
X00423418D01*
Y00482854D01*
X00424434D01*
X00424942Y00483362D02*
Y00482854D01*
X00425958D01*
Y00483362D01*
X00426466D01*
Y00484378D01*
X00425958D01*
Y00484886D01*
X00424942D01*
Y00484378D01*
X00424434D01*
Y00483362D01*
X00424942D01*
X00327532Y00479298D02*
X00328548Y00480314D01*
X00329564D01*
X00328548Y0048133D01*
X00329564Y00482346D01*
X00328548D01*
X00327532Y00483362D01*
X00326516Y00482346D01*
X003255D01*
X00326516Y0048133D01*
X003255Y00480314D01*
X00326516D01*
X00327532Y00479298D01*
X00226314Y0032931D02*
Y00328294D01*
X00228346D01*
Y0032931D01*
X00229362D01*
Y00331342D01*
X00228346D01*
Y00332358D01*
X00226314D01*
Y00331342D01*
X00225298D01*
Y0032931D01*
X00226314D01*
X00226822Y00329818D02*
Y0032931D01*
X00227838D01*
Y00329818D01*
X00228346D01*
Y00330834D01*
X00227838D01*
Y00331342D01*
X00226822D01*
Y00330834D01*
X00226314D01*
Y00329818D01*
X00226822D01*
X00302514Y00321564D02*
Y00320548D01*
X00304546D01*
Y00321564D01*
X00305562D01*
Y00323596D01*
X00304546D01*
Y00324612D01*
X00302514D01*
Y00323596D01*
X00301498D01*
Y00321564D01*
X00302514D01*
X00303022Y00322072D02*
Y00321564D01*
X00304038D01*
Y00322072D01*
X00304546D01*
Y00323088D01*
X00304038D01*
Y00323596D01*
X00303022D01*
Y00323088D01*
X00302514D01*
Y00322072D01*
X00303022D01*
X00692404Y00247904D02*
Y00246888D01*
X00694436D01*
Y00247904D01*
X00695452D01*
Y00249936D01*
X00694436D01*
Y00250952D01*
X00692404D01*
Y00249936D01*
X00691388D01*
Y00247904D01*
X00692404D01*
X00692912Y00248412D02*
Y00247904D01*
X00693928D01*
Y00248412D01*
X00694436D01*
Y00249428D01*
X00693928D01*
Y00249936D01*
X00692912D01*
Y00249428D01*
X00692404D01*
Y00248412D01*
X00692912D01*
X00672592Y00263959D02*
Y00262943D01*
X00674624D01*
Y00263959D01*
X0067564D01*
Y00265991D01*
X00674624D01*
Y00267007D01*
X00672592D01*
Y00265991D01*
X00671576D01*
Y00263959D01*
X00672592D01*
X006731Y00264467D02*
Y00263959D01*
X00674116D01*
Y00264467D01*
X00674624D01*
Y00265483D01*
X00674116D01*
Y00265991D01*
X006731D01*
Y00265483D01*
X00672592D01*
Y00264467D01*
X006731D01*
X00336432Y00284362D02*
Y00283346D01*
X00338464D01*
Y00284362D01*
X0033948D01*
Y00286394D01*
X00338464D01*
Y0028741D01*
X00336432D01*
Y00286394D01*
X00335416D01*
Y00284362D01*
X00336432D01*
X0033694Y0028487D02*
Y00284362D01*
X00337956D01*
Y0028487D01*
X00338464D01*
Y00285886D01*
X00337956D01*
Y00286394D01*
X0033694D01*
Y00285886D01*
X00336432D01*
Y0028487D01*
X0033694D01*
X00084074Y00188214D02*
Y00187198D01*
X00086106D01*
Y00188214D01*
X00087122D01*
Y00190246D01*
X00086106D01*
Y00191262D01*
X00084074D01*
Y00190246D01*
X00083058D01*
Y00188214D01*
X00084074D01*
X00084582Y00188722D02*
Y00188214D01*
X00085598D01*
Y00188722D01*
X00086106D01*
Y00189738D01*
X00085598D01*
Y00190246D01*
X00084582D01*
Y00189738D01*
X00084074D01*
Y00188722D01*
X00084582D01*
X00721868Y00225298D02*
X00722884Y0022733D01*
X00721868Y00229362D01*
X007239Y00228346D01*
X00725932Y00229362D01*
X00724916Y0022733D01*
X00725932Y00225298D01*
X007239Y00226314D01*
X00721868Y00225298D01*
X00722884Y00226314D02*
X00723392Y0022733D01*
X00722884Y00228346D01*
X007239Y00227838D01*
X00724916Y00228346D01*
X00724408Y0022733D01*
X00724916Y00226314D01*
X007239Y00226822D01*
X00722884Y00226314D01*
X00030734Y00181864D02*
Y00180848D01*
X00032766D01*
Y00181864D01*
X00033782D01*
Y00183896D01*
X00032766D01*
Y00184912D01*
X00030734D01*
Y00183896D01*
X00029718D01*
Y00181864D01*
X00030734D01*
X00031242Y00182372D02*
Y00181864D01*
X00032258D01*
Y00182372D01*
X00032766D01*
Y00183388D01*
X00032258D01*
Y00183896D01*
X00031242D01*
Y00183388D01*
X00030734D01*
Y00182372D01*
X00031242D01*
X00904318Y00905588D02*
X00905334D01*
X0090635Y00906604D01*
X00907366Y00905588D01*
X00908382D01*
Y00906604D01*
X00907366Y0090762D01*
X00908382Y00908636D01*
Y00909652D01*
X00907366D01*
X0090635Y00908636D01*
X00905334Y00909652D01*
X00904318D01*
Y00908636D01*
X00905334Y0090762D01*
X00904318Y00906604D01*
Y00905588D01*
X00905334Y00906604D02*
X00905842D01*
X0090635Y00907112D01*
X00906858Y00906604D01*
X00907366D01*
Y00907112D01*
X00906858Y0090762D01*
X00907366Y00908128D01*
Y00908636D01*
X00906858D01*
X0090635Y00908128D01*
X00905842Y00908636D01*
X00905334D01*
Y00908128D01*
X00905842Y0090762D01*
X00905334Y00907112D01*
Y00906604D01*
X00104318Y00905588D02*
X00105334D01*
X0010635Y00906604D01*
X00107366Y00905588D01*
X00108382D01*
Y00906604D01*
X00107366Y0090762D01*
X00108382Y00908636D01*
Y00909652D01*
X00107366D01*
X0010635Y00908636D01*
X00105334Y00909652D01*
X00104318D01*
Y00908636D01*
X00105334Y0090762D01*
X00104318Y00906604D01*
Y00905588D01*
X00105334Y00906604D02*
X00105842D01*
X0010635Y00907112D01*
X00106858Y00906604D01*
X00107366D01*
Y00907112D01*
X00106858Y0090762D01*
X00107366Y00908128D01*
Y00908636D01*
X00106858D01*
X0010635Y00908128D01*
X00105842Y00908636D01*
X00105334D01*
Y00908128D01*
X00105842Y0090762D01*
X00105334Y00907112D01*
Y00906604D01*
X00904318Y00105588D02*
X00905334D01*
X0090635Y00106604D01*
X00907366Y00105588D01*
X00908382D01*
Y00106604D01*
X00907366Y0010762D01*
X00908382Y00108636D01*
Y00109652D01*
X00907366D01*
X0090635Y00108636D01*
X00905334Y00109652D01*
X00904318D01*
Y00108636D01*
X00905334Y0010762D01*
X00904318Y00106604D01*
Y00105588D01*
X00905334Y00106604D02*
X00905842D01*
X0090635Y00107112D01*
X00906858Y00106604D01*
X00907366D01*
Y00107112D01*
X00906858Y0010762D01*
X00907366Y00108128D01*
Y00108636D01*
X00906858D01*
X0090635Y00108128D01*
X00905842Y00108636D01*
X00905334D01*
Y00108128D01*
X00905842Y0010762D01*
X00905334Y00107112D01*
Y00106604D01*
X00104318Y00105588D02*
X00105334D01*
X0010635Y00106604D01*
X00107366Y00105588D01*
X00108382D01*
Y00106604D01*
X00107366Y0010762D01*
X00108382Y00108636D01*
Y00109652D01*
X00107366D01*
X0010635Y00108636D01*
X00105334Y00109652D01*
X00104318D01*
Y00108636D01*
X00105334Y0010762D01*
X00104318Y00106604D01*
Y00105588D01*
X00105334Y00106604D02*
X00105842D01*
X0010635Y00107112D01*
X00106858Y00106604D01*
X00107366D01*
Y00107112D01*
X00106858Y0010762D01*
X00107366Y00108128D01*
Y00108636D01*
X00106858D01*
X0010635Y00108128D01*
X00105842Y00108636D01*
X00105334D01*
Y00108128D01*
X00105842Y0010762D01*
X00105334Y00107112D01*
Y00106604D01*
X00572008Y00674878D02*
X00573024Y0067691D01*
X00572008Y00678942D01*
X0057404Y00677926D01*
X00576072Y00678942D01*
X00575056Y0067691D01*
X00576072Y00674878D01*
X0057404Y00675894D01*
X00572008Y00674878D01*
X00573024Y00675894D02*
X00573532Y0067691D01*
X00573024Y00677926D01*
X0057404Y00677418D01*
X00575056Y00677926D01*
X00574548Y0067691D01*
X00575056Y00675894D01*
X0057404Y00676402D01*
X00573024Y00675894D01*
X00610108Y00415798D02*
X00611124Y0041783D01*
X00610108Y00419862D01*
X0061214Y00418846D01*
X00614172Y00419862D01*
X00613156Y0041783D01*
X00614172Y00415798D01*
X0061214Y00416814D01*
X00610108Y00415798D01*
X00611124Y00416814D02*
X00611632Y0041783D01*
X00611124Y00418846D01*
X0061214Y00418338D01*
X00613156Y00418846D01*
X00612648Y0041783D01*
X00613156Y00416814D01*
X0061214Y00417322D01*
X00611124Y00416814D01*
X00857504Y00426974D02*
Y00425958D01*
X00859536D01*
Y00426974D01*
X00860552D01*
Y00429006D01*
X00859536D01*
Y00430022D01*
X00857504D01*
Y00429006D01*
X00856488D01*
Y00426974D01*
X00857504D01*
X00858012Y00427482D02*
Y00426974D01*
X00859028D01*
Y00427482D01*
X00859536D01*
Y00428498D01*
X00859028D01*
Y00429006D01*
X00858012D01*
Y00428498D01*
X00857504D01*
Y00427482D01*
X00858012D01*
X00837184Y00393954D02*
Y00392938D01*
X00839216D01*
Y00393954D01*
X00840232D01*
Y00395986D01*
X00839216D01*
Y00397002D01*
X00837184D01*
Y00395986D01*
X00836168D01*
Y00393954D01*
X00837184D01*
X00837692Y00394462D02*
Y00393954D01*
X00838708D01*
Y00394462D01*
X00839216D01*
Y00395478D01*
X00838708D01*
Y00395986D01*
X00837692D01*
Y00395478D01*
X00837184D01*
Y00394462D01*
X00837692D01*
X00428244Y00424434D02*
Y00423418D01*
X00430276D01*
Y00424434D01*
X00431292D01*
Y00426466D01*
X00430276D01*
Y00427482D01*
X00428244D01*
Y00426466D01*
X00427228D01*
Y00424434D01*
X00428244D01*
X00428752Y00424942D02*
Y00424434D01*
X00429768D01*
Y00424942D01*
X00430276D01*
Y00425958D01*
X00429768D01*
Y00426466D01*
X00428752D01*
Y00425958D01*
X00428244D01*
Y00424942D01*
X00428752D01*
X00400304Y00414274D02*
Y00413258D01*
X00402336D01*
Y00414274D01*
X00403352D01*
Y00416306D01*
X00402336D01*
Y00417322D01*
X00400304D01*
Y00416306D01*
X00399288D01*
Y00414274D01*
X00400304D01*
X00400812Y00414782D02*
Y00414274D01*
X00401828D01*
Y00414782D01*
X00402336D01*
Y00415798D01*
X00401828D01*
Y00416306D01*
X00400812D01*
Y00415798D01*
X00400304D01*
Y00414782D01*
X00400812D01*
X00834644Y00414274D02*
Y00413258D01*
X00836676D01*
Y00414274D01*
X00837692D01*
Y00416306D01*
X00836676D01*
Y00417322D01*
X00834644D01*
Y00416306D01*
X00833628D01*
Y00414274D01*
X00834644D01*
X00835152Y00414782D02*
Y00414274D01*
X00836168D01*
Y00414782D01*
X00836676D01*
Y00415798D01*
X00836168D01*
Y00416306D01*
X00835152D01*
Y00415798D01*
X00834644D01*
Y00414782D01*
X00835152D01*
X00784098Y00278638D02*
X00785114Y0028067D01*
X00784098Y00282702D01*
X0078613Y00281686D01*
X00788162Y00282702D01*
X00787146Y0028067D01*
X00788162Y00278638D01*
X0078613Y00279654D01*
X00784098Y00278638D01*
X00785114Y00279654D02*
X00785622Y0028067D01*
X00785114Y00281686D01*
X0078613Y00281178D01*
X00787146Y00281686D01*
X00786638Y0028067D01*
X00787146Y00279654D01*
X0078613Y00280162D01*
X00785114Y00279654D01*
X00860298Y00513588D02*
X00861314Y0051562D01*
X00860298Y00517652D01*
X0086233Y00516636D01*
X00864362Y00517652D01*
X00863346Y0051562D01*
X00864362Y00513588D01*
X0086233Y00514604D01*
X00860298Y00513588D01*
X00861314Y00514604D02*
X00861822Y0051562D01*
X00861314Y00516636D01*
X0086233Y00516128D01*
X00863346Y00516636D01*
X00862838Y0051562D01*
X00863346Y00514604D01*
X0086233Y00515112D01*
X00861314Y00514604D01*
X00353314Y00524764D02*
Y00523748D01*
X00355346D01*
Y00524764D01*
X00356362D01*
Y00526796D01*
X00355346D01*
Y00527812D01*
X00353314D01*
Y00526796D01*
X00352298D01*
Y00524764D01*
X00353314D01*
X00353822Y00525272D02*
Y00524764D01*
X00354838D01*
Y00525272D01*
X00355346D01*
Y00526288D01*
X00354838D01*
Y00526796D01*
X00353822D01*
Y00526288D01*
X00353314D01*
Y00525272D01*
X00353822D01*
X00874014Y00263626D02*
Y0026261D01*
X00876046D01*
Y00263626D01*
X00877062D01*
Y00265658D01*
X00876046D01*
Y00266674D01*
X00874014D01*
Y00265658D01*
X00872998D01*
Y00263626D01*
X00874014D01*
X00874522Y00264134D02*
Y00263626D01*
X00875538D01*
Y00264134D01*
X00876046D01*
Y0026515D01*
X00875538D01*
Y00265658D01*
X00874522D01*
Y0026515D01*
X00874014D01*
Y00264134D01*
X00874522D01*
X00242824Y00460994D02*
Y00459978D01*
X00244856D01*
Y00460994D01*
X00245872D01*
Y00463026D01*
X00244856D01*
Y00464042D01*
X00242824D01*
Y00463026D01*
X00241808D01*
Y00460994D01*
X00242824D01*
X00243332Y00461502D02*
Y00460994D01*
X00244348D01*
Y00461502D01*
X00244856D01*
Y00462518D01*
X00244348D01*
Y00463026D01*
X00243332D01*
Y00462518D01*
X00242824D01*
Y00461502D01*
X00243332D01*
X00788924Y00782574D02*
Y00781558D01*
X00790956D01*
Y00782574D01*
X00791972D01*
Y00784606D01*
X00790956D01*
Y00785622D01*
X00788924D01*
Y00784606D01*
X00787908D01*
Y00782574D01*
X00788924D01*
X00789432Y00783082D02*
Y00782574D01*
X00790448D01*
Y00783082D01*
X00790956D01*
Y00784098D01*
X00790448D01*
Y00784606D01*
X00789432D01*
Y00784098D01*
X00788924D01*
Y00783082D01*
X00789432D01*
D95*
X00190192Y0048995D02*
G03*
X00190192Y0048995I-00002032J0D01*
G01*
X00088192D02*
G03*
X00088192Y0048995I-00002032J0D01*
G01*
Y0055218D02*
G03*
X00088192Y0055218I-00002032J0D01*
G01*
X00190192D02*
G03*
X00190192Y0055218I-00002032J0D01*
G01*
X00266192Y0037438D02*
G03*
X00266192Y0037438I-00002032J0D01*
G01*
Y0039978D02*
G03*
X00266192Y0039978I-00002032J0D01*
G01*
Y0042518D02*
G03*
X00266192Y0042518I-00002032J0D01*
G01*
D96*
X00265176Y0037438D02*
G03*
X00265176Y0037438I-00001016J0D01*
G01*
Y0039978D02*
G03*
X00265176Y0039978I-00001016J0D01*
G01*
Y0042518D02*
G03*
X00265176Y0042518I-00001016J0D01*
G01*
M02*
