G04*
G04 #@! TF.GenerationSoftware,Altium Limited,Altium Designer,21.3.2 (30)*
G04*
G04 Layer_Color=2752767*
%FSTAX44Y44*%
%MOMM*%
G71*
G04*
G04 #@! TF.SameCoordinates,71E4571F-97C7-41C0-9591-7C9436880AE0*
G04*
G04*
G04 #@! TF.FilePolarity,Positive*
G04*
G01*
G75*
%ADD78C,0.0508*%
%ADD79C,0.0677*%
%ADD80C,0.0339*%
D78*
X00129578Y00912114D02*
Y00916178D01*
X00133642D01*
Y00912114D01*
X00129578D01*
X00154578D02*
Y00916178D01*
X00158642D01*
Y00912114D01*
X00154578D01*
X00179578D02*
Y00916178D01*
X00183642D01*
Y00912114D01*
X00179578D01*
X00204578D02*
Y00916178D01*
X00208642D01*
Y00912114D01*
X00204578D01*
X0095123Y00169418D02*
X00949198Y00173482D01*
X00953262D01*
X0095123Y00169418D01*
Y00118618D02*
X00949198Y00122682D01*
X00953262D01*
X0095123Y00118618D01*
X0005842Y00204978D02*
X00059436Y00205994D01*
X00060452D01*
X00059436Y0020701D01*
X00060452Y00208026D01*
X00059436D01*
X0005842Y00209042D01*
X00057404Y00208026D01*
X00056388D01*
X00057404Y0020701D01*
X00056388Y00205994D01*
X00057404D01*
X0005842Y00204978D01*
X0008382D02*
X00084836Y00205994D01*
X00085852D01*
X00084836Y0020701D01*
X00085852Y00208026D01*
X00084836D01*
X0008382Y00209042D01*
X00082804Y00208026D01*
X00081788D01*
X00082804Y0020701D01*
X00081788Y00205994D01*
X00082804D01*
X0008382Y00204978D01*
X0005842Y00179578D02*
X00059436Y00180594D01*
X00060452D01*
X00059436Y0018161D01*
X00060452Y00182626D01*
X00059436D01*
X0005842Y00183642D01*
X00057404Y00182626D01*
X00056388D01*
X00057404Y0018161D01*
X00056388Y00180594D01*
X00057404D01*
X0005842Y00179578D01*
X0008382D02*
X00084836Y00180594D01*
X00085852D01*
X00084836Y0018161D01*
X00085852Y00182626D01*
X00084836D01*
X0008382Y00183642D01*
X00082804Y00182626D01*
X00081788D01*
X00082804Y0018161D01*
X00081788Y00180594D01*
X00082804D01*
X0008382Y00179578D01*
X0005842Y00154178D02*
X00059436Y00155194D01*
X00060452D01*
X00059436Y0015621D01*
X00060452Y00157226D01*
X00059436D01*
X0005842Y00158242D01*
X00057404Y00157226D01*
X00056388D01*
X00057404Y0015621D01*
X00056388Y00155194D01*
X00057404D01*
X0005842Y00154178D01*
X0008382D02*
X00084836Y00155194D01*
X00085852D01*
X00084836Y0015621D01*
X00085852Y00157226D01*
X00084836D01*
X0008382Y00158242D01*
X00082804Y00157226D01*
X00081788D01*
X00082804Y0015621D01*
X00081788Y00155194D01*
X00082804D01*
X0008382Y00154178D01*
X0005842Y00128778D02*
X00059436Y00129794D01*
X00060452D01*
X00059436Y0013081D01*
X00060452Y00131826D01*
X00059436D01*
X0005842Y00132842D01*
X00057404Y00131826D01*
X00056388D01*
X00057404Y0013081D01*
X00056388Y00129794D01*
X00057404D01*
X0005842Y00128778D01*
X0008382D02*
X00084836Y00129794D01*
X00085852D01*
X00084836Y0013081D01*
X00085852Y00131826D01*
X00084836D01*
X0008382Y00132842D01*
X00082804Y00131826D01*
X00081788D01*
X00082804Y0013081D01*
X00081788Y00129794D01*
X00082804D01*
X0008382Y00128778D01*
X0005842Y00103378D02*
X00059436Y00104394D01*
X00060452D01*
X00059436Y0010541D01*
X00060452Y00106426D01*
X00059436D01*
X0005842Y00107442D01*
X00057404Y00106426D01*
X00056388D01*
X00057404Y0010541D01*
X00056388Y00104394D01*
X00057404D01*
X0005842Y00103378D01*
X0008382D02*
X00084836Y00104394D01*
X00085852D01*
X00084836Y0010541D01*
X00085852Y00106426D01*
X00084836D01*
X0008382Y00107442D01*
X00082804Y00106426D01*
X00081788D01*
X00082804Y0010541D01*
X00081788Y00104394D01*
X00082804D01*
X0008382Y00103378D01*
X0069624Y00805688D02*
X00697256Y00806704D01*
X00698272D01*
X00697256Y0080772D01*
X00698272Y00808736D01*
X00697256D01*
X0069624Y00809752D01*
X00695224Y00808736D01*
X00694208D01*
X00695224Y0080772D01*
X00694208Y00806704D01*
X00695224D01*
X0069624Y00805688D01*
X0073124D02*
X00732256Y00806704D01*
X00733272D01*
X00732256Y0080772D01*
X00733272Y00808736D01*
X00732256D01*
X0073124Y00809752D01*
X00730224Y00808736D01*
X00729208D01*
X00730224Y0080772D01*
X00729208Y00806704D01*
X00730224D01*
X0073124Y00805688D01*
X00146558Y00319278D02*
X00147574Y0032131D01*
X00146558Y00323342D01*
X0014859Y00322326D01*
X00150622Y00323342D01*
X00149606Y0032131D01*
X00150622Y00319278D01*
X0014859Y00320294D01*
X00146558Y00319278D01*
X00197358D02*
X00198374Y0032131D01*
X00197358Y00323342D01*
X0019939Y00322326D01*
X00201422Y00323342D01*
X00200406Y0032131D01*
X00201422Y00319278D01*
X0019939Y00320294D01*
X00197358Y00319278D01*
X00911098Y00659638D02*
X00912114Y0066167D01*
X00911098Y00663702D01*
X0091313Y00662686D01*
X00915162Y00663702D01*
X00914146Y0066167D01*
X00915162Y00659638D01*
X0091313Y00660654D01*
X00911098Y00659638D01*
Y00608838D02*
X00912114Y0061087D01*
X00911098Y00612902D01*
X0091313Y00611886D01*
X00915162Y00612902D01*
X00914146Y0061087D01*
X00915162Y00608838D01*
X0091313Y00609854D01*
X00911098Y00608838D01*
X008509Y00043688D02*
X00848868Y00047752D01*
X00852932D01*
X008509Y00043688D01*
X008001D02*
X00798068Y00047752D01*
X00802132D01*
X008001Y00043688D01*
X00124024Y00678434D02*
Y00677418D01*
X00126056D01*
Y00678434D01*
X00127072D01*
Y00680466D01*
X00126056D01*
Y00681482D01*
X00124024D01*
Y00680466D01*
X00123008D01*
Y00678434D01*
X00124024D01*
X00141024Y00627634D02*
Y00626618D01*
X00143056D01*
Y00627634D01*
X00144072D01*
Y00629666D01*
X00143056D01*
Y00630682D01*
X00141024D01*
Y00629666D01*
X00140008D01*
Y00627634D01*
X00141024D01*
X00158024Y00678434D02*
Y00677418D01*
X00160056D01*
Y00678434D01*
X00161072D01*
Y00680466D01*
X00160056D01*
Y00681482D01*
X00158024D01*
Y00680466D01*
X00157008D01*
Y00678434D01*
X00158024D01*
X00175024Y00627634D02*
Y00626618D01*
X00177056D01*
Y00627634D01*
X00178072D01*
Y00629666D01*
X00177056D01*
Y00630682D01*
X00175024D01*
Y00629666D01*
X00174008D01*
Y00627634D01*
X00175024D01*
X00192024Y00678434D02*
Y00677418D01*
X00194056D01*
Y00678434D01*
X00195072D01*
Y00680466D01*
X00194056D01*
Y00681482D01*
X00192024D01*
Y00680466D01*
X00191008D01*
Y00678434D01*
X00192024D01*
X00209024Y00627634D02*
Y00626618D01*
X00211056D01*
Y00627634D01*
X00212072D01*
Y00629666D01*
X00211056D01*
Y00630682D01*
X00209024D01*
Y00629666D01*
X00208008D01*
Y00627634D01*
X00209024D01*
X00226024Y00678434D02*
Y00677418D01*
X00228056D01*
Y00678434D01*
X00229072D01*
Y00680466D01*
X00228056D01*
Y00681482D01*
X00226024D01*
Y00680466D01*
X00225008D01*
Y00678434D01*
X00226024D01*
X00243024Y00627634D02*
Y00626618D01*
X00245056D01*
Y00627634D01*
X00246072D01*
Y00629666D01*
X00245056D01*
Y00630682D01*
X00243024D01*
Y00629666D01*
X00242008D01*
Y00627634D01*
X00243024D01*
X00260024Y00678434D02*
Y00677418D01*
X00262056D01*
Y00678434D01*
X00263072D01*
Y00680466D01*
X00262056D01*
Y00681482D01*
X00260024D01*
Y00680466D01*
X00259008D01*
Y00678434D01*
X00260024D01*
X00277024Y00627634D02*
Y00626618D01*
X00279056D01*
Y00627634D01*
X00280072D01*
Y00629666D01*
X00279056D01*
Y00630682D01*
X00277024D01*
Y00629666D01*
X00276008D01*
Y00627634D01*
X00277024D01*
X00294024Y00678434D02*
Y00677418D01*
X00296056D01*
Y00678434D01*
X00297072D01*
Y00680466D01*
X00296056D01*
Y00681482D01*
X00294024D01*
Y00680466D01*
X00293008D01*
Y00678434D01*
X00294024D01*
X00638848Y00912114D02*
Y00916178D01*
X00642912D01*
Y00912114D01*
X00638848D01*
X00663848D02*
Y00916178D01*
X00667912D01*
Y00912114D01*
X00663848D01*
X00688848D02*
Y00916178D01*
X00692912D01*
Y00912114D01*
X00688848D01*
X00713848D02*
Y00916178D01*
X00717912D01*
Y00912114D01*
X00713848D01*
X0086106Y00950468D02*
X00859028Y00954532D01*
X00863092D01*
X0086106Y00950468D01*
X0081026D02*
X00808228Y00954532D01*
X00812292D01*
X0081026Y00950468D01*
X0034544Y00953008D02*
X00343408Y00957072D01*
X00347472D01*
X0034544Y00953008D01*
X0029464D02*
X00292608Y00957072D01*
X00296672D01*
X0029464Y00953008D01*
X00687614Y00675894D02*
Y00674878D01*
X00689646D01*
Y00675894D01*
X00690662D01*
Y00677926D01*
X00689646D01*
Y00678942D01*
X00687614D01*
Y00677926D01*
X00686598D01*
Y00675894D01*
X00687614D01*
X00704614Y00625094D02*
Y00624078D01*
X00706646D01*
Y00625094D01*
X00707662D01*
Y00627126D01*
X00706646D01*
Y00628142D01*
X00704614D01*
Y00627126D01*
X00703598D01*
Y00625094D01*
X00704614D01*
X00721614Y00675894D02*
Y00674878D01*
X00723646D01*
Y00675894D01*
X00724662D01*
Y00677926D01*
X00723646D01*
Y00678942D01*
X00721614D01*
Y00677926D01*
X00720598D01*
Y00675894D01*
X00721614D01*
X00738614Y00625094D02*
Y00624078D01*
X00740646D01*
Y00625094D01*
X00741662D01*
Y00627126D01*
X00740646D01*
Y00628142D01*
X00738614D01*
Y00627126D01*
X00737598D01*
Y00625094D01*
X00738614D01*
X00755614Y00675894D02*
Y00674878D01*
X00757646D01*
Y00675894D01*
X00758662D01*
Y00677926D01*
X00757646D01*
Y00678942D01*
X00755614D01*
Y00677926D01*
X00754598D01*
Y00675894D01*
X00755614D01*
X00772614Y00625094D02*
Y00624078D01*
X00774646D01*
Y00625094D01*
X00775662D01*
Y00627126D01*
X00774646D01*
Y00628142D01*
X00772614D01*
Y00627126D01*
X00771598D01*
Y00625094D01*
X00772614D01*
X00789614Y00675894D02*
Y00674878D01*
X00791646D01*
Y00675894D01*
X00792662D01*
Y00677926D01*
X00791646D01*
Y00678942D01*
X00789614D01*
Y00677926D01*
X00788598D01*
Y00675894D01*
X00789614D01*
X00806614Y00625094D02*
Y00624078D01*
X00808646D01*
Y00625094D01*
X00809662D01*
Y00627126D01*
X00808646D01*
Y00628142D01*
X00806614D01*
Y00627126D01*
X00805598D01*
Y00625094D01*
X00806614D01*
X00823614Y00675894D02*
Y00674878D01*
X00825646D01*
Y00675894D01*
X00826662D01*
Y00677926D01*
X00825646D01*
Y00678942D01*
X00823614D01*
Y00677926D01*
X00822598D01*
Y00675894D01*
X00823614D01*
X00840614Y00625094D02*
Y00624078D01*
X00842646D01*
Y00625094D01*
X00843662D01*
Y00627126D01*
X00842646D01*
Y00628142D01*
X00840614D01*
Y00627126D01*
X00839598D01*
Y00625094D01*
X00840614D01*
X00857614Y00675894D02*
Y00674878D01*
X00859646D01*
Y00675894D01*
X00860662D01*
Y00677926D01*
X00859646D01*
Y00678942D01*
X00857614D01*
Y00677926D01*
X00856598D01*
Y00675894D01*
X00857614D01*
X00879348Y00513588D02*
X00880364Y0051562D01*
X00879348Y00517652D01*
X0088138Y00516636D01*
X00883412Y00517652D01*
X00882396Y0051562D01*
X00883412Y00513588D01*
X0088138Y00514604D01*
X00879348Y00513588D01*
Y00462788D02*
X00880364Y0046482D01*
X00879348Y00466852D01*
X0088138Y00465836D01*
X00883412Y00466852D01*
X00882396Y0046482D01*
X00883412Y00462788D01*
X0088138Y00463804D01*
X00879348Y00462788D01*
X00972053Y00316738D02*
X00973069D01*
X00974085Y00317754D01*
X00975101Y00316738D01*
X00976117D01*
Y00317754D01*
X00975101Y0031877D01*
X00976117Y00319786D01*
Y00320802D01*
X00975101D01*
X00974085Y00319786D01*
X00973069Y00320802D01*
X00972053D01*
Y00319786D01*
X00973069Y0031877D01*
X00972053Y00317754D01*
Y00316738D01*
Y00291338D02*
X00973069D01*
X00974085Y00292354D01*
X00975101Y00291338D01*
X00976117D01*
Y00292354D01*
X00975101Y0029337D01*
X00976117Y00294386D01*
Y00295402D01*
X00975101D01*
X00974085Y00294386D01*
X00973069Y00295402D01*
X00972053D01*
Y00294386D01*
X00973069Y0029337D01*
X00972053Y00292354D01*
Y00291338D01*
Y00265938D02*
X00973069D01*
X00974085Y00266954D01*
X00975101Y00265938D01*
X00976117D01*
Y00266954D01*
X00975101Y0026797D01*
X00976117Y00268986D01*
Y00270002D01*
X00975101D01*
X00974085Y00268986D01*
X00973069Y00270002D01*
X00972053D01*
Y00268986D01*
X00973069Y0026797D01*
X00972053Y00266954D01*
Y00265938D01*
X00352298Y00658368D02*
X00353314Y006604D01*
X00352298Y00662432D01*
X0035433Y00661416D01*
X00356362Y00662432D01*
X00355346Y006604D01*
X00356362Y00658368D01*
X0035433Y00659384D01*
X00352298Y00658368D01*
Y00607568D02*
X00353314Y006096D01*
X00352298Y00611632D01*
X0035433Y00610616D01*
X00356362Y00611632D01*
X00355346Y006096D01*
X00356362Y00607568D01*
X0035433Y00608584D01*
X00352298Y00607568D01*
X00058928Y00659302D02*
X00059944Y00661334D01*
X00058928Y00663366D01*
X0006096Y0066235D01*
X00062992Y00663366D01*
X00061976Y00661334D01*
X00062992Y00659302D01*
X0006096Y00660318D01*
X00058928Y00659302D01*
Y00608502D02*
X00059944Y00610534D01*
X00058928Y00612566D01*
X0006096Y0061155D01*
X00062992Y00612566D01*
X00061976Y00610534D01*
X00062992Y00608502D01*
X0006096Y00609518D01*
X00058928Y00608502D01*
X0015847Y00796798D02*
X00159486Y00797814D01*
X00160502D01*
X00159486Y0079883D01*
X00160502Y00799846D01*
X00159486D01*
X0015847Y00800862D01*
X00157454Y00799846D01*
X00156438D01*
X00157454Y0079883D01*
X00156438Y00797814D01*
X00157454D01*
X0015847Y00796798D01*
X0012347D02*
X00124486Y00797814D01*
X00125502D01*
X00124486Y0079883D01*
X00125502Y00799846D01*
X00124486D01*
X0012347Y00800862D01*
X00122454Y00799846D01*
X00121438D01*
X00122454Y0079883D01*
X00121438Y00797814D01*
X00122454D01*
X0012347Y00796798D01*
X0083792Y00203708D02*
X00838936Y00204724D01*
X00839952D01*
X00838936Y0020574D01*
X00839952Y00206756D01*
X00838936D01*
X0083792Y00207772D01*
X00836904Y00206756D01*
X00835888D01*
X00836904Y0020574D01*
X00835888Y00204724D01*
X00836904D01*
X0083792Y00203708D01*
X0080292D02*
X00803936Y00204724D01*
X00804952D01*
X00803936Y0020574D01*
X00804952Y00206756D01*
X00803936D01*
X0080292Y00207772D01*
X00801904Y00206756D01*
X00800888D01*
X00801904Y0020574D01*
X00800888Y00204724D01*
X00801904D01*
X0080292Y00203708D01*
X0084455Y00338328D02*
X00845566Y00339344D01*
X00846582D01*
X00845566Y0034036D01*
X00846582Y00341376D01*
X00845566D01*
X0084455Y00342392D01*
X00843534Y00341376D01*
X00842518D01*
X00843534Y0034036D01*
X00842518Y00339344D01*
X00843534D01*
X0084455Y00338328D01*
X0079375D02*
X00794766Y00339344D01*
X00795782D01*
X00794766Y0034036D01*
X00795782Y00341376D01*
X00794766D01*
X0079375Y00342392D01*
X00792734Y00341376D01*
X00791718D01*
X00792734Y0034036D01*
X00791718Y00339344D01*
X00792734D01*
X0079375Y00338328D01*
X00678688Y0035433D02*
X0068072Y00356362D01*
X00682752Y0035433D01*
X0068072Y00352298D01*
X00678688Y0035433D01*
Y0022606D02*
X0068072Y00228092D01*
X00682752Y0022606D01*
X0068072Y00224028D01*
X00678688Y0022606D01*
X00947968Y00947968D02*
Y00952032D01*
X00952032D01*
Y00947968D01*
X00947968D01*
X00948984Y00948984D02*
Y00951016D01*
X00951016D01*
Y00948984D01*
X00948984D01*
X00047968Y00947968D02*
Y00952032D01*
X00052032D01*
Y00947968D01*
X00047968D01*
X00048984Y00948984D02*
Y00951016D01*
X00051016D01*
Y00948984D01*
X00048984D01*
X00947968Y00047968D02*
Y00052032D01*
X00952032D01*
Y00047968D01*
X00947968D01*
X00948984Y00048984D02*
Y00051016D01*
X00951016D01*
Y00048984D01*
X00948984D01*
X00047968Y00047968D02*
Y00052032D01*
X00052032D01*
Y00047968D01*
X00047968D01*
X00048984Y00048984D02*
Y00051016D01*
X00051016D01*
Y00048984D01*
X00048984D01*
X0045819Y00645668D02*
X00459206Y00646684D01*
X00460222D01*
X00459206Y006477D01*
X00460222Y00648716D01*
X00459206D01*
X0045819Y00649732D01*
X00457174Y00648716D01*
X00456158D01*
X00457174Y006477D01*
X00456158Y00646684D01*
X00457174D01*
X0045819Y00645668D01*
X0042319D02*
X00424206Y00646684D01*
X00425222D01*
X00424206Y006477D01*
X00425222Y00648716D01*
X00424206D01*
X0042319Y00649732D01*
X00422174Y00648716D01*
X00421158D01*
X00422174Y006477D01*
X00421158Y00646684D01*
X00422174D01*
X0042319Y00645668D01*
X0056515Y00644398D02*
X00566166Y00645414D01*
X00567182D01*
X00566166Y0064643D01*
X00567182Y00647446D01*
X00566166D01*
X0056515Y00648462D01*
X00564134Y00647446D01*
X00563118D01*
X00564134Y0064643D01*
X00563118Y00645414D01*
X00564134D01*
X0056515Y00644398D01*
X0053015D02*
X00531166Y00645414D01*
X00532182D01*
X00531166Y0064643D01*
X00532182Y00647446D01*
X00531166D01*
X0053015Y00648462D01*
X00529134Y00647446D01*
X00528118D01*
X00529134Y0064643D01*
X00528118Y00645414D01*
X00529134D01*
X0053015Y00644398D01*
X0008382Y00259588D02*
X00084836Y00260604D01*
X00085852D01*
X00084836Y0026162D01*
X00085852Y00262636D01*
X00084836D01*
X0008382Y00263652D01*
X00082804Y00262636D01*
X00081788D01*
X00082804Y0026162D01*
X00081788Y00260604D01*
X00082804D01*
X0008382Y00259588D01*
X0005842D02*
X00059436Y00260604D01*
X00060452D01*
X00059436Y0026162D01*
X00060452Y00262636D01*
X00059436D01*
X0005842Y00263652D01*
X00057404Y00262636D01*
X00056388D01*
X00057404Y0026162D01*
X00056388Y00260604D01*
X00057404D01*
X0005842Y00259588D01*
X0008382Y00284988D02*
X00084836Y00286004D01*
X00085852D01*
X00084836Y0028702D01*
X00085852Y00288036D01*
X00084836D01*
X0008382Y00289052D01*
X00082804Y00288036D01*
X00081788D01*
X00082804Y0028702D01*
X00081788Y00286004D01*
X00082804D01*
X0008382Y00284988D01*
X0005842D02*
X00059436Y00286004D01*
X00060452D01*
X00059436Y0028702D01*
X00060452Y00288036D01*
X00059436D01*
X0005842Y00289052D01*
X00057404Y00288036D01*
X00056388D01*
X00057404Y0028702D01*
X00056388Y00286004D01*
X00057404D01*
X0005842Y00284988D01*
X0008382Y00310388D02*
X00084836Y00311404D01*
X00085852D01*
X00084836Y0031242D01*
X00085852Y00313436D01*
X00084836D01*
X0008382Y00314452D01*
X00082804Y00313436D01*
X00081788D01*
X00082804Y0031242D01*
X00081788Y00311404D01*
X00082804D01*
X0008382Y00310388D01*
X0005842D02*
X00059436Y00311404D01*
X00060452D01*
X00059436Y0031242D01*
X00060452Y00313436D01*
X00059436D01*
X0005842Y00314452D01*
X00057404Y00313436D01*
X00056388D01*
X00057404Y0031242D01*
X00056388Y00311404D01*
X00057404D01*
X0005842Y00310388D01*
X0008382Y00335788D02*
X00084836Y00336804D01*
X00085852D01*
X00084836Y0033782D01*
X00085852Y00338836D01*
X00084836D01*
X0008382Y00339852D01*
X00082804Y00338836D01*
X00081788D01*
X00082804Y0033782D01*
X00081788Y00336804D01*
X00082804D01*
X0008382Y00335788D01*
X0005842D02*
X00059436Y00336804D01*
X00060452D01*
X00059436Y0033782D01*
X00060452Y00338836D01*
X00059436D01*
X0005842Y00339852D01*
X00057404Y00338836D01*
X00056388D01*
X00057404Y0033782D01*
X00056388Y00336804D01*
X00057404D01*
X0005842Y00335788D01*
X0008382Y00361188D02*
X00084836Y00362204D01*
X00085852D01*
X00084836Y0036322D01*
X00085852Y00364236D01*
X00084836D01*
X0008382Y00365252D01*
X00082804Y00364236D01*
X00081788D01*
X00082804Y0036322D01*
X00081788Y00362204D01*
X00082804D01*
X0008382Y00361188D01*
X0005842D02*
X00059436Y00362204D01*
X00060452D01*
X00059436Y0036322D01*
X00060452Y00364236D01*
X00059436D01*
X0005842Y00365252D01*
X00057404Y00364236D01*
X00056388D01*
X00057404Y0036322D01*
X00056388Y00362204D01*
X00057404D01*
X0005842Y00361188D01*
X0008382Y00386588D02*
X00084836Y00387604D01*
X00085852D01*
X00084836Y0038862D01*
X00085852Y00389636D01*
X00084836D01*
X0008382Y00390652D01*
X00082804Y00389636D01*
X00081788D01*
X00082804Y0038862D01*
X00081788Y00387604D01*
X00082804D01*
X0008382Y00386588D01*
X0005842D02*
X00059436Y00387604D01*
X00060452D01*
X00059436Y0038862D01*
X00060452Y00389636D01*
X00059436D01*
X0005842Y00390652D01*
X00057404Y00389636D01*
X00056388D01*
X00057404Y0038862D01*
X00056388Y00387604D01*
X00057404D01*
X0005842Y00386588D01*
X0008382Y00411988D02*
X00084836Y00413004D01*
X00085852D01*
X00084836Y0041402D01*
X00085852Y00415036D01*
X00084836D01*
X0008382Y00416052D01*
X00082804Y00415036D01*
X00081788D01*
X00082804Y0041402D01*
X00081788Y00413004D01*
X00082804D01*
X0008382Y00411988D01*
X0005842D02*
X00059436Y00413004D01*
X00060452D01*
X00059436Y0041402D01*
X00060452Y00415036D01*
X00059436D01*
X0005842Y00416052D01*
X00057404Y00415036D01*
X00056388D01*
X00057404Y0041402D01*
X00056388Y00413004D01*
X00057404D01*
X0005842Y00411988D01*
X0008382Y00437388D02*
X00084836Y00438404D01*
X00085852D01*
X00084836Y0043942D01*
X00085852Y00440436D01*
X00084836D01*
X0008382Y00441452D01*
X00082804Y00440436D01*
X00081788D01*
X00082804Y0043942D01*
X00081788Y00438404D01*
X00082804D01*
X0008382Y00437388D01*
X0005842D02*
X00059436Y00438404D01*
X00060452D01*
X00059436Y0043942D01*
X00060452Y00440436D01*
X00059436D01*
X0005842Y00441452D01*
X00057404Y00440436D01*
X00056388D01*
X00057404Y0043942D01*
X00056388Y00438404D01*
X00057404D01*
X0005842Y00437388D01*
X0008382Y00462788D02*
X00084836Y00463804D01*
X00085852D01*
X00084836Y0046482D01*
X00085852Y00465836D01*
X00084836D01*
X0008382Y00466852D01*
X00082804Y00465836D01*
X00081788D01*
X00082804Y0046482D01*
X00081788Y00463804D01*
X00082804D01*
X0008382Y00462788D01*
X0005842D02*
X00059436Y00463804D01*
X00060452D01*
X00059436Y0046482D01*
X00060452Y00465836D01*
X00059436D01*
X0005842Y00466852D01*
X00057404Y00465836D01*
X00056388D01*
X00057404Y0046482D01*
X00056388Y00463804D01*
X00057404D01*
X0005842Y00462788D01*
X0008382Y00488188D02*
X00084836Y00489204D01*
X00085852D01*
X00084836Y0049022D01*
X00085852Y00491236D01*
X00084836D01*
X0008382Y00492252D01*
X00082804Y00491236D01*
X00081788D01*
X00082804Y0049022D01*
X00081788Y00489204D01*
X00082804D01*
X0008382Y00488188D01*
X0005842D02*
X00059436Y00489204D01*
X00060452D01*
X00059436Y0049022D01*
X00060452Y00491236D01*
X00059436D01*
X0005842Y00492252D01*
X00057404Y00491236D01*
X00056388D01*
X00057404Y0049022D01*
X00056388Y00489204D01*
X00057404D01*
X0005842Y00488188D01*
X00918464Y00488442D02*
Y00492506D01*
X00922528D01*
Y00488442D01*
X00918464D01*
Y00463442D02*
Y00467506D01*
X00922528D01*
Y00463442D01*
X00918464D01*
Y00438442D02*
Y00442506D01*
X00922528D01*
Y00438442D01*
X00918464D01*
Y00413442D02*
Y00417506D01*
X00922528D01*
Y00413442D01*
X00918464D01*
X00630428Y00606298D02*
X00631444Y0060833D01*
X00630428Y00610362D01*
X0063246Y00609346D01*
X00634492Y00610362D01*
X00633476Y0060833D01*
X00634492Y00606298D01*
X0063246Y00607314D01*
X00630428Y00606298D01*
Y00657098D02*
X00631444Y0065913D01*
X00630428Y00661162D01*
X0063246Y00660146D01*
X00634492Y00661162D01*
X00633476Y0065913D01*
X00634492Y00657098D01*
X0063246Y00658114D01*
X00630428Y00657098D01*
X0097663Y00744728D02*
X00977646Y00745744D01*
X00978662D01*
X00977646Y0074676D01*
X00978662Y00747776D01*
X00977646D01*
X0097663Y00748792D01*
X00975614Y00747776D01*
X00974598D01*
X00975614Y0074676D01*
X00974598Y00745744D01*
X00975614D01*
X0097663Y00744728D01*
X0095123D02*
X00952246Y00745744D01*
X00953262D01*
X00952246Y0074676D01*
X00953262Y00747776D01*
X00952246D01*
X0095123Y00748792D01*
X00950214Y00747776D01*
X00949198D01*
X00950214Y0074676D01*
X00949198Y00745744D01*
X00950214D01*
X0095123Y00744728D01*
X0097663Y00770128D02*
X00977646Y00771144D01*
X00978662D01*
X00977646Y0077216D01*
X00978662Y00773176D01*
X00977646D01*
X0097663Y00774192D01*
X00975614Y00773176D01*
X00974598D01*
X00975614Y0077216D01*
X00974598Y00771144D01*
X00975614D01*
X0097663Y00770128D01*
X0095123D02*
X00952246Y00771144D01*
X00953262D01*
X00952246Y0077216D01*
X00953262Y00773176D01*
X00952246D01*
X0095123Y00774192D01*
X00950214Y00773176D01*
X00949198D01*
X00950214Y0077216D01*
X00949198Y00771144D01*
X00950214D01*
X0095123Y00770128D01*
X0097663Y00795528D02*
X00977646Y00796544D01*
X00978662D01*
X00977646Y0079756D01*
X00978662Y00798576D01*
X00977646D01*
X0097663Y00799592D01*
X00975614Y00798576D01*
X00974598D01*
X00975614Y0079756D01*
X00974598Y00796544D01*
X00975614D01*
X0097663Y00795528D01*
X0095123D02*
X00952246Y00796544D01*
X00953262D01*
X00952246Y0079756D01*
X00953262Y00798576D01*
X00952246D01*
X0095123Y00799592D01*
X00950214Y00798576D01*
X00949198D01*
X00950214Y0079756D01*
X00949198Y00796544D01*
X00950214D01*
X0095123Y00795528D01*
X0097663Y00820928D02*
X00977646Y00821944D01*
X00978662D01*
X00977646Y0082296D01*
X00978662Y00823976D01*
X00977646D01*
X0097663Y00824992D01*
X00975614Y00823976D01*
X00974598D01*
X00975614Y0082296D01*
X00974598Y00821944D01*
X00975614D01*
X0097663Y00820928D01*
X0095123D02*
X00952246Y00821944D01*
X00953262D01*
X00952246Y0082296D01*
X00953262Y00823976D01*
X00952246D01*
X0095123Y00824992D01*
X00950214Y00823976D01*
X00949198D01*
X00950214Y0082296D01*
X00949198Y00821944D01*
X00950214D01*
X0095123Y00820928D01*
X0097663Y00846328D02*
X00977646Y00847344D01*
X00978662D01*
X00977646Y0084836D01*
X00978662Y00849376D01*
X00977646D01*
X0097663Y00850392D01*
X00975614Y00849376D01*
X00974598D01*
X00975614Y0084836D01*
X00974598Y00847344D01*
X00975614D01*
X0097663Y00846328D01*
X0095123D02*
X00952246Y00847344D01*
X00953262D01*
X00952246Y0084836D01*
X00953262Y00849376D01*
X00952246D01*
X0095123Y00850392D01*
X00950214Y00849376D01*
X00949198D01*
X00950214Y0084836D01*
X00949198Y00847344D01*
X00950214D01*
X0095123Y00846328D01*
X00170433Y00558028D02*
X00168401Y00562092D01*
X00172465D01*
X00170433Y00558028D01*
Y00559044D02*
X00169417Y00561076D01*
X00171449D01*
X00170433Y00559044D01*
X0047752Y00917448D02*
X00475488Y00921512D01*
X00479552D01*
X0047752Y00917448D01*
Y00918464D02*
X00476504Y00920496D01*
X00478536D01*
X0047752Y00918464D01*
X0052197Y00917448D02*
X00519938Y00921512D01*
X00524002D01*
X0052197Y00917448D01*
Y00918464D02*
X00520954Y00920496D01*
X00522986D01*
X0052197Y00918464D01*
X0045847Y00897128D02*
X00456438Y00901192D01*
X00460502D01*
X0045847Y00897128D01*
Y00898144D02*
X00457454Y00900176D01*
X00459486D01*
X0045847Y00898144D01*
X0053721Y00898398D02*
X00535178Y00902462D01*
X00539242D01*
X0053721Y00898398D01*
Y00899414D02*
X00536194Y00901446D01*
X00538226D01*
X0053721Y00899414D01*
X0056388Y00363728D02*
X00564896Y00364744D01*
X00565912D01*
X00564896Y0036576D01*
X00565912Y00366776D01*
X00564896D01*
X0056388Y00367792D01*
X00562864Y00366776D01*
X00561848D01*
X00562864Y0036576D01*
X00561848Y00364744D01*
X00562864D01*
X0056388Y00363728D01*
Y00364744D02*
X00564388Y00365252D01*
X00564896D01*
X00564388Y0036576D01*
X00564896Y00366268D01*
X00564388D01*
X0056388Y00366776D01*
X00563372Y00366268D01*
X00562864D01*
X00563372Y0036576D01*
X00562864Y00365252D01*
X00563372D01*
X0056388Y00364744D01*
X0005842Y00899668D02*
X00056388Y00903732D01*
X00060452D01*
X0005842Y00899668D01*
Y00900684D02*
X00057404Y00902716D01*
X00059436D01*
X0005842Y00900684D01*
X0092202Y00725678D02*
X00919988Y00729742D01*
X00924052D01*
X0092202Y00725678D01*
Y00726694D02*
X00921004Y00728726D01*
X00923036D01*
X0092202Y00726694D01*
X00437388Y00749808D02*
X00438404Y0075184D01*
X00437388Y00753872D01*
X0043942Y00752856D01*
X00441452Y00753872D01*
X00440436Y0075184D01*
X00441452Y00749808D01*
X0043942Y00750824D01*
X00437388Y00749808D01*
X00438404Y00750824D02*
X00438912Y0075184D01*
X00438404Y00752856D01*
X0043942Y00752348D01*
X00440436Y00752856D01*
X00439928Y0075184D01*
X00440436Y00750824D01*
X0043942Y00751332D01*
X00438404Y00750824D01*
X00185928Y00733298D02*
X00186944Y0073533D01*
X00185928Y00737362D01*
X0018796Y00736346D01*
X00189992Y00737362D01*
X00188976Y0073533D01*
X00189992Y00733298D01*
X0018796Y00734314D01*
X00185928Y00733298D01*
X00186944Y00734314D02*
X00187452Y0073533D01*
X00186944Y00736346D01*
X0018796Y00735838D01*
X00188976Y00736346D01*
X00188468Y0073533D01*
X00188976Y00734314D01*
X0018796Y00734822D01*
X00186944Y00734314D01*
D79*
X00371602Y00343662D02*
G03*
X00371602Y00343662I-00002032J0D01*
G01*
X0040513D02*
G03*
X0040513Y00343662I-00002032J0D01*
G01*
X00422402Y0038608D02*
G03*
X00422402Y0038608I-00002032J0D01*
G01*
X00388366D02*
G03*
X00388366Y0038608I-00002032J0D01*
G01*
X0035433D02*
G03*
X0035433Y0038608I-00002032J0D01*
G01*
X00361442Y0026048D02*
G03*
X00361442Y0026048I-00002032J0D01*
G01*
Y0003048D02*
G03*
X00361442Y0003048I-00002032J0D01*
G01*
X00681482Y0006731D02*
G03*
X00681482Y0006731I-00002032J0D01*
G01*
Y001185D02*
G03*
X00681482Y001185I-00002032J0D01*
G01*
X00277622Y0032131D02*
G03*
X00277622Y0032131I-00002032J0D01*
G01*
X00413512Y0058547D02*
G03*
X00413512Y0058547I-00002032J0D01*
G01*
X00319532Y0058166D02*
G03*
X00319532Y0058166I-00002032J0D01*
G01*
X00173482Y0052705D02*
G03*
X00173482Y0052705I-00002032J0D01*
G01*
X00851662Y0045974D02*
G03*
X00851662Y0045974I-00002032J0D01*
G01*
X00469392Y0082931D02*
G03*
X00469392Y0082931I-00002032J0D01*
G01*
X00684022Y0053467D02*
G03*
X00684022Y0053467I-00002032J0D01*
G01*
X00225552Y004572D02*
G03*
X00225552Y004572I-00002032J0D01*
G01*
X00144272Y0038227D02*
G03*
X00144272Y0038227I-00002032J0D01*
G01*
X00242062D02*
G03*
X00242062Y0038227I-00002032J0D01*
G01*
X00075692Y0052959D02*
G03*
X00075692Y0052959I-00002032J0D01*
G01*
X00062992Y0079375D02*
G03*
X00062992Y0079375I-00002032J0D01*
G01*
X00737362Y0046736D02*
G03*
X00737362Y0046736I-00002032J0D01*
G01*
X00413512Y0053975D02*
G03*
X00413512Y0053975I-00002032J0D01*
G01*
X00256032Y0035687D02*
G03*
X00256032Y0035687I-00002032J0D01*
G01*
X00617982Y0053594D02*
G03*
X00617982Y0053594I-00002032J0D01*
G01*
X00577342Y0074295D02*
G03*
X00577342Y0074295I-00002032J0D01*
G01*
X00134112Y0048387D02*
G03*
X00134112Y0048387I-00002032J0D01*
G01*
X00192532Y004318D02*
G03*
X00192532Y004318I-00002032J0D01*
G01*
X00324612Y0068199D02*
G03*
X00324612Y0068199I-00002032J0D01*
G01*
X00132842Y005842D02*
G03*
X00132842Y005842I-00002032J0D01*
G01*
X00094742Y0089154D02*
G03*
X00094742Y0089154I-00002032J0D01*
G01*
X00041402Y0088011D02*
G03*
X00041402Y0088011I-00002032J0D01*
G01*
X00811022Y007366D02*
G03*
X00811022Y007366I-00002032J0D01*
G01*
X00245872Y0071755D02*
G03*
X00245872Y0071755I-00002032J0D01*
G01*
X00901192Y0084455D02*
G03*
X00901192Y0084455I-00002032J0D01*
G01*
X00572262D02*
G03*
X00572262Y0084455I-00002032J0D01*
G01*
X00366522Y0087757D02*
G03*
X00366522Y0087757I-00002032J0D01*
G01*
X00639572Y008636D02*
G03*
X00639572Y008636I-00002032J0D01*
G01*
X00564642Y0082169D02*
G03*
X00564642Y0082169I-00002032J0D01*
G01*
D80*
X00276606Y0032131D02*
G03*
X00276606Y0032131I-00001016J0D01*
G01*
X00412496Y0058547D02*
G03*
X00412496Y0058547I-00001016J0D01*
G01*
X00318516Y0058166D02*
G03*
X00318516Y0058166I-00001016J0D01*
G01*
X00172466Y0052705D02*
G03*
X00172466Y0052705I-00001016J0D01*
G01*
X00850646Y0045974D02*
G03*
X00850646Y0045974I-00001016J0D01*
G01*
X00468376Y0082931D02*
G03*
X00468376Y0082931I-00001016J0D01*
G01*
X00683006Y0053467D02*
G03*
X00683006Y0053467I-00001016J0D01*
G01*
X00224536Y004572D02*
G03*
X00224536Y004572I-00001016J0D01*
G01*
X00143256Y0038227D02*
G03*
X00143256Y0038227I-00001016J0D01*
G01*
X00241046D02*
G03*
X00241046Y0038227I-00001016J0D01*
G01*
X00074676Y0052959D02*
G03*
X00074676Y0052959I-00001016J0D01*
G01*
X00061976Y0079375D02*
G03*
X00061976Y0079375I-00001016J0D01*
G01*
X00736346Y0046736D02*
G03*
X00736346Y0046736I-00001016J0D01*
G01*
X00412496Y0053975D02*
G03*
X00412496Y0053975I-00001016J0D01*
G01*
X00255016Y0035687D02*
G03*
X00255016Y0035687I-00001016J0D01*
G01*
X00616966Y0053594D02*
G03*
X00616966Y0053594I-00001016J0D01*
G01*
X00576326Y0074295D02*
G03*
X00576326Y0074295I-00001016J0D01*
G01*
X00133096Y0048387D02*
G03*
X00133096Y0048387I-00001016J0D01*
G01*
X00191516Y004318D02*
G03*
X00191516Y004318I-00001016J0D01*
G01*
X00323596Y0068199D02*
G03*
X00323596Y0068199I-00001016J0D01*
G01*
X00131826Y005842D02*
G03*
X00131826Y005842I-00001016J0D01*
G01*
X00093726Y0089154D02*
G03*
X00093726Y0089154I-00001016J0D01*
G01*
X00040386Y0088011D02*
G03*
X00040386Y0088011I-00001016J0D01*
G01*
X00810006Y007366D02*
G03*
X00810006Y007366I-00001016J0D01*
G01*
X00244856Y0071755D02*
G03*
X00244856Y0071755I-00001016J0D01*
G01*
X00900176Y0084455D02*
G03*
X00900176Y0084455I-00001016J0D01*
G01*
X00571246D02*
G03*
X00571246Y0084455I-00001016J0D01*
G01*
X00365506Y0087757D02*
G03*
X00365506Y0087757I-00001016J0D01*
G01*
X00638556Y008636D02*
G03*
X00638556Y008636I-00001016J0D01*
G01*
X00563626Y0082169D02*
G03*
X00563626Y0082169I-00001016J0D01*
G01*
M02*
