G04*
G04 #@! TF.GenerationSoftware,Altium Limited,Altium Designer,21.3.2 (30)*
G04*
G04 Layer_Color=255*
%FSTAX44Y44*%
%MOMM*%
G71*
G04*
G04 #@! TF.SameCoordinates,71E4571F-97C7-41C0-9591-7C9436880AE0*
G04*
G04*
G04 #@! TF.FilePolarity,Positive*
G04*
G01*
G75*
%ADD59R,2.0000X2.0000*%
%ADD60C,2.0000*%
%ADD61C,2.7940*%
%ADD62R,1.5000X1.5000*%
%ADD63C,1.5000*%
%ADD64R,2.1000X2.1000*%
%ADD65C,2.1000*%
%ADD66C,1.8000*%
%ADD67C,1.6500*%
%ADD68R,2.0000X2.0000*%
%ADD69C,1.9400*%
%ADD70R,1.9400X1.9400*%
%ADD71R,3.8100X3.8100*%
%ADD72C,3.8100*%
%ADD73C,5.0000*%
D59*
X0013161Y00914146D02*
D03*
X0064088D02*
D03*
D60*
X0015661D02*
D03*
X0018161D02*
D03*
X0020661D02*
D03*
X0036957Y00343662D02*
D03*
X00403098D02*
D03*
X0042037Y0038608D02*
D03*
X00386334D02*
D03*
X00352298D02*
D03*
X0012504Y0067945D02*
D03*
X0014204Y0062865D02*
D03*
X0015904Y0067945D02*
D03*
X0017604Y0062865D02*
D03*
X0019304Y0067945D02*
D03*
X0021004Y0062865D02*
D03*
X0022704Y0067945D02*
D03*
X0024404Y0062865D02*
D03*
X0026104Y0067945D02*
D03*
X0027804Y0062865D02*
D03*
X0066588Y00914146D02*
D03*
X0069088D02*
D03*
X0071588D02*
D03*
X0068863Y0067691D02*
D03*
X0070563Y0062611D02*
D03*
X0072263Y0067691D02*
D03*
X0073963Y0062611D02*
D03*
X0075663Y0067691D02*
D03*
X0077363Y0062611D02*
D03*
X0079063Y0067691D02*
D03*
X0080763Y0062611D02*
D03*
X0082463Y0067691D02*
D03*
X0084163Y0062611D02*
D03*
X00920496Y00465474D02*
D03*
Y00440474D02*
D03*
Y00415474D02*
D03*
D61*
X0095123Y0017145D02*
D03*
Y0012065D02*
D03*
X008509Y0004572D02*
D03*
X008001D02*
D03*
X0086106Y009525D02*
D03*
X0081026D02*
D03*
X0034544Y0095504D02*
D03*
X0029464D02*
D03*
D62*
X0005842Y0020701D02*
D03*
X0008382Y0026162D02*
D03*
X0097663Y0074676D02*
D03*
D63*
X0008382Y0020701D02*
D03*
X0005842Y0018161D02*
D03*
X0008382D02*
D03*
X0005842Y0015621D02*
D03*
X0008382D02*
D03*
X0005842Y0013081D02*
D03*
X0008382D02*
D03*
X0005842Y0010541D02*
D03*
X0008382D02*
D03*
X0005842Y0026162D02*
D03*
X0008382Y0028702D02*
D03*
X0005842D02*
D03*
X0008382Y0031242D02*
D03*
X0005842D02*
D03*
X0008382Y0033782D02*
D03*
X0005842D02*
D03*
X0008382Y0036322D02*
D03*
X0005842D02*
D03*
X0008382Y0038862D02*
D03*
X0005842D02*
D03*
X0008382Y0041402D02*
D03*
X0005842D02*
D03*
X0008382Y0043942D02*
D03*
X0005842D02*
D03*
X0008382Y0046482D02*
D03*
X0005842D02*
D03*
X0008382Y0049022D02*
D03*
X0005842D02*
D03*
X0095123Y0074676D02*
D03*
X0097663Y0077216D02*
D03*
X0095123D02*
D03*
X0097663Y0079756D02*
D03*
X0095123D02*
D03*
X0097663Y0082296D02*
D03*
X0095123D02*
D03*
X0097663Y0084836D02*
D03*
X0095123D02*
D03*
D64*
X0069624Y0080772D02*
D03*
X0015847Y0079883D02*
D03*
X0080292Y0020574D02*
D03*
X0079375Y0034036D02*
D03*
X0042319Y006477D02*
D03*
X0053015Y0064643D02*
D03*
D65*
X0073124Y0080772D02*
D03*
X0012347Y0079883D02*
D03*
X0083792Y0020574D02*
D03*
X0084455Y0034036D02*
D03*
X0045819Y006477D02*
D03*
X0056515Y0064643D02*
D03*
D66*
X0014859Y0032131D02*
D03*
X0019939D02*
D03*
X0091313Y0066167D02*
D03*
Y0061087D02*
D03*
X0088138Y0051562D02*
D03*
Y0046482D02*
D03*
X0035433Y006604D02*
D03*
Y006096D02*
D03*
X0006096Y00661334D02*
D03*
Y00610534D02*
D03*
X0067945Y0006731D02*
D03*
Y001185D02*
D03*
X0063246Y0060833D02*
D03*
Y0065913D02*
D03*
D67*
X0035941Y0026048D02*
D03*
Y0003048D02*
D03*
D68*
X0029504Y0067945D02*
D03*
X0085863Y0067691D02*
D03*
X00920496Y00490474D02*
D03*
D69*
X00974085Y0031877D02*
D03*
Y0029337D02*
D03*
D70*
Y0026797D02*
D03*
D71*
X0068072Y0035433D02*
D03*
D72*
Y0022606D02*
D03*
D73*
X0095Y0095D02*
D03*
X0005D02*
D03*
X0095Y0005D02*
D03*
X0005D02*
D03*
M02*
