2300 0 3 0           
16 IronCAD - 23.0.2 14 ACIS 23.0.2 NT 24 Sat Feb 27 19:01:08 2016 
1 9.9999999999999995e-007 1e-010 
body $3 -1 -1 $-1 $4 $-1 $5 T -1.5000000000000004 -2 -1.2924356595460699e-015 1.5 2 4.0000000000000053 #
body $6 -1 -1 $-1 $7 $-1 $8 T -0.75 -0.75000000000001232 1.2864981197413178e-016 0.75 0.74999999999998812 4.0000000000000018 #
body $9 -1 -1 $-1 $10 $-1 $11 T 0.64487458609558956 -0.61885164487378019 1.178866777084052 1.2641083686299348 0.26357919649459965 1.9788667770840522 #
string_attrib-name_attrib-gen-attrib $-1 -1 $-1 $-1 $0 2 1 1 1 1 1 1 1 1 1 1 1 1 1 0 1 1 1 @17 ATTRIB_XACIS_NAME @20 nakretka kulowa 1204 #
lump $-1 -1 -1 $-1 $-1 $12 $0 T -1.5000000000000004 -2 -1.2924356595460699e-015 1.5 2 4.0000000000000053 #
transform $-1 -1 1 0 0 0 1 0 0 0 1 0 0 0 10 no_rotate no_reflect no_shear #
string_attrib-name_attrib-gen-attrib $-1 -1 $-1 $-1 $1 2 1 1 1 1 1 1 1 1 1 1 1 1 1 0 1 1 1 @17 ATTRIB_XACIS_NAME @3 wkl #
lump $-1 -1 -1 $-1 $-1 $13 $1 T -0.75 -0.75000000000001232 1.2864981197413178e-016 0.75 0.74999999999998812 4.0000000000000018 #
transform $-1 -1 1 0 0 0 1 0 0 0 1 0 0 0 10 no_rotate no_reflect no_shear #
string_attrib-name_attrib-gen-attrib $-1 -1 $-1 $-1 $2 2 1 1 1 1 1 1 1 1 1 1 1 1 1 0 1 1 1 @17 ATTRIB_XACIS_NAME @8 zaslepka #
lump $-1 -1 -1 $-1 $-1 $14 $2 T 0.64487458609558956 -0.61885164487378019 1.178866777084052 1.2641083686299348 0.26357919649459965 1.9788667770840522 #
transform $-1 -1 1 0 0 0 1 0 0 0 1 0 0 -0.115504662947968 10 no_rotate no_reflect no_shear #
shell $-1 -1 -1 $-1 $-1 $-1 $15 $-1 $4 T -1.5000000000000004 -2 -1.2924356595460699e-015 1.5 2 4.0000000000000053 #
shell $-1 -1 -1 $-1 $-1 $-1 $16 $-1 $7 T -0.75 -0.75000000000001232 1.2864981197413178e-016 0.75 0.74999999999998812 4.0000000000000018 #
shell $-1 -1 -1 $-1 $-1 $-1 $17 $-1 $10 T 0.64487458609558956 -0.61885164487378019 1.178866777084052 1.2641083686299348 0.26357919649459965 1.9788667770840522 #
face $18 -1 -1 $-1 $19 $20 $12 $-1 $21 reversed single T 0.36315273111182744 -0.60709127289379028 1.1567131518172136 1.2009970449801131 0.30843508779053391 1.9572903435908844 F #
face $22 -1 -1 $-1 $23 $24 $13 $-1 $25 reversed single T -0.59999999999999998 -0.6000000000000123 1.2864981197413178e-016 0.59999999999999998 0.60000000000000187 4.0000000000000018 F #
face $26 -1 -1 $-1 $27 $28 $14 $-1 $29 forward single T 0.64487458609558956 -0.61885164487378019 1.178866777084052 1.2641083686299348 0.26357919649459965 1.9788667770840522 F #
rgb_color-st-attrib $-1 -1 $-1 $-1 $15 2 1 2 1 1 1 1 1 1 1 1 1 1 1 0 1 1 1 1 1 1 #
face $30 -1 -1 $-1 $31 $32 $12 $-1 $33 reversed single T -0.75 -0.75000000000000133 3.5999999999999961 0.75 0.75 4.0000000000000009 F #
loop $-1 -1 -1 $-1 $34 $35 $15 T 0.36315273111182744 -0.47768822076044076 1.1567131518172136 0.60238773408724078 0.30843508779053391 1.9572903435908844 u_sep $21 T #
cone-surface $-1 -1 -1 $-1 1.1783191751659303 -0.22707690643530948 1.5570017477040512 -0.98193264597162611 0.18923075536276163 -3.6522936038107979e-015 0.075692302145104626 0.39277305838865034 -8.8817841970012516e-017 1 I I 0 1 0.39999999999999997 forward I I I I #
rgb_color-st-attrib $-1 -1 $-1 $-1 $16 2 1 2 1 1 1 1 1 1 1 1 1 1 1 0 1 1 1 1 1 1 #
face $36 -1 -1 $-1 $37 $38 $13 $-1 $39 forward single T -0.75 -0.75000000000001232 7.9632990976407377e-016 0.75 0.74999999999998812 3.9999999999999947 F #
loop $-1 -1 -1 $-1 $40 $41 $16 T -0.59999999999999998 -0.59999999999999809 3.9999999999999973 0.59999999999999998 0.60000000000000187 4.0000000000000018 u_sep $25 T #
cone-surface $-1 -1 -1 $-1 0 -1.2323475573339238e-014 2.2602780192544323e-015 0 3.5527136788005009e-015 1 0.59999999999999998 0 0 1 I I 0 1 0.59999999999999998 forward I I I I #
rgb_color-st-attrib $-1 -1 $-1 $-1 $17 2 1 2 1 1 1 1 1 1 1 1 1 1 1 0 1 1 1 1 0.50196078431372548 0 #
face $42 -1 -1 $-1 $43 $44 $14 $-1 $45 forward single T 1.0698900593566449 -0.61885164487378019 1.178866777084052 1.2641083686299348 0.15721487826906574 1.978866777084052 F #
loop $-1 -1 -1 $-1 $46 $47 $17 T 1.0698900593566449 -0.61885164487378019 1.178866777084052 1.2641083686299348 0.15721487826906574 1.978866777084052 u_sep $29 F #
cone-surface $-1 -1 -1 $-1 0.7419837407322345 -0.12445406507682333 1.5788667770840521 0.97008315392855704 -0.24277288659161225 6.123233995736766e-017 0.023575469785609558 0.094203955005252471 -0.38803326157142293 1 I I 0 1 0.40000000000000013 forward I I I I #
rgb_color-st-attrib $-1 -1 $-1 $-1 $19 2 1 2 1 1 1 1 1 1 1 1 1 1 1 0 1 1 1 1 1 1 #
face $48 -1 -1 $-1 $49 $50 $12 $-1 $51 reversed single T -0.75 -0.75000000000000133 3.5999999999999961 0.75 0.74999999999999867 3.6000000000000014 F #
loop $-1 -1 -1 $-1 $52 $53 $19 T -0.75 -0.75000000000000133 3.5999999999999961 0.75 0.74999999999999867 3.6000000000000014 u_sep $33 T #
cone-surface $-1 -1 -1 $-1 0 0 3.9999999999999987 0 -3.4302489988857658e-015 -1 0.75 0 0 1 I I 0 1 0.75 forward I I I I #
loop $-1 -1 -1 $-1 $-1 $54 $15 T 1.0350096160874314 -0.60709127289379028 1.1567736937206092 1.2009970449801131 0.17891095185039474 1.9572298016874932 u_sep $21 T #
coedge $-1 -1 -1 $-1 $35 $35 $55 $56 reversed $20 $-1 #
rgb_color-st-attrib $-1 -1 $-1 $-1 $23 2 1 2 1 1 1 1 1 1 1 1 1 1 1 0 1 1 1 1 1 1 #
face $57 -1 -1 $-1 $58 $59 $13 $-1 $60 forward single T -0.75 -0.75000000000001232 7.9632990976407377e-016 0.75 0.74999999999998768 2.2602780192544323e-015 F #
loop $-1 -1 -1 $-1 $61 $62 $23 T -0.75 -0.75000000000001232 7.9632990976407377e-016 0.75 0.74999999999998768 9.8002692963617679e-016 u_sep $39 F #
cone-surface $-1 -1 -1 $-1 0 -1.1879386363489175e-014 3.9999999999999947 0 -1.2246467991473532e-016 -1 0.75 0 0 1 I I 0 1 0.75 forward I I I I #
loop $-1 -1 -1 $-1 $-1 $63 $16 T -0.59999999999999998 -0.6000000000000123 1.2864981197413178e-016 0.59999999999999998 0.59999999999998765 4.3919062265347327e-015 u_sep $25 T #
coedge $-1 -1 -1 $-1 $41 $41 $64 $65 reversed $24 $-1 #
rgb_color-st-attrib $-1 -1 $-1 $-1 $27 2 1 2 1 1 1 1 1 1 1 1 1 1 1 0 1 1 1 1 0.50196078431372548 0 #
face $66 -1 -1 $-1 $-1 $67 $14 $-1 $68 reversed single T 0.64487458609558956 -0.51248732664824626 1.1788667770840522 0.83909289536887943 0.26357919649459965 1.9788667770840522 F #
loop $-1 -1 -1 $-1 $-1 $69 $27 T 1.0698900593566449 -0.61885164487378019 1.178866777084052 1.2641083686299348 0.15721487826906574 1.978866777084052 periphery $45 F #
plane-surface $-1 -1 -1 $-1 1.1669992139932899 -0.23081838330235727 1.5788667770840521 0.97008315392855704 -0.24277288659161225 6.123233995736766e-017 0.058938674464023892 0.23550988751313115 -0.97008315392855726 forward_v I I I I #
loop $-1 -1 -1 $-1 $-1 $70 $17 T 0.64487458609558956 -0.51248732664824626 1.1788667770840522 0.83909289536887943 0.26357919649459965 1.9788667770840522 u_sep $29 F #
coedge $-1 -1 -1 $-1 $47 $47 $69 $71 forward $28 $-1 #
rgb_color-st-attrib $-1 -1 $-1 $-1 $31 2 1 2 1 1 1 1 1 1 1 1 1 1 1 0 1 1 1 1 1 1 #
face $72 -1 -1 $-1 $73 $74 $12 $-1 $75 reversed single T -0.59999999999999998 -0.6000000000000123 0.39999999999999913 0.60238773408724078 0.59999999999999865 3.600000000000001 F #
loop $-1 -1 -1 $-1 $76 $77 $31 T -0.59999999999999998 -0.60000000000000131 3.5999999999999965 0.59999999999999998 0.59999999999999865 3.600000000000001 hole $51 T #
plane-surface $-1 -1 -1 $-1 0 -1.3322676295501878e-015 3.5999999999999988 0 -3.4302489988857658e-015 -1 1 0 0 forward_v I I I I #
loop $-1 -1 -1 $-1 $-1 $78 $19 T -0.75 -0.75 3.999999999999996 0.75 0.75 4.0000000000000009 u_sep $33 T #
coedge $-1 -1 -1 $-1 $53 $53 $79 $80 reversed $32 $-1 #
coedge $-1 -1 -1 $-1 $81 $81 $82 $83 reversed $34 $-1 #
coedge $-1 -1 -1 $-1 $55 $55 $35 $56 forward $74 $-1 #
edge $-1 -1 -1 $-1 $84 0 $84 2.5110859421322784 $55 $85 forward @7 unknown T 0.36315273111182744 -0.47768822076044076 1.1567131518172136 0.60238773408724078 0.30843508779053391 1.9572903435908844 #
rgb_color-st-attrib $-1 -1 $-1 $-1 $37 2 1 2 1 1 1 1 1 1 1 1 1 1 1 0 1 1 1 1 1 1 #
face $86 -1 -1 $-1 $-1 $87 $13 $-1 $88 reversed single T -0.75 -0.75000000000001188 3.9999999999999947 0.75 0.74999999999998812 3.9999999999999996 F #
loop $-1 -1 -1 $-1 $89 $90 $37 T -0.59999999999999998 -0.6000000000000123 8.1469961175128401e-016 0.59999999999999998 0.59999999999998765 2.2602780192544323e-015 hole $60 F #
plane-surface $-1 -1 -1 $-1 0 -1.2323475573339238e-014 8.8817841970012523e-016 0 -1.2246467991473532e-016 -1 1 0 0 forward_v I I I I #
loop $-1 -1 -1 $-1 $-1 $91 $23 T -0.75 -0.75000000000001188 3.9999999999999947 0.75 0.74999999999998812 3.9999999999999947 u_sep $39 F #
coedge $-1 -1 -1 $-1 $62 $62 $92 $93 forward $38 $-1 #
coedge $-1 -1 -1 $-1 $63 $63 $90 $94 reversed $40 $-1 #
coedge $-1 -1 -1 $-1 $64 $64 $41 $65 forward $87 $-1 #
edge $-1 -1 -1 $-1 $95 -4.3387349787155649e-029 $95 6.2831853071795862 $64 $96 forward @7 unknown T -0.59999999999999998 -0.59999999999999809 3.9999999999999947 0.59999999999999998 0.60000000000000187 3.9999999999999996 #
rgb_color-st-attrib $-1 -1 $-1 $-1 $43 2 1 2 1 1 1 1 1 1 1 1 1 1 1 0 1 1 1 1 0.50196078431372548 0 #
loop $-1 -1 -1 $-1 $-1 $97 $43 T 0.64487458609558956 -0.51248732664824626 1.1788667770840522 0.83909289536887943 0.26357919649459965 1.9788667770840522 periphery $68 T #
plane-surface $-1 -1 -1 $-1 0.7419837407322345 -0.12445406507682333 1.5788667770840521 0.97008315392855704 -0.24277288659161225 6.123233995736766e-017 0.058938674464023892 0.23550988751313115 -0.97008315392855726 forward_v I I I I #
coedge $-1 -1 -1 $-1 $69 $69 $47 $71 reversed $44 $-1 #
coedge $-1 -1 -1 $-1 $70 $70 $97 $98 forward $46 $-1 #
edge $-1 -1 -1 $-1 $99 0 $99 6.2831853071795862 $47 $100 forward @7 unknown T 1.0698900593566449 -0.61885164487378019 1.178866777084052 1.2641083686299348 0.15721487826906574 1.978866777084052 #
rgb_color-st-attrib $-1 -1 $-1 $-1 $49 2 1 2 1 1 1 1 1 1 1 1 1 1 1 0 1 1 1 1 1 1 #
face $101 -1 -1 $-1 $102 $103 $12 $-1 $104 reversed single T -0.75 -0.75000000000001366 -1.2924356595460699e-015 0.75 0.74999999999998779 0.40000000000000407 F #
loop $-1 -1 -1 $-1 $105 $55 $49 T 0.36315273111182744 -0.47768822076044076 1.1567131518172136 0.60238773408724078 0.30843508779053391 1.9572903435908844 hole $75 T #
cone-surface $-1 -1 -1 $-1 0 0 3.9999999999999987 0 -3.4302489988857658e-015 -1 0.59999999999999998 0 0 1 I I 0 1 0.59999999999999998 forward I I I I #
loop $-1 -1 -1 $-1 $-1 $79 $31 T -0.75 -0.75000000000000133 3.5999999999999961 0.75 0.74999999999999867 3.6000000000000014 periphery $51 T #
coedge $-1 -1 -1 $-1 $77 $77 $106 $107 reversed $50 $-1 #
coedge $-1 -1 -1 $-1 $78 $78 $108 $109 reversed $52 $-1 #
coedge $-1 -1 -1 $-1 $79 $79 $53 $80 forward $76 $-1 #
edge $-1 -1 -1 $-1 $110 0 $110 6.2831853071795862 $53 $111 forward @7 unknown T -0.75 -0.75000000000000133 3.5999999999999961 0.75 0.74999999999999867 3.6000000000000014 #
coedge $-1 -1 -1 $-1 $54 $54 $112 $113 reversed $34 $-1 #
coedge $-1 -1 -1 $-1 $112 $112 $54 $83 forward $114 $-1 #
edge $-1 -1 -1 $-1 $115 0.60776011746059266 $116 1.823280352381778 $82 $117 forward @7 unknown T 1.1780911211825091 -0.22730496041875559 1.1567736937206092 1.2009970449801131 0.17891095185039474 1.9572298016874932 #
vertex $-1 -1 -1 $-1 $56 $118 #
intcurve-curve $-1 -1 -1 $-1 forward { surfintcur full nubs 3 periodic 17 
	0 3 0.15781094078651919 2 0.31562188157303839 2 0.47169668355305489 2 0.62777148553307138 2 
	0.7838462875130866 2 0.93992108949310182 2 1.0977320302796205 2 1.2555429710661392 2 1.4133539118526581 2 
	1.5711648526391768 2 1.7272396546191917 2 1.8833144565992064 2 2.0393892585792228 2 2.1954640605592393 2 
	2.3532750013457591 2 2.5110859421322784 3 
	0.51482593128885679 0.30814649190369842 1.5570017477040472 
	0.51482593128885679 0.30814649190369858 1.609605394632887 
	0.52281321821985083 0.29554513359479195 1.6636653397454277 
	0.5464916487418412 0.2490529764775494 1.761268449503357 
	0.56143438255681544 0.21528574592280744 1.805050418221477 
	0.58466205689936346 0.1403308170378918 1.8742557195088974 
	0.59481260765760835 0.09370213955562065 1.9048382134594617 
	0.6020991382004055 -0.0076656785223923746 1.9462506539846618 
	0.59900430514023384 -0.062453472125076827 1.9570017477040487 
	0.5793148700257208 -0.16462343431023344 1.9570017477040491 
	0.56182761853076268 -0.21663762809109222 1.9462506539846627 
	0.5173922393270689 -0.30803798445950081 1.9048382134594635 
	0.49064031383060941 -0.34755509121939926 1.8742557195088998 
	0.441221096612612 -0.40851005155132419 1.8050504182214797 
	0.41479980637003644 -0.43430591507863825 1.7612684495033599 
	0.37553955549436696 -0.46866899769033826 1.6636653397454308 
	0.36344132699866277 -0.47739962487360499 1.6096053946328894 
	0.36344132699866277 -0.47739962487360543 1.5043981007752101 
	0.37553955549436718 -0.46866899769033887 1.4503381556626684 
	0.41479980637003666 -0.43430591507863953 1.3527350459047394 
	0.44122109661261188 -0.40851005155132603 1.3089530771866194 
	0.4906403138306093 -0.34755509121940148 1.239747775899199 
	0.51739223932706879 -0.30803798445950303 1.2091652819486356 
	0.56182761853076246 -0.21663762809109491 1.1677528414234359 
	0.57931487002572069 -0.16462343431023638 1.1570017477040493 
	0.59900430514023373 -0.062453472125079949 1.1570017477040488 
	0.6020991382004055 -0.0076656785223954485 1.1677528414234357 
	0.59481260765760835 0.093702139555617847 1.2091652819486349 
	0.58466205689936346 0.14033081703788947 1.2397477758991977 
	0.56143438255681533 0.21528574592280586 1.3089530771866176 
	0.54649164874184142 0.24905297647754746 1.3527350459047369 
	0.52281321821985105 0.29554513359479101 1.4503381556626658 
	0.51482593128885679 0.30814649190369825 1.5043981007752074 
	0.51482593128885679 0.30814649190369842 1.5570017477040472 
	0.00028859588683531509 
	cone 1.1783191751659303 -0.22707690643530948 1.5570017477040512 -0.98193264597162611 0.18923075536276163 -3.6522936038107979e-015 0.075692302145104626 0.39277305838865034 -8.8817841970012516e-017 1 I I 0 1 0.39999999999999997 forward I I I I 
	cone 0 0 3.9999999999999987 0 -3.4302489988857658e-015 -1 0.59999999999999998 0 0 1 I I -0 -1 0.59999999999999998 forward I I I I 
	nullbs 
	nullbs 
	-1 
	-1 
	I I 
	0 
	0 
	0 
	
	-1 
	none F } I I #
rgb_color-st-attrib $-1 -1 $-1 $-1 $58 2 1 2 1 1 1 1 1 1 1 1 1 1 1 0 1 1 1 1 1 1 #
loop $-1 -1 -1 $-1 $119 $64 $58 T -0.59999999999999998 -0.59999999999999809 3.9999999999999947 0.59999999999999998 0.60000000000000187 3.9999999999999996 hole $88 T #
plane-surface $-1 -1 -1 $-1 0 -1.1879386363489175e-014 3.9999999999999947 0 -1.2246467991473532e-016 -1 1 0 0 forward_v I I I I #
loop $-1 -1 -1 $-1 $-1 $92 $37 T -0.75 -0.75000000000001232 7.9632990976407377e-016 0.75 0.74999999999998768 9.8002692963617679e-016 periphery $60 F #
coedge $-1 -1 -1 $-1 $90 $90 $63 $94 forward $59 $-1 #
coedge $-1 -1 -1 $-1 $91 $91 $120 $121 forward $61 $-1 #
coedge $-1 -1 -1 $-1 $92 $92 $62 $93 reversed $89 $-1 #
edge $-1 -1 -1 $-1 $122 0 $122 6.2831853071795862 $62 $123 forward @7 unknown T -0.75 -0.75000000000001232 7.9632990976407377e-016 0.75 0.74999999999998768 9.8002692963617679e-016 #
edge $-1 -1 -1 $-1 $124 7.8886090522101181e-030 $124 6.2831853071795862 $90 $125 forward @7 unknown T -0.59999999999999998 -0.6000000000000123 8.1469961175128401e-016 0.59999999999999998 0.59999999999998765 2.2602780192544323e-015 #
vertex $-1 -1 -1 $-1 $65 $126 #
ellipse-curve $-1 -1 -1 $-1 0 1.8873791418627393e-015 3.9999999999999947 0 -1.2246467991473532e-016 -1 0.59999999999999998 0 0 1 I I #
coedge $-1 -1 -1 $-1 $97 $97 $70 $98 reversed $67 $-1 #
edge $-1 -1 -1 $-1 $127 0 $127 6.2831853071795862 $97 $128 forward @7 unknown T 0.64487458609558956 -0.51248732664824626 1.1788667770840522 0.83909289536887943 0.26357919649459965 1.9788667770840522 #
vertex $-1 -1 -1 $-1 $71 $129 #
ellipse-curve $-1 -1 -1 $-1 1.1669992139932899 -0.23081838330235727 1.5788667770840521 -0.97008315392855704 0.24277288659161225 -6.123233995736766e-017 0.023575469785609558 0.094203955005252471 -0.38803326157142293 1 I I #
rgb_color-st-attrib $-1 -1 $-1 $-1 $73 2 1 2 1 1 1 1 1 1 1 1 1 1 1 0 1 1 1 1 1 1 #
face $130 -1 -1 $-1 $131 $132 $12 $-1 $133 reversed single T -0.75 -0.75000000000001221 0.39999999999999875 0.75 0.74999999999998779 0.40000000000000407 F #
loop $-1 -1 -1 $-1 $134 $135 $73 T -0.75 -0.75000000000001221 0.39999999999999875 0.75 0.74999999999998779 0.40000000000000407 u_sep $104 T #
cone-surface $-1 -1 -1 $-1 0 -1.3655743202889425e-014 1.3720995995543058e-015 0 3.5527136788005009e-015 1 0.75 0 0 1 I I 0 1 0.75 forward I I I I #
loop $-1 -1 -1 $-1 $136 $106 $49 T -0.59999999999999998 -0.60000000000000131 3.5999999999999965 0.59999999999999998 0.59999999999999865 3.600000000000001 u_sep $75 T #
coedge $-1 -1 -1 $-1 $106 $106 $77 $107 forward $105 $-1 #
edge $-1 -1 -1 $-1 $137 -3.1415926535897931 $137 3.1415926535897931 $106 $138 forward @7 unknown T -0.59999999999999998 -0.60000000000000131 3.5999999999999965 0.59999999999999998 0.59999999999999865 3.600000000000001 #
coedge $-1 -1 -1 $-1 $108 $108 $78 $109 forward $139 $-1 #
edge $-1 -1 -1 $-1 $140 6.0933462700165922e-030 $140 6.2831853071795862 $108 $141 forward @7 unknown T -0.75 -0.75 3.9999999999999987 0.75 0.75 4 #
vertex $-1 -1 -1 $-1 $80 $142 #
ellipse-curve $-1 -1 -1 $-1 0 -1.3322676295501878e-015 3.5999999999999988 -0 3.4302489988857658e-015 1 0.75 0 0 1 I I #
coedge $-1 -1 -1 $-1 $82 $82 $81 $113 forward $114 $-1 #
edge $-1 -1 -1 $-1 $116 1.823280352381778 $115 3.0388005873029629 $112 $143 forward @7 unknown T 1.0350096160874314 -0.60709127289379028 1.1567736937206092 1.1785472291493932 -0.22684885245187145 1.9572298016874932 #
loop $-1 -1 -1 $-1 $144 $82 $145 T 1.0350096160874314 -0.60709127289379028 1.1567736937206092 1.2009970449801131 0.17891095185039474 1.9572298016874932 hole $146 F #
vertex $-1 -1 -1 $-1 $83 $147 #
vertex $-1 -1 -1 $-1 $83 $148 #
intcurve-curve $-1 -1 -1 $-1 forward { surfintcur full nubs 3 periodic 17 
	0 3 0.15197527248947451 2 0.30395054497894902 2 0.45585533121977084 2 0.60776011746059266 2 
	0.75966490370141426 2 0.91156968994223597 2 1.0635449624317106 2 1.2155202349211853 2 1.3674955074106598 2 
	1.5194707799001343 2 1.6713755661409562 2 1.823280352381778 2 1.9751851386225994 2 2.1270899248634207 2 
	2.2790651973528955 2 2.4310404698423702 3 
	1.0352376700708734 -0.60686321891034822 1.557001747704051 
	1.0352376700708734 -0.60686321891034822 1.607660171867209 
	1.0408604874881464 -0.5975551932093659 1.6614025370894603 
	1.0616088572408655 -0.55986549715133216 1.7598230196871305 
	1.0765088530937663 -0.53145883026338869 1.8045389806534073 
	1.1066798774057838 -0.46537965580326868 1.8751335649952852 
	1.1240052170891541 -0.42317309924374785 1.9058591421506859 
	1.1551105791217591 -0.32891146213342454 1.9468035160252706 
	1.168737489351428 -0.27679699599838165 1.9570017477040511 
	1.1879008609804744 -0.17735681687224547 1.9570017477040511 
	1.194616834538083 -0.12391052642920818 1.9468035160252706 
	1.200768990996671 -0.024840093156678608 1.9058591421506863 
	1.2003693897455849 0.020782282171621994 1.8751335649952852 
	1.196915698472635 0.09334136169967612 1.8045389806534078 
	1.1936393800424363 0.12525083267058004 1.7598230196871305 
	1.1883833218829873 0.1679519086402442 1.6614025370894603 
	1.1866222743610821 0.17868289786695268 1.6076601718672094 
	1.1866222743610821 0.17868289786695266 1.506343323540893 
	1.1883833218829873 0.16795190864024426 1.4526009583186419 
	1.1936393800424363 0.12525083267058035 1.3541804757209717 
	1.196915698472635 0.093341361699676384 1.3094645147546946 
	1.2003693897455854 0.020782282171622243 1.2388699304128168 
	1.200768990996671 -0.024840093156678372 1.2081443532574165 
	1.194616834538083 -0.12391052642920802 1.1671999793828323 
	1.1879008609804744 -0.17735681687224539 1.1570017477040513 
	1.168737489351428 -0.27679699599838148 1.1570017477040513 
	1.1551105791217591 -0.32891146213342459 1.1671999793828318 
	1.1240052170891541 -0.42317309924374774 1.2081443532574161 
	1.106679877405784 -0.46537965580326851 1.2388699304128168 
	1.0765088530937663 -0.53145883026338869 1.3094645147546942 
	1.0616088572408662 -0.55986549715133194 1.3541804757209712 
	1.0408604874881469 -0.59755519320936579 1.4526009583186414 
	1.0352376700708734 -0.60686321891034822 1.5063433235408927 
	1.0352376700708734 -0.60686321891034822 1.557001747704051 
	0.00022805398344205645 
	cone 1.1783191751659303 -0.22707690643530948 1.5570017477040512 -0.98193264597162611 0.18923075536276163 -3.6522936038107979e-015 0.075692302145104626 0.39277305838865034 -8.8817841970012516e-017 1 I I 0 1 0.39999999999999997 forward I I I I 
	cone 0 0 0 0 0 1 1.2 0 0 1 I I 0 1 1.2 forward I I I I 
	nullbs 
	nullbs 
	-1 
	-1 
	I I 
	0 
	0 
	0 
	
	-1 
	none F } I I #
point $-1 -1 -1 $-1 0.51482593128885679 0.30814649190369847 1.5570017477040472 #
loop $-1 -1 -1 $-1 $-1 $120 $58 T -0.75 -0.75000000000001188 3.9999999999999947 0.75 0.74999999999998812 3.9999999999999947 periphery $88 T #
coedge $-1 -1 -1 $-1 $120 $120 $91 $121 reversed $119 $-1 #
edge $-1 -1 -1 $-1 $149 0 $149 6.2831853071795862 $120 $150 forward @7 unknown T -0.75 -0.75000000000001188 3.9999999999999947 0.75 0.74999999999998812 3.9999999999999947 #
vertex $-1 -1 -1 $-1 $93 $151 #
ellipse-curve $-1 -1 -1 $-1 0 -1.2323475573339238e-014 8.8817841970012523e-016 -0 1.2246467991473532e-016 1 0.75 0 0 1 I I #
vertex $-1 -1 -1 $-1 $94 $152 #
ellipse-curve $-1 -1 -1 $-1 0 -1.2323475573339242e-014 8.8817841970012523e-016 -0 1.2246467991473532e-016 1 0.59999999999999998 0 0 1 I I #
point $-1 -1 -1 $-1 0.59999999999999998 1.8873791418627661e-015 3.9999999999999996 #
vertex $-1 -1 -1 $-1 $98 $153 #
ellipse-curve $-1 -1 -1 $-1 0.7419837407322345 -0.12445406507682333 1.5788667770840521 0.97008315392855704 -0.24277288659161225 6.123233995736766e-017 0.023575469785609558 0.094203955005252471 -0.38803326157142293 1 I I #
point $-1 -1 -1 $-1 1.1905746837788995 -0.13661442829710474 1.1908335155126291 #
rgb_color-st-attrib $-1 -1 $-1 $-1 $102 2 1 2 1 1 1 1 1 1 1 1 1 1 1 0 1 1 1 1 1 1 #
face $154 -1 -1 $-1 $155 $156 $12 $-1 $157 reversed single T 0.8313708498984721 0.83137084989847621 2.9999999999999947 1.4313708498984745 1.4313708498984787 4 F #
loop $-1 -1 -1 $-1 $158 $159 $102 T -0.59999999999999998 -0.6000000000000123 0.39999999999999913 0.59999999999999998 0.59999999999998765 0.40000000000000335 hole $133 T #
plane-surface $-1 -1 -1 $-1 0 -1.2212453270876722e-014 0.40000000000000141 0 3.5527136788005009e-015 1 1 0 0 forward_v I I I I #
loop $-1 -1 -1 $-1 $-1 $160 $73 T -0.75 -0.75000000000001366 -1.2924356595460699e-015 0.75 0.74999999999998634 4.0366348586546815e-015 u_sep $104 T #
coedge $-1 -1 -1 $-1 $135 $135 $161 $162 reversed $103 $-1 #
loop $-1 -1 -1 $-1 $-1 $163 $49 T -0.59999999999999998 -0.6000000000000123 0.39999999999999913 0.59999999999999998 0.59999999999998765 0.40000000000000335 u_sep $75 T #
vertex $-1 -1 -1 $-1 $107 $164 #
ellipse-curve $-1 -1 -1 $-1 0 -1.372099599554306e-015 3.5999999999999988 -0 3.4302489988857658e-015 1 0.59999999999999998 0 0 1 I I #
loop $-1 -1 -1 $-1 $165 $108 $166 T -0.75 -0.75 3.9999999999999987 0.75 0.75 4 hole $167 F #
vertex $-1 -1 -1 $-1 $109 $168 #
ellipse-curve $-1 -1 -1 $-1 0 4.5700097025124441e-030 4 -0 -0 -1 0.75 0 0 1 I I #
point $-1 -1 -1 $-1 0.75 -1.3322676295501878e-015 3.5999999999999988 #
intcurve-curve $-1 -1 -1 $-1 forward { ref 1 } I I #
loop $-1 -1 -1 $-1 $169 $170 $145 T -1.2 -1.2 3 1.2 1.2 3 u_sep $146 F #
face $171 -1 -1 $-1 $172 $114 $12 $-1 $146 forward single T -1.2 -1.2 0 1.2009970449801131 1.2 3 F #
cone-surface $-1 -1 -1 $-1 0 0 0 0 0 1 1.2 0 0 1 I I 0 1 1.2 forward I I I I #
point $-1 -1 -1 $-1 1.178319175165929 -0.22707690643530917 1.9570017477040511 #
point $-1 -1 -1 $-1 1.1783191751659317 -0.22707690643530981 1.1570017477040513 #
vertex $-1 -1 -1 $-1 $121 $173 #
ellipse-curve $-1 -1 -1 $-1 0 -1.1879386363489175e-014 3.9999999999999947 0 -1.2246467991473532e-016 -1 0.75 0 0 1 I I #
point $-1 -1 -1 $-1 0.75 -1.2323475573339238e-014 8.8817841970012523e-016 #
point $-1 -1 -1 $-1 0.59999999999999998 -1.2323475573339238e-014 2.2602780192544323e-015 #
point $-1 -1 -1 $-1 0.76555921051784404 -0.030250110071570857 1.1908335155126291 #
rgb_color-st-attrib $-1 -1 $-1 $-1 $131 2 1 2 1 1 1 1 1 1 1 1 1 1 1 0 1 1 1 1 1 1 #
face $174 -1 -1 $-1 $166 $175 $12 $-1 $176 reversed single T 1.5 -1.3228756555322954 3 1.5 1.3228756555322954 4.0000000000000027 F #
loop $-1 -1 -1 $-1 $177 $178 $131 T 0.8313708498984721 0.83137084989847621 2.9999999999999947 1.4313708498984721 1.4313708498984763 2.9999999999999947 u_sep $157 T #
cone-surface $-1 -1 -1 $-1 1.1313708498984745 1.1313708498984787 3.9999999999999991 -2.4255523282704869e-015 -2.4255523282704952e-015 -1 0.21213203435596464 -0.21213203435596389 -1.2733707283970868e-032 1 I I 0 1 0.29999999999999999 forward I I I I #
loop $-1 -1 -1 $-1 $-1 $161 $102 T -0.75 -0.75000000000001221 0.39999999999999875 0.75 0.74999999999998779 0.40000000000000407 periphery $133 T #
coedge $-1 -1 -1 $-1 $159 $159 $163 $179 forward $132 $-1 #
coedge $-1 -1 -1 $-1 $160 $160 $180 $181 reversed $134 $-1 #
coedge $-1 -1 -1 $-1 $161 $161 $135 $162 forward $158 $-1 #
edge $-1 -1 -1 $-1 $182 0 $182 6.2831853071795862 $135 $183 forward @7 unknown T -0.75 -0.75000000000001221 0.39999999999999875 0.75 0.74999999999998779 0.40000000000000407 #
coedge $-1 -1 -1 $-1 $163 $163 $159 $179 reversed $136 $-1 #
point $-1 -1 -1 $-1 -0.59999999999999998 -1.4455784075031472e-015 3.5999999999999988 #
loop $-1 -1 -1 $-1 $184 $185 $166 T 0.83137084989847454 0.83137084989847865 3.9999999999999947 1.4313708498984745 1.4313708498984787 3.9999999999999991 hole $167 F #
face $186 -1 -1 $-1 $187 $139 $12 $-1 $167 forward single T -1.5000000000000004 -2 3.9999999999999942 1.5 2 4.0000000000000053 F #
plane-surface $-1 -1 -1 $-1 0 0 4 0 0 1 1 0 0 forward_v I I I I #
point $-1 -1 -1 $-1 0.75 0 3.9999999999999987 #
loop $-1 -1 -1 $-1 $-1 $188 $145 T -1.2 -1.2 0 1.2 1.2 0 u_sep $146 F #
coedge $-1 -1 -1 $-1 $170 $170 $189 $190 forward $144 $-1 #
rgb_color-st-attrib $-1 -1 $-1 $-1 $145 2 1 2 1 1 1 1 1 1 1 1 1 1 1 0 1 1 1 1 1 1 #
face $191 -1 -1 $-1 $-1 $192 $12 $-1 $193 reversed single T -1.2 -1.2 0 1.2 1.2 1.3720995995543058e-015 T -1.2000000000000002 1.2 -1.2000000000000002 1.2 #
point $-1 -1 -1 $-1 0.75 -1.1879386363489175e-014 3.9999999999999947 #
rgb_color-st-attrib $-1 -1 $-1 $-1 $155 2 1 2 1 1 1 1 1 1 1 1 1 1 1 0 1 1 1 1 1 1 #
loop $-1 -1 -1 $-1 $-1 $194 $155 T 1.5 -1.3228756555322954 3 1.5 1.3228756555322954 4.0000000000000027 periphery $176 T #
plane-surface $-1 -1 -1 $-1 1.5 0.11592098815424778 3.9999999999999982 -1 -0 0 0 1 -3.4302489988857658e-015 forward_v I I I I #
loop $-1 -1 -1 $-1 $-1 $195 $131 T 0.83137084989847454 0.83137084989847865 3.9999999999999982 1.4313708498984745 1.4313708498984787 4 u_sep $157 T #
coedge $-1 -1 -1 $-1 $178 $178 $196 $197 reversed $156 $-1 #
edge $-1 -1 -1 $-1 $198 -3.1415926535897931 $198 3.1415926535897931 $159 $199 forward @7 unknown T -0.59999999999999998 -0.6000000000000123 0.39999999999999913 0.59999999999999998 0.59999999999998765 0.40000000000000335 #
coedge $-1 -1 -1 $-1 $180 $180 $160 $181 forward $192 $-1 #
edge $-1 -1 -1 $-1 $200 6.3108872417680944e-030 $200 6.2831853071795862 $180 $201 forward @7 unknown T -0.75 -0.75000000000001366 4.8514945671092226e-029 0.75 0.74999999999998634 1.3720995995543058e-015 #
vertex $-1 -1 -1 $-1 $162 $202 #
ellipse-curve $-1 -1 -1 $-1 0 -1.2212453270876722e-014 0.40000000000000141 -0 -3.5527136788005009e-015 -1 0.75 0 0 1 I I #
loop $-1 -1 -1 $-1 $203 $204 $166 T -0.30000000000000027 -1.9000000000000004 3.9999999999999982 0.29999999999999971 -1.3000000000000003 4.0000000000000053 hole $167 F #
coedge $-1 -1 -1 $-1 $185 $185 $195 $205 forward $165 $-1 #
rgb_color-st-attrib $-1 -1 $-1 $-1 $166 2 1 2 1 1 1 1 1 1 1 1 1 1 1 0 1 1 1 1 1 1 #
face $206 -1 -1 $-1 $207 $208 $12 $-1 $209 forward single T -1.5000000000000004 1.3228756555322945 3 1.5 2 4 F #
coedge $-1 -1 -1 $-1 $188 $188 $210 $211 forward $169 $-1 #
coedge $-1 -1 -1 $-1 $189 $189 $170 $190 reversed $212 $-1 #
edge $-1 -1 -1 $-1 $213 0 $213 6.2831853071795862 $170 $214 forward @7 unknown T -1.2 -1.2 3 1.2 1.2 3 #
rgb_color-st-attrib $-1 -1 $-1 $-1 $172 2 1 2 1 1 1 1 1 1 1 1 1 1 1 0 1 1 1 1 1 1 #
loop $-1 -1 -1 $-1 $215 $180 $172 T -0.75 -0.75000000000001366 4.8514945671092226e-029 0.75 0.74999999999998634 1.3720995995543058e-015 hole $193 T #
plane-surface $-1 -1 -1 $-1 0 0 0 0 0 1 1 0 0 forward_v I I I I #
coedge $-1 -1 -1 $-1 $216 $217 $218 $219 reversed $175 $-1 #
coedge $-1 -1 -1 $-1 $195 $195 $185 $205 reversed $177 $-1 #
coedge $-1 -1 -1 $-1 $196 $196 $178 $197 forward $220 $-1 #
edge $-1 -1 -1 $-1 $221 -3.1415926535897922 $221 3.141592653589794 $196 $222 forward @7 unknown T 0.8313708498984721 0.83137084989847621 2.9999999999999947 1.4313708498984721 1.4313708498984763 2.9999999999999947 #
vertex $-1 -1 -1 $-1 $179 $223 #
ellipse-curve $-1 -1 -1 $-1 0 -1.2348896395988749e-014 0.40000000000000124 0 3.5527136788005009e-015 1 0.59999999999999998 0 0 1 I I #
vertex $-1 -1 -1 $-1 $181 $224 #
ellipse-curve $-1 -1 -1 $-1 0 -1.365574320288943e-014 4.8514945671092226e-029 0 0 1 0.75 0 0 1 I I #
point $-1 -1 -1 $-1 0.75 -1.2212453270876722e-014 0.40000000000000141 #
loop $-1 -1 -1 $-1 $225 $226 $166 T -1.4313708498984705 -1.4313708498984818 3.9999999999999982 -0.83137084989847077 -0.83137084989848187 4.0000000000000053 hole $167 F #
coedge $-1 -1 -1 $-1 $204 $204 $227 $228 forward $184 $-1 #
edge $-1 -1 -1 $-1 $229 -3.8549410577262371e-016 $229 6.2831853071795862 $185 $230 forward @7 unknown T 0.83137084989847454 0.83137084989847865 3.9999999999999947 1.4313708498984745 1.4313708498984787 3.9999999999999991 #
rgb_color-st-attrib $-1 -1 $-1 $-1 $187 2 1 2 1 1 1 1 1 1 1 1 1 1 1 0 1 1 1 1 1 1 #
face $231 -1 -1 $-1 $232 $233 $12 $-1 $209 forward single T -1.5000000000000004 -2 3 1.5 -1.3228756555322945 4.0000000000000036 F #
loop $-1 -1 -1 $-1 $-1 $234 $187 T -1.5000000000000004 1.3228756555322945 3 1.5 2 4 periphery $209 F #
cone-surface $-1 -1 -1 $-1 0 0 3 0 0 1 2 0 0 1 I I 0 1 2 forward I I I I #
coedge $-1 -1 -1 $-1 $210 $210 $188 $211 reversed $215 $-1 #
edge $-1 -1 -1 $-1 $235 0 $235 6.2831853071795862 $210 $236 forward @7 unknown T -1.2 -1.2 0 1.2 1.2 0 #
loop $-1 -1 -1 $-1 $-1 $189 $237 T -1.2 -1.2 3 1.2 1.2 3 hole $238 T #
vertex $-1 -1 -1 $-1 $190 $239 #
ellipse-curve $-1 -1 -1 $-1 0 0 3 -0 -0 -1 1.2 0 0 1 I I #
loop $-1 -1 -1 $-1 $-1 $210 $172 T -1.2 -1.2 0 1.2 1.2 0 periphery $193 T #
coedge $-1 -1 -1 $-1 $240 $194 $241 $242 reversed $175 $-1 #
coedge $-1 -1 -1 $-1 $194 $240 $243 $244 reversed $175 $-1 #
coedge $-1 -1 -1 $-1 $245 $246 $194 $219 forward $233 $-1 #
edge $-1 -1 -1 $-1 $247 -0.50000000000000178 $248 0.49999999999999822 $218 $249 forward @7 unknown T 1.5 -1.3228756555322954 3 1.5 -1.3228756555322954 4 #
loop $-1 -1 -1 $-1 $250 $196 $237 T 0.8313708498984721 0.83137084989847621 2.9999999999999947 1.4313708498984721 1.4313708498984763 2.9999999999999947 hole $238 T #
vertex $-1 -1 -1 $-1 $197 $251 #
ellipse-curve $-1 -1 -1 $-1 1.131370849898472 1.1313708498984762 2.9999999999999947 0 0 1 0.21213203435596464 -0.21213203435596389 -1.2733707283970868e-032 1 I I #
point $-1 -1 -1 $-1 -0.59999999999999998 -1.242237520393759e-014 0.40000000000000124 #
point $-1 -1 -1 $-1 0.75 -1.3655743202889425e-014 1.3720995995543058e-015 #
loop $-1 -1 -1 $-1 $252 $253 $166 T 0.83137084989846766 -1.4313708498984847 3.9999999999999982 1.4313708498984674 -0.83137084989848464 4.0000000000000053 hole $167 F #
coedge $-1 -1 -1 $-1 $226 $226 $254 $255 forward $203 $-1 #
coedge $-1 -1 -1 $-1 $227 $227 $204 $228 reversed $256 $-1 #
edge $-1 -1 -1 $-1 $257 0 $257 6.2831853071795862 $204 $258 forward @7 unknown T -0.30000000000000027 -1.9000000000000004 3.9999999999999982 0.29999999999999971 -1.3000000000000003 4.0000000000000053 #
vertex $-1 -1 -1 $-1 $205 $259 #
ellipse-curve $-1 -1 -1 $-1 1.1313708498984745 1.1313708498984787 3.9999999999999947 -0 -0 -1 0.21213203435596464 -0.21213203435596389 -1.2733707283970868e-032 1 I I #
rgb_color-st-attrib $-1 -1 $-1 $-1 $207 2 1 2 1 1 1 1 1 1 1 1 1 1 1 0 1 1 1 1 1 1 #
face $260 -1 -1 $-1 $261 $262 $12 $-1 $263 reversed single T -0.30000000000000016 1.2999999999999972 2.9999999999999947 0.29999999999999982 1.9000000000000006 4 F #
loop $-1 -1 -1 $-1 $-1 $218 $207 T -1.5000000000000004 -2 3 1.5 -1.3228756555322945 4.0000000000000036 periphery $209 F #
coedge $-1 -1 -1 $-1 $264 $265 $240 $266 forward $208 $-1 #
vertex $-1 -1 -1 $-1 $211 $267 #
ellipse-curve $-1 -1 -1 $-1 0 0 0 0 0 1 1.2 0 0 1 I I #
face $268 -1 -1 $-1 $145 $220 $12 $-1 $238 reversed single T -1.5000000000000004 -2 2.9999999999999947 1.5 2 3.0000000000000049 T -1.5000000000000004 1.5 -2 2 #
plane-surface $-1 -1 -1 $-1 0 0 3 0 0 1 1 0 0 forward_v I I I I #
point $-1 -1 -1 $-1 1.2 0 3 #
coedge $-1 -1 -1 $-1 $217 $216 $234 $266 reversed $175 $-1 #
coedge $-1 -1 -1 $-1 $269 $270 $216 $242 forward $250 $-1 #
edge $-1 -1 -1 $-1 $271 -1.2649151614551715 $247 1.3808361496094192 $241 $272 forward @7 unknown T 1.5 -1.3228756555322954 3 1.5 1.3228756555322954 3 #
coedge $-1 -1 -1 $-1 $273 $274 $217 $244 forward $252 $-1 #
edge $-1 -1 -1 $-1 $248 -1.3808361496094195 $275 1.2649151614551712 $243 $276 forward @7 unknown T 1.5 -1.3228756555322954 3.9999999999999982 1.5 1.3228756555322954 4 #
coedge $-1 -1 -1 $-1 $277 $218 $274 $278 forward $233 $-1 #
coedge $-1 -1 -1 $-1 $218 $277 $269 $279 forward $233 $-1 #
vertex $-1 -1 -1 $-1 $219 $280 #
vertex $-1 -1 -1 $-1 $278 $281 #
straight-curve $-1 -1 -1 $-1 1.5 -1.3228756555322954 3.5000000000000018 0 0 1 I I #
loop $-1 -1 -1 $-1 $282 $241 $237 T -1.5000000000000004 -2 3 1.5 2 3 periphery $238 T #
point $-1 -1 -1 $-1 0.91923881554250741 1.3435028842544401 2.9999999999999947 #
loop $-1 -1 -1 $-1 $283 $243 $166 T -1.5000000000000004 -2 3.9999999999999942 1.5 2 4.0000000000000036 periphery $167 F #
coedge $-1 -1 -1 $-1 $253 $253 $284 $285 forward $225 $-1 #
coedge $-1 -1 -1 $-1 $254 $254 $226 $255 reversed $286 $-1 #
edge $-1 -1 -1 $-1 $287 9.2518585385429699e-016 $287 6.2831853071795871 $226 $288 forward @7 unknown T -1.4313708498984705 -1.4313708498984818 3.9999999999999982 -0.83137084989847077 -0.83137084989848187 4.0000000000000053 #
loop $-1 -1 -1 $-1 $-1 $227 $289 T -0.30000000000000027 -1.9000000000000004 3.9999999999999973 0.29999999999999971 -1.3000000000000003 3.9999999999999991 u_sep $290 T #
vertex $-1 -1 -1 $-1 $228 $291 #
ellipse-curve $-1 -1 -1 $-1 -2.7755575615628914e-016 -1.6000000000000003 4.0000000000000053 -0 -0 -1 0.29999999999999999 0 0 1 I I #
point $-1 -1 -1 $-1 1.3435028842544392 0.91923881554251485 3.9999999999999991 #
rgb_color-st-attrib $-1 -1 $-1 $-1 $232 2 1 2 1 1 1 1 1 1 1 1 1 1 1 0 1 1 1 1 1 1 #
face $292 -1 -1 $-1 $293 $294 $12 $-1 $295 reversed single T -1.431370849898477 0.83137084989847332 2.9999999999999947 -0.83137084989847465 1.4313708498984758 4 F #
loop $-1 -1 -1 $-1 $296 $297 $232 T -0.30000000000000016 1.2999999999999972 2.9999999999999947 0.29999999999999982 1.8999999999999972 2.9999999999999947 u_sep $263 T #
cone-surface $-1 -1 -1 $-1 -1.6653345369377348e-016 1.6000000000000005 3.9999999999999991 0 -3.4302489988857658e-015 -1 0.29999999999999999 0 0 1 I I 0 1 0.29999999999999999 forward I I I I #
coedge $-1 -1 -1 $-1 $298 $234 $270 $299 forward $208 $-1 #
coedge $-1 -1 -1 $-1 $234 $298 $273 $300 forward $208 $-1 #
edge $-1 -1 -1 $-1 $275 -0.49999999999999822 $271 0.50000000000000178 $234 $301 forward @7 unknown T 1.5 1.3228756555322954 3 1.5 1.3228756555322954 4 #
point $-1 -1 -1 $-1 1.2 0 0 #
rgb_color-st-attrib $-1 -1 $-1 $-1 $237 2 1 2 1 1 1 1 1 1 1 1 1 1 1 0 1 1 1 1 1 1 #
coedge $-1 -1 -1 $-1 $302 $241 $246 $279 reversed $250 $-1 #
coedge $-1 -1 -1 $-1 $241 $302 $264 $299 reversed $250 $-1 #
vertex $-1 -1 -1 $-1 $299 $303 #
straight-curve $-1 -1 -1 $-1 1.5 0.057960494077123892 3 0 -1 0 I I #
coedge $-1 -1 -1 $-1 $304 $243 $265 $300 reversed $252 $-1 #
coedge $-1 -1 -1 $-1 $243 $304 $245 $278 reversed $252 $-1 #
vertex $-1 -1 -1 $-1 $244 $305 #
straight-curve $-1 -1 -1 $-1 1.5 0.057960494077124114 3.9999999999999982 -0 1 0 I I #
coedge $-1 -1 -1 $-1 $246 $245 $306 $307 forward $233 $-1 #
edge $-1 -1 -1 $-1 $248 0.72273424781341555 $308 2.418858405776378 $245 $309 forward @7 unknown T -1.5000000000000004 -2 4 1.5 -1.3228756555322945 4.0000000000000036 #
edge $-1 -1 -1 $-1 $310 -2.418858405776378 $247 -0.72273424781341555 $269 $311 forward @7 unknown T -1.5000000000000004 -2 3 1.5 -1.3228756555322945 3 #
point $-1 -1 -1 $-1 1.5 -1.3228756555322954 3 #
point $-1 -1 -1 $-1 1.5 -1.3228756555322954 4 #
loop $-1 -1 -1 $-1 $312 $313 $237 T -0.30000000000000016 1.2999999999999972 2.9999999999999947 0.29999999999999982 1.8999999999999972 2.9999999999999947 hole $238 T #
loop $-1 -1 -1 $-1 $314 $315 $166 T -1.431370849898477 0.83137084989847576 3.9999999999999947 -0.83137084989847709 1.4313708498984758 3.9999999999999991 hole $167 F #
coedge $-1 -1 -1 $-1 $284 $284 $253 $285 reversed $316 $-1 #
edge $-1 -1 -1 $-1 $317 1.5419764230904951e-016 $317 6.2831853071795862 $253 $318 forward @7 unknown T 0.83137084989846766 -1.4313708498984847 3.9999999999999982 1.4313708498984674 -0.83137084989848464 4.0000000000000053 #
loop $-1 -1 -1 $-1 $-1 $254 $319 T -1.4313708498984705 -1.4313708498984818 3.9999999999999973 -0.83137084989847077 -0.83137084989848187 3.9999999999999991 u_sep $320 T #
vertex $-1 -1 -1 $-1 $255 $321 #
ellipse-curve $-1 -1 -1 $-1 -1.1313708498984707 -1.1313708498984818 4.0000000000000053 -0 -0 -1 0.21213203435596534 -0.21213203435596317 -2.3207328454690269e-031 1 I I #
face $322 -1 -1 $-1 $319 $323 $12 $-1 $290 reversed single T -0.30000000000000071 -1.9000000000000039 2.9999999999999973 0.29999999999999982 -1.3000000000000003 3.9999999999999991 F #
cone-surface $-1 -1 -1 $-1 -2.7755575615628914e-016 -1.6000000000000003 3.9999999999999982 0 -3.4302489988857666e-015 -1.0000000000000002 0.29999999999999999 0 0 1 I I 0 1 0.29999999999999999 forward I I I I #
point $-1 -1 -1 $-1 0.29999999999999971 -1.6000000000000003 3.9999999999999982 #
rgb_color-st-attrib $-1 -1 $-1 $-1 $261 2 1 2 1 1 1 1 1 1 1 1 1 1 1 0 1 1 1 1 1 1 #
face $324 -1 -1 $-1 $289 $325 $12 $-1 $326 reversed single T -1.5000000000000004 -1.3228756555322947 3 -1.5000000000000004 1.3228756555322947 4.0000000000000036 F #
loop $-1 -1 -1 $-1 $327 $328 $261 T -1.4313708498984745 0.83137084989847332 2.9999999999999947 -0.83137084989847465 1.4313708498984732 2.9999999999999947 u_sep $295 T #
cone-surface $-1 -1 -1 $-1 -1.1313708498984771 1.1313708498984758 3.9999999999999991 2.4255523282704928e-015 -2.4255523282704904e-015 -1 0.21213203435596414 0.21213203435596439 -6.8504009288420835e-032 1 I I 0 1 0.29999999999999999 forward I I I I #
loop $-1 -1 -1 $-1 $-1 $329 $232 T -0.30000000000000016 1.3000000000000005 3.9999999999999982 0.29999999999999982 1.9000000000000006 4 u_sep $263 T #
coedge $-1 -1 -1 $-1 $297 $297 $313 $330 reversed $262 $-1 #
coedge $-1 -1 -1 $-1 $265 $264 $331 $332 forward $208 $-1 #
edge $-1 -1 -1 $-1 $271 0.72273424781341555 $333 2.418858405776378 $270 $334 forward @7 unknown T -1.5000000000000004 1.3228756555322945 3 1.5 2 3 #
edge $-1 -1 -1 $-1 $335 -2.418858405776378 $275 -0.72273424781341555 $265 $336 forward @7 unknown T -1.5000000000000004 1.3228756555322945 3.9999999999999942 1.5 2 4 #
straight-curve $-1 -1 -1 $-1 1.5 1.3228756555322954 3.5000000000000018 -0 -0 -1 I I #
coedge $-1 -1 -1 $-1 $270 $269 $337 $338 forward $250 $-1 #
point $-1 -1 -1 $-1 1.5 1.3228756555322954 3 #
coedge $-1 -1 -1 $-1 $274 $273 $339 $340 forward $252 $-1 #
point $-1 -1 -1 $-1 1.5 1.3228756555322954 4 #
coedge $-1 -1 -1 $-1 $339 $337 $277 $307 reversed $325 $-1 #
edge $-1 -1 -1 $-1 $308 -0.50000000000000355 $310 0.5 $277 $341 forward @7 unknown T -1.5000000000000004 -1.3228756555322947 3 -1.5000000000000004 -1.3228756555322947 4.0000000000000036 #
vertex $-1 -1 -1 $-1 $307 $342 #
ellipse-curve $-1 -1 -1 $-1 0 0 4 -0 -0 -1 2 0 0 1 I I #
vertex $-1 -1 -1 $-1 $279 $343 #
ellipse-curve $-1 -1 -1 $-1 0 0 3 0 0 1 2 0 0 1 I I #
loop $-1 -1 -1 $-1 $344 $345 $237 T -1.4313708498984745 0.83137084989847332 2.9999999999999947 -0.83137084989847465 1.4313708498984732 2.9999999999999947 hole $238 T #
coedge $-1 -1 -1 $-1 $313 $313 $297 $330 forward $282 $-1 #
loop $-1 -1 -1 $-1 $-1 $346 $166 T -0.30000000000000016 1.3000000000000005 3.9999999999999947 0.29999999999999982 1.9000000000000006 3.9999999999999991 hole $167 F #
coedge $-1 -1 -1 $-1 $315 $315 $347 $348 forward $283 $-1 #
loop $-1 -1 -1 $-1 $-1 $284 $349 T 0.83137084989846766 -1.4313708498984847 3.9999999999999973 1.4313708498984674 -0.83137084989848464 3.9999999999999991 u_sep $350 T #
vertex $-1 -1 -1 $-1 $285 $351 #
ellipse-curve $-1 -1 -1 $-1 1.1313708498984676 -1.1313708498984847 4.0000000000000053 -0 -0 -1 0.21213203435596584 0.21213203435596267 3.1067996964785832e-031 1 I I #
face $352 -1 -1 $-1 $349 $353 $12 $-1 $320 reversed single T -1.4313708498984736 -1.4313708498984843 2.9999999999999973 -0.83137084989847077 -0.83137084989848187 3.9999999999999991 F #
cone-surface $-1 -1 -1 $-1 -1.1313708498984707 -1.1313708498984818 3.9999999999999982 -2.4255523282704778e-015 -2.4255523282705015e-015 -1.0000000000000002 0.21213203435596534 -0.21213203435596317 -2.3207328454690269e-031 1 I I 0 1 0.29999999999999999 forward I I I I #
point $-1 -1 -1 $-1 -0.91923881554250542 -1.3435028842544452 3.9999999999999982 #
rgb_color-st-attrib $-1 -1 $-1 $-1 $289 2 1 2 1 1 1 1 1 1 1 1 1 1 1 0 1 1 1 1 1 1 #
loop $-1 -1 -1 $-1 $256 $354 $289 T -0.30000000000000071 -1.9000000000000039 2.9999999999999973 0.29999999999999982 -1.3000000000000034 2.9999999999999991 u_sep $290 T #
rgb_color-st-attrib $-1 -1 $-1 $-1 $293 2 1 2 1 1 1 1 1 1 1 1 1 1 1 0 1 1 1 1 1 1 #
loop $-1 -1 -1 $-1 $-1 $331 $293 T -1.5000000000000004 -1.3228756555322947 3 -1.5000000000000004 1.3228756555322947 4.0000000000000036 periphery $326 T #
plane-surface $-1 -1 -1 $-1 -1.5000000000000004 0.25127670272822344 3.9999999999999978 1 0 0 0 -1 3.4302489988857658e-015 forward_v I I I I #
loop $-1 -1 -1 $-1 $-1 $347 $261 T -1.431370849898477 0.83137084989847576 3.9999999999999982 -0.83137084989847709 1.4313708498984758 4 u_sep $295 T #
coedge $-1 -1 -1 $-1 $328 $328 $345 $355 reversed $294 $-1 #
coedge $-1 -1 -1 $-1 $329 $329 $346 $356 reversed $296 $-1 #
edge $-1 -1 -1 $-1 $357 -3.1415926535897931 $357 3.1415926535897931 $313 $358 forward @7 unknown T -0.30000000000000016 1.2999999999999972 2.9999999999999947 0.29999999999999982 1.8999999999999972 2.9999999999999947 #
coedge $-1 -1 -1 $-1 $337 $339 $298 $332 reversed $325 $-1 #
edge $-1 -1 -1 $-1 $333 -0.5 $335 0.49999999999999423 $298 $359 forward @7 unknown T -1.5000000000000004 1.3228756555322947 3 -1.5000000000000004 1.3228756555322947 3.9999999999999942 #
vertex $-1 -1 -1 $-1 $338 $360 #
ellipse-curve $-1 -1 -1 $-1 0 0 3 0 0 1 2 0 0 1 I I #
vertex $-1 -1 -1 $-1 $300 $361 #
ellipse-curve $-1 -1 -1 $-1 0 0 4 -0 -0 -1 2 0 0 1 I I #
coedge $-1 -1 -1 $-1 $306 $331 $302 $338 reversed $325 $-1 #
edge $-1 -1 -1 $-1 $310 -1.4485140068964064 $333 1.197237304168183 $302 $362 forward @7 unknown T -1.5000000000000004 -1.3228756555322947 3 -1.5000000000000004 1.3228756555322947 3 #
coedge $-1 -1 -1 $-1 $331 $306 $304 $340 reversed $325 $-1 #
edge $-1 -1 -1 $-1 $335 -1.1972373041681827 $308 1.4485140068964066 $304 $363 forward @7 unknown T -1.5000000000000004 -1.3228756555322947 3.9999999999999942 -1.5000000000000004 1.3228756555322947 4.0000000000000036 #
straight-curve $-1 -1 -1 $-1 -1.5000000000000004 -1.3228756555322947 3.5 -0 -0 -1 I I #
point $-1 -1 -1 $-1 -1.5000000000000004 -1.3228756555322947 4.0000000000000036 #
point $-1 -1 -1 $-1 -1.5000000000000004 -1.3228756555322947 3 #
loop $-1 -1 -1 $-1 $364 $365 $237 T -0.30000000000000027 -1.9000000000000037 2.9999999999999982 0.29999999999999971 -1.3000000000000036 3.0000000000000049 hole $238 T #
coedge $-1 -1 -1 $-1 $345 $345 $328 $355 forward $312 $-1 #
coedge $-1 -1 -1 $-1 $346 $346 $329 $356 forward $314 $-1 #
coedge $-1 -1 -1 $-1 $347 $347 $315 $348 reversed $327 $-1 #
edge $-1 -1 -1 $-1 $366 -4.625929269271483e-016 $366 6.2831853071795853 $315 $367 forward @7 unknown T -1.431370849898477 0.83137084989847576 3.9999999999999947 -0.83137084989847709 1.4313708498984758 3.9999999999999991 #
face $368 -1 -1 $-1 $237 $369 $12 $-1 $350 reversed single T 0.83137084989846766 -1.4313708498984876 2.9999999999999973 1.4313708498984701 -0.83137084989848464 3.9999999999999991 F #
cone-surface $-1 -1 -1 $-1 1.1313708498984676 -1.1313708498984847 3.9999999999999982 2.4255523282704731e-015 -2.4255523282705078e-015 -1.0000000000000002 0.21213203435596584 0.21213203435596267 3.1067996964785832e-031 1 I I 0 1 0.29999999999999999 forward I I I I #
point $-1 -1 -1 $-1 1.3435028842544334 -0.91923881554252207 3.9999999999999982 #
rgb_color-st-attrib $-1 -1 $-1 $-1 $319 2 1 2 1 1 1 1 1 1 1 1 1 1 1 0 1 1 1 1 1 1 #
loop $-1 -1 -1 $-1 $286 $370 $319 T -1.4313708498984736 -1.4313708498984843 2.9999999999999973 -0.8313708498984731 -0.83137084989848375 2.9999999999999991 u_sep $320 T #
coedge $-1 -1 -1 $-1 $354 $354 $365 $371 reversed $323 $-1 #
edge $-1 -1 -1 $-1 $372 -3.1415926535897922 $372 3.141592653589794 $345 $373 forward @7 unknown T -1.4313708498984745 0.83137084989847332 2.9999999999999947 -0.83137084989847465 1.4313708498984732 2.9999999999999947 #
edge $-1 -1 -1 $-1 $374 0 $374 6.2831853071795862 $346 $375 forward @7 unknown T -0.30000000000000016 1.3000000000000005 3.9999999999999947 0.29999999999999982 1.9000000000000006 3.9999999999999991 #
vertex $-1 -1 -1 $-1 $330 $376 #
ellipse-curve $-1 -1 -1 $-1 -1.6653345369377348e-016 1.5999999999999972 2.9999999999999947 0 0 1 0.29999999999999999 0 0 1 I I #
straight-curve $-1 -1 -1 $-1 -1.5000000000000004 1.3228756555322947 3.5 0 0 1 I I #
point $-1 -1 -1 $-1 -1.5000000000000004 1.3228756555322947 3 #
point $-1 -1 -1 $-1 -1.5000000000000004 1.3228756555322947 3.9999999999999942 #
straight-curve $-1 -1 -1 $-1 -1.5000000000000004 0.12563835136411172 3 0 1 0 I I #
straight-curve $-1 -1 -1 $-1 -1.5000000000000004 0.12563835136411194 3.9999999999999982 0 -1 0 I I #
loop $-1 -1 -1 $-1 $377 $378 $237 T -1.431370849898473 -1.4313708498984843 2.9999999999999982 -0.8313708498984731 -0.83137084989848431 3.0000000000000049 hole $238 T #
coedge $-1 -1 -1 $-1 $365 $365 $354 $371 forward $344 $-1 #
vertex $-1 -1 -1 $-1 $348 $379 #
ellipse-curve $-1 -1 -1 $-1 -1.1313708498984771 1.1313708498984758 3.9999999999999947 -0 -0 -1 0.21213203435596414 0.21213203435596439 -6.8504009288420835e-032 1 I I #
rgb_color-st-attrib $-1 -1 $-1 $-1 $349 2 1 2 1 1 1 1 1 1 1 1 1 1 1 0 1 1 1 1 1 1 #
loop $-1 -1 -1 $-1 $316 $380 $349 T 0.83137084989846954 -1.4313708498984876 2.9999999999999973 1.4313708498984701 -0.83137084989848709 2.9999999999999991 u_sep $350 T #
coedge $-1 -1 -1 $-1 $370 $370 $378 $381 reversed $353 $-1 #
edge $-1 -1 -1 $-1 $382 0 $382 6.2831853071795862 $365 $383 forward @7 unknown T -0.30000000000000027 -1.9000000000000037 2.9999999999999982 0.29999999999999971 -1.3000000000000036 3.0000000000000049 #
vertex $-1 -1 -1 $-1 $355 $384 #
ellipse-curve $-1 -1 -1 $-1 -1.1313708498984747 1.1313708498984734 2.9999999999999947 0 0 1 0.21213203435596414 0.21213203435596439 -6.8504009288420835e-032 1 I I #
vertex $-1 -1 -1 $-1 $356 $385 #
ellipse-curve $-1 -1 -1 $-1 -1.6653345369377348e-016 1.6000000000000005 3.9999999999999947 -0 -0 -1 0.29999999999999999 0 0 1 I I #
point $-1 -1 -1 $-1 -0.30000000000000016 1.5999999999999972 2.9999999999999947 #
loop $-1 -1 -1 $-1 $212 $386 $237 T 0.8313708498984701 -1.4313708498984872 2.9999999999999982 1.4313708498984701 -0.8313708498984872 3.0000000000000049 hole $238 T #
coedge $-1 -1 -1 $-1 $378 $378 $370 $381 forward $364 $-1 #
point $-1 -1 -1 $-1 -0.91923881554251308 1.3435028842544403 3.9999999999999991 #
coedge $-1 -1 -1 $-1 $380 $380 $386 $387 reversed $369 $-1 #
edge $-1 -1 -1 $-1 $388 -1.5419764230904951e-016 $388 6.2831853071795862 $378 $389 forward @7 unknown T -1.431370849898473 -1.4313708498984843 2.9999999999999982 -0.8313708498984731 -0.83137084989848431 3.0000000000000049 #
vertex $-1 -1 -1 $-1 $371 $390 #
ellipse-curve $-1 -1 -1 $-1 -2.7755575615628914e-016 -1.6000000000000036 3.0000000000000049 0 0 1 0.29999999999999999 0 0 1 I I #
point $-1 -1 -1 $-1 -1.3435028842544388 0.91923881554250897 2.9999999999999947 #
point $-1 -1 -1 $-1 0.29999999999999982 1.6000000000000005 3.9999999999999991 #
coedge $-1 -1 -1 $-1 $386 $386 $380 $387 forward $377 $-1 #
edge $-1 -1 -1 $-1 $391 -1.5419764230904951e-016 $391 6.2831853071795862 $386 $392 forward @7 unknown T 0.8313708498984701 -1.4313708498984872 2.9999999999999982 1.4313708498984701 -0.8313708498984872 3.0000000000000049 #
vertex $-1 -1 -1 $-1 $381 $393 #
ellipse-curve $-1 -1 -1 $-1 -1.1313708498984731 -1.1313708498984842 3.0000000000000049 0 0 1 0.21213203435596534 -0.21213203435596317 -2.3207328454690269e-031 1 I I #
point $-1 -1 -1 $-1 0.29999999999999971 -1.6000000000000036 2.9999999999999982 #
vertex $-1 -1 -1 $-1 $387 $394 #
ellipse-curve $-1 -1 -1 $-1 1.13137084989847 -1.1313708498984871 3.0000000000000049 0 0 1 0.21213203435596584 0.21213203435596267 3.1067996964785832e-031 1 I I #
point $-1 -1 -1 $-1 -0.91923881554250786 -1.3435028842544474 2.9999999999999982 #
point $-1 -1 -1 $-1 1.3435028842544359 -0.91923881554252451 2.9999999999999982 #
End-of-ACIS-data 