G04*
G04 #@! TF.GenerationSoftware,Altium Limited,Altium Designer,21.3.2 (30)*
G04*
G04 Layer_Color=8388736*
%FSTAX44Y44*%
%MOMM*%
G71*
G04*
G04 #@! TF.SameCoordinates,BAFF9CCB-06E3-4415-8BD8-540CAB7B7E79*
G04*
G04*
G04 #@! TF.FilePolarity,Negative*
G04*
G01*
G75*
G04:AMPARAMS|DCode=28|XSize=4.2032mm|YSize=3.2032mm|CornerRadius=0.4016mm|HoleSize=0mm|Usage=FLASHONLY|Rotation=180.000|XOffset=0mm|YOffset=0mm|HoleType=Round|Shape=RoundedRectangle|*
%AMROUNDEDRECTD28*
21,1,4.2032,2.4000,0,0,180.0*
21,1,3.4000,3.2032,0,0,180.0*
1,1,0.8032,-1.7000,1.2000*
1,1,0.8032,1.7000,1.2000*
1,1,0.8032,1.7000,-1.2000*
1,1,0.8032,-1.7000,-1.2000*
%
%ADD28ROUNDEDRECTD28*%
%ADD29R,1.6032X1.4032*%
%ADD30R,1.4032X1.6032*%
%ADD31R,1.6002X1.4732*%
%ADD32R,1.2032X2.6032*%
%ADD33R,3.5032X2.6032*%
%ADD34R,1.4732X1.7272*%
%ADD35R,1.7272X1.7272*%
%ADD36C,1.7272*%
%ADD37R,1.7032X1.7032*%
%ADD38C,1.7032*%
%ADD39C,1.9032*%
%ADD40R,1.9032X1.9032*%
%ADD41R,1.7032X1.2032*%
%ADD42O,1.7032X1.2032*%
%ADD43O,1.8542X2.7432*%
%ADD44R,1.8542X2.7432*%
%ADD45O,1.8796X2.7432*%
%ADD46C,2.1082*%
%ADD47R,1.7112X1.7112*%
%ADD48C,1.7112*%
%ADD49C,3.2032*%
%ADD50C,1.4732*%
D28*
X006669Y0057912D02*
D03*
X007809D02*
D03*
D29*
X00714402Y00418742D02*
D03*
Y00437742D02*
D03*
X00501042Y00310446D02*
D03*
Y00291446D02*
D03*
X00658522Y00310446D02*
D03*
Y00291446D02*
D03*
X00344832Y00310446D02*
D03*
Y00291446D02*
D03*
X00582896Y00052686D02*
D03*
Y00071686D02*
D03*
X00430496Y00052686D02*
D03*
Y00071686D02*
D03*
X00758156Y00366376D02*
D03*
Y00385376D02*
D03*
D30*
X00061664Y00545492D02*
D03*
X00080664D02*
D03*
X00061664Y00432462D02*
D03*
X00080664D02*
D03*
X00061664Y00315622D02*
D03*
X00080664D02*
D03*
X00650894Y0016627D02*
D03*
X00631894D02*
D03*
X00830014D02*
D03*
X00849014D02*
D03*
X00781704Y00166336D02*
D03*
X00762704D02*
D03*
X00699116Y00166216D02*
D03*
X00718116D02*
D03*
X00503536D02*
D03*
X00522536D02*
D03*
X00587394Y00166336D02*
D03*
X00568394D02*
D03*
X00446474Y0016627D02*
D03*
X00465474D02*
D03*
X00342196Y00166216D02*
D03*
X00323196D02*
D03*
X00407054Y00166336D02*
D03*
X00388054D02*
D03*
X0093213Y0052959D02*
D03*
X0091313D02*
D03*
X00080664Y00657252D02*
D03*
X00061664D02*
D03*
X00245726Y00165134D02*
D03*
X00264726D02*
D03*
X00437496Y00591854D02*
D03*
X00456496D02*
D03*
X00830014Y00530252D02*
D03*
X00849014D02*
D03*
D31*
X0049911Y0024765D02*
D03*
Y0022479D02*
D03*
X006604Y0024384D02*
D03*
Y0022098D02*
D03*
X0034544Y0024638D02*
D03*
Y0022352D02*
D03*
X0075692Y0041656D02*
D03*
Y0043942D02*
D03*
D32*
X008004Y00373638D02*
D03*
X008234D02*
D03*
X008464D02*
D03*
D33*
X008234Y00431638D02*
D03*
D34*
X00626872Y00310854D02*
D03*
X00581152D02*
D03*
X00626872Y00227034D02*
D03*
X00581152D02*
D03*
X00468122Y00310854D02*
D03*
X00422402D02*
D03*
X00468122Y00227034D02*
D03*
X00422402D02*
D03*
X00314452Y00310854D02*
D03*
X00268732D02*
D03*
X00314452Y00227034D02*
D03*
X00268732D02*
D03*
D35*
X001651Y0088519D02*
D03*
D36*
Y0085979D02*
D03*
Y0083439D02*
D03*
Y0080899D02*
D03*
Y0078359D02*
D03*
X00546862Y00049165D02*
D03*
X00521462D02*
D03*
X00496189Y00049546D02*
D03*
X00470662Y00049165D02*
D03*
X00470916Y00075327D02*
D03*
X0049657Y00074819D02*
D03*
X00521716D02*
D03*
X00547116D02*
D03*
X0005Y0095D02*
D03*
X0095D02*
D03*
Y0005D02*
D03*
X0005D02*
D03*
D37*
X0086741Y0007493D02*
D03*
X0021971D02*
D03*
X0032131Y0004953D02*
D03*
D38*
X0086741D02*
D03*
X0084201Y0007493D02*
D03*
Y0004953D02*
D03*
X0081661Y0007493D02*
D03*
Y0004953D02*
D03*
X0079121Y0007493D02*
D03*
Y0004953D02*
D03*
X0076581Y0007493D02*
D03*
Y0004953D02*
D03*
X0074041Y0007493D02*
D03*
Y0004953D02*
D03*
X0071501Y0007493D02*
D03*
Y0004953D02*
D03*
X0068961Y0007493D02*
D03*
Y0004953D02*
D03*
X0066421Y0007493D02*
D03*
Y0004953D02*
D03*
X0063881Y0007493D02*
D03*
Y0004953D02*
D03*
X0021971D02*
D03*
X0019431Y0007493D02*
D03*
Y0004953D02*
D03*
X0016891Y0007493D02*
D03*
Y0004953D02*
D03*
X0014351Y0007493D02*
D03*
Y0004953D02*
D03*
X0011811Y0007493D02*
D03*
Y0004953D02*
D03*
X0032131Y0007493D02*
D03*
X0034671Y0004953D02*
D03*
Y0007493D02*
D03*
X0037211Y0004953D02*
D03*
Y0007493D02*
D03*
D39*
X0006731Y001778D02*
D03*
X0009398D02*
D03*
X0011938D02*
D03*
X0014605D02*
D03*
X0017272D02*
D03*
D40*
X0019812D02*
D03*
D41*
X0090551Y0041275D02*
D03*
D42*
Y0042545D02*
D03*
D43*
X001651Y006604D02*
D03*
X0016383Y0031623D02*
D03*
Y0043053D02*
D03*
Y0054483D02*
D03*
D44*
X001397Y006604D02*
D03*
X0013843Y0031623D02*
D03*
Y0043053D02*
D03*
X0013716Y0054483D02*
D03*
D45*
X0082169Y00618598D02*
D03*
X0084709D02*
D03*
X0087249D02*
D03*
D46*
X0096393Y0058801D02*
D03*
X0091313Y0061341D02*
D03*
X0096393Y0063881D02*
D03*
D47*
X0043307Y0063697D02*
D03*
D48*
X0045847D02*
D03*
X0048387D02*
D03*
X0050927D02*
D03*
D49*
X0036117Y0063197D02*
D03*
X0058117D02*
D03*
Y0041197D02*
D03*
X0036117D02*
D03*
D50*
X005842Y0003048D02*
D03*
X0002921Y0007747D02*
D03*
X0004445Y0009779D02*
D03*
X0042291Y001016D02*
D03*
X0040103Y00132276D02*
D03*
X0042545Y0016764D02*
D03*
X0043307Y0013081D02*
D03*
X0046228Y0014732D02*
D03*
X0053721Y0003048D02*
D03*
X0054991Y0009906D02*
D03*
X0048514Y0017907D02*
D03*
X0046863Y0013081D02*
D03*
X0060819Y00091302D02*
D03*
X0060833Y000381D02*
D03*
X0085725Y0018415D02*
D03*
X0055499Y0057023D02*
D03*
X0081026Y0047625D02*
D03*
X0082296Y0011557D02*
D03*
X0088392Y0013716D02*
D03*
X0012319Y0026162D02*
D03*
X0013208Y0023876D02*
D03*
X0038354Y0024892D02*
D03*
X0013081Y0069342D02*
D03*
X0007112Y0009652D02*
D03*
X0094488Y0068707D02*
D03*
X0068834Y0013462D02*
D03*
X0066929Y0013843D02*
D03*
X0067183Y0011938D02*
D03*
X0064897Y0012573D02*
D03*
X0080518Y0052959D02*
D03*
X0080137Y0040005D02*
D03*
M02*
