G04*
G04 #@! TF.GenerationSoftware,Altium Limited,Altium Designer,21.3.2 (30)*
G04*
G04 Layer_Physical_Order=1*
G04 Layer_Color=255*
%FSTAX44Y44*%
%MOMM*%
G71*
G04*
G04 #@! TF.SameCoordinates,BAFF9CCB-06E3-4415-8BD8-540CAB7B7E79*
G04*
G04*
G04 #@! TF.FilePolarity,Positive*
G04*
G01*
G75*
%ADD10C,0.2540*%
%ADD20C,0.7620*%
G04:AMPARAMS|DCode=21|XSize=4mm|YSize=3mm|CornerRadius=0.3mm|HoleSize=0mm|Usage=FLASHONLY|Rotation=180.000|XOffset=0mm|YOffset=0mm|HoleType=Round|Shape=RoundedRectangle|*
%AMROUNDEDRECTD21*
21,1,4.0000,2.4000,0,0,180.0*
21,1,3.4000,3.0000,0,0,180.0*
1,1,0.6000,-1.7000,1.2000*
1,1,0.6000,1.7000,1.2000*
1,1,0.6000,1.7000,-1.2000*
1,1,0.6000,-1.7000,-1.2000*
%
%ADD21ROUNDEDRECTD21*%
%ADD22R,1.4000X1.2000*%
%ADD23R,1.2000X1.4000*%
%ADD24R,1.3970X1.2700*%
%ADD25R,1.0000X2.4000*%
%ADD26R,3.3000X2.4000*%
%ADD27R,1.2700X1.5240*%
%ADD51R,1.5240X1.5240*%
%ADD52C,1.5240*%
%ADD53R,1.5000X1.5000*%
%ADD54C,1.5000*%
%ADD55C,1.7000*%
%ADD56R,1.7000X1.7000*%
%ADD57R,1.5000X1.0000*%
%ADD58O,1.5000X1.0000*%
%ADD59O,1.6510X2.5400*%
%ADD60R,1.6510X2.5400*%
%ADD61O,1.6764X2.5400*%
%ADD62C,1.9050*%
%ADD63R,1.5080X1.5080*%
%ADD64C,1.5080*%
%ADD65C,3.0000*%
%ADD66C,1.2700*%
G36*
X00995366Y00666188D02*
X00990286Y00664084D01*
X009853Y0066907D01*
X0098044Y00671083D01*
X00783286D01*
X00783286Y00671083D01*
X00778426Y0066907D01*
X00696619Y00587263D01*
X00689896D01*
Y0059112D01*
X0068814Y0059536D01*
X006839Y00597117D01*
X006499D01*
X0064566Y0059536D01*
X00643904Y0059112D01*
Y0056712D01*
X0064566Y0056288D01*
X006499Y00561124D01*
X006839D01*
X0068814Y0056288D01*
X00689896Y0056712D01*
Y00573517D01*
X00699466D01*
X00704326Y0057553D01*
X00786133Y00657337D01*
X00977593D01*
X00982457Y00652473D01*
Y00449887D01*
X00917076Y00384507D01*
X00912383Y00386451D01*
Y0040521D01*
X0091555D01*
Y0042029D01*
X0091555D01*
X00914614Y00421691D01*
X00915645Y0042418D01*
X0090551D01*
X00895375D01*
X00896406Y00421691D01*
X0089547Y0042029D01*
X0089547D01*
Y0041493D01*
X00861051Y00380511D01*
X0085394D01*
Y00388178D01*
X0083886D01*
Y00359098D01*
X0085394D01*
Y00366765D01*
X00863898D01*
X00868758Y00368778D01*
X00893943Y00393963D01*
X00898637Y00392019D01*
Y0036449D01*
Y00059997D01*
X00895043Y00056403D01*
X00874735D01*
X00871569Y0005957D01*
X00863251D01*
X0085737Y00053689D01*
X0085713Y00053561D01*
X0085205Y00053689D01*
X00846169Y0005957D01*
X0084328D01*
Y0004953D01*
X0084201D01*
Y0004826D01*
X0083197D01*
Y00045371D01*
X00837851Y0003949D01*
X00840466D01*
X0084257Y0003441D01*
X00827733Y00019573D01*
X00799669D01*
X00797565Y00024653D01*
X00812427Y00039515D01*
X00812451Y0003949D01*
X00820769D01*
X0082665Y00045371D01*
Y00053689D01*
X00820769Y0005957D01*
X00812451D01*
X0080657Y00053689D01*
Y00050288D01*
X0080633Y00050136D01*
X0080125Y00052933D01*
Y00053689D01*
X00795369Y0005957D01*
X00787051D01*
X0078117Y00053689D01*
Y00050288D01*
X0078093Y00050136D01*
X0077585Y00052933D01*
Y00053689D01*
X00769969Y0005957D01*
X00761651D01*
X0075577Y00053689D01*
Y00045371D01*
X00760187Y00040954D01*
X00758117Y00035874D01*
X00748103D01*
X00746033Y00040954D01*
X0075045Y00045371D01*
Y00053689D01*
X00744569Y0005957D01*
X00736251D01*
X0073037Y00053689D01*
Y00045371D01*
X00734787Y00040954D01*
X00732717Y00035874D01*
X00722703D01*
X00720633Y00040954D01*
X0072505Y00045371D01*
Y00053689D01*
X00719169Y0005957D01*
X00710851D01*
X0070497Y00053689D01*
Y00045371D01*
X00709387Y00040954D01*
X00707317Y00035874D01*
X00697303D01*
X00695233Y00040954D01*
X0069965Y00045371D01*
Y00053689D01*
X00693769Y0005957D01*
X00685451D01*
X0067957Y00053689D01*
Y00045371D01*
X00683987Y00040954D01*
X00681917Y00035874D01*
X00671903D01*
X00669833Y00040954D01*
X0067425Y00045371D01*
Y0004826D01*
X0066421D01*
X0065417D01*
Y00045371D01*
X00658587Y00040954D01*
X00656517Y00035874D01*
X00646503D01*
X00644433Y00040954D01*
X0064885Y00045371D01*
Y0004826D01*
X0063881D01*
X0062877D01*
Y00045371D01*
X00633187Y00040954D01*
X00631117Y00035874D01*
X0061722D01*
Y00041782D01*
X00612012Y0004699D01*
X00604648D01*
X0059944Y00041782D01*
Y00034418D01*
X00600524Y00033334D01*
X00598713Y00028963D01*
X00598091Y00028899D01*
X0059309Y00033443D01*
Y00034162D01*
X00588186Y00039066D01*
X00588616Y00044146D01*
X00592436D01*
Y00051416D01*
X00582896D01*
X00573356D01*
Y00044146D01*
X00579784D01*
X00580214Y00039066D01*
X0057531Y00034162D01*
Y00026798D01*
X00577454Y00024653D01*
X0057535Y00019573D01*
X00557837D01*
X005461Y0003131D01*
Y00033925D01*
X005461Y00034162D01*
X00548442Y00039005D01*
X0055107D01*
X00557022Y00044957D01*
Y00047895D01*
X00546862D01*
X00536702D01*
Y00044957D01*
X00537209Y0004445D01*
X00535104Y0003937D01*
X00533528D01*
X0052832Y00034162D01*
Y00026798D01*
X00533528Y0002159D01*
X0053638D01*
X00548766Y00009204D01*
X00546837Y00004124D01*
X00292261D01*
X00290317Y00008817D01*
X0032099Y0003949D01*
X0033135D01*
Y00042657D01*
X00339384D01*
X00342551Y0003949D01*
X00350869D01*
X0035675Y00045371D01*
Y00053689D01*
X00350869Y0005957D01*
X00342551D01*
X00339384Y00056403D01*
X0033135D01*
Y0005957D01*
X0031127D01*
Y0004921D01*
X00277823Y00015763D01*
X00037137D01*
X00015763Y00037137D01*
Y00072524D01*
X00020843Y00073264D01*
X00025528Y0006858D01*
X00032892D01*
X000381Y00073788D01*
Y00081152D01*
X00033526Y00085726D01*
X00033633Y0008885D01*
X00038786Y00090882D01*
X00040768Y000889D01*
X00048132D01*
X0005334Y00094108D01*
Y00101284D01*
X00057066Y00104742D01*
X0006223Y00099578D01*
Y00092838D01*
X00067438Y0008763D01*
X00074802D01*
X0008001Y00092838D01*
Y00093376D01*
X00084703Y0009532D01*
X00094936Y00085088D01*
Y0006858D01*
X00096144Y00065664D01*
X00108095Y00053713D01*
X0010807Y00053689D01*
Y00045371D01*
X00113951Y0003949D01*
X00122269D01*
X0012815Y00045371D01*
Y00053689D01*
X00122269Y0005957D01*
X00118868D01*
X00118716Y0005981D01*
X00121513Y0006489D01*
X00122269D01*
X0012815Y00070771D01*
Y00079089D01*
X00122269Y0008497D01*
X00122234D01*
Y0009271D01*
X00121026Y00095626D01*
X00085794Y00130858D01*
Y00151472D01*
X00090874Y00152483D01*
X00091064Y00152024D01*
X00151595Y00091493D01*
X00151026Y00086361D01*
X00147669Y0008497D01*
X0014478D01*
Y0007493D01*
Y0006489D01*
X00146714D01*
X00146845Y0006465D01*
X00145489Y00061579D01*
X00142624Y0005957D01*
X00139351D01*
X0013347Y00053689D01*
Y000508D01*
X0014351D01*
Y0004953D01*
X0014478D01*
Y0003949D01*
X00147669D01*
X0015355Y00045371D01*
Y00046127D01*
X0015863Y00048924D01*
X0015887Y00048772D01*
Y00045371D01*
X00164751Y0003949D01*
X00173069D01*
X0017895Y00045371D01*
Y00053689D01*
X00173069Y0005957D01*
X00169668D01*
X00169516Y0005981D01*
X00172313Y0006489D01*
X00173069D01*
X0017895Y00070771D01*
Y00079089D01*
X00173069Y0008497D01*
X00173034D01*
Y0009652D01*
X00171826Y00099436D01*
X00123504Y00147758D01*
Y0016676D01*
X00123953D01*
X00130073Y00172881D01*
X00132715Y00173066D01*
X00135357Y00172881D01*
X00141477Y0016676D01*
X0014478D01*
Y001778D01*
Y0018884D01*
X00141477D01*
X00135357Y00182719D01*
X00132715Y00182534D01*
X00130073Y00182719D01*
X00123953Y0018884D01*
X00114807D01*
X00109585Y00183617D01*
X0010668Y00182826D01*
X00103776Y00183617D01*
X00098553Y0018884D01*
X00089407D01*
X00085794Y00190337D01*
Y00224742D01*
X00095688Y00234636D01*
X00123632D01*
X00128398Y0022987D01*
X00135762D01*
X0014097Y00235078D01*
Y00242442D01*
X00135762Y0024765D01*
X00128398D01*
X00123632Y00242884D01*
X0009398D01*
X00091064Y00241676D01*
X00078754Y00229366D01*
X00077546Y0022645D01*
Y00189814D01*
X00072853Y0018787D01*
X00071883Y0018884D01*
X00062737D01*
X00061274Y00187377D01*
X00056194Y00189481D01*
Y00226892D01*
X00084258Y00254956D01*
X00117282D01*
X00119508Y0025273D01*
X00126872D01*
X0013208Y00257938D01*
Y00265302D01*
X00126872Y0027051D01*
X00119508D01*
X001143Y00265302D01*
Y00263204D01*
X0008255D01*
X00079634Y00261996D01*
X00052384Y00234746D01*
X00047304Y0023685D01*
Y0029443D01*
X00058956Y00306082D01*
X00067044D01*
X00070204Y00306082D01*
X00075284Y00306082D01*
X00089204D01*
Y00311498D01*
X00127635D01*
Y0030099D01*
X00149225D01*
Y00305561D01*
X00154305Y00306572D01*
X00155568Y00303523D01*
X0016256Y00300627D01*
Y0031623D01*
Y00331833D01*
X00155568Y00328937D01*
X00154305Y00325888D01*
X00149225Y00326899D01*
Y0033147D01*
X00127635D01*
Y00319746D01*
X00089204D01*
Y00325162D01*
X00075284D01*
X00072124Y00325162D01*
X00067044Y00325162D01*
X00053124D01*
Y00311914D01*
X00044764Y00303554D01*
X00039684Y00305658D01*
Y0040365D01*
X00058956Y00422922D01*
X00067044D01*
X00070204Y00422922D01*
X00075284Y00422922D01*
X00089204D01*
Y00428338D01*
X00127635D01*
Y0041529D01*
X00149225D01*
Y00419861D01*
X00154305Y00420872D01*
X00155568Y00417823D01*
X0016256Y00414927D01*
Y0043053D01*
Y00446133D01*
X00155568Y00443237D01*
X00154305Y00440188D01*
X00149225Y00441199D01*
Y0044577D01*
X00127635D01*
Y00436586D01*
X00089204D01*
Y00442002D01*
X00075284D01*
X00072124Y00442002D01*
X00067044Y00442002D01*
X00053124D01*
Y00428754D01*
X00037144Y00412774D01*
X00032064Y00414878D01*
Y00488512D01*
X0006458Y00521028D01*
X00065788Y00523944D01*
Y0053236D01*
X0006938Y00535952D01*
X00075284Y00535952D01*
X00089204D01*
Y00541368D01*
X00126365D01*
Y0052959D01*
X00147955D01*
Y00537227D01*
X00153035Y00538238D01*
X00155568Y00532123D01*
X0016256Y00529227D01*
Y0054483D01*
Y00560433D01*
X00155568Y00557537D01*
X00153035Y00551422D01*
X00147955Y00552433D01*
Y0056007D01*
X00126365D01*
Y00549616D01*
X00089204D01*
Y00555032D01*
X00075284D01*
X00072124Y00555032D01*
X00067044Y00555032D01*
X00053124D01*
Y00535952D01*
X0005754D01*
Y00525652D01*
X00025024Y00493136D01*
X00023816Y0049022D01*
Y00085367D01*
X00020843Y0008266D01*
X00015763Y00084019D01*
Y00815033D01*
X00079047Y00878317D01*
X0015494D01*
Y0087503D01*
X0017526D01*
Y0089535D01*
X0015494D01*
Y00892063D01*
X000762D01*
X0007134Y0089005D01*
X00008817Y00827527D01*
X00004124Y00829471D01*
Y00995366D01*
X00995366D01*
Y00666188D01*
D02*
G37*
G36*
X00109585Y00171983D02*
X00114807Y0016676D01*
X00115256D01*
Y0014668D01*
X0011361Y00145397D01*
X00110563Y00144189D01*
X00098104Y00156648D01*
Y0016676D01*
X00098553D01*
X00103776Y00171983D01*
X0010668Y00172775D01*
X00109585Y00171983D01*
D02*
G37*
G36*
X00062737Y0016676D02*
X00071883D01*
X00072853Y0016773D01*
X00077546Y00165786D01*
Y0012915D01*
X00078754Y00126234D01*
X00113986Y00091002D01*
Y0008497D01*
X00113951D01*
X00108264Y00079283D01*
X00103184Y00079557D01*
Y00086796D01*
X00101976Y00089712D01*
X00056194Y00135494D01*
Y00166119D01*
X00061274Y00168223D01*
X00062737Y0016676D01*
D02*
G37*
G36*
X00995366Y00436172D02*
Y00004124D01*
X00838733D01*
X00836804Y00009204D01*
X0086709Y0003949D01*
X00871569D01*
X00874735Y00042657D01*
X0089789D01*
X0090275Y0004467D01*
X0091037Y0005229D01*
X00912383Y0005715D01*
Y00360373D01*
X00990286Y00438276D01*
X00995366Y00436172D01*
D02*
G37*
G36*
X00024643Y00008817D02*
X00022699Y00004124D01*
X00004124D01*
Y00022699D01*
X00008817Y00024643D01*
X00024643Y00008817D01*
D02*
G37*
%LPC*%
G36*
X0095768Y0096854D02*
X0094232D01*
X0093146Y0095768D01*
Y0094232D01*
X0094232Y0093146D01*
X0095768D01*
X0096854Y0094232D01*
Y0095768D01*
X0095768Y0096854D01*
D02*
G37*
G36*
X0005768D02*
X0004232D01*
X0003146Y0095768D01*
Y0094232D01*
X0004232Y0093146D01*
X0005768D01*
X0006854Y0094232D01*
Y0095768D01*
X0005768Y0096854D01*
D02*
G37*
G36*
X00169308Y0086995D02*
X0016637D01*
Y0086106D01*
X0017526D01*
Y00863998D01*
X00169308Y0086995D01*
D02*
G37*
G36*
X0016383D02*
X00160892D01*
X0015494Y00863998D01*
Y0086106D01*
X0016383D01*
Y0086995D01*
D02*
G37*
G36*
X0017526Y0085852D02*
X0016637D01*
Y0084963D01*
X00169308D01*
X0017526Y00855582D01*
Y0085852D01*
D02*
G37*
G36*
X0016383D02*
X0015494D01*
Y00855582D01*
X00160892Y0084963D01*
X0016383D01*
Y0085852D01*
D02*
G37*
G36*
X00169308Y0084455D02*
X00160892D01*
X0015494Y00838598D01*
Y00830182D01*
X00160892Y0082423D01*
X00169308D01*
X0017526Y00830182D01*
Y00838598D01*
X00169308Y0084455D01*
D02*
G37*
G36*
Y0081915D02*
X00160892D01*
X0015494Y00813198D01*
Y00804782D01*
X00160892Y0079883D01*
X00169308D01*
X0017526Y00804782D01*
Y00813198D01*
X00169308Y0081915D01*
D02*
G37*
G36*
Y0079375D02*
X00160892D01*
X0015494Y00787798D01*
Y00779382D01*
X00160892Y0077343D01*
X00169308D01*
X0017526Y00779382D01*
Y00787798D01*
X00169308Y0079375D01*
D02*
G37*
G36*
X00948562Y0069596D02*
X00941198D01*
X00939181Y00693943D01*
X00825339D01*
X00822273Y00695213D01*
X0070231D01*
X0070231Y00695213D01*
X0069745Y006932D01*
X00602977Y00598727D01*
X00465036D01*
Y00601394D01*
X00464356D01*
Y00628601D01*
X0046855Y00632795D01*
Y00641145D01*
X00462645Y0064705D01*
X00454295D01*
X0044839Y00641145D01*
Y00632795D01*
X0045061Y00630575D01*
Y00602616D01*
X00446036Y00601394D01*
X00442876Y00601394D01*
X00438766D01*
Y00591854D01*
Y00582314D01*
X00442876D01*
X00446036Y00582314D01*
X00449623Y0057872D01*
Y00390763D01*
X0037868Y0031982D01*
X00376667Y0031496D01*
Y00254619D01*
X0037465Y00252602D01*
Y00245238D01*
X00379858Y0024003D01*
X00387222D01*
X0039243Y00245238D01*
Y00252602D01*
X00390413Y00254619D01*
Y00312113D01*
X00461356Y00383056D01*
X00461356Y00383056D01*
X00463369Y00387916D01*
X00463369Y00387916D01*
Y00582314D01*
X00465036D01*
Y00584981D01*
X00605824D01*
X00610684Y00586994D01*
X00705157Y00681467D01*
X00820477D01*
X00823543Y00680197D01*
X00823543Y00680197D01*
X00939181D01*
X00941198Y0067818D01*
X00948562D01*
X0095377Y00683388D01*
Y00690752D01*
X00948562Y0069596D01*
D02*
G37*
G36*
X00134492Y0070231D02*
X00127128D01*
X00122362Y00697544D01*
X000889D01*
X00085984Y00696336D01*
X00059138Y0066949D01*
X0005802Y00666792D01*
X00053124D01*
Y00647712D01*
X00067044D01*
X00070204Y00647712D01*
X00075284Y00647712D01*
X00089204D01*
Y00653128D01*
X00128905D01*
Y0064516D01*
X00150495D01*
Y00649731D01*
X00155575Y00650742D01*
X00156838Y00647693D01*
X0016383Y00644797D01*
Y006604D01*
Y00676003D01*
X00156838Y00673107D01*
X00155575Y00670058D01*
X00150495Y00671069D01*
Y0067564D01*
X00128905D01*
Y00661376D01*
X00089204D01*
Y00666792D01*
X00075288D01*
X00073184Y00671872D01*
X00090608Y00689296D01*
X00122362D01*
X00127128Y0068453D01*
X00134492D01*
X001397Y00689738D01*
Y00697102D01*
X00134492Y0070231D01*
D02*
G37*
G36*
X0016637Y00676003D02*
Y0066167D01*
X00176784D01*
Y00664845D01*
X00173362Y00673107D01*
X0016637Y00676003D01*
D02*
G37*
G36*
X00176784Y0065913D02*
X0016637D01*
Y00644797D01*
X00173362Y00647693D01*
X00176784Y00655955D01*
Y0065913D01*
D02*
G37*
G36*
X00968928Y00650875D02*
X009652D01*
Y0064008D01*
X00975995D01*
Y00643808D01*
X00968928Y00650875D01*
D02*
G37*
G36*
X0096266D02*
X00958932D01*
X00951865Y00643808D01*
Y0064008D01*
X0096266D01*
Y00650875D01*
D02*
G37*
G36*
X0044315Y0064705D02*
X0043434D01*
Y0063824D01*
X0044315D01*
Y0064705D01*
D02*
G37*
G36*
X004318D02*
X0042299D01*
Y0063824D01*
X004318D01*
Y0064705D01*
D02*
G37*
G36*
X0087249Y00634738D02*
X00864131Y00631275D01*
X00862539Y00627433D01*
X00857041D01*
X00855449Y00631275D01*
X0084709Y00634738D01*
X00838731Y00631275D01*
X00837139Y00627433D01*
X00831641D01*
X00830049Y00631275D01*
X0082296Y00634212D01*
Y00618598D01*
X0082169D01*
Y00617328D01*
X00809868D01*
Y0061428D01*
X00813331Y00605921D01*
X00819338Y00603432D01*
X00820855Y00597765D01*
X00808976Y00585887D01*
X00803896Y00587991D01*
Y0059112D01*
X0080214Y0059536D01*
X007979Y00597117D01*
X007639D01*
X0075966Y0059536D01*
X00757904Y0059112D01*
Y0056712D01*
X0075966Y0056288D01*
X007639Y00561124D01*
X007979D01*
X0080214Y0056288D01*
X00803896Y0056712D01*
Y00568183D01*
X00807866D01*
X00812726Y00570196D01*
X00845604Y00603074D01*
X0084709Y00602458D01*
X00855449Y00605921D01*
X00857041Y00609763D01*
X00862539D01*
X00864131Y00605921D01*
X00865617Y00605305D01*
Y00579427D01*
X00844154Y00557964D01*
X00842141Y00553104D01*
Y00543386D01*
X00838554Y00539792D01*
X00835394Y00539792D01*
X00821474D01*
Y00533714D01*
X00813628D01*
X00808862Y0053848D01*
X00801498D01*
X0079629Y00533272D01*
Y00525908D01*
X00801498Y005207D01*
X00808862D01*
X00813628Y00525466D01*
X00821474D01*
Y00520712D01*
X00835394D01*
X00838554Y00520712D01*
X00843634Y00520712D01*
X00857554D01*
Y00539792D01*
X00855887D01*
Y00550257D01*
X0087735Y0057172D01*
X0087735Y0057172D01*
X00879363Y0057658D01*
X00879363Y0057658D01*
Y00605305D01*
X00880849Y00605921D01*
X00884312Y0061428D01*
Y00622916D01*
X00880849Y00631275D01*
X0087249Y00634738D01*
D02*
G37*
G36*
X00513445Y0064705D02*
X00505095D01*
X0049919Y00641145D01*
Y00632795D01*
X00505095Y0062689D01*
X00513445D01*
X0051935Y00632795D01*
Y00641145D01*
X00513445Y0064705D01*
D02*
G37*
G36*
X00488045D02*
X00479695D01*
X0047379Y00641145D01*
Y00632795D01*
X00479695Y0062689D01*
X00488045D01*
X0049395Y00632795D01*
Y00641145D01*
X00488045Y0064705D01*
D02*
G37*
G36*
X0044315Y006357D02*
X0043434D01*
Y0062689D01*
X0044315D01*
Y006357D01*
D02*
G37*
G36*
X004318D02*
X0042299D01*
Y0062689D01*
X004318D01*
Y006357D01*
D02*
G37*
G36*
X00975995Y0063754D02*
X009652D01*
Y00626745D01*
X00968928D01*
X00975995Y00633812D01*
Y0063754D01*
D02*
G37*
G36*
X0096266D02*
X00951865D01*
Y00633812D01*
X00958932Y00626745D01*
X0096266D01*
Y0063754D01*
D02*
G37*
G36*
X0082042Y00634212D02*
X00813331Y00631275D01*
X00809868Y00622916D01*
Y00619868D01*
X0082042D01*
Y00634212D01*
D02*
G37*
G36*
X00588435Y0064951D02*
X00573905D01*
X0056363Y00639235D01*
Y00624705D01*
X00573905Y0061443D01*
X00588435D01*
X0059871Y00624705D01*
Y00639235D01*
X00588435Y0064951D01*
D02*
G37*
G36*
X00368435D02*
X00353905D01*
X0034363Y00639235D01*
Y00624705D01*
X00353905Y0061443D01*
X00368435D01*
X0037871Y00624705D01*
Y00639235D01*
X00368435Y0064951D01*
D02*
G37*
G36*
X00436226Y00601394D02*
X00428956D01*
Y00593124D01*
X00436226D01*
Y00601394D01*
D02*
G37*
G36*
Y00590584D02*
X00428956D01*
Y00582314D01*
X00436226D01*
Y00590584D01*
D02*
G37*
G36*
X00968928Y00600075D02*
X00958932D01*
X00951865Y00593008D01*
Y00583013D01*
X00958932Y00575945D01*
X00968928D01*
X00975995Y00583013D01*
Y00593008D01*
X00968928Y00600075D01*
D02*
G37*
G36*
X001651Y00560433D02*
Y005461D01*
X00175514D01*
Y00549275D01*
X00172092Y00557537D01*
X001651Y00560433D01*
D02*
G37*
G36*
X009334Y0053913D02*
Y0053086D01*
X0094067D01*
Y0053913D01*
X009334D01*
D02*
G37*
G36*
X00175514Y0054356D02*
X001651D01*
Y00529227D01*
X00172092Y00532123D01*
X00175514Y00540385D01*
Y0054356D01*
D02*
G37*
G36*
X0094067Y0052832D02*
X009334D01*
Y0052005D01*
X0094067D01*
Y0052832D01*
D02*
G37*
G36*
X00918128Y00625475D02*
X00908132D01*
X00901065Y00618408D01*
Y00608413D01*
X00908132Y00601345D01*
X00909006D01*
Y0053913D01*
X0090459D01*
Y0052005D01*
X0091851D01*
X0092167Y0052005D01*
X0092675Y0052005D01*
X0093086D01*
Y0052959D01*
Y0053913D01*
X0092675D01*
X0092359Y0053913D01*
X00917254Y0053913D01*
Y00601345D01*
X00918128D01*
X00925195Y00608413D01*
Y00618408D01*
X00918128Y00625475D01*
D02*
G37*
G36*
X00558672Y0057912D02*
X00551308D01*
X005461Y00573912D01*
Y00566548D01*
X00551308Y0056134D01*
X00558048D01*
X00646054Y00473334D01*
X0064897Y00472126D01*
X00801812D01*
X00806578Y0046736D01*
X00813942D01*
X0081915Y00472568D01*
Y00479932D01*
X00813942Y0048514D01*
X00806578D01*
X00801812Y00480374D01*
X00650678D01*
X0056388Y00567172D01*
Y00573912D01*
X00558672Y0057912D01*
D02*
G37*
G36*
X00766445Y0044831D02*
X00747395D01*
Y00443544D01*
X00723942D01*
Y00446282D01*
X00704862D01*
Y00432362D01*
X00704862Y00429202D01*
X00704862Y00424122D01*
Y00410202D01*
X00712926D01*
X00740422Y00382706D01*
X00745282Y00380693D01*
X00748616Y00377389D01*
X00748616Y00371756D01*
Y00367646D01*
X00758156D01*
X00767696D01*
Y00371756D01*
X00767696Y00374916D01*
X00767696Y00379996D01*
Y00384196D01*
X00787518Y00404018D01*
X0079248Y00401796D01*
Y0040132D01*
X0081026D01*
Y00403732D01*
X00805052Y0040894D01*
X00801679D01*
X0079935Y00413906D01*
X00801406Y00416575D01*
X0081521D01*
X00816527Y00411881D01*
Y00388178D01*
X0081586D01*
Y00359098D01*
X0083094D01*
Y00388178D01*
X00830273D01*
Y00417098D01*
X0084244D01*
Y00446178D01*
X0080436D01*
Y00430321D01*
X00797228D01*
X00797228Y00430321D01*
X00792368Y00428308D01*
X0077138Y0040732D01*
X00766445Y00409569D01*
X00766445Y00411963D01*
Y0041529D01*
X0075819D01*
Y0040767D01*
X00761799D01*
X00764546Y0040767D01*
X00766795Y00402735D01*
X00757976Y00393916D01*
X00757229D01*
X00755966Y00394439D01*
X00748129D01*
X00723942Y00418626D01*
X00723942Y00427282D01*
X00723942Y00435296D01*
X00747395D01*
Y0043053D01*
X00766445D01*
Y0044831D01*
D02*
G37*
G36*
X001651Y00446133D02*
Y004318D01*
X00175514D01*
Y00434975D01*
X00172092Y00443237D01*
X001651Y00446133D01*
D02*
G37*
G36*
X0090801Y00433611D02*
X0090678D01*
Y0042672D01*
X00915645D01*
X00913781Y00431221D01*
X0090801Y00433611D01*
D02*
G37*
G36*
X0090424D02*
X0090301D01*
X00897239Y00431221D01*
X00895375Y0042672D01*
X0090424D01*
Y00433611D01*
D02*
G37*
G36*
X00766445Y0042545D02*
X0075819D01*
Y0041783D01*
X00766445D01*
Y0042545D01*
D02*
G37*
G36*
X0075565D02*
X00747395D01*
Y0041783D01*
X0075565D01*
Y0042545D01*
D02*
G37*
G36*
X00175514Y0042926D02*
X001651D01*
Y00414927D01*
X00172092Y00417823D01*
X00175514Y00426085D01*
Y0042926D01*
D02*
G37*
G36*
X0075565Y0041529D02*
X00747395D01*
Y0040767D01*
X0075565D01*
Y0041529D01*
D02*
G37*
G36*
X00588435Y0042951D02*
X00573905D01*
X0056363Y00419235D01*
Y00404705D01*
X00573905Y0039443D01*
X00588435D01*
X0059871Y00404705D01*
Y00419235D01*
X00588435Y0042951D01*
D02*
G37*
G36*
X00368435D02*
X00353905D01*
X0034363Y00419235D01*
Y00404705D01*
X00353905Y0039443D01*
X00368435D01*
X0037871Y00404705D01*
Y00419235D01*
X00368435Y0042951D01*
D02*
G37*
G36*
X0081026Y0039878D02*
X0079248D01*
Y00396368D01*
X0079559Y00393258D01*
X00793485Y00388178D01*
X0079286D01*
Y00374908D01*
X008004D01*
X0080794D01*
Y00387276D01*
X0080794Y00388178D01*
X0080715Y00393258D01*
X0081026Y00396368D01*
Y0039878D01*
D02*
G37*
G36*
X0080794Y00372368D02*
X0080167D01*
Y00359098D01*
X0080794D01*
Y00372368D01*
D02*
G37*
G36*
X0079913D02*
X0079286D01*
Y00359098D01*
X0079913D01*
Y00372368D01*
D02*
G37*
G36*
X00767696Y00365106D02*
X00759426D01*
Y00357836D01*
X00767696D01*
Y00365106D01*
D02*
G37*
G36*
X00756886D02*
X00748616D01*
Y00357836D01*
X00756886D01*
Y00365106D01*
D02*
G37*
G36*
X001651Y00331833D02*
Y003175D01*
X00175514D01*
Y00320675D01*
X00172092Y00328937D01*
X001651Y00331833D01*
D02*
G37*
G36*
X00590042Y00321014D02*
X00572262D01*
Y00300694D01*
X00590042D01*
Y00321014D01*
D02*
G37*
G36*
X00431292D02*
X00413512D01*
Y00300694D01*
X00431292D01*
Y00321014D01*
D02*
G37*
G36*
X00277622D02*
X00259842D01*
Y00300694D01*
X00277622D01*
Y00321014D01*
D02*
G37*
G36*
X00175514Y0031496D02*
X001651D01*
Y00300627D01*
X00172092Y00303523D01*
X00175514Y00311785D01*
Y0031496D01*
D02*
G37*
G36*
X00590042Y00237194D02*
X00582422D01*
Y00228304D01*
X00590042D01*
Y00237194D01*
D02*
G37*
G36*
X00431292D02*
X00423672D01*
Y00228304D01*
X00431292D01*
Y00237194D01*
D02*
G37*
G36*
X00277622D02*
X00270002D01*
Y00228304D01*
X00277622D01*
Y00237194D01*
D02*
G37*
G36*
X00421132D02*
X00413512D01*
Y00228304D01*
X00421132D01*
Y00237194D01*
D02*
G37*
G36*
X00267462D02*
X00259842D01*
Y00228304D01*
X00267462D01*
Y00237194D01*
D02*
G37*
G36*
X00579882D02*
X00572262D01*
Y00228304D01*
X00579882D01*
Y00237194D01*
D02*
G37*
G36*
X0050038Y0023368D02*
Y0022606D01*
X00508635D01*
Y0023368D01*
X0050038D01*
D02*
G37*
G36*
X00354965Y0023241D02*
X0034671D01*
Y0022479D01*
X00354965D01*
Y0023241D01*
D02*
G37*
G36*
X0034417D02*
X00335915D01*
Y0022479D01*
X0034417D01*
Y0023241D01*
D02*
G37*
G36*
X0066167Y0022987D02*
Y0022225D01*
X00669925D01*
Y0022987D01*
X0066167D01*
D02*
G37*
G36*
X00635762Y00237194D02*
X00617982D01*
Y00216874D01*
X00635762D01*
Y00237194D01*
D02*
G37*
G36*
X00590042Y00225764D02*
X00582422D01*
Y00216874D01*
X00590042D01*
Y00225764D01*
D02*
G37*
G36*
X00579882D02*
X00572262D01*
Y00216874D01*
X00579882D01*
Y00225764D01*
D02*
G37*
G36*
X00431292D02*
X00423672D01*
Y00216874D01*
X00431292D01*
Y00225764D01*
D02*
G37*
G36*
X00421132D02*
X00413512D01*
Y00216874D01*
X00421132D01*
Y00225764D01*
D02*
G37*
G36*
X00277622D02*
X00270002D01*
Y00216874D01*
X00277622D01*
Y00225764D01*
D02*
G37*
G36*
X00267462D02*
X00259842D01*
Y00216874D01*
X00267462D01*
Y00225764D01*
D02*
G37*
G36*
X00508635Y0022352D02*
X0050038D01*
Y002159D01*
X00508635D01*
Y0022352D01*
D02*
G37*
G36*
X00354965Y0022225D02*
X0034671D01*
Y0021463D01*
X00354965D01*
Y0022225D01*
D02*
G37*
G36*
X0034417D02*
X00335915D01*
Y0021463D01*
X0034417D01*
Y0022225D01*
D02*
G37*
G36*
X00669925Y0021971D02*
X0066167D01*
Y0021209D01*
X00669925D01*
Y0021971D01*
D02*
G37*
G36*
X00782974Y00175876D02*
Y00167606D01*
X00790244D01*
Y00175876D01*
X00782974D01*
D02*
G37*
G36*
X00588664D02*
Y00167606D01*
X00595934D01*
Y00175876D01*
X00588664D01*
D02*
G37*
G36*
X00244456Y00174674D02*
X00237186D01*
Y00166404D01*
X00244456D01*
Y00174674D01*
D02*
G37*
G36*
X00635762Y00321014D02*
X00617982D01*
Y00300694D01*
X00635762D01*
Y00302388D01*
X00636574Y00302565D01*
X00637724Y00301921D01*
X00641036Y00298342D01*
Y00213905D01*
X00642244Y00210989D01*
X00664629Y00188604D01*
X00664629Y00188604D01*
X00683876Y00169357D01*
X00683443Y0016757D01*
X00681931Y00164664D01*
X00659434D01*
Y0017581D01*
X00645514D01*
X00642354Y0017581D01*
X00637274Y0017581D01*
X00623354D01*
Y00164664D01*
X0062028D01*
X00617364Y00163456D01*
X00607892Y00153984D01*
X00599849D01*
X00595934Y00156796D01*
X00595934Y00159064D01*
Y00165066D01*
X00587394D01*
Y00166336D01*
X00586124D01*
Y00175876D01*
X00582014D01*
X00578854Y00175876D01*
X00573774Y00175876D01*
X00559854D01*
Y0017046D01*
X00531076D01*
Y00175756D01*
X00517156D01*
X00513996Y00175756D01*
X005102Y00178856D01*
Y00195509D01*
X00508992Y00198425D01*
X0049621Y00211207D01*
X0049784Y00215142D01*
Y0022479D01*
Y0023368D01*
X00495939D01*
X0049467Y0023622D01*
X00495939Y0023876D01*
X00508635D01*
Y0025654D01*
X00505166D01*
Y00282906D01*
X00510582D01*
Y00299986D01*
X00510582Y00299986D01*
Y00301906D01*
X00510582D01*
X00510582Y00305066D01*
Y00318986D01*
X00491502D01*
Y00314978D01*
X00477012D01*
Y00321014D01*
X00459232D01*
Y00300694D01*
X00477012D01*
Y00303879D01*
X00478842Y00304243D01*
X00480585Y00302283D01*
X00481906Y00299673D01*
X00481016Y00297524D01*
Y00239792D01*
X00477012Y00237194D01*
X00475936Y00237194D01*
X00459232D01*
Y00216874D01*
X00476323Y00216874D01*
X00477266Y00216788D01*
X00481465Y00215361D01*
X00482224Y00213529D01*
X00501952Y00193801D01*
Y00180274D01*
X0049831Y00176389D01*
X0049403Y00176426D01*
Y00182752D01*
X00488822Y0018796D01*
X00481458D01*
X0047625Y00182752D01*
Y00179964D01*
X00474014Y0017581D01*
X0047117Y0017581D01*
X00460094D01*
X00456934Y0017581D01*
X00451854Y0017581D01*
X00437934D01*
Y0017491D01*
X00432854Y00172808D01*
X00429132Y0017653D01*
X0042672D01*
Y0016764D01*
X0042418D01*
Y0017653D01*
X00421768D01*
X00420674Y00175436D01*
X00415594Y00175876D01*
X00413929Y00175876D01*
X00408324D01*
Y00166336D01*
X00405784D01*
Y00175876D01*
X00401674D01*
X00398514Y00175876D01*
X00393434Y00175876D01*
X00379514D01*
Y0017046D01*
X00350736D01*
Y00175756D01*
X00336816D01*
X00333656Y00175756D01*
X00328576Y00175756D01*
X00320488D01*
X00303844Y001924D01*
Y00212506D01*
X00305562Y00216874D01*
X00323342D01*
Y00237194D01*
X00313724D01*
X00311779Y00241887D01*
X00317368Y00247476D01*
X00318576Y00250392D01*
Y00300694D01*
X00323342D01*
Y0030673D01*
X003317D01*
X00335292Y00303138D01*
X00335292Y00296826D01*
Y00282906D01*
X00341316D01*
Y0025527D01*
X00335915D01*
Y0023749D01*
X00354965D01*
Y0025527D01*
X00349564D01*
Y00282906D01*
X00354372D01*
Y00296826D01*
X00354372Y00299986D01*
X00354372Y00305066D01*
Y00318986D01*
X00335292D01*
Y00314978D01*
X00323342D01*
Y00321014D01*
X00305562D01*
Y00300694D01*
X00310328D01*
Y002521D01*
X00296804Y00238576D01*
X00295596Y0023566D01*
Y00190692D01*
X00296804Y00187776D01*
X00314656Y00169924D01*
Y00160718D01*
X00309576Y00158614D01*
X0026775Y0020044D01*
X0026289Y00202453D01*
X001905D01*
X001905Y00202453D01*
X00189558Y00202063D01*
X00185938D01*
X00185938Y00202063D01*
X00181078Y0020005D01*
X00172246Y00191219D01*
X00171261Y0018884D01*
X00168147D01*
X00162027Y00182719D01*
X00159385Y00182534D01*
X00156743Y00182719D01*
X00150623Y0018884D01*
X0014732D01*
Y001778D01*
Y0016676D01*
X00150623D01*
X00156743Y00172881D01*
X00159385Y00173066D01*
X00162027Y00172881D01*
X00168147Y0016676D01*
X00177293D01*
X00182Y00171467D01*
X0018708Y00169363D01*
Y0016676D01*
X0020916D01*
Y00188707D01*
X00260043D01*
X00268996Y00179754D01*
X00266892Y00174674D01*
X00259346D01*
X00256186Y00174674D01*
X00251106Y00174674D01*
X00246996D01*
Y00165134D01*
Y00155594D01*
X00251106D01*
X00254266Y00155594D01*
X00257853Y00152D01*
Y00131514D01*
X00259866Y00126654D01*
X0031127Y0007525D01*
Y00070771D01*
X00317151Y0006489D01*
X00325469D01*
X0033135Y00070771D01*
X0033643Y000709D01*
X0033667Y00070771D01*
X00342551Y0006489D01*
X00350869D01*
X0035675Y00070771D01*
X0035699Y000709D01*
X0036207Y00070771D01*
X00367951Y0006489D01*
X00376269D01*
X0038215Y00070771D01*
Y00079089D01*
X00376672Y00084567D01*
X00377242Y00089647D01*
X00401815D01*
X0041167Y00079792D01*
X0041167Y00079792D01*
X00420956Y00070506D01*
X00420956Y00063146D01*
X00420956Y00058066D01*
Y00053956D01*
X00430496D01*
X00440036D01*
Y00058066D01*
X00440036Y00061226D01*
X00440036Y00068454D01*
X00463421D01*
X00466708Y00065167D01*
X00475124D01*
X00478157Y000682D01*
X00488633D01*
X00491977Y00064784D01*
X00491981Y00059706D01*
X00486029Y00053754D01*
Y00050816D01*
X00496189D01*
Y00049546D01*
X00497459D01*
Y00039386D01*
X00500397D01*
X00506222Y00045211D01*
X00511302Y00045031D01*
Y00044957D01*
X00517254Y00039005D01*
X00520192D01*
Y00049165D01*
Y00059325D01*
X00517254D01*
X00511429Y000535D01*
X00506349Y0005368D01*
Y00053754D01*
X00500524Y00059579D01*
X00500704Y00064659D01*
X00500778D01*
X0050655Y00070431D01*
X00509143Y00070524D01*
X00511736Y00070431D01*
X00517508Y00064659D01*
X00525924D01*
X00529211Y00067946D01*
X00539621D01*
X00542908Y00064659D01*
X00551324D01*
X00554611Y00067946D01*
X00564832D01*
X00567109Y00067003D01*
X00569764D01*
X00573356Y00063411D01*
X00573356Y00058066D01*
Y00053956D01*
X00582896D01*
X00592436D01*
Y00058066D01*
X00592436Y00061226D01*
X00592436Y00066306D01*
Y00080226D01*
X00581969D01*
X00580706Y00080749D01*
X00568443D01*
X00566166Y00081692D01*
X00554611D01*
X00551324Y00084979D01*
X00542908D01*
X00539621Y00081692D01*
X00529211D01*
X00525924Y00084979D01*
X00517508D01*
X00511736Y00079207D01*
X00509143Y00079114D01*
X0050655Y00079207D01*
X00500778Y00084979D01*
X00492362D01*
X00489329Y00081946D01*
X00478665D01*
X00475124Y00085487D01*
X00466708D01*
X00466648Y00085427D01*
X00437194Y00114881D01*
Y00122362D01*
X00438476Y00123644D01*
X00443558Y0012465D01*
X00445112Y00123096D01*
X00472064Y00096144D01*
X0047498Y00094936D01*
X00541462D01*
X00546228Y0009017D01*
X00553592D01*
X005588Y00095378D01*
Y00102742D01*
X00553592Y0010795D01*
X00546228D01*
X00541462Y00103184D01*
X00476688D01*
X00461678Y00118195D01*
X00465136Y0012192D01*
X00472312D01*
X00477078Y00126686D01*
X00566974D01*
X005993Y0009436D01*
Y00087619D01*
X00604508Y00082412D01*
X00611873D01*
X0061708Y00087619D01*
Y00094984D01*
X00611873Y00100192D01*
X00605132D01*
X00573558Y00131766D01*
X00575662Y00136846D01*
X00635D01*
X00637916Y00138054D01*
X0065381Y00153948D01*
X00654948Y00156696D01*
X00655624Y00156416D01*
X00681032D01*
X00688858Y0014859D01*
X00686754Y0014351D01*
X00684658D01*
X0068326Y00142112D01*
X0067818Y00142112D01*
X00677654Y00142638D01*
X00672972Y0014732D01*
X00665608D01*
X006604Y00142112D01*
Y00134748D01*
X00665608Y0012954D01*
X00665244Y00127633D01*
X00659856Y00125123D01*
X0065786Y00126457D01*
Y00129412D01*
X00652652Y0013462D01*
X00645288D01*
X0064008Y00129412D01*
Y00122048D01*
X00645288Y0011684D01*
X00652028D01*
X00681083Y00087785D01*
X00681614Y00087254D01*
X00682054Y00081573D01*
X0067957Y00079089D01*
Y00070771D01*
X00685451Y0006489D01*
X00693769D01*
X0069965Y00070771D01*
Y00079089D01*
X00697773Y00080966D01*
X00699877Y00086046D01*
X00704743D01*
X00706847Y00080966D01*
X0070497Y00079089D01*
Y00070771D01*
X00710851Y0006489D01*
X00719169D01*
X0072505Y00070771D01*
Y00079089D01*
X00723173Y00080966D01*
X00725277Y00086046D01*
X00730143D01*
X00732247Y00080966D01*
X0073037Y00079089D01*
Y00070771D01*
X00736251Y0006489D01*
X00744569D01*
X0075045Y00070771D01*
Y00071527D01*
X0075553Y00074324D01*
X0075577Y00074172D01*
Y00070771D01*
X00761651Y0006489D01*
X00769969D01*
X0077585Y00070771D01*
Y00071527D01*
X0078093Y00074324D01*
X0078117Y00074172D01*
Y00070771D01*
X00787051Y0006489D01*
X00795369D01*
X0080125Y00070771D01*
X0080633Y00071599D01*
X0080657Y00071439D01*
Y00070771D01*
X00812451Y0006489D01*
X00820769D01*
X0082665Y00070771D01*
Y00071527D01*
X0083173Y00074324D01*
X0083197Y00074172D01*
Y00070771D01*
X00837851Y0006489D01*
X00846169D01*
X0085205Y00070771D01*
Y00071527D01*
X0085713Y00074324D01*
X0085737Y00074172D01*
Y0006489D01*
X0087745D01*
Y0008497D01*
X00863202D01*
X0083297Y00115202D01*
X00832226Y00116998D01*
X00832008Y00117216D01*
X0083185Y00117282D01*
Y00119252D01*
X0082784Y00123263D01*
X00828291Y00128857D01*
X00829032Y00129164D01*
X008472Y00147332D01*
X00848408Y00150248D01*
Y0015673D01*
X00857554D01*
Y0017526D01*
X00860932D01*
X0086614Y00180468D01*
Y00187832D01*
X00860932Y0019304D01*
X00853568D01*
X00848802Y00188274D01*
X00846894D01*
X00843978Y00187066D01*
X00832722Y0017581D01*
X00821474D01*
Y0015673D01*
X0082589D01*
Y00148462D01*
X00822522Y00145094D01*
X00716718D01*
X00710216Y00151596D01*
X0071232Y00156676D01*
X0071305D01*
X00726656D01*
Y00162212D01*
X00754164D01*
Y00156796D01*
X00768084D01*
X00771244Y00156796D01*
X00776324Y00156796D01*
X00780434D01*
Y00166336D01*
Y00175876D01*
X00776324D01*
X00773164Y00175876D01*
X00768084Y00175876D01*
X00754164D01*
Y0017046D01*
X00726656D01*
Y00175756D01*
X00712736D01*
X00709576Y00175756D01*
X00704496Y00175756D01*
X00695144D01*
X00694386Y0017607D01*
X00688827D01*
X00670461Y00194436D01*
X00670461Y00194436D01*
X006575Y00207397D01*
X0065913Y00211332D01*
Y0022098D01*
Y0022987D01*
X00656837D01*
X00655416Y0023241D01*
X00656837Y0023495D01*
X00669925D01*
Y0025273D01*
X00664524D01*
Y00282906D01*
X00668062D01*
Y00299986D01*
X00668062Y00299986D01*
Y00301906D01*
X00668062D01*
X00668062Y00305066D01*
Y00318986D01*
X00648982D01*
Y00314978D01*
X00635762D01*
Y00321014D01*
D02*
G37*
G36*
X00790244Y00165066D02*
X00782974D01*
Y00156796D01*
X00790244D01*
Y00165066D01*
D02*
G37*
G36*
X00244456Y00163864D02*
X00237186D01*
Y00155594D01*
X00244456D01*
Y00163864D01*
D02*
G37*
G36*
X00887602Y0014605D02*
X0088519D01*
Y0013843D01*
X0089281D01*
Y00140842D01*
X00887602Y0014605D01*
D02*
G37*
G36*
X0088265D02*
X00880238D01*
X0087503Y00140842D01*
Y0013843D01*
X0088265D01*
Y0014605D01*
D02*
G37*
G36*
X0089281Y0013589D02*
X0088519D01*
Y0012827D01*
X00887602D01*
X0089281Y00133478D01*
Y0013589D01*
D02*
G37*
G36*
X0088265D02*
X0087503D01*
Y00133478D01*
X00880238Y0012827D01*
X0088265D01*
Y0013589D01*
D02*
G37*
G36*
X00198469Y0008497D02*
X0019558D01*
Y000762D01*
X0020435D01*
Y00079089D01*
X00198469Y0008497D01*
D02*
G37*
G36*
X0014224D02*
X00139351D01*
X0013347Y00079089D01*
Y000762D01*
X0014224D01*
Y0008497D01*
D02*
G37*
G36*
X0019304D02*
X00190151D01*
X0018427Y00079089D01*
Y000762D01*
X0019304D01*
Y0008497D01*
D02*
G37*
G36*
X00668369D02*
X00660051D01*
X0065417Y00079089D01*
Y00070771D01*
X00660051Y0006489D01*
X00668369D01*
X0067425Y00070771D01*
Y00079089D01*
X00668369Y0008497D01*
D02*
G37*
G36*
X00642969D02*
X00634651D01*
X0062877Y00079089D01*
Y00070771D01*
X00634651Y0006489D01*
X00642969D01*
X0064885Y00070771D01*
Y00079089D01*
X00642969Y0008497D01*
D02*
G37*
G36*
X0022975D02*
X0020967D01*
Y0006489D01*
X0022975D01*
Y0008497D01*
D02*
G37*
G36*
X0020435Y0007366D02*
X0019558D01*
Y0006489D01*
X00198469D01*
X0020435Y00070771D01*
Y0007366D01*
D02*
G37*
G36*
X0019304D02*
X0018427D01*
Y00070771D01*
X00190151Y0006489D01*
X0019304D01*
Y0007366D01*
D02*
G37*
G36*
X0014224D02*
X0013347D01*
Y00070771D01*
X00139351Y0006489D01*
X0014224D01*
Y0007366D01*
D02*
G37*
G36*
X00668369Y0005957D02*
X0066548D01*
Y000508D01*
X0067425D01*
Y00053689D01*
X00668369Y0005957D01*
D02*
G37*
G36*
X00198469D02*
X0019558D01*
Y000508D01*
X0020435D01*
Y00053689D01*
X00198469Y0005957D01*
D02*
G37*
G36*
X00642969D02*
X0064008D01*
Y000508D01*
X0064885D01*
Y00053689D01*
X00642969Y0005957D01*
D02*
G37*
G36*
X0084074D02*
X00837851D01*
X0083197Y00053689D01*
Y000508D01*
X0084074D01*
Y0005957D01*
D02*
G37*
G36*
X0066294D02*
X00660051D01*
X0065417Y00053689D01*
Y000508D01*
X0066294D01*
Y0005957D01*
D02*
G37*
G36*
X0019304D02*
X00190151D01*
X0018427Y00053689D01*
Y000508D01*
X0019304D01*
Y0005957D01*
D02*
G37*
G36*
X0063754D02*
X00634651D01*
X0062877Y00053689D01*
Y000508D01*
X0063754D01*
Y0005957D01*
D02*
G37*
G36*
X0055107Y00059325D02*
X00548132D01*
Y00050435D01*
X00557022D01*
Y00053373D01*
X0055107Y00059325D01*
D02*
G37*
G36*
X0052567D02*
X00522732D01*
Y00050435D01*
X00531622D01*
Y00053373D01*
X0052567Y00059325D01*
D02*
G37*
G36*
X0047487D02*
X00471932D01*
Y00050435D01*
X00480822D01*
Y00053373D01*
X0047487Y00059325D01*
D02*
G37*
G36*
X00545592D02*
X00542654D01*
X00536702Y00053373D01*
Y00050435D01*
X00545592D01*
Y00059325D01*
D02*
G37*
G36*
X00469392D02*
X00466454D01*
X00460502Y00053373D01*
Y00050435D01*
X00469392D01*
Y00059325D01*
D02*
G37*
G36*
X00440036Y00051416D02*
X00431766D01*
Y00044146D01*
X00440036D01*
Y00051416D01*
D02*
G37*
G36*
X00429226D02*
X00420956D01*
Y00044146D01*
X00429226D01*
Y00051416D01*
D02*
G37*
G36*
X00376269Y0005957D02*
X00367951D01*
X0036207Y00053689D01*
Y00045371D01*
X00367951Y0003949D01*
X00376269D01*
X0038215Y00045371D01*
Y00053689D01*
X00376269Y0005957D01*
D02*
G37*
G36*
X00223869D02*
X00215551D01*
X0020967Y00053689D01*
Y00045371D01*
X00215551Y0003949D01*
X00223869D01*
X0022975Y00045371D01*
Y00053689D01*
X00223869Y0005957D01*
D02*
G37*
G36*
X0020435Y0004826D02*
X0019558D01*
Y0003949D01*
X00198469D01*
X0020435Y00045371D01*
Y0004826D01*
D02*
G37*
G36*
X0019304D02*
X0018427D01*
Y00045371D01*
X00190151Y0003949D01*
X0019304D01*
Y0004826D01*
D02*
G37*
G36*
X0014224D02*
X0013347D01*
Y00045371D01*
X00139351Y0003949D01*
X0014224D01*
Y0004826D01*
D02*
G37*
G36*
X00494919Y00048276D02*
X00486029D01*
Y00045338D01*
X00491981Y00039386D01*
X00494919D01*
Y00048276D01*
D02*
G37*
G36*
X00531622Y00047895D02*
X00522732D01*
Y00039005D01*
X0052567D01*
X00531622Y00044957D01*
Y00047895D01*
D02*
G37*
G36*
X00480822D02*
X00471932D01*
Y00039005D01*
X0047487D01*
X00480822Y00044957D01*
Y00047895D01*
D02*
G37*
G36*
X00469392D02*
X00460502D01*
Y00044957D01*
X00466454Y00039005D01*
X00469392D01*
Y00047895D01*
D02*
G37*
G36*
X0005768Y0006854D02*
X0004232D01*
X0003146Y0005768D01*
Y0004232D01*
X0004232Y0003146D01*
X0005768D01*
X0006854Y0004232D01*
Y0005768D01*
X0005768Y0006854D01*
D02*
G37*
%LPD*%
G36*
X00496918Y0025654D02*
X00489585D01*
X00489264Y00261487D01*
Y00278753D01*
X00491502Y00282906D01*
X00496918D01*
Y0025654D01*
D02*
G37*
G36*
X00656276Y0025273D02*
X00650875D01*
X00649284Y00257151D01*
Y00282906D01*
X00656276D01*
Y0025273D01*
D02*
G37*
G36*
X00379514Y00156796D02*
X00375508Y00154202D01*
X0035489D01*
X0035477Y00154321D01*
X00353592Y00160884D01*
X00354602Y00162212D01*
X00379514D01*
X00379514Y00156796D01*
D02*
G37*
G36*
X00559854D02*
X00555939Y00153984D01*
X00535041D01*
X00535001Y00154011D01*
X0053387Y00160891D01*
X00534852Y00162212D01*
X00559854D01*
X00559854Y00156796D01*
D02*
G37*
G36*
X00637744Y0015673D02*
X00639848Y0015165D01*
X00633292Y00145094D01*
X0061785D01*
X00615746Y00150174D01*
X00621988Y00156416D01*
X00627164D01*
X00627922Y0015673D01*
X00637744D01*
D02*
G37*
G36*
X00481458Y0017018D02*
X00488198D01*
X00489408Y0016897D01*
X00492324Y00167762D01*
X00494996D01*
Y00156676D01*
X00500606D01*
X00501724Y00153978D01*
X00505528Y00150174D01*
X00503424Y00145094D01*
X00491482D01*
X00481531Y00155045D01*
X00481531Y00155045D01*
X00474014Y00162562D01*
Y00170439D01*
X00479094Y00172544D01*
X00481458Y0017018D01*
D02*
G37*
G36*
X00329606Y00147162D02*
X00332522Y00145954D01*
X00396642D01*
X00397056Y00140874D01*
X0039214Y00135959D01*
Y00133546D01*
X0040992D01*
Y00135959D01*
X00405005Y00140874D01*
X00405418Y00145954D01*
X004318D01*
X00434716Y00147162D01*
X00435082Y00148046D01*
X00437657Y00150621D01*
X0044235Y00148677D01*
Y00141286D01*
X0043727Y00139182D01*
X00436752Y001397D01*
X00429388D01*
X0042418Y00134492D01*
Y00127128D01*
X00428946Y00122362D01*
Y00114595D01*
X0042769Y00112405D01*
X00424559Y0011049D01*
X0042418D01*
Y001016D01*
X0042164D01*
Y0011049D01*
X00419228D01*
X0041402Y00105282D01*
Y00104066D01*
X00411574Y00102605D01*
X0040894Y00101621D01*
X00404662Y00103393D01*
X003683D01*
X003683Y00103393D01*
X0036344Y0010138D01*
X0036344Y0010138D01*
X0034703Y0008497D01*
X0034639D01*
X00320679Y00110681D01*
Y00144664D01*
X00319352Y00147869D01*
X00321048Y00152547D01*
X00321832Y00153542D01*
X00322995Y00153773D01*
X00329606Y00147162D01*
D02*
G37*
G36*
X00817694Y00122876D02*
X0081407Y00119252D01*
Y00115886D01*
X0080899Y00113782D01*
X00799896Y00122876D01*
X00802Y00127956D01*
X0081559D01*
X00817694Y00122876D01*
D02*
G37*
G36*
X00306933Y00141817D02*
Y00107834D01*
X0030808Y00105064D01*
X00303773Y00102187D01*
X00271599Y00134361D01*
Y00155594D01*
X00273266D01*
Y001683D01*
X00278346Y00170404D01*
X00306933Y00141817D01*
D02*
G37*
G36*
X00792196Y00090972D02*
X00790319Y00086129D01*
X0078632Y00085652D01*
X00768153Y0010382D01*
X0076949Y00108349D01*
X00774401Y00108767D01*
X00792196Y00090972D01*
D02*
G37*
G36*
X00846662Y00089846D02*
X00844354Y0008497D01*
X00837851D01*
X00837827Y00084945D01*
X00821172Y001016D01*
X00823276Y0010668D01*
X00826642D01*
X00828235Y00108273D01*
X00846662Y00089846D01*
D02*
G37*
G36*
X00821262D02*
X00818954Y0008497D01*
X00812451D01*
X00811157Y00083675D01*
X00780846Y00113986D01*
X0078295Y00119066D01*
X00792042D01*
X00821262Y00089846D01*
D02*
G37*
G36*
X00453517Y00086894D02*
X00451573Y000822D01*
X00435137D01*
X00430587Y00080315D01*
X00423272Y0008763D01*
X00425376Y0009271D01*
X00426592D01*
X004318Y00097918D01*
Y00101427D01*
X0043688Y00103531D01*
X00453517Y00086894D01*
D02*
G37*
%LPC*%
G36*
X0040992Y00131006D02*
X004023D01*
Y00123386D01*
X00404713D01*
X0040992Y00128594D01*
Y00131006D01*
D02*
G37*
G36*
X0039976D02*
X0039214D01*
Y00128594D01*
X00397348Y00123386D01*
X0039976D01*
Y00131006D01*
D02*
G37*
G36*
X0095768Y0006854D02*
X0094232D01*
X0093146Y0005768D01*
Y0004232D01*
X0094232Y0003146D01*
X0095768D01*
X0096854Y0004232D01*
Y0005768D01*
X0095768Y0006854D01*
D02*
G37*
%LPD*%
D10*
X0091313Y0052959D02*
Y0061341D01*
X0064897Y0047625D02*
X0081026D01*
X0055499Y0057023D02*
X0064897Y0047625D01*
Y0012573D02*
X0068453Y0009017D01*
X0075057D01*
X00585868Y0003048D02*
X00592218Y0002413D01*
X005842Y0003048D02*
X00585868D01*
X00592218Y0002413D02*
X0079121D01*
X0064516Y00213905D02*
X00667545Y0019152D01*
X0064516Y00213905D02*
Y00300064D01*
X00687119Y00171946D02*
X00694386D01*
X00667545Y0019152D02*
X00667545D01*
X00687119Y00171946D01*
X00694386D02*
X00699116Y00167216D01*
Y00166216D02*
Y00167216D01*
X0064516Y00300064D02*
X00648892Y00303796D01*
X00650872D01*
X0065793Y00310854D01*
X00061664Y00657252D02*
X00062054Y00657642D01*
Y00666574D01*
X000889Y0069342D01*
X0013081D01*
X0002794Y0007874D02*
X0002921Y0007747D01*
X0002794Y0007874D02*
Y0049022D01*
X00061664Y00523944D01*
X0003556Y00103486D02*
X00037048Y00101998D01*
X0003556Y00405358D02*
X00061664Y00431462D01*
X0003556Y00103486D02*
Y00405358D01*
X00037048Y00101998D02*
X00037492D01*
X00041701Y0009779D01*
X0004445D01*
X0007112Y0009652D02*
X0007112D01*
X0004318Y0012446D02*
Y00296138D01*
X0004318Y0012446D02*
X0007112Y0009652D01*
X0004318Y00296138D02*
X00061664Y00314622D01*
X0005207Y00133786D02*
X0009906Y00086796D01*
X0005207Y002286D02*
X0008255Y0025908D01*
X0005207Y00133786D02*
Y002286D01*
X0009906Y0006858D02*
X0011811Y0004953D01*
X0009906Y0006858D02*
Y00086796D01*
X0011811Y0007493D02*
Y0009271D01*
X0008167Y0012915D02*
X0011811Y0009271D01*
X0029972Y00190692D02*
X00323196Y00167216D01*
X0029972Y0023566D02*
X00314452Y00250392D01*
X0029972Y00190692D02*
Y0023566D01*
X0076454Y001016D02*
X0079121Y0007493D01*
Y0007493D02*
Y0007493D01*
X0068961Y001016D02*
X0076454D01*
X0067183Y0011938D02*
X0068961Y001016D01*
X0069469Y0011303D02*
X0077597D01*
X0081407Y0007493D01*
X0069977Y0012319D02*
X0079375D01*
X0068834Y0013462D02*
X0069977Y0012319D01*
X0079375D02*
X0084201Y0007493D01*
X0043307Y00113173D02*
X00470916Y00075327D01*
X0043307Y00113173D02*
Y0013081D01*
X00465474Y00150514D02*
Y0016527D01*
X0046228Y0014732D02*
X00465474Y00150514D01*
X0060833Y00037664D02*
Y000381D01*
Y00037664D02*
X00614244Y0003175D01*
X0077343D01*
X0079121Y0004953D01*
X00446474Y0016527D02*
Y0016627D01*
Y00127566D02*
Y0016527D01*
X0079121Y0002413D02*
X0081661Y0004953D01*
X0047498Y0009906D02*
X0054991D01*
X00446474Y00127566D02*
X0047498Y0009906D01*
X00498806Y00171886D02*
X00503536Y00167156D01*
X00492324Y00171886D02*
X00498806D01*
X0048514Y0017907D02*
X00492324Y00171886D01*
X0048514Y0017907D02*
X0048514D01*
X00503536Y00166216D02*
Y00167156D01*
X0046863Y0013081D02*
X00568682D01*
X0060819Y00091302D01*
X00830014Y0016727D02*
X00846894Y0018415D01*
X00830014Y0016627D02*
Y0016727D01*
X00846894Y0018415D02*
X0085725D01*
X0082296Y0011557D02*
X0082423Y001143D01*
X00829092D02*
X0082931Y00114082D01*
X0082423Y001143D02*
X00829092D01*
X0082931Y0011303D02*
Y00114082D01*
Y0011303D02*
X0086741Y0007493D01*
X00781704Y00167336D02*
Y00193656D01*
Y00166336D02*
Y00167336D01*
X0088392Y0013716D02*
Y0017526D01*
X00863667Y00195513D02*
X0088392Y0017526D01*
X0080645Y00194092D02*
X00807871Y00195513D01*
X00863667D01*
X0080645Y00192082D02*
Y00194092D01*
X00781704Y00167336D02*
X0080645Y00192082D01*
X0076454Y0021082D02*
X00781704Y00193656D01*
X006604Y0022098D02*
X00661035D01*
X00671195Y0021082D01*
X0076454D01*
X0008255Y0025908D02*
X0012065D01*
X0012319Y0026162D01*
X0008167Y0022645D02*
X0009398Y0023876D01*
X0013208D01*
X0008167Y0012915D02*
Y0022645D01*
X00268732Y00227034D02*
Y00228304D01*
X00061664Y00314622D02*
Y00315622D01*
Y00431462D02*
Y00432462D01*
Y00523944D02*
Y00545492D01*
X0066929Y0013843D02*
X0069469Y0011303D01*
X0081407Y0007493D02*
X0081661D01*
X0075057Y0009017D02*
X0076581Y0007493D01*
X00589934Y00168876D02*
Y00216982D01*
X00587394Y00166336D02*
X00589934Y00168876D01*
X00581152Y00225764D02*
X00589934Y00216982D01*
X00581152Y00225764D02*
Y00227034D01*
X00409594Y00168876D02*
Y00212956D01*
X00407054Y00166336D02*
X00409594Y00168876D01*
X00422402Y00225764D02*
Y00227034D01*
X00409594Y00212956D02*
X00422402Y00225764D01*
X00314452Y00250392D02*
Y00310854D01*
X00506076Y00168756D02*
Y00195509D01*
X00503536Y00166216D02*
X00506076Y00168756D01*
X00500042Y00310446D02*
X00501042D01*
X00493392Y00303796D02*
X00500042Y00310446D01*
X00491412Y00303796D02*
X00493392D01*
X0048514Y00297524D02*
X00491412Y00303796D01*
X0048514Y00216445D02*
Y00297524D01*
Y00216445D02*
X00506076Y00195509D01*
X007112Y0013208D02*
X00826116D01*
X0068274Y0016054D02*
X007112Y0013208D01*
X00655624Y0016054D02*
X0068274D01*
X00829352Y0052959D02*
X00830014Y00530252D01*
X0080518Y0052959D02*
X00829352D01*
X0009398Y0015494D02*
Y001778D01*
Y0015494D02*
X00156428Y00092492D01*
X0015621Y0009144D02*
X00156428Y00091658D01*
Y00092492D01*
X0015621Y0006223D02*
Y0009144D01*
X0011938Y0014605D02*
X0016891Y0009652D01*
Y0007493D02*
Y0009652D01*
X0011938Y0014605D02*
Y001778D01*
X0015621Y0006223D02*
X0016891Y0004953D01*
X00626872Y00310854D02*
X0065793D01*
X00658114D01*
X00650894Y00156864D02*
Y0016527D01*
X00844284Y00150248D02*
Y0016154D01*
X00826116Y0013208D02*
X00844284Y00150248D01*
Y0016154D02*
X00849014Y0016627D01*
X00650894Y0016527D02*
Y0016627D01*
Y0016527D02*
X00655624Y0016054D01*
X00718236Y00166336D02*
X00762704D01*
X00718116Y00166216D02*
X00718236Y00166336D01*
X00830014Y00146754D02*
Y0016627D01*
X0082423Y0014097D02*
X00830014Y00146754D01*
X0071501Y0014097D02*
X0082423D01*
X00703846Y00152134D02*
X0071501Y0014097D01*
X00699116Y00166216D02*
X00703846Y00161486D01*
Y00152134D02*
Y00161486D01*
X00698282Y00406216D02*
X00738122Y00366376D01*
X00698282Y00406216D02*
Y00448092D01*
X00738122Y00366376D02*
X00758156D01*
X0066167Y0034163D02*
X0068834Y0031496D01*
X006604Y0022098D02*
X0066294Y0022352D01*
X0050464Y00156894D02*
Y00164112D01*
X00510186Y00151348D02*
Y00151348D01*
X00503536Y00165216D02*
X0050464Y00164112D01*
Y00156894D02*
X00510186Y00151348D01*
Y00151348D02*
X00511674Y0014986D01*
X006096D01*
X0062028Y0016054D02*
X00627164D01*
X006096Y0014986D02*
X0062028Y0016054D01*
X00631894Y0016527D02*
Y0016627D01*
X00627164Y0016054D02*
X00631894Y0016527D01*
X00465474D02*
X00478615Y00152129D01*
Y00152129D02*
X00489774Y0014097D01*
X00635D01*
X00478615Y00152129D02*
Y00152129D01*
X00635Y0014097D02*
X00650894Y00156864D01*
X00522536Y00166216D02*
X00522656Y00166336D01*
X00568394D01*
X00319976Y00162624D02*
X00332522Y00150078D01*
X00319976Y00162624D02*
Y00162996D01*
X00323196Y00166216D01*
X00332522Y00150078D02*
X004318D01*
Y00150596D02*
X00446474Y0016527D01*
X004318Y00150078D02*
Y00150596D01*
X00658114Y00310854D02*
X00658522Y00310446D01*
X006604Y0024384D02*
Y00289568D01*
X00658522Y00291446D02*
X006604Y00289568D01*
X0056642Y0034163D02*
X0066167D01*
X0056261Y0033782D02*
X0056642Y0034163D01*
X0056261Y00246846D02*
Y0033782D01*
X00581152Y00227034D02*
Y00228304D01*
X0056261Y00246846D02*
X00581152Y00228304D01*
X00346075Y0022352D02*
X00417618D01*
X0034544D02*
X00346075D01*
X00417618D02*
X00422402Y00228304D01*
X00255052Y00241984D02*
Y00326172D01*
Y00241984D02*
X00268732Y00228304D01*
X00255052Y00326172D02*
X0025654Y0032766D01*
X00364272D02*
X0036576Y00326172D01*
X0025654Y0032766D02*
X00364272D01*
X0036576Y00243205D02*
Y00326172D01*
X00346075Y0022352D02*
X0036576Y00243205D01*
X00499745Y0022479D02*
X00578908D01*
X004064Y00244306D02*
X00422402Y00228304D01*
Y00227034D02*
Y00228304D01*
X004064Y00244306D02*
Y00317802D01*
X00414988Y0032639D02*
X0051689D01*
X004064Y00317802D02*
X00414988Y0032639D01*
X00520482Y0024511D02*
Y00322798D01*
X00520065Y0024511D02*
X00520482D01*
X0051689Y0032639D02*
X00520482Y00322798D01*
X00499745Y0022479D02*
X00520065Y0024511D01*
X0049911Y0022479D02*
X00499745D01*
X00578908D02*
X00581152Y00227034D01*
X00501042Y00249582D02*
Y00291446D01*
X0049911Y0024765D02*
X00501042Y00249582D01*
X00500634Y00310854D02*
X00501042Y00310446D01*
X00468122Y00310854D02*
X00500634D01*
X00342316Y00166336D02*
X00388054D01*
X00342196Y00166216D02*
X00342316Y00166336D01*
X00323196Y00166216D02*
Y00167216D01*
X0034544Y0024638D02*
Y00290838D01*
X00344832Y00291446D02*
X0034544Y00290838D01*
X00314452Y00310854D02*
X00344424D01*
X00344832Y00310446D01*
X00698282Y00448092D02*
X0070231Y0045212D01*
X00770672D02*
X0077216Y00450632D01*
Y00431165D02*
Y00450632D01*
X0070231Y0045212D02*
X00770672D01*
X00757555Y0041656D02*
X0077216Y00431165D01*
X0075692Y0041656D02*
X00757555D01*
X0071608Y0043942D02*
X0075692D01*
X00714402Y00437742D02*
X0071608Y0043942D01*
X00137822Y00315622D02*
X0013843Y0031623D01*
X00080664Y00315622D02*
X00137822D01*
X00136498Y00432462D02*
X0013843Y0043053D01*
X00080664Y00432462D02*
X00136498D01*
X00080664Y00545492D02*
X00136498D01*
X0013716Y0054483D01*
X00080664Y00657252D02*
X00136552D01*
D20*
X00934104Y00488334D02*
Y00527616D01*
X0093213Y0052959D02*
X00934104Y00527616D01*
X0093213Y0052959D02*
Y0060701D01*
X0096393Y0063881D01*
X0090551Y0045974D02*
X00934104Y00488334D01*
X0090551Y0042545D02*
Y0045974D01*
X0066817Y0058039D02*
X00699466D01*
X006669Y0057912D02*
X0066817Y0058039D01*
X00699466D02*
X00783286Y0066421D01*
X00807866Y00575056D02*
X0084709Y0061428D01*
X007809Y0057912D02*
X00784964Y00575056D01*
X00807866D01*
X0019431Y0003683D02*
Y0007493D01*
X0014605Y0084074D02*
X001651Y0085979D01*
X0014605Y0072263D02*
Y0084074D01*
Y0072263D02*
X001651Y0070358D01*
Y006604D02*
Y0070358D01*
X000762Y0088519D02*
X001651D01*
X0000889Y0081788D02*
X000762Y0088519D01*
X0000889Y0003429D02*
Y0081788D01*
Y0003429D02*
X0003429Y0000889D01*
X0028067D01*
X0032131Y0004953D01*
X0018669Y0021844D02*
X00260138D01*
X0017907Y0002159D02*
X0019431Y0003683D01*
X00144922Y00040498D02*
X0016383Y0002159D01*
X0017907D01*
X0014351Y0004953D02*
X00144922Y00048118D01*
Y00040498D02*
Y00048118D01*
X0014351Y0004953D02*
Y0007493D01*
X0017272Y001778D02*
Y00180338D01*
X00177106Y00184725D01*
Y00186359D02*
X00185938Y0019519D01*
X00177106Y00184725D02*
Y00186359D01*
X0019011Y0019519D02*
X001905Y0019558D01*
X0026289D01*
X00185938Y0019519D02*
X0019011D01*
X00313806Y00107834D02*
Y00144664D01*
X0026289Y0019558D02*
X00313806Y00144664D01*
X00633003Y0005334D02*
X00636813Y0004953D01*
X0058355Y0005334D02*
X00633003D01*
X00636813Y0004953D02*
X0066421D01*
X00580706Y00050496D02*
X0058355Y0005334D01*
X0083058Y000127D02*
X0086741Y0004953D01*
X0055499Y000127D02*
X0083058D01*
X0053721Y0003048D02*
X0055499Y000127D01*
X00470662Y00049165D02*
X00521462D01*
X0042291Y001016D02*
Y00110396D01*
X0040103Y00132276D02*
X0042291Y00110396D01*
X00407054Y00166336D02*
X00424146D01*
X0042545Y0016764D01*
X0014605Y001778D02*
X0016383Y0019558D01*
X0018669Y0021844D01*
X00260138D02*
X00264922Y00223224D01*
X00266192D02*
X00268732Y00225764D01*
Y00227034D01*
X00264922Y00223224D02*
X00266192D01*
X00456496Y00591854D02*
X00605824D01*
X0038354Y0024892D02*
Y0031496D01*
X00456496Y00387916D01*
Y00591854D01*
X00457483Y00592841D01*
X00823543Y0068707D02*
X0094488D01*
X00822273Y0068834D02*
X00823543Y0068707D01*
X0070231Y0068834D02*
X00822273D01*
X00605824Y00591854D02*
X0070231Y0068834D01*
X00169207Y00654254D02*
X00171246D01*
X001651Y00658361D02*
Y006604D01*
Y00658361D02*
X00169207Y00654254D01*
X00171246D02*
X0017272Y0065278D01*
X0026289D01*
X00323816Y00591854D02*
X00437496D01*
X0026289Y0065278D02*
X00323816Y00591854D01*
X0041653Y00084652D02*
Y00084652D01*
X00404662Y0009652D02*
X0041653Y00084652D01*
X003683Y0009652D02*
X00404662D01*
X0041653Y00084652D02*
X00427306Y00073876D01*
X00428306D02*
X00430496Y00071686D01*
X00427306Y00073876D02*
X00428306D01*
X00264726Y00131514D02*
Y00165134D01*
Y00131514D02*
X0032131Y0007493D01*
X00195722Y00087118D02*
X00245726Y00137122D01*
Y00165134D01*
X00313806Y00107834D02*
X0034671Y0007493D01*
X00435137Y00075327D02*
X00470916D01*
X00431496Y00071686D02*
X00435137Y00075327D01*
X00430496Y00071686D02*
X00431496D01*
X00567109Y00073876D02*
X00580706D01*
X00547116Y00074819D02*
X00566166D01*
X00580706Y00073876D02*
X00582896Y00071686D01*
X00566166Y00074819D02*
X00567109Y00073876D01*
X0047117Y00075073D02*
X00496316D01*
X00470916Y00075327D02*
X0047117Y00075073D01*
X00496316D02*
X0049657Y00074819D01*
X00521716D02*
X00547116D01*
X00567243Y00050496D02*
X00580706D01*
X00565912Y00049165D02*
X00567243Y00050496D01*
X00546862Y00049165D02*
X00565912D01*
X00435017D02*
X00470662D01*
X00431496Y00052686D02*
X00435017Y00049165D01*
X00430496Y00052686D02*
X00431496D01*
X00521462Y00049165D02*
X00546862D01*
X0019431Y00087118D02*
Y0009525D01*
X0014605Y0014351D02*
X0019431Y0009525D01*
X0014605Y0014351D02*
Y001778D01*
X0019431Y0007493D02*
X00195722Y00076342D01*
Y00087118D01*
X0034671Y0007493D02*
X003683Y0009652D01*
X0032131Y0004953D02*
X0034671D01*
X0016383Y0019558D02*
Y0031623D01*
Y0043053D02*
Y0054483D01*
Y0031623D02*
Y0043053D01*
X00164465Y00659765D02*
X001651Y006604D01*
X00164465Y00545465D02*
Y00659765D01*
X0016383Y0054483D02*
X00164465Y00545465D01*
X0067564Y0022352D02*
X0068834Y0023622D01*
Y0031496D01*
X0066294Y0022352D02*
X0067564D01*
X0068834Y0031496D02*
X00739756Y00366376D01*
X00758156D01*
X00761346D02*
X0079921D01*
X0090432Y0041156D02*
X0090551Y0041275D01*
X0090182Y0041156D02*
X0090432D01*
X00863898Y00373638D02*
X0090182Y0041156D01*
X008464Y00373638D02*
X00863898D01*
X0090551Y0036449D02*
Y0041156D01*
X0090678Y0036449D02*
X0098933Y0044704D01*
Y0065532D01*
X0098044Y0066421D02*
X0098933Y0065532D01*
X00783286Y0066421D02*
X0098044D01*
X0090551Y0005715D02*
Y0036449D01*
X0090678D01*
X00962552Y00640188D02*
X0096393Y0063881D01*
X00838962Y00640188D02*
X00962552D01*
X0082169Y00622916D02*
X00838962Y00640188D01*
X0082169Y00618598D02*
Y00622916D01*
X0084709Y0061428D02*
Y00618598D01*
X0087249Y0057658D02*
Y00618598D01*
X00849014Y00530252D02*
Y00553104D01*
X0087249Y0057658D01*
X00800885Y00399565D02*
X0080137Y0040005D01*
X008004Y00373638D02*
X00800885Y00374123D01*
Y00399565D01*
X00715698Y00418446D02*
X00717592Y00416552D01*
Y00415256D02*
X00745282Y00387566D01*
X00755966D01*
X00714402Y00418446D02*
X00715698D01*
X00717592Y00415256D02*
Y00416552D01*
X00755966Y00387566D02*
X00758156Y00385376D01*
X00759156D01*
X00797228Y00423448D01*
X0081521D01*
X008234Y00431638D01*
X0079921Y00366376D02*
X008004Y00367566D01*
Y00373638D01*
X008234D02*
Y00431638D01*
X0086741Y0004953D02*
X0089789D01*
X0090551Y0005715D01*
X00457483Y00592841D02*
Y00635983D01*
X0045847Y0063697D01*
X0043329Y00618D02*
Y0063675D01*
Y00618D02*
X00437496Y00613794D01*
X0043307Y0063697D02*
X0043329Y0063675D01*
X00437496Y00591854D02*
Y00613794D01*
D21*
X006669Y0057912D02*
D03*
X007809D02*
D03*
D22*
X00714402Y00418742D02*
D03*
Y00437742D02*
D03*
X00501042Y00310446D02*
D03*
Y00291446D02*
D03*
X00658522Y00310446D02*
D03*
Y00291446D02*
D03*
X00344832Y00310446D02*
D03*
Y00291446D02*
D03*
X00582896Y00052686D02*
D03*
Y00071686D02*
D03*
X00430496Y00052686D02*
D03*
Y00071686D02*
D03*
X00758156Y00366376D02*
D03*
Y00385376D02*
D03*
D23*
X00061664Y00545492D02*
D03*
X00080664D02*
D03*
X00061664Y00432462D02*
D03*
X00080664D02*
D03*
X00061664Y00315622D02*
D03*
X00080664D02*
D03*
X00650894Y0016627D02*
D03*
X00631894D02*
D03*
X00830014D02*
D03*
X00849014D02*
D03*
X00781704Y00166336D02*
D03*
X00762704D02*
D03*
X00699116Y00166216D02*
D03*
X00718116D02*
D03*
X00503536D02*
D03*
X00522536D02*
D03*
X00587394Y00166336D02*
D03*
X00568394D02*
D03*
X00446474Y0016627D02*
D03*
X00465474D02*
D03*
X00342196Y00166216D02*
D03*
X00323196D02*
D03*
X00407054Y00166336D02*
D03*
X00388054D02*
D03*
X0093213Y0052959D02*
D03*
X0091313D02*
D03*
X00080664Y00657252D02*
D03*
X00061664D02*
D03*
X00245726Y00165134D02*
D03*
X00264726D02*
D03*
X00437496Y00591854D02*
D03*
X00456496D02*
D03*
X00830014Y00530252D02*
D03*
X00849014D02*
D03*
D24*
X0049911Y0024765D02*
D03*
Y0022479D02*
D03*
X006604Y0024384D02*
D03*
Y0022098D02*
D03*
X0034544Y0024638D02*
D03*
Y0022352D02*
D03*
X0075692Y0041656D02*
D03*
Y0043942D02*
D03*
D25*
X008004Y00373638D02*
D03*
X008234D02*
D03*
X008464D02*
D03*
D26*
X008234Y00431638D02*
D03*
D27*
X00626872Y00310854D02*
D03*
X00581152D02*
D03*
X00626872Y00227034D02*
D03*
X00581152D02*
D03*
X00468122Y00310854D02*
D03*
X00422402D02*
D03*
X00468122Y00227034D02*
D03*
X00422402D02*
D03*
X00314452Y00310854D02*
D03*
X00268732D02*
D03*
X00314452Y00227034D02*
D03*
X00268732D02*
D03*
D51*
X001651Y0088519D02*
D03*
D52*
Y0085979D02*
D03*
Y0083439D02*
D03*
Y0080899D02*
D03*
Y0078359D02*
D03*
X00546862Y00049165D02*
D03*
X00521462D02*
D03*
X00496189Y00049546D02*
D03*
X00470662Y00049165D02*
D03*
X00470916Y00075327D02*
D03*
X0049657Y00074819D02*
D03*
X00521716D02*
D03*
X00547116D02*
D03*
X0005Y0095D02*
D03*
X0095D02*
D03*
Y0005D02*
D03*
X0005D02*
D03*
D53*
X0086741Y0007493D02*
D03*
X0021971D02*
D03*
X0032131Y0004953D02*
D03*
D54*
X0086741D02*
D03*
X0084201Y0007493D02*
D03*
Y0004953D02*
D03*
X0081661Y0007493D02*
D03*
Y0004953D02*
D03*
X0079121Y0007493D02*
D03*
Y0004953D02*
D03*
X0076581Y0007493D02*
D03*
Y0004953D02*
D03*
X0074041Y0007493D02*
D03*
Y0004953D02*
D03*
X0071501Y0007493D02*
D03*
Y0004953D02*
D03*
X0068961Y0007493D02*
D03*
Y0004953D02*
D03*
X0066421Y0007493D02*
D03*
Y0004953D02*
D03*
X0063881Y0007493D02*
D03*
Y0004953D02*
D03*
X0021971D02*
D03*
X0019431Y0007493D02*
D03*
Y0004953D02*
D03*
X0016891Y0007493D02*
D03*
Y0004953D02*
D03*
X0014351Y0007493D02*
D03*
Y0004953D02*
D03*
X0011811Y0007493D02*
D03*
Y0004953D02*
D03*
X0032131Y0007493D02*
D03*
X0034671Y0004953D02*
D03*
Y0007493D02*
D03*
X0037211Y0004953D02*
D03*
Y0007493D02*
D03*
D55*
X0006731Y001778D02*
D03*
X0009398D02*
D03*
X0011938D02*
D03*
X0014605D02*
D03*
X0017272D02*
D03*
D56*
X0019812D02*
D03*
D57*
X0090551Y0041275D02*
D03*
D58*
Y0042545D02*
D03*
D59*
X001651Y006604D02*
D03*
X0016383Y0031623D02*
D03*
Y0043053D02*
D03*
Y0054483D02*
D03*
D60*
X001397Y006604D02*
D03*
X0013843Y0031623D02*
D03*
Y0043053D02*
D03*
X0013716Y0054483D02*
D03*
D61*
X0082169Y00618598D02*
D03*
X0084709D02*
D03*
X0087249D02*
D03*
D62*
X0096393Y0058801D02*
D03*
X0091313Y0061341D02*
D03*
X0096393Y0063881D02*
D03*
D63*
X0043307Y0063697D02*
D03*
D64*
X0045847D02*
D03*
X0048387D02*
D03*
X0050927D02*
D03*
D65*
X0036117Y0063197D02*
D03*
X0058117D02*
D03*
Y0041197D02*
D03*
X0036117D02*
D03*
D66*
X005842Y0003048D02*
D03*
X0002921Y0007747D02*
D03*
X0004445Y0009779D02*
D03*
X0042291Y001016D02*
D03*
X0040103Y00132276D02*
D03*
X0042545Y0016764D02*
D03*
X0043307Y0013081D02*
D03*
X0046228Y0014732D02*
D03*
X0053721Y0003048D02*
D03*
X0054991Y0009906D02*
D03*
X0048514Y0017907D02*
D03*
X0046863Y0013081D02*
D03*
X0060819Y00091302D02*
D03*
X0060833Y000381D02*
D03*
X0085725Y0018415D02*
D03*
X0055499Y0057023D02*
D03*
X0081026Y0047625D02*
D03*
X0082296Y0011557D02*
D03*
X0088392Y0013716D02*
D03*
X0012319Y0026162D02*
D03*
X0013208Y0023876D02*
D03*
X0038354Y0024892D02*
D03*
X0013081Y0069342D02*
D03*
X0007112Y0009652D02*
D03*
X0094488Y0068707D02*
D03*
X0068834Y0013462D02*
D03*
X0066929Y0013843D02*
D03*
X0067183Y0011938D02*
D03*
X0064897Y0012573D02*
D03*
X0080518Y0052959D02*
D03*
X0080137Y0040005D02*
D03*
M02*
