G04*
G04 #@! TF.GenerationSoftware,Altium Limited,Altium Designer,21.3.2 (30)*
G04*
G04 Layer_Color=255*
%FSTAX44Y44*%
%MOMM*%
G71*
G04*
G04 #@! TF.SameCoordinates,BAFF9CCB-06E3-4415-8BD8-540CAB7B7E79*
G04*
G04*
G04 #@! TF.FilePolarity,Positive*
G04*
G01*
G75*
%ADD51R,1.5240X1.5240*%
%ADD52C,1.5240*%
%ADD53R,1.5000X1.5000*%
%ADD54C,1.5000*%
%ADD55C,1.7000*%
%ADD56R,1.7000X1.7000*%
%ADD57R,1.5000X1.0000*%
%ADD58O,1.5000X1.0000*%
%ADD59O,1.6510X2.5400*%
%ADD60R,1.6510X2.5400*%
%ADD61O,1.6764X2.5400*%
%ADD62C,1.9050*%
%ADD63R,1.5080X1.5080*%
%ADD64C,1.5080*%
%ADD65C,3.0000*%
D51*
X001651Y0088519D02*
D03*
D52*
Y0085979D02*
D03*
Y0083439D02*
D03*
Y0080899D02*
D03*
Y0078359D02*
D03*
X00546862Y00049165D02*
D03*
X00521462D02*
D03*
X00496189Y00049546D02*
D03*
X00470662Y00049165D02*
D03*
X00470916Y00075327D02*
D03*
X0049657Y00074819D02*
D03*
X00521716D02*
D03*
X00547116D02*
D03*
X0005Y0095D02*
D03*
X0095D02*
D03*
Y0005D02*
D03*
X0005D02*
D03*
D53*
X0086741Y0007493D02*
D03*
X0021971D02*
D03*
X0032131Y0004953D02*
D03*
D54*
X0086741D02*
D03*
X0084201Y0007493D02*
D03*
Y0004953D02*
D03*
X0081661Y0007493D02*
D03*
Y0004953D02*
D03*
X0079121Y0007493D02*
D03*
Y0004953D02*
D03*
X0076581Y0007493D02*
D03*
Y0004953D02*
D03*
X0074041Y0007493D02*
D03*
Y0004953D02*
D03*
X0071501Y0007493D02*
D03*
Y0004953D02*
D03*
X0068961Y0007493D02*
D03*
Y0004953D02*
D03*
X0066421Y0007493D02*
D03*
Y0004953D02*
D03*
X0063881Y0007493D02*
D03*
Y0004953D02*
D03*
X0021971D02*
D03*
X0019431Y0007493D02*
D03*
Y0004953D02*
D03*
X0016891Y0007493D02*
D03*
Y0004953D02*
D03*
X0014351Y0007493D02*
D03*
Y0004953D02*
D03*
X0011811Y0007493D02*
D03*
Y0004953D02*
D03*
X0032131Y0007493D02*
D03*
X0034671Y0004953D02*
D03*
Y0007493D02*
D03*
X0037211Y0004953D02*
D03*
Y0007493D02*
D03*
D55*
X0006731Y001778D02*
D03*
X0009398D02*
D03*
X0011938D02*
D03*
X0014605D02*
D03*
X0017272D02*
D03*
D56*
X0019812D02*
D03*
D57*
X0090551Y0041275D02*
D03*
D58*
Y0042545D02*
D03*
D59*
X001651Y006604D02*
D03*
X0016383Y0031623D02*
D03*
Y0043053D02*
D03*
Y0054483D02*
D03*
D60*
X001397Y006604D02*
D03*
X0013843Y0031623D02*
D03*
Y0043053D02*
D03*
X0013716Y0054483D02*
D03*
D61*
X0082169Y00618598D02*
D03*
X0084709D02*
D03*
X0087249D02*
D03*
D62*
X0096393Y0058801D02*
D03*
X0091313Y0061341D02*
D03*
X0096393Y0063881D02*
D03*
D63*
X0043307Y0063697D02*
D03*
D64*
X0045847D02*
D03*
X0048387D02*
D03*
X0050927D02*
D03*
D65*
X0036117Y0063197D02*
D03*
X0058117D02*
D03*
Y0041197D02*
D03*
X0036117D02*
D03*
M02*
