G04*
G04 #@! TF.GenerationSoftware,Altium Limited,Altium Designer,21.3.2 (30)*
G04*
G04 Layer_Color=255*
%FSTAX44Y44*%
%MOMM*%
G71*
G04*
G04 #@! TF.SameCoordinates,A78F6EBE-983C-407D-AA9D-1AE5E041EF29*
G04*
G04*
G04 #@! TF.FilePolarity,Positive*
G04*
G01*
G75*
%ADD17R,1.2700X1.5240*%
%ADD18R,1.2000X1.4000*%
%ADD19R,1.7000X1.7000*%
%ADD20R,1.7000X1.7000*%
%ADD21R,1.4000X1.2000*%
%ADD43R,1.5080X1.5080*%
%ADD44C,1.5080*%
%ADD45C,3.0000*%
%ADD46R,1.6510X2.5400*%
%ADD47O,1.6510X2.5400*%
%ADD48C,1.7000*%
%ADD49C,1.5000*%
%ADD50R,1.5000X1.5000*%
%ADD51C,1.5240*%
%ADD52R,1.5240X1.5240*%
%ADD53R,2.5400X1.6510*%
%ADD54O,2.5400X1.6510*%
%ADD55O,2.0000X1.6000*%
D17*
X00418592Y00220684D02*
D03*
X00464312D02*
D03*
X00418592Y00304504D02*
D03*
X00464312D02*
D03*
X00545592Y00219726D02*
D03*
X00591312D02*
D03*
X00545592Y00303546D02*
D03*
X00591312D02*
D03*
X0034163Y003048D02*
D03*
X0029591D02*
D03*
X0034163Y0022098D02*
D03*
X0029591D02*
D03*
D18*
X00097224Y00583592D02*
D03*
X00116224D02*
D03*
Y0046609D02*
D03*
X00097224D02*
D03*
X00116224Y00238152D02*
D03*
X00097224D02*
D03*
X00116224Y00352121D02*
D03*
X00097224D02*
D03*
D19*
X0026924Y00223514D02*
D03*
Y00256514D02*
D03*
X0051816Y0025526D02*
D03*
Y0022226D02*
D03*
X003937Y00223218D02*
D03*
Y00256218D02*
D03*
X0088138Y0046228D02*
D03*
D20*
X0030225Y0054483D02*
D03*
X0026925D02*
D03*
X0030225Y0046355D02*
D03*
X0026925D02*
D03*
X0030225Y0050419D02*
D03*
X0026925D02*
D03*
X007836Y0068199D02*
D03*
X008166D02*
D03*
D21*
X00239422Y002213D02*
D03*
Y002403D02*
D03*
X00367692Y00221004D02*
D03*
Y00240004D02*
D03*
X00366422Y00285096D02*
D03*
Y00304096D02*
D03*
X00495962Y00285096D02*
D03*
Y00304096D02*
D03*
X00490882Y00239046D02*
D03*
Y00220046D02*
D03*
X00615342Y00304646D02*
D03*
Y00285646D02*
D03*
D43*
X0042672Y0060522D02*
D03*
D44*
X0045212D02*
D03*
X0047752D02*
D03*
X0050292D02*
D03*
D45*
X0035482Y0060022D02*
D03*
X0057482D02*
D03*
Y0038022D02*
D03*
X0035482D02*
D03*
D46*
X00170434Y0024257D02*
D03*
Y0035687D02*
D03*
X00169164Y0047117D02*
D03*
D47*
X00195834Y0024257D02*
D03*
Y0035687D02*
D03*
Y0047117D02*
D03*
D48*
X0085598Y0046228D02*
D03*
X0082931D02*
D03*
X0080264D02*
D03*
X0077724D02*
D03*
X0075057D02*
D03*
D49*
X0066294Y0022606D02*
D03*
Y0025146D02*
D03*
X0068834Y0022606D02*
D03*
Y0025146D02*
D03*
X0071374Y0022606D02*
D03*
Y0025146D02*
D03*
X0073914Y0022606D02*
D03*
Y0025146D02*
D03*
X0076454Y0022606D02*
D03*
Y0025146D02*
D03*
X0078994Y0022606D02*
D03*
Y0025146D02*
D03*
X0081534Y0022606D02*
D03*
Y0025146D02*
D03*
X0084074Y0022606D02*
D03*
Y0025146D02*
D03*
X0086614Y0022606D02*
D03*
Y0025146D02*
D03*
X0089154Y0022606D02*
D03*
D50*
Y0025146D02*
D03*
D51*
X0014986Y0072517D02*
D03*
Y0075057D02*
D03*
Y0077597D02*
D03*
Y0080137D02*
D03*
X001Y009D02*
D03*
X009D02*
D03*
Y001D02*
D03*
X001D02*
D03*
D52*
X0014986Y0082677D02*
D03*
D53*
X0017907Y0057785D02*
D03*
D54*
Y0060325D02*
D03*
D55*
X0087503Y0059309D02*
D03*
Y0061849D02*
D03*
Y0064389D02*
D03*
M02*
