G04*
G04 #@! TF.GenerationSoftware,Altium Limited,Altium Designer,21.3.2 (30)*
G04*
G04 Layer_Color=65535*
%FSTAX44Y44*%
%MOMM*%
G71*
G04*
G04 #@! TF.SameCoordinates,BAFF9CCB-06E3-4415-8BD8-540CAB7B7E79*
G04*
G04*
G04 #@! TF.FilePolarity,Positive*
G04*
G01*
G75*
%ADD10C,0.2540*%
%ADD11C,0.1778*%
%ADD12C,0.2500*%
%ADD13C,0.1524*%
%ADD14C,0.2000*%
%ADD15C,0.5080*%
%ADD16C,0.1016*%
%ADD17C,0.1270*%
%ADD18C,0.2032*%
%ADD19C,0.3810*%
%ADD20C,0.7620*%
G36*
X00546989Y00090186D02*
X00553339Y00096536D01*
X00540639D01*
X00546989Y00090186D01*
D02*
G37*
D10*
X0092551Y004191D02*
G03*
X0092551Y004191I-0002J0D01*
G01*
X0Y0D02*
X01D01*
X0Y01D02*
X01D01*
Y0D02*
Y01D01*
X0Y0D02*
Y01D01*
X0014859Y0076835D02*
Y0089789D01*
X0018034Y0076835D02*
Y0089789D01*
X0014859D02*
X0018034D01*
X0014859Y0076835D02*
X0018034D01*
X007894Y0059912D02*
Y0064462D01*
Y0054362D02*
Y0055912D01*
X006584Y0059912D02*
Y0064462D01*
Y0051362D02*
Y0055912D01*
Y0064462D02*
X007894D01*
X007594Y0051362D02*
X007894Y0054362D01*
X006584Y0051362D02*
X007594D01*
X0053213Y000254D02*
X00554482D01*
X0046482D02*
X00488077D01*
X0046101Y0002921D02*
X0046482Y000254D01*
X00554482D02*
X00559816Y00030734D01*
Y0003302D01*
X0046101Y0002921D02*
Y0003175D01*
X0005334Y001651D02*
Y0019304D01*
X0021209Y001651D02*
Y0019304D01*
X0005334Y001651D02*
X0021209D01*
X0005334Y0019304D02*
X0021209D01*
X00885444Y004191D02*
X00925068D01*
X00894334D02*
X00896112D01*
X00887222Y00426212D02*
X00894334Y004191D01*
X00901446D02*
X00902716D01*
X00890016Y0043053D02*
X00901446Y004191D01*
X00908812D02*
X0090932D01*
X00893318Y00434594D02*
X00908812Y004191D01*
X00916432D02*
X0091821D01*
X00898144Y00437388D02*
X00916432Y004191D01*
X00923544D02*
Y00419354D01*
X00903732Y00439166D02*
X00923544Y00419354D01*
X00924306Y00424688D02*
Y00424942D01*
X00911606Y00437642D02*
X00924306Y00424942D01*
X0Y0D02*
X0000254D01*
X00069852Y00820426D02*
Y00825505D01*
Y00822965D01*
X00085087D01*
Y00820426D01*
Y00825505D01*
X00072392Y00843279D02*
X00069852Y0084074D01*
Y00835661D01*
X00072392Y00833122D01*
X00082548D01*
X00085087Y00835661D01*
Y0084074D01*
X00082548Y00843279D01*
X00085087Y00858514D02*
Y00848357D01*
X00074931Y00858514D01*
X00072392D01*
X00069852Y00855975D01*
Y00850896D01*
X00072392Y00848357D01*
X00636778Y00668777D02*
Y00653542D01*
X00644396D01*
X00646935Y00656081D01*
Y0065862D01*
X00644396Y0066116D01*
X00636778D01*
X00644396D01*
X00646935Y00663699D01*
Y00666238D01*
X00644396Y00668777D01*
X00636778D01*
X00652013D02*
X0066217D01*
Y00666238D01*
X00652013Y00656081D01*
Y00653542D01*
X0066217D01*
X00667248Y00668777D02*
X00677405D01*
Y00666238D01*
X00667248Y00656081D01*
Y00653542D01*
X00677405D01*
X00682483D02*
X00687562D01*
X00685022D01*
Y00668777D01*
X00682483Y00666238D01*
X0064547Y00616259D02*
Y0059912D01*
X006369Y0060769D02*
X00654039D01*
X00527894Y00107946D02*
X0051943D01*
Y00101598D01*
X00523662Y00103714D01*
X00525778D01*
X00527894Y00101598D01*
Y00097366D01*
X00525778Y0009525D01*
X00521546D01*
X0051943Y00097366D01*
X00532126Y00107946D02*
Y00099482D01*
X00536358Y0009525D01*
X0054059Y00099482D01*
Y00107946D01*
X0045974Y0010583D02*
X00461856Y00107946D01*
X00466088D01*
X00468204Y0010583D01*
Y00103714D01*
X00466088Y00101598D01*
X00463972D01*
X00466088D01*
X00468204Y00099482D01*
Y00097366D01*
X00466088Y0009525D01*
X00461856D01*
X0045974Y00097366D01*
X00472436Y0009525D02*
Y00097366D01*
X00474552D01*
Y0009525D01*
X00472436D01*
X00483016Y0010583D02*
X00485132Y00107946D01*
X00489364D01*
X0049148Y0010583D01*
Y00103714D01*
X00489364Y00101598D01*
X00487248D01*
X00489364D01*
X0049148Y00099482D01*
Y00097366D01*
X00489364Y0009525D01*
X00485132D01*
X00483016Y00097366D01*
X00495712Y00107946D02*
Y00099482D01*
X00499944Y0009525D01*
X00504176Y00099482D01*
Y00107946D01*
X00501224Y0002328D02*
X00499108Y00025396D01*
X00494876D01*
X0049276Y0002328D01*
Y00014816D01*
X00494876Y000127D01*
X00499108D01*
X00501224Y00014816D01*
Y00019048D01*
X00496992D01*
X00505456Y000127D02*
Y00025396D01*
X0051392Y000127D01*
Y00025396D01*
X00518152D02*
Y000127D01*
X005245D01*
X00526616Y00014816D01*
Y0002328D01*
X005245Y00025396D01*
X00518152D01*
X0007747Y0021463D02*
X00084241D01*
X00080856D01*
Y00204473D01*
X00087627Y0021463D02*
X00094398Y00204473D01*
Y0021463D02*
X00087627Y00204473D01*
X0010541D02*
Y0021463D01*
X00110488D01*
X00112181Y00212937D01*
Y00209552D01*
X00110488Y00207859D01*
X0010541D01*
X00108796D02*
X00112181Y00204473D01*
X00115567Y0021463D02*
X00122338Y00204473D01*
Y0021463D02*
X00115567Y00204473D01*
X00137581Y00212937D02*
X00135888Y0021463D01*
X00132503D01*
X0013081Y00212937D01*
Y00206166D01*
X00132503Y00204473D01*
X00135888D01*
X00137581Y00206166D01*
Y00209552D01*
X00134196D01*
X00140967Y00204473D02*
Y0021463D01*
X00147738Y00204473D01*
Y0021463D01*
X00151123D02*
Y00204473D01*
X00156202D01*
X00157895Y00206166D01*
Y00212937D01*
X00156202Y0021463D01*
X00151123D01*
X0017018D02*
Y00207859D01*
X00173566Y00204473D01*
X00176951Y00207859D01*
Y0021463D01*
X00187108Y00212937D02*
X00185415Y0021463D01*
X00182029D01*
X00180337Y00212937D01*
Y00206166D01*
X00182029Y00204473D01*
X00185415D01*
X00187108Y00206166D01*
X00197265Y00212937D02*
X00195572Y0021463D01*
X00192186D01*
X00190493Y00212937D01*
Y00206166D01*
X00192186Y00204473D01*
X00195572D01*
X00197265Y00206166D01*
X0016764Y00251455D02*
Y0023622D01*
Y00243838D01*
X00177797D01*
Y00251455D01*
Y0023622D01*
X00193032Y00248916D02*
X00190493Y00251455D01*
X00185414D01*
X00182875Y00248916D01*
Y00238759D01*
X00185414Y0023622D01*
X00190493D01*
X00193032Y00238759D01*
X0019811Y00248916D02*
X00200649Y00251455D01*
X00205728D01*
X00208267Y00248916D01*
Y00238759D01*
X00205728Y0023622D01*
X00200649D01*
X0019811Y00238759D01*
Y00248916D01*
X00223502Y00251455D02*
X00213345D01*
Y00243838D01*
X00218424Y00246377D01*
X00220963D01*
X00223502Y00243838D01*
Y00238759D01*
X00220963Y0023622D01*
X00215884D01*
X00213345Y00238759D01*
X00105831Y00028784D02*
X00104138Y00030477D01*
X00100753D01*
X0009906Y00028784D01*
Y00027091D01*
X00100753Y00025398D01*
X00104138D01*
X00105831Y00023706D01*
Y00022013D01*
X00104138Y0002032D01*
X00100753D01*
X0009906Y00022013D01*
X00109217Y00030477D02*
Y0002032D01*
X00114295D01*
X00115988Y00022013D01*
Y00028784D01*
X00114295Y00030477D01*
X00109217D01*
X00119373Y0002032D02*
Y00027091D01*
X00122759Y00030477D01*
X00126145Y00027091D01*
Y0002032D01*
Y00025398D01*
X00119373D01*
X0016002Y00030477D02*
X00166791D01*
X00163406D01*
Y0002032D01*
X00170177Y00030477D02*
X00176948Y0002032D01*
Y00030477D02*
X00170177Y0002032D01*
X0021209Y00030477D02*
Y0002032D01*
X00217168D01*
X00218861Y00022013D01*
Y00028784D01*
X00217168Y00030477D01*
X0021209D01*
X00222247D02*
X00225632D01*
X00223939D01*
Y0002032D01*
X00222247D01*
X00225632D01*
X00230711D02*
Y00030477D01*
X00237482Y0002032D01*
Y00030477D01*
X00213781Y00104984D02*
X00212088Y00106677D01*
X00208703D01*
X0020701Y00104984D01*
Y00098213D01*
X00208703Y0009652D01*
X00212088D01*
X00213781Y00098213D01*
X00217167Y00106677D02*
Y0009652D01*
X00223938D01*
X00227323Y00106677D02*
Y0009652D01*
Y00099906D01*
X00234095Y00106677D01*
X00229016Y00101598D01*
X00234095Y0009652D01*
X0016129D02*
Y00106677D01*
X00166368D01*
X00168061Y00104984D01*
Y00101598D01*
X00166368Y00099906D01*
X0016129D01*
X00164676D02*
X00168061Y0009652D01*
X00171447Y00106677D02*
X00178218Y0009652D01*
Y00106677D02*
X00171447Y0009652D01*
X00110911Y00104984D02*
X00109218Y00106677D01*
X00105833D01*
X0010414Y00104984D01*
Y00103291D01*
X00105833Y00101598D01*
X00109218D01*
X00110911Y00099906D01*
Y00098213D01*
X00109218Y0009652D01*
X00105833D01*
X0010414Y00098213D01*
X00121068Y00104984D02*
X00119375Y00106677D01*
X0011599D01*
X00114297Y00104984D01*
Y00098213D01*
X0011599Y0009652D01*
X00119375D01*
X00121068Y00098213D01*
X00124453Y00106677D02*
Y0009652D01*
X00131225D01*
X0019685Y00138848D02*
Y00126152D01*
X00203198D01*
X00205314Y00128268D01*
Y00136732D01*
X00203198Y00138848D01*
X0019685D01*
X00215894Y00126152D02*
X00211662D01*
X00209546Y00128268D01*
Y001325D01*
X00211662Y00134616D01*
X00215894D01*
X0021801Y001325D01*
Y00130384D01*
X00209546D01*
X00222242Y00138848D02*
Y00126152D01*
X0022859D01*
X00230706Y00128268D01*
Y00130384D01*
Y001325D01*
X0022859Y00134616D01*
X00222242D01*
X00234938D02*
Y00128268D01*
X00237054Y00126152D01*
X00243402D01*
Y00134616D01*
X00251866Y0012192D02*
X00253981D01*
X00256098Y00124036D01*
Y00134616D01*
X0024975D01*
X00247633Y001325D01*
Y00128268D01*
X0024975Y00126152D01*
X00256098D01*
X003048Y0001778D02*
Y00030476D01*
X00309032Y00026244D01*
X00313264Y00030476D01*
Y0001778D01*
X00319612Y00026244D02*
X00323844D01*
X0032596Y00024128D01*
Y0001778D01*
X00319612D01*
X00317496Y00019896D01*
X00319612Y00022012D01*
X0032596D01*
X00330192Y00026244D02*
X00338656Y0001778D01*
X00334424Y00022012D01*
X00338656Y00026244D01*
X00330192Y0001778D01*
X00342888Y00030476D02*
X00351352D01*
Y0002836D01*
X00342888Y00019896D01*
Y0001778D01*
X00364048D02*
X00355583D01*
X00364048Y00026244D01*
Y0002836D01*
X00361931Y00030476D01*
X003577D01*
X00355583Y0002836D01*
X00368279Y0001778D02*
X00372511D01*
X00370395D01*
Y00030476D01*
X00368279Y0002836D01*
X00378859Y00019896D02*
X00380975Y0001778D01*
X00385207D01*
X00387323Y00019896D01*
Y0002836D01*
X00385207Y00030476D01*
X00380975D01*
X00378859Y0002836D01*
Y00026244D01*
X00380975Y00024128D01*
X00387323D01*
X0034121Y0009525D02*
X00339094Y00097366D01*
Y00101598D01*
X0034121Y00103714D01*
X00343326D01*
X00345442Y00101598D01*
Y00099482D01*
Y00101598D01*
X00347558Y00103714D01*
X00349674D01*
X0035179Y00101598D01*
Y00097366D01*
X00349674Y0009525D01*
X0035179Y00107946D02*
X00349674D01*
Y00110062D01*
X0035179D01*
Y00107946D01*
X0034121Y00118526D02*
X00339094Y00120642D01*
Y00124874D01*
X0034121Y0012699D01*
X00343326D01*
X00345442Y00124874D01*
Y00122758D01*
Y00124874D01*
X00347558Y0012699D01*
X00349674D01*
X0035179Y00124874D01*
Y00120642D01*
X00349674Y00118526D01*
X00339094Y00131222D02*
X00347558D01*
X0035179Y00135454D01*
X00347558Y00139686D01*
X00339094D01*
X00314964Y00103714D02*
Y0009525D01*
X00321312D01*
X00319196Y00099482D01*
Y00101598D01*
X00321312Y00103714D01*
X00325544D01*
X0032766Y00101598D01*
Y00097366D01*
X00325544Y0009525D01*
X00314964Y00107946D02*
X00323428D01*
X0032766Y00112178D01*
X00323428Y0011641D01*
X00314964D01*
X00839467Y00143506D02*
X00836927Y00146045D01*
X00831849D01*
X0082931Y00143506D01*
Y00133349D01*
X00831849Y0013081D01*
X00836927D01*
X00839467Y00133349D01*
X00847084Y0013081D02*
X00852163D01*
X00854702Y00133349D01*
Y00138427D01*
X00852163Y00140967D01*
X00847084D01*
X00844545Y00138427D01*
Y00133349D01*
X00847084Y0013081D01*
X0085978D02*
Y00140967D01*
X00867398D01*
X00869937Y00138427D01*
Y0013081D01*
X00875015D02*
Y00140967D01*
X00882633D01*
X00885172Y00138427D01*
Y0013081D01*
X00897868D02*
X0089279D01*
X0089025Y00133349D01*
Y00138427D01*
X0089279Y00140967D01*
X00897868D01*
X00900407Y00138427D01*
Y00135888D01*
X0089025D01*
X00915642Y00140967D02*
X00908025D01*
X00905485Y00138427D01*
Y00133349D01*
X00908025Y0013081D01*
X00915642D01*
X0092326Y00143506D02*
Y00140967D01*
X0092072D01*
X00925799D01*
X0092326D01*
Y00133349D01*
X00925799Y0013081D01*
X00933416D02*
X00938495D01*
X00935956D01*
Y00140967D01*
X00933416D01*
X00948651Y0013081D02*
X0095373D01*
X00956269Y00133349D01*
Y00138427D01*
X0095373Y00140967D01*
X00948651D01*
X00946112Y00138427D01*
Y00133349D01*
X00948651Y0013081D01*
X00961347D02*
Y00140967D01*
X00968965D01*
X00971504Y00138427D01*
Y0013081D01*
X00916683Y00559812D02*
X00914144Y00562351D01*
X00909065D01*
X00906526Y00559812D01*
Y00549655D01*
X00909065Y00547116D01*
X00914144D01*
X00916683Y00549655D01*
X00921761Y00562351D02*
X00931918D01*
Y00559812D01*
X00921761Y00549655D01*
Y00547116D01*
X00651002Y00327152D02*
Y00342387D01*
X0065862D01*
X00661159Y00339848D01*
Y0033477D01*
X0065862Y0033223D01*
X00651002D01*
X0065608D02*
X00661159Y00327152D01*
X00666237D02*
X00671315D01*
X00668776D01*
Y00342387D01*
X00666237Y00339848D01*
X0068909Y00342387D02*
X00678933D01*
Y0033477D01*
X00684011Y00337309D01*
X00686551D01*
X0068909Y0033477D01*
Y00329691D01*
X00686551Y00327152D01*
X00681472D01*
X00678933Y00329691D01*
X00493522Y00327152D02*
Y00342387D01*
X00501139D01*
X00503679Y00339848D01*
Y0033477D01*
X00501139Y0033223D01*
X00493522D01*
X004986D02*
X00503679Y00327152D01*
X00508757D02*
X00513835D01*
X00511296D01*
Y00342387D01*
X00508757Y00339848D01*
X0053161Y00327152D02*
X00521453D01*
X0053161Y00337309D01*
Y00339848D01*
X00529071Y00342387D01*
X00523992D01*
X00521453Y00339848D01*
X00337312Y00327152D02*
Y00342387D01*
X0034493D01*
X00347469Y00339848D01*
Y0033477D01*
X0034493Y0033223D01*
X00337312D01*
X0034239D02*
X00347469Y00327152D01*
X00352547D02*
X00357625D01*
X00355086D01*
Y00342387D01*
X00352547Y00339848D01*
X00365243D02*
X00367782Y00342387D01*
X0037286D01*
X003754Y00339848D01*
Y00329691D01*
X0037286Y00327152D01*
X00367782D01*
X00365243Y00329691D01*
Y00339848D01*
X00653542Y00274061D02*
Y00258826D01*
X00663699D01*
X00676395D02*
Y00274061D01*
X00668777Y00266444D01*
X00678934D01*
X00492252Y00277871D02*
Y00262636D01*
X00502409D01*
X00507487Y00275332D02*
X00510026Y00277871D01*
X00515105D01*
X00517644Y00275332D01*
Y00272793D01*
X00515105Y00270254D01*
X00512565D01*
X00515105D01*
X00517644Y00267714D01*
Y00265175D01*
X00515105Y00262636D01*
X00510026D01*
X00507487Y00265175D01*
X00338582Y00276601D02*
Y00261366D01*
X00348739D01*
X00363974D02*
X00353817D01*
X00363974Y00271523D01*
Y00274062D01*
X00361435Y00276601D01*
X00356356D01*
X00353817Y00274062D01*
X00273054Y00093982D02*
Y00109218D01*
X00280672D01*
X00283211Y00106678D01*
Y001016D01*
X00280672Y00099061D01*
X00273054D01*
X00288289Y00106678D02*
X00290828Y00109218D01*
X00295907D01*
X00298446Y00106678D01*
Y00104139D01*
X00295907Y001016D01*
X00293368D01*
X00295907D01*
X00298446Y00099061D01*
Y00096522D01*
X00295907Y00093982D01*
X00290828D01*
X00288289Y00096522D01*
X00057154Y00113033D02*
Y00128267D01*
X00064772D01*
X00067311Y00125728D01*
Y0012065D01*
X00064772Y00118111D01*
X00057154D01*
X00080007Y00113033D02*
Y00128267D01*
X00072389Y0012065D01*
X00082546D01*
X00425454Y00017782D02*
Y00033017D01*
X00433072D01*
X00435611Y00030478D01*
Y000254D01*
X00433072Y00022861D01*
X00425454D01*
X00450846Y00017782D02*
X00440689D01*
X00450846Y00027939D01*
Y00030478D01*
X00448307Y00033017D01*
X00443228D01*
X00440689Y00030478D01*
X00585721Y00101088D02*
X00583181Y00103627D01*
X00578103D01*
X00575564Y00101088D01*
Y00090931D01*
X00578103Y00088392D01*
X00583181D01*
X00585721Y00090931D01*
X00598417Y00088392D02*
Y00103627D01*
X00590799Y0009601D01*
X00600956D01*
X00823468Y00547878D02*
Y00563113D01*
X00831086D01*
X00833625Y00560574D01*
Y00555495D01*
X00831086Y00552956D01*
X00823468D01*
X00828546D02*
X00833625Y00547878D01*
X00838703Y00560574D02*
X00841242Y00563113D01*
X00846321D01*
X0084886Y00560574D01*
Y00558035D01*
X00846321Y00555495D01*
X00843781D01*
X00846321D01*
X0084886Y00552956D01*
Y00550417D01*
X00846321Y00547878D01*
X00841242D01*
X00838703Y00550417D01*
X00824989Y00659383D02*
Y0066954D01*
X00822449Y00672079D01*
X00817371D01*
X00814832Y0066954D01*
Y00659383D01*
X00817371Y00656844D01*
X00822449D01*
X0081991Y00661922D02*
X00824989Y00656844D01*
X00822449D02*
X00824989Y00659383D01*
X00830067Y00656844D02*
X00835145D01*
X00832606D01*
Y00672079D01*
X00830067Y0066954D01*
X0057404Y00342387D02*
Y00329691D01*
X00576579Y00327152D01*
X00581657D01*
X00584197Y00329691D01*
Y00342387D01*
X00589275Y00327152D02*
X00596893D01*
X00599432Y00329691D01*
X00596893Y0033223D01*
X00591814D01*
X00589275Y0033477D01*
X00591814Y00337309D01*
X00599432D01*
X00612128Y00327152D02*
X00607049D01*
X0060451Y00329691D01*
Y0033477D01*
X00607049Y00337309D01*
X00612128D01*
X00614667Y0033477D01*
Y0033223D01*
X0060451D01*
X00619745Y00337309D02*
Y00327152D01*
Y0033223D01*
X00622284Y0033477D01*
X00624824Y00337309D01*
X00627363D01*
X0063498Y00327152D02*
X00640059D01*
X00637519D01*
Y00342387D01*
X0063498Y00339848D01*
X00425447Y00344928D02*
X00422907Y00347467D01*
X00417829D01*
X0041529Y00344928D01*
Y00342389D01*
X00417829Y0033985D01*
X00422907D01*
X00425447Y0033731D01*
Y00334771D01*
X00422907Y00332232D01*
X00417829D01*
X0041529Y00334771D01*
X00433064Y00344928D02*
Y00342389D01*
X00430525D01*
X00435603D01*
X00433064D01*
Y00334771D01*
X00435603Y00332232D01*
X0044576D02*
X00450839D01*
X00453378Y00334771D01*
Y0033985D01*
X00450839Y00342389D01*
X0044576D01*
X00443221Y0033985D01*
Y00334771D01*
X0044576Y00332232D01*
X00458456Y00327154D02*
Y00342389D01*
X00466074D01*
X00468613Y0033985D01*
Y00334771D01*
X00466074Y00332232D01*
X00458456D01*
X00473691D02*
X00478769D01*
X0047623D01*
Y00347467D01*
X00473691Y00344928D01*
X00692658Y00183896D02*
Y00199131D01*
X00700275D01*
X00702815Y00196592D01*
Y00191514D01*
X00700275Y00188974D01*
X00692658D01*
X00697736D02*
X00702815Y00183896D01*
X00707893D02*
X00712971D01*
X00710432D01*
Y00199131D01*
X00707893Y00196592D01*
X00728206Y00183896D02*
Y00199131D01*
X00720589Y00191514D01*
X00730746D01*
X00706882Y00454448D02*
Y00469683D01*
X007145D01*
X00717039Y00467144D01*
Y00462066D01*
X007145Y00459526D01*
X00706882D01*
X0071196D02*
X00717039Y00454448D01*
X00732274Y00469683D02*
X00727195Y00467144D01*
X00722117Y00462066D01*
Y00456987D01*
X00724656Y00454448D01*
X00729735D01*
X00732274Y00456987D01*
Y00459526D01*
X00729735Y00462066D01*
X00722117D01*
X00750062Y00469641D02*
Y00454406D01*
X00760219D01*
X00765297D02*
X00770375D01*
X00767836D01*
Y00469641D01*
X00765297Y00467102D01*
X00766315Y00196592D02*
X00763775Y00199131D01*
X00758697D01*
X00756158Y00196592D01*
Y00186435D01*
X00758697Y00183896D01*
X00763775D01*
X00766315Y00186435D01*
X00771393Y00183896D02*
X00776471D01*
X00773932D01*
Y00199131D01*
X00771393Y00196592D01*
X00784089D02*
X00786628Y00199131D01*
X00791706D01*
X00794246Y00196592D01*
Y00186435D01*
X00791706Y00183896D01*
X00786628D01*
X00784089Y00186435D01*
Y00196592D01*
X00572005D02*
X00569465Y00199131D01*
X00564387D01*
X00561848Y00196592D01*
Y00186435D01*
X00564387Y00183896D01*
X00569465D01*
X00572005Y00186435D01*
X00577083D02*
X00579622Y00183896D01*
X00584701D01*
X0058724Y00186435D01*
Y00196592D01*
X00584701Y00199131D01*
X00579622D01*
X00577083Y00196592D01*
Y00194053D01*
X00579622Y00191514D01*
X0058724D01*
X00760981Y00414778D02*
X00758441Y00417317D01*
X00753363D01*
X00750824Y00414778D01*
Y00404621D01*
X00753363Y00402082D01*
X00758441D01*
X00760981Y00404621D01*
X00776216Y00417317D02*
X00766059D01*
Y004097D01*
X00771137Y00412239D01*
X00773677D01*
X00776216Y004097D01*
Y00404621D01*
X00773677Y00402082D01*
X00768598D01*
X00766059Y00404621D01*
X00789432Y00454152D02*
Y00464309D01*
X0079451Y00469387D01*
X00799589Y00464309D01*
Y00454152D01*
Y00461769D01*
X00789432D01*
X00804667Y00454152D02*
Y00469387D01*
X00809745Y00464309D01*
X00814824Y00469387D01*
Y00454152D01*
X00830059Y00466848D02*
X0082752Y00469387D01*
X00822441D01*
X00819902Y00466848D01*
Y00464309D01*
X00822441Y00461769D01*
X0082752D01*
X00830059Y0045923D01*
Y00456691D01*
X0082752Y00454152D01*
X00822441D01*
X00819902Y00456691D01*
X00835137Y00454152D02*
X00840216D01*
X00837676D01*
Y00469387D01*
X00835137Y00466848D01*
X00016515Y00256537D02*
X00021594D01*
X00019054D01*
Y00241303D01*
X00016515D01*
X00021594D01*
X00039368Y00253998D02*
X00036829Y00256537D01*
X0003175D01*
X00029211Y00253998D01*
Y00243842D01*
X0003175Y00241303D01*
X00036829D01*
X00039368Y00243842D01*
X00044446Y00241303D02*
X00049525D01*
X00046986D01*
Y00256537D01*
X00044446Y00253998D01*
X00249425Y00195322D02*
X00246886Y00197861D01*
X00241807D01*
X00239268Y00195322D01*
Y00185165D01*
X00241807Y00182626D01*
X00246886D01*
X00249425Y00185165D01*
X00254503Y00195322D02*
X00257042Y00197861D01*
X00262121D01*
X0026466Y00195322D01*
Y00192783D01*
X00262121Y00190243D01*
X00259581D01*
X00262121D01*
X0026466Y00187704D01*
Y00185165D01*
X00262121Y00182626D01*
X00257042D01*
X00254503Y00185165D01*
X00441195Y00622042D02*
X00438656Y00624581D01*
X00433577D01*
X00431038Y00622042D01*
Y00611885D01*
X00433577Y00609346D01*
X00438656D01*
X00441195Y00611885D01*
X0045643Y00609346D02*
X00446273D01*
X0045643Y00619503D01*
Y00622042D01*
X00453891Y00624581D01*
X00448812D01*
X00446273Y00622042D01*
X00433321Y00101088D02*
X00430782Y00103627D01*
X00425703D01*
X00423164Y00101088D01*
Y00090931D01*
X00425703Y00088392D01*
X00430782D01*
X00433321Y00090931D01*
X00438399Y00088392D02*
X00443477D01*
X00440938D01*
Y00103627D01*
X00438399Y00101088D01*
X00599443Y00119382D02*
Y00134618D01*
X00607061D01*
X006096Y00132078D01*
Y00127D01*
X00607061Y00124461D01*
X00599443D01*
X00614678Y00119382D02*
X00619757D01*
X00617218D01*
Y00134618D01*
X00614678Y00132078D01*
X00903224Y00672079D02*
Y00661922D01*
X00908302Y00656844D01*
X00913381Y00661922D01*
Y00672079D01*
X00918459Y00656844D02*
Y00672079D01*
X00926077D01*
X00928616Y0066954D01*
Y00664462D01*
X00926077Y00661922D01*
X00918459D01*
X00923537D02*
X00928616Y00656844D01*
X00933694D02*
X00938773D01*
X00936233D01*
Y00672079D01*
X00933694Y0066954D01*
X00391163Y00640078D02*
Y00627382D01*
X00393703Y00624842D01*
X00398781D01*
X0040132Y00627382D01*
Y00640078D01*
X00406398Y00624842D02*
X00411477D01*
X00408937D01*
Y00640078D01*
X00406398Y00637538D01*
X00497078Y00183896D02*
Y00199131D01*
X00504696D01*
X00507235Y00196592D01*
Y00191514D01*
X00504696Y00188974D01*
X00497078D01*
X00502156D02*
X00507235Y00183896D01*
X00512313D02*
X00517391D01*
X00514852D01*
Y00199131D01*
X00512313Y00196592D01*
X00525009D02*
X00527548Y00199131D01*
X00532626D01*
X00535166Y00196592D01*
Y00194053D01*
X00532626Y00191514D01*
X00530087D01*
X00532626D01*
X00535166Y00188974D01*
Y00186435D01*
X00532626Y00183896D01*
X00527548D01*
X00525009Y00186435D01*
X00316738Y00183896D02*
Y00199131D01*
X00324356D01*
X00326895Y00196592D01*
Y00191514D01*
X00324356Y00188974D01*
X00316738D01*
X00321816D02*
X00326895Y00183896D01*
X00331973D02*
X00337051D01*
X00334512D01*
Y00199131D01*
X00331973Y00196592D01*
X00344669Y00183896D02*
X00349747D01*
X00347208D01*
Y00199131D01*
X00344669Y00196592D01*
X00823468Y00183896D02*
Y00199131D01*
X00831086D01*
X00833625Y00196592D01*
Y00191514D01*
X00831086Y00188974D01*
X00823468D01*
X00828546D02*
X00833625Y00183896D01*
X00838703Y00186435D02*
X00841242Y00183896D01*
X00846321D01*
X0084886Y00186435D01*
Y00196592D01*
X00846321Y00199131D01*
X00841242D01*
X00838703Y00196592D01*
Y00194053D01*
X00841242Y00191514D01*
X0084886D01*
X00625348Y00183896D02*
Y00199131D01*
X00632966D01*
X00635505Y00196592D01*
Y00191514D01*
X00632966Y00188974D01*
X00625348D01*
X00630426D02*
X00635505Y00183896D01*
X00640583Y00196592D02*
X00643122Y00199131D01*
X00648201D01*
X0065074Y00196592D01*
Y00194053D01*
X00648201Y00191514D01*
X0065074Y00188974D01*
Y00186435D01*
X00648201Y00183896D01*
X00643122D01*
X00640583Y00186435D01*
Y00188974D01*
X00643122Y00191514D01*
X00640583Y00194053D01*
Y00196592D01*
X00643122Y00191514D02*
X00648201D01*
X00439928Y00183896D02*
Y00199131D01*
X00447546D01*
X00450085Y00196592D01*
Y00191514D01*
X00447546Y00188974D01*
X00439928D01*
X00445006D02*
X00450085Y00183896D01*
X00455163Y00199131D02*
X0046532D01*
Y00196592D01*
X00455163Y00186435D01*
Y00183896D01*
X00055118Y00333248D02*
Y00348483D01*
X00062736D01*
X00065275Y00345944D01*
Y00340866D01*
X00062736Y00338326D01*
X00055118D01*
X00060196D02*
X00065275Y00333248D01*
X00077971D02*
Y00348483D01*
X00070353Y00340866D01*
X0008051D01*
X00055118Y00450088D02*
Y00465323D01*
X00062736D01*
X00065275Y00462784D01*
Y00457705D01*
X00062736Y00455166D01*
X00055118D01*
X00060196D02*
X00065275Y00450088D01*
X0008051D02*
X00070353D01*
X0008051Y00460245D01*
Y00462784D01*
X00077971Y00465323D01*
X00072892D01*
X00070353Y00462784D01*
X00055118Y00563118D02*
Y00578353D01*
X00062736D01*
X00065275Y00575814D01*
Y00570736D01*
X00062736Y00568196D01*
X00055118D01*
X00060196D02*
X00065275Y00563118D01*
X00070353D02*
X00075431D01*
X00072892D01*
Y00578353D01*
X00070353Y00575814D01*
X00055118Y00674878D02*
Y00690113D01*
X00062736D01*
X00065275Y00687574D01*
Y00682495D01*
X00062736Y00679956D01*
X00055118D01*
X00060196D02*
X00065275Y00674878D01*
X0008051Y00690113D02*
X00070353D01*
Y00682495D01*
X00075431Y00685035D01*
X00077971D01*
X0008051Y00682495D01*
Y00677417D01*
X00077971Y00674878D01*
X00072892D01*
X00070353Y00677417D01*
X00075971Y00378457D02*
Y00363223D01*
X00081049Y00368301D01*
X00086128Y00363223D01*
Y00378457D01*
X00091206Y00363223D02*
Y00373379D01*
X00096285Y00378457D01*
X00101363Y00373379D01*
Y00363223D01*
Y0037084D01*
X00091206D01*
X00106441Y00363223D02*
Y00378457D01*
X00114059D01*
X00116598Y00375918D01*
Y0037084D01*
X00114059Y00368301D01*
X00106441D01*
X00111519D02*
X00116598Y00363223D01*
X00121676D02*
Y00378457D01*
X00131833Y00363223D01*
Y00378457D01*
X00152146D02*
Y00363223D01*
X00162303D01*
X00167381Y00378457D02*
X0017246D01*
X00169921D01*
Y00363223D01*
X00167381D01*
X0017246D01*
X00190234Y00375918D02*
X00187695Y00378457D01*
X00182617D01*
X00180077Y00375918D01*
Y00365762D01*
X00182617Y00363223D01*
X00187695D01*
X00190234Y00365762D01*
Y0037084D01*
X00185156D01*
X00195312Y00378457D02*
Y00363223D01*
Y0037084D01*
X00205469D01*
Y00378457D01*
Y00363223D01*
X00210548Y00378457D02*
X00220704D01*
X00215626D01*
Y00363223D01*
X00225783D02*
X00230861D01*
X00228322D01*
Y00378457D01*
X00225783Y00375918D01*
X00084858Y00489583D02*
X00082319Y00492122D01*
X0007724D01*
X00074701Y00489583D01*
Y00487044D01*
X0007724Y00484505D01*
X00082319D01*
X00084858Y00481966D01*
Y00479427D01*
X00082319Y00476888D01*
X0007724D01*
X00074701Y00479427D01*
X00089936Y00492122D02*
X00100093D01*
X00095014D01*
Y00476888D01*
X00112789Y00492122D02*
X0010771D01*
X00105171Y00489583D01*
Y00479427D01*
X0010771Y00476888D01*
X00112789D01*
X00115328Y00479427D01*
Y00489583D01*
X00112789Y00492122D01*
X00120406Y00476888D02*
Y00492122D01*
X00128024D01*
X00130563Y00489583D01*
Y00484505D01*
X00128024Y00481966D01*
X00120406D01*
X00150876Y00492122D02*
Y00476888D01*
X00161033D01*
X00166112Y00492122D02*
X0017119D01*
X00168651D01*
Y00476888D01*
X00166112D01*
X0017119D01*
X00188964Y00489583D02*
X00186425Y00492122D01*
X00181347D01*
X00178807Y00489583D01*
Y00479427D01*
X00181347Y00476888D01*
X00186425D01*
X00188964Y00479427D01*
Y00484505D01*
X00183886D01*
X00194042Y00492122D02*
Y00476888D01*
Y00484505D01*
X00204199D01*
Y00492122D01*
Y00476888D01*
X00209277Y00492122D02*
X00219434D01*
X00214356D01*
Y00476888D01*
X00224513D02*
X00229591D01*
X00227052D01*
Y00492122D01*
X00224513Y00489583D01*
X00078509Y00590552D02*
Y00605788D01*
X00086126D01*
X00088665Y00603248D01*
Y0059817D01*
X00086126Y00595631D01*
X00078509D01*
X00083587D02*
X00088665Y00590552D01*
X00093744Y00605788D02*
Y00593092D01*
X00096283Y00590552D01*
X00101361D01*
X001039Y00593092D01*
Y00605788D01*
X00108979Y00590552D02*
Y00605788D01*
X00119135Y00590552D01*
Y00605788D01*
X00139449D02*
Y00590552D01*
X00149606D01*
X00154684Y00605788D02*
X00159762D01*
X00157223D01*
Y00590552D01*
X00154684D01*
X00159762D01*
X00177537Y00603248D02*
X00174997Y00605788D01*
X00169919D01*
X0016738Y00603248D01*
Y00593092D01*
X00169919Y00590552D01*
X00174997D01*
X00177537Y00593092D01*
Y0059817D01*
X00172458D01*
X00182615Y00605788D02*
Y00590552D01*
Y0059817D01*
X00192772D01*
Y00605788D01*
Y00590552D01*
X0019785Y00605788D02*
X00208007D01*
X00202928D01*
Y00590552D01*
X00213085D02*
X00218163D01*
X00215624D01*
Y00605788D01*
X00213085Y00603248D01*
X001232Y00715432D02*
X00121084Y00717548D01*
X00116852D01*
X00114736Y00715432D01*
Y00713316D01*
X00116852Y007112D01*
X00121084D01*
X001232Y00709084D01*
Y00706968D01*
X00121084Y00704852D01*
X00116852D01*
X00114736Y00706968D01*
X00127432Y00717548D02*
Y00706968D01*
X00129548Y00704852D01*
X0013378D01*
X00135896Y00706968D01*
Y00717548D01*
X00140128Y00704852D02*
Y00717548D01*
X00146476D01*
X00148592Y00715432D01*
Y007112D01*
X00146476Y00709084D01*
X00140128D01*
X00152824Y00704852D02*
Y00717548D01*
X00159172D01*
X00161288Y00715432D01*
Y007112D01*
X00159172Y00709084D01*
X00152824D01*
X0016552Y00717548D02*
Y00704852D01*
X00173984D01*
X00178216Y00717548D02*
Y00715432D01*
X00182448Y007112D01*
X0018668Y00715432D01*
Y00717548D01*
X00182448Y007112D02*
Y00704852D01*
X00190912D02*
X00195144D01*
X00193028D01*
Y00717548D01*
X00190912Y00715432D01*
X00892553Y0046507D02*
X00890014Y00467609D01*
X00884935D01*
X00882396Y0046507D01*
Y00454913D01*
X00884935Y00452374D01*
X00890014D01*
X00892553Y00454913D01*
X00907788Y00467609D02*
X00902709Y0046507D01*
X00897631Y00459991D01*
Y00454913D01*
X0090017Y00452374D01*
X00905249D01*
X00907788Y00454913D01*
Y00457452D01*
X00905249Y00459991D01*
X00897631D01*
X00391665Y00196592D02*
X00389126Y00199131D01*
X00384047D01*
X00381508Y00196592D01*
Y00186435D01*
X00384047Y00183896D01*
X00389126D01*
X00391665Y00186435D01*
X00396743Y00196592D02*
X00399282Y00199131D01*
X00404361D01*
X004069Y00196592D01*
Y00194053D01*
X00404361Y00191514D01*
X004069Y00188974D01*
Y00186435D01*
X00404361Y00183896D01*
X00399282D01*
X00396743Y00186435D01*
Y00188974D01*
X00399282Y00191514D01*
X00396743Y00194053D01*
Y00196592D01*
X00399282Y00191514D02*
X00404361D01*
X00259851Y00340062D02*
X00257312Y00342602D01*
X00252234D01*
X00249694Y00340062D01*
Y00337523D01*
X00252234Y00334984D01*
X00257312D01*
X00259851Y00332445D01*
Y00329906D01*
X00257312Y00327366D01*
X00252234D01*
X00249694Y00329906D01*
X00267469Y00340062D02*
Y00337523D01*
X00264929D01*
X00270008D01*
X00267469D01*
Y00329906D01*
X00270008Y00327366D01*
X00280165Y00337523D02*
X00285243D01*
X00287782Y00334984D01*
Y00327366D01*
X00280165D01*
X00277625Y00329906D01*
X00280165Y00332445D01*
X00287782D01*
X0029286Y00337523D02*
Y00327366D01*
Y00332445D01*
X002954Y00334984D01*
X00297939Y00337523D01*
X00300478D01*
X00310635Y00340062D02*
Y00337523D01*
X00308095D01*
X00313174D01*
X00310635D01*
Y00329906D01*
X00313174Y00327366D01*
X00320791D02*
X0032587D01*
X0032333D01*
Y00342602D01*
X00320791Y00340062D01*
D11*
X00177421Y00675821D02*
G03*
X00177531Y00645169I-00026291J-00015421D01*
G01*
X00877555Y00628751D02*
G03*
X00817493Y00629574I-00030219J-00013309D01*
G01*
X0095216Y00639915D02*
G03*
X00910311Y00624052I-00013884J-00026505D01*
G01*
X00910565Y00602768D02*
G03*
X00952414Y00586905I00027965J00010642D01*
G01*
X00177421Y00331651D02*
G03*
X00177531Y00300998I-00026291J-00015421D01*
G01*
X00177421Y00445951D02*
G03*
X00177531Y00415299I-00026291J-00015421D01*
G01*
X00177421Y00560251D02*
G03*
X00177531Y00529599I-00026291J-00015421D01*
G01*
X00534289Y000625D02*
Y00087392D01*
X00457962Y00087519D02*
X00559816D01*
Y00062119D02*
Y00087519D01*
Y00036719D02*
Y00062119D01*
X00457962Y00036719D02*
X00559816D01*
X00457962D02*
Y00087519D01*
X00707544Y00425958D02*
Y0043053D01*
X0072126Y00425958D02*
Y0043053D01*
X00068876Y0055235D02*
X00073448D01*
X00068876Y00538634D02*
X00073448D01*
X00068876Y0043932D02*
X00073448D01*
X00068876Y00425604D02*
X00073448D01*
X00068876Y0032248D02*
X00073448D01*
X00068876Y00308764D02*
X00073448D01*
X00639106Y00159412D02*
X00643678D01*
X00639106Y00173128D02*
X00643678D01*
X005079Y00298662D02*
Y00303234D01*
X00494184Y00298662D02*
Y00303234D01*
X0066538Y00298662D02*
Y00303234D01*
X00651664Y00298662D02*
Y00303234D01*
X00837226Y00173128D02*
X00841798D01*
X00837226Y00159412D02*
X00841798D01*
X00769916Y00173194D02*
X00774488D01*
X00769916Y00159478D02*
X00774488D01*
X00706332Y00173074D02*
X00710904D01*
X00706332Y00159358D02*
X00710904D01*
X00510752Y00173074D02*
X00515324D01*
X00510752Y00159358D02*
X00515324D01*
X00575606Y00173194D02*
X00580178D01*
X00575606Y00159478D02*
X00580178D01*
X00453686Y00173128D02*
X00458258D01*
X00453686Y00159412D02*
X00458258D01*
X0035169Y00298662D02*
Y00303234D01*
X00337974Y00298662D02*
Y00303234D01*
X00330412Y00159358D02*
X00334984D01*
X00330412Y00173074D02*
X00334984D01*
X00395266Y00173194D02*
X00399838D01*
X00395266Y00159478D02*
X00399838D01*
X00920342Y00536448D02*
X00924914D01*
X00920342Y00522732D02*
X00924914D01*
X00177546Y00645414D02*
Y0067564D01*
X00133096Y00677672D02*
X00140716D01*
X00136906Y0067437D02*
Y00681482D01*
X00068876Y00650394D02*
X00073448D01*
X00068876Y0066411D02*
X00073448D01*
X00589754Y00059902D02*
Y00064474D01*
X00576038Y00059902D02*
Y00064474D01*
X00252942Y00158276D02*
X00257514D01*
X00252942Y00171992D02*
X00257514D01*
X00444712Y00584996D02*
X00449284D01*
X00444712Y00598712D02*
X00449284D01*
X00437354Y00059902D02*
Y00064474D01*
X00423638Y00059902D02*
Y00064474D01*
X00837226Y0053711D02*
X00841798D01*
X00837226Y00523394D02*
X00841798D01*
X00817794Y00608378D02*
X00822198Y00602088D01*
X0087376D02*
X00877062Y00608692D01*
X00822198Y00602088D02*
X0087376D01*
X00975106Y00580644D02*
Y00593598D01*
Y0063373D02*
Y00646684D01*
X00901446Y00601726D02*
Y00623951D01*
Y00601726D02*
X00903732Y0058801D01*
X00911606Y00580136D01*
X00956056D01*
X0097155Y00595884D02*
Y00630682D01*
X00911352Y0064643D02*
X00955802D01*
X00903732Y0063881D02*
X00911352Y0064643D01*
X00901446Y00623951D02*
X00903732Y0063881D01*
X00956564Y00596138D02*
Y00630428D01*
X00935228Y00590042D02*
X00942086D01*
Y006096D01*
X00949706D01*
Y00616458D01*
X0094234D02*
X00949706D01*
X0094234D02*
Y00636778D01*
X00934974D02*
X0094234D01*
X00934974Y00616712D02*
Y00636778D01*
X00928624Y00616712D02*
X00934974D01*
X00928624Y00609854D02*
Y00616712D01*
Y00609854D02*
X00935228D01*
Y00590296D02*
Y00609854D01*
X00765014Y00373592D02*
Y00378164D01*
X00751298Y00373592D02*
Y00378164D01*
X00132334Y00333756D02*
X00139954D01*
X00136144Y00330454D02*
Y00337566D01*
X00177546Y00301244D02*
Y0033147D01*
X00132334Y00448056D02*
X00139954D01*
X00136144Y00444754D02*
Y00451866D01*
X00177546Y00415544D02*
Y0044577D01*
X00132334Y00562356D02*
X00139954D01*
X00136144Y00559054D02*
Y00566166D01*
X00177546Y00529844D02*
Y0056007D01*
D12*
X0079115Y00373638D02*
G03*
X0079115Y00373638I-0000125J0D01*
G01*
D13*
X00619252Y00268944D02*
G03*
X00619252Y00268944I-0001524J0D01*
G01*
X00460502D02*
G03*
X00460502Y00268944I-0001524J0D01*
G01*
X00306832D02*
G03*
X00306832Y00268944I-0001524J0D01*
G01*
X00572262Y00300694D02*
X00635762D01*
X00572262Y00237194D02*
Y00300694D01*
X00635762Y00237194D02*
Y00300694D01*
X00572262Y00237194D02*
X00635762D01*
X00413512Y00300694D02*
X00477012D01*
X00413512Y00237194D02*
Y00300694D01*
X00477012Y00237194D02*
Y00300694D01*
X00413512Y00237194D02*
X00477012D01*
X00259842Y00300694D02*
X00323342D01*
X00259842Y00237194D02*
Y00300694D01*
X00323342Y00237194D02*
Y00300694D01*
X00259842Y00237194D02*
X00323342D01*
D14*
X0043217Y0065697D02*
G03*
X0043217Y0065697I-00001J0D01*
G01*
X0062611Y0003683D02*
Y0008763D01*
X0086106D02*
X0088011D01*
Y0003683D02*
Y0008763D01*
X0086106Y0003683D02*
X0088011D01*
X0062611D02*
X0086106D01*
X0062611Y0008763D02*
X0086106D01*
X0010541Y0003683D02*
Y0008763D01*
X0023241Y0003683D02*
Y0008763D01*
X0010541Y0003683D02*
X0023241D01*
X0010541Y0008763D02*
X0023241D01*
X0038481Y0003683D02*
Y0008763D01*
X0030861Y0003683D02*
Y0008763D01*
X0038481D01*
X0030861Y0003683D02*
X0038481D01*
X00336127D02*
X0038481D01*
X00705358Y00410786D02*
Y00424204D01*
Y00410786D02*
X00723392D01*
Y00424204D01*
Y00431954D02*
Y00445786D01*
X00705358Y00431954D02*
Y00445786D01*
X00723392D01*
X0005362Y00536448D02*
Y00554482D01*
Y00536448D02*
X00067452D01*
X0005362Y00554482D02*
X00067452D01*
X00075202D02*
X0008862D01*
Y00536448D02*
Y00554482D01*
X00075202Y00536448D02*
X0008862D01*
X0005362Y00423418D02*
Y00441452D01*
Y00423418D02*
X00067452D01*
X0005362Y00441452D02*
X00067452D01*
X00075202D02*
X0008862D01*
Y00423418D02*
Y00441452D01*
X00075202Y00423418D02*
X0008862D01*
X0005362Y00306578D02*
Y00324612D01*
Y00306578D02*
X00067452D01*
X0005362Y00324612D02*
X00067452D01*
X00075202D02*
X0008862D01*
Y00306578D02*
Y00324612D01*
X00075202Y00306578D02*
X0008862D01*
X00645432Y00157226D02*
X0065885D01*
Y0017526D01*
X00645432D02*
X0065885D01*
X0062385D02*
X00637682D01*
X0062385Y00157226D02*
X00637682D01*
X0062385D02*
Y0017526D01*
X00491998Y0031849D02*
X00510032D01*
X00491998Y00304658D02*
Y0031849D01*
X00510032Y00304658D02*
Y0031849D01*
Y0028349D02*
Y00296908D01*
X00491998Y0028349D02*
X00510032D01*
X00491998D02*
Y00296908D01*
X00649478Y0031849D02*
X00667512D01*
X00649478Y00304658D02*
Y0031849D01*
X00667512Y00304658D02*
Y0031849D01*
Y0028349D02*
Y00296908D01*
X00649478Y0028349D02*
X00667512D01*
X00649478D02*
Y00296908D01*
X0082197Y00157226D02*
Y0017526D01*
Y00157226D02*
X00835802D01*
X0082197Y0017526D02*
X00835802D01*
X00843552D02*
X0085697D01*
Y00157226D02*
Y0017526D01*
X00843552Y00157226D02*
X0085697D01*
X00776242Y0017526D02*
X00789686D01*
X00754634D02*
X00768492D01*
X00754634Y0015748D02*
X00768492D01*
X00776242D02*
X00789686D01*
X00754634D02*
Y0017526D01*
X00789686Y0015748D02*
Y0017526D01*
X0069116D02*
X00704578D01*
X0069116Y00157226D02*
Y0017526D01*
Y00157226D02*
X00704578D01*
X00712328D02*
X0072616D01*
X00712328Y0017526D02*
X0072616D01*
Y00157226D02*
Y0017526D01*
X0049558D02*
X00508998D01*
X0049558Y00157226D02*
Y0017526D01*
Y00157226D02*
X00508998D01*
X00516748D02*
X0053058D01*
X00516748Y0017526D02*
X0053058D01*
Y00157226D02*
Y0017526D01*
X00581932D02*
X00595376D01*
X00560324D02*
X00574182D01*
X00560324Y0015748D02*
X00574182D01*
X00581932D02*
X00595376D01*
X00560324D02*
Y0017526D01*
X00595376Y0015748D02*
Y0017526D01*
X0043843Y00157226D02*
Y0017526D01*
Y00157226D02*
X00452262D01*
X0043843Y0017526D02*
X00452262D01*
X00460012D02*
X0047343D01*
Y00157226D02*
Y0017526D01*
X00460012Y00157226D02*
X0047343D01*
X00335788Y0031849D02*
X00353822D01*
X00335788Y00304658D02*
Y0031849D01*
X00353822Y00304658D02*
Y0031849D01*
Y0028349D02*
Y00296908D01*
X00335788Y0028349D02*
X00353822D01*
X00335788D02*
Y00296908D01*
X0035024Y00157226D02*
Y0017526D01*
X00336408D02*
X0035024D01*
X00336408Y00157226D02*
X0035024D01*
X0031524D02*
X00328658D01*
X0031524D02*
Y0017526D01*
X00328658D01*
X00401592D02*
X00415036D01*
X00379984D02*
X00393842D01*
X00379984Y0015748D02*
X00393842D01*
X00401592D02*
X00415036D01*
X00379984D02*
Y0017526D01*
X00415036Y0015748D02*
Y0017526D01*
X00926668Y00538514D02*
X00940112D01*
X0090506D02*
X00918918D01*
X0090506Y00520734D02*
X00918918D01*
X00926668D02*
X00940112D01*
X0090506D02*
Y00538514D01*
X00940112Y00520734D02*
Y00538514D01*
X00075202Y00648208D02*
X0008862D01*
Y00666242D01*
X00075202D02*
X0008862D01*
X0005362D02*
X00067452D01*
X0005362Y00648208D02*
X00067452D01*
X0005362D02*
Y00666242D01*
X0059182Y00044704D02*
Y00058148D01*
Y00065898D02*
Y00079756D01*
X0057404Y00065898D02*
Y00079756D01*
Y00044704D02*
Y00058148D01*
Y00079756D02*
X0059182D01*
X0057404Y00044704D02*
X0059182D01*
X00237744Y0015621D02*
X00251188D01*
X00258938D02*
X00272796D01*
X00258938Y0017399D02*
X00272796D01*
X00237744D02*
X00251188D01*
X00272796Y0015621D02*
Y0017399D01*
X00237744Y0015621D02*
Y0017399D01*
X00429514Y0058293D02*
X00442958D01*
X00450708D02*
X00464566D01*
X00450708Y0060071D02*
X00464566D01*
X00429514D02*
X00442958D01*
X00464566Y0058293D02*
Y0060071D01*
X00429514Y0058293D02*
Y0060071D01*
X0043942Y00044704D02*
Y00058148D01*
Y00065898D02*
Y00079756D01*
X0042164Y00065898D02*
Y00079756D01*
Y00044704D02*
Y00058148D01*
Y00079756D02*
X0043942D01*
X0042164Y00044704D02*
X0043942D01*
X0082197Y00521208D02*
Y00539242D01*
Y00521208D02*
X00835802D01*
X0082197Y00539242D02*
X00835802D01*
X00843552D02*
X0085697D01*
Y00521208D02*
Y00539242D01*
X00843552Y00521208D02*
X0085697D01*
X007899Y00388638D02*
X008569D01*
X007899Y00416638D02*
X008569D01*
X007899Y00388638D02*
Y00416638D01*
X008569Y00388638D02*
Y00416638D01*
X0076708Y00358394D02*
Y00371838D01*
Y00379588D02*
Y00393446D01*
X007493Y00379588D02*
Y00393446D01*
Y00358394D02*
Y00371838D01*
Y00393446D02*
X0076708D01*
X007493Y00358394D02*
X0076708D01*
D15*
X0092964Y0029972D02*
X0093472Y0029464D01*
X0092964Y0024511D02*
X0093472Y0025019D01*
X0077724Y0029464D02*
X0078232Y0029972D01*
X0077724Y0025019D02*
X0078232Y0024511D01*
X0092964D01*
X0078232Y0029972D02*
X0092964D01*
X0093472Y0025019D02*
Y0029464D01*
X0077724Y0025019D02*
Y0029464D01*
D16*
X0050673Y0022479D02*
X00508D01*
Y0024765D01*
X0050673D02*
X00508D01*
X0049022Y0022479D02*
X0049149D01*
X0049022D02*
Y0024765D01*
X0049149D01*
X0066802Y0022098D02*
X0066929D01*
Y0024384D01*
X0066802D02*
X0066929D01*
X0065151Y0022098D02*
X0065278D01*
X0065151D02*
Y0024384D01*
X0065278D01*
X0035306Y0022352D02*
X0035433D01*
Y0024638D01*
X0035306D02*
X0035433D01*
X0033655Y0022352D02*
X0033782D01*
X0033655D02*
Y0024638D01*
X0033782D01*
X0074803Y0043942D02*
X007493D01*
X0074803Y0041656D02*
Y0043942D01*
Y0041656D02*
X007493D01*
X0076454Y0043942D02*
X0076581D01*
Y0041656D02*
Y0043942D01*
X0076454Y0041656D02*
X0076581D01*
D17*
X0034117Y0065197D02*
X0060117D01*
Y0039197D02*
Y0065197D01*
X0054117Y0039197D02*
X0060117D01*
X0054117D02*
Y0041197D01*
X0040117D02*
X0054117D01*
X0040117Y0039197D02*
Y0041197D01*
X0034117Y0039197D02*
X0040117D01*
X0034117D02*
Y0065197D01*
D18*
X00615106Y0005461D02*
X0062357D01*
X00615106Y00046146D01*
Y0004403D01*
X00617222Y00041914D01*
X00621454D01*
X0062357Y0004403D01*
X00610874D02*
X00608758Y00041914D01*
X00604526D01*
X0060241Y0004403D01*
Y00052494D01*
X00604526Y0005461D01*
X00608758D01*
X00610874Y00052494D01*
Y0004403D01*
X0062357Y0008001D02*
X00619338D01*
X00621454D01*
Y00067314D01*
X0062357Y0006943D01*
X0061299Y00077894D02*
X00610874Y0008001D01*
X00606642D01*
X00604526Y00077894D01*
Y0006943D01*
X00606642Y00067314D01*
X00610874D01*
X0061299Y0006943D01*
Y00071546D01*
X00610874Y00073662D01*
X00604526D01*
X0089281Y0008001D02*
X00888578D01*
X00890694D01*
Y00067314D01*
X0089281Y0006943D01*
X00884346Y0005461D02*
X0089281D01*
X00884346Y00046146D01*
Y0004403D01*
X00886462Y00041914D01*
X00890694D01*
X0089281Y0004403D01*
X00395814Y00082546D02*
X00391582Y0008043D01*
X0038735Y00076198D01*
Y00071966D01*
X00389466Y0006985D01*
X00393698D01*
X00395814Y00071966D01*
Y00074082D01*
X00393698Y00076198D01*
X0038735D01*
X00395814Y00057146D02*
X0038735D01*
Y00050798D01*
X00391582Y00052914D01*
X00393698D01*
X00395814Y00050798D01*
Y00046566D01*
X00393698Y0004445D01*
X00389466D01*
X0038735Y00046566D01*
X00304374Y0006985D02*
X0029591D01*
X00304374Y00078314D01*
Y0008043D01*
X00302258Y00082546D01*
X00298026D01*
X0029591Y0008043D01*
X0030099Y0004445D02*
X00305222D01*
X00303106D01*
Y00057146D01*
X0030099Y0005503D01*
D19*
X0079502Y0026543D02*
Y00280665D01*
X00805177Y0026543D01*
Y00280665D01*
X00810255Y0026543D02*
Y00275587D01*
X00815333Y00280665D01*
X00820412Y00275587D01*
Y0026543D01*
Y00273048D01*
X00810255D01*
X0082549Y0026543D02*
Y00280665D01*
X00833108D01*
X00835647Y00278126D01*
Y00273048D01*
X00833108Y00270508D01*
X0082549D01*
X0085596Y00280665D02*
X00866117D01*
X00861039D01*
Y0026543D01*
X00881352Y00280665D02*
X00871195D01*
Y0026543D01*
X00881352D01*
X00871195Y00273048D02*
X00876274D01*
X0088643Y0026543D02*
Y00275587D01*
X00891509Y00280665D01*
X00896587Y00275587D01*
Y0026543D01*
Y00273048D01*
X0088643D01*
X00901665Y0026543D02*
Y00280665D01*
X00906744Y00275587D01*
X00911822Y00280665D01*
Y0026543D01*
X0095377Y00797149D02*
X00940228D01*
Y00800534D01*
X00943613Y0080392D01*
X0095377D01*
X00943613D01*
X00940228Y00807305D01*
X00943613Y00810691D01*
X0095377D01*
Y00817462D02*
X00940228D01*
Y00820848D01*
X00943613Y00824233D01*
X0095377D01*
X00943613D01*
X00940228Y00827619D01*
X00943613Y00831004D01*
X0095377D01*
Y00837776D02*
X00940228Y00851318D01*
X0095377Y00858089D02*
Y00868246D01*
X00950384Y00871631D01*
X00946999Y00868246D01*
Y00861475D01*
X00943613Y00858089D01*
X00940228Y00861475D01*
Y00871631D01*
X00566413Y00728973D02*
Y00713737D01*
X0057403Y0070612D01*
X00581647Y00713737D01*
Y00728973D01*
X00627353Y00725164D02*
X00623544Y00728973D01*
X00615927D01*
X00612118Y00725164D01*
Y00709929D01*
X00615927Y0070612D01*
X00623544D01*
X00627353Y00709929D01*
X0063497Y00721355D02*
Y00709929D01*
X00638779Y0070612D01*
X00650205D01*
Y00721355D01*
X00657823D02*
Y0070612D01*
Y00713737D01*
X00661632Y00717546D01*
X0066544Y00721355D01*
X00669249D01*
X00680676D02*
Y0070612D01*
Y00713737D01*
X00684484Y00717546D01*
X00688293Y00721355D01*
X00692102D01*
X00714954Y0070612D02*
X00707337D01*
X00703528Y00709929D01*
Y00717546D01*
X00707337Y00721355D01*
X00714954D01*
X00718763Y00717546D01*
Y00713737D01*
X00703528D01*
X00726381Y0070612D02*
Y00721355D01*
X00737807D01*
X00741616Y00717546D01*
Y0070612D01*
X00753042Y00725164D02*
Y00721355D01*
X00749233D01*
X00756851D01*
X00753042D01*
Y00709929D01*
X00756851Y0070612D01*
X00306086Y00728973D02*
Y00713737D01*
X00313704Y0070612D01*
X00321321Y00713737D01*
Y00728973D01*
X00367026Y00725164D02*
X00363218Y00728973D01*
X003556D01*
X00351791Y00725164D01*
Y00721355D01*
X003556Y00717546D01*
X00363218D01*
X00367026Y00713737D01*
Y00709929D01*
X00363218Y0070612D01*
X003556D01*
X00351791Y00709929D01*
X0038607Y0070612D02*
X00378453D01*
X00374644Y00709929D01*
Y00717546D01*
X00378453Y00721355D01*
X0038607D01*
X00389879Y00717546D01*
Y00713737D01*
X00374644D01*
X00401305Y00725164D02*
Y00721355D01*
X00397496D01*
X00405114D01*
X00401305D01*
Y00709929D01*
X00405114Y0070612D01*
D20*
X00221074Y009817D02*
X0023123D01*
X00226152D01*
Y0095123D01*
X00221074D01*
X0023123D01*
X00246465D02*
Y00971543D01*
X002617D01*
X00266779Y00966465D01*
Y0095123D01*
X00282014Y00976622D02*
Y00971543D01*
X00276936D01*
X00287092D01*
X00282014D01*
Y00956308D01*
X00287092Y0095123D01*
X00317562D02*
X00307406D01*
X00302327Y00956308D01*
Y00966465D01*
X00307406Y00971543D01*
X00317562D01*
X00322641Y00966465D01*
Y00961387D01*
X00302327D01*
X00332798Y00971543D02*
Y0095123D01*
Y00961387D01*
X00337876Y00966465D01*
X00342954Y00971543D01*
X00348033D01*
X00368346Y0095123D02*
Y00976622D01*
Y00966465D01*
X00363268D01*
X00373424D01*
X00368346D01*
Y00976622D01*
X00373424Y009817D01*
X00393738Y00971543D02*
X00403895D01*
X00408973Y00966465D01*
Y0095123D01*
X00393738D01*
X00388659Y00956308D01*
X00393738Y00961387D01*
X00408973D01*
X00439443Y00971543D02*
X00424208D01*
X0041913Y00966465D01*
Y00956308D01*
X00424208Y0095123D01*
X00439443D01*
X00464835D02*
X00454678D01*
X004496Y00956308D01*
Y00966465D01*
X00454678Y00971543D01*
X00464835D01*
X00469913Y00966465D01*
Y00961387D01*
X004496D01*
X0051054Y009817D02*
Y0095123D01*
X00525775D01*
X00530853Y00956308D01*
Y00961387D01*
X00525775Y00966465D01*
X0051054D01*
X00525775D01*
X00530853Y00971543D01*
Y00976622D01*
X00525775Y009817D01*
X0051054D01*
X00546088Y0095123D02*
X00556245D01*
X00561324Y00956308D01*
Y00966465D01*
X00556245Y00971543D01*
X00546088D01*
X0054101Y00966465D01*
Y00956308D01*
X00546088Y0095123D01*
X00576559Y00971543D02*
X00586715D01*
X00591794Y00966465D01*
Y0095123D01*
X00576559D01*
X0057148Y00956308D01*
X00576559Y00961387D01*
X00591794D01*
X0060195Y00971543D02*
Y0095123D01*
Y00961387D01*
X00607029Y00966465D01*
X00612107Y00971543D01*
X00617186D01*
X00652734Y009817D02*
Y0095123D01*
X00637499D01*
X00632421Y00956308D01*
Y00966465D01*
X00637499Y00971543D01*
X00652734D01*
X00693361Y009817D02*
Y00961387D01*
X00703518Y0095123D01*
X00713674Y00961387D01*
Y009817D01*
X00744145Y0095123D02*
X00723831D01*
X00744145Y00971543D01*
Y00976622D01*
X00739066Y009817D01*
X00728909D01*
X00723831Y00976622D01*
X00754301Y0095123D02*
Y00956308D01*
X0075938D01*
Y0095123D01*
X00754301D01*
X00779693Y00976622D02*
X00784771Y009817D01*
X00794928D01*
X00800006Y00976622D01*
Y00956308D01*
X00794928Y0095123D01*
X00784771D01*
X00779693Y00956308D01*
Y00976622D01*
M02*
