G04*
G04 #@! TF.GenerationSoftware,Altium Limited,Altium Designer,21.3.2 (30)*
G04*
G04 Layer_Color=32896*
%FSTAX44Y44*%
%MOMM*%
G71*
G04*
G04 #@! TF.SameCoordinates,BAFF9CCB-06E3-4415-8BD8-540CAB7B7E79*
G04*
G04*
G04 #@! TF.FilePolarity,Positive*
G04*
G01*
G75*
%ADD10C,0.2540*%
D10*
X00821269Y00099904D02*
X00822962Y00101597D01*
X00826347D01*
X0082804Y00099904D01*
Y00093133D01*
X00826347Y0009144D01*
X00822962D01*
X00821269Y00093133D01*
X00817883Y00101597D02*
Y0009144D01*
X00811112D01*
X00807727Y00101597D02*
Y0009144D01*
Y00094826D01*
X00800955Y00101597D01*
X00806034Y00096518D01*
X00800955Y0009144D01*
X0087884Y00101597D02*
Y0009144D01*
X00873762D01*
X00872069Y00093133D01*
Y00099904D01*
X00873762Y00101597D01*
X0087884D01*
X00868683Y0009144D02*
X00865298D01*
X00866991D01*
Y00098211D01*
X00868683D01*
X00860219Y0009144D02*
Y00098211D01*
X00855141D01*
X00853448Y00096518D01*
Y0009144D01*
X0075438Y00119377D02*
Y00112606D01*
X00750994Y0010922D01*
X00747609Y00112606D01*
Y00119377D01*
X00742531Y00115991D02*
X00739145D01*
X00737452Y00114298D01*
Y0010922D01*
X00742531D01*
X00744223Y00110913D01*
X00742531Y00112606D01*
X00737452D01*
X00734067Y00115991D02*
Y0010922D01*
Y00112606D01*
X00732374Y00114298D01*
X00730681Y00115991D01*
X00728988D01*
X00799679Y00117684D02*
X00801372Y00119377D01*
X00804757D01*
X0080645Y00117684D01*
Y00115991D01*
X00804757Y00114298D01*
X00801372D01*
X00799679Y00112606D01*
Y00110913D01*
X00801372Y0010922D01*
X00804757D01*
X0080645Y00110913D01*
X00796293Y00119377D02*
Y0010922D01*
X00791215D01*
X00789522Y00110913D01*
Y00117684D01*
X00791215Y00119377D01*
X00796293D01*
X00786137Y0010922D02*
Y00115991D01*
X00782751Y00119377D01*
X00779365Y00115991D01*
Y0010922D01*
Y00114298D01*
X00786137D01*
X00846669Y00117684D02*
X00848362Y00119377D01*
X00851747D01*
X0085344Y00117684D01*
Y00110913D01*
X00851747Y0010922D01*
X00848362D01*
X00846669Y00110913D01*
X00836512Y00117684D02*
X00838205Y00119377D01*
X0084159D01*
X00843283Y00117684D01*
Y00115991D01*
X0084159Y00114298D01*
X00838205D01*
X00836512Y00112606D01*
Y00110913D01*
X00838205Y0010922D01*
X0084159D01*
X00843283Y00110913D01*
X00771739Y00099904D02*
X00773432Y00101597D01*
X00776817D01*
X0077851Y00099904D01*
Y00098211D01*
X00776817Y00096518D01*
X00773432D01*
X00771739Y00094826D01*
Y00093133D01*
X00773432Y0009144D01*
X00776817D01*
X0077851Y00093133D01*
X00761582Y00099904D02*
X00763275Y00101597D01*
X00766661D01*
X00768353Y00099904D01*
Y00093133D01*
X00766661Y0009144D01*
X00763275D01*
X00761582Y00093133D01*
X00758197Y00101597D02*
Y0009144D01*
X00751425D01*
X0067564Y00101597D02*
X00668869D01*
X00672254D01*
Y0009144D01*
X00665483Y00101597D02*
X00658712Y0009144D01*
Y00101597D02*
X00665483Y0009144D01*
X0069977Y0010922D02*
Y00119377D01*
X00694692D01*
X00692999Y00117684D01*
Y00114298D01*
X00694692Y00112606D01*
X0069977D01*
X00696384D02*
X00692999Y0010922D01*
X00689613Y00119377D02*
X00682842Y0010922D01*
Y00119377D02*
X00689613Y0010922D01*
X0073533Y00101597D02*
Y0009144D01*
X00730252D01*
X00728559Y00093133D01*
Y00094826D01*
X00730252Y00096518D01*
X0073533D01*
X00730252D01*
X00728559Y00098211D01*
Y00099904D01*
X00730252Y00101597D01*
X0073533D01*
X00725173Y00098211D02*
Y00093133D01*
X00723481Y0009144D01*
X00718402D01*
Y00098211D01*
X00715017D02*
X00708245D01*
X00715017Y0009144D01*
X00708245D01*
X0070486Y00098211D02*
X00698089D01*
X0070486Y0009144D01*
X00698089D01*
X00728559Y00013544D02*
X00730252Y00015237D01*
X00733637D01*
X0073533Y00013544D01*
Y00011851D01*
X00733637Y00010158D01*
X00730252D01*
X00728559Y00008466D01*
Y00006773D01*
X00730252Y0000508D01*
X00733637D01*
X0073533Y00006773D01*
X00725173Y00015237D02*
X00718402D01*
X00721788D01*
Y0000508D01*
X00715017Y00003387D02*
X00708245D01*
X0070486Y00015237D02*
Y0000508D01*
X00698089D01*
X0070866Y00032592D02*
Y00022436D01*
X00705274Y00025821D01*
X00701889Y00022436D01*
Y00032592D01*
X00696811Y00029207D02*
X00693425D01*
X00691732Y00027514D01*
Y00022436D01*
X00696811D01*
X00698503Y00024128D01*
X00696811Y00025821D01*
X00691732D01*
X00688347Y00029207D02*
Y00022436D01*
Y00025821D01*
X00686654Y00027514D01*
X00684961Y00029207D01*
X00683268D01*
X0067819Y00022436D02*
Y00029207D01*
X00673111D01*
X00671419Y00027514D01*
Y00022436D01*
X00668869Y00013544D02*
X00670562Y00015237D01*
X00673947D01*
X0067564Y00013544D01*
Y00006773D01*
X00673947Y0000508D01*
X00670562D01*
X00668869Y00006773D01*
Y00010158D01*
X00672254D01*
X00665483Y0000508D02*
Y00015237D01*
X00658712Y0000508D01*
Y00015237D01*
X00655327D02*
Y0000508D01*
X00650248D01*
X00648555Y00006773D01*
Y00013544D01*
X00650248Y00015237D01*
X00655327D01*
X00642199Y000309D02*
X00643892Y00032592D01*
X00647277D01*
X0064897Y000309D01*
Y00024128D01*
X00647277Y00022436D01*
X00643892D01*
X00642199Y00024128D01*
Y00027514D01*
X00645584D01*
X00638813Y00022436D02*
Y00032592D01*
X00632042Y00022436D01*
Y00032592D01*
X00628657D02*
Y00022436D01*
X00623578D01*
X00621885Y00024128D01*
Y000309D01*
X00623578Y00032592D01*
X00628657D01*
X0078359Y00015237D02*
Y00006773D01*
X00781897Y0000508D01*
X00778512D01*
X00776819Y00006773D01*
Y00015237D01*
X00773433Y0000508D02*
X00768355D01*
X00766662Y00006773D01*
X00768355Y00008466D01*
X0077174D01*
X00773433Y00010158D01*
X0077174Y00011851D01*
X00766662D01*
X00763277Y00015237D02*
Y0000508D01*
X00758198D01*
X00756505Y00006773D01*
Y00008466D01*
X00758198Y00010158D01*
X00763277D01*
X00758198D01*
X00756505Y00011851D01*
Y00013544D01*
X00758198Y00015237D01*
X00763277D01*
X0075312D02*
X00746349D01*
X00749734D01*
Y0000508D01*
X00849209Y000309D02*
X00850902Y00032592D01*
X00854287D01*
X0085598Y000309D01*
Y00024128D01*
X00854287Y00022436D01*
X00850902D01*
X00849209Y00024128D01*
Y00027514D01*
X00852594D01*
X00845823Y00022436D02*
Y00032592D01*
X00839052Y00022436D01*
Y00032592D01*
X00835667D02*
Y00022436D01*
X00830588D01*
X00828895Y00024128D01*
Y000309D01*
X00830588Y00032592D01*
X00835667D01*
X00808569Y000309D02*
X00810262Y00032592D01*
X00813647D01*
X0081534Y000309D01*
Y00029207D01*
X00813647Y00027514D01*
X00810262D01*
X00808569Y00025821D01*
Y00024128D01*
X00810262Y00022436D01*
X00813647D01*
X0081534Y00024128D01*
X00803491Y000309D02*
Y00029207D01*
X00805183D01*
X00801798D01*
X00803491D01*
Y00024128D01*
X00801798Y00022436D01*
X00796719Y0001905D02*
Y00029207D01*
X00791641D01*
X00789948Y00027514D01*
Y00024128D01*
X00791641Y00022436D01*
X00796719D01*
X00786563Y00032592D02*
Y00022436D01*
X00781484D01*
X00779791Y00024128D01*
Y00025821D01*
X00781484Y00027514D01*
X00786563D01*
X00781484D01*
X00779791Y00029207D01*
Y000309D01*
X00781484Y00032592D01*
X00786563D01*
X00776406D02*
X00769635D01*
X0077302D01*
Y00022436D01*
X0075057D02*
Y00032592D01*
X00745492D01*
X00743799Y000309D01*
Y00027514D01*
X00745492Y00025821D01*
X0075057D01*
X00747184D02*
X00743799Y00022436D01*
X00740413Y00020743D02*
X00733642D01*
X00730257Y00032592D02*
Y00022436D01*
X00723485D01*
X00872069Y00015237D02*
X0087884D01*
Y00010158D01*
X00875454Y00011851D01*
X00873762D01*
X00872069Y00010158D01*
Y00006773D01*
X00873762Y0000508D01*
X00877147D01*
X0087884Y00006773D01*
X00868683Y00015237D02*
Y00008466D01*
X00865298Y0000508D01*
X00861912Y00008466D01*
Y00015237D01*
X00837779Y00013544D02*
X00839472Y00015237D01*
X00842857D01*
X0084455Y00013544D01*
Y00011851D01*
X00842857Y00010158D01*
X00839472D01*
X00837779Y00008466D01*
Y00006773D01*
X00839472Y0000508D01*
X00842857D01*
X0084455Y00006773D01*
X00832701Y00013544D02*
Y00011851D01*
X00834393D01*
X00831008D01*
X00832701D01*
Y00006773D01*
X00831008Y0000508D01*
X00825929Y00011851D02*
Y0000508D01*
Y00008466D01*
X00824237Y00010158D01*
X00822544Y00011851D01*
X00820851D01*
X00815773Y00015237D02*
Y0000508D01*
X00810694D01*
X00809001Y00006773D01*
Y00008466D01*
X00810694Y00010158D01*
X00815773D01*
X00810694D01*
X00809001Y00011851D01*
Y00013544D01*
X00810694Y00015237D01*
X00815773D01*
X00805616D02*
X00798845D01*
X0080223D01*
Y0000508D01*
M02*
