M48
;Layer_Color=9474304
;FILE_FORMAT=4:4
METRIC,LZ
;TYPE=PLATED
T1F00S00C0.7112
T2F00S00C0.7620
T3F00S00C0.8000
T4F00S00C0.8128
T5F00S00C0.9000
T6F00S00C1.0000
T7F00S00C1.1000
T8F00S00C2.0000
T9F00S00C3.2000
%
T01
X0039878Y0030099
X0051689Y0029972
X0050292Y003429
X0056007Y0028194
X00617511Y00256249
X0065913Y0030988
X00679097Y00309527
X0062992Y0038354
T02
X0014986Y0072517
Y0075057
Y0077597
Y0080137
Y0082677
T03
X0087503Y0059309
Y0061849
Y0064389
T04
X00170434Y0024257
X00195834
Y0035687
X00170434
X00169164Y0047117
X00195834
X0017907Y0057785
Y0060325
T05
X0066294Y0022606
Y0025146
X0068834
Y0022606
X0071374
Y0025146
X0073914
Y0022606
X0076454
Y0025146
X0078994
Y0022606
X0081534
Y0025146
X0084074
Y0022606
X0086614
Y0025146
X0089154
Y0022606
T06
X0042672Y0060522
X0045212
X0047752
X0050292
T07
X0080264Y0046228
X0082931
X0085598
X0088138
X0077724
X0075057
T08
X0035482Y0038022
X0057482
Y0060022
X0035482
T09
X001Y001
X009
X001Y009
X009
M30
