G04*
G04 #@! TF.GenerationSoftware,Altium Limited,Altium Designer,21.3.2 (30)*
G04*
G04 Layer_Physical_Order=2*
G04 Layer_Color=16711680*
%FSTAX44Y44*%
%MOMM*%
G71*
G04*
G04 #@! TF.SameCoordinates,BAFF9CCB-06E3-4415-8BD8-540CAB7B7E79*
G04*
G04*
G04 #@! TF.FilePolarity,Positive*
G04*
G01*
G75*
%ADD10C,0.2540*%
%ADD20C,0.7620*%
%ADD51R,1.5240X1.5240*%
%ADD52C,1.5240*%
%ADD53R,1.5000X1.5000*%
%ADD54C,1.5000*%
%ADD55C,1.7000*%
%ADD56R,1.7000X1.7000*%
%ADD57R,1.5000X1.0000*%
%ADD58O,1.5000X1.0000*%
%ADD59O,1.6510X2.5400*%
%ADD60R,1.6510X2.5400*%
%ADD61O,1.6764X2.5400*%
%ADD62C,1.9050*%
%ADD63R,1.5080X1.5080*%
%ADD64C,1.5080*%
%ADD65C,3.0000*%
%ADD66C,1.2700*%
G36*
X00520741Y00650717D02*
X00520307Y00647177D01*
X0051525Y00645246D01*
X00513445Y0064705D01*
X00509102D01*
X0050889Y00647562D01*
X00495676Y00660776D01*
X0049276Y00661984D01*
X0048133D01*
X00478414Y00660776D01*
X00468254Y00650616D01*
X00467671Y00649209D01*
X00462645Y0064705D01*
X00454295D01*
X00454258Y00647014D01*
X00404936Y00696336D01*
X0040202Y00697544D01*
X00139258D01*
X00134492Y0070231D01*
X00127128D01*
X0012192Y00697102D01*
Y00689738D01*
X00127128Y0068453D01*
X00134492D01*
X00139258Y00689296D01*
X00400312D01*
X00437865Y00651743D01*
X00435921Y0064705D01*
X0043434D01*
Y0063697D01*
Y0062689D01*
X0044315D01*
Y00633884D01*
X0044823Y00636599D01*
X0044839Y00636493D01*
Y00632795D01*
X00454295Y0062689D01*
X00462645D01*
X00467046Y00625067D01*
Y00596068D01*
X00179776Y00308798D01*
X00175469Y00311675D01*
X00175514Y00311785D01*
Y0031496D01*
X0016383D01*
Y0031623D01*
X0016256D01*
Y00331833D01*
X00155568Y00328937D01*
X00154305Y00325888D01*
X00149225Y00326899D01*
Y0033147D01*
X00127635D01*
Y0030099D01*
X00149225D01*
Y00305561D01*
X00154305Y00306572D01*
X00155568Y00303523D01*
X0016383Y00300101D01*
X0016394Y00300146D01*
X00166817Y00295839D01*
X00137597Y00266619D01*
X00130763D01*
X00126872Y0027051D01*
X00119508D01*
X001143Y00265302D01*
Y00257938D01*
X00119508Y0025273D01*
X00126872D01*
X0013208Y00257938D01*
Y00258372D01*
X00138675D01*
X00139958Y00256725D01*
X00141166Y00253678D01*
X00135138Y0024765D01*
X00128398D01*
X0012319Y00242442D01*
Y00235078D01*
X00128398Y0022987D01*
X00135762D01*
X0014097Y00235078D01*
Y00241818D01*
X00475053Y00575901D01*
X00479746Y00573957D01*
Y0029083D01*
X00480954Y00287914D01*
X00636951Y00131917D01*
X00635439Y00126281D01*
X00635Y00126044D01*
X00477969D01*
X0047752Y00127128D01*
Y00133868D01*
X00488056Y00144404D01*
X00489264Y0014732D01*
Y00170622D01*
X0049403Y00175388D01*
Y00182752D01*
X00488822Y0018796D01*
X00481458D01*
X0047625Y00182752D01*
Y00175388D01*
X00481016Y00170622D01*
Y00149028D01*
X0047625Y00144262D01*
X0047117Y00146366D01*
Y00151002D01*
X00465962Y0015621D01*
X00458598D01*
X00453832Y00151444D01*
X0044831D01*
X00445394Y00150236D01*
X00434858Y001397D01*
X00429388D01*
X0042418Y00134492D01*
Y00127128D01*
X00423731Y00126044D01*
X00410976D01*
X0040992Y00128594D01*
Y00131006D01*
X0039214D01*
Y00128594D01*
X00391084Y00126044D01*
X00216338D01*
X00197226Y00145156D01*
X0019431Y00146364D01*
X00156648D01*
X0014123Y00161782D01*
X00143436Y0016676D01*
X0014478D01*
Y001778D01*
Y0018884D01*
X00141477D01*
X00135357Y00182719D01*
X00132715Y00182534D01*
X00130073Y00182719D01*
X00123953Y0018884D01*
X00114807D01*
X00109585Y00183617D01*
X0010668Y00182826D01*
X00103776Y00183617D01*
X00098553Y0018884D01*
X00089407D01*
X00083287Y00182719D01*
X00080645Y00182534D01*
X00078004Y00182719D01*
X00071883Y0018884D01*
X00062737D01*
X0005627Y00182373D01*
Y00173227D01*
X00062737Y0016676D01*
X00071883D01*
X00078004Y00172881D01*
X00080645Y00173066D01*
X00083287Y00172881D01*
X00089407Y0016676D01*
X00089856D01*
Y0015113D01*
X00091064Y00148214D01*
X00108154Y00131124D01*
X0010605Y00126044D01*
X00051456D01*
X00042224Y00135276D01*
Y00654882D01*
X00160832Y0077349D01*
X00160892Y0077343D01*
X00169308D01*
X0017526Y00779382D01*
Y00779466D01*
X00391992D01*
X00520741Y00650717D01*
D02*
G37*
G36*
X00995366Y00004124D02*
X00712553D01*
X00710609Y00008817D01*
X00740942Y0003915D01*
X00741083Y0003949D01*
X00744569D01*
X0075045Y00045371D01*
Y00053689D01*
X00744569Y0005957D01*
X00736251D01*
X0073037Y00053689D01*
Y00045371D01*
X00732935Y00042807D01*
X00699332Y00009204D01*
X00693503D01*
X00691559Y00013897D01*
X00715644Y00037982D01*
X00716268Y0003949D01*
X00719169D01*
X0072505Y00045371D01*
Y00053689D01*
X00719169Y0005957D01*
X00710851D01*
X0070497Y00053689D01*
Y00045371D01*
X0070817Y00042172D01*
X00681552Y00015554D01*
X00668103D01*
X00666159Y00020247D01*
X00685427Y00039515D01*
X00685451Y0003949D01*
X00693769D01*
X0069965Y00045371D01*
Y00053689D01*
X00693769Y0005957D01*
X00685451D01*
X0067957Y00053689D01*
Y00050288D01*
X0067933Y00050136D01*
X0067425Y00052933D01*
Y00053689D01*
X00668369Y0005957D01*
X0066548D01*
Y0004953D01*
Y0003949D01*
X00666554D01*
X00668862Y00034615D01*
X00656152Y00021904D01*
X00594834D01*
X0059289Y00026597D01*
X0059309Y00026798D01*
Y00034162D01*
X00588324Y00038928D01*
Y0006477D01*
X00587116Y00067686D01*
X005588Y00096002D01*
Y00102742D01*
X00557716Y00103826D01*
X00559821Y00108906D01*
X00619322D01*
X00638178Y0009005D01*
X00636074Y0008497D01*
X00634651D01*
X0062877Y00079089D01*
Y00070771D01*
X00634651Y0006489D01*
X00642969D01*
X0064885Y00070771D01*
X0065393Y00070844D01*
X0065417Y00070771D01*
X00660051Y0006489D01*
X00668369D01*
X0067425Y00070771D01*
X0067449Y00070891D01*
X0067957Y00070771D01*
X00685451Y0006489D01*
X00693769D01*
X0069965Y00070771D01*
Y00079089D01*
X00693769Y0008497D01*
X00685451D01*
X00681919Y00081438D01*
X00681314D01*
X00650605Y00112147D01*
X0065255Y0011684D01*
X00652652D01*
X0065786Y00122048D01*
X0066294Y00118653D01*
Y00115698D01*
X00668148Y0011049D01*
X00675512D01*
X0068072Y00115698D01*
Y00122483D01*
X00684494Y00125595D01*
X00684695Y0012573D01*
X00692022D01*
X0069723Y00130938D01*
Y00138302D01*
X00692022Y0014351D01*
X00685282D01*
X00543874Y00284918D01*
Y0056159D01*
X00548954Y00563694D01*
X00551308Y0056134D01*
X00558672D01*
X0056388Y00566548D01*
Y00573912D01*
X00559114Y00578678D01*
Y00623343D01*
X00564194Y00624141D01*
X00573905Y0061443D01*
X00588435D01*
X0059871Y00624705D01*
Y00639235D01*
X00588435Y0064951D01*
X00573905D01*
X00564194Y00639799D01*
X00559114Y00640597D01*
Y0066675D01*
X00557906Y00669666D01*
X00390266Y00837306D01*
X0038735Y00838514D01*
X0017526D01*
Y00838598D01*
X00169308Y0084455D01*
X00160892D01*
X0015494Y00838598D01*
Y00830182D01*
X00155Y00830122D01*
X00019944Y00695066D01*
X00018736Y0069215D01*
Y0013208D01*
X00019944Y00129164D01*
X00038349Y00110758D01*
X00040732Y0010674D01*
X00038279Y00104192D01*
X0003556Y00101472D01*
Y00094108D01*
X00040768Y000889D01*
X00047508D01*
X00059376Y00077032D01*
Y00072917D01*
X0005768Y0006854D01*
X0004232D01*
X00032064Y00058283D01*
X00026984Y00059138D01*
Y0006858D01*
X00032892D01*
X000381Y00073788D01*
Y00081152D01*
X00032892Y0008636D01*
X00025528D01*
X0002032Y00081152D01*
Y00079272D01*
X00019944Y00079116D01*
X00018736Y000762D01*
Y0002413D01*
X00019944Y00021214D01*
X00032341Y00008817D01*
X00030397Y00004124D01*
X00004124D01*
Y00995366D01*
X00995366D01*
Y00004124D01*
D02*
G37*
G36*
X00550866Y00665042D02*
Y00581473D01*
X00548954Y00580065D01*
X00543874Y00582634D01*
Y0066294D01*
X00542666Y00665856D01*
X00396616Y00811906D01*
X003937Y00813114D01*
X0017526D01*
Y00813198D01*
X00169308Y0081915D01*
X00168214D01*
X00165797Y00823618D01*
X00166197Y0082423D01*
X00169308D01*
X0017526Y00830182D01*
Y00830266D01*
X00385642D01*
X00550866Y00665042D01*
D02*
G37*
G36*
X0015494Y00811214D02*
Y00804782D01*
X00160892Y0079883D01*
X00169308D01*
X0017526Y00804782D01*
Y00804866D01*
X00391992D01*
X00535626Y00661232D01*
Y00290445D01*
X00530546Y00287673D01*
X00529904Y00288086D01*
Y0065151D01*
X00528696Y00654426D01*
X00396616Y00786506D01*
X003937Y00787714D01*
X0017526D01*
Y00787798D01*
X00169308Y0079375D01*
X00160892D01*
X0015494Y00787798D01*
Y00779382D01*
X00155Y00779322D01*
X00035184Y00659506D01*
X00033976Y0065659D01*
Y00136869D01*
X00028896Y00134318D01*
X00026984Y00135741D01*
Y00690442D01*
X00149944Y00813402D01*
X0015494Y00811214D01*
D02*
G37*
G36*
X00521656Y00627917D02*
Y0028257D01*
X0052001Y00281287D01*
X00516963Y00280079D01*
X00513394Y00283648D01*
Y00626566D01*
X00517302Y0062972D01*
X00521656Y00627917D01*
D02*
G37*
G36*
X00501416Y00643372D02*
X0049919Y00641145D01*
Y00632795D01*
X00505095Y0062689D01*
X00505146D01*
Y0028257D01*
X005035Y00281287D01*
X00500453Y00280079D01*
X00487994Y00292538D01*
Y0059055D01*
Y0062689D01*
X00488045D01*
X0049395Y00632795D01*
Y00641145D01*
X00488045Y0064705D01*
X00487838D01*
X00485163Y0065213D01*
X00486082Y00653469D01*
X00491061Y00653727D01*
X00501416Y00643372D01*
D02*
G37*
G36*
X00109585Y00171983D02*
X00114807Y0016676D01*
X00123953D01*
X0012427Y00167078D01*
X00150064Y00141284D01*
X0014796Y00136204D01*
X00114738D01*
X00098104Y00152838D01*
Y0016676D01*
X00098553D01*
X00103776Y00171983D01*
X0010668Y00172775D01*
X00109585Y00171983D01*
D02*
G37*
G36*
X00454727Y001423D02*
X00458598Y0013843D01*
X00460085Y00134838D01*
X0045974Y00134492D01*
Y00127128D01*
X00458765Y00124774D01*
X00442935D01*
X0044196Y00127128D01*
Y00134492D01*
X00441637Y00134815D01*
X00449123Y001423D01*
X00454727D01*
D02*
G37*
G36*
X00659959Y00091129D02*
X00658445Y00085635D01*
X00655358Y00084534D01*
X00628074Y00111818D01*
X00629951Y00116647D01*
X00633974Y00117114D01*
X00659959Y00091129D01*
D02*
G37*
G36*
X0020828Y00108906D02*
X00412519D01*
X0041402Y00105282D01*
Y0010287D01*
X004318D01*
Y00105282D01*
X00433301Y00108906D01*
X0054D01*
X00542104Y00103826D01*
X0054102Y00102742D01*
Y00095378D01*
X00546228Y0009017D01*
X0054876D01*
X0054881Y00090059D01*
X00545541Y00084979D01*
X00542908D01*
X00536956Y00079027D01*
Y00070611D01*
X00542908Y00064659D01*
X00546286D01*
X00549293Y00059579D01*
X00549153Y00059325D01*
X00548132D01*
Y00049165D01*
X00546862D01*
Y00047895D01*
X00536702D01*
Y00044957D01*
X00537209Y0004445D01*
X00535104Y0003937D01*
X00533528D01*
X00532239Y00038082D01*
X00531998Y00038149D01*
X00530504Y00043838D01*
X00531622Y00044957D01*
Y00047895D01*
X00521462D01*
Y00049165D01*
X00520192D01*
Y00059325D01*
X00517254D01*
X00511429Y000535D01*
X00506349Y0005368D01*
Y00053754D01*
X00500524Y00059579D01*
X00500704Y00064659D01*
X00500778D01*
X0050655Y00070431D01*
X00509143Y00070524D01*
X00511736Y00070431D01*
X00517508Y00064659D01*
X00525924D01*
X00531876Y00070611D01*
Y00079027D01*
X00525924Y00084979D01*
X00517508D01*
X00511736Y00079207D01*
X00509143Y00079114D01*
X0050655Y00079207D01*
X00500778Y00084979D01*
X00492362D01*
X0048641Y00079027D01*
Y00070611D01*
X00492235Y00064786D01*
X00492055Y00059706D01*
X00491981D01*
X00486029Y00053754D01*
Y00050816D01*
X00496189D01*
Y00048276D01*
X00486029D01*
Y00045338D01*
X00491473Y00039893D01*
X00490756Y00034813D01*
X00477015D01*
X00475759Y00039893D01*
X00480822Y00044957D01*
Y00047895D01*
X00470662D01*
X00460502D01*
Y00044957D01*
X00465565Y00039893D01*
X00464309Y00034813D01*
X00377242D01*
X00376672Y00039893D01*
X0038215Y00045371D01*
Y00053689D01*
X00376269Y0005957D01*
X00367951D01*
X0036207Y00053689D01*
Y00045371D01*
X00367548Y00039893D01*
X00366978Y00034813D01*
X00351842D01*
X00351272Y00039893D01*
X0035675Y00045371D01*
Y00053689D01*
X00350869Y0005957D01*
X00342551D01*
X0033667Y00053689D01*
Y00045371D01*
X00342148Y00039893D01*
X00341578Y00034813D01*
X00332323D01*
X0033135Y0003949D01*
X0033135Y00039893D01*
Y0005957D01*
X00318508D01*
X00316828Y0006465D01*
X00317151Y0006489D01*
X00325469D01*
X0033135Y00070771D01*
Y00079089D01*
X00325469Y0008497D01*
X00317151D01*
X00312664Y00080483D01*
X00311099D01*
X00311099Y00080483D01*
X00306239Y0007847D01*
X0028343Y0005566D01*
X00281417Y000508D01*
Y00032404D01*
X0028343Y00027544D01*
X0028399Y00026984D01*
X00281885Y00021904D01*
X00105848D01*
X00089214Y00038538D01*
Y0006223D01*
X00088006Y00065146D01*
X00075244Y00077908D01*
Y00088072D01*
X0008001Y00092838D01*
Y00100202D01*
X00078926Y00101286D01*
X00081031Y00106366D01*
X00174822D01*
X00191928Y0008926D01*
X00190151Y0008497D01*
X0018427Y00079089D01*
Y000762D01*
X0019431D01*
Y0007493D01*
X0019558D01*
Y0006489D01*
X00198469D01*
X0020086Y00062436D01*
X00196975Y0005957D01*
X0019558D01*
Y0004953D01*
Y0003949D01*
X00198469D01*
X0020435Y00045371D01*
Y00046127D01*
X0020943Y00048924D01*
X0020967Y00048772D01*
Y00045371D01*
X00215551Y0003949D01*
X00223869D01*
X0022975Y00045371D01*
Y00053689D01*
X00223869Y0005957D01*
X00220661D01*
X00220501Y0005981D01*
X00223216Y0006489D01*
X0022975D01*
Y0008497D01*
X00222812D01*
X00221694Y00087668D01*
X0020431Y00105052D01*
X00207188Y00109359D01*
X0020828Y00108906D01*
D02*
G37*
G36*
X0031127Y00056876D02*
Y00039893D01*
X0031127Y0003949D01*
X00310297Y00034813D01*
X00295601D01*
X00295163Y00035251D01*
Y00047953D01*
X0030619Y0005898D01*
X0031127Y00056876D01*
D02*
G37*
G36*
X00580076Y00063062D02*
Y00038928D01*
X0057531Y00034162D01*
Y00026798D01*
X0057551Y00026597D01*
X00573566Y00021904D01*
X00563686D01*
X00562326Y00025174D01*
X00562128Y00026984D01*
X005662Y00031056D01*
X00568213Y00035916D01*
Y00067741D01*
X00569994Y00069104D01*
X00572907Y00070231D01*
X00580076Y00063062D01*
D02*
G37*
G36*
X0004232Y0003146D02*
X0005768D01*
X00063573Y00037353D01*
X00068266Y00035409D01*
Y0003429D01*
X00069474Y00031374D01*
X00086951Y00013897D01*
X00085007Y00009204D01*
X00043618D01*
X00026984Y00025838D01*
Y00040862D01*
X00032064Y00041717D01*
X0004232Y0003146D01*
D02*
G37*
%LPC*%
G36*
X0016383Y00676003D02*
X00156838Y00673107D01*
X00155575Y00670058D01*
X00150495Y00671069D01*
Y0067564D01*
X00128905D01*
Y0064516D01*
X00150495D01*
Y00649731D01*
X00155575Y00650742D01*
X00156838Y00647693D01*
X0016383Y00644797D01*
Y006604D01*
Y00676003D01*
D02*
G37*
G36*
X0016637D02*
Y0066167D01*
X00176784D01*
Y00664845D01*
X00173362Y00673107D01*
X0016637Y00676003D01*
D02*
G37*
G36*
X00176784Y0065913D02*
X0016637D01*
Y00644797D01*
X00173362Y00647693D01*
X00176784Y00655955D01*
Y0065913D01*
D02*
G37*
G36*
X004318Y0064705D02*
X0042299D01*
Y0063824D01*
X004318D01*
Y0064705D01*
D02*
G37*
G36*
Y006357D02*
X0042299D01*
Y0062689D01*
X004318D01*
Y006357D01*
D02*
G37*
G36*
X00368435Y0064951D02*
X00353905D01*
X0034363Y00639235D01*
Y00624705D01*
X00353905Y0061443D01*
X00368435D01*
X0037871Y00624705D01*
Y00639235D01*
X00368435Y0064951D01*
D02*
G37*
G36*
X0016256Y00560433D02*
X00155568Y00557537D01*
X00153035Y00551422D01*
X00147955Y00552433D01*
Y0056007D01*
X00126365D01*
Y0052959D01*
X00147955D01*
Y00537227D01*
X00153035Y00538238D01*
X00155568Y00532123D01*
X0016256Y00529227D01*
Y0054483D01*
Y00560433D01*
D02*
G37*
G36*
X001651D02*
Y005461D01*
X00175514D01*
Y00549275D01*
X00172092Y00557537D01*
X001651Y00560433D01*
D02*
G37*
G36*
X00175514Y0054356D02*
X001651D01*
Y00529227D01*
X00172092Y00532123D01*
X00175514Y00540385D01*
Y0054356D01*
D02*
G37*
G36*
X0016256Y00446133D02*
X00155568Y00443237D01*
X00154305Y00440188D01*
X00149225Y00441199D01*
Y0044577D01*
X00127635D01*
Y0041529D01*
X00149225D01*
Y00419861D01*
X00154305Y00420872D01*
X00155568Y00417823D01*
X0016256Y00414927D01*
Y0043053D01*
Y00446133D01*
D02*
G37*
G36*
X001651D02*
Y004318D01*
X00175514D01*
Y00434975D01*
X00172092Y00443237D01*
X001651Y00446133D01*
D02*
G37*
G36*
X00175514Y0042926D02*
X001651D01*
Y00414927D01*
X00172092Y00417823D01*
X00175514Y00426085D01*
Y0042926D01*
D02*
G37*
G36*
X00368435Y0042951D02*
X00353905D01*
X0034363Y00419235D01*
Y00404705D01*
X00353905Y0039443D01*
X00368435D01*
X0037871Y00404705D01*
Y00419235D01*
X00368435Y0042951D01*
D02*
G37*
G36*
X001651Y00331833D02*
Y003175D01*
X00175514D01*
Y00320675D01*
X00172092Y00328937D01*
X001651Y00331833D01*
D02*
G37*
G36*
X00387222Y0025781D02*
X00379858D01*
X0037465Y00252602D01*
Y00245238D01*
X00376667Y00243221D01*
Y00206701D01*
X00374652Y00204686D01*
X003736Y0020425D01*
X003736Y0020425D01*
X00373073Y00203723D01*
X0019119D01*
X0018633Y0020171D01*
X0018633Y0020171D01*
X00173459Y0018884D01*
X00168147D01*
X00162027Y00182719D01*
X00159385Y00182534D01*
X00156743Y00182719D01*
X00150623Y0018884D01*
X0014732D01*
Y001778D01*
Y0016676D01*
X00150623D01*
X00156743Y00172881D01*
X00159385Y00173066D01*
X00162027Y00172881D01*
X00168147Y0016676D01*
X00177293D01*
X00182Y00171467D01*
X0018708Y00169363D01*
Y0016676D01*
X0020916D01*
Y0018884D01*
X00213769Y00189977D01*
X0037592D01*
X0038078Y0019199D01*
X00382884Y00194094D01*
X00383936Y0019453D01*
X003884Y00198994D01*
X00390413Y00203854D01*
Y00243221D01*
X0039243Y00245238D01*
Y00252602D01*
X00387222Y0025781D01*
D02*
G37*
G36*
X00429132Y0017653D02*
X0042672D01*
Y0016891D01*
X0043434D01*
Y00171322D01*
X00429132Y0017653D01*
D02*
G37*
G36*
X0042418D02*
X00421768D01*
X0041656Y00171322D01*
Y0016891D01*
X0042418D01*
Y0017653D01*
D02*
G37*
G36*
X0043434Y0016637D02*
X0042672D01*
Y0015875D01*
X00429132D01*
X0043434Y00163958D01*
Y0016637D01*
D02*
G37*
G36*
X0042418D02*
X0041656D01*
Y00163958D01*
X00421768Y0015875D01*
X0042418D01*
Y0016637D01*
D02*
G37*
G36*
X00404713Y00141166D02*
X004023D01*
Y00133546D01*
X0040992D01*
Y00135959D01*
X00404713Y00141166D01*
D02*
G37*
G36*
X0039976D02*
X00397348D01*
X0039214Y00135959D01*
Y00133546D01*
X0039976D01*
Y00141166D01*
D02*
G37*
G36*
X0095768Y0096854D02*
X0094232D01*
X0093146Y0095768D01*
Y0094232D01*
X0094232Y0093146D01*
X0095768D01*
X0096854Y0094232D01*
Y0095768D01*
X0095768Y0096854D01*
D02*
G37*
G36*
X0005768D02*
X0004232D01*
X0003146Y0095768D01*
Y0094232D01*
X0004232Y0093146D01*
X0005768D01*
X0006854Y0094232D01*
Y0095768D01*
X0005768Y0096854D01*
D02*
G37*
G36*
X0017526Y0089535D02*
X0015494D01*
Y0087503D01*
X0017526D01*
Y0089535D01*
D02*
G37*
G36*
X00169308Y0086995D02*
X0016637D01*
Y0086106D01*
X0017526D01*
Y00863998D01*
X00169308Y0086995D01*
D02*
G37*
G36*
X0016383D02*
X00160892D01*
X0015494Y00863998D01*
Y0086106D01*
X0016383D01*
Y0086995D01*
D02*
G37*
G36*
X0017526Y0085852D02*
X0016637D01*
Y0084963D01*
X00169308D01*
X0017526Y00855582D01*
Y0085852D01*
D02*
G37*
G36*
X0016383D02*
X0015494D01*
Y00855582D01*
X00160892Y0084963D01*
X0016383D01*
Y0085852D01*
D02*
G37*
G36*
X00968928Y00650875D02*
X009652D01*
Y0064008D01*
X00975995D01*
Y00643808D01*
X00968928Y00650875D01*
D02*
G37*
G36*
X0087249Y00634738D02*
X00864131Y00631275D01*
X00862539Y00627433D01*
X00857041D01*
X00855449Y00631275D01*
X0084709Y00634738D01*
X00838731Y00631275D01*
X00837139Y00627433D01*
X00831641D01*
X00830049Y00631275D01*
X0082296Y00634212D01*
Y00618598D01*
Y00602984D01*
X00830049Y00605921D01*
X00831641Y00609763D01*
X00837139D01*
X00838731Y00605921D01*
X0084709Y00602458D01*
X00855449Y00605921D01*
X00857041Y00609763D01*
X00862539D01*
X00864131Y00605921D01*
X0087249Y00602458D01*
X00880849Y00605921D01*
X00884312Y0061428D01*
Y00622916D01*
X00880849Y00631275D01*
X0087249Y00634738D01*
D02*
G37*
G36*
X00975995Y0063754D02*
X009652D01*
Y00626745D01*
X00968928D01*
X00975995Y00633812D01*
Y0063754D01*
D02*
G37*
G36*
X00948562Y0069596D02*
X00941198D01*
X0093599Y00690752D01*
Y00683388D01*
X00938007Y00681371D01*
Y0060706D01*
X0094002Y006022D01*
X00951865Y00590355D01*
Y00583013D01*
X00958932Y00575945D01*
X00968928D01*
X00975995Y00583013D01*
Y00593008D01*
X00968928Y00600075D01*
X00961585D01*
X00951753Y00609907D01*
Y0062674D01*
X00956833Y00628844D01*
X00958932Y00626745D01*
X0096266D01*
Y0063881D01*
Y00650875D01*
X00958932D01*
X00956833Y00648776D01*
X00951753Y0065088D01*
Y00681371D01*
X0095377Y00683388D01*
Y00690752D01*
X00948562Y0069596D01*
D02*
G37*
G36*
X0082042Y00634212D02*
X00813331Y00631275D01*
X00809868Y00622916D01*
Y00619868D01*
X0082042D01*
Y00634212D01*
D02*
G37*
G36*
Y00617328D02*
X00809868D01*
Y0061428D01*
X00813331Y00605921D01*
X0082042Y00602984D01*
Y00617328D01*
D02*
G37*
G36*
X00813942Y0048514D02*
X00806578D01*
X0080137Y00479932D01*
Y00475294D01*
X008001D01*
X00797184Y00474086D01*
X00788294Y00465196D01*
X00787086Y0046228D01*
Y0014732D01*
X00788294Y00144404D01*
X0081407Y00118628D01*
Y00111888D01*
X00813095Y00109534D01*
X008001D01*
X00797184Y00108326D01*
X00775594Y00086736D01*
X00775533Y0008659D01*
X00769969Y0008497D01*
X00761651D01*
X0075577Y00079089D01*
Y00070771D01*
X00761651Y0006489D01*
X00763749Y0005981D01*
X00763589Y0005957D01*
X00761651D01*
X0075577Y00053689D01*
Y00045371D01*
X00761651Y0003949D01*
X00769969D01*
X0077585Y00045371D01*
Y00050908D01*
X0077609Y00051022D01*
X0078117Y00047821D01*
Y00045371D01*
X00787051Y0003949D01*
X00795369D01*
X0080125Y00045371D01*
Y00053689D01*
X00795369Y0005957D01*
X00789242D01*
X0078795Y00060921D01*
X00789573Y0006489D01*
X00795369D01*
X0080125Y00070771D01*
Y00079089D01*
X00795369Y0008497D01*
X00792676D01*
X00790572Y0009005D01*
X00801808Y00101286D01*
X00855762D01*
X00858678Y00102494D01*
X00860166Y00103982D01*
X00861374Y00106898D01*
Y00175702D01*
X0086614Y00180468D01*
Y00187832D01*
X00860932Y0019304D01*
X00853568D01*
X0084836Y00187832D01*
Y00180468D01*
X00853126Y00175702D01*
Y00109534D01*
X00832825D01*
X0083185Y00111888D01*
Y00119252D01*
X00826642Y0012446D01*
X00819902D01*
X00795334Y00149028D01*
Y00390185D01*
X00797688Y0039116D01*
X008001D01*
Y0040005D01*
Y0040894D01*
X00797688D01*
X00795334Y00409915D01*
Y00460572D01*
X00801808Y00467046D01*
X0080518D01*
X0080639Y00467547D01*
X00806578Y0046736D01*
X00813942D01*
X0081915Y00472568D01*
Y00479932D01*
X00813942Y0048514D01*
D02*
G37*
G36*
X0090801Y00433611D02*
X0090678D01*
Y0042672D01*
X00915645D01*
X00913781Y00431221D01*
X0090801Y00433611D01*
D02*
G37*
G36*
X0090424D02*
X0090301D01*
X00897239Y00431221D01*
X00895375Y0042672D01*
X0090424D01*
Y00433611D01*
D02*
G37*
G36*
X00915645Y0042418D02*
X0090551D01*
X00895375D01*
X00896406Y00421691D01*
X0089547Y0042029D01*
X0089547D01*
Y0040521D01*
X0091555D01*
Y0042029D01*
X0091555D01*
X00914614Y00421691D01*
X00915645Y0042418D01*
D02*
G37*
G36*
X0080264Y0040894D02*
Y0040132D01*
X0081026D01*
Y00403732D01*
X00805052Y0040894D01*
X0080264D01*
D02*
G37*
G36*
X00588435Y0042951D02*
X00573905D01*
X0056363Y00419235D01*
Y00404705D01*
X00573905Y0039443D01*
X00588435D01*
X0059871Y00404705D01*
Y00419235D01*
X00588435Y0042951D01*
D02*
G37*
G36*
X0081026Y0039878D02*
X0080264D01*
Y0039116D01*
X00805052D01*
X0081026Y00396368D01*
Y0039878D01*
D02*
G37*
G36*
X00887602Y0014605D02*
X0088519D01*
Y0013843D01*
X0089281D01*
Y00140842D01*
X00887602Y0014605D01*
D02*
G37*
G36*
X0088265D02*
X00880238D01*
X0087503Y00140842D01*
Y0013843D01*
X0088265D01*
Y0014605D01*
D02*
G37*
G36*
X0089281Y0013589D02*
X0088519D01*
Y0012827D01*
X00887602D01*
X0089281Y00133478D01*
Y0013589D01*
D02*
G37*
G36*
X0088265D02*
X0087503D01*
Y00133478D01*
X00880238Y0012827D01*
X0088265D01*
Y0013589D01*
D02*
G37*
G36*
X0087745Y0008497D02*
X0085737D01*
Y0006489D01*
X0087745D01*
Y0008497D01*
D02*
G37*
G36*
X00846169D02*
X00837851D01*
X0083197Y00079089D01*
Y00070771D01*
X00837851Y0006489D01*
X00846169D01*
X0085205Y00070771D01*
Y00079089D01*
X00846169Y0008497D01*
D02*
G37*
G36*
X00820769D02*
X00812451D01*
X0080657Y00079089D01*
Y00070771D01*
X00812451Y0006489D01*
X00820769D01*
X0082665Y00070771D01*
Y00079089D01*
X00820769Y0008497D01*
D02*
G37*
G36*
X00918128Y00625475D02*
X00908132D01*
X00901065Y00618408D01*
Y00608413D01*
X00908132Y00601345D01*
X00909006D01*
Y00565588D01*
X00858082Y00514664D01*
X0081788D01*
X00814964Y00513456D01*
X00737494Y00435986D01*
X00736286Y0043307D01*
Y0008497D01*
X00736251D01*
X0073037Y00079089D01*
Y00070771D01*
X00736251Y0006489D01*
X00744569D01*
X0075045Y00070771D01*
Y00079089D01*
X00744569Y0008497D01*
X00744534D01*
Y00431362D01*
X00819588Y00506416D01*
X0085979D01*
X00862706Y00507624D01*
X00916046Y00560964D01*
X00917254Y0056388D01*
Y00601345D01*
X00918128D01*
X00925195Y00608413D01*
Y00618408D01*
X00918128Y00625475D01*
D02*
G37*
G36*
X00808862Y0053848D02*
X00801498D01*
X0079629Y00533272D01*
Y00526532D01*
X00712094Y00442336D01*
X00710886Y0043942D01*
Y0008497D01*
X00710851D01*
X0070497Y00079089D01*
Y00070771D01*
X00710851Y0006489D01*
X00719169D01*
X0072505Y00070771D01*
Y00079089D01*
X00719169Y0008497D01*
X00719134D01*
Y00437712D01*
X00802122Y005207D01*
X00808862D01*
X0081407Y00525908D01*
Y00533272D01*
X00808862Y0053848D01*
D02*
G37*
G36*
X00846169Y0005957D02*
X0084328D01*
Y000508D01*
X0085205D01*
Y00053689D01*
X00846169Y0005957D01*
D02*
G37*
G36*
X00642969D02*
X0064008D01*
Y000508D01*
X0064885D01*
Y00053689D01*
X00642969Y0005957D01*
D02*
G37*
G36*
X0084074D02*
X00837851D01*
X0083197Y00053689D01*
Y000508D01*
X0084074D01*
Y0005957D01*
D02*
G37*
G36*
X0066294D02*
X00660051D01*
X0065417Y00053689D01*
Y000508D01*
X0066294D01*
Y0005957D01*
D02*
G37*
G36*
X0063754D02*
X00634651D01*
X0062877Y00053689D01*
Y000508D01*
X0063754D01*
Y0005957D01*
D02*
G37*
G36*
X00871569D02*
X00863251D01*
X0085737Y00053689D01*
Y00045371D01*
X00863251Y0003949D01*
X00871569D01*
X0087745Y00045371D01*
Y00053689D01*
X00871569Y0005957D01*
D02*
G37*
G36*
X0085205Y0004826D02*
X0084328D01*
Y0003949D01*
X00846169D01*
X0085205Y00045371D01*
Y0004826D01*
D02*
G37*
G36*
X0084074D02*
X0083197D01*
Y00045371D01*
X00837851Y0003949D01*
X0084074D01*
Y0004826D01*
D02*
G37*
G36*
X00820769Y0005957D02*
X00812451D01*
X0080657Y00053689D01*
Y00045371D01*
X00812451Y0003949D01*
X00820769D01*
X0082665Y00045371D01*
Y00053689D01*
X00820769Y0005957D01*
D02*
G37*
G36*
X0066294Y0004826D02*
X0065417D01*
Y00045371D01*
X00660051Y0003949D01*
X0066294D01*
Y0004826D01*
D02*
G37*
G36*
X0064885D02*
X0064008D01*
Y0003949D01*
X00642969D01*
X0064885Y00045371D01*
Y0004826D01*
D02*
G37*
G36*
X0063754D02*
X0062877D01*
Y00045371D01*
X00634651Y0003949D01*
X0063754D01*
Y0004826D01*
D02*
G37*
G36*
X0095768Y0006854D02*
X0094232D01*
X0093146Y0005768D01*
Y0004232D01*
X0094232Y0003146D01*
X0095768D01*
X0096854Y0004232D01*
Y0005768D01*
X0095768Y0006854D01*
D02*
G37*
G36*
X00611873Y00100192D02*
X00604508D01*
X005993Y00094984D01*
Y00087619D01*
X00604206Y00082714D01*
Y00046548D01*
X0059944Y00041782D01*
Y00034418D01*
X00604648Y0002921D01*
X00612012D01*
X0061722Y00034418D01*
Y00041782D01*
X00612454Y00046548D01*
Y00082993D01*
X0061708Y00087619D01*
Y00094984D01*
X00611873Y00100192D01*
D02*
G37*
G36*
X004318Y0010033D02*
X0042418D01*
Y0009271D01*
X00426592D01*
X004318Y00097918D01*
Y0010033D01*
D02*
G37*
G36*
X0042164D02*
X0041402D01*
Y00097918D01*
X00419228Y0009271D01*
X0042164D01*
Y0010033D01*
D02*
G37*
G36*
X00147669Y0008497D02*
X0014478D01*
Y000762D01*
X0015355D01*
Y00079089D01*
X00147669Y0008497D01*
D02*
G37*
G36*
X0014224D02*
X00139351D01*
X0013347Y00079089D01*
Y000762D01*
X0014224D01*
Y0008497D01*
D02*
G37*
G36*
X00475124Y00085487D02*
X00466708D01*
X00460756Y00079535D01*
Y00071119D01*
X00466708Y00065167D01*
X00475124D01*
X00481076Y00071119D01*
Y00079535D01*
X00475124Y00085487D01*
D02*
G37*
G36*
X00376269Y0008497D02*
X00367951D01*
X0036207Y00079089D01*
Y00070771D01*
X00367951Y0006489D01*
X00376269D01*
X0038215Y00070771D01*
Y00079089D01*
X00376269Y0008497D01*
D02*
G37*
G36*
X00350869D02*
X00342551D01*
X0033667Y00079089D01*
Y00070771D01*
X00342551Y0006489D01*
X00350869D01*
X0035675Y00070771D01*
Y00079089D01*
X00350869Y0008497D01*
D02*
G37*
G36*
X0019304Y0007366D02*
X0018427D01*
Y00070771D01*
X00190151Y0006489D01*
X0019304D01*
Y0007366D01*
D02*
G37*
G36*
X00173069Y0008497D02*
X00164751D01*
X0015887Y00079089D01*
Y00070771D01*
X00164751Y0006489D01*
X00173069D01*
X0017895Y00070771D01*
Y00079089D01*
X00173069Y0008497D01*
D02*
G37*
G36*
X0015355Y0007366D02*
X0014478D01*
Y0006489D01*
X00147669D01*
X0015355Y00070771D01*
Y0007366D01*
D02*
G37*
G36*
X0014224D02*
X0013347D01*
Y00070771D01*
X00139351Y0006489D01*
X0014224D01*
Y0007366D01*
D02*
G37*
G36*
X00122269Y0008497D02*
X00113951D01*
X0010807Y00079089D01*
Y00070771D01*
X00113951Y0006489D01*
X00122269D01*
X0012815Y00070771D01*
Y00079089D01*
X00122269Y0008497D01*
D02*
G37*
G36*
X00147669Y0005957D02*
X0014478D01*
Y000508D01*
X0015355D01*
Y00053689D01*
X00147669Y0005957D01*
D02*
G37*
G36*
X0019304D02*
X00190151D01*
X0018427Y00053689D01*
Y000508D01*
X0019304D01*
Y0005957D01*
D02*
G37*
G36*
X0014224D02*
X00139351D01*
X0013347Y00053689D01*
Y000508D01*
X0014224D01*
Y0005957D01*
D02*
G37*
G36*
X0052567Y00059325D02*
X00522732D01*
Y00050435D01*
X00531622D01*
Y00053373D01*
X0052567Y00059325D01*
D02*
G37*
G36*
X0047487D02*
X00471932D01*
Y00050435D01*
X00480822D01*
Y00053373D01*
X0047487Y00059325D01*
D02*
G37*
G36*
X00545592D02*
X00542654D01*
X00536702Y00053373D01*
Y00050435D01*
X00545592D01*
Y00059325D01*
D02*
G37*
G36*
X00469392D02*
X00466454D01*
X00460502Y00053373D01*
Y00050435D01*
X00469392D01*
Y00059325D01*
D02*
G37*
G36*
X0019304Y0004826D02*
X0018427D01*
Y00045371D01*
X00190151Y0003949D01*
X0019304D01*
Y0004826D01*
D02*
G37*
G36*
X00173069Y0005957D02*
X00164751D01*
X0015887Y00053689D01*
Y00045371D01*
X00164751Y0003949D01*
X00173069D01*
X0017895Y00045371D01*
Y00053689D01*
X00173069Y0005957D01*
D02*
G37*
G36*
X0015355Y0004826D02*
X0014478D01*
Y0003949D01*
X00147669D01*
X0015355Y00045371D01*
Y0004826D01*
D02*
G37*
G36*
X0014224D02*
X0013347D01*
Y00045371D01*
X00139351Y0003949D01*
X0014224D01*
Y0004826D01*
D02*
G37*
G36*
X00122269Y0005957D02*
X00113951D01*
X0010807Y00053689D01*
Y00045371D01*
X00113951Y0003949D01*
X00122269D01*
X0012815Y00045371D01*
Y00053689D01*
X00122269Y0005957D01*
D02*
G37*
%LPD*%
D10*
X0081788Y0051054D02*
X0085979D01*
X0091313Y0056388D02*
Y0061341D01*
X0085979Y0051054D02*
X0091313Y0056388D01*
X000381Y00133568D02*
X00049748Y0012192D01*
X000381Y00133568D02*
Y0065659D01*
X0018161Y0012192D02*
X00218778Y00084752D01*
X00049748Y0012192D02*
X0018161D01*
X000381Y0065659D02*
X001651Y0078359D01*
Y0080899D02*
X003937D01*
X0053975Y0066294D01*
Y0028321D02*
X0068834Y0013462D01*
X0053975Y0028321D02*
Y0066294D01*
X003937Y0078359D02*
X0052578Y0065151D01*
Y0028194D02*
Y0065151D01*
Y0028194D02*
X0066929Y0013843D01*
X0055499Y0057023D02*
Y0066675D01*
X001651Y0083439D02*
X0038735D01*
X0055499Y0066675D01*
X001651Y0078359D02*
X003937D01*
X0002286Y0069215D02*
X001651Y0083439D01*
X0002286Y0013208D02*
Y0069215D01*
Y0013208D02*
X0004445Y0011049D01*
X0017653D01*
X002084Y0007862D01*
Y0006084D02*
Y0007862D01*
Y0006084D02*
X0021971Y0004953D01*
X00218778Y00075862D02*
Y00084752D01*
Y00075862D02*
X0021971Y0007493D01*
X0068326Y0001143D02*
X00712728Y00040898D01*
X0007239Y0003429D02*
X0009525Y0001143D01*
X0068326D01*
X0070104Y0000508D02*
X00738026Y00042066D01*
X0002286Y0002413D02*
X0004191Y0000508D01*
X0070104D01*
X0020828Y0011303D02*
X0062103D01*
X0011303Y0013208D02*
X0018923D01*
X0020828Y0011303D01*
X0009398Y0015113D02*
X0011303Y0013208D01*
X0019431Y0014224D02*
X0021463Y0012192D01*
X0015494Y0014224D02*
X0019431D01*
X0021463Y0012192D02*
X00427592D01*
X0011938Y001778D02*
X0015494Y0014224D01*
X0047117Y0059436D02*
Y006477D01*
X00139305Y00262495D02*
X0047117Y0059436D01*
X00124066Y00262495D02*
X00139305D01*
X0012319Y0026162D02*
X00124066Y00262495D01*
X005842Y0003048D02*
Y0006477D01*
X0054991Y0009906D02*
X005842Y0006477D01*
X0002794Y000762D02*
X0002921Y0007747D01*
X0002286Y000762D02*
X0002794D01*
X0002286Y0002413D02*
Y000762D01*
X0007239Y0003429D02*
Y00059218D01*
X000635Y00068108D02*
X0007239Y00059218D01*
X000635Y00068108D02*
Y0007874D01*
X0004445Y0009779D02*
X000635Y0007874D01*
X00472838Y0012065D02*
X00474108Y0012192D01*
X00428862Y0012065D02*
X00472838D01*
X00474108Y0012192D02*
X00635D01*
X00427592D02*
X00428862Y0012065D01*
X00635Y0012192D02*
X00679606Y00077314D01*
X0043307Y0013081D02*
Y0013208D01*
X0044831Y0014732D01*
X0046228D01*
X0010414Y0001778D02*
X0065786D01*
X0008509Y0003683D02*
X0010414Y0001778D01*
X0065786D02*
X0068961Y0004953D01*
X0048514Y0014732D02*
Y0017907D01*
X0046863Y0013081D02*
X0048514Y0014732D01*
X0062103Y0011303D02*
X00656746Y00077314D01*
X0060833Y000381D02*
Y0009144D01*
X0060819Y00091302D02*
X00608192D01*
X0060833Y0009144D01*
X0077851Y0008382D02*
X008001Y0010541D01*
X0076581Y000508D02*
X0077851Y000635D01*
Y0008382D01*
X0076581Y0004953D02*
Y000508D01*
X00855762Y0010541D02*
X0085725Y00106898D01*
X008001Y0010541D02*
X00855762D01*
X0085725Y00106898D02*
Y0018415D01*
X0080518Y0047117D02*
X0081026Y0047625D01*
X008001Y0047117D02*
X0080518D01*
X0079121Y0014732D02*
Y0046228D01*
X008001Y0047117D01*
X0079121Y0014732D02*
X0082296Y0011557D01*
X0086106Y0003048D02*
X008763D01*
X0084201Y0004953D02*
X0086106Y0003048D01*
X008763D02*
X0088392Y000381D01*
Y0013716D01*
X0007112Y000762D02*
X0008509Y0006223D01*
Y0003683D02*
Y0006223D01*
X0007112Y000762D02*
Y0009652D01*
X0050927Y0028194D02*
Y00640363D01*
X0048133Y0065786D02*
X0049276D01*
X00505974Y00643659D02*
X0050927Y00640363D01*
X00505974Y00643659D02*
Y00644646D01*
X0049276Y0065786D02*
X00505974Y00644646D01*
X0047117Y006477D02*
X0048133Y0065786D01*
X0048387Y0029083D02*
Y0059055D01*
X0013208Y0023876D02*
X0048387Y0059055D01*
Y0063697D01*
X0013081Y0069342D02*
X0040202D01*
X0045847Y0063697D01*
X00712728Y00040898D02*
Y00047248D01*
X0071501Y0004953D01*
X00738026Y00042066D02*
Y00047146D01*
X0074041Y0004953D01*
X0050927Y0028194D02*
X0067183Y0011938D01*
X0048387Y0029083D02*
X0064897Y0012573D01*
X00679606Y00077314D02*
X00687226D01*
X0068961Y0007493D01*
X00656746Y00077314D02*
X00661826D01*
X0066421Y0007493D01*
X0074041Y0043307D02*
X0081788Y0051054D01*
X0074041Y0007493D02*
Y0043307D01*
X0071501Y0043942D02*
X0080518Y0052959D01*
X0071501Y0007493D02*
Y0043942D01*
X0009398Y0015113D02*
Y001778D01*
D20*
X0040132Y0013208D02*
Y0014351D01*
X00423882Y00095945D02*
Y00100628D01*
X0042291Y001016D02*
X00423882Y00100628D01*
Y00095945D02*
X00470662Y00049165D01*
X0040103Y00132276D02*
X00401124D01*
X0040132Y0013208D01*
Y0014351D02*
X0042545Y0016764D01*
X00292754Y0002794D02*
X00533295D01*
X00319989Y00073609D02*
X0032131Y0007493D01*
X00311099Y00073609D02*
X00319989D01*
X0028829Y000508D02*
X00311099Y00073609D01*
X0028829Y00032404D02*
Y000508D01*
Y00032404D02*
X00292754Y0002794D01*
X00535835Y0003048D02*
X0053721D01*
X00533295Y0002794D02*
X00535835Y0003048D01*
X0053721D02*
X00538182Y00031452D01*
X00556394Y00073361D02*
X0056134Y00068415D01*
Y00035916D02*
Y00068415D01*
X00538182Y00031452D02*
X00556876D01*
X0056134Y00035916D01*
X00548574Y00073361D02*
X00556394D01*
X00547116Y00074819D02*
X00548574Y00073361D01*
X0017272Y001778D02*
Y0017838D01*
X0019119Y0019685D01*
X0037592D02*
X0037846Y0019939D01*
X0019119Y0019685D02*
X0037592D01*
X00379076Y0019939D02*
X0038354Y00203854D01*
Y0024892D01*
X0037846Y0019939D02*
X00379076D01*
X0094488Y0060706D02*
Y0068707D01*
Y0060706D02*
X0096393Y0058801D01*
X0088011Y0042545D02*
X0090551D01*
X0085725Y0040259D02*
X0088011Y0042545D01*
X0080391Y0040259D02*
X0085725D01*
X0080137Y0040005D02*
X0080391Y0040259D01*
D51*
X001651Y0088519D02*
D03*
D52*
Y0085979D02*
D03*
Y0083439D02*
D03*
Y0080899D02*
D03*
Y0078359D02*
D03*
X00546862Y00049165D02*
D03*
X00521462D02*
D03*
X00496189Y00049546D02*
D03*
X00470662Y00049165D02*
D03*
X00470916Y00075327D02*
D03*
X0049657Y00074819D02*
D03*
X00521716D02*
D03*
X00547116D02*
D03*
X0005Y0095D02*
D03*
X0095D02*
D03*
Y0005D02*
D03*
X0005D02*
D03*
D53*
X0086741Y0007493D02*
D03*
X0021971D02*
D03*
X0032131Y0004953D02*
D03*
D54*
X0086741D02*
D03*
X0084201Y0007493D02*
D03*
Y0004953D02*
D03*
X0081661Y0007493D02*
D03*
Y0004953D02*
D03*
X0079121Y0007493D02*
D03*
Y0004953D02*
D03*
X0076581Y0007493D02*
D03*
Y0004953D02*
D03*
X0074041Y0007493D02*
D03*
Y0004953D02*
D03*
X0071501Y0007493D02*
D03*
Y0004953D02*
D03*
X0068961Y0007493D02*
D03*
Y0004953D02*
D03*
X0066421Y0007493D02*
D03*
Y0004953D02*
D03*
X0063881Y0007493D02*
D03*
Y0004953D02*
D03*
X0021971D02*
D03*
X0019431Y0007493D02*
D03*
Y0004953D02*
D03*
X0016891Y0007493D02*
D03*
Y0004953D02*
D03*
X0014351Y0007493D02*
D03*
Y0004953D02*
D03*
X0011811Y0007493D02*
D03*
Y0004953D02*
D03*
X0032131Y0007493D02*
D03*
X0034671Y0004953D02*
D03*
Y0007493D02*
D03*
X0037211Y0004953D02*
D03*
Y0007493D02*
D03*
D55*
X0006731Y001778D02*
D03*
X0009398D02*
D03*
X0011938D02*
D03*
X0014605D02*
D03*
X0017272D02*
D03*
D56*
X0019812D02*
D03*
D57*
X0090551Y0041275D02*
D03*
D58*
Y0042545D02*
D03*
D59*
X001651Y006604D02*
D03*
X0016383Y0031623D02*
D03*
Y0043053D02*
D03*
Y0054483D02*
D03*
D60*
X001397Y006604D02*
D03*
X0013843Y0031623D02*
D03*
Y0043053D02*
D03*
X0013716Y0054483D02*
D03*
D61*
X0082169Y00618598D02*
D03*
X0084709D02*
D03*
X0087249D02*
D03*
D62*
X0096393Y0058801D02*
D03*
X0091313Y0061341D02*
D03*
X0096393Y0063881D02*
D03*
D63*
X0043307Y0063697D02*
D03*
D64*
X0045847D02*
D03*
X0048387D02*
D03*
X0050927D02*
D03*
D65*
X0036117Y0063197D02*
D03*
X0058117D02*
D03*
Y0041197D02*
D03*
X0036117D02*
D03*
D66*
X005842Y0003048D02*
D03*
X0002921Y0007747D02*
D03*
X0004445Y0009779D02*
D03*
X0042291Y001016D02*
D03*
X0040103Y00132276D02*
D03*
X0042545Y0016764D02*
D03*
X0043307Y0013081D02*
D03*
X0046228Y0014732D02*
D03*
X0053721Y0003048D02*
D03*
X0054991Y0009906D02*
D03*
X0048514Y0017907D02*
D03*
X0046863Y0013081D02*
D03*
X0060819Y00091302D02*
D03*
X0060833Y000381D02*
D03*
X0085725Y0018415D02*
D03*
X0055499Y0057023D02*
D03*
X0081026Y0047625D02*
D03*
X0082296Y0011557D02*
D03*
X0088392Y0013716D02*
D03*
X0012319Y0026162D02*
D03*
X0013208Y0023876D02*
D03*
X0038354Y0024892D02*
D03*
X0013081Y0069342D02*
D03*
X0007112Y0009652D02*
D03*
X0094488Y0068707D02*
D03*
X0068834Y0013462D02*
D03*
X0066929Y0013843D02*
D03*
X0067183Y0011938D02*
D03*
X0064897Y0012573D02*
D03*
X0080518Y0052959D02*
D03*
X0080137Y0040005D02*
D03*
M02*
