M48
;Layer_Color=9474304
;FILE_FORMAT=4:4
METRIC,LZ
;TYPE=PLATED
T1F00S00C0.6000
T2F00S00C0.7112
T3F00S00C0.7620
T4F00S00C0.8128
T5F00S00C0.8890
T6F00S00C0.9000
T7F00S00C0.9144
T8F00S00C1.0000
T9F00S00C1.1000
T10F00S00C2.0000
T11F00S00C3.2000
%
T01
X0090551Y0041275
Y0042545
T02
X0002921Y0007747
X0004445Y0009779
X0007112Y0009652
X0013208Y0023876
X0012319Y0026162
X0038354Y0024892
X0042545Y0016764
X0043307Y0013081
X0040103Y00132276
X0042291Y001016
X0046863Y0013081
X0046228Y0014732
X0048514Y0017907
X0054991Y0009906
X0060819Y00091302
X0060833Y000381
X005842Y0003048
X0053721
X0064897Y0012573
X0067183Y0011938
X0066929Y0013843
X0068834Y0013462
X0082296Y0011557
X0088392Y0013716
X0085725Y0018415
X0080137Y0040005
X0081026Y0047625
X0080518Y0052959
X0094488Y0068707
X0055499Y0057023
X0013081Y0069342
T03
X001651Y0078359
Y0080899
Y0083439
Y0085979
Y0088519
T04
X0013843Y0031623
X0016383
X0082169Y00618598
X0084709
X0087249
X001651Y006604
X001397
X0013716Y0054483
X0016383
Y0043053
X0013843
T05
X0091313Y0061341
X0096393Y0058801
Y0063881
T06
X0011811Y0004953
X0014351
X0016891
X0019431
X0021971
Y0007493
X0019431
X0016891
X0014351
X0011811
X0032131
Y0004953
X0034671
Y0007493
X0037211
Y0004953
X0063881
X0066421
X0068961
X0071501
X0074041
X0076581
X0079121
Y0007493
X0076581
X0074041
X0071501
X0068961
X0066421
X0063881
X0081661
X0084201
X0086741
Y0004953
X0084201
X0081661
T07
X00470662Y00049165
X00496189Y00049546
X00521462Y00049165
X00546862
X00547116Y00074819
X00521716
X0049657
X00470916Y00075327
T08
X0043307Y0063697
X0045847
X0048387
X0050927
T09
X0006731Y001778
X0009398
X0011938
X0014605
X0017272
X0019812
T10
X0058117Y0041197
Y0063197
X0036117
Y0041197
T11
X0005Y0005
X0095
X0005Y0095
X0095
M30
