G04*
G04 #@! TF.GenerationSoftware,Altium Limited,Altium Designer,21.3.2 (30)*
G04*
G04 Layer_Color=255*
%FSTAX44Y44*%
%MOMM*%
G71*
G04*
G04 #@! TF.SameCoordinates,BAFF9CCB-06E3-4415-8BD8-540CAB7B7E79*
G04*
G04*
G04 #@! TF.FilePolarity,Positive*
G04*
G01*
G75*
G04:AMPARAMS|DCode=21|XSize=4mm|YSize=3mm|CornerRadius=0.3mm|HoleSize=0mm|Usage=FLASHONLY|Rotation=180.000|XOffset=0mm|YOffset=0mm|HoleType=Round|Shape=RoundedRectangle|*
%AMROUNDEDRECTD21*
21,1,4.0000,2.4000,0,0,180.0*
21,1,3.4000,3.0000,0,0,180.0*
1,1,0.6000,-1.7000,1.2000*
1,1,0.6000,1.7000,1.2000*
1,1,0.6000,1.7000,-1.2000*
1,1,0.6000,-1.7000,-1.2000*
%
%ADD21ROUNDEDRECTD21*%
%ADD22R,1.4000X1.2000*%
%ADD23R,1.2000X1.4000*%
%ADD24R,1.3970X1.2700*%
%ADD25R,1.0000X2.4000*%
%ADD26R,3.3000X2.4000*%
%ADD27R,1.2700X1.5240*%
%ADD51R,1.5240X1.5240*%
%ADD52C,1.5240*%
%ADD53R,1.5000X1.5000*%
%ADD54C,1.5000*%
%ADD55C,1.7000*%
%ADD56R,1.7000X1.7000*%
%ADD57R,1.5000X1.0000*%
%ADD58O,1.5000X1.0000*%
%ADD59O,1.6510X2.5400*%
%ADD60R,1.6510X2.5400*%
%ADD61O,1.6764X2.5400*%
%ADD62C,1.9050*%
%ADD63R,1.5080X1.5080*%
%ADD64C,1.5080*%
%ADD65C,3.0000*%
D21*
X006669Y0057912D02*
D03*
X007809D02*
D03*
D22*
X00714402Y00418742D02*
D03*
Y00437742D02*
D03*
X00501042Y00310446D02*
D03*
Y00291446D02*
D03*
X00658522Y00310446D02*
D03*
Y00291446D02*
D03*
X00344832Y00310446D02*
D03*
Y00291446D02*
D03*
X00582896Y00052686D02*
D03*
Y00071686D02*
D03*
X00430496Y00052686D02*
D03*
Y00071686D02*
D03*
X00758156Y00366376D02*
D03*
Y00385376D02*
D03*
D23*
X00061664Y00545492D02*
D03*
X00080664D02*
D03*
X00061664Y00432462D02*
D03*
X00080664D02*
D03*
X00061664Y00315622D02*
D03*
X00080664D02*
D03*
X00650894Y0016627D02*
D03*
X00631894D02*
D03*
X00830014D02*
D03*
X00849014D02*
D03*
X00781704Y00166336D02*
D03*
X00762704D02*
D03*
X00699116Y00166216D02*
D03*
X00718116D02*
D03*
X00503536D02*
D03*
X00522536D02*
D03*
X00587394Y00166336D02*
D03*
X00568394D02*
D03*
X00446474Y0016627D02*
D03*
X00465474D02*
D03*
X00342196Y00166216D02*
D03*
X00323196D02*
D03*
X00407054Y00166336D02*
D03*
X00388054D02*
D03*
X0093213Y0052959D02*
D03*
X0091313D02*
D03*
X00080664Y00657252D02*
D03*
X00061664D02*
D03*
X00245726Y00165134D02*
D03*
X00264726D02*
D03*
X00437496Y00591854D02*
D03*
X00456496D02*
D03*
X00830014Y00530252D02*
D03*
X00849014D02*
D03*
D24*
X0049911Y0024765D02*
D03*
Y0022479D02*
D03*
X006604Y0024384D02*
D03*
Y0022098D02*
D03*
X0034544Y0024638D02*
D03*
Y0022352D02*
D03*
X0075692Y0041656D02*
D03*
Y0043942D02*
D03*
D25*
X008004Y00373638D02*
D03*
X008234D02*
D03*
X008464D02*
D03*
D26*
X008234Y00431638D02*
D03*
D27*
X00626872Y00310854D02*
D03*
X00581152D02*
D03*
X00626872Y00227034D02*
D03*
X00581152D02*
D03*
X00468122Y00310854D02*
D03*
X00422402D02*
D03*
X00468122Y00227034D02*
D03*
X00422402D02*
D03*
X00314452Y00310854D02*
D03*
X00268732D02*
D03*
X00314452Y00227034D02*
D03*
X00268732D02*
D03*
D51*
X001651Y0088519D02*
D03*
D52*
Y0085979D02*
D03*
Y0083439D02*
D03*
Y0080899D02*
D03*
Y0078359D02*
D03*
X00546862Y00049165D02*
D03*
X00521462D02*
D03*
X00496189Y00049546D02*
D03*
X00470662Y00049165D02*
D03*
X00470916Y00075327D02*
D03*
X0049657Y00074819D02*
D03*
X00521716D02*
D03*
X00547116D02*
D03*
X0005Y0095D02*
D03*
X0095D02*
D03*
Y0005D02*
D03*
X0005D02*
D03*
D53*
X0086741Y0007493D02*
D03*
X0021971D02*
D03*
X0032131Y0004953D02*
D03*
D54*
X0086741D02*
D03*
X0084201Y0007493D02*
D03*
Y0004953D02*
D03*
X0081661Y0007493D02*
D03*
Y0004953D02*
D03*
X0079121Y0007493D02*
D03*
Y0004953D02*
D03*
X0076581Y0007493D02*
D03*
Y0004953D02*
D03*
X0074041Y0007493D02*
D03*
Y0004953D02*
D03*
X0071501Y0007493D02*
D03*
Y0004953D02*
D03*
X0068961Y0007493D02*
D03*
Y0004953D02*
D03*
X0066421Y0007493D02*
D03*
Y0004953D02*
D03*
X0063881Y0007493D02*
D03*
Y0004953D02*
D03*
X0021971D02*
D03*
X0019431Y0007493D02*
D03*
Y0004953D02*
D03*
X0016891Y0007493D02*
D03*
Y0004953D02*
D03*
X0014351Y0007493D02*
D03*
Y0004953D02*
D03*
X0011811Y0007493D02*
D03*
Y0004953D02*
D03*
X0032131Y0007493D02*
D03*
X0034671Y0004953D02*
D03*
Y0007493D02*
D03*
X0037211Y0004953D02*
D03*
Y0007493D02*
D03*
D55*
X0006731Y001778D02*
D03*
X0009398D02*
D03*
X0011938D02*
D03*
X0014605D02*
D03*
X0017272D02*
D03*
D56*
X0019812D02*
D03*
D57*
X0090551Y0041275D02*
D03*
D58*
Y0042545D02*
D03*
D59*
X001651Y006604D02*
D03*
X0016383Y0031623D02*
D03*
Y0043053D02*
D03*
Y0054483D02*
D03*
D60*
X001397Y006604D02*
D03*
X0013843Y0031623D02*
D03*
Y0043053D02*
D03*
X0013716Y0054483D02*
D03*
D61*
X0082169Y00618598D02*
D03*
X0084709D02*
D03*
X0087249D02*
D03*
D62*
X0096393Y0058801D02*
D03*
X0091313Y0061341D02*
D03*
X0096393Y0063881D02*
D03*
D63*
X0043307Y0063697D02*
D03*
D64*
X0045847D02*
D03*
X0048387D02*
D03*
X0050927D02*
D03*
D65*
X0036117Y0063197D02*
D03*
X0058117D02*
D03*
Y0041197D02*
D03*
X0036117D02*
D03*
M02*
