G04*
G04 #@! TF.GenerationSoftware,Altium Limited,Altium Designer,21.3.2 (30)*
G04*
G04 Layer_Color=2752767*
%FSTAX44Y44*%
%MOMM*%
G71*
G04*
G04 #@! TF.SameCoordinates,A78F6EBE-983C-407D-AA9D-1AE5E041EF29*
G04*
G04*
G04 #@! TF.FilePolarity,Positive*
G04*
G01*
G75*
%ADD57C,0.0508*%
%ADD58C,0.0677*%
D57*
X00424688Y00603188D02*
Y00607252D01*
X00428752D01*
Y00603188D01*
X00424688D01*
X00450088D02*
Y00607252D01*
X00454152D01*
Y00603188D01*
X00450088D01*
X00475488D02*
Y00607252D01*
X00479552D01*
Y00603188D01*
X00475488D01*
X00500888D02*
Y00607252D01*
X00504952D01*
Y00603188D01*
X00500888D01*
X00170434Y00240538D02*
X00168402Y00244602D01*
X00172466D01*
X00170434Y00240538D01*
X00195834D02*
X00193802Y00244602D01*
X00197866D01*
X00195834Y00240538D01*
X00170434Y00354838D02*
X00168402Y00358902D01*
X00172466D01*
X00170434Y00354838D01*
X00195834D02*
X00193802Y00358902D01*
X00197866D01*
X00195834Y00354838D01*
X00169164Y00469138D02*
X00167132Y00473202D01*
X00171196D01*
X00169164Y00469138D01*
X00195834D02*
X00193802Y00473202D01*
X00197866D01*
X00195834Y00469138D01*
X0088138Y00460248D02*
X00882396Y00461264D01*
X00883412D01*
X00882396Y0046228D01*
X00883412Y00463296D01*
X00882396D01*
X0088138Y00464312D01*
X00880364Y00463296D01*
X00879348D01*
X00880364Y0046228D01*
X00879348Y00461264D01*
X00880364D01*
X0088138Y00460248D01*
X0085598D02*
X00856996Y00461264D01*
X00858012D01*
X00856996Y0046228D01*
X00858012Y00463296D01*
X00856996D01*
X0085598Y00464312D01*
X00854964Y00463296D01*
X00853948D01*
X00854964Y0046228D01*
X00853948Y00461264D01*
X00854964D01*
X0085598Y00460248D01*
X0082931D02*
X00830326Y00461264D01*
X00831342D01*
X00830326Y0046228D01*
X00831342Y00463296D01*
X00830326D01*
X0082931Y00464312D01*
X00828294Y00463296D01*
X00827278D01*
X00828294Y0046228D01*
X00827278Y00461264D01*
X00828294D01*
X0082931Y00460248D01*
X0080264D02*
X00803656Y00461264D01*
X00804672D01*
X00803656Y0046228D01*
X00804672Y00463296D01*
X00803656D01*
X0080264Y00464312D01*
X00801624Y00463296D01*
X00800608D01*
X00801624Y0046228D01*
X00800608Y00461264D01*
X00801624D01*
X0080264Y00460248D01*
X0077724D02*
X00778256Y00461264D01*
X00779272D01*
X00778256Y0046228D01*
X00779272Y00463296D01*
X00778256D01*
X0077724Y00464312D01*
X00776224Y00463296D01*
X00775208D01*
X00776224Y0046228D01*
X00775208Y00461264D01*
X00776224D01*
X0077724Y00460248D01*
X0075057D02*
X00751586Y00461264D01*
X00752602D01*
X00751586Y0046228D01*
X00752602Y00463296D01*
X00751586D01*
X0075057Y00464312D01*
X00749554Y00463296D01*
X00748538D01*
X00749554Y0046228D01*
X00748538Y00461264D01*
X00749554D01*
X0075057Y00460248D01*
X00660908Y00224028D02*
X00661924Y0022606D01*
X00660908Y00228092D01*
X0066294Y00227076D01*
X00664972Y00228092D01*
X00663956Y0022606D01*
X00664972Y00224028D01*
X0066294Y00225044D01*
X00660908Y00224028D01*
Y00249428D02*
X00661924Y0025146D01*
X00660908Y00253492D01*
X0066294Y00252476D01*
X00664972Y00253492D01*
X00663956Y0025146D01*
X00664972Y00249428D01*
X0066294Y00250444D01*
X00660908Y00249428D01*
X00686308Y00224028D02*
X00687324Y0022606D01*
X00686308Y00228092D01*
X0068834Y00227076D01*
X00690372Y00228092D01*
X00689356Y0022606D01*
X00690372Y00224028D01*
X0068834Y00225044D01*
X00686308Y00224028D01*
Y00249428D02*
X00687324Y0025146D01*
X00686308Y00253492D01*
X0068834Y00252476D01*
X00690372Y00253492D01*
X00689356Y0025146D01*
X00690372Y00249428D01*
X0068834Y00250444D01*
X00686308Y00249428D01*
X00711708Y00224028D02*
X00712724Y0022606D01*
X00711708Y00228092D01*
X0071374Y00227076D01*
X00715772Y00228092D01*
X00714756Y0022606D01*
X00715772Y00224028D01*
X0071374Y00225044D01*
X00711708Y00224028D01*
Y00249428D02*
X00712724Y0025146D01*
X00711708Y00253492D01*
X0071374Y00252476D01*
X00715772Y00253492D01*
X00714756Y0025146D01*
X00715772Y00249428D01*
X0071374Y00250444D01*
X00711708Y00249428D01*
X00737108Y00224028D02*
X00738124Y0022606D01*
X00737108Y00228092D01*
X0073914Y00227076D01*
X00741172Y00228092D01*
X00740156Y0022606D01*
X00741172Y00224028D01*
X0073914Y00225044D01*
X00737108Y00224028D01*
Y00249428D02*
X00738124Y0025146D01*
X00737108Y00253492D01*
X0073914Y00252476D01*
X00741172Y00253492D01*
X00740156Y0025146D01*
X00741172Y00249428D01*
X0073914Y00250444D01*
X00737108Y00249428D01*
X00762508Y00224028D02*
X00763524Y0022606D01*
X00762508Y00228092D01*
X0076454Y00227076D01*
X00766572Y00228092D01*
X00765556Y0022606D01*
X00766572Y00224028D01*
X0076454Y00225044D01*
X00762508Y00224028D01*
Y00249428D02*
X00763524Y0025146D01*
X00762508Y00253492D01*
X0076454Y00252476D01*
X00766572Y00253492D01*
X00765556Y0025146D01*
X00766572Y00249428D01*
X0076454Y00250444D01*
X00762508Y00249428D01*
X00787908Y00224028D02*
X00788924Y0022606D01*
X00787908Y00228092D01*
X0078994Y00227076D01*
X00791972Y00228092D01*
X00790956Y0022606D01*
X00791972Y00224028D01*
X0078994Y00225044D01*
X00787908Y00224028D01*
Y00249428D02*
X00788924Y0025146D01*
X00787908Y00253492D01*
X0078994Y00252476D01*
X00791972Y00253492D01*
X00790956Y0025146D01*
X00791972Y00249428D01*
X0078994Y00250444D01*
X00787908Y00249428D01*
X00813308Y00224028D02*
X00814324Y0022606D01*
X00813308Y00228092D01*
X0081534Y00227076D01*
X00817372Y00228092D01*
X00816356Y0022606D01*
X00817372Y00224028D01*
X0081534Y00225044D01*
X00813308Y00224028D01*
Y00249428D02*
X00814324Y0025146D01*
X00813308Y00253492D01*
X0081534Y00252476D01*
X00817372Y00253492D01*
X00816356Y0025146D01*
X00817372Y00249428D01*
X0081534Y00250444D01*
X00813308Y00249428D01*
X00838708Y00224028D02*
X00839724Y0022606D01*
X00838708Y00228092D01*
X0084074Y00227076D01*
X00842772Y00228092D01*
X00841756Y0022606D01*
X00842772Y00224028D01*
X0084074Y00225044D01*
X00838708Y00224028D01*
Y00249428D02*
X00839724Y0025146D01*
X00838708Y00253492D01*
X0084074Y00252476D01*
X00842772Y00253492D01*
X00841756Y0025146D01*
X00842772Y00249428D01*
X0084074Y00250444D01*
X00838708Y00249428D01*
X00864108Y00224028D02*
X00865124Y0022606D01*
X00864108Y00228092D01*
X0086614Y00227076D01*
X00868172Y00228092D01*
X00867156Y0022606D01*
X00868172Y00224028D01*
X0086614Y00225044D01*
X00864108Y00224028D01*
Y00249428D02*
X00865124Y0025146D01*
X00864108Y00253492D01*
X0086614Y00252476D01*
X00868172Y00253492D01*
X00867156Y0025146D01*
X00868172Y00249428D01*
X0086614Y00250444D01*
X00864108Y00249428D01*
X00889508Y00224028D02*
X00890524Y0022606D01*
X00889508Y00228092D01*
X0089154Y00227076D01*
X00893572Y00228092D01*
X00892556Y0022606D01*
X00893572Y00224028D01*
X0089154Y00225044D01*
X00889508Y00224028D01*
Y00249428D02*
X00890524Y0025146D01*
X00889508Y00253492D01*
X0089154Y00252476D01*
X00893572Y00253492D01*
X00892556Y0025146D01*
X00893572Y00249428D01*
X0089154Y00250444D01*
X00889508Y00249428D01*
X00148844Y00724154D02*
Y00723138D01*
X00150876D01*
Y00724154D01*
X00151892D01*
Y00726186D01*
X00150876D01*
Y00727202D01*
X00148844D01*
Y00726186D01*
X00147828D01*
Y00724154D01*
X00148844D01*
Y00749554D02*
Y00748538D01*
X00150876D01*
Y00749554D01*
X00151892D01*
Y00751586D01*
X00150876D01*
Y00752602D01*
X00148844D01*
Y00751586D01*
X00147828D01*
Y00749554D01*
X00148844D01*
Y00774954D02*
Y00773938D01*
X00150876D01*
Y00774954D01*
X00151892D01*
Y00776986D01*
X00150876D01*
Y00778002D01*
X00148844D01*
Y00776986D01*
X00147828D01*
Y00774954D01*
X00148844D01*
Y00800354D02*
Y00799338D01*
X00150876D01*
Y00800354D01*
X00151892D01*
Y00802386D01*
X00150876D01*
Y00803402D01*
X00148844D01*
Y00802386D01*
X00147828D01*
Y00800354D01*
X00148844D01*
Y00825754D02*
Y00824738D01*
X00150876D01*
Y00825754D01*
X00151892D01*
Y00827786D01*
X00150876D01*
Y00828802D01*
X00148844D01*
Y00827786D01*
X00147828D01*
Y00825754D01*
X00148844D01*
X0017907Y00575818D02*
X00177038Y00579882D01*
X00181102D01*
X0017907Y00575818D01*
Y00601218D02*
X00177038Y00605282D01*
X00181102D01*
X0017907Y00601218D01*
X00097968Y00897968D02*
X00098984D01*
X001Y00898984D01*
X00101016Y00897968D01*
X00102032D01*
Y00898984D01*
X00101016Y009D01*
X00102032Y00901016D01*
Y00902032D01*
X00101016D01*
X001Y00901016D01*
X00098984Y00902032D01*
X00097968D01*
Y00901016D01*
X00098984Y009D01*
X00097968Y00898984D01*
Y00897968D01*
X00897968D02*
X00898984D01*
X009Y00898984D01*
X00901016Y00897968D01*
X00902032D01*
Y00898984D01*
X00901016Y009D01*
X00902032Y00901016D01*
Y00902032D01*
X00901016D01*
X009Y00901016D01*
X00898984Y00902032D01*
X00897968D01*
Y00901016D01*
X00898984Y009D01*
X00897968Y00898984D01*
Y00897968D01*
X00872998Y0059309D02*
X0087503Y00595122D01*
X00877062Y0059309D01*
X0087503Y00591058D01*
X00872998Y0059309D01*
Y0061849D02*
X0087503Y00620522D01*
X00877062Y0061849D01*
X0087503Y00616458D01*
X00872998Y0061849D01*
Y0064389D02*
X0087503Y00645922D01*
X00877062Y0064389D01*
X0087503Y00641858D01*
X00872998Y0064389D01*
X00897968Y00097968D02*
X00898984D01*
X009Y00098984D01*
X00901016Y00097968D01*
X00902032D01*
Y00098984D01*
X00901016Y001D01*
X00902032Y00101016D01*
Y00102032D01*
X00901016D01*
X009Y00101016D01*
X00898984Y00102032D01*
X00897968D01*
Y00101016D01*
X00898984Y001D01*
X00897968Y00098984D01*
Y00097968D01*
X00097968D02*
X00098984D01*
X001Y00098984D01*
X00101016Y00097968D01*
X00102032D01*
Y00098984D01*
X00101016Y001D01*
X00102032Y00101016D01*
Y00102032D01*
X00101016D01*
X001Y00101016D01*
X00098984Y00102032D01*
X00097968D01*
Y00101016D01*
X00098984Y001D01*
X00097968Y00098984D01*
Y00097968D01*
X00514858Y00297688D02*
Y00301752D01*
X00518922D01*
Y00297688D01*
X00514858D01*
X00515874Y00298704D02*
Y00300736D01*
X00517906D01*
Y00298704D01*
X00515874D01*
X00558038Y00279908D02*
Y00283972D01*
X00562102D01*
Y00279908D01*
X00558038D01*
X00559054Y00280924D02*
Y00282956D01*
X00561086D01*
Y00280924D01*
X00559054D01*
X00396748Y00298958D02*
Y00303022D01*
X00400812D01*
Y00298958D01*
X00396748D01*
X00397764Y00299974D02*
Y00302006D01*
X00399796D01*
Y00299974D01*
X00397764D01*
X00627888Y00381508D02*
Y00385572D01*
X00631952D01*
Y00381508D01*
X00627888D01*
X00628904Y00382524D02*
Y00384556D01*
X00630936D01*
Y00382524D01*
X00628904D01*
X00657098Y00307848D02*
Y00311912D01*
X00661162D01*
Y00307848D01*
X00657098D01*
X00658114Y00308864D02*
Y00310896D01*
X00660146D01*
Y00308864D01*
X00658114D01*
X00500888Y00340868D02*
Y00344932D01*
X00504952D01*
Y00340868D01*
X00500888D01*
X00501904Y00341884D02*
Y00343916D01*
X00503936D01*
Y00341884D01*
X00501904D01*
X00677065Y00307495D02*
Y00311559D01*
X00681129D01*
Y00307495D01*
X00677065D01*
X00678081Y00308511D02*
Y00310543D01*
X00680113D01*
Y00308511D01*
X00678081D01*
X00615479Y00254217D02*
Y00258281D01*
X00619543D01*
Y00254217D01*
X00615479D01*
X00616495Y00255233D02*
Y00257265D01*
X00618527D01*
Y00255233D01*
X00616495D01*
D58*
X00356852Y0060022D02*
G03*
X00356852Y0060022I-00002032J0D01*
G01*
X00576852D02*
G03*
X00576852Y0060022I-00002032J0D01*
G01*
Y0038022D02*
G03*
X00576852Y0038022I-00002032J0D01*
G01*
X00356852D02*
G03*
X00356852Y0038022I-00002032J0D01*
G01*
M02*
