G04*
G04 #@! TF.GenerationSoftware,Altium Limited,Altium Designer,21.3.2 (30)*
G04*
G04 Layer_Color=32896*
%FSTAX44Y44*%
%MOMM*%
G71*
G04*
G04 #@! TF.SameCoordinates,F8E9BDDD-FC12-4FEB-8D7F-7DE70A56B409*
G04*
G04*
G04 #@! TF.FilePolarity,Positive*
G04*
G01*
G75*
%ADD10C,0.2540*%
%ADD11C,0.2000*%
%ADD12C,0.1778*%
D10*
X00824992Y00284006D02*
Y00299241D01*
X00817374D01*
X00814835Y00296702D01*
Y00291624D01*
X00817374Y00289084D01*
X00824992D01*
X00819914D02*
X00814835Y00284006D01*
X00809757Y00286545D02*
X00807218Y00284006D01*
X00802139D01*
X007996Y00286545D01*
Y00296702D01*
X00802139Y00299241D01*
X00807218D01*
X00809757Y00296702D01*
Y00294163D01*
X00807218Y00291624D01*
X007996D01*
X008763Y00284006D02*
Y00299241D01*
X00868682D01*
X00866143Y00296702D01*
Y00291624D01*
X00868682Y00289084D01*
X008763D01*
X00871222D02*
X00866143Y00284006D01*
X00861065Y00296702D02*
X00858526Y00299241D01*
X00853447D01*
X00850908Y00296702D01*
Y00294163D01*
X00853447Y00291624D01*
X00850908Y00289084D01*
Y00286545D01*
X00853447Y00284006D01*
X00858526D01*
X00861065Y00286545D01*
Y00289084D01*
X00858526Y00291624D01*
X00861065Y00294163D01*
Y00296702D01*
X00858526Y00291624D02*
X00853447D01*
X00321713Y00998641D02*
X00325099Y01002027D01*
X0033187D01*
X00335255Y00998641D01*
Y00985099D01*
X0033187Y00981713D01*
X00325099D01*
X00321713Y00985099D01*
Y0099187D01*
X00328484D01*
X00314942Y00981713D02*
Y01002027D01*
X003014Y00981713D01*
Y01002027D01*
X00294629D02*
Y00981713D01*
X00284472D01*
X00281086Y00985099D01*
Y00998641D01*
X00284472Y01002027D01*
X00294629D01*
X00233688Y00981713D02*
X00226917D01*
X00230303D01*
Y01002027D01*
X00233688Y00998641D01*
X00203218Y00981713D02*
X0021676D01*
X00203218Y00995256D01*
Y00998641D01*
X00206604Y01002027D01*
X00213375D01*
X0021676Y00998641D01*
X00196447Y01002027D02*
Y00988484D01*
X00189676Y00981713D01*
X00182905Y00988484D01*
Y01002027D01*
D11*
X0079149Y00257436D02*
Y0027547D01*
X00805322D01*
X0079149Y00257436D02*
X00805322D01*
X00813072D02*
X0082649D01*
Y0027547D01*
X00813072D02*
X0082649D01*
X00877856Y00257436D02*
Y0027547D01*
X00864024Y00257436D02*
X00877856D01*
X00864024Y0027547D02*
X00877856D01*
X00842856D02*
X00856274D01*
X00842856Y00257436D02*
Y0027547D01*
Y00257436D02*
X00856274D01*
D12*
X00806746Y00259568D02*
X00811318D01*
X00806746Y00273284D02*
X00811318D01*
X00858028Y00273338D02*
X008626D01*
X00858028Y00259622D02*
X008626D01*
M02*
