G04*
G04 #@! TF.GenerationSoftware,Altium Limited,Altium Designer,21.3.2 (30)*
G04*
G04 Layer_Physical_Order=1*
G04 Layer_Color=255*
%FSTAX44Y44*%
%MOMM*%
G71*
G04*
G04 #@! TF.SameCoordinates,F8E9BDDD-FC12-4FEB-8D7F-7DE70A56B409*
G04*
G04*
G04 #@! TF.FilePolarity,Positive*
G04*
G01*
G75*
%ADD10C,0.2540*%
%ADD20C,0.7620*%
%ADD23R,1.2000X1.4000*%
G04:AMPARAMS|DCode=24|XSize=5.5mm|YSize=1.5mm|CornerRadius=0.1875mm|HoleSize=0mm|Usage=FLASHONLY|Rotation=90.000|XOffset=0mm|YOffset=0mm|HoleType=Round|Shape=RoundedRectangle|*
%AMROUNDEDRECTD24*
21,1,5.5000,1.1250,0,0,90.0*
21,1,5.1250,1.5000,0,0,90.0*
1,1,0.3750,0.5625,2.5625*
1,1,0.3750,0.5625,-2.5625*
1,1,0.3750,-0.5625,-2.5625*
1,1,0.3750,-0.5625,2.5625*
%
%ADD24ROUNDEDRECTD24*%
%ADD25R,1.4000X1.2000*%
%ADD26O,1.4500X0.3000*%
%ADD27O,0.3000X1.4500*%
%ADD28R,0.8000X1.2000*%
%ADD29R,1.3970X1.2700*%
%ADD30R,1.2700X1.3970*%
G04:AMPARAMS|DCode=31|XSize=1.34mm|YSize=3.29mm|CornerRadius=0.1675mm|HoleSize=0mm|Usage=FLASHONLY|Rotation=270.000|XOffset=0mm|YOffset=0mm|HoleType=Round|Shape=RoundedRectangle|*
%AMROUNDEDRECTD31*
21,1,1.3400,2.9550,0,0,270.0*
21,1,1.0050,3.2900,0,0,270.0*
1,1,0.3350,-1.4775,-0.5025*
1,1,0.3350,-1.4775,0.5025*
1,1,0.3350,1.4775,0.5025*
1,1,0.3350,1.4775,-0.5025*
%
%ADD31ROUNDEDRECTD31*%
%ADD32R,1.7000X1.7000*%
%ADD33R,1.7000X1.7000*%
%ADD69C,0.2540*%
%ADD70C,1.2700*%
%ADD71R,1.5000X1.0000*%
%ADD72O,1.5000X1.0000*%
%ADD73R,1.5000X1.3000*%
%ADD74O,1.5000X1.3000*%
%ADD75O,1.2000X2.2000*%
%ADD76R,1.8600X1.8600*%
%ADD77C,1.8600*%
%ADD78R,1.5000X1.5000*%
%ADD79C,1.5000*%
%ADD80R,1.5000X1.5000*%
%ADD81C,2.0320*%
%ADD82R,2.0320X2.0320*%
%ADD83C,1.5600*%
%ADD84R,1.5600X1.5600*%
%ADD85C,5.0000*%
%ADD86C,2.0000*%
%ADD87R,2.0000X2.0000*%
%ADD88C,1.4000*%
%ADD89C,2.7940*%
%ADD90O,3.2000X2.2000*%
%ADD91C,1.2700*%
%ADD92C,1.0160*%
%ADD93C,0.7620*%
%ADD94C,1.2000*%
G36*
X01006692Y00019468D02*
X00009309D01*
X00009309Y00290999D01*
X00010579Y00291525D01*
X00041832Y00260272D01*
X0004572Y00258661D01*
X0006731D01*
X00071198Y00260272D01*
X00079516Y0026859D01*
X00087028D01*
X0009336Y00274922D01*
Y00283878D01*
X00087028Y0029021D01*
X00078072D01*
X0007174Y00283878D01*
Y00276366D01*
X00065526Y00270152D01*
X00065057Y00270223D01*
X00064613Y00271575D01*
X0006796Y00274922D01*
Y00283878D01*
X00061628Y0029021D01*
X00052672D01*
X0004634Y00283878D01*
Y00274922D01*
X0005043Y00270832D01*
X00049945Y00269659D01*
X00047998D01*
X00019468Y00298188D01*
Y00311828D01*
X00020524Y00312533D01*
X00021808Y00312001D01*
X00049201D01*
X00049686Y00310828D01*
X0004761Y00308752D01*
Y0030607D01*
X0005715D01*
X0006669D01*
Y00308752D01*
X00064613Y00310828D01*
X000651Y00312001D01*
X00067572D01*
X0007174Y00307834D01*
Y00300322D01*
X00078072Y0029399D01*
X00087028D01*
X0009336Y00300322D01*
Y00309278D01*
X00087028Y0031561D01*
X00079516D01*
X00073738Y00321388D01*
X0006985Y00322999D01*
X00066895D01*
X0006641Y00324172D01*
X0006796Y00325722D01*
Y00334678D01*
X00061628Y0034101D01*
X00052672D01*
X00047361Y00335699D01*
X00042918D01*
X00032169Y00346448D01*
Y00459804D01*
X00033342Y0046029D01*
X00035162Y0045847D01*
X00043578D01*
X00045167Y00460058D01*
X0004634Y00459572D01*
Y00452722D01*
X00052672Y0044639D01*
X00061628D01*
X0006796Y00452722D01*
Y00461678D01*
X00061628Y0046801D01*
X00052672D01*
X00050703Y00466041D01*
X0004953Y00466527D01*
Y00472838D01*
X00043578Y0047879D01*
X00038654D01*
X00038519Y00478926D01*
Y00484044D01*
X00039692Y0048453D01*
X00040242Y0048398D01*
X0004634D01*
Y00478122D01*
X00052672Y0047179D01*
X00061628D01*
X0006796Y00478122D01*
Y00487078D01*
X00067153Y00487885D01*
X00067597Y00489237D01*
X00068066Y00489308D01*
X0007174Y00485634D01*
Y00478122D01*
X00078072Y0047179D01*
X00087028D01*
X0009336Y00478122D01*
Y00487078D01*
X00087028Y0049341D01*
X00079516D01*
X00073738Y00499188D01*
X0006985Y00500798D01*
X00066895D01*
X0006641Y00501972D01*
X0006796Y00503522D01*
Y00512478D01*
X00061628Y0051881D01*
X00052672D01*
X0004634Y00512478D01*
Y005043D01*
X00040242D01*
X00039692Y0050375D01*
X00038519Y00504236D01*
Y00537472D01*
X00078896Y0057785D01*
X00085488D01*
X0009144Y00583802D01*
Y00592218D01*
X00085488Y0059817D01*
X00077072D01*
X0007112Y00592218D01*
Y00585626D01*
X00033342Y00547848D01*
X00032169Y00548334D01*
Y00556313D01*
X00039735Y0056388D01*
X00047388D01*
X0005334Y00569832D01*
Y00578248D01*
X00047388Y005842D01*
X00038972D01*
X0003302Y00578248D01*
Y00572717D01*
X00026992Y00566689D01*
X00025819Y00567175D01*
Y00585732D01*
X00161197Y00721111D01*
X0016237Y00720624D01*
Y00714586D01*
X00160604Y0071282D01*
X00158994Y00708932D01*
Y00703576D01*
X00153682D01*
Y00683956D01*
Y00671047D01*
X00153263Y00670036D01*
Y00624901D01*
X00151993Y00624375D01*
X00146448Y0062992D01*
X00139429D01*
X0013843Y00630574D01*
X0013843Y00631025D01*
Y00636886D01*
X00133966Y0064135D01*
X00127654D01*
X0012319Y00636886D01*
Y0063327D01*
X00121842Y00631922D01*
X00120232Y00628034D01*
Y00540503D01*
X00118961Y00539977D01*
X00113161Y00545778D01*
X00113245Y00549507D01*
X0011811Y00554372D01*
Y00562789D01*
X00112158Y0056874D01*
X00103742D01*
X0009779Y00562789D01*
Y00554372D01*
X00102254Y00549908D01*
X00102138Y00544762D01*
X00102162Y005447D01*
X00102136Y00544638D01*
X00102136Y00543527D01*
X00102918Y00541641D01*
X00103747Y0053964D01*
X0010449Y00538896D01*
X0010449Y00538896D01*
X0010449Y00538896D01*
X00108976Y0053441D01*
X0010819Y005334D01*
X00099932D01*
X0009398Y00527448D01*
Y00519032D01*
X00098642Y0051437D01*
Y00459478D01*
X00094533Y00455369D01*
X0009336Y00455855D01*
Y00461678D01*
X00087028Y0046801D01*
X00078072D01*
X0007174Y00461678D01*
Y00452722D01*
X00073291Y00451172D01*
X00072804Y00449999D01*
X0006985D01*
X00065962Y00448388D01*
X00060184Y0044261D01*
X00052672D01*
X0004634Y00436278D01*
Y00427322D01*
X00052672Y0042099D01*
X00061628D01*
X0006796Y00427322D01*
Y00434834D01*
X00071634Y00438508D01*
X00072103Y00438437D01*
X00072547Y00437085D01*
X0007174Y00436278D01*
Y00427322D01*
X00073291Y00425772D01*
X00072804Y00424599D01*
X0006985D01*
X00065962Y00422988D01*
X00060184Y0041721D01*
X00052672D01*
X0004634Y00410878D01*
Y00401922D01*
X00052672Y0039559D01*
X00061628D01*
X0006796Y00401922D01*
Y00409434D01*
X00071634Y00413108D01*
X00072103Y00413037D01*
X00072547Y00411685D01*
X0007174Y00410878D01*
Y00401922D01*
X00073098Y00400565D01*
X00072637Y00399381D01*
X0006967Y00399252D01*
X00067863Y0039841D01*
X00066021Y00397647D01*
X00060184Y0039181D01*
X00052672D01*
X0004634Y00385478D01*
Y00376522D01*
X00052672Y0037019D01*
X00061628D01*
X0006796Y00376522D01*
Y00384034D01*
X00071814Y00387888D01*
X00072292Y00387826D01*
X00072748Y00386486D01*
X0007174Y00385478D01*
Y00376522D01*
X00073291Y00374972D01*
X00072804Y00373798D01*
X0006985D01*
X00065962Y00372188D01*
X00060184Y0036641D01*
X00052672D01*
X0004634Y00360078D01*
Y00351122D01*
X00052672Y0034479D01*
X00061628D01*
X0006796Y00351122D01*
Y00358634D01*
X00071634Y00362308D01*
X00072103Y00362237D01*
X00072547Y00360885D01*
X0007174Y00360078D01*
Y00351122D01*
X00078072Y0034479D01*
X00085584D01*
X00100252Y00330122D01*
X00100252Y00330122D01*
X00129122Y00301252D01*
Y00227358D01*
X00129954Y00225348D01*
X00129941Y00225342D01*
X00136458Y0020961D01*
X00159674Y00179355D01*
X00160261Y00179943D01*
X00160261Y00179943D01*
X00255192Y00085012D01*
X0025908Y00083401D01*
X00532958D01*
X00536846Y00085012D01*
X00588916Y00137082D01*
X00588916Y00137082D01*
X00622944Y0017111D01*
X00624554Y00174998D01*
X00628866D01*
Y0018802D01*
X00636348Y00195502D01*
X00637958Y0019939D01*
Y0022479D01*
X00636348Y00228678D01*
X00621108Y00243918D01*
X0061722Y00245529D01*
X0054886D01*
X00544972Y00243918D01*
X00537442Y00236388D01*
X00537339Y0023614D01*
X00537178Y00236032D01*
X0053707Y00235871D01*
X00536822Y00235768D01*
X00533322Y00232268D01*
X00533236Y00232062D01*
X00531991Y00231814D01*
X00529195Y0023461D01*
X00519825D01*
X005132Y00227985D01*
Y00218615D01*
X00519825Y0021199D01*
X00529028D01*
X00529808Y00210974D01*
X00528044Y0020921D01*
X00519825D01*
X00518482Y00207867D01*
X00517247Y00208428D01*
X00515698Y00212168D01*
X00509835Y00218031D01*
X0051042Y00218615D01*
Y00227985D01*
X00503795Y0023461D01*
X00503339D01*
Y002457D01*
X00504512Y00246186D01*
X00508128Y0024257D01*
X00515492D01*
X005207Y00247778D01*
Y00255142D01*
X00515492Y0026035D01*
X00511966D01*
X00459906Y0031241D01*
X00460135Y00313728D01*
X0046114Y00314235D01*
X0046315Y00313403D01*
X00467214Y00315086D01*
X00468898Y0031915D01*
Y0033065D01*
X00468648Y00331251D01*
Y00339445D01*
X00469919Y00339697D01*
X00470586Y00338086D01*
X0047465Y00336403D01*
X00479521D01*
X00480334Y0033444D01*
X00550912Y00263862D01*
X005548Y00262252D01*
X00583864D01*
X00589675Y0025644D01*
X00599045D01*
X0060567Y00263065D01*
Y00272268D01*
X00606686Y00273048D01*
X0060845Y00271284D01*
Y0025644D01*
X00627018D01*
X00627505Y00255267D01*
X0062611Y00253872D01*
Y00246508D01*
X00631318Y002413D01*
X00638682D01*
X0064389Y00246508D01*
Y00253872D01*
X00640499Y00257264D01*
Y0035411D01*
X00638888Y00357998D01*
X00638144Y00358742D01*
X00638144Y00358742D01*
X0063107Y00365816D01*
Y00374035D01*
X00624445Y0038066D01*
X00616226D01*
X00614462Y00382424D01*
X00615242Y0038344D01*
X00624445D01*
X0063107Y00390065D01*
Y00399435D01*
X00624445Y0040606D01*
X00616226D01*
X00614462Y00407824D01*
X00615242Y0040884D01*
X00624445D01*
X0063107Y00415465D01*
Y00424835D01*
X00624445Y0043146D01*
X00615242D01*
X00614462Y00432476D01*
X00616226Y0043424D01*
X00624445D01*
X0063107Y00440865D01*
Y00450235D01*
X00624445Y0045686D01*
X00615075D01*
X0060845Y00450235D01*
Y00442016D01*
X00606686Y00440252D01*
X0060567Y00441032D01*
Y00450235D01*
X00604327Y00451578D01*
X00604824Y00452877D01*
X00608408Y00454362D01*
X00614381Y00460335D01*
X00615075Y0045964D01*
X00624445D01*
X0063107Y00466265D01*
Y00475635D01*
X00624445Y0048226D01*
X00615075D01*
X0060845Y00475635D01*
Y00469956D01*
X00606843Y0046835D01*
X0060567Y00468836D01*
Y00475635D01*
X00604327Y00476978D01*
X00604824Y00478277D01*
X00608408Y00479762D01*
X00614381Y00485735D01*
X00615075Y0048504D01*
X00624445D01*
X0063107Y00491665D01*
Y00501035D01*
X00624445Y0050766D01*
X00615242D01*
X00614462Y00508676D01*
X00616226Y0051044D01*
X00624445D01*
X0063107Y00517065D01*
Y00526435D01*
X00624445Y0053306D01*
X00615075D01*
X0060845Y00526435D01*
Y00518216D01*
X00606686Y00516452D01*
X0060567Y00517232D01*
Y00526435D01*
X00599045Y0053306D01*
X00589675D01*
X00588549Y00533527D01*
Y00535373D01*
X00589675Y0053584D01*
X00599045D01*
X0060567Y00542465D01*
Y00551835D01*
X00603595Y0055391D01*
Y00589646D01*
X00606144D01*
Y00589915D01*
X00606794Y00590916D01*
X00607414Y00590916D01*
X00614064D01*
Y00600456D01*
Y00609996D01*
X00607414D01*
X00606794Y00609996D01*
X00606144Y00610997D01*
Y00611266D01*
X00602398D01*
Y00613776D01*
X00606144D01*
Y00614045D01*
X00606794Y00615046D01*
X00607414Y00615046D01*
X00614064D01*
Y00624586D01*
Y00634126D01*
X00607414D01*
X00606794Y00634126D01*
X00606144Y00635127D01*
Y00635396D01*
X00588549D01*
Y00641732D01*
X00726178Y00779361D01*
X00762D01*
X00765888Y00780972D01*
X00837266Y0085235D01*
X00838578Y00851038D01*
X00847947D01*
X00854573Y00857663D01*
Y00867032D01*
X00847947Y00873658D01*
X00838578D01*
X00831953Y00867032D01*
Y00862589D01*
X00830346Y00860982D01*
X00829173Y00861468D01*
Y00867032D01*
X00823361Y00872844D01*
Y00924063D01*
X00823356Y00924076D01*
X008257Y0092642D01*
X0083248Y0091964D01*
X0084392D01*
X0085201Y0092773D01*
Y0093917D01*
X0084392Y0094726D01*
X0083248D01*
X008257Y0094048D01*
X0081892Y0094726D01*
X00807479D01*
X00799802Y00939582D01*
X00793394Y0094599D01*
X0078947D01*
Y0093345D01*
Y0092091D01*
X00793394D01*
X00799802Y00927318D01*
X00807479Y0091964D01*
X00812364D01*
Y00872844D01*
X00806553Y00867032D01*
Y00857663D01*
X00807265Y00856951D01*
X00747022Y00796709D01*
X00717469D01*
X0071715Y00796709D01*
X0071715Y00797401D01*
Y0080645D01*
X0070738D01*
Y0079668D01*
X00712956D01*
X00713204Y00795434D01*
X00712392Y00795098D01*
X00567403Y0065011D01*
X00565793Y00646222D01*
Y00600445D01*
X00564731Y00597882D01*
Y00575048D01*
X00562393Y00572709D01*
X0056122Y00573195D01*
Y00577235D01*
X00554595Y0058386D01*
X00551432D01*
X00550583Y0058513D01*
X00551209Y0058664D01*
X0056122D01*
Y0060926D01*
X005386D01*
Y00588177D01*
X00538587Y00588165D01*
X00538402Y00588088D01*
X00532516Y00582202D01*
X00532466Y00582082D01*
X00531221Y00581834D01*
X00529195Y0058386D01*
X00523665D01*
X00523179Y00585033D01*
X00524786Y0058664D01*
X00529195D01*
X0053582Y00593265D01*
Y00602635D01*
X00529195Y0060926D01*
X00519825D01*
X005132Y00602635D01*
Y00593265D01*
X0051453Y00591936D01*
X00507922Y00585328D01*
X00506809Y00582642D01*
X00505311Y00582344D01*
X00503795Y0058386D01*
X00503081D01*
X00502232Y0058513D01*
X00502858Y0058664D01*
X00503795D01*
X0051042Y00593265D01*
Y00602635D01*
X00503795Y0060926D01*
X00494425D01*
X004878Y00602635D01*
Y00593265D01*
X0049156Y00589506D01*
X00482522Y00580468D01*
X00481909Y00580346D01*
X00478395Y0058386D01*
X00469192D01*
X00468412Y00584876D01*
X00470176Y0058664D01*
X00478395D01*
X0048502Y00593265D01*
Y00602635D01*
X00478395Y0060926D01*
X00469025D01*
X004624Y00602635D01*
Y00594416D01*
X00460636Y00592652D01*
X0045962Y00593432D01*
Y00602635D01*
X00452995Y0060926D01*
X00443625D01*
X00437Y00602635D01*
Y00594416D01*
X00435236Y00592652D01*
X0043422Y00593432D01*
Y00602635D01*
X00427595Y0060926D01*
X00418225D01*
X004116Y00602635D01*
Y00593265D01*
X00413455Y00591411D01*
X00406322Y00584278D01*
X00405428Y0058212D01*
X00404183Y00581872D01*
X00402195Y0058386D01*
X00392825D01*
X00391482Y00582517D01*
X00390308Y00583003D01*
Y0058525D01*
X00388816Y00588853D01*
X00389893Y00589573D01*
X00392825Y0058664D01*
X00402195D01*
X0040882Y00593265D01*
Y00602635D01*
X00402195Y0060926D01*
X00392825D01*
X003862Y00602635D01*
Y00593432D01*
X00385184Y00592652D01*
X0038342Y00594416D01*
Y00602635D01*
X00376795Y0060926D01*
X00367425D01*
X003608Y00602635D01*
Y00593432D01*
X00359784Y00592652D01*
X0035802Y00594416D01*
Y00602635D01*
X00356055Y00604599D01*
X0037465Y00623194D01*
X0037592Y00622668D01*
Y00616078D01*
X00381128Y0061087D01*
X00388492D01*
X003937Y00616078D01*
Y00621092D01*
X00393778Y0062117D01*
X00395388Y00625058D01*
Y0066929D01*
X00393778Y00673178D01*
X00307556Y007594D01*
X00308262Y00760456D01*
X0030861Y00760312D01*
X0042418D01*
Y00755015D01*
X004445D01*
Y00776605D01*
X0042418D01*
Y00771309D01*
X00382206D01*
X0038172Y00772482D01*
X0038608Y00776842D01*
Y00785258D01*
X00380128Y0079121D01*
X00371712D01*
X00368828Y00788326D01*
X00358836D01*
X00358117Y00788028D01*
X00318376D01*
X00297498Y00808906D01*
X00291666Y00811322D01*
X00214618D01*
Y00812884D01*
X00192998D01*
Y00811322D01*
X00184634D01*
X00178802Y00808906D01*
X00166326Y0079643D01*
X0016237D01*
Y00790568D01*
X00142894D01*
X00137062Y00788152D01*
X00132598Y00783688D01*
X00130182Y00777856D01*
Y00751391D01*
X00127Y00748208D01*
Y00739792D01*
X00132952Y0073384D01*
X00141368D01*
X0014732Y00739792D01*
Y00748208D01*
X00146611Y00748918D01*
X00146678Y0074908D01*
Y00774072D01*
X00165526D01*
X00171358Y00776488D01*
X00171681Y0077681D01*
X0017799D01*
Y00783563D01*
X00178428Y0078462D01*
Y00785204D01*
X0018805Y00794826D01*
X00192998D01*
Y00774264D01*
X001919Y00773848D01*
X0018796D01*
X00184072Y00772238D01*
X00010579Y00598745D01*
X00009309Y00599271D01*
X00009309Y01015582D01*
X00333058D01*
X00333544Y01014408D01*
X00213866Y0089473D01*
X00213528Y0089487D01*
X00203528D01*
X00192193Y00890175D01*
X00187498Y0087884D01*
X00190567Y00871431D01*
X00161983Y00842847D01*
X00076539D01*
X00072463Y00846923D01*
X00065928Y0084963D01*
X00058854D01*
X0005232Y00846923D01*
X00047318Y00841922D01*
X00046797Y00840663D01*
X00044294Y00839626D01*
X00041073Y0083185D01*
X00044294Y00824074D01*
X00046458Y0082191D01*
X00047702Y00821395D01*
X0005232Y00816777D01*
X00058854Y0081407D01*
X00065928D01*
X00072463Y00816777D01*
X00076539Y00820853D01*
X00166538D01*
X00174314Y00824074D01*
X00209525Y00859284D01*
X00210985Y0086281D01*
X00213528D01*
X00224863Y00867505D01*
X00229558Y0087884D01*
X00229418Y00879178D01*
X00348893Y00998653D01*
X0039072D01*
X00391425Y00997597D01*
X00390702Y0099585D01*
Y0098585D01*
X00393812Y00978342D01*
X0040132Y00975232D01*
X00408828Y00978342D01*
X00409185Y00979203D01*
X00410455D01*
X00410812Y00978342D01*
X0041832Y00975232D01*
X00425828Y00978342D01*
X00426133Y00979077D01*
X00427507D01*
X00427812Y00978342D01*
X0043532Y00975232D01*
X00442828Y00978342D01*
X00445938Y0098585D01*
Y00989936D01*
X00446317Y0099085D01*
X00445938Y00991765D01*
Y0099585D01*
X00442828Y01003358D01*
X0043532Y01006468D01*
X00427812Y01003358D01*
X00427621Y01002899D01*
X00426247D01*
X00423478Y01009584D01*
X00418653Y01014408D01*
X0041914Y01015582D01*
X01006692D01*
Y00019468D01*
D02*
G37*
G36*
X00819228Y00849864D02*
X00759722Y00790359D01*
X00757884D01*
X00757398Y00791532D01*
X00816904Y00851038D01*
X00818742D01*
X00819228Y00849864D01*
D02*
G37*
G36*
X00293389Y00789687D02*
X0029267Y0078861D01*
X00290346Y00789573D01*
X00214618D01*
Y00794826D01*
X00288249D01*
X00293389Y00789687D01*
D02*
G37*
G36*
X00291884Y0077476D02*
X00291178Y00773704D01*
X0029083Y00773848D01*
X00215716D01*
X00214618Y00774264D01*
Y00778576D01*
X00288068D01*
X00291884Y0077476D01*
D02*
G37*
G36*
X00303111Y00667012D02*
Y00608403D01*
X00301938Y00607917D01*
X00300595Y0060926D01*
X00291225D01*
X002846Y00602635D01*
Y00593265D01*
X00291225Y0058664D01*
X00300595D01*
X00301938Y00587984D01*
X00303111Y00587497D01*
Y0058525D01*
X00304604Y00581647D01*
X00303527Y00580928D01*
X00300595Y0058386D01*
X00291225D01*
X00289709Y00582344D01*
X00288211Y00582642D01*
X00287098Y00585328D01*
X0028049Y00591936D01*
X0028182Y00593265D01*
Y00602635D01*
X00275195Y0060926D01*
X00265825D01*
X002592Y00602635D01*
Y00593265D01*
X00265825Y0058664D01*
X00270234D01*
X00271841Y00585033D01*
X00271355Y0058386D01*
X00265825D01*
X002592Y00577235D01*
Y00567865D01*
X00265825Y0056124D01*
X00275195D01*
X00276538Y00562584D01*
X00277712Y00562098D01*
Y0055245D01*
X00279322Y00548562D01*
X00311072Y00516812D01*
X00312993Y00516016D01*
X00312741Y00514746D01*
X00307074D01*
X00306424Y00515747D01*
Y00516016D01*
X00286804D01*
Y00504951D01*
X00285631Y00504465D01*
X00276008Y00514088D01*
Y0053064D01*
X00274398Y00534528D01*
X00261478Y00547448D01*
X0025759Y00549058D01*
X0019199D01*
X00188102Y00547448D01*
X00187684Y0054703D01*
X00179465D01*
X0017284Y00540405D01*
Y00531202D01*
X00171824Y00530422D01*
X0017006Y00532186D01*
Y0054703D01*
X00154177D01*
X00153616Y00548169D01*
X00163122Y00560542D01*
X00163582Y00562254D01*
X00164261Y00563892D01*
Y00664956D01*
X00175302D01*
Y00683956D01*
Y00688268D01*
X00179656D01*
Y00683956D01*
X00179925D01*
X00180926Y00683306D01*
X00180926Y00682686D01*
Y00676036D01*
X00190466D01*
X00200006D01*
Y00682686D01*
X00200006Y00683306D01*
X00201007Y00683956D01*
X00201276D01*
Y00703576D01*
X00179656D01*
Y00699265D01*
X00175302D01*
Y00703576D01*
X00169991D01*
Y00706655D01*
X00170146Y0070681D01*
X0017799D01*
Y00718654D01*
X00190458Y00731122D01*
X00191728Y00730596D01*
Y00727224D01*
X00191997D01*
X00192998Y00726574D01*
X00192998Y00725954D01*
Y00719304D01*
X00202538D01*
X00212078D01*
Y00725954D01*
X00212078Y00726574D01*
X00213079Y00727224D01*
X00213348D01*
Y00746844D01*
X002143Y00747611D01*
X00222512D01*
X00303111Y00667012D01*
D02*
G37*
G36*
X00375861Y00675543D02*
X00375375Y0067437D01*
X00369172D01*
X00368203Y00673402D01*
X0036703Y00673888D01*
Y00679848D01*
X00361078Y006858D01*
X00352662D01*
X0034671Y00679848D01*
Y00673256D01*
X00345374Y0067192D01*
X00344158Y00672184D01*
X003431Y00672696D01*
X00342888Y00672834D01*
X00342888Y00673454D01*
Y00680104D01*
X00333348D01*
Y00681374D01*
X00332078D01*
Y00689914D01*
X00323808D01*
Y00686421D01*
X00322538Y00685895D01*
X00318098Y00690335D01*
X00315685D01*
Y00681445D01*
X00313145D01*
Y00690335D01*
X00310733D01*
X00305525Y00685128D01*
Y0068181D01*
X00304352Y00681324D01*
X00228678Y00756998D01*
X0022479Y00758608D01*
X00187654D01*
X00187168Y00759782D01*
X00190238Y00762851D01*
X00288552D01*
X00375861Y00675543D01*
D02*
G37*
G36*
X00384392Y00659057D02*
Y0062865D01*
X00381128D01*
X00378892Y00626415D01*
X00377816Y00627134D01*
X00378879Y006297D01*
Y0065534D01*
X00383121Y00659583D01*
X00384392Y00659057D01*
D02*
G37*
G36*
X0036322Y00665962D02*
Y00660002D01*
X00367882Y0065534D01*
Y00631978D01*
X0035439Y00618487D01*
X00353334Y00619192D01*
X00353479Y0061954D01*
Y00664472D01*
X00354486Y0066548D01*
X00361078D01*
X00362047Y00666448D01*
X0036322Y00665962D01*
D02*
G37*
G36*
X00323808Y0067647D02*
X00323808Y00672834D01*
X00322807Y00672184D01*
X00322538D01*
Y00652564D01*
X00327242D01*
Y00629374D01*
X0032385Y00625982D01*
Y00618618D01*
X00329058Y0061341D01*
X00332414D01*
X003329Y00612237D01*
X00331512Y00610848D01*
X00329957Y00607094D01*
X00328728Y00606527D01*
X00325995Y0060926D01*
X00316625D01*
X00315282Y00607917D01*
X00314109Y00608403D01*
Y0066929D01*
X00313193Y00671499D01*
X00313899Y00672555D01*
X00318098D01*
X00322538Y00676996D01*
X00323808Y0067647D01*
D02*
G37*
G36*
X003354Y00576084D02*
Y00567865D01*
X00339604Y00563662D01*
Y00562728D01*
X00341214Y0055884D01*
X00341351Y00558703D01*
X00340865Y0055753D01*
X00340488D01*
X0033528Y00552322D01*
X00334427Y00551969D01*
X00326809Y00559588D01*
Y00562054D01*
X0033262Y00567865D01*
Y00577068D01*
X00333636Y00577848D01*
X003354Y00576084D01*
D02*
G37*
G36*
X00153263Y00614619D02*
Y0056576D01*
X00142591Y0055187D01*
X00141389Y00552279D01*
Y00609464D01*
X00141524Y006096D01*
X00146448D01*
X00151993Y00615145D01*
X00153263Y00614619D01*
D02*
G37*
G36*
X00252311Y00526965D02*
Y00518359D01*
X00234666D01*
X0023418Y00519532D01*
X0023495Y00520302D01*
Y00528718D01*
X002344Y00529268D01*
X00234886Y00530442D01*
X00248835D01*
X00252311Y00526965D01*
D02*
G37*
G36*
X00577551Y00597463D02*
Y00523098D01*
X0054991Y00495456D01*
X0054864Y00495982D01*
Y0049784D01*
X0054102D01*
Y0049022D01*
X00542878D01*
X00543404Y0048895D01*
X00507103Y00452649D01*
X00491691D01*
X00490214Y00456214D01*
X00490147Y00456242D01*
X00490523Y0045715D01*
X00490147Y00458058D01*
X00490214Y00458086D01*
X00491898Y0046215D01*
X00490378Y00465817D01*
Y00468962D01*
X00497253Y00475837D01*
X00497834Y00475596D01*
X00507966D01*
X00517506D01*
Y00482866D01*
X00518507Y00483516D01*
X00518776D01*
Y0049536D01*
X00525066Y0050165D01*
X0053086D01*
Y0050038D01*
X0054864D01*
Y00502792D01*
X00543432Y00508D01*
X0053848D01*
Y00516018D01*
X00532528Y0052197D01*
X00528866D01*
X00528379Y00523143D01*
X00574118Y00568882D01*
X00575728Y0057277D01*
Y00596381D01*
X00576281Y00597715D01*
X00577551Y00597463D01*
D02*
G37*
G36*
X00342372Y0049195D02*
X00342074Y00490452D01*
X00339483Y00489379D01*
X00319218D01*
X00314103Y00494493D01*
X00314344Y00495074D01*
Y00505206D01*
X00315614D01*
Y00506476D01*
X00324154D01*
Y00508509D01*
X00325327Y00508995D01*
X00342372Y0049195D01*
D02*
G37*
G36*
X00545225Y0056124D02*
X00549265D01*
X00549751Y00560067D01*
X00496546Y00506862D01*
X0049571Y00506516D01*
X00493776Y00504582D01*
X0049343Y00503746D01*
X00474583Y00484899D01*
X00470204D01*
X00469871Y00485684D01*
X00469815Y00486169D01*
X00540292Y00556646D01*
X00541903Y00560534D01*
Y00562904D01*
X00543076Y0056339D01*
X00545225Y0056124D01*
D02*
G37*
G36*
X0045315Y00467903D02*
X0045565Y00468938D01*
X00457807Y00468045D01*
X00457951Y00466729D01*
X0045607Y0046595D01*
X00454582Y00464462D01*
X00452971Y00460574D01*
Y00448048D01*
X00446548Y00441624D01*
X00445278Y0044215D01*
Y0044896D01*
X0044007Y00454168D01*
X00432706D01*
X004318Y00454543D01*
Y00459612D01*
X00426592Y0046482D01*
X00421796D01*
X0041961Y00467006D01*
X00419831Y00468237D01*
X00420973Y00468804D01*
X0042315Y00467903D01*
X0042565Y00468938D01*
X0042815Y00467903D01*
X0043065Y00468938D01*
X0043315Y00467903D01*
X0043565Y00468938D01*
X0043815Y00467903D01*
X0044065Y00468938D01*
X0044315Y00467903D01*
X0044565Y00468938D01*
X0044815Y00467903D01*
X0045065Y00468938D01*
X0045315Y00467903D01*
D02*
G37*
G36*
X0039315D02*
X0039565Y00468938D01*
X00397651Y00468109D01*
Y00463848D01*
X00391004Y004572D01*
X00386208D01*
X00381Y00451992D01*
Y00444628D01*
X00386208Y0043942D01*
X00393572D01*
X0039878Y00444628D01*
Y00449424D01*
X00401478Y00452122D01*
X00402651Y00451636D01*
Y0045037D01*
X00404262Y00446482D01*
X00409354Y0044139D01*
X00413242Y00439779D01*
X00429314D01*
X00432423Y00436671D01*
X00432023Y00435401D01*
X00366179D01*
Y0044428D01*
X00364568Y00448168D01*
X00364199Y00448537D01*
X0036449Y00449238D01*
Y0045825D01*
X0036576D01*
Y0045952D01*
X003743D01*
Y00461787D01*
X00369297Y0046679D01*
X00368783D01*
X0036853Y0046806D01*
X0037065Y00468938D01*
X0037315Y00467903D01*
X0037565Y00468938D01*
X0037815Y00467903D01*
X0038065Y00468938D01*
X0038315Y00467903D01*
X0038565Y00468938D01*
X0038815Y00467903D01*
X0039065Y00468938D01*
X0039315Y00467903D01*
D02*
G37*
G36*
X00313052Y00479992D02*
X0031694Y00478382D01*
X00337402D01*
Y0047365D01*
X00337651Y00473049D01*
Y00464856D01*
X00336381Y00464603D01*
X00335714Y00466214D01*
X0033165Y00467898D01*
X00322198D01*
X00296873Y00493223D01*
X00297359Y00494396D01*
X00298648D01*
X00313052Y00479992D01*
D02*
G37*
G36*
X00270366Y00447028D02*
X0026988Y00445854D01*
X00261004D01*
Y00441543D01*
X00246728D01*
Y00468869D01*
X00247998Y00469395D01*
X00270366Y00447028D01*
D02*
G37*
G36*
X00110071Y00454926D02*
Y00436618D01*
X00098052Y00424599D01*
X00092296D01*
X0009181Y00425772D01*
X0009336Y00427322D01*
Y00436278D01*
X0009181Y00437828D01*
X00092142Y00439292D01*
X00095328Y00440612D01*
X00108028Y00453312D01*
X00108801Y00455179D01*
X00110071Y00454926D01*
D02*
G37*
G36*
X00223172Y00467516D02*
Y00419245D01*
X00224974Y00414894D01*
X00229325Y00413092D01*
X00240575D01*
X00244926Y00414894D01*
X00246728Y00419245D01*
Y00430546D01*
X00261004D01*
Y00426234D01*
Y00407666D01*
X00260936D01*
Y00388046D01*
Y00379625D01*
X00246728D01*
Y00385495D01*
X00244926Y00389846D01*
X00240575Y00391648D01*
X00229325D01*
X00224974Y00389846D01*
X00223172Y00385495D01*
Y00334526D01*
X00222203Y00333572D01*
X00222182Y00333558D01*
X00221399Y00333742D01*
Y0036576D01*
X00219788Y00369648D01*
X00214708Y00374728D01*
X0021082Y00376339D01*
X00194823D01*
X00194336Y00377512D01*
X0019546Y00378635D01*
Y00388005D01*
X00188835Y0039463D01*
X00179465D01*
X0017284Y00388005D01*
Y00378635D01*
X00173964Y00377512D01*
X00173477Y00376339D01*
X0017167D01*
X00168067Y00374846D01*
X00167347Y00375923D01*
X0017006Y00378635D01*
Y00388005D01*
X00163435Y0039463D01*
X00154065D01*
X00151572Y00392137D01*
X00150399Y00392623D01*
Y00399417D01*
X00151572Y00399903D01*
X00154065Y0039741D01*
X00163435D01*
X0017006Y00404035D01*
Y00413405D01*
X00163435Y0042003D01*
X00154065D01*
X00151572Y00417537D01*
X00150399Y00418023D01*
Y00424818D01*
X00151572Y00425303D01*
X00154065Y0042281D01*
X00163435D01*
X0017006Y00429435D01*
Y00438805D01*
X00163435Y0044543D01*
X00154065D01*
X00151572Y00442937D01*
X00150399Y00443423D01*
Y00450218D01*
X00151572Y00450704D01*
X00154065Y0044821D01*
X00163435D01*
X00164764Y0044954D01*
X00171372Y00442932D01*
X00174058Y00441819D01*
X00174356Y00440321D01*
X0017284Y00438805D01*
Y00429435D01*
X00179465Y0042281D01*
X00188835D01*
X0019546Y00429435D01*
Y00438805D01*
X00193944Y00440321D01*
X00194242Y00441819D01*
X00196928Y00442932D01*
X00221998Y00468002D01*
X00223172Y00467516D01*
D02*
G37*
G36*
X00299132Y00418262D02*
X0030302Y00416652D01*
X00314892D01*
X00315741Y00415382D01*
X00314609Y00412649D01*
X00302298D01*
X00295184Y00419762D01*
X00291296Y00421373D01*
X00282624D01*
Y00433111D01*
X00283797Y00433597D01*
X00299132Y00418262D01*
D02*
G37*
G36*
X00122574Y0050038D02*
X00128886D01*
X00129218Y00500712D01*
X00130392Y00500226D01*
Y00410364D01*
X00129218Y00409878D01*
X00128886Y0041021D01*
X00122574D01*
X0011811Y00405746D01*
Y00401358D01*
X00093395Y00400284D01*
X00092884Y00401446D01*
X0009336Y00401922D01*
Y00410878D01*
X0009181Y00412428D01*
X00092296Y00413601D01*
X0010033D01*
X00104218Y00415212D01*
X00119458Y00430452D01*
X00121068Y0043434D01*
Y00500226D01*
X00122242Y00500712D01*
X00122574Y0050038D01*
D02*
G37*
G36*
X00470205Y00455294D02*
X00468903Y0045215D01*
X00469938Y0044965D01*
X00468903Y0044715D01*
X00469938Y0044465D01*
X00468903Y0044215D01*
X00469938Y0043965D01*
X00468903Y0043715D01*
X00469938Y0043465D01*
X00468903Y0043215D01*
X00469938Y0042965D01*
X00468903Y0042715D01*
X00469938Y0042465D01*
X00468903Y0042215D01*
X00469938Y0041965D01*
X00468903Y0041715D01*
X00469938Y0041465D01*
X00468903Y0041215D01*
X00469938Y0040965D01*
X00468903Y0040715D01*
X00469938Y0040465D01*
X00468903Y0040215D01*
X00469938Y0039965D01*
X00468903Y0039715D01*
X00469938Y0039465D01*
X00468903Y0039215D01*
X00469938Y0038965D01*
X00468903Y0038715D01*
X00469938Y0038465D01*
X00468903Y0038215D01*
X00469938Y0037965D01*
X00468903Y0037715D01*
X00469938Y0037465D01*
X00468903Y0037215D01*
X00469938Y0036965D01*
X00468903Y0036715D01*
X00469938Y0036465D01*
X00468903Y0036215D01*
X00469938Y0035965D01*
X00468903Y0035715D01*
X00469938Y0035465D01*
X00468903Y0035215D01*
X00469938Y0034965D01*
X00468903Y0034715D01*
X00469938Y0034465D01*
X00469438Y00343443D01*
X00468063D01*
X00467038Y00345918D01*
X00456228Y00356728D01*
X0045234Y00358339D01*
X00366179D01*
Y0036427D01*
Y00413203D01*
X00367449Y00413729D01*
X00372238Y0040894D01*
X0037465D01*
Y0041783D01*
X0037592D01*
Y004191D01*
X0038481D01*
Y00421512D01*
X00383092Y0042323D01*
X00383578Y00424403D01*
X00442602D01*
X0044649Y00426014D01*
X00462358Y00441882D01*
X00463969Y0044577D01*
Y00456564D01*
X00469356D01*
X00470205Y00455294D01*
D02*
G37*
G36*
X00355182Y00407376D02*
Y0038908D01*
X00354008Y00388594D01*
X00351662Y0039094D01*
X0034925D01*
Y0038205D01*
X0034798D01*
Y0038078D01*
X0033909D01*
Y00378368D01*
X00343539Y00373919D01*
X00343013Y00372649D01*
X00336908D01*
X00336059Y00373919D01*
X00337397Y0037715D01*
X00336362Y0037965D01*
X00337397Y0038215D01*
X00336362Y0038465D01*
X00337397Y0038715D01*
X00336362Y0038965D01*
X00337397Y0039215D01*
X00336362Y0039465D01*
X00337397Y0039715D01*
X00336362Y0039965D01*
X00337397Y0040215D01*
X00336362Y0040465D01*
X00337191Y00406652D01*
X0035052D01*
X00353911Y00408056D01*
X00355182Y00407376D01*
D02*
G37*
G36*
X00559992Y00365462D02*
X0056388Y00363852D01*
X00566266D01*
X00566752Y00362678D01*
X0056388Y00359806D01*
Y00357661D01*
X00563461Y0035665D01*
X0056388Y0035564D01*
Y00353494D01*
X00564368Y00353006D01*
X00563882Y00351833D01*
X00557424D01*
X00546159Y00363097D01*
X00546646Y0036427D01*
X00546716D01*
X0055118Y00368734D01*
Y00372615D01*
X00552353Y00373101D01*
X00559992Y00365462D01*
D02*
G37*
G36*
X00210401Y00363482D02*
Y00351113D01*
X00209345Y00350407D01*
X00208062Y00350938D01*
X00194823D01*
X00194336Y00352112D01*
X0019546Y00353235D01*
Y00362605D01*
X00193897Y00364168D01*
X00194383Y00365341D01*
X00208542D01*
X00210401Y00363482D01*
D02*
G37*
G36*
X00148133Y00363298D02*
X0014744Y00362605D01*
Y00353235D01*
X00154065Y0034661D01*
X00163435D01*
X0017006Y00353235D01*
Y00361454D01*
X00171824Y00363218D01*
X0017284Y00362438D01*
Y00353235D01*
X00173964Y00352112D01*
X00173477Y00350938D01*
X0017294D01*
X00169052Y00349328D01*
X00163494Y00343771D01*
X00163435Y0034383D01*
X00154065D01*
X0014744Y00337205D01*
Y00327835D01*
X00154065Y0032121D01*
X00163435D01*
X0017006Y00327835D01*
Y00334784D01*
X0017157Y00336294D01*
X0017284Y00335768D01*
Y00327835D01*
X00174183Y00326492D01*
X00173697Y00325319D01*
X0017272D01*
X00168832Y00323708D01*
X00163494Y00318371D01*
X00163435Y0031843D01*
X00154065D01*
X0014744Y00311805D01*
Y00302435D01*
X00154065Y0029581D01*
X00163268D01*
X00164048Y00294794D01*
X00162284Y0029303D01*
X00154065D01*
X0014744Y00286405D01*
Y00278186D01*
X00142162Y00272908D01*
X00141389Y00271041D01*
X00140119Y00271294D01*
Y0030353D01*
X00138508Y00307418D01*
X00118588Y00327338D01*
X00119074Y00328512D01*
X00128072D01*
X00130194Y0032639D01*
X00136506D01*
X0014097Y00330854D01*
Y00337166D01*
X00136506Y0034163D01*
X00130194D01*
X00128072Y00339509D01*
X00106418D01*
X0009336Y00352566D01*
Y00360078D01*
X0009181Y00361628D01*
X00092296Y00362802D01*
X00134402D01*
X0013829Y00364412D01*
X00139778Y003659D01*
X00141389Y00369788D01*
Y00372174D01*
X00142659Y00372523D01*
X00148133Y00363298D01*
D02*
G37*
G36*
X00273737Y00367873D02*
X00247902Y00342038D01*
X00246728Y00342524D01*
Y00368628D01*
X00267016D01*
X00268027Y00369046D01*
X00273251D01*
X00273737Y00367873D01*
D02*
G37*
G36*
X00551258Y00342446D02*
X00555146Y00340836D01*
X0058305D01*
Y00339265D01*
X00584393Y00337922D01*
X00583907Y00336749D01*
X00576778D01*
X00574656Y0033887D01*
X00568344D01*
X0056388Y00334406D01*
Y00328094D01*
X00566752Y00325222D01*
X00566266Y00324049D01*
X00561078D01*
X00531881Y00353245D01*
X0053594Y00357304D01*
X00536265Y00357439D01*
X00551258Y00342446D01*
D02*
G37*
G36*
X00457651Y00339753D02*
Y00336191D01*
X0045565Y00335362D01*
X0045315Y00336398D01*
X0045065Y00335362D01*
X0044815Y00336398D01*
X0044565Y00335362D01*
X0044315Y00336398D01*
X0044065Y00335362D01*
X0043815Y00336398D01*
X0043565Y00335362D01*
X0043315Y00336398D01*
X0043065Y00335362D01*
X0042815Y00336398D01*
X0042565Y00335362D01*
X0042315Y00336398D01*
X0042065Y00335362D01*
X0041815Y00336398D01*
X0041565Y00335362D01*
X0041315Y00336398D01*
X0041065Y00335362D01*
X0040815Y00336398D01*
X0040565Y00335362D01*
X0040315Y00336398D01*
X0040065Y00335362D01*
X0039815Y00336398D01*
X0039565Y00335362D01*
X0039315Y00336398D01*
X0039065Y00335362D01*
X0038815Y00336398D01*
X0038565Y00335362D01*
X0038315Y00336398D01*
X0038065Y00335362D01*
X0037815Y00336398D01*
X0037565Y00335362D01*
X0037315Y00336398D01*
X0037065Y00335362D01*
X0036815Y00336398D01*
X0036565Y00335362D01*
X00364258Y00335939D01*
X0036401Y00337184D01*
X00364568Y00337742D01*
X00366179Y0034163D01*
Y00347342D01*
X00450062D01*
X00457651Y00339753D01*
D02*
G37*
G36*
X00340676Y00360478D02*
X00339175Y00358978D01*
Y00356565D01*
X00348065D01*
Y00355295D01*
X00349335D01*
Y00346405D01*
X00351747D01*
X00354008Y00348666D01*
X00355182Y0034818D01*
Y00343908D01*
X00349262Y00337988D01*
X00348189Y00335398D01*
X00346836Y00334871D01*
X0034315Y00336398D01*
X00339086Y00334714D01*
X00337402Y0033065D01*
Y0031915D01*
X00337651Y00318549D01*
Y00311138D01*
X00264238Y00237724D01*
X00262627Y00233836D01*
Y00231412D01*
X00260014Y00228799D01*
X00237626D01*
X0023749Y00228935D01*
Y00233859D01*
X00231538Y0023981D01*
X00223122D01*
X0021717Y00233859D01*
Y00225442D01*
X00223122Y0021949D01*
X00231382D01*
X0023146Y00219412D01*
X00235348Y00217802D01*
X00260014D01*
X00265825Y0021199D01*
X00271355D01*
X00272111Y0021072D01*
X00271486Y0020921D01*
X002592D01*
Y0018659D01*
X00277712D01*
Y00165318D01*
X00278243Y00164035D01*
X00277537Y00162978D01*
X00239768D01*
X00158909Y00243837D01*
X00159395Y0024501D01*
X00163435D01*
X0017006Y00251635D01*
Y00259854D01*
X00171824Y00261618D01*
X0017284Y00260838D01*
Y00251635D01*
X00179465Y0024501D01*
X0018669D01*
Y0024362D01*
X0020447D01*
Y00246033D01*
X00199262Y0025124D01*
X00195624D01*
X0019546Y00251635D01*
Y00261005D01*
X00192847Y00263618D01*
X00193333Y00264792D01*
X0028426D01*
X00288148Y00266402D01*
X00308688Y00286942D01*
X00310299Y0029083D01*
Y00324398D01*
X00322303Y00336403D01*
X0033165D01*
X00335714Y00338086D01*
X00337397Y0034215D01*
X00336362Y0034465D01*
X00337397Y0034715D01*
X00336362Y0034965D01*
X00337397Y0035215D01*
X00335714Y00356214D01*
X00335647Y00356242D01*
X00336023Y0035715D01*
X00335647Y00358058D01*
X00335714Y00358086D01*
X00337191Y00361652D01*
X0034019D01*
X00340676Y00360478D01*
D02*
G37*
G36*
X00554912Y00314662D02*
X005588Y00313052D01*
X00566266D01*
X00566752Y00311878D01*
X0056388Y00309006D01*
Y00306861D01*
X00563461Y0030585D01*
X0056388Y0030484D01*
Y00302694D01*
X00563676Y00302201D01*
X00557525D01*
X00518079Y00341647D01*
X00518135Y00343309D01*
X0052197Y00347144D01*
X00522295Y00347279D01*
X00554912Y00314662D01*
D02*
G37*
G36*
X0055136Y00292815D02*
X00555248Y00291204D01*
X0058305D01*
Y00288465D01*
X00584393Y00287122D01*
X00583907Y00285949D01*
X00576778D01*
X00574656Y0028807D01*
X00568344D01*
X0056388Y00283606D01*
Y00277294D01*
X00566752Y00274422D01*
X00566266Y00273249D01*
X00557078D01*
X00498979Y00331347D01*
X00499465Y0033252D01*
X00500996D01*
X0050546Y00336984D01*
Y00337055D01*
X00506633Y00337541D01*
X0055136Y00292815D01*
D02*
G37*
G36*
X00285272Y00279078D02*
X00281983Y00275789D01*
X00195873D01*
X00195387Y00276962D01*
X0019546Y00277035D01*
Y00280252D01*
X00284786D01*
X00285272Y00279078D01*
D02*
G37*
G36*
X00318351Y00264466D02*
Y00252468D01*
X00300494Y0023461D01*
X00291225D01*
X00289882Y00233267D01*
X00288708Y00233753D01*
Y00236482D01*
X00317178Y00264952D01*
X00318351Y00264466D01*
D02*
G37*
G36*
X00622472Y00227001D02*
X00621986Y00225828D01*
X00618554D01*
Y00225842D01*
X00616944Y0022973D01*
X00615456Y00231218D01*
X00611568Y00232829D01*
X0058674D01*
X00582852Y00231218D01*
X00569784Y0021815D01*
X00568173Y00214262D01*
Y0020257D01*
X00562393Y00196789D01*
X0056122Y00197275D01*
Y00202585D01*
X00554595Y0020921D01*
X00545225D01*
X00542293Y00206278D01*
X00541216Y00206997D01*
X00542709Y002106D01*
Y00212847D01*
X00543882Y00213333D01*
X00545225Y0021199D01*
X00554595D01*
X0056122Y00218615D01*
Y00227985D01*
X00555847Y00233358D01*
X00556333Y00234531D01*
X00614943D01*
X00622472Y00227001D01*
D02*
G37*
G36*
X00233602Y00153592D02*
X0023749Y00151981D01*
X00353103D01*
X0036384Y00141244D01*
Y00133733D01*
X00370172Y001274D01*
X00379128D01*
X0038546Y00133733D01*
Y00142688D01*
X00379128Y0014902D01*
X00371616D01*
X00363478Y00157158D01*
X00363964Y00158331D01*
X00432651D01*
Y00147956D01*
X00431478Y0014747D01*
X00429928Y0014902D01*
X00420972D01*
X0041464Y00142688D01*
Y00133733D01*
X00420972Y001274D01*
X00429928D01*
X00431478Y00128951D01*
X00432651Y00128465D01*
Y0012551D01*
X00434262Y00121622D01*
X0044004Y00115844D01*
Y00108333D01*
X00445181Y00103192D01*
X00444695Y00102019D01*
X00431605D01*
X00431119Y00103192D01*
X0043626Y00108333D01*
Y00117288D01*
X00429928Y0012362D01*
X00420972D01*
X0041464Y00117288D01*
Y00108333D01*
X00419781Y00103192D01*
X00419295Y00102019D01*
X00406205D01*
X00405719Y00103192D01*
X0041086Y00108333D01*
Y00117288D01*
X00404528Y0012362D01*
X00395572D01*
X0038924Y00117288D01*
Y00108333D01*
X00394381Y00103192D01*
X00393895Y00102019D01*
X00380805D01*
X00380319Y00103192D01*
X0038546Y00108333D01*
Y00117288D01*
X00379128Y0012362D01*
X00370172D01*
X0036384Y00117288D01*
Y00108333D01*
X00368981Y00103192D01*
X00368495Y00102019D01*
X00355405D01*
X00354919Y00103192D01*
X0036006Y00108333D01*
Y00117288D01*
X00353728Y0012362D01*
X00344772D01*
X0033844Y00117288D01*
Y00108333D01*
X00343581Y00103192D01*
X00343095Y00102019D01*
X00330005D01*
X00329519Y00103192D01*
X0033466Y00108333D01*
Y00117288D01*
X00328328Y0012362D01*
X00319372D01*
X0031304Y00117288D01*
Y00108333D01*
X00318181Y00103192D01*
X00317695Y00102019D01*
X00304605D01*
X00304119Y00103192D01*
X0030926Y00108333D01*
Y00117288D01*
X00302928Y0012362D01*
X00293972D01*
X0028764Y00117288D01*
Y00108333D01*
X00292781Y00103192D01*
X00292295Y00102019D01*
X00286758D01*
X00282358Y00106418D01*
Y00115832D01*
X00293949Y00127423D01*
X00293972Y001274D01*
X00302928D01*
X0030926Y00133733D01*
Y00142688D01*
X00302928Y0014902D01*
X00293972D01*
X0028764Y00142688D01*
Y00136666D01*
X00272972Y00121998D01*
X00271362Y0011811D01*
Y0010414D01*
X00271361Y0010414D01*
X00272972Y00100252D01*
X00277652Y00095572D01*
X00277166Y00094398D01*
X00261357D01*
X00168037Y00187719D01*
X00167488Y00187946D01*
X00146726Y00215004D01*
X00147683Y00215843D01*
X00148019Y00215507D01*
X00150431D01*
Y00224397D01*
X00152971D01*
Y00215507D01*
X00155384D01*
X00160591Y00220715D01*
Y00224943D01*
X00161765Y00225429D01*
X00233602Y00153592D01*
D02*
G37*
G36*
X005386Y00202418D02*
Y00193215D01*
X00545225Y0018659D01*
X00550535D01*
X00551021Y00185417D01*
X00545092Y00179489D01*
X00528058D01*
X00522129Y00185417D01*
X00522615Y0018659D01*
X00529195D01*
X0053582Y00193215D01*
Y00201434D01*
X00537584Y00203198D01*
X005386Y00202418D01*
D02*
G37*
G36*
X00588976Y00220131D02*
Y00204208D01*
X00593288D01*
Y00196618D01*
X00590246D01*
Y00185577D01*
X00581607D01*
X00580918Y00185291D01*
X00579518Y0018669D01*
X00571102D01*
X0056515Y00180738D01*
Y00172322D01*
X00571102Y0016637D01*
X00579518D01*
X0058547Y00172322D01*
Y0017458D01*
X00595326D01*
X00596337Y00174998D01*
X00609621D01*
X00610107Y00173825D01*
X0058114Y00144858D01*
X0058114Y00144858D01*
X0053068Y00094398D01*
X00499046D01*
X0049856Y00095572D01*
X0049911Y00096122D01*
Y00102D01*
X00506128D01*
X0051246Y00108333D01*
Y00117288D01*
X00506128Y0012362D01*
X00497172D01*
X0049084Y00117288D01*
Y0011049D01*
X0048706D01*
Y00117288D01*
X00480728Y0012362D01*
X00471772D01*
X0046544Y00117288D01*
Y00108333D01*
X00470581Y00103192D01*
X00470095Y00102019D01*
X00457005D01*
X00456519Y00103192D01*
X0046166Y00108333D01*
Y00117288D01*
X00455328Y0012362D01*
X00447816D01*
X00444142Y00127294D01*
X00444213Y00127763D01*
X00445565Y00128208D01*
X00446372Y001274D01*
X00455328D01*
X0046166Y00133733D01*
Y00142688D01*
X00455328Y0014902D01*
X00446372D01*
X00444822Y0014747D01*
X00443648Y00147956D01*
Y00162342D01*
X00442038Y0016623D01*
X0044055Y00167718D01*
X00436662Y00169328D01*
X00288708D01*
Y00187447D01*
X00289882Y00187934D01*
X00291225Y0018659D01*
X00300595D01*
X0030722Y00193215D01*
Y00201434D01*
X00308984Y00203198D01*
X0031Y00202418D01*
Y00193215D01*
X00316625Y0018659D01*
X0032115D01*
X00321232Y00186392D01*
X0032512Y00184782D01*
X00329008Y00186392D01*
X00330279Y00189461D01*
X003326Y00190422D01*
X00335396Y00193217D01*
X003354Y00193215D01*
X00342025Y0018659D01*
X00351395D01*
X0035802Y00193215D01*
Y00201434D01*
X00359784Y00203198D01*
X003608Y00202418D01*
Y00193215D01*
X00367425Y0018659D01*
X00376795D01*
X0038342Y00193215D01*
Y00202585D01*
X0038209Y00203915D01*
X00388698Y00210522D01*
X00389811Y00213209D01*
X00391309Y00213507D01*
X00392825Y0021199D01*
X00402028D01*
X00402808Y00210974D01*
X00401044Y0020921D01*
X00392825D01*
X003862Y00202585D01*
Y00193215D01*
X00392825Y0018659D01*
X00402195D01*
X0040882Y00193215D01*
Y00201434D01*
X00410584Y00203198D01*
X004116Y00202418D01*
Y00193215D01*
X00418225Y0018659D01*
X00426444D01*
X00436802Y00176232D01*
X0044069Y00174622D01*
X00487942D01*
X00491553Y00171011D01*
Y00164032D01*
X00497504Y0015808D01*
X00505921D01*
X00511873Y00164032D01*
Y00172449D01*
X00505921Y001784D01*
X00499716D01*
X00494108Y00184008D01*
X0049022Y00185619D01*
X00479115D01*
X00478693Y00186889D01*
X0048502Y00193215D01*
Y00202418D01*
X00486036Y00203198D01*
X004878Y00201434D01*
Y00193215D01*
X00494425Y0018659D01*
X00503795D01*
X00505138Y00187934D01*
X00506502Y00187501D01*
X00507922Y00184072D01*
X00521892Y00170102D01*
X0052578Y00168491D01*
X0054737D01*
X00551258Y00170102D01*
X0057756Y00196404D01*
X0057917Y00200292D01*
Y00211984D01*
X00587803Y00220617D01*
X00588976Y00220131D01*
D02*
G37*
%LPC*%
G36*
X0067564Y01003718D02*
X0058039D01*
X00576502Y01002108D01*
X00554657Y00980263D01*
X005528Y0098212D01*
X0054194D01*
X0053467Y0097485D01*
X005274Y0098212D01*
X0051654D01*
X00510853Y00976434D01*
X0050968Y0097692D01*
Y0098212D01*
X0048346D01*
Y009559D01*
X00491072D01*
Y00943928D01*
X00420315Y00873172D01*
X00419142Y00873658D01*
Y00878836D01*
X00397522D01*
Y00877671D01*
X00390525D01*
Y0088011D01*
X00372174D01*
X00371688Y00881283D01*
X00400875Y00910471D01*
X00407277D01*
X00415053Y00913692D01*
X00423478Y00922117D01*
X00426247Y00928801D01*
X00427621D01*
X00427812Y00928342D01*
X0043532Y00925232D01*
X00442828Y00928342D01*
X00445938Y0093585D01*
Y00939936D01*
X00446317Y0094085D01*
X00445938Y00941765D01*
Y0094585D01*
X00442828Y00953358D01*
X0043532Y00956468D01*
X00427812Y00953358D01*
X00427507Y00952623D01*
X00426133D01*
X00425828Y00953358D01*
X0041832Y00956468D01*
X00410812Y00953358D01*
X00410455Y00952497D01*
X00409185D01*
X00408828Y00953358D01*
X0040132Y00956468D01*
X00393812Y00953358D01*
X00390702Y0094585D01*
Y0093585D01*
X00392721Y00930975D01*
X00388544Y00929244D01*
X00322424Y00863124D01*
X00319203Y00855348D01*
Y00817749D01*
X0031623Y00814777D01*
Y00803203D01*
X00324413Y0079502D01*
X00335987D01*
X0034417Y00803203D01*
Y00814777D01*
X00341197Y00817749D01*
Y00850793D01*
X00367762Y00877357D01*
X00368935Y00876871D01*
Y0085979D01*
X00390525D01*
Y00866674D01*
X00397522D01*
Y00859216D01*
Y00840216D01*
X00411366D01*
X00426612Y0082497D01*
X00426126Y00823797D01*
X0041021D01*
X00408189Y0082296D01*
X0039243D01*
Y0079502D01*
X0042037D01*
Y00801803D01*
X0043475D01*
X00436971Y00802723D01*
X0044542D01*
X0044635Y00803108D01*
X00460545D01*
X00464743Y00804847D01*
X00466482Y00809045D01*
Y00814935D01*
X00467752Y00815461D01*
X00475132Y00808081D01*
X00477532Y00807087D01*
Y00799796D01*
X00499152D01*
Y00801358D01*
X00507287D01*
X00513119Y00803774D01*
X00513437Y00804091D01*
X00515845D01*
X00520658Y00808904D01*
X00521928Y00808378D01*
Y00807454D01*
X00522197D01*
X00523198Y00806804D01*
X00523198Y00806184D01*
Y00799534D01*
X00532738D01*
X00542278D01*
Y00806184D01*
X00542278Y00806804D01*
X00543279Y00807454D01*
X00543548D01*
Y00811546D01*
X0055411D01*
Y0080937D01*
X0057873D01*
Y0083399D01*
X0055411D01*
Y00822543D01*
X00543548D01*
Y00827074D01*
X00529704D01*
X00524273Y00832505D01*
X00520385Y00834116D01*
X00499152D01*
Y00838416D01*
X00491358D01*
X00488386Y00839647D01*
X00485414Y00838416D01*
X00477532D01*
Y00834116D01*
X00475426D01*
X00470913Y00838628D01*
X00467025Y00840239D01*
X00439229D01*
X00434532Y00844935D01*
X00435018Y00846108D01*
X00460545D01*
X00464743Y00847847D01*
X00466482Y00852045D01*
Y00856368D01*
X00470176Y00860062D01*
X0048526D01*
Y008595D01*
X0050788D01*
Y00860062D01*
X00545917D01*
Y008595D01*
X00568536D01*
Y0087712D01*
X0056742D01*
X00566714Y00878176D01*
X00567362Y0087974D01*
X00557226D01*
X00547091D01*
X00547739Y00878176D01*
X00547034Y0087712D01*
X00545917D01*
Y00876558D01*
X0050788D01*
Y0087712D01*
X00506763D01*
X00506057Y00878176D01*
X00506705Y0087974D01*
X0049657D01*
X00486435D01*
X00487083Y00878176D01*
X00486377Y0087712D01*
X0048526D01*
Y00876558D01*
X0046676D01*
X00460928Y00874142D01*
X00454818Y00868032D01*
X00432524D01*
X00431998Y00869302D01*
X00500458Y00937762D01*
X00502068Y0094165D01*
Y009559D01*
X0050968D01*
Y009611D01*
X00510853Y00961586D01*
X00513722Y00958717D01*
Y0094996D01*
Y00899981D01*
X0051181Y00898068D01*
Y00889652D01*
X00517762Y008837D01*
X00526178D01*
X0053213Y00889652D01*
Y00898068D01*
X00530218Y00899981D01*
Y00932277D01*
X00531391Y00932763D01*
X00602122Y00862032D01*
X0060601Y00860422D01*
X0061988D01*
Y0085561D01*
X00639661D01*
Y0082931D01*
X00641272Y00825422D01*
X00656112Y00810582D01*
X00655626Y00809408D01*
X00641654D01*
Y00817922D01*
X00622034D01*
Y00817653D01*
X00621384Y00816652D01*
X00620764Y00816652D01*
X00614114D01*
Y00807112D01*
Y00797572D01*
X00620764D01*
X00621384Y00797572D01*
X00622034Y00796571D01*
Y00796302D01*
X00641654D01*
Y00798411D01*
X006608D01*
Y0079541D01*
X0068542D01*
Y0082003D01*
X00662216D01*
X00650658Y00831588D01*
Y009559D01*
X0065827D01*
Y009611D01*
X00659443Y00961586D01*
X00662312Y00958717D01*
Y0095482D01*
Y009007D01*
X00664728Y00894868D01*
X0069608Y00863516D01*
Y0085456D01*
X007187D01*
Y0087518D01*
X00707744D01*
X00701947Y00880977D01*
X00702652Y00882033D01*
X0070612Y00880597D01*
Y00889D01*
X00697131D01*
X00698153Y00886532D01*
X00697097Y00885827D01*
X00678808Y00904116D01*
Y00933249D01*
X00679981Y00933735D01*
X00703064Y00910652D01*
X00708896Y00908236D01*
X00756464D01*
X00756471Y00908239D01*
X00757527Y00907533D01*
Y00873658D01*
X00755752D01*
Y00851038D01*
X00778372D01*
Y00873658D01*
X00774023D01*
Y0091964D01*
X0077701D01*
Y00925246D01*
X00778183Y00925732D01*
X00783006Y0092091D01*
X0078693D01*
Y0093345D01*
Y0094599D01*
X00783006D01*
X00778183Y00941168D01*
X0077701Y00941654D01*
Y0094726D01*
X0074939D01*
Y00924732D01*
X00712313D01*
X00678808Y00958236D01*
Y00958717D01*
X0068326Y0096317D01*
X0069053Y009559D01*
X0070139D01*
X0070907Y0096358D01*
Y0097444D01*
X0070139Y0098212D01*
X00698372D01*
X00697563Y00984073D01*
X00679528Y01002108D01*
X0067564Y01003718D01*
D02*
G37*
G36*
X0070866Y00899943D02*
Y0089154D01*
X00717649D01*
X00715309Y00897189D01*
X0070866Y00899943D01*
D02*
G37*
G36*
X0070612D02*
X00699471Y00897189D01*
X00697131Y0089154D01*
X0070612D01*
Y00899943D01*
D02*
G37*
G36*
X00914621Y0094659D02*
X00903159D01*
X0089257Y00942204D01*
X00884466Y009341D01*
X0088008Y00923511D01*
Y00912049D01*
X00884466Y0090146D01*
X0089257Y00893356D01*
X00903159Y0088897D01*
X00914621D01*
X0092521Y00893356D01*
X00933314Y0090146D01*
X009377Y00912049D01*
Y00923511D01*
X00933314Y009341D01*
X0092521Y00942204D01*
X00914621Y0094659D01*
D02*
G37*
G36*
X00114621D02*
X00103159D01*
X0009257Y00942204D01*
X00084466Y009341D01*
X0008008Y00923511D01*
Y00912049D01*
X00084466Y0090146D01*
X0009257Y00893356D01*
X00103159Y0088897D01*
X00114621D01*
X0012521Y00893356D01*
X00133314Y0090146D01*
X001377Y00912049D01*
Y00923511D01*
X00133314Y009341D01*
X0012521Y00942204D01*
X00114621Y0094659D01*
D02*
G37*
G36*
X00559726Y00889171D02*
X00558497D01*
Y0088228D01*
X00567362D01*
X00565497Y00886781D01*
X00559726Y00889171D01*
D02*
G37*
G36*
X00555956D02*
X00554727D01*
X00548956Y00886781D01*
X00547091Y0088228D01*
X00555956D01*
Y00889171D01*
D02*
G37*
G36*
X0049907Y00889171D02*
X0049784D01*
Y0088228D01*
X00506705D01*
X00504841Y00886781D01*
X0049907Y00889171D01*
D02*
G37*
G36*
X004953D02*
X0049407D01*
X00488299Y00886781D01*
X00486435Y0088228D01*
X004953D01*
Y00889171D01*
D02*
G37*
G36*
X00717649Y00889D02*
X0070866D01*
Y00880597D01*
X00715309Y00883351D01*
X00717649Y00889D01*
D02*
G37*
G36*
X00308529Y00893496D02*
X00304799D01*
Y0088011D01*
X00322659D01*
X00318892Y00889203D01*
X00308529Y00893496D01*
D02*
G37*
G36*
X00302259D02*
X00298529D01*
X00288166Y00889203D01*
X002844Y0088011D01*
X00302259D01*
Y00893496D01*
D02*
G37*
G36*
X00322659Y0087757D02*
X00304799D01*
Y00864184D01*
X00308529D01*
X00318892Y00868477D01*
X00322659Y0087757D01*
D02*
G37*
G36*
X00302259D02*
X002844D01*
X00288166Y00868477D01*
X00298529Y00864184D01*
X00302259D01*
Y0087757D01*
D02*
G37*
G36*
X00796621Y00872387D02*
X00793733D01*
Y00863617D01*
X00802503D01*
Y00866506D01*
X00796621Y00872387D01*
D02*
G37*
G36*
X00791192D02*
X00788304D01*
X00782422Y00866506D01*
Y00863617D01*
X00791192D01*
Y00872387D01*
D02*
G37*
G36*
X00802503Y00861077D02*
X00793733D01*
Y00852308D01*
X00796621D01*
X00802503Y00858189D01*
Y00861077D01*
D02*
G37*
G36*
X00791192D02*
X00782422D01*
Y00858189D01*
X00788304Y00852308D01*
X00791192D01*
Y00861077D01*
D02*
G37*
G36*
X00389255Y0085598D02*
X00381D01*
Y0084836D01*
X00389255D01*
Y0085598D01*
D02*
G37*
G36*
X0037846D02*
X00370205D01*
Y0084836D01*
X0037846D01*
Y0085598D01*
D02*
G37*
G36*
X00389255Y0084582D02*
X00381D01*
Y008382D01*
X00389255D01*
Y0084582D01*
D02*
G37*
G36*
X0037846D02*
X00370205D01*
Y008382D01*
X0037846D01*
Y0084582D01*
D02*
G37*
G36*
X0071715Y0081876D02*
X0070738D01*
Y0080899D01*
X0071715D01*
Y0081876D01*
D02*
G37*
G36*
X0070484D02*
X0069507D01*
Y0080899D01*
X0070484D01*
Y0081876D01*
D02*
G37*
G36*
X00611574Y00816652D02*
X00604304D01*
Y00808382D01*
X00611574D01*
Y00816652D01*
D02*
G37*
G36*
Y00805842D02*
X00604304D01*
Y00797572D01*
X00611574D01*
Y00805842D01*
D02*
G37*
G36*
X0070484Y0080645D02*
X0069507D01*
Y0079668D01*
X0070484D01*
Y0080645D01*
D02*
G37*
G36*
X0057746Y0079972D02*
X0056769D01*
Y0078995D01*
X0057746D01*
Y0079972D01*
D02*
G37*
G36*
X0056515D02*
X0055538D01*
Y0078995D01*
X0056515D01*
Y0079972D01*
D02*
G37*
G36*
X00542278Y00796994D02*
X00534008D01*
Y00789724D01*
X00542278D01*
Y00796994D01*
D02*
G37*
G36*
X00531468D02*
X00523198D01*
Y00789724D01*
X00531468D01*
Y00796994D01*
D02*
G37*
G36*
X00462152Y0079629D02*
X0045974D01*
Y0078867D01*
X0046736D01*
Y00791082D01*
X00462152Y0079629D01*
D02*
G37*
G36*
X004572D02*
X00454788D01*
X0044958Y00791082D01*
Y0078867D01*
X004572D01*
Y0079629D01*
D02*
G37*
G36*
X00065675Y0079756D02*
X00063661D01*
Y0078232D01*
X00078901D01*
Y00784334D01*
X00076388Y00790402D01*
X00071743Y00795046D01*
X00065675Y0079756D01*
D02*
G37*
G36*
X00061121D02*
X00059107D01*
X00053039Y00795046D01*
X00048395Y00790402D01*
X00045881Y00784334D01*
Y0078232D01*
X00061121D01*
Y0079756D01*
D02*
G37*
G36*
X0046736Y0078613D02*
X0045974D01*
Y0077851D01*
X00462152D01*
X0046736Y00783718D01*
Y0078613D01*
D02*
G37*
G36*
X004572D02*
X0044958D01*
Y00783718D01*
X00454788Y0077851D01*
X004572D01*
Y0078613D01*
D02*
G37*
G36*
X0057746Y0078741D02*
X0056769D01*
Y0077764D01*
X0057746D01*
Y0078741D01*
D02*
G37*
G36*
X0056515D02*
X0055538D01*
Y0077764D01*
X0056515D01*
Y0078741D01*
D02*
G37*
G36*
X0046609Y00775335D02*
X0045847D01*
Y0076708D01*
X0046609D01*
Y00775335D01*
D02*
G37*
G36*
X0045593D02*
X0044831D01*
Y0076708D01*
X0045593D01*
Y00775335D01*
D02*
G37*
G36*
X00078901Y0077978D02*
X00063661D01*
Y0076454D01*
X00065675D01*
X00071743Y00767054D01*
X00076388Y00771698D01*
X00078901Y00777766D01*
Y0077978D01*
D02*
G37*
G36*
X00061121D02*
X00045881D01*
Y00777766D01*
X00048395Y00771698D01*
X00053039Y00767054D01*
X00059107Y0076454D01*
X00061121D01*
Y0077978D01*
D02*
G37*
G36*
X0046609Y0076454D02*
X0045847D01*
Y00756285D01*
X0046609D01*
Y0076454D01*
D02*
G37*
G36*
X0045593D02*
X0044831D01*
Y00756285D01*
X0045593D01*
Y0076454D01*
D02*
G37*
G36*
X0071392Y0070503D02*
X006907D01*
Y00698919D01*
X00673436D01*
X00670165Y0070219D01*
X00660795D01*
X0065417Y00695565D01*
Y00686195D01*
X00660795Y0067957D01*
X00670165D01*
X0067679Y00686195D01*
Y00687922D01*
X006907D01*
Y0068181D01*
X0071392D01*
Y0070503D01*
D02*
G37*
G36*
X00960593Y0070376D02*
X0095758D01*
Y0069469D01*
X0096665D01*
Y00697703D01*
X00960593Y0070376D01*
D02*
G37*
G36*
X0095504D02*
X00952027D01*
X0094597Y00697703D01*
Y0069469D01*
X0095504D01*
Y0070376D01*
D02*
G37*
G36*
X0096665Y0069215D02*
X0095758D01*
Y0068308D01*
X00960593D01*
X0096665Y00689137D01*
Y0069215D01*
D02*
G37*
G36*
X0095504D02*
X0094597D01*
Y00689137D01*
X00952027Y0068308D01*
X0095504D01*
Y0069215D01*
D02*
G37*
G36*
X00996555Y0070219D02*
X00987185D01*
X0098056Y00695565D01*
Y00686195D01*
X00987185Y0067957D01*
X00996555D01*
X0100318Y00686195D01*
Y00695565D01*
X00996555Y0070219D01*
D02*
G37*
G36*
X00707119Y0067963D02*
X00697501D01*
X006907Y00672829D01*
Y00669708D01*
X0067679D01*
Y00670165D01*
X00670165Y0067679D01*
X00660795D01*
X0065417Y00670165D01*
Y00660795D01*
X00660795Y0065417D01*
X00670165D01*
X00674706Y00658711D01*
X00694966D01*
X00695131Y0065878D01*
X00697501Y0065641D01*
X00707119D01*
X0071392Y00663211D01*
Y00672829D01*
X00707119Y0067963D01*
D02*
G37*
G36*
X00961119D02*
X00951501D01*
X009447Y00672829D01*
Y00663211D01*
X00951501Y0065641D01*
X00961119D01*
X0096596Y00661252D01*
X0098056D01*
Y00660795D01*
X00987185Y0065417D01*
X00996555D01*
X0100318Y00660795D01*
Y00670165D01*
X00996555Y0067679D01*
X00987185D01*
X00982644Y00672249D01*
X0096792D01*
Y00672829D01*
X00961119Y0067963D01*
D02*
G37*
G36*
X00707119Y0065423D02*
X00697501D01*
X00691389Y00648119D01*
X00673436D01*
X00670165Y0065139D01*
X00660795D01*
X0065417Y00644765D01*
Y00635395D01*
X00660795Y0062877D01*
X00670165D01*
X0067679Y00635395D01*
Y00637122D01*
X00691389D01*
X00697501Y0063101D01*
X00707119D01*
X0071392Y00637811D01*
Y00647429D01*
X00707119Y0065423D01*
D02*
G37*
G36*
X00961119D02*
X00951501D01*
X009447Y00647429D01*
Y00638786D01*
X00794942Y00489028D01*
X00793332Y0048514D01*
Y0029694D01*
X0078867Y00292278D01*
Y00283862D01*
X00794622Y0027791D01*
X00803038D01*
X0080899Y00283862D01*
Y00292278D01*
X00804329Y0029694D01*
Y00482862D01*
X0094343Y00621964D01*
X009447Y00621438D01*
Y00612411D01*
X00951501Y0060561D01*
X00961119D01*
X0096596Y00610452D01*
X0098056D01*
Y00609995D01*
X00987185Y0060337D01*
X00996555D01*
X0100318Y00609995D01*
Y00619365D01*
X00996555Y0062599D01*
X00987185D01*
X00982644Y00621449D01*
X0096792D01*
Y00622029D01*
X00961119Y0062883D01*
X00952092D01*
X00951566Y006301D01*
X00952476Y0063101D01*
X00961119D01*
X0096596Y00635852D01*
X0098056D01*
Y00635395D01*
X00987185Y0062877D01*
X00996555D01*
X0100318Y00635395D01*
Y00644765D01*
X00996555Y0065139D01*
X00987185D01*
X00982644Y00646849D01*
X0096792D01*
Y00647429D01*
X00961119Y0065423D01*
D02*
G37*
G36*
X00616604Y00634126D02*
Y00625856D01*
X00623874D01*
Y00634126D01*
X00616604D01*
D02*
G37*
G36*
X00707119Y0062883D02*
X00697501D01*
X00691389Y00622719D01*
X00673436D01*
X00670165Y0062599D01*
X00660795D01*
X0065417Y00619365D01*
Y00609995D01*
X00660795Y0060337D01*
X00670165D01*
X0067679Y00609995D01*
Y00611721D01*
X00691389D01*
X00697501Y0060561D01*
X00707119D01*
X0071392Y00612411D01*
Y00622029D01*
X00707119Y0062883D01*
D02*
G37*
G36*
X00623874Y00623316D02*
X00616604D01*
Y00615046D01*
X00623874D01*
Y00623316D01*
D02*
G37*
G36*
X00522368Y0078359D02*
X00513952D01*
X00508Y00777638D01*
Y00769222D01*
X00509277Y00767944D01*
Y00629056D01*
X0050673Y00626508D01*
Y00618092D01*
X00512682Y0061214D01*
X00521098D01*
X0052705Y00618092D01*
Y00626508D01*
X00525773Y00627786D01*
Y00766674D01*
X0052832Y00769222D01*
Y00777638D01*
X00522368Y0078359D01*
D02*
G37*
G36*
X00616604Y00609996D02*
Y00601726D01*
X00623874D01*
Y00609996D01*
X00616604D01*
D02*
G37*
G36*
X00707119Y0060343D02*
X00697501D01*
X006907Y00596629D01*
Y00593508D01*
X0067679D01*
Y00593965D01*
X00670165Y0060059D01*
X00660795D01*
X0065417Y00593965D01*
Y00584595D01*
X00660795Y0057797D01*
X00670165D01*
X00674706Y00582511D01*
X00694966D01*
X00695131Y0058258D01*
X00697501Y0058021D01*
X00707119D01*
X0071392Y00587011D01*
Y00596629D01*
X00707119Y0060343D01*
D02*
G37*
G36*
X00623874Y00599186D02*
X00616604D01*
Y00590916D01*
X00623874D01*
Y00599186D01*
D02*
G37*
G36*
X00961119Y0060343D02*
X00951501D01*
X009447Y00596629D01*
Y00587011D01*
X00951501Y0058021D01*
X00961119D01*
X0096596Y00585051D01*
X0098056D01*
Y00584595D01*
X00987185Y0057797D01*
X00996555D01*
X0100318Y00584595D01*
Y00593965D01*
X00996555Y0060059D01*
X00987185D01*
X00982644Y00596049D01*
X0096792D01*
Y00596629D01*
X00961119Y0060343D01*
D02*
G37*
G36*
X00707119Y0057803D02*
X00697501D01*
X00691389Y00571918D01*
X00673436D01*
X00670165Y0057519D01*
X00660795D01*
X0065417Y00568565D01*
Y00559195D01*
X00660795Y0055257D01*
X00670165D01*
X0067679Y00559195D01*
Y00560922D01*
X00691389D01*
X00697501Y0055481D01*
X00707119D01*
X0071392Y00561611D01*
Y00571229D01*
X00707119Y0057803D01*
D02*
G37*
G36*
X00961119D02*
X00951501D01*
X009447Y00571229D01*
Y00562586D01*
X00866062Y00483948D01*
X00864452Y0048006D01*
Y0029821D01*
X0085979Y00293549D01*
Y00285132D01*
X00865742Y0027918D01*
X00874158D01*
X0088011Y00285132D01*
Y00293549D01*
X00875449Y0029821D01*
Y00477782D01*
X0094343Y00545764D01*
X009447Y00545238D01*
Y00536211D01*
X00951501Y0052941D01*
X00961119D01*
X0096596Y00534252D01*
X0098056D01*
Y00533795D01*
X00987185Y0052717D01*
X00996555D01*
X0100318Y00533795D01*
Y00543165D01*
X00996555Y0054979D01*
X00987185D01*
X00982644Y00545248D01*
X0096792D01*
Y00545829D01*
X00961119Y0055263D01*
X00952092D01*
X00951566Y005539D01*
X00952476Y0055481D01*
X00961119D01*
X0096596Y00559651D01*
X0098056D01*
Y00559195D01*
X00987185Y0055257D01*
X00996555D01*
X0100318Y00559195D01*
Y00568565D01*
X00996555Y0057519D01*
X00987185D01*
X00982644Y00570648D01*
X0096792D01*
Y00571229D01*
X00961119Y0057803D01*
D02*
G37*
G36*
X00623919Y0055719D02*
X0062103D01*
Y0054842D01*
X006298D01*
Y00551309D01*
X00623919Y0055719D01*
D02*
G37*
G36*
X0061849D02*
X00615601D01*
X0060972Y00551309D01*
Y0054842D01*
X0061849D01*
Y0055719D01*
D02*
G37*
G36*
X00707119Y0055263D02*
X00697501D01*
X00691389Y00546519D01*
X00673436D01*
X00670165Y0054979D01*
X00660795D01*
X0065417Y00543165D01*
Y00533795D01*
X00660795Y0052717D01*
X00670165D01*
X0067679Y00533795D01*
Y00535522D01*
X00691389D01*
X00697501Y0052941D01*
X00707119D01*
X0071392Y00536211D01*
Y00545829D01*
X00707119Y0055263D01*
D02*
G37*
G36*
X006298Y0054588D02*
X0062103D01*
Y0053711D01*
X00623919D01*
X006298Y00542991D01*
Y0054588D01*
D02*
G37*
G36*
X0061849D02*
X0060972D01*
Y00542991D01*
X00615601Y0053711D01*
X0061849D01*
Y0054588D01*
D02*
G37*
G36*
X00707119Y0052723D02*
X00697501D01*
X00691389Y00521119D01*
X00673436D01*
X00670165Y0052439D01*
X00660795D01*
X0065417Y00517765D01*
Y00508395D01*
X00660795Y0050177D01*
X00670165D01*
X0067679Y00508395D01*
Y00510121D01*
X00691389D01*
X00697501Y0050401D01*
X00707119D01*
X0071392Y00510811D01*
Y00520429D01*
X00707119Y0052723D01*
D02*
G37*
G36*
X00961119D02*
X00951501D01*
X009447Y00520429D01*
Y00510811D01*
X00951501Y0050401D01*
X00961119D01*
X0096596Y00508852D01*
X0098056D01*
Y00508395D01*
X00987185Y0050177D01*
X00996555D01*
X0100318Y00508395D01*
Y00517765D01*
X00996555Y0052439D01*
X00987185D01*
X00982644Y00519849D01*
X0096792D01*
Y00520429D01*
X00961119Y0052723D01*
D02*
G37*
G36*
X00087028Y0051881D02*
X00078072D01*
X0007174Y00512478D01*
Y00503522D01*
X00078072Y0049719D01*
X00087028D01*
X0009336Y00503522D01*
Y00512478D01*
X00087028Y0051881D01*
D02*
G37*
G36*
X00707119Y0050183D02*
X00697501D01*
X00691389Y00495718D01*
X00673436D01*
X00670165Y0049899D01*
X00660795D01*
X0065417Y00492365D01*
Y00482995D01*
X00660795Y0047637D01*
X00670165D01*
X0067679Y00482995D01*
Y00484721D01*
X00691389D01*
X00697501Y0047861D01*
X00707119D01*
X0071392Y00485411D01*
Y00495029D01*
X00707119Y0050183D01*
D02*
G37*
G36*
X00961119D02*
X00951501D01*
X009447Y00495029D01*
Y00485411D01*
X00951501Y0047861D01*
X00961119D01*
X0096596Y00483451D01*
X0098056D01*
Y00482995D01*
X00987185Y0047637D01*
X00996555D01*
X0100318Y00482995D01*
Y00492365D01*
X00996555Y0049899D01*
X00987185D01*
X00982644Y00494449D01*
X0096792D01*
Y00495029D01*
X00961119Y0050183D01*
D02*
G37*
G36*
X00707119Y0047643D02*
X00697501D01*
X00691389Y00470318D01*
X00673436D01*
X00670165Y0047359D01*
X00660795D01*
X0065417Y00466965D01*
Y00457595D01*
X00660795Y0045097D01*
X00670165D01*
X0067679Y00457595D01*
Y00459322D01*
X00691389D01*
X00697501Y0045321D01*
X00707119D01*
X0071392Y00460011D01*
Y00469629D01*
X00707119Y0047643D01*
D02*
G37*
G36*
X00961119D02*
X00951501D01*
X009447Y00469629D01*
Y00460011D01*
X00951501Y0045321D01*
X00961119D01*
X0096596Y00458051D01*
X0098056D01*
Y00457595D01*
X00987185Y0045097D01*
X00996555D01*
X0100318Y00457595D01*
Y00466965D01*
X00996555Y0047359D01*
X00987185D01*
X00982644Y00469049D01*
X0096792D01*
Y00469629D01*
X00961119Y0047643D01*
D02*
G37*
G36*
X00707119Y0045103D02*
X00697501D01*
X00691389Y00444919D01*
X00673436D01*
X00670165Y0044819D01*
X00660795D01*
X0065417Y00441565D01*
Y00432195D01*
X00660795Y0042557D01*
X00670165D01*
X0067679Y00432195D01*
Y00433922D01*
X00691389D01*
X00697501Y0042781D01*
X00707119D01*
X0071392Y00434611D01*
Y00444229D01*
X00707119Y0045103D01*
D02*
G37*
G36*
X00961119D02*
X00951501D01*
X009447Y00444229D01*
Y00434611D01*
X00951501Y0042781D01*
X00961119D01*
X0096596Y00432651D01*
X0098056D01*
Y00432195D01*
X00987185Y0042557D01*
X00996555D01*
X0100318Y00432195D01*
Y00441565D01*
X00996555Y0044819D01*
X00987185D01*
X00982644Y00443648D01*
X0096792D01*
Y00444229D01*
X00961119Y0045103D01*
D02*
G37*
G36*
X00707119Y0042563D02*
X00697501D01*
X00691389Y00419519D01*
X00673436D01*
X00670165Y0042279D01*
X00660795D01*
X0065417Y00416165D01*
Y00406795D01*
X00660795Y0040017D01*
X00670165D01*
X0067679Y00406795D01*
Y00408521D01*
X00691389D01*
X00697501Y0040241D01*
X00707119D01*
X0071392Y00409211D01*
Y00418829D01*
X00707119Y0042563D01*
D02*
G37*
G36*
X00961119D02*
X00951501D01*
X009447Y00418829D01*
Y00409211D01*
X00951501Y0040241D01*
X00961119D01*
X0096596Y00407252D01*
X0098056D01*
Y00406795D01*
X00987185Y0040017D01*
X00996555D01*
X0100318Y00406795D01*
Y00416165D01*
X00996555Y0042279D01*
X00987185D01*
X00982644Y00418248D01*
X0096792D01*
Y00418829D01*
X00961119Y0042563D01*
D02*
G37*
G36*
X00707119Y0040023D02*
X00697501D01*
X00691389Y00394118D01*
X00673436D01*
X00670165Y0039739D01*
X00660795D01*
X0065417Y00390765D01*
Y00381395D01*
X00660795Y0037477D01*
X00670165D01*
X0067679Y00381395D01*
Y00383121D01*
X00691389D01*
X00697501Y0037701D01*
X00707119D01*
X0071392Y00383811D01*
Y00393429D01*
X00707119Y0040023D01*
D02*
G37*
G36*
X00961119D02*
X00951501D01*
X009447Y00393429D01*
Y00383811D01*
X00951501Y0037701D01*
X00961119D01*
X0096596Y00381852D01*
X0098056D01*
Y00381395D01*
X00987185Y0037477D01*
X00996555D01*
X0100318Y00381395D01*
Y00390765D01*
X00996555Y0039739D01*
X00987185D01*
X00982644Y00392849D01*
X0096792D01*
Y00393429D01*
X00961119Y0040023D01*
D02*
G37*
G36*
X00707119Y0037483D02*
X00697501D01*
X00691389Y00368718D01*
X00673436D01*
X00670165Y0037199D01*
X00660795D01*
X0065417Y00365365D01*
Y00355995D01*
X00660795Y0034937D01*
X00670165D01*
X0067679Y00355995D01*
Y00357721D01*
X00691389D01*
X00697501Y0035161D01*
X00707119D01*
X0071392Y00358411D01*
Y00368029D01*
X00707119Y0037483D01*
D02*
G37*
G36*
X00961119D02*
X00951501D01*
X009447Y00368029D01*
Y00358411D01*
X00951501Y0035161D01*
X00961119D01*
X0096596Y00356451D01*
X0098056D01*
Y00355995D01*
X00987185Y0034937D01*
X00996555D01*
X0100318Y00355995D01*
Y00365365D01*
X00996555Y0037199D01*
X00987185D01*
X00982644Y00367449D01*
X0096792D01*
Y00368029D01*
X00961119Y0037483D01*
D02*
G37*
G36*
X00707119Y0034943D02*
X00697501D01*
X00691389Y00343318D01*
X00673436D01*
X00670165Y0034659D01*
X00660795D01*
X0065417Y00339965D01*
Y00330595D01*
X00660795Y0032397D01*
X00670165D01*
X0067679Y00330595D01*
Y00332322D01*
X00691389D01*
X00697501Y0032621D01*
X00707119D01*
X0071392Y00333011D01*
Y00342629D01*
X00707119Y0034943D01*
D02*
G37*
G36*
X00961119D02*
X00951501D01*
X009447Y00342629D01*
Y00333011D01*
X00951501Y0032621D01*
X00961119D01*
X0096596Y00331051D01*
X0098056D01*
Y00330595D01*
X00987185Y0032397D01*
X00996555D01*
X0100318Y00330595D01*
Y00339965D01*
X00996555Y0034659D01*
X00987185D01*
X00982644Y00342048D01*
X0096792D01*
Y00342629D01*
X00961119Y0034943D01*
D02*
G37*
G36*
X00087028Y0034101D02*
X00078072D01*
X0007174Y00334678D01*
Y00325722D01*
X00078072Y0031939D01*
X00087028D01*
X0009336Y00325722D01*
Y00334678D01*
X00087028Y0034101D01*
D02*
G37*
G36*
X00707119Y0032403D02*
X00697501D01*
X00691389Y00317918D01*
X00673436D01*
X00670165Y0032119D01*
X00660795D01*
X0065417Y00314565D01*
Y00305195D01*
X00660795Y0029857D01*
X00670165D01*
X0067679Y00305195D01*
Y00306922D01*
X00691389D01*
X00697501Y0030081D01*
X00707119D01*
X0071392Y00307611D01*
Y00317229D01*
X00707119Y0032403D01*
D02*
G37*
G36*
X00961119D02*
X00951501D01*
X009447Y00317229D01*
Y00307611D01*
X00951501Y0030081D01*
X00961119D01*
X0096596Y00305651D01*
X0098056D01*
Y00305195D01*
X00987185Y0029857D01*
X00996555D01*
X0100318Y00305195D01*
Y00314565D01*
X00996555Y0032119D01*
X00987185D01*
X00982644Y00316649D01*
X0096792D01*
Y00317229D01*
X00961119Y0032403D01*
D02*
G37*
G36*
X0006669Y0030353D02*
X0005842D01*
Y0029526D01*
X00061102D01*
X0006669Y00300848D01*
Y0030353D01*
D02*
G37*
G36*
X0005588D02*
X0004761D01*
Y00300848D01*
X00053198Y0029526D01*
X0005588D01*
Y0030353D01*
D02*
G37*
G36*
X00707119Y0029863D02*
X00697501D01*
X006907Y00291829D01*
Y00289979D01*
X00675976D01*
X00670165Y0029579D01*
X00660795D01*
X0065417Y00289165D01*
Y00279795D01*
X00660795Y0027317D01*
X00670165D01*
X00675976Y00278981D01*
X0069393D01*
X00697501Y0027541D01*
X00707119D01*
X0071392Y00282211D01*
Y00291829D01*
X00707119Y0029863D01*
D02*
G37*
G36*
X00961119D02*
X00951501D01*
X009447Y00291829D01*
Y00282211D01*
X00951501Y0027541D01*
X00961119D01*
X0096596Y00280252D01*
X0098056D01*
Y00279795D01*
X00987185Y0027317D01*
X00996555D01*
X0100318Y00279795D01*
Y00289165D01*
X00996555Y0029579D01*
X00987185D01*
X00982644Y00291248D01*
X0096792D01*
Y00291829D01*
X00961119Y0029863D01*
D02*
G37*
G36*
X00707119Y0027323D02*
X00697501D01*
X006907Y00266429D01*
Y00265849D01*
X00674706D01*
X00670165Y0027039D01*
X00660795D01*
X0065417Y00263765D01*
Y00254395D01*
X00660795Y0024777D01*
X00670165D01*
X0067679Y00254395D01*
Y00254851D01*
X0069266D01*
X00697501Y0025001D01*
X00707119D01*
X0071392Y00256811D01*
Y00266429D01*
X00707119Y0027323D01*
D02*
G37*
G36*
X00961119D02*
X00951501D01*
X009447Y00266429D01*
Y00256811D01*
X00951501Y0025001D01*
X00961119D01*
X0096596Y00254851D01*
X0098056D01*
Y00254395D01*
X00987185Y0024777D01*
X00996555D01*
X0100318Y00254395D01*
Y00263765D01*
X00996555Y0027039D01*
X00987185D01*
X00982644Y00265849D01*
X0096792D01*
Y00266429D01*
X00961119Y0027323D01*
D02*
G37*
G36*
X00707119Y0024783D02*
X00697501D01*
X006907Y00241029D01*
Y00239179D01*
X00675976D01*
X00670165Y0024499D01*
X00660795D01*
X0065417Y00238365D01*
Y00228995D01*
X00660795Y0022237D01*
X00670165D01*
X00675976Y00228181D01*
X0069393D01*
X00697501Y0022461D01*
X00707119D01*
X0071392Y00231411D01*
Y00241029D01*
X00707119Y0024783D01*
D02*
G37*
G36*
X00777638Y0024638D02*
X00769222D01*
X0076456Y00241719D01*
X007366D01*
X00732712Y00240108D01*
X00612402Y00119798D01*
X00605528D01*
X00603795Y00121531D01*
Y00129394D01*
X00597843Y00135345D01*
X00589426D01*
X00583475Y00129394D01*
Y00120977D01*
X00589426Y00115025D01*
X00594749D01*
X00599362Y00110412D01*
X0060325Y00108801D01*
X0061468D01*
X00618568Y00110412D01*
X00738878Y00230721D01*
X0076456D01*
X00769222Y0022606D01*
X00777638D01*
X0078359Y00232012D01*
Y00240428D01*
X00777638Y0024638D01*
D02*
G37*
G36*
X00961119Y0024783D02*
X00951501D01*
X009447Y00241029D01*
Y00231411D01*
X00951501Y0022461D01*
X00961119D01*
X0096596Y00229452D01*
X0098056D01*
Y00228995D01*
X00987185Y0022237D01*
X00996555D01*
X0100318Y00228995D01*
Y00238365D01*
X00996555Y0024499D01*
X00987185D01*
X00982644Y00240448D01*
X0096792D01*
Y00241029D01*
X00961119Y0024783D01*
D02*
G37*
G36*
X0100318Y0021959D02*
X0098056D01*
Y0019697D01*
X0100318D01*
Y0021959D01*
D02*
G37*
G36*
X0067679D02*
X0065417D01*
Y0019697D01*
X0067679D01*
Y0021959D01*
D02*
G37*
G36*
X00914621Y0014659D02*
X00903159D01*
X0089257Y00142204D01*
X00884466Y001341D01*
X0088008Y00123511D01*
Y00112049D01*
X00884466Y00101461D01*
X0089257Y00093356D01*
X00903159Y0008897D01*
X00914621D01*
X0092521Y00093356D01*
X00933314Y00101461D01*
X009377Y00112049D01*
Y00123511D01*
X00933314Y001341D01*
X0092521Y00142204D01*
X00914621Y0014659D01*
D02*
G37*
G36*
X00114621D02*
X00103159D01*
X0009257Y00142204D01*
X00084466Y001341D01*
X0008008Y00123511D01*
Y00112049D01*
X00084466Y00101461D01*
X0009257Y00093356D01*
X00103159Y0008897D01*
X00114621D01*
X0012521Y00093356D01*
X00133314Y00101461D01*
X001377Y00112049D01*
Y00123511D01*
X00133314Y001341D01*
X0012521Y00142204D01*
X00114621Y0014659D01*
D02*
G37*
%LPD*%
G36*
X0063205Y00960319D02*
X00605778D01*
Y00963664D01*
Y00968863D01*
X00608116Y00969832D01*
X00618096Y00979812D01*
X0063205D01*
Y00960319D01*
D02*
G37*
G36*
X00606504Y00991548D02*
X00598868Y00983912D01*
X00597158D01*
X00595642Y00983284D01*
X00584158D01*
Y00963664D01*
Y00944664D01*
X00605778D01*
Y00949322D01*
X00639661D01*
Y00899346D01*
X00638391Y00898536D01*
X0063246Y00900993D01*
Y0089132D01*
Y00881647D01*
X00638391Y00884104D01*
X00639661Y00883294D01*
Y0087623D01*
X0061988D01*
Y00871419D01*
X00608287D01*
X00594419Y00885287D01*
X00594906Y0088646D01*
X00596772D01*
X0060198Y00891668D01*
Y00899032D01*
X00600076Y00900936D01*
X00598922Y00903722D01*
X00555618Y00947026D01*
Y00958717D01*
X0056048Y0096358D01*
Y00970534D01*
X00582668Y00992721D01*
X00606018D01*
X00606504Y00991548D01*
D02*
G37*
%LPC*%
G36*
X0062992Y00900993D02*
X00623271Y00898239D01*
X00620931Y0089259D01*
X0062992D01*
Y00900993D01*
D02*
G37*
G36*
Y0089005D02*
X00620931D01*
X00623271Y00884401D01*
X0062992Y00881647D01*
Y0089005D01*
D02*
G37*
G36*
X00232282Y0072517D02*
X0022987D01*
Y0071755D01*
X0023749D01*
Y00719962D01*
X00232282Y0072517D01*
D02*
G37*
G36*
X0022733D02*
X00224918D01*
X0021971Y00719962D01*
Y0071755D01*
X0022733D01*
Y0072517D01*
D02*
G37*
G36*
X00212078Y00716764D02*
X00203808D01*
Y00709494D01*
X00212078D01*
Y00716764D01*
D02*
G37*
G36*
X00201268D02*
X00192998D01*
Y00709494D01*
X00201268D01*
Y00716764D01*
D02*
G37*
G36*
X0023749Y0071501D02*
X0022987D01*
Y0070739D01*
X00232282D01*
X0023749Y00712598D01*
Y0071501D01*
D02*
G37*
G36*
X0022733D02*
X0021971D01*
Y00712598D01*
X00224918Y0070739D01*
X0022733D01*
Y0071501D01*
D02*
G37*
G36*
X00200006Y00673496D02*
X00191736D01*
Y00666226D01*
X00200006D01*
Y00673496D01*
D02*
G37*
G36*
X00189196D02*
X00180926D01*
Y00666226D01*
X00189196D01*
Y00673496D01*
D02*
G37*
G36*
X0026289Y00644308D02*
X0023131D01*
X00227422Y00642698D01*
X00209174Y0062445D01*
X00207824Y0062119D01*
X0020447Y00617836D01*
Y00611524D01*
X00208934Y0060706D01*
X00215246D01*
X0021971Y00611524D01*
Y00617836D01*
X00218911Y00618635D01*
X00233588Y00633312D01*
X00236284D01*
X0023677Y00632138D01*
X0023495Y00630318D01*
Y00621902D01*
X00240902Y0061595D01*
X00249318D01*
X0025527Y00621902D01*
Y00630318D01*
X0025345Y00632138D01*
X00253936Y00633312D01*
X00260612D01*
X002667Y00627224D01*
Y00621902D01*
X00272652Y0061595D01*
X00281068D01*
X0028702Y00621902D01*
Y00630318D01*
X00281068Y0063627D01*
X00273206D01*
X00266778Y00642698D01*
X0026289Y00644308D01*
D02*
G37*
G36*
X00342888Y00689914D02*
X00334618D01*
Y00682644D01*
X00342888D01*
Y00689914D01*
D02*
G37*
G36*
X0053848Y0049784D02*
X0053086D01*
Y00495428D01*
X00536068Y0049022D01*
X0053848D01*
Y0049784D01*
D02*
G37*
G36*
X00517506Y00473056D02*
X00509236D01*
Y00465786D01*
X00517506D01*
Y00473056D01*
D02*
G37*
G36*
X00506696D02*
X00498426D01*
Y00465786D01*
X00506696D01*
Y00473056D01*
D02*
G37*
G36*
X00324154Y00503936D02*
X00316884D01*
Y00495666D01*
X00324154D01*
Y00503936D01*
D02*
G37*
G36*
X003743Y0045698D02*
X0036703D01*
Y0044971D01*
X00369297D01*
X003743Y00454713D01*
Y0045698D01*
D02*
G37*
G36*
X00188835Y0042003D02*
X00179465D01*
X0017284Y00413405D01*
Y00404035D01*
X00179465Y0039741D01*
X00188835D01*
X0019546Y00404035D01*
Y00413405D01*
X00188835Y0042003D01*
D02*
G37*
G36*
X0038481Y0041656D02*
X0037719D01*
Y0040894D01*
X00379602D01*
X0038481Y00414148D01*
Y0041656D01*
D02*
G37*
G36*
X0034671Y0039094D02*
X00344298D01*
X0033909Y00385732D01*
Y0038332D01*
X0034671D01*
Y0039094D01*
D02*
G37*
G36*
X00346795Y00354025D02*
X00339175D01*
Y00351613D01*
X00344383Y00346405D01*
X00346795D01*
Y00354025D01*
D02*
G37*
G36*
X0020447Y0024108D02*
X0019685D01*
Y0023346D01*
X00199262D01*
X0020447Y00238668D01*
Y0024108D01*
D02*
G37*
G36*
X0019431D02*
X0018669D01*
Y00238668D01*
X00191898Y0023346D01*
X0019431D01*
Y0024108D01*
D02*
G37*
G36*
X00327802Y0014775D02*
X0032512D01*
Y0013948D01*
X0033339D01*
Y00142162D01*
X00327802Y0014775D01*
D02*
G37*
G36*
X0032258D02*
X00319898D01*
X0031431Y00142162D01*
Y0013948D01*
X0032258D01*
Y0014775D01*
D02*
G37*
G36*
X0033339Y0013694D02*
X0032512D01*
Y0012867D01*
X00327802D01*
X0033339Y00134258D01*
Y0013694D01*
D02*
G37*
G36*
X0032258D02*
X0031431D01*
Y00134258D01*
X00319898Y0012867D01*
X0032258D01*
Y0013694D01*
D02*
G37*
G36*
X00404528Y0014902D02*
X00395572D01*
X0038924Y00142688D01*
Y00133733D01*
X00395572Y001274D01*
X00404528D01*
X0041086Y00133733D01*
Y00142688D01*
X00404528Y0014902D01*
D02*
G37*
G36*
X00353728D02*
X00344772D01*
X0033844Y00142688D01*
Y00133733D01*
X00344772Y001274D01*
X00353728D01*
X0036006Y00133733D01*
Y00142688D01*
X00353728Y0014902D01*
D02*
G37*
G36*
X00531528D02*
X00522572D01*
X0051624Y00142688D01*
Y00133733D01*
X00522572Y001274D01*
X00531528D01*
X0053786Y00133733D01*
Y00142688D01*
X00531528Y0014902D01*
D02*
G37*
G36*
X00506128D02*
X00497172D01*
X0049084Y00142688D01*
Y00133733D01*
X00497172Y001274D01*
X00506128D01*
X0051246Y00133733D01*
Y00142688D01*
X00506128Y0014902D01*
D02*
G37*
G36*
X00480728D02*
X00471772D01*
X0046544Y00142688D01*
Y00133733D01*
X00471772Y001274D01*
X00480728D01*
X0048706Y00133733D01*
Y00142688D01*
X00480728Y0014902D01*
D02*
G37*
G36*
X00531528Y0012362D02*
X00522572D01*
X0051624Y00117288D01*
Y00108333D01*
X00522572Y00102D01*
X00531528D01*
X0053786Y00108333D01*
Y00117288D01*
X00531528Y0012362D01*
D02*
G37*
%LPD*%
D10*
X0054133Y002325D02*
G03*
X0054071Y0023188I0000858J-000092D01*
G01*
X001449Y0038332D02*
G03*
X00146839Y00376252I0001385J0D01*
G01*
X00335923Y00222675D02*
G03*
X00335923Y00222676I-0000254J0D01*
G01*
X00338982Y00230847D02*
G03*
X00335923Y00222738I00007728J-00007547D01*
G01*
X0033904Y00230907D02*
G03*
X00338982Y00230847I00007623J-0000756D01*
G01*
X0033904Y00230907D02*
G03*
X00339754Y00232418I-00001812J0000178D01*
G01*
X0013462Y00227358D02*
G03*
X00164149Y00183831I00128353J00055295D01*
G01*
X00178895Y0027029D02*
G03*
X00189405Y0027029I00005255J0001143D01*
G01*
X00182568Y0047244D02*
G03*
X00185732Y0047244I00001582J0001248D01*
G01*
X0066993Y0080454D02*
Y00808132D01*
X0066588Y00812182D02*
X0066993Y00808132D01*
X0064516Y0082931D02*
Y00956308D01*
X00635046Y0080391D02*
X006693D01*
X00662288Y00812182D02*
X0066588D01*
X0064516Y0082931D02*
X00662288Y00812182D01*
X00836321Y00858778D02*
X00839891Y00862347D01*
X00835918Y00858778D02*
X00836321D01*
X007239Y0078486D02*
X00762D01*
X00835918Y00858778D01*
X00839891Y00862347D02*
X00843262D01*
X0058305Y0064401D02*
X007239Y0078486D01*
X00213062Y00620562D02*
X0023131Y0063881D01*
X0026289D02*
X0027559Y0062611D01*
X0023131Y0063881D02*
X0026289D01*
X0027559Y0062611D02*
X0027686D01*
X00205292Y0071628D02*
X0020701Y00714562D01*
Y00713562D02*
Y00714562D01*
Y00713562D02*
X0020955Y00711022D01*
X0004561Y004953D02*
X0006985D01*
X0004445Y0049414D02*
X0004561Y004953D01*
X0003302Y00476648D02*
Y0053975D01*
Y00476648D02*
X0003937Y00470298D01*
X0003302Y0053975D02*
X0008128Y0058801D01*
X0002667Y00558591D02*
X00042119Y0057404D01*
X0003937Y0046863D02*
Y00470298D01*
X0002032Y00318988D02*
Y0058801D01*
X0001397Y0029591D02*
Y0059436D01*
X0002032Y0058801D02*
X0018542Y0075311D01*
X00021808Y003175D02*
X0006985D01*
X0001397Y0059436D02*
X0018796Y0076835D01*
X0002667Y0034417D02*
X0004064Y003302D01*
X0001397Y0029591D02*
X0004572Y0026416D01*
X0002032Y00318988D02*
X00021808Y003175D01*
X0002667Y0034417D02*
Y00558591D01*
X00042119Y0057404D02*
X0004318D01*
X0013589Y00369788D02*
Y00611742D01*
X00134402Y003683D02*
X0013589Y00369788D01*
X0006985Y003683D02*
X00134402D01*
X0051181Y0018796D02*
Y0020828D01*
Y0018796D02*
X0052578Y0017399D01*
X0049911Y0022098D02*
X0051181Y0020828D01*
X00573672Y00200292D02*
Y00214262D01*
X0054737Y0017399D02*
X00573672Y00200292D01*
X0052578Y0017399D02*
X0054737D01*
X00581607Y00180078D02*
X00595326D01*
X00578059Y0017653D02*
X00581607Y00180078D01*
X00595326D02*
X00598786Y00183538D01*
Y00188078D01*
X0057531Y0017653D02*
X00578059D01*
X0063246Y0019939D02*
Y0022479D01*
X00624608Y00191538D02*
X0063246Y0019939D01*
X0061722Y0024003D02*
X0063246Y0022479D01*
X00619056Y00174998D02*
Y00186808D01*
X0054886Y0024003D02*
X0061722D01*
X0054133Y002325D02*
X0054886Y0024003D01*
X0053721Y0022838D02*
X0054071Y0023188D01*
X0061976Y0036935D02*
X00634256Y00354854D01*
X00635Y0035411D01*
Y0025019D02*
Y0035411D01*
X00585028Y0014097D02*
X00585028D01*
X00532958Y000889D02*
X00585028Y0014097D01*
X0025908Y000889D02*
X00532958D01*
X00585028Y0014097D02*
X00619056Y00174998D01*
X00486201Y0010033D02*
X0048895D01*
X0028448Y0009652D02*
X00482391D01*
X0027686Y0010414D02*
X0028448Y0009652D01*
X00482391D02*
X00486201Y0010033D01*
X00164149Y00183831D02*
X0025908Y000889D01*
X00189741Y00183419D02*
X0022203Y0015113D01*
X0014605Y0024892D02*
X0023749Y0015748D01*
X0028321Y00165318D02*
X00284698Y0016383D01*
X0023749Y0015748D02*
X0035538D01*
X00309134Y0015113D02*
X00322054Y0013821D01*
X0022203Y0015113D02*
X00309134D01*
X0028321Y00165318D02*
Y0020447D01*
X00284698Y0016383D02*
X00436662D01*
X0043815Y00162342D01*
X0035538Y0015748D02*
X0037465Y0013821D01*
X0043815Y0012551D02*
Y00162342D01*
X00322054Y0013821D02*
X0032385D01*
X0043815Y0012551D02*
X0045085Y0011281D01*
X0032512Y0019431D02*
X00328712D01*
X00332113Y00197711D01*
Y00212515D01*
X00335923Y00216325D01*
X0032512Y0019028D02*
Y0019431D01*
Y0020066D01*
X0004064Y003302D02*
X0005715D01*
X0022479Y0075311D02*
X0030861Y0066929D01*
X0006985Y003175D02*
X0008255Y003048D01*
X0017018Y0071462D02*
Y0071662D01*
Y0071862D01*
X00188594Y00737034D01*
X00202538D01*
X0018542Y0075311D02*
X0022479D01*
X0005715Y00381D02*
X0006921Y0039306D01*
X0005715Y003556D02*
X0006985Y003683D01*
X0008255Y003556D02*
X0010414Y0033401D01*
X0008255Y00381D02*
X0012319D01*
X0010414Y0033401D02*
X0010414D01*
X0013335D01*
X0010414D02*
X0013462Y0030353D01*
X0015875Y0035792D02*
X0017167Y0037084D01*
X00146839Y00376252D02*
X0015621Y0036046D01*
X0015875Y0035792D01*
X0016256Y0033506D02*
X0017294Y0034544D01*
X0017272Y0031982D02*
X0018923D01*
X0018415Y0033252D02*
Y0033252D01*
X0017294Y0034544D02*
X00208062D01*
X0017167Y0037084D02*
X0021082D01*
X0018415Y0033252D02*
X002032Y0031347D01*
X0018923Y0031982D02*
X0020193Y0030712D01*
X002159Y00329148D02*
Y0036576D01*
X00208062Y0034544D02*
X0020955Y00343952D01*
Y0032617D02*
Y00343952D01*
Y0032617D02*
X002159Y0031982D01*
X0021082Y0037084D02*
X002159Y0036576D01*
Y00329148D02*
X00217388Y0032766D01*
X00244892D01*
X0023495Y0035987D02*
Y00373942D01*
X002159Y0031982D02*
X00255052D01*
X0023495Y00373942D02*
X00241134Y00380126D01*
Y00374126D02*
Y00380126D01*
X00244892Y0032766D02*
X0024638Y00329148D01*
Y0033274D01*
X00241134Y00374126D02*
X00267016D01*
X00255052Y0031982D02*
X0025654Y00321308D01*
Y00336434D01*
X00267016Y00374126D02*
X00271746Y00378856D01*
X00262672Y0031347D02*
X0026416Y00314958D01*
Y0033633D01*
X00613056Y00219748D02*
X00617786Y00215018D01*
X0066548Y0023368D02*
X00696236D01*
X009906Y0023495D02*
X0099187Y0023368D01*
X00696236D02*
X00698776Y0023622D01*
X0095758Y0023495D02*
X009906D01*
X0095631Y0023622D02*
X0095758Y0023495D01*
X00698776Y0023622D02*
X0070231D01*
X007366D02*
X0077343D01*
X00600056Y00185808D02*
Y00186308D01*
X00598786Y00188078D02*
X00600056Y00186808D01*
X00619056D02*
X00623786Y00191538D01*
X00624608D01*
X00598786Y00188078D02*
Y00215018D01*
X0066548Y0025908D02*
X0066675Y0026035D01*
X009906D02*
X0099187Y0025908D01*
X0066675Y0026035D02*
X0070104D01*
X0095758D02*
X009906D01*
X0070104D02*
X0070231Y0026162D01*
X0095631D02*
X0095758Y0026035D01*
X0060706Y0028045D02*
X0061976Y0026775D01*
X0066548Y0028448D02*
X00696236D01*
X0060325Y001143D02*
X0061468D01*
X00593635Y00123915D02*
X0060325Y001143D01*
X00593635Y00123915D02*
Y00125185D01*
X0061468Y001143D02*
X007366Y0023622D01*
X003302Y0026797D02*
X00368062Y00305832D01*
X0028978Y0028575D02*
X0029591Y0029188D01*
X0032385Y0026924D02*
X0036315Y0030854D01*
X00377952Y00283972D02*
X00388062Y00294082D01*
X0033528Y0029083D02*
Y00291048D01*
X00285532Y0029442D02*
X0028702Y00295908D01*
X00279182Y0030077D02*
X0028067Y00302258D01*
X0033528Y00291048D02*
X00356652Y0031242D01*
X00270292Y0030712D02*
X0027178Y00308608D01*
X003048Y0029083D02*
Y00326676D01*
X00388062Y00294082D02*
Y00324812D01*
X0029591Y0029188D02*
Y00327324D01*
X00383062Y00296702D02*
Y00324812D01*
X00378062Y00299322D02*
Y00324812D01*
X0028702Y00295908D02*
Y0032893D01*
X00356652Y0031242D02*
X00356652D01*
X0035814Y00313908D01*
X00373062Y00301942D02*
Y00324812D01*
X0032512Y0030204D02*
Y0032617D01*
X00368062Y00305832D02*
Y00324812D01*
X0036315Y0030854D02*
Y003249D01*
X0034315Y0030886D02*
Y003249D01*
X0028067Y00302258D02*
Y0033528D01*
X0035814Y00313908D02*
Y0032489D01*
X0027178Y00308608D02*
Y00337484D01*
X00368062Y00324812D02*
X0036815Y003249D01*
X00373062Y00324812D02*
X0037315Y003249D01*
X00378062Y00324812D02*
X0037815Y003249D01*
X00383062Y00324812D02*
X0038315Y003249D01*
X0035814Y0032489D02*
X0035815Y003249D01*
X0040815Y00291504D02*
X0041783Y00281824D01*
X0041315Y0029297D02*
X0042418Y0028194D01*
X0043315Y0030091D02*
X00459112Y00274948D01*
X0041815Y0029559D02*
X004318Y0028194D01*
X00428238Y00299356D02*
X0044831Y00279284D01*
X0042315Y00297978D02*
X00437508Y0028362D01*
X0040315Y00287348D02*
Y003249D01*
X0039815Y00288814D02*
Y003249D01*
X00393062Y00290192D02*
Y00324812D01*
X0040815Y00291504D02*
Y003249D01*
X0041315Y0029297D02*
Y003249D01*
X0041815Y0029559D02*
Y003249D01*
X0042315Y00297978D02*
Y003249D01*
X00428238Y00299356D02*
Y00324812D01*
X0044323Y0030607D02*
Y0031877D01*
X0043315Y0030091D02*
Y003249D01*
X00438238Y00303442D02*
Y00324812D01*
X00388062D02*
X0038815Y003249D01*
X00393062Y00324812D02*
X0039315Y003249D01*
X0043815D02*
X00438238Y00324812D01*
X0044815Y003249D02*
X00448238Y00324812D01*
X0042815Y003249D02*
X00428238Y00324812D01*
X0044315Y003249D02*
X0044323Y0032482D01*
X003048Y00326676D02*
X00320275Y0034215D01*
X0029591Y00327324D02*
X00315736Y0034715D01*
X0028702Y0032893D02*
X0031024Y0035215D01*
X00320275Y0034215D02*
X003259D01*
X00315736Y0034715D02*
X003259D01*
X0028067Y0033528D02*
X0031115Y0036576D01*
X0031024Y0035215D02*
X003259D01*
X0027178Y00337484D02*
X00316358Y00382062D01*
X0026416Y0033633D02*
X00314892Y00387062D01*
X0025654Y00336434D02*
X00312256Y0039215D01*
X0024638Y0033274D02*
X0031079Y0039715D01*
X0031115Y0036576D02*
Y00370389D01*
X00317714Y00376952D01*
X00319627D01*
X00319737Y00377062D01*
X00325812D01*
X003259Y0037715D01*
X00316358Y00382062D02*
X00325812D01*
X003259Y0038215D01*
X00314892Y00387062D02*
X00325812D01*
X003259Y0038715D01*
X00348065Y00324985D02*
X0034815Y003249D01*
X0035315D02*
Y003341D01*
X00348065Y00324985D02*
Y00349115D01*
X0032512Y0032617D02*
X00348065Y00349115D01*
X0035315Y003341D02*
X0036068Y0034163D01*
Y0035284D01*
X00348065Y00349115D02*
Y00355295D01*
X0036068Y0035284D02*
X0045234D01*
X00346298Y00357062D02*
X00348065Y00355295D01*
X00325988Y00357062D02*
X00346298D01*
X003259Y0035715D02*
X00325988Y00357062D01*
X0036068Y0035284D02*
Y0036427D01*
X003578Y0036715D02*
X0036068Y0036427D01*
X003259Y0036715D02*
X003578D01*
X003259Y0037215D02*
X0033808D01*
X00345097Y00379167D01*
X0044831Y00309764D02*
X0049784Y00260234D01*
X00438238Y00303442D02*
X0047371Y0026797D01*
X00590988Y0029315D02*
X0059436D01*
X00587436Y00296702D02*
X00590988Y0029315D01*
X00555248Y00296702D02*
X00587436D01*
X00484222Y00338328D02*
X005548Y0026775D01*
X004998Y0035215D02*
X00555248Y00296702D01*
X0056896Y0030585D02*
X0060706D01*
X0044831Y00309764D02*
Y0032004D01*
X00453238Y00311302D02*
Y00324812D01*
X005588Y0031855D02*
X0059436D01*
X0045315Y003249D02*
X00453238Y00324812D01*
X0057023Y0033125D02*
X0060706D01*
X0046315Y003249D02*
Y0034203D01*
X00484222Y00338328D02*
Y00341938D01*
X005152Y0036215D02*
X005588Y0031855D01*
X0049784Y0034014D02*
Y0034077D01*
X0048401Y0034215D02*
X00484222Y00341938D01*
X004804Y0034215D02*
X0048401D01*
X009906Y0028575D02*
X0099187Y0028448D01*
X00696236D02*
X00698776Y0028702D01*
X0095758Y0028575D02*
X009906D01*
X0095631Y0028702D02*
X0095758Y0028575D01*
X00698776Y0028702D02*
X0070231D01*
X0060706Y0030585D02*
X0061976Y0029315D01*
X009906Y0031115D02*
X0099187Y0030988D01*
X0095758Y0031115D02*
X009906D01*
X0095631Y0031242D02*
X0095758Y0031115D01*
X0066548Y0031242D02*
X0070231D01*
X00616388Y0031855D02*
X0061976D01*
X0060706Y0033125D02*
X0061976Y0031855D01*
X009906Y0033655D02*
X0099187Y0033528D01*
X0095758Y0033655D02*
X009906D01*
X0095631Y0033782D02*
X0095758Y0033655D01*
X0066548Y0033782D02*
X0070231D01*
X0049146Y0034715D02*
X0049784Y0034077D01*
X004804Y0034715D02*
X0049146D01*
X0045234Y0035284D02*
X0046315Y0034203D01*
X0051435Y003503D02*
Y00351428D01*
X004804Y0035215D02*
X004998D01*
X00508628Y0035715D02*
X0051435Y00351428D01*
X004804Y0035715D02*
X00508628D01*
X0052933Y0037215D02*
X00555146Y00346334D01*
X004804Y0036215D02*
X005152D01*
X0052163Y0036715D02*
X0052832Y0036046D01*
X004804Y0036715D02*
X0052163D01*
X004804Y0037215D02*
X0052933D01*
X005383Y0037715D02*
X0054356Y0037189D01*
X00486563Y00377062D02*
X00486655Y0037697D01*
X00480488Y00377062D02*
X00486563D01*
X004804Y0037715D02*
X00480488Y00377062D01*
X004804Y0037715D02*
X005383D01*
X004804Y0038215D02*
X0055108D01*
X0048042Y0038713D02*
X0055648D01*
X004804Y0038715D02*
X0048042Y0038713D01*
X00591976Y00346334D02*
X0059436Y0034395D01*
X00555146Y00346334D02*
X00591976D01*
X0060706Y0035665D02*
X0061976Y0034395D01*
X0056896Y0035665D02*
X0060706D01*
X009906Y0036195D02*
X0099187Y0036068D01*
X0095758Y0036195D02*
X009906D01*
X0056388Y0036935D02*
X0059436D01*
X0095631Y0036322D02*
X0095758Y0036195D01*
X0066548Y0036322D02*
X0070231D01*
X0060706Y0038205D02*
X0061976Y0036935D01*
X0055108Y0038215D02*
X0056388Y0036935D01*
X0056156Y0038205D02*
X0060706D01*
X0055648Y0038713D02*
X0056156Y0038205D01*
X0086995Y0028934D02*
Y0048006D01*
X0079883Y0028807D02*
Y0048514D01*
X009906Y0038735D02*
X0099187Y0038608D01*
X0095758Y0038735D02*
X009906D01*
X0095631Y0038862D02*
X0095758Y0038735D01*
X0066548Y0038862D02*
X0070231D01*
X0040315Y004794D02*
Y0048515D01*
X00403348Y00485473D01*
Y00487139D01*
X00433238Y00479488D02*
Y00514518D01*
X0037315Y004794D02*
Y0051966D01*
X00428238Y00479488D02*
Y00520948D01*
X00423238Y00479488D02*
Y00526108D01*
X0041815Y004794D02*
Y00527486D01*
X0037815Y004794D02*
Y0052968D01*
X0041315Y004794D02*
Y00532414D01*
X0040815Y004794D02*
Y0053388D01*
X0038315Y004794D02*
Y0053865D01*
X0038815Y004794D02*
Y00540116D01*
X0039315Y004794D02*
Y0054538D01*
X0039815Y004794D02*
Y00546846D01*
X00403348Y00487139D02*
X00403578Y00547204D01*
X00413242Y00445278D02*
X00436388D01*
X0036068Y0036427D02*
Y00429902D01*
Y0043666D01*
X003259Y0041215D02*
X0035052D01*
X0037592Y0041783D02*
X0044069D01*
X0035052Y0041215D02*
Y004265D01*
X0033968Y0041715D02*
X00344253Y00421723D01*
X0036068Y00429902D02*
X00442602D01*
X00344253Y00421723D02*
Y00439283D01*
X0035052Y004265D02*
X0036068Y0043666D01*
X0040815Y0045037D02*
X00413242Y00445278D01*
X0034315Y0046181D02*
X0036068Y0044428D01*
X0038989Y0044831D02*
X0040315Y0046157D01*
X00353448Y0045825D02*
X0036576D01*
X0041315Y0046569D02*
X0042291Y0045593D01*
X0034815Y00463548D02*
X00353448Y0045825D01*
X0040815Y0045037D02*
Y004794D01*
X0040315Y0046157D02*
Y004794D01*
X0034815Y00463548D02*
Y004794D01*
X0041315Y0046569D02*
Y004794D01*
X0034315Y0046181D02*
Y00483668D01*
X00358085Y00479465D02*
X0035815Y004794D01*
X00353062Y00479488D02*
X0035315Y004794D01*
X0036315D02*
Y005015D01*
X0034815Y004794D02*
Y00485275D01*
X00342938Y0048388D02*
X0034315Y00483668D01*
X0031694Y0048388D02*
X00342938D01*
X00353062Y00479488D02*
Y00489036D01*
X00347952Y00485473D02*
X0034815Y00485275D01*
X00347952Y00485473D02*
Y00487139D01*
X00358085Y00479465D02*
Y00493865D01*
X0036815Y004794D02*
Y0051047D01*
X0032131Y0055731D02*
X0036815Y0051047D01*
X0034417Y0054864D02*
X0037315Y0051966D01*
X0042315Y004794D02*
X00423238Y00479488D01*
X0042815Y004794D02*
X00428238Y00479488D01*
X0043315Y004794D02*
X00433238Y00479488D01*
X00310884Y00509936D02*
Y00512076D01*
X00296614Y00504206D02*
X0031694Y0048388D01*
X00329885Y00505206D02*
X00347952Y00487139D01*
X0031115Y005535D02*
X0036315Y005015D01*
X00327352Y00514746D02*
X00353062Y00489036D01*
X00315614Y00505206D02*
X00329885D01*
X00310884Y00509936D02*
X00315614Y00505206D01*
X00327352Y00514746D02*
X00327352D01*
X00321398Y005207D02*
X00327352Y00514746D01*
X0031496Y005207D02*
X00321398D01*
X0029591Y0055604D02*
X00358085Y00493865D01*
X00344253Y00439283D02*
X0034544Y0044047D01*
X0036068Y0043666D02*
Y0044428D01*
X0032131Y0078994D02*
X0035433D01*
X00307259Y00803991D02*
X0032131Y0078994D01*
X0035433D02*
Y00822325D01*
X00379095Y0084709D01*
X0037973D01*
X003802Y00869481D02*
X00382892Y00872172D01*
X00409332Y00850026D02*
X00432238Y0082712D01*
X0042297Y00848721D02*
X00436951Y0083474D01*
X00408332Y00850026D02*
X00409332D01*
X0042297Y00848721D02*
Y00868051D01*
X00405186Y00872172D02*
X00408332Y00869026D01*
X00405186Y00872172D02*
X00408332Y00869026D01*
X00382892Y00872172D02*
X00405186D01*
X00203538Y00718034D02*
X00205292Y0071628D01*
X00202538Y00718034D02*
X00203538D01*
X0095631Y0054102D02*
X0095758Y0053975D01*
X0079883Y0048514D02*
X0095631Y0064262D01*
X009906Y0056515D02*
X0099187Y0056388D01*
X0095758Y0056515D02*
X009906D01*
X0095631Y0056642D02*
X0095758Y0056515D01*
X009906Y0059055D02*
X0099187Y0058928D01*
X0095758Y0059055D02*
X009906D01*
X0095631Y0059182D02*
X0095758Y0059055D01*
X009906Y0041275D02*
X0099187Y0041148D01*
X0095758Y0041275D02*
X009906D01*
X0095631Y0041402D02*
X0095758Y0041275D01*
X0066548Y0041402D02*
X0070231D01*
X009906Y0043815D02*
X0099187Y0043688D01*
X0095758Y0043815D02*
X009906D01*
X0095631Y0043942D02*
X0095758Y0043815D01*
X0066548Y0043942D02*
X0070231D01*
X009906Y0046355D02*
X0099187Y0046228D01*
X0095758Y0046355D02*
X009906D01*
X0095631Y0046482D02*
X0095758Y0046355D01*
X0066548Y0046482D02*
X0070231D01*
X0060452Y0048365D02*
X0061722Y0049635D01*
X0066548Y0049022D02*
X0070231D01*
X00579238Y00495418D02*
X00593428D01*
X0059436Y0049635D01*
X0061722D02*
X0061976D01*
X0058017Y0050778D02*
X0060579D01*
X0061976Y0052175D01*
X0066548Y0051562D02*
X0070231D01*
X0066548Y0054102D02*
X0070231D01*
X0066548Y0056642D02*
X0070231D01*
X0058305Y0052082D02*
Y0064401D01*
X0057023Y0057277D02*
Y00597882D01*
X0066675Y0058801D02*
X00694966D01*
X0066548Y0058928D02*
X0066675Y0058801D01*
X00694966D02*
X00698776Y0059182D01*
X0070231D01*
X009906Y0048895D02*
X0099187Y0048768D01*
X0095758Y0048895D02*
X009906D01*
X0095631Y0049022D02*
X0095758Y0048895D01*
X009906Y0051435D02*
X0099187Y0051308D01*
X0095758Y0051435D02*
X009906D01*
X0095631Y0051562D02*
X0095758Y0051435D01*
X0086995Y0048006D02*
X0095631Y0056642D01*
X009906Y0053975D02*
X0099187Y0053848D01*
X0095758Y0053975D02*
X009906D01*
X00465822Y00489952D02*
X00536404Y00560534D01*
X004572Y0076581D02*
X0045847Y0076708D01*
Y007874D01*
X0045974Y00770255D02*
X0046355Y00774065D01*
X00497205D01*
X0047902Y00811969D02*
X00485979D01*
X00488342Y00809606D01*
X00497205Y00774065D02*
X00521184Y00798044D01*
X0057023Y00597882D02*
X00571292Y00598943D01*
X00596334Y00600456D02*
X005969Y00601022D01*
Y0062402D01*
X00571292Y00598943D02*
Y00646222D01*
X00596334Y00624586D02*
X005969Y0062402D01*
X0055476Y0078868D02*
X0056642D01*
X00568342Y00790602D01*
X00577242D01*
X00612844Y00792698D02*
X00614332Y0079121D01*
X00545396Y00798044D02*
X0055476Y0078868D01*
X00532958Y00798044D02*
X00545396D01*
X00521184D02*
X00532518D01*
X00532738Y00798264D02*
X00532958Y00798044D01*
X00532518D02*
X00532738Y00798264D01*
X00612844Y00792698D02*
Y00807112D01*
X00577242Y00790602D02*
X00599482Y00812842D01*
X00612844Y00807112D02*
Y00808112D01*
X00608114Y00812842D02*
X00612844Y00808112D01*
X004707Y00820288D02*
X0047902Y00811969D01*
X004707Y00820288D02*
Y00820288D01*
X00520385Y00828617D02*
X00531738Y00817264D01*
X00463869Y0082712D02*
X004707Y00820288D01*
X00432238Y0082712D02*
X00463869D01*
X00473148Y00828617D02*
X00520385D01*
X00467025Y0083474D02*
X00473148Y00828617D01*
X00436951Y0083474D02*
X00467025D01*
X0042297Y00868051D02*
X0049657Y0094165D01*
Y0096901D01*
X00599482Y00812842D02*
X00608114D01*
X00532958Y00817044D02*
X00561784D01*
X00531738Y00817264D02*
X00532738D01*
X00561784Y00817044D02*
X0056642Y0082168D01*
X00561784Y00817044D02*
X0056642Y0082168D01*
X00561784Y00817044D02*
X0056642Y0082168D01*
X00561784Y00817044D02*
X0056642Y0082168D01*
X0052197Y0094996D02*
X0060601Y0086592D01*
X00594968Y00954474D02*
X00595314Y0095482D01*
X0054737Y009652D02*
X0058039Y0099822D01*
X00615334Y00600456D02*
X0061595Y00601072D01*
Y0062397D01*
X00620064Y00606186D02*
X00634485Y00620607D01*
X0066548Y0061722D02*
X0070231D01*
X00615334Y00624586D02*
X0061595Y0062397D01*
X0066548Y0064262D02*
X0070231D01*
X00634485Y00620607D02*
Y00682745D01*
X0066929Y0066421D02*
X00694966D01*
X0066548Y0066802D02*
X0066929Y0066421D01*
X0066548Y0069088D02*
X00667864Y00693264D01*
X00673042D01*
X00673198Y0069342D01*
X0070231D01*
X00634485Y00682745D02*
X0066675Y0071501D01*
X00571292Y00646222D02*
X0071628Y0079121D01*
X00614332D02*
X0069468D01*
X00631844Y00807112D02*
X00635046Y0080391D01*
X006693D02*
X0067311Y0080772D01*
X009906Y0061595D02*
X0099187Y0061468D01*
X0095758Y0061595D02*
X009906D01*
X0095631Y0061722D02*
X0095758Y0061595D01*
X009906Y0064135D02*
X0099187Y0064008D01*
X0095758Y0064135D02*
X009906D01*
X0095631Y0064262D02*
X0095758Y0064135D01*
X00694966Y0066421D02*
X00698776Y0066802D01*
X009906Y0066675D02*
X0099187Y0066548D01*
X0095758Y0066675D02*
X009906D01*
X0095631Y0066802D02*
X0095758Y0066675D01*
X00698776Y0066802D02*
X0070231D01*
X0093472Y0071501D02*
X0095631Y0069342D01*
X0066675Y0071501D02*
X0093472D01*
X0071628Y0079121D02*
X007493D01*
X0069468D02*
X0070015Y0079668D01*
X0070015D01*
Y0080176D01*
X0070611Y0080772D01*
X0060601Y0086592D02*
X0063119D01*
X00595314Y0095482D02*
X00643672D01*
X00644416Y00955564D01*
X0064516Y00956308D01*
Y0096901D01*
X0058039Y0099822D02*
X0067564D01*
X00693675Y00971295D02*
X0069596Y0096901D01*
X00693675Y00971295D02*
Y00980185D01*
X0067564Y0099822D02*
X00693675Y00980185D01*
X007493Y0079121D02*
X00817862Y00859772D01*
Y00924063D01*
X008132Y00928725D02*
X00817862Y00924063D01*
X008132Y00928725D02*
Y0093345D01*
X0045847Y00460574D02*
X00459958Y00462062D01*
X00480312D01*
X004804Y0046215D01*
X0046315Y004794D02*
X0047686D01*
X0045815D02*
X00458238Y00479488D01*
X0044815Y004794D02*
X00448238Y00479488D01*
X0044315Y004794D02*
X00443238Y00479488D01*
X0043815Y004794D02*
X00438238Y00479488D01*
X00458238D02*
Y00485563D01*
X0045315Y004794D02*
Y0048976D01*
X0044069Y0041783D02*
X0046482Y0044196D01*
X00442602Y00429902D02*
X0045847Y0044577D01*
X0046482Y0044196D02*
Y0045085D01*
X0045847Y0044577D02*
Y00460574D01*
X0046482Y0045085D02*
X00471032Y00457062D01*
X00480312D02*
X004804Y0045715D01*
X00471032Y00457062D02*
X00480312D01*
X004804Y0039215D02*
X00588388D01*
X004804Y0039715D02*
X0057368D01*
X004804Y0040215D02*
X0055963D01*
X004804Y0040715D02*
X0055066D01*
X004804Y0041215D02*
X0054677D01*
X004804Y0041715D02*
X0054161D01*
X004804Y0042215D02*
X0053645D01*
X004804Y0042715D02*
X0053129D01*
X004804Y0043215D02*
X005274D01*
X004804Y0043715D02*
X0052097D01*
X004804Y0044215D02*
X00480488Y00442238D01*
X00514628D01*
X004804Y0044715D02*
X0050938D01*
X004804Y0045715D02*
X0049166D01*
X004804Y0046215D02*
X00484668D01*
X0048488Y00462363D01*
X0049166Y0045715D02*
X00506696Y00472186D01*
X0048488Y00462363D02*
Y0047124D01*
X00514628Y00442238D02*
X0058017Y0050778D01*
X00507966Y00474326D02*
X00512696Y00479056D01*
X00522236D01*
X0048488Y0047124D02*
X00506966Y00493326D01*
X0050938Y0044715D02*
X0058305Y0052082D01*
X00497664Y00500204D02*
Y00500694D01*
X00458238Y00485563D02*
X00458348Y00485673D01*
Y00487139D01*
X00461161Y00489952D01*
X0047686Y004794D02*
X00497664Y00500204D01*
X00461161Y00489952D02*
X00465822D01*
X00497664Y00500694D02*
X00499598Y00502628D01*
X0045315Y0048976D02*
X0052324Y0055985D01*
X00448238Y00495008D02*
X0051181Y0055858D01*
X00443238Y00501438D02*
X0049911Y0055731D01*
X00438238Y00509138D02*
X0048641Y0055731D01*
X00433238Y00514518D02*
X0047371Y0055499D01*
X00428238Y00520948D02*
X0046101Y0055372D01*
X00423238Y00526108D02*
X0044831Y0055118D01*
Y0057255D01*
X0047371Y0055499D02*
Y0057255D01*
X0049911Y0055731D02*
Y0057255D01*
X0048641Y0055731D02*
Y0057658D01*
X0046101Y0055372D02*
Y0058525D01*
X0048641Y0057658D02*
X00497988Y00588158D01*
X0043561Y0058525D02*
X0044831Y0059795D01*
X0046101Y0058525D02*
X0047371Y0059795D01*
X00497988Y00588158D02*
Y00596828D01*
X0049911Y0059795D01*
X0052745Y0051181D02*
X0052832D01*
X00522236Y00479056D02*
X0053975Y0049657D01*
X00506966Y00493326D02*
X00507966D01*
X00508966D01*
X0053975Y0049657D02*
Y0049911D01*
X00508966Y00493326D02*
X0052745Y0051181D01*
X00499598Y00502628D02*
X00500088D01*
X00546327Y00588128D02*
Y00594367D01*
X00520958Y00591026D02*
X0052451Y00594579D01*
X00546327Y00594367D02*
X0054991Y0059795D01*
X0052451Y00594579D02*
Y0059795D01*
X0061849Y0042015D02*
X0061976D01*
X00588388Y0039215D02*
X00590988Y0039475D01*
X0059436D01*
X0060684Y0040767D02*
X0061976Y0039475D01*
X0057368Y0039715D02*
X005842Y0040767D01*
X0060684D01*
X005662Y0043158D02*
X0060579D01*
X0061976Y0044555D01*
X0053645Y0042215D02*
X0057255Y0045825D01*
X00567626Y00443166D02*
X00591976D01*
X0059436Y0044555D01*
X0053129Y0042715D02*
X00574378Y00470238D01*
X005274Y0043215D02*
X005789Y0048365D01*
X0057255Y0045825D02*
X0060452D01*
X0061722Y0047095D01*
X0052097Y0043715D02*
X00579238Y00495418D01*
X00574378Y00470238D02*
X00593648D01*
X0059436Y0047095D01*
X0061722D02*
X0061976D01*
X005789Y0048365D02*
X0060452D01*
X0055066Y0040715D02*
X0056366Y0042015D01*
X0055963Y0040215D02*
X0056642Y0040894D01*
X0057023D01*
X0056366Y0042015D02*
X0059436D01*
X0054677Y0041215D02*
X005662Y0043158D01*
X0054161Y0041715D02*
X00567626Y00443166D01*
X00438238Y00479488D02*
Y00509138D01*
X00448238Y00479488D02*
Y00495008D01*
X00443238Y00479488D02*
Y00501438D01*
X0051181Y0055858D02*
Y0058144D01*
X00500088Y00502628D02*
X0057023Y0057277D01*
X0052324Y0055985D02*
Y0057128D01*
X00536404Y00560534D02*
Y00578314D01*
X0052324Y0057128D02*
X0052451Y0057255D01*
X00536404Y00578314D02*
X0054229Y005842D01*
X00542399D01*
X0051181Y0058144D02*
X00520958Y00590588D01*
X00542399Y005842D02*
X00546327Y00588128D01*
X00520958Y00590588D02*
Y00591026D01*
X0027051Y001979D02*
X00276259Y00203649D01*
X0029591Y001979D02*
X0030861Y002106D01*
X00276259Y00203649D02*
Y00207459D01*
X0028321Y0020447D02*
X00293526Y00214786D01*
X00276259Y00207459D02*
X0028321Y0021441D01*
X00293526Y00214786D02*
Y00220916D01*
X0030861Y002106D02*
Y0022606D01*
X00293526Y00220916D02*
X0029591Y002233D01*
X0027686Y0010414D02*
Y0011811D01*
X0029591Y0013716D01*
X0029845Y00136942D02*
X0029845Y0013821D01*
X0042291Y001979D02*
X0044069Y0018012D01*
X0042291Y001979D02*
Y00198778D01*
X0037211Y001979D02*
Y00201272D01*
X00375662Y00204824D01*
X0039751Y001979D02*
X0041021Y002106D01*
X0034671Y001979D02*
X0036068Y0021187D01*
X00375662Y00204824D02*
Y00205263D01*
X0038481Y0021441D01*
Y0022733D01*
X00335923Y00222676D02*
Y00222738D01*
X0034671Y002233D02*
Y00224491D01*
X0028321Y0021441D02*
Y0023876D01*
X0034671Y00224491D02*
X0035306Y00230841D01*
X0036576D02*
X0037211Y00224491D01*
X0031877Y0022479D02*
X0033782Y0024384D01*
X00339754Y00232418D02*
X0034544Y00238104D01*
X0029718Y0022352D02*
X0032385Y0025019D01*
X0030861Y0022606D02*
X003302Y0024765D01*
X0036068Y0021187D02*
Y002667D01*
X0036576Y00230841D02*
Y0026289D01*
X0035306Y00230841D02*
Y002667D01*
X0033782D02*
X00373062Y00301942D01*
X0037084Y002413D02*
Y00261504D01*
X0034544Y00238104D02*
Y002667D01*
X0033782Y0024384D02*
Y002667D01*
X003302Y0024765D02*
Y0026797D01*
X0032385Y0025019D02*
Y0026924D01*
X0028321Y0023876D02*
X0033528Y0029083D01*
X00268126Y00233836D02*
X0034315Y0030886D01*
X0036068Y002667D02*
X00371348Y00277368D01*
X0026543Y0024235D02*
X0032512Y0030204D01*
X00371348Y00277368D02*
X00371348D01*
X0028426Y0027029D02*
X003048Y0029083D01*
X0035306Y002667D02*
X00383062Y00296702D01*
X0034544Y002667D02*
X00378062Y00299322D01*
X00420194Y00247474D02*
X0042418Y0025146D01*
X00392167Y00245373D02*
X00392693Y00245899D01*
X00420194Y00244934D02*
Y00247474D01*
X00392693Y00245899D02*
Y00252993D01*
X0037592Y00247546D02*
Y00260119D01*
X00383794Y00254D02*
Y00254152D01*
X00392693Y00252993D02*
X0040767Y0026797D01*
X0041021Y0025908D02*
X0041783Y002667D01*
X0042418Y0025146D02*
Y0028194D01*
X00383794Y00254152D02*
X0040894Y00279298D01*
X0037592Y00260119D02*
X0040315Y00287348D01*
X0041783Y002667D02*
Y00281824D01*
X0037084Y00261504D02*
X0039815Y00288814D01*
X0036576Y0026289D02*
X00393062Y00290192D01*
X0040894Y00279298D02*
Y002794D01*
X00371348Y00277368D02*
X00377952Y00283972D01*
Y00283972D01*
X00501713Y0016824D02*
Y00168627D01*
X0049022Y0018012D02*
X00501713Y00168627D01*
X0044069Y0018012D02*
X0049022D01*
X00459112Y00212498D02*
X0047371Y001979D01*
X0044831Y001979D02*
X0044831D01*
X00437508Y00208702D02*
X0044831Y001979D01*
X0048641Y002106D02*
X0049911Y001979D01*
X0052451D02*
X0053721Y002106D01*
Y0022838D01*
X00573672Y00214262D02*
X0058674Y0022733D01*
X00613056Y00219748D02*
Y00225842D01*
X0049784Y0022457D02*
X0049911Y002233D01*
X00611568Y0022733D02*
X00613056Y00225842D01*
X0058674Y0022733D02*
X00611568D01*
X0048641Y002106D02*
Y0026289D01*
X0049784Y0022457D02*
Y00260234D01*
X00459112Y00212498D02*
Y00274948D01*
X0047371Y002233D02*
Y0026797D01*
X00437508Y00208702D02*
Y0028362D01*
X0044831Y002233D02*
Y00279284D01*
X0051181Y0025146D02*
Y0025273D01*
X004318Y0023219D02*
Y0028194D01*
X005548Y0026775D02*
X0059436D01*
X0044323Y0030607D02*
X0048641Y0026289D01*
X005715Y0028045D02*
X0060706D01*
X00453238Y00311302D02*
X0051181Y0025273D01*
X0037211Y002233D02*
Y00224491D01*
X0039751Y002233D02*
Y0022584D01*
X0042291Y002233D02*
X004318Y0023219D01*
X00389382Y00233968D02*
X0039751Y0022584D01*
X00389382Y00233968D02*
Y00234084D01*
X0037084Y002413D02*
X0038481Y0022733D01*
X0041021Y002106D02*
Y0025908D01*
X0037592Y00247546D02*
X00389382Y00234084D01*
X004191Y0024384D02*
X00420194Y00244934D01*
X0004572Y0026416D02*
X0006731D01*
X0008255Y002794D01*
X0013462Y00227358D02*
Y0030353D01*
X0014605Y0024892D02*
Y0026902D01*
X0015875Y0028172D01*
X00151701Y00224397D02*
X00156826Y00216334D01*
X00158314Y00214846D01*
X0015875Y0030712D02*
X0016002D01*
X0015875Y0028172D02*
X0017145Y0029442D01*
X0015875Y0025632D02*
X0017272Y0027029D01*
X0016002Y0030712D02*
X0017272Y0031982D01*
X00158314Y00214846D02*
X00189741Y00183419D01*
X0017272Y0027029D02*
X00178895D01*
X0018415Y0030712D02*
X00186534Y00304736D01*
X0018415Y0028172D02*
X00187522D01*
X00191551Y0028575D01*
X00186534Y00304736D02*
X00195345D01*
X0019931Y0030077D01*
X002032Y0031347D02*
X00262672D01*
X0022733Y0022965D02*
X00228998D01*
X0017145Y0029442D02*
X00285532D01*
X0019558Y0024235D02*
X0026543D01*
X00228998Y0022965D02*
X00235348Y002233D01*
X0020193Y0030712D02*
X00270292D01*
X00189405Y0027029D02*
X0028426D01*
X0019931Y0030077D02*
X00279182D01*
X00268126Y00225684D02*
Y00233836D01*
X00191551Y0028575D02*
X0028978D01*
X00235348Y002233D02*
X0027051D01*
X00268126Y00225684D02*
X0027051Y002233D01*
X0006985Y004953D02*
X0008255Y004826D01*
X0005715Y004318D02*
X0006985Y004445D01*
X001449Y0038332D02*
Y0054585D01*
X0006985Y004445D02*
X0009144D01*
X0010414Y004572D01*
X0016256Y0045952D02*
X0017526Y0044682D01*
X00275902Y003937D02*
X00290344D01*
X00271746Y00397856D02*
X00275902Y003937D01*
X00290344D02*
X00298794Y0040215D01*
X00291296Y00415874D02*
X0030002Y0040715D01*
X00272984Y00415874D02*
X00291296D01*
X00271814Y00417044D02*
X00272984Y00415874D01*
X00282116Y00443054D02*
X0030302Y0042215D01*
X00241134Y00436044D02*
X00271814D01*
X0023495Y00442228D02*
X00241134Y00436044D01*
X00282116Y00443054D02*
Y00443412D01*
X0023495Y00442228D02*
Y0044487D01*
X00280182Y00445346D02*
X00282116Y00443412D01*
X00279824Y00445346D02*
X00280182D01*
X0025019Y0048514D02*
X00308092Y00427238D01*
X0025632Y0049149D02*
X0031566Y0043215D01*
X0024638Y0047879D02*
X00279824Y00445346D01*
X0017123Y0047244D02*
X00182568D01*
X00170486Y00473184D02*
X0017123Y0047244D01*
X0015875Y0048492D02*
X00170486Y00473184D01*
X0015875Y0048492D02*
X0015875D01*
X0011557Y0043434D02*
Y00535592D01*
X0010414Y004572D02*
Y0052324D01*
X0017145Y0049762D02*
X0019177D01*
X0015875Y0051032D02*
X0017145Y0049762D01*
X0018415Y0051032D02*
X0019431D01*
X0017145Y0052302D02*
X0019177D01*
X0015875Y0053572D02*
X0017145Y0052302D01*
X00258272Y0049784D02*
X00313962Y0044215D01*
X0019558Y0045952D02*
X002212Y0048514D01*
X00185732Y0047244D02*
X0019834D01*
X00258388Y0050419D02*
X00315339Y00447238D01*
X0022501Y0047879D02*
X0024638D01*
X0019834Y0047244D02*
X0021739Y0049149D01*
X00256183Y0051286D02*
X00316805Y00452238D01*
X0018415Y0048492D02*
X0019812D01*
X002212Y0048514D02*
X0025019D01*
X0027051Y0051181D02*
X0032017Y0046215D01*
X0025781Y00517699D02*
X00318271Y00457238D01*
X0019812Y0048492D02*
X0021104Y0049784D01*
X0021739Y0049149D02*
X0025632D01*
X0021104Y0049784D02*
X00258272D01*
X0019177Y0049762D02*
X0019834Y0050419D01*
X00258388D01*
X00296614Y00504206D02*
Y00505206D01*
X0019431Y0051032D02*
X0019685Y0051286D01*
X00256183D01*
X0019685D02*
X00202338Y00518348D01*
X00216584D01*
X0027051Y0051181D02*
Y0053064D01*
X00216584Y00518348D02*
X00222745Y0052451D01*
X0025781Y00517699D02*
Y00529243D01*
X0026692Y0055604D02*
X00310884Y00512076D01*
X00222745Y0052451D02*
X0022479D01*
X0019177Y0052302D02*
X0020469Y0053594D01*
X00251112D02*
X0025781Y00529243D01*
X00312256Y0039215D02*
X003259D01*
X0031079Y0039715D02*
X003259D01*
X00298794Y0040215D02*
X003259D01*
X0030002Y0040715D02*
X003259D01*
Y0041715D02*
X0033968D01*
X0030302Y0042215D02*
X003259D01*
X00325812Y00427238D02*
X003259Y0042715D01*
X00308092Y00427238D02*
X00325812D01*
X0031566Y0043215D02*
X003259D01*
X00313962Y0044215D02*
X003259D01*
X00325812Y00447238D02*
X003259Y0044715D01*
X00315339Y00447238D02*
X00325812D01*
Y00452238D02*
X003259Y0045215D01*
X00316805Y00452238D02*
X00325812D01*
Y00457238D02*
X003259Y0045715D01*
X00318271Y00457238D02*
X00325812D01*
X0032017Y0046215D02*
X003259D01*
X0006921Y0039306D02*
X00069909Y00393759D01*
X00083086Y00394332D01*
X00124287Y00396123D01*
X00124986Y00396822D01*
X00124986Y00396822D02*
X0012573Y00397566D01*
Y0040259D01*
X0005715Y004064D02*
X0006985Y004191D01*
X0010033D01*
X0011557Y0043434D01*
X0017526Y0044682D02*
X0019304D01*
X0022501Y0047879D01*
X0018415Y0045952D02*
X0019558D01*
X0041815Y00527486D02*
X0043561Y00544946D01*
X0040815Y0053388D02*
X0041783Y0054356D01*
X0041315Y00532414D02*
X0042799Y00547254D01*
X00403578Y00547204D02*
X00404964D01*
X00397172Y00547824D02*
X0039815Y00546846D01*
X0037211Y00556156D02*
X0038815Y00540116D01*
X00404964Y00547204D02*
X0040767Y0054991D01*
X0038481Y0055372D02*
X0039315Y0054538D01*
X0041783Y0054356D02*
Y005588D01*
X0042799Y00547254D02*
Y00564832D01*
X00397172Y00547824D02*
Y00572212D01*
X0041021Y0056642D02*
X0041783Y005588D01*
X0043561Y00544946D02*
Y0058525D01*
X0042291Y00569912D02*
X0042799Y00564832D01*
X0038481Y0055372D02*
Y0058525D01*
X00108378Y00542784D02*
X0011557Y00535592D01*
X0018415Y0053572D02*
X0019199Y0054356D01*
X00107635Y00543528D02*
X00108378Y00542784D01*
X00107635Y00544638D02*
X00107635Y00543528D01*
X00107635Y00544638D02*
X0010795Y0055858D01*
X001449Y0054585D02*
X00158762Y00563892D01*
X0012573Y00508D02*
Y00628034D01*
X00158762Y00563892D02*
Y00670036D01*
X0013589Y00611742D02*
X0014224Y00618092D01*
Y0061976D01*
X0012573Y00628034D02*
X0013081Y00633114D01*
Y0063373D01*
X00158762Y00670036D02*
X00163492Y00674766D01*
X00164492D01*
Y00693766D02*
X00190466D01*
X0020469Y0053594D02*
X00251112D01*
X0028321Y0055245D02*
X0031496Y005207D01*
X0025759Y0054356D02*
X0027051Y0053064D01*
X0019199Y0054356D02*
X0025759D01*
X0023136Y0055604D02*
X0026692D01*
X0029591D02*
Y0057255D01*
X0028321Y0055245D02*
Y0058144D01*
X00192807Y00594593D02*
X0023136Y0055604D01*
X00274062Y00590588D02*
X0028321Y0058144D01*
X00274062Y00590588D02*
Y00591026D01*
X0027051Y00594579D02*
X00274062Y00591026D01*
X0027051Y00594579D02*
Y0059795D01*
X0029591Y005969D02*
Y0059795D01*
X0021209Y0061468D02*
X00213062Y00615652D01*
Y00620562D01*
X0030861Y0058525D02*
Y0066929D01*
X00192807Y00594593D02*
Y00672493D01*
X00164492Y00693766D02*
Y00708932D01*
X0017018Y0071462D01*
X0018796Y0076835D02*
X0029083D01*
X00290346Y00784074D02*
X0030861Y0076581D01*
X00203808Y00784074D02*
X00290346D01*
X00307259Y00803991D02*
Y00875111D01*
X0030353Y0087884D02*
X00307259Y00875111D01*
X00345102Y00562728D02*
X0037815Y0052968D01*
X0035814Y0056366D02*
X0038315Y0053865D01*
X0031115Y005535D02*
Y0055372D01*
X0037211Y00556156D02*
Y0057255D01*
X0030861Y0058525D02*
X0032131Y0057255D01*
Y0055731D02*
Y0057255D01*
X00345102Y00562728D02*
Y00570942D01*
X0034671Y0057255D01*
X0035814Y0056366D02*
Y0058652D01*
X003354Y0058386D02*
X0034671Y0057255D01*
X0037211Y0059795D02*
X0038481Y0058525D01*
X0037338Y006297D02*
Y0066421D01*
X0042291Y00569912D02*
Y0057255D01*
X00397172Y00572212D02*
X0039751Y0057255D01*
X0041021Y0056642D02*
Y0058039D01*
X00420526Y00590706D01*
Y00595566D01*
X0042291Y0059795D01*
X0038481Y0061976D02*
Y00619978D01*
X0038989Y00625058D01*
Y0066929D01*
X0030861Y0076581D02*
X0043434D01*
X0033274Y00661766D02*
X00333348Y00662374D01*
X0034798Y0066675D02*
X0035687Y0067564D01*
X00333277Y00681445D02*
X00333348Y00681374D01*
X00314415Y00681445D02*
X00333277D01*
X0029083Y0076835D02*
X0038989Y0066929D01*
X0034671Y0059795D02*
X0035814Y0058652D01*
X003354Y0058386D02*
Y0060696D01*
X0034671Y0059795D02*
X00349094Y00600334D01*
Y00605414D01*
X003354Y0060696D02*
X0034798Y0061954D01*
X00349094Y00605414D02*
X0037338Y006297D01*
X0033274Y006223D02*
Y00661766D01*
X0034798Y0061954D02*
Y0066675D01*
D20*
X00205292Y0071628D02*
X00208268D01*
X002286D01*
X0037973Y0086995D02*
X00380669Y00869011D01*
X00227628Y0068142D02*
Y00715308D01*
X002286Y0071628D01*
X0059436Y0054715D02*
X00595347Y00548137D01*
X0061976Y0054715D02*
Y00549147D01*
X00615443Y00553465D02*
X0061976Y00549147D01*
X00595347Y00548137D02*
Y00599469D01*
X00615443Y00553465D02*
Y00597266D01*
X00615334Y00597375D02*
X00615443Y00597266D01*
X00488342Y00809606D02*
X00507287D01*
X00511637Y00813956D01*
X00595347Y00599469D02*
X00596334Y00600456D01*
X0051689Y006223D02*
X00517525Y00622935D01*
Y00772795D01*
X0051816Y0077343D01*
X00511637Y00813956D02*
Y00814251D01*
X0044577Y0085707D02*
X0045552D01*
X0046676Y0086831D01*
X0049657D01*
X0052197Y0089386D02*
Y0094996D01*
Y009652D01*
X0049657Y0086831D02*
X00557226D01*
X00557226Y0086831D01*
X0059309Y0089535D02*
Y0089789D01*
X0054737Y0094361D02*
X0059309Y0089789D01*
X00602284Y00975664D02*
X0061468Y0098806D01*
X0054737Y0094361D02*
Y009652D01*
Y0096901D01*
X00594968Y00973474D02*
X00597158Y00975664D01*
X00602284D01*
X00615334Y00597375D02*
Y00600456D01*
X0070639Y0086487D02*
X0070739D01*
X0067056Y009007D02*
X0070639Y0086487D01*
X0067056Y009007D02*
Y0095482D01*
X00708896Y00916484D01*
X0067056Y0095482D02*
Y0096901D01*
X006698Y0096977D02*
X0067056Y0096901D01*
X006698Y0096977D02*
Y00983596D01*
X00665336Y0098806D02*
X006698Y00983596D01*
X0061468Y0098806D02*
X00665336D01*
X00765775Y00863635D02*
X00767063Y00862347D01*
X00792462D02*
Y00864345D01*
X007882Y00868607D02*
X00792462Y00864345D01*
X00765775Y00863635D02*
Y0092322D01*
X007882Y00868607D02*
Y009301D01*
X00708896Y00916484D02*
X00756464D01*
X007632Y0092322D01*
Y0093345D01*
X0078786Y0093044D02*
X007882Y009301D01*
X00190466Y00674766D02*
X00192656Y00676956D01*
X00223164D01*
X00227628Y0068142D01*
X0013843Y0074908D02*
Y00777856D01*
X00142894Y0078232D01*
X00165526D01*
X00167636Y0078443D01*
X0016999D01*
X0017018Y0078462D01*
Y0078662D01*
X0017037Y0078681D01*
Y0078881D01*
X00184634Y00803074D01*
X00203808D01*
X00291666D02*
X0031496Y0077978D01*
X00203808Y00803074D02*
X00291666D01*
X00358836Y00780078D02*
X00374948D01*
X0031496Y0077978D02*
X00358538D01*
X00358836Y00780078D01*
X00374948D02*
X0037592Y0078105D01*
D23*
X00296614Y00505206D02*
D03*
X00315614D02*
D03*
X00615334Y00624586D02*
D03*
X00596334D02*
D03*
X00612844Y00807112D02*
D03*
X00631844D02*
D03*
X00598786Y00215018D02*
D03*
X00617786D02*
D03*
X00600056Y00185808D02*
D03*
X00619056D02*
D03*
X00596334Y00600456D02*
D03*
X00615334D02*
D03*
D24*
X0023495Y0035987D02*
D03*
Y0044487D02*
D03*
D25*
X00271746Y00397856D02*
D03*
Y00378856D02*
D03*
X00271814Y00417044D02*
D03*
Y00436044D02*
D03*
X00507966Y00493326D02*
D03*
Y00474326D02*
D03*
X00202538Y00718034D02*
D03*
Y00737034D02*
D03*
X00203808Y00803074D02*
D03*
Y00784074D02*
D03*
X00408332Y00869026D02*
D03*
Y00850026D02*
D03*
X00532738Y00798264D02*
D03*
Y00817264D02*
D03*
X00488342Y00809606D02*
D03*
Y00828606D02*
D03*
X00594968Y00954474D02*
D03*
Y00973474D02*
D03*
X00164492Y00674766D02*
D03*
Y00693766D02*
D03*
X00190466D02*
D03*
Y00674766D02*
D03*
X00333348Y00681374D02*
D03*
Y00662374D02*
D03*
D26*
X003259Y0046215D02*
D03*
Y0045715D02*
D03*
Y0045215D02*
D03*
Y0044715D02*
D03*
Y0044215D02*
D03*
Y0043715D02*
D03*
Y0043215D02*
D03*
Y0042715D02*
D03*
Y0042215D02*
D03*
Y0041715D02*
D03*
Y0041215D02*
D03*
Y0040715D02*
D03*
Y0040215D02*
D03*
Y0039715D02*
D03*
Y0039215D02*
D03*
Y0038715D02*
D03*
Y0038215D02*
D03*
Y0037715D02*
D03*
Y0037215D02*
D03*
Y0036715D02*
D03*
Y0036215D02*
D03*
Y0035715D02*
D03*
Y0035215D02*
D03*
Y0034715D02*
D03*
Y0034215D02*
D03*
X004804D02*
D03*
Y0034715D02*
D03*
Y0035215D02*
D03*
Y0035715D02*
D03*
Y0036215D02*
D03*
Y0036715D02*
D03*
Y0037215D02*
D03*
Y0037715D02*
D03*
Y0038215D02*
D03*
Y0038715D02*
D03*
Y0039215D02*
D03*
Y0039715D02*
D03*
Y0040215D02*
D03*
Y0040715D02*
D03*
Y0041215D02*
D03*
Y0041715D02*
D03*
Y0042215D02*
D03*
Y0042715D02*
D03*
Y0043215D02*
D03*
Y0043715D02*
D03*
Y0044215D02*
D03*
Y0044715D02*
D03*
Y0045215D02*
D03*
Y0045715D02*
D03*
Y0046215D02*
D03*
D27*
X0034315Y003249D02*
D03*
X0034815D02*
D03*
X0035315D02*
D03*
X0035815D02*
D03*
X0036315D02*
D03*
X0036815D02*
D03*
X0037315D02*
D03*
X0037815D02*
D03*
X0038315D02*
D03*
X0038815D02*
D03*
X0039315D02*
D03*
X0039815D02*
D03*
X0040315D02*
D03*
X0040815D02*
D03*
X0041315D02*
D03*
X0041815D02*
D03*
X0042315D02*
D03*
X0042815D02*
D03*
X0043315D02*
D03*
X0043815D02*
D03*
X0044315D02*
D03*
X0044815D02*
D03*
X0045315D02*
D03*
X0045815D02*
D03*
X0046315D02*
D03*
Y004794D02*
D03*
X0045815D02*
D03*
X0045315D02*
D03*
X0044815D02*
D03*
X0044315D02*
D03*
X0043815D02*
D03*
X0043315D02*
D03*
X0042815D02*
D03*
X0042315D02*
D03*
X0041815D02*
D03*
X0041315D02*
D03*
X0040815D02*
D03*
X0040315D02*
D03*
X0039815D02*
D03*
X0039315D02*
D03*
X0038815D02*
D03*
X0038315D02*
D03*
X0037815D02*
D03*
X0037315D02*
D03*
X0036815D02*
D03*
X0036315D02*
D03*
X0035815D02*
D03*
X0035315D02*
D03*
X0034815D02*
D03*
X0034315D02*
D03*
D28*
X0017018Y0078662D02*
D03*
Y0071662D02*
D03*
D29*
X0037973Y0086995D02*
D03*
Y0084709D02*
D03*
D30*
X0043434Y0076581D02*
D03*
X004572D02*
D03*
D31*
X0044577Y0081407D02*
D03*
Y0085707D02*
D03*
D32*
X0056642Y0078868D02*
D03*
Y0082168D02*
D03*
D33*
X0070611Y0080772D02*
D03*
X0067311D02*
D03*
D69*
X00124986Y00396822D02*
D03*
D70*
X00407277Y00921468D02*
X00415702Y00929893D01*
Y0094085D01*
X0041832D02*
X0043532D01*
X0041832Y0099085D02*
X0043532D01*
X00415702Y00997768D02*
X0041797Y009955D01*
X00415702Y00997768D02*
Y01001807D01*
X00407277Y01010232D02*
X00415702Y01001807D01*
X00394781Y0100965D02*
X00395363Y01010232D01*
X00407277D01*
X003302Y0080899D02*
Y00855348D01*
X0039632Y00921468D01*
X00344338Y0100965D02*
X00394781D01*
X004064Y0080899D02*
X0041021Y008128D01*
X0043475D01*
X0043567Y0081372D01*
X0039632Y00921468D02*
X00407277D01*
X0043567Y0081372D02*
X0044542D01*
X0044577Y0081407D01*
X00488342Y00828606D02*
X00488364Y00828628D01*
X00488386Y0082865D01*
X00054234Y00829686D02*
X00064966D01*
X0005207Y0083185D02*
X00054234Y00829686D01*
X00064966D02*
X0006713Y0083185D01*
X00166538D01*
X00201749Y00867061D01*
Y00874544D01*
X00213528Y0087884D02*
X00344338Y0100965D01*
X00201749Y00874544D02*
X00206045Y0087884D01*
X00213528D01*
D71*
X00557226Y0086831D02*
D03*
X0049657Y0086831D02*
D03*
D72*
X00557226Y0088101D02*
D03*
X0049657Y0088101D02*
D03*
D73*
X0063119Y0086592D02*
D03*
X0070739Y0086487D02*
D03*
D74*
X0063119Y0089132D02*
D03*
X0070739Y0089027D02*
D03*
D75*
X0043532Y0094085D02*
D03*
X0041832D02*
D03*
X0040132D02*
D03*
Y0099085D02*
D03*
X0041832D02*
D03*
X0043532D02*
D03*
D76*
X0049657Y0096901D02*
D03*
X0064516D02*
D03*
D77*
X0052197D02*
D03*
X0054737D02*
D03*
X0067056D02*
D03*
X0069596D02*
D03*
D78*
X0066548Y0020828D02*
D03*
X0061976Y0026775D02*
D03*
X0099187Y0020828D02*
D03*
X0015875Y0053572D02*
D03*
D79*
X0066548Y0023368D02*
D03*
Y0025908D02*
D03*
Y0028448D02*
D03*
Y0030988D02*
D03*
Y0033528D02*
D03*
Y0036068D02*
D03*
Y0038608D02*
D03*
Y0041148D02*
D03*
Y0043688D02*
D03*
Y0046228D02*
D03*
Y0048768D02*
D03*
Y0051308D02*
D03*
Y0053848D02*
D03*
Y0056388D02*
D03*
Y0058928D02*
D03*
Y0061468D02*
D03*
Y0064008D02*
D03*
Y0066548D02*
D03*
Y0069088D02*
D03*
X0059436Y0054715D02*
D03*
X0061976D02*
D03*
X0059436Y0052175D02*
D03*
X0061976D02*
D03*
X0059436Y0049635D02*
D03*
X0061976D02*
D03*
X0059436Y0047095D02*
D03*
X0061976D02*
D03*
X0059436Y0044555D02*
D03*
X0061976D02*
D03*
X0059436Y0042015D02*
D03*
X0061976D02*
D03*
X0059436Y0039475D02*
D03*
X0061976D02*
D03*
X0059436Y0036935D02*
D03*
X0061976D02*
D03*
X0059436Y0034395D02*
D03*
X0061976D02*
D03*
X0059436Y0031855D02*
D03*
X0061976D02*
D03*
X0059436Y0029315D02*
D03*
X0061976D02*
D03*
X0059436Y0026775D02*
D03*
X0027051Y0057255D02*
D03*
Y0059795D02*
D03*
X0029591Y0057255D02*
D03*
Y0059795D02*
D03*
X0032131Y0057255D02*
D03*
Y0059795D02*
D03*
X0034671Y0057255D02*
D03*
Y0059795D02*
D03*
X0037211Y0057255D02*
D03*
Y0059795D02*
D03*
X0039751Y0057255D02*
D03*
Y0059795D02*
D03*
X0042291Y0057255D02*
D03*
Y0059795D02*
D03*
X0044831Y0057255D02*
D03*
Y0059795D02*
D03*
X0047371Y0057255D02*
D03*
Y0059795D02*
D03*
X0049911Y0057255D02*
D03*
Y0059795D02*
D03*
X0052451Y0057255D02*
D03*
Y0059795D02*
D03*
X0054991Y0057255D02*
D03*
X0099187Y0023368D02*
D03*
Y0025908D02*
D03*
Y0028448D02*
D03*
Y0030988D02*
D03*
Y0033528D02*
D03*
Y0036068D02*
D03*
Y0038608D02*
D03*
Y0041148D02*
D03*
Y0043688D02*
D03*
Y0046228D02*
D03*
Y0048768D02*
D03*
Y0051308D02*
D03*
Y0053848D02*
D03*
Y0056388D02*
D03*
Y0058928D02*
D03*
Y0061468D02*
D03*
Y0064008D02*
D03*
Y0066548D02*
D03*
Y0069088D02*
D03*
X00792462Y00862347D02*
D03*
X00817862D02*
D03*
X00843262D02*
D03*
X0018415Y0025632D02*
D03*
X0015875D02*
D03*
X0018415Y0028172D02*
D03*
X0015875D02*
D03*
X0018415Y0030712D02*
D03*
X0015875D02*
D03*
X0018415Y0033252D02*
D03*
X0015875D02*
D03*
X0018415Y0035792D02*
D03*
X0015875D02*
D03*
X0018415Y0038332D02*
D03*
X0015875D02*
D03*
X0018415Y0040872D02*
D03*
X0015875D02*
D03*
X0018415Y0043412D02*
D03*
X0015875D02*
D03*
X0018415Y0045952D02*
D03*
X0015875D02*
D03*
X0018415Y0048492D02*
D03*
X0015875D02*
D03*
X0018415Y0051032D02*
D03*
X0015875D02*
D03*
X0018415Y0053572D02*
D03*
X0027051Y002233D02*
D03*
X0029591Y001979D02*
D03*
Y002233D02*
D03*
X0032131Y001979D02*
D03*
Y002233D02*
D03*
X0034671Y001979D02*
D03*
Y002233D02*
D03*
X0037211Y001979D02*
D03*
Y002233D02*
D03*
X0039751Y001979D02*
D03*
Y002233D02*
D03*
X0042291Y001979D02*
D03*
Y002233D02*
D03*
X0044831Y001979D02*
D03*
Y002233D02*
D03*
X0047371Y001979D02*
D03*
Y002233D02*
D03*
X0049911Y001979D02*
D03*
Y002233D02*
D03*
X0052451Y001979D02*
D03*
Y002233D02*
D03*
X0054991Y001979D02*
D03*
Y002233D02*
D03*
D80*
Y0059795D02*
D03*
X00767063Y00862347D02*
D03*
X0027051Y001979D02*
D03*
D81*
X003302Y0080899D02*
D03*
D82*
X004064D02*
D03*
D83*
X0095631Y0023622D02*
D03*
Y0026162D02*
D03*
Y0028702D02*
D03*
Y0031242D02*
D03*
Y0033782D02*
D03*
Y0036322D02*
D03*
Y0038862D02*
D03*
Y0041402D02*
D03*
Y0043942D02*
D03*
Y0046482D02*
D03*
Y0049022D02*
D03*
Y0051562D02*
D03*
Y0054102D02*
D03*
Y0056642D02*
D03*
Y0059182D02*
D03*
Y0061722D02*
D03*
Y0064262D02*
D03*
Y0066802D02*
D03*
Y0069342D02*
D03*
X0070231Y0026162D02*
D03*
Y0028702D02*
D03*
Y0031242D02*
D03*
Y0033782D02*
D03*
Y0036322D02*
D03*
Y0038862D02*
D03*
Y0041402D02*
D03*
Y0043942D02*
D03*
Y0046482D02*
D03*
Y0049022D02*
D03*
Y0051562D02*
D03*
Y0054102D02*
D03*
Y0056642D02*
D03*
Y0059182D02*
D03*
Y0061722D02*
D03*
Y0064262D02*
D03*
Y0023622D02*
D03*
Y0066802D02*
D03*
D84*
Y0069342D02*
D03*
D85*
X0090889Y0011778D02*
D03*
Y0091778D02*
D03*
X0010889Y0011778D02*
D03*
Y0091778D02*
D03*
D86*
X008382Y0093345D02*
D03*
X008132D02*
D03*
X007882D02*
D03*
D87*
X007632D02*
D03*
D88*
X0052705Y0011281D02*
D03*
X0050165D02*
D03*
X0047625D02*
D03*
X0045085D02*
D03*
X0042545D02*
D03*
X0040005D02*
D03*
X0037465D02*
D03*
X0034925D02*
D03*
X0032385D02*
D03*
X0029845D02*
D03*
Y0013821D02*
D03*
D03*
D03*
X0052705D02*
D03*
X0050165D02*
D03*
X0047625D02*
D03*
X0045085D02*
D03*
X0042545D02*
D03*
X0040005D02*
D03*
X0037465D02*
D03*
X0034925D02*
D03*
X0032385D02*
D03*
X0029845D02*
D03*
D03*
X0005715Y002794D02*
D03*
D03*
Y003048D02*
D03*
Y003302D02*
D03*
Y003556D02*
D03*
Y00381D02*
D03*
Y004064D02*
D03*
Y004318D02*
D03*
Y004572D02*
D03*
Y004826D02*
D03*
Y00508D02*
D03*
Y002794D02*
D03*
D03*
D03*
X0008255D02*
D03*
Y003048D02*
D03*
Y003302D02*
D03*
Y003556D02*
D03*
Y00381D02*
D03*
Y004064D02*
D03*
Y004318D02*
D03*
Y004572D02*
D03*
Y004826D02*
D03*
Y00508D02*
D03*
D89*
X00062391Y0083185D02*
D03*
Y0078105D02*
D03*
D90*
X00208528Y0087884D02*
D03*
X00303529D02*
D03*
D91*
X0024511Y0062611D02*
D03*
X0004445Y0049414D02*
D03*
X0004318Y0057404D02*
D03*
X0057531Y0017653D02*
D03*
X0048895Y0010033D02*
D03*
X0052197Y0089386D02*
D03*
X0051689Y006223D02*
D03*
X0051816Y0077343D02*
D03*
X0045847Y007874D02*
D03*
X00511637Y00814251D02*
D03*
X0077343Y0023622D02*
D03*
X0079883Y0028807D02*
D03*
X0086995Y0028934D02*
D03*
X00593635Y00125185D02*
D03*
X00501713Y0016824D02*
D03*
X00151701Y00224397D02*
D03*
X0019558Y0024235D02*
D03*
X0022733Y0022965D02*
D03*
X0012319Y00381D02*
D03*
X0034798Y0038205D02*
D03*
X00348065Y00355295D02*
D03*
X0003937Y0046863D02*
D03*
X0010414Y0052324D02*
D03*
X0010795Y0055858D02*
D03*
X0022479Y0052451D02*
D03*
X0034544Y0044047D02*
D03*
X0037592Y0041783D02*
D03*
X0008128Y0058801D02*
D03*
X0013716Y00744D02*
D03*
X0014224Y0061976D02*
D03*
X002286Y0071628D02*
D03*
X0027686Y0062611D02*
D03*
X00314415Y00681445D02*
D03*
X0035687Y0067564D02*
D03*
X0037338Y0066421D02*
D03*
X0037592Y0078105D02*
D03*
X0053975Y0049911D02*
D03*
X0052832Y0051181D02*
D03*
D92*
X00635Y0025019D02*
D03*
X0059309Y0089535D02*
D03*
X0040767Y0054991D02*
D03*
X004191Y0024384D02*
D03*
X0051181Y0025146D02*
D03*
X0057023Y0040894D02*
D03*
X0031115Y0055372D02*
D03*
X0034417Y0054864D02*
D03*
X0038989Y0044831D02*
D03*
X0033274Y006223D02*
D03*
X0038481Y0061976D02*
D03*
X00436388Y00445278D02*
D03*
X0042291Y0045593D02*
D03*
D93*
X00383794Y00254D02*
D03*
X00392167Y00245373D02*
D03*
X0012573Y0040259D02*
D03*
X0013335Y0033401D02*
D03*
X0040767Y0026797D02*
D03*
X0040894Y002794D02*
D03*
X0049784Y0034014D02*
D03*
X0051435Y003503D02*
D03*
X0052832Y0036046D02*
D03*
X0054356Y0037189D02*
D03*
X005715Y0028045D02*
D03*
Y0030585D02*
D03*
Y0033125D02*
D03*
Y0035665D02*
D03*
X0012573Y00508D02*
D03*
X0013081Y0063373D02*
D03*
X0021209Y0061468D02*
D03*
D94*
X0036576Y0045825D02*
D03*
M02*
