G04*
G04 #@! TF.GenerationSoftware,Altium Limited,Altium Designer,21.3.2 (30)*
G04*
G04 Layer_Physical_Order=2*
G04 Layer_Color=16711680*
%FSTAX44Y44*%
%MOMM*%
G71*
G04*
G04 #@! TF.SameCoordinates,F8E9BDDD-FC12-4FEB-8D7F-7DE70A56B409*
G04*
G04*
G04 #@! TF.FilePolarity,Positive*
G04*
G01*
G75*
%ADD10C,0.2540*%
%ADD20C,0.7620*%
%ADD23R,1.2000X1.4000*%
%ADD69C,0.2540*%
%ADD70C,1.2700*%
%ADD71R,1.5000X1.0000*%
%ADD72O,1.5000X1.0000*%
%ADD73R,1.5000X1.3000*%
%ADD74O,1.5000X1.3000*%
%ADD75O,1.2000X2.2000*%
%ADD76R,1.8600X1.8600*%
%ADD77C,1.8600*%
%ADD78R,1.5000X1.5000*%
%ADD79C,1.5000*%
%ADD80R,1.5000X1.5000*%
%ADD81C,2.0320*%
%ADD82R,2.0320X2.0320*%
%ADD83C,1.5600*%
%ADD84R,1.5600X1.5600*%
%ADD85C,5.0000*%
%ADD86C,2.0000*%
%ADD87R,2.0000X2.0000*%
%ADD88C,1.4000*%
%ADD89C,2.7940*%
%ADD90O,3.2000X2.2000*%
%ADD91C,1.2700*%
%ADD92C,1.0160*%
%ADD93C,0.7620*%
%ADD94C,1.2000*%
G36*
X01006692Y00634694D02*
X01005518Y00634208D01*
X0100318Y00636546D01*
Y00644765D01*
X00996555Y0065139D01*
X00987185D01*
X00982644Y00646849D01*
X0096792D01*
Y00647429D01*
X00961119Y0065423D01*
X00951501D01*
X009447Y00647429D01*
Y00641933D01*
X00943527Y00641447D01*
X00927436Y00657538D01*
X00923548Y00659149D01*
X00711517D01*
X00711031Y00660322D01*
X0071392Y00663211D01*
Y00672829D01*
X00707119Y0067963D01*
X00697501D01*
X006907Y00672829D01*
Y00663211D01*
X00693589Y00660322D01*
X00693103Y00659149D01*
X00676803D01*
X00676317Y00660322D01*
X0067679Y00660795D01*
Y00670165D01*
X00670165Y0067679D01*
X00660795D01*
X0065417Y00670165D01*
Y00660795D01*
X00654643Y00660322D01*
X00654157Y00659149D01*
X00619897D01*
X00594438Y00684608D01*
X0059055Y00686218D01*
X00363438D01*
X00361474Y00685405D01*
X00361078Y006858D01*
X00352662D01*
X0034671Y00679848D01*
Y00671432D01*
X00352662Y0066548D01*
X00361078D01*
X00362047Y00666448D01*
X0036322Y00665962D01*
Y00660002D01*
X0036758Y00655642D01*
X00367094Y00654469D01*
X0026797D01*
X00264082Y00652858D01*
X00247494Y0063627D01*
X00240902D01*
X0023497Y00630339D01*
X00173728D01*
X00161368Y00642698D01*
X0015748Y00644308D01*
X00136506D01*
X00132618Y00642698D01*
X0013127Y0064135D01*
X00127654D01*
X0012319Y00636886D01*
Y00630574D01*
X00127654Y0062611D01*
X00132425D01*
X00132952Y0062484D01*
X0013208Y00623968D01*
Y00615552D01*
X00138032Y006096D01*
X00143008D01*
X00143957Y00608652D01*
X00143471Y00607478D01*
X0006731D01*
X00063422Y00605868D01*
X00052329Y00594775D01*
X00050718Y00590887D01*
Y00589355D01*
X00045564Y005842D01*
X00038972D01*
X0003302Y00578248D01*
Y00569832D01*
X00038972Y0056388D01*
X00047388D01*
X0005334Y00569832D01*
Y00576424D01*
X00060105Y00583189D01*
X00061716Y00587077D01*
Y0058861D01*
X00069588Y00596482D01*
X00073724D01*
X0007421Y00595308D01*
X0007112Y00592218D01*
Y00583802D01*
X00077072Y0057785D01*
X00085488D01*
X0009142Y00583782D01*
X00206002D01*
X00272972Y00516812D01*
X0027686Y00515201D01*
X0034566D01*
X00349548Y00516812D01*
X00393976Y0056124D01*
X00402195D01*
X00403538Y00562584D01*
X00404711Y00562098D01*
Y005588D01*
X00403988D01*
X0039878Y00553592D01*
Y00546228D01*
X00403988Y0054102D01*
X00411352D01*
X0041656Y00546228D01*
Y00553592D01*
X00415689Y00554464D01*
X00415709Y00554512D01*
Y00562098D01*
X00416882Y00562584D01*
X00418225Y0056124D01*
X00427595D01*
X0043422Y00567865D01*
Y00577235D01*
X00427595Y0058386D01*
X00418225D01*
X00416882Y00582517D01*
X00415709Y00583003D01*
Y0058525D01*
X00414216Y00588853D01*
X00415293Y00589573D01*
X00418225Y0058664D01*
X00427595D01*
X0043422Y00593265D01*
Y00602635D01*
X00427595Y0060926D01*
X00418225D01*
X004116Y00602635D01*
Y00593432D01*
X00410584Y00592652D01*
X0040882Y00594416D01*
Y00602635D01*
X00402195Y0060926D01*
X00392825D01*
X00391482Y00607917D01*
X00390308Y00608403D01*
Y00612686D01*
X003937Y00616078D01*
Y00623442D01*
X00390084Y00627058D01*
X0039057Y00628232D01*
X00435653D01*
X00453608Y00610276D01*
X00452828Y0060926D01*
X00443625D01*
X00437Y00602635D01*
Y00593265D01*
X00443625Y0058664D01*
X00452995D01*
X0045962Y00593265D01*
Y00602468D01*
X00460636Y00603248D01*
X004624Y00601484D01*
Y00593265D01*
X00469025Y0058664D01*
X00478228D01*
X00479008Y00585624D01*
X00477244Y0058386D01*
X00469025D01*
X004624Y00577235D01*
Y00567865D01*
X00469025Y0056124D01*
X00478395D01*
X0048502Y00567865D01*
Y00576084D01*
X00486784Y00577848D01*
X004878Y00577068D01*
Y00567865D01*
X00494425Y0056124D01*
X00503795D01*
X0051042Y00567865D01*
Y00577235D01*
X00503795Y0058386D01*
X00494425D01*
X00491493Y00580928D01*
X00490416Y00581647D01*
X00491908Y0058525D01*
Y00587497D01*
X00493082Y00587984D01*
X00494425Y0058664D01*
X00503795D01*
X0051042Y00593265D01*
Y00602635D01*
X00503795Y0060926D01*
X00502326D01*
Y00611882D01*
X00500716Y0061577D01*
X00463628Y00652858D01*
X0045974Y00654469D01*
X00379666D01*
X0037918Y00655642D01*
X0038098Y00657441D01*
X00580653D01*
X00623592Y00614502D01*
X0062748Y00612892D01*
X00639172D01*
X00646184Y0060588D01*
X00646352Y00605474D01*
X00655004Y00596822D01*
X00655379Y00596667D01*
X00655627Y00595421D01*
X0065417Y00593965D01*
Y00584595D01*
X00660795Y0057797D01*
X00670165D01*
X00675318Y00583123D01*
X00676491Y00582637D01*
Y00570523D01*
X00675318Y00570037D01*
X00670165Y0057519D01*
X00660795D01*
X0065417Y00568565D01*
Y00559195D01*
X00660795Y0055257D01*
X00670165D01*
X0067679Y00559195D01*
Y00561174D01*
X00678036Y00561422D01*
X00678102Y00561262D01*
X00689938Y00549426D01*
X00689938Y00549426D01*
X00689938Y00549426D01*
X00690682Y00548682D01*
X00691442Y00548367D01*
X0069174Y00546869D01*
X006907Y00545829D01*
Y00536211D01*
X00697501Y0052941D01*
X00707119D01*
X0071392Y00536211D01*
Y00545829D01*
X00713851Y00545898D01*
X00714337Y00547071D01*
X00944283D01*
X00944769Y00545898D01*
X009447Y00545829D01*
Y00536211D01*
X00951501Y0052941D01*
X00961119D01*
X0096792Y00536211D01*
Y00545829D01*
X00967851Y00545898D01*
X00968337Y00547071D01*
X00982807D01*
X00983293Y00545898D01*
X0098056Y00543165D01*
Y00533795D01*
X00987185Y0052717D01*
X00996555D01*
X0100318Y00533795D01*
Y00543165D01*
X01000447Y00545898D01*
X01000933Y00547071D01*
X01001692D01*
X01005422Y00548616D01*
X01006692Y00548134D01*
Y00019468D01*
X00009309D01*
X00009309Y00293939D01*
X00010554Y00294187D01*
X00010678Y00293888D01*
X00030998Y00273568D01*
X0003683Y00271152D01*
X0005011D01*
X00052672Y0026859D01*
X00060184D01*
X00195502Y00133272D01*
X0019939Y00131662D01*
X00289711D01*
X00293972Y001274D01*
X00302928D01*
X00303735Y00128208D01*
X00305087Y00127763D01*
X00305158Y00127294D01*
X00301484Y0012362D01*
X00293972D01*
X0028764Y00117288D01*
Y00108333D01*
X00293972Y00102D01*
X00302928D01*
X0030926Y00108333D01*
Y00115844D01*
X00315038Y00121622D01*
X00316649Y0012551D01*
Y00130261D01*
X00317822Y00130747D01*
X00319898Y0012867D01*
X0032258D01*
Y0013821D01*
Y0014775D01*
X00319898D01*
X00317822Y00145674D01*
X00316649Y0014616D01*
Y0018266D01*
X00315156Y00186263D01*
X00316233Y00186983D01*
X00316625Y0018659D01*
X00325995D01*
X00326068Y00186663D01*
X00327242Y00186178D01*
Y0014775D01*
X0032512D01*
Y0013821D01*
Y0012867D01*
X00327242D01*
Y00123978D01*
X00326884Y0012362D01*
X00319372D01*
X0031304Y00117288D01*
Y00108333D01*
X00319372Y00102D01*
X00328328D01*
X0033466Y00108333D01*
Y00115844D01*
X00336628Y00117812D01*
X00338238Y001217D01*
Y00128857D01*
X00339553Y00130824D01*
X00341119Y00131053D01*
X00344772Y001274D01*
X00353728D01*
X0036006Y00133733D01*
Y00142688D01*
X00353728Y0014902D01*
X00344772D01*
X00341119Y00145367D01*
X00339553Y00145597D01*
X00338238Y00147563D01*
Y00188581D01*
X00339509Y00189107D01*
X00342025Y0018659D01*
X00351395D01*
X0035802Y00193215D01*
Y00202585D01*
X00351395Y0020921D01*
X00342025D01*
X00340568Y00207753D01*
X00339352Y00208121D01*
X00338375Y00213034D01*
X0033835Y00213162D01*
X00337739Y00214075D01*
X00336995Y00214998D01*
X00336895Y0021524D01*
X00337754Y0021604D01*
X00337887Y00216129D01*
X00342025Y0021199D01*
X00351395D01*
X0035802Y00218615D01*
Y00227985D01*
X00351395Y0023461D01*
X00342025D01*
X003354Y00227985D01*
Y00218782D01*
X00334384Y00218002D01*
X0033262Y00219766D01*
Y00227985D01*
X00325995Y0023461D01*
X00316625D01*
X0031Y00227985D01*
Y00218615D01*
X00316625Y0021199D01*
X00324844D01*
X00326608Y00210226D01*
X00325828Y0020921D01*
X00316625D01*
X0031Y00202585D01*
Y00193382D01*
X00308984Y00192602D01*
X0030722Y00194366D01*
Y00202585D01*
X00300595Y0020921D01*
X00291225D01*
X002846Y00202585D01*
Y00193215D01*
X00291225Y0018659D01*
X00299444D01*
X00305651Y00180383D01*
Y00147956D01*
X00304478Y0014747D01*
X00302928Y0014902D01*
X00293972D01*
X0028764Y00142688D01*
Y00142659D01*
X00201668D01*
X0006796Y00276366D01*
Y00283878D01*
X00061628Y0029021D01*
X00052672D01*
X0005011Y00287648D01*
X00040246D01*
X00024758Y00303136D01*
Y00312267D01*
X00025814Y00312972D01*
X00028158Y00312001D01*
X00049201D01*
X00049686Y00310828D01*
X0004761Y00308752D01*
Y0030607D01*
X0005715D01*
X0006669D01*
Y00308752D01*
X00064613Y00310828D01*
X000651Y00312001D01*
X00072804D01*
X00073291Y00310828D01*
X0007174Y00309278D01*
Y00300322D01*
X00078072Y0029399D01*
X00087028D01*
X0009336Y00300322D01*
Y00303605D01*
X00094533Y00304091D01*
X0014507Y00253554D01*
X0014744Y00252572D01*
Y00251635D01*
X00154065Y0024501D01*
X00163435D01*
X0017006Y00251635D01*
Y00261005D01*
X00168497Y00262568D01*
X00168983Y00263741D01*
X00173917D01*
X00174403Y00262568D01*
X0017284Y00261005D01*
Y00251635D01*
X00179465Y0024501D01*
X0018669D01*
Y0024362D01*
X0019558D01*
Y0024235D01*
X0019685D01*
Y0023346D01*
X00199262D01*
X0020447Y00238668D01*
Y00243075D01*
X00205643Y00243561D01*
X0021717Y00232034D01*
Y00225442D01*
X00223122Y0021949D01*
X00231538D01*
X0023749Y00225442D01*
Y00233859D01*
X00231538Y0023981D01*
X00224946D01*
X00199938Y00264818D01*
X00199607Y00265149D01*
X00199607Y00265149D01*
X00199607Y00265149D01*
X00199607Y00265149D01*
X00199445Y00265216D01*
X00196882Y00269052D01*
X00193046Y00271616D01*
X00192979Y00271777D01*
X00192979Y00271777D01*
X00192979Y00271777D01*
X00192648Y00272108D01*
X00192372Y00272384D01*
X00191982Y00273557D01*
X0019546Y00277035D01*
Y00286405D01*
X00188835Y0029303D01*
X00179465D01*
X00178246Y0029181D01*
X00172272Y00297784D01*
X00171528Y00298528D01*
X00171528Y00298528D01*
X00171528Y00298528D01*
X00168783Y00299665D01*
X00168535Y00300911D01*
X0017006Y00302435D01*
Y00311805D01*
X00163435Y0031843D01*
X00154065D01*
X0014744Y00311805D01*
Y00307765D01*
X00146267Y00307279D01*
X00112179Y00341367D01*
Y00375847D01*
X00113449Y00376373D01*
X00118982Y0037084D01*
X00127398D01*
X00128269Y00371711D01*
X00130406Y00370826D01*
X00137754D01*
X00140514Y00366696D01*
X00140445Y00366576D01*
X00140445Y00366576D01*
X00140568Y00366278D01*
X00141487Y00365897D01*
X00146337Y00363889D01*
Y00363889D01*
X0014679Y00363751D01*
X0014744Y00362605D01*
Y00353235D01*
X00148563Y00352112D01*
X00148077Y00350938D01*
X0014478D01*
X00140892Y00349328D01*
X00133194Y0034163D01*
X00130194D01*
X0012573Y00337166D01*
Y00330854D01*
X00130194Y0032639D01*
X00136506D01*
X0014097Y00330854D01*
Y00333854D01*
X00147058Y00339941D01*
X00148517D01*
X00149003Y00338768D01*
X0014744Y00337205D01*
Y00327835D01*
X00154065Y0032121D01*
X00163435D01*
X0017006Y00327835D01*
Y00337205D01*
X00168497Y00338768D01*
X00168983Y00339941D01*
X00173917D01*
X00174403Y00338768D01*
X0017284Y00337205D01*
Y00327835D01*
X00179465Y0032121D01*
X00188835D01*
X0019546Y00327835D01*
Y00337205D01*
X00193897Y00338768D01*
X00194383Y00339941D01*
X00207182D01*
X0020735Y00339774D01*
X00211238Y00338163D01*
X0021286D01*
X00309802Y00241222D01*
X0031369Y00239611D01*
X00386891D01*
X00387605Y00238529D01*
X0038024Y00231164D01*
X00376795Y0023461D01*
X00367425D01*
X003608Y00227985D01*
Y00218615D01*
X00367425Y0021199D01*
X00376795D01*
X00377292Y00212488D01*
X00378466Y00212002D01*
Y00209199D01*
X00377292Y00208713D01*
X00376795Y0020921D01*
X00367425D01*
X003608Y00202585D01*
Y00193215D01*
X00367425Y0018659D01*
X00376795D01*
X00377292Y00187088D01*
X00378466Y00186602D01*
Y00154296D01*
X00380076Y00150408D01*
X0038924Y00141244D01*
Y00133733D01*
X00395572Y001274D01*
X00404528D01*
X0041086Y00133733D01*
Y00142688D01*
X00404528Y0014902D01*
X00397016D01*
X00389463Y00156574D01*
Y00188293D01*
X00390636Y00188779D01*
X00392825Y0018659D01*
X00402195D01*
X0040882Y00193215D01*
Y00202418D01*
X00409836Y00203198D01*
X004116Y00201434D01*
Y00193215D01*
X00418225Y0018659D01*
X00427595D01*
X00430208Y00189203D01*
X00431381Y00188717D01*
Y00149226D01*
X00430208Y0014874D01*
X00429928Y0014902D01*
X00420972D01*
X0041464Y00142688D01*
Y00133733D01*
X0041619Y00132182D01*
X00415704Y00131009D01*
X0041275D01*
X00408862Y00129398D01*
X00403084Y0012362D01*
X00395572D01*
X0038924Y00117288D01*
Y00108333D01*
X00395572Y00102D01*
X00404528D01*
X0041086Y00108333D01*
Y00115844D01*
X00414534Y00119518D01*
X00415003Y00119447D01*
X00415447Y00118095D01*
X0041464Y00117288D01*
Y00108333D01*
X00420972Y00102D01*
X00429928D01*
X0043626Y00108333D01*
Y00109714D01*
X00438867Y00112321D01*
X0044004Y00111834D01*
Y00108333D01*
X00446372Y00102D01*
X00455328D01*
X0046166Y00108333D01*
Y00117288D01*
X00457966Y00120982D01*
X00458214Y00122227D01*
X00459818Y00122892D01*
X00464278Y00127352D01*
X00465889Y0013124D01*
Y00131625D01*
X00467062Y00132111D01*
X00471772Y001274D01*
X00480728D01*
X00481535Y00128208D01*
X00482887Y00127763D01*
X00482958Y00127294D01*
X00479284Y0012362D01*
X00471772D01*
X0046544Y00117288D01*
Y00108333D01*
X00471772Y00102D01*
X0047879D01*
Y00096122D01*
X00484323Y00090589D01*
X00483797Y00089319D01*
X00405918D01*
X0038546Y00109776D01*
Y00117288D01*
X00379128Y0012362D01*
X00370172D01*
X0036384Y00117288D01*
Y00108333D01*
X00370172Y00102D01*
X00377684D01*
X00396812Y00082872D01*
X00396326Y00081699D01*
X00381788D01*
X00357607Y00105879D01*
X0036006Y00108333D01*
Y00117288D01*
X00353728Y0012362D01*
X00344772D01*
X0033844Y00117288D01*
Y00108333D01*
X00344772Y00102D01*
X00346729D01*
X00347291Y00100643D01*
X00375622Y00072312D01*
X0037951Y00070701D01*
X0057785D01*
X00581738Y00072312D01*
X00650318Y00140892D01*
X00651928Y0014478D01*
Y00352353D01*
X00651928Y00352354D01*
X00651928Y00352354D01*
X00651928Y00352745D01*
X00651793Y00353071D01*
X00651812Y00353115D01*
X00651606Y00353611D01*
X00651675Y00354393D01*
X00651558Y00354765D01*
X00650729Y00355754D01*
X00649722Y00358185D01*
X0064746Y00359122D01*
X00646676Y00359887D01*
X00646232Y00360185D01*
X00646232Y00360185D01*
X00643831Y0036118D01*
X00631062Y00362861D01*
X00630624Y00364149D01*
X00630638Y00364233D01*
X0063107Y00364665D01*
Y00374035D01*
X00624445Y0038066D01*
X00616226D01*
X00614462Y00382424D01*
X00615242Y0038344D01*
X00624445D01*
X0063107Y00390065D01*
Y00399435D01*
X00624445Y0040606D01*
X00617426D01*
X0061694Y00407234D01*
X00618546Y0040884D01*
X00624445D01*
X0063107Y00415465D01*
Y00424835D01*
X00624445Y0043146D01*
X00615075D01*
X0060845Y00424835D01*
Y00415465D01*
X00609035Y00414881D01*
X00607322Y00413168D01*
X00605033D01*
X00604547Y00414342D01*
X0060567Y00415465D01*
Y00424835D01*
X00599045Y0043146D01*
X00589675D01*
X0058305Y00424835D01*
Y00415465D01*
X00584174Y00414342D01*
X00583688Y00413168D01*
X00578574D01*
X00573912Y0041783D01*
X00566548D01*
X0056134Y00412622D01*
Y00405258D01*
X00566548Y0040005D01*
X00573912D01*
X00576034Y00402172D01*
X00584127D01*
X00584613Y00400998D01*
X0058305Y00399435D01*
Y00390065D01*
X00584452Y00388663D01*
X00584274Y00387319D01*
X00583496Y00386804D01*
X00583496D01*
X00582363Y00386335D01*
X0058116Y00385836D01*
X0057989Y0038531D01*
X0057989Y0038531D01*
X00579589Y00384165D01*
X00577772Y00382348D01*
X00576161Y0037846D01*
X00577772Y00374572D01*
X0058166Y00372961D01*
X00581994Y003731D01*
X0058305Y00372394D01*
Y00364665D01*
X00589675Y0035804D01*
X00598339D01*
X00599883Y00357008D01*
X00600075Y00356853D01*
X00600232Y00356476D01*
X00601432Y00355979D01*
X00602486Y0035528D01*
X0060655Y00352565D01*
X00610092Y0035186D01*
X0061046Y00350645D01*
X0060845Y00348635D01*
Y00339265D01*
X00615075Y0033264D01*
X00624445D01*
X0063107Y00339265D01*
Y00348635D01*
X00629473Y00350232D01*
X00629458Y003503D01*
X00630033Y00351468D01*
X00640715Y00350061D01*
X00640931Y00349539D01*
Y0025849D01*
X00639758Y00258004D01*
X00638682Y0025908D01*
X00631318D01*
X0063107Y00259183D01*
Y0027906D01*
X0060845D01*
Y0025644D01*
X00627018D01*
X00627505Y00255267D01*
X0062611Y00253872D01*
Y00246508D01*
X00629501Y00243116D01*
Y00150868D01*
X00604968Y00126334D01*
X00603795Y0012682D01*
Y00129394D01*
X00597843Y00135345D01*
X00589426D01*
X00583475Y00129394D01*
Y00122801D01*
X00571822Y00111149D01*
X00570648Y00111635D01*
Y00164092D01*
X00572926Y0016637D01*
X00579518D01*
X0058547Y00172322D01*
Y00180738D01*
X00579518Y0018669D01*
X00571102D01*
X0056515Y00180738D01*
Y00174146D01*
X00561262Y00170258D01*
X00559651Y0016637D01*
Y0010376D01*
X00534947D01*
X00534461Y00104933D01*
X0053786Y00108333D01*
Y00117288D01*
X00531528Y0012362D01*
X00522572D01*
X0051624Y00117288D01*
Y00108333D01*
X00519951Y00104622D01*
X00519481Y00103442D01*
X00508959Y00103163D01*
X00508458Y0010433D01*
X0051246Y00108333D01*
Y00117288D01*
X00506128Y0012362D01*
X00497172D01*
X0049084Y00117288D01*
Y0011049D01*
X0048706D01*
Y00115844D01*
X00492838Y00121622D01*
X00494449Y0012551D01*
Y00128465D01*
X00495622Y00128951D01*
X00497172Y001274D01*
X00506128D01*
X0051246Y00133733D01*
Y00142688D01*
X00506128Y0014902D01*
X00497172D01*
X00495622Y0014747D01*
X00494449Y00147956D01*
Y00153713D01*
X00498816Y0015808D01*
X00505921D01*
X00511873Y00164032D01*
Y00172449D01*
X00507833Y00176489D01*
X00508078Y00177722D01*
X00518386Y0018803D01*
X00519825Y0018659D01*
X00529195D01*
X0053582Y00193215D01*
Y00202585D01*
X00529195Y0020921D01*
X00520976D01*
X00519212Y00210974D01*
X00519992Y0021199D01*
X00529195D01*
X0053582Y00218615D01*
Y00227985D01*
X00529195Y0023461D01*
X00519825D01*
X00518482Y00233267D01*
X00517309Y00233753D01*
Y00244386D01*
X005207Y00247778D01*
Y00255142D01*
X00515492Y0026035D01*
X00508128D01*
X0050292Y00255142D01*
Y00247778D01*
X00506311Y00244386D01*
Y00233753D01*
X00505138Y00233267D01*
X00503795Y0023461D01*
X00502224D01*
Y00234794D01*
X00500614Y00238682D01*
X00456008Y00283288D01*
X0045212Y00284898D01*
X00414218D01*
X00412096Y0028702D01*
X00405784D01*
X00405549Y00287117D01*
Y00393962D01*
X00440768Y00429182D01*
X00442379Y0043307D01*
Y00438696D01*
X00445278Y00441596D01*
Y0044896D01*
X0044007Y00454168D01*
X00432706D01*
X004318Y00454543D01*
Y00459612D01*
X00426592Y0046482D01*
X00419228D01*
X0041402Y00459612D01*
Y00452248D01*
X00418681Y00447586D01*
Y00430268D01*
X00410532Y00422118D01*
X00409358Y00422604D01*
Y0043434D01*
X00407748Y00438228D01*
X0039878Y00447196D01*
Y00451992D01*
X00393572Y004572D01*
X00386208D01*
X00381Y00451992D01*
Y00444628D01*
X00386208Y0043942D01*
X00391004D01*
X00398362Y00432062D01*
Y00417567D01*
X00384732Y00403937D01*
X00383121Y00400049D01*
Y0026162D01*
X00380638D01*
X00378516Y00259499D01*
X00316083D01*
X00221682Y003539D01*
X00217794Y0035551D01*
X00216146D01*
X00198198Y00373458D01*
X0019431Y00375069D01*
X00193552D01*
X00193067Y00376242D01*
X0019546Y00378635D01*
Y00388005D01*
X00188835Y0039463D01*
X00179465D01*
X0017284Y00388005D01*
Y00378635D01*
X00175233Y00376242D01*
X00174748Y00375069D01*
X00168153D01*
X00167666Y00376242D01*
X0017006Y00378635D01*
Y00388005D01*
X00163435Y0039463D01*
X00154065D01*
X0014744Y00388005D01*
Y00379168D01*
X0014641Y00378445D01*
X00145187Y00378727D01*
X00145089Y00378761D01*
X00144741Y00379593D01*
X0014474Y00379595D01*
X00144733Y00379615D01*
X00144733Y00379616D01*
X00144732Y00379617D01*
X00144732Y00379617D01*
X00144731Y00379616D01*
X0014384Y00380213D01*
X00143655Y00380289D01*
X00141839Y00381041D01*
X00139952Y00381823D01*
X0013335D01*
Y00385208D01*
X00127398Y0039116D01*
X00118982D01*
X00113449Y00385627D01*
X00112179Y00386153D01*
Y00396108D01*
X00111398Y00397993D01*
X00110665Y00399897D01*
X00109966Y00400632D01*
X00109966Y00400632D01*
X00103728Y00407194D01*
X00103558Y0040741D01*
X00103006Y00408189D01*
X0010333Y00407699D01*
X00102884Y00408361D01*
X00102882Y00408364D01*
X00103006Y00408189D01*
X00102869Y00408397D01*
X00102868Y00408398D01*
X00102868Y00408399D01*
X00102862Y00408393D01*
X00101976Y00408994D01*
X00101802Y00409066D01*
X00099975Y00409823D01*
X00098088Y00410605D01*
X0009336D01*
Y00410878D01*
X0009181Y00412428D01*
X00092296Y00413601D01*
X00101382D01*
X0010527Y00415212D01*
X00106758Y004167D01*
X00108369Y00420588D01*
Y0043688D01*
X00106758Y00440768D01*
X0009336Y00454166D01*
Y00461678D01*
X00087028Y0046801D01*
X00078072D01*
X00076184Y00466121D01*
X00075128Y00466827D01*
X00075349Y0046736D01*
Y00472854D01*
X00076522Y0047334D01*
X00078072Y0047179D01*
X00087028D01*
X0009336Y00478122D01*
Y00487078D01*
X00087028Y0049341D01*
X00078072D01*
X00076522Y0049186D01*
X00075349Y00492346D01*
Y00498255D01*
X00076522Y00498741D01*
X00078072Y0049719D01*
X00087028D01*
X0009336Y00503522D01*
Y00512478D01*
X00087028Y0051881D01*
X00078072D01*
X00076522Y00517259D01*
X00075349Y00517746D01*
Y00537472D01*
X00083898Y00546022D01*
X00083898Y00546022D01*
X00096617Y00558741D01*
X0009779Y00558255D01*
Y00554372D01*
X00103742Y0054842D01*
X00112158D01*
X0011682Y00553082D01*
X00162822D01*
X00167701Y00548204D01*
X00167215Y0054703D01*
X0014744D01*
Y00545029D01*
X0013923D01*
X00135342Y00543418D01*
X00120662Y00528739D01*
X0011301D01*
X00108348Y005334D01*
X00099932D01*
X0009398Y00527448D01*
Y00519032D01*
X00099932Y0051308D01*
X00108348D01*
X0011301Y00517742D01*
X0012294D01*
X00126827Y00519352D01*
X00141507Y00534032D01*
X0014744D01*
Y0052441D01*
X0017006D01*
Y00544185D01*
X00171233Y00544671D01*
X0017417Y00541735D01*
X0017284Y00540405D01*
Y00531035D01*
X00179465Y0052441D01*
X00188835D01*
X0019546Y00531035D01*
Y00540405D01*
X00188835Y0054703D01*
X00184426D01*
X00168988Y00562468D01*
X001651Y00564079D01*
X0011682D01*
X001148Y00566098D01*
X00115286Y00567271D01*
X00193083D01*
X00219291Y00541063D01*
Y0053338D01*
X0021463Y00528718D01*
Y00520302D01*
X00220582Y0051435D01*
X00228998D01*
X0023495Y00520302D01*
Y00528718D01*
X00230289Y0053338D01*
Y0054334D01*
X00228678Y00547228D01*
X00199248Y00576658D01*
X0019536Y00578269D01*
X0010287D01*
X00098982Y00576658D01*
X00076122Y00553798D01*
X00076122Y00553798D01*
X00065962Y00543638D01*
X00064352Y0053975D01*
Y00517746D01*
X00063178Y00517259D01*
X00061628Y0051881D01*
X00052672D01*
X0004634Y00512478D01*
Y005043D01*
X00040242D01*
X0003429Y00498349D01*
Y00494186D01*
X00025931Y00485827D01*
X00024758Y00486313D01*
Y00634124D01*
X00126386Y00735752D01*
X00131039D01*
X00132952Y0073384D01*
X00141368D01*
X0014732Y00739792D01*
Y00748208D01*
X00141368Y0075416D01*
X00132952D01*
X00131039Y00752248D01*
X0012297D01*
X00117138Y00749832D01*
X00010678Y00643372D01*
X00010554Y00643073D01*
X00009309Y00643321D01*
X00009309Y01015582D01*
X01006692D01*
Y00634694D01*
D02*
G37*
G36*
X00167562Y00620952D02*
X0017145Y00619342D01*
X00197019D01*
X00197545Y00618072D01*
X00195842Y00616369D01*
X001524D01*
Y00623968D01*
X00146448Y0062992D01*
X00139429D01*
X0013843Y00630574D01*
X0013843Y00631025D01*
Y00632958D01*
X00138784Y00633312D01*
X00155202D01*
X00167562Y00620952D01*
D02*
G37*
G36*
X00285272Y00642298D02*
X00279244Y0063627D01*
X00272652D01*
X002667Y00630318D01*
Y00621902D01*
X0026852Y00620082D01*
X00268034Y00618909D01*
X0026416D01*
X00260272Y00617298D01*
X00250452Y00607478D01*
X00217324D01*
X00216838Y00608652D01*
X0021971Y00611524D01*
Y00617836D01*
X00219378Y00618168D01*
X00219864Y00619342D01*
X0023751D01*
X00240902Y0061595D01*
X00249318D01*
X0025527Y00621902D01*
Y00628494D01*
X00270248Y00643472D01*
X00284786D01*
X00285272Y00642298D01*
D02*
G37*
G36*
X00324926Y00627058D02*
X0032385Y00625982D01*
Y00618618D01*
X00327242Y00615226D01*
Y00609673D01*
X00326068Y00609187D01*
X00325995Y0060926D01*
X00316625D01*
X0031Y00602635D01*
Y00593432D01*
X00308984Y00592652D01*
X0030722Y00594416D01*
Y00602635D01*
X00300595Y0060926D01*
X00292442D01*
X00291916Y0061053D01*
X00309618Y00628232D01*
X0032444D01*
X00324926Y00627058D01*
D02*
G37*
G36*
X00379536D02*
X0037592Y00623442D01*
Y00616078D01*
X00379311Y00612686D01*
Y00608403D01*
X00378138Y00607917D01*
X00376795Y0060926D01*
X00367425D01*
X003608Y00602635D01*
Y00593265D01*
X00367425Y0058664D01*
X00376628D01*
X00377408Y00585624D01*
X00375644Y0058386D01*
X00367425D01*
X003608Y00577235D01*
Y00567865D01*
X00367425Y0056124D01*
X00376628D01*
X00377408Y00560224D01*
X00343382Y00526199D01*
X00279138D01*
X00212168Y00593168D01*
X0020828Y00594779D01*
X0008948D01*
X00089155Y00595211D01*
X0008979Y00596482D01*
X0025273D01*
X00256618Y00598092D01*
X00258027Y00599501D01*
X002592Y00599015D01*
Y00593265D01*
X00265825Y0058664D01*
X00275195D01*
X0028182Y00593265D01*
Y00602635D01*
X00277717Y00606738D01*
X00278203Y00607911D01*
X0028702D01*
X0028883Y00608661D01*
X0028955Y00607585D01*
X002846Y00602635D01*
Y00593265D01*
X00291225Y0058664D01*
X00299444D01*
X00301208Y00584876D01*
X00300428Y0058386D01*
X00291225D01*
X002846Y00577235D01*
Y00567865D01*
X00291225Y0056124D01*
X00300595D01*
X00301938Y00562584D01*
X00303111Y00562098D01*
Y00558322D01*
X00303131Y00558274D01*
X0030226Y00557402D01*
Y00550038D01*
X00307468Y0054483D01*
X00314832D01*
X0032004Y00550038D01*
Y00557402D01*
X00317472Y0055997D01*
X00317998Y0056124D01*
X00325995D01*
X00326068Y00561314D01*
X00327242Y00560827D01*
Y0056007D01*
X00328852Y00556182D01*
X0033528Y00549754D01*
Y00544958D01*
X00340488Y0053975D01*
X00347852D01*
X0035306Y00544958D01*
Y00552322D01*
X00347852Y0055753D01*
X00343056D01*
X00338392Y00562194D01*
X00338487Y00563021D01*
X00339756Y00563509D01*
X00342025Y0056124D01*
X00351395D01*
X0035802Y00567865D01*
Y00577235D01*
X00351395Y0058386D01*
X00342025D01*
X00339412Y00581247D01*
X00338238Y00581733D01*
Y00588768D01*
X00339412Y00589254D01*
X00342025Y0058664D01*
X00351395D01*
X0035802Y00593265D01*
Y00602635D01*
X00351395Y0060926D01*
X00342025D01*
X00339412Y00606647D01*
X00338238Y00607133D01*
Y00615226D01*
X0034163Y00618618D01*
Y00625982D01*
X00340554Y00627058D01*
X0034104Y00628232D01*
X0037905D01*
X00379536Y00627058D01*
D02*
G37*
G36*
X00613732Y00649762D02*
X0061762Y00648152D01*
X00655898D01*
X00656384Y00646978D01*
X0065417Y00644765D01*
Y00635395D01*
X00660795Y0062877D01*
X00670165D01*
X0067679Y00635395D01*
Y00644765D01*
X00674576Y00646978D01*
X00675062Y00648152D01*
X00690401D01*
X006907Y00647429D01*
Y00637811D01*
X00697501Y0063101D01*
X00707119D01*
X0071392Y00637811D01*
Y00647429D01*
X00714219Y00648152D01*
X0092127D01*
X009423Y00627122D01*
X00946188Y00625511D01*
X00946523D01*
X00947009Y00624338D01*
X009447Y00622029D01*
Y00612411D01*
X00951501Y0060561D01*
X00961119D01*
X00966148Y00610639D01*
X00967321Y00610153D01*
Y00598887D01*
X00966148Y00598401D01*
X00961119Y0060343D01*
X00951501D01*
X009447Y00596629D01*
Y00587011D01*
X00951501Y0058021D01*
X00961119D01*
X00966148Y00585239D01*
X00967321Y00584753D01*
Y0058293D01*
X00968932Y00579042D01*
X0098056Y00567414D01*
Y00559195D01*
X00980093Y00558069D01*
X00966037D01*
X00965551Y00559242D01*
X0096792Y00561611D01*
Y00571229D01*
X00961119Y0057803D01*
X00951501D01*
X009447Y00571229D01*
Y00561611D01*
X00947069Y00559242D01*
X00946583Y00558069D01*
X00712037D01*
X00711551Y00559242D01*
X0071392Y00561611D01*
Y00571229D01*
X00707119Y0057803D01*
X00697501D01*
X006907Y00571229D01*
Y00565875D01*
X00689527Y00565389D01*
X00687488Y00567428D01*
Y00599222D01*
X00685878Y0060311D01*
X0068439Y00604598D01*
X00680502Y00606208D01*
X00674663D01*
X00674177Y00607382D01*
X0067679Y00609995D01*
Y00619365D01*
X00670165Y0062599D01*
X00660795D01*
X0065417Y00619365D01*
Y00615242D01*
X006529Y00614716D01*
X00645338Y00622278D01*
X0064145Y00623889D01*
X00629757D01*
X00586818Y00666828D01*
X0058293Y00668438D01*
X0038352D01*
X00378007Y00673951D01*
X00378533Y00675221D01*
X00588273D01*
X00613732Y00649762D01*
D02*
G37*
G36*
X0098056Y00635395D02*
X00987185Y0062877D01*
X00995404D01*
X00997168Y00627006D01*
X00996388Y0062599D01*
X00987185D01*
X0098056Y00619365D01*
Y00609995D01*
X00987185Y0060337D01*
X00996555D01*
X00997682Y00602903D01*
Y00601057D01*
X00996555Y0060059D01*
X00987185D01*
X0098056Y00593965D01*
Y00584762D01*
X00979544Y00583982D01*
X00978318Y00585208D01*
Y00622733D01*
X00976708Y00626621D01*
X00968748Y00634581D01*
X00969195Y00635852D01*
X0098056D01*
Y00635395D01*
D02*
G37*
G36*
X0007174Y00459814D02*
Y00452722D01*
X00078072Y0044639D01*
X00085584D01*
X00097372Y00434602D01*
Y00424599D01*
X00092296D01*
X0009181Y00425772D01*
X0009336Y00427322D01*
Y00436278D01*
X00087028Y0044261D01*
X00078072D01*
X0007174Y00436278D01*
Y00427322D01*
X00074572Y0042449D01*
X00074324Y00423245D01*
X00073704Y00422988D01*
X00065962Y00415246D01*
X00065705Y00414626D01*
X0006446Y00414378D01*
X00061628Y0041721D01*
X00052672D01*
X0004634Y00410878D01*
Y00401922D01*
X00052672Y0039559D01*
X00061628D01*
X00063178Y00397141D01*
X00064352Y00396655D01*
Y00395188D01*
X00065962Y003913D01*
X0006745Y00389812D01*
X00071338Y00388201D01*
X00072804D01*
X00073291Y00387028D01*
X0007174Y00385478D01*
Y00376522D01*
X00078072Y0037019D01*
X00087028D01*
X00091118Y0037428D01*
X00092291Y00373794D01*
Y00362806D01*
X00091118Y0036232D01*
X00087028Y0036641D01*
X00078072D01*
X0007174Y00360078D01*
Y00351122D01*
X00078072Y0034479D01*
X00087028D01*
X00091118Y0034888D01*
X00092291Y00348394D01*
Y00337406D01*
X00091118Y0033692D01*
X00087028Y0034101D01*
X00078072D01*
X00074984Y00337922D01*
X00066118Y00346788D01*
X00065412Y00347081D01*
X00065164Y00348326D01*
X0006796Y00351122D01*
Y00360078D01*
X00061628Y0036641D01*
X00052672D01*
X0004634Y00360078D01*
Y00351122D01*
X00047891Y00349572D01*
X00047404Y00348399D01*
X00043598D01*
Y0045849D01*
X00045167Y00460058D01*
X0004634Y00459572D01*
Y00452722D01*
X00052672Y0044639D01*
X00061628D01*
X0006796Y00452722D01*
Y00457694D01*
X00070567Y00460301D01*
X0007174Y00459814D01*
D02*
G37*
G36*
X00034212Y003405D02*
X000357Y00339012D01*
X00039588Y00337402D01*
X00047404D01*
X00047891Y00336228D01*
X0004634Y00334678D01*
Y00325722D01*
X00047891Y00324172D01*
X00047404Y00322999D01*
X00032169D01*
Y00342114D01*
X00033438Y00342367D01*
X00034212Y003405D01*
D02*
G37*
G36*
X00140987Y00280496D02*
X00142115Y0027483D01*
X00144072Y002719D01*
X00143085Y00271091D01*
X00092788Y00321388D01*
X00091184Y00322053D01*
X00090936Y00323298D01*
X0009336Y00325722D01*
Y00326328D01*
X0009463Y00326854D01*
X00140987Y00280496D01*
D02*
G37*
G36*
X00473991Y00235784D02*
X00473504Y0023461D01*
X00469025D01*
X00466945Y00232529D01*
X00465446Y00232827D01*
X00464278Y00235648D01*
X00438628Y00261298D01*
X00439114Y00262472D01*
X00447303D01*
X00473991Y00235784D01*
D02*
G37*
G36*
X00454892Y00186828D02*
Y0014902D01*
X00446372D01*
X00443552Y001462D01*
X00442379Y00146686D01*
Y00186178D01*
X00443552Y00186663D01*
X00443625Y0018659D01*
X00452995D01*
X00453718Y00187313D01*
X00454892Y00186828D01*
D02*
G37*
G36*
X00469025Y0018659D02*
X00478395D01*
X00480267Y00188463D01*
X00482002Y00188402D01*
X00492682Y00177722D01*
X00494556Y00176946D01*
X00494804Y001757D01*
X00491553Y00172449D01*
Y00166369D01*
X00485062Y00159878D01*
X00483451Y0015599D01*
Y00147956D01*
X00482278Y0014747D01*
X00480728Y0014902D01*
X00471772D01*
X00467062Y0014431D01*
X00465889Y00144796D01*
Y00188067D01*
X00467062Y00188554D01*
X00469025Y0018659D01*
D02*
G37*
G36*
X00591362Y00114524D02*
X00591811Y00113177D01*
X00567952Y00089319D01*
X00494103D01*
X00493577Y00090589D01*
X00494775Y00091787D01*
X00531625Y00092763D01*
X00566711D01*
X00570599Y00094373D01*
X00590826Y00114601D01*
X00591362Y00114524D01*
D02*
G37*
%LPC*%
G36*
X0043532Y01006468D02*
X00427812Y01003358D01*
X00427455Y01002497D01*
X00426185D01*
X00425828Y01003358D01*
X0041832Y01006468D01*
X00410812Y01003358D01*
X00410455Y01002497D01*
X00409185D01*
X00408828Y01003358D01*
X0040132Y01006468D01*
X00393812Y01003358D01*
X00390702Y0099585D01*
Y0098585D01*
X00393812Y00978342D01*
X0040132Y00975232D01*
X00408828Y00978342D01*
X00409185Y00979203D01*
X00410455D01*
X00410812Y00978342D01*
X0041832Y00975232D01*
X00425828Y00978342D01*
X00426185Y00979203D01*
X00427455D01*
X00427812Y00978342D01*
X0043532Y00975232D01*
X00442828Y00978342D01*
X00445938Y0098585D01*
Y0099585D01*
X00442828Y01003358D01*
X0043532Y01006468D01*
D02*
G37*
G36*
X0070139Y0098212D02*
X0069053D01*
X0068326Y0097485D01*
X0067599Y0098212D01*
X0066513D01*
X00659443Y00976434D01*
X0065827Y0097692D01*
Y0098212D01*
X0063205D01*
Y009559D01*
X0065827D01*
Y009611D01*
X00659443Y00961586D01*
X0066513Y009559D01*
X0067599D01*
X0068326Y0096317D01*
X0069053Y009559D01*
X0070139D01*
X0070907Y0096358D01*
Y0097444D01*
X0070139Y0098212D01*
D02*
G37*
G36*
X005528D02*
X0054194D01*
X0053467Y0097485D01*
X005274Y0098212D01*
X0051654D01*
X00510853Y00976434D01*
X0050968Y0097692D01*
Y0098212D01*
X0048346D01*
Y009559D01*
X0050968D01*
Y009611D01*
X00510853Y00961586D01*
X0051654Y009559D01*
X005274D01*
X0053467Y0096317D01*
X0054194Y009559D01*
X005528D01*
X0056048Y0096358D01*
Y0097444D01*
X005528Y0098212D01*
D02*
G37*
G36*
X0043532Y00956468D02*
X00427812Y00953358D01*
X00427455Y00952497D01*
X00426185D01*
X00425828Y00953358D01*
X0041832Y00956468D01*
X00410812Y00953358D01*
X00410455Y00952497D01*
X00409185D01*
X00408828Y00953358D01*
X0040132Y00956468D01*
X00393812Y00953358D01*
X00390702Y0094585D01*
Y0093585D01*
X00393812Y00928342D01*
X0040132Y00925232D01*
X00408828Y00928342D01*
X00409185Y00929203D01*
X00410455D01*
X00410812Y00928342D01*
X0041832Y00925232D01*
X00425828Y00928342D01*
X00426185Y00929203D01*
X00427455D01*
X00427812Y00928342D01*
X0043532Y00925232D01*
X00442828Y00928342D01*
X00445938Y0093585D01*
Y0094585D01*
X00442828Y00953358D01*
X0043532Y00956468D01*
D02*
G37*
G36*
X0084392Y0094726D02*
X0083248D01*
X008257Y0094048D01*
X0081892Y0094726D01*
X00807479D01*
X00799802Y00939582D01*
X00793394Y0094599D01*
X0078947D01*
Y0093345D01*
Y0092091D01*
X00793394D01*
X00799802Y00927318D01*
X00807479Y0091964D01*
X0081892D01*
X008257Y0092642D01*
X0083248Y0091964D01*
X00837764D01*
Y00872844D01*
X00831953Y00867032D01*
Y00857663D01*
X00838578Y00851038D01*
X00847947D01*
X00854573Y00857663D01*
Y00867032D01*
X00848761Y00872844D01*
Y00923663D01*
X00848521Y00924241D01*
X0085201Y0092773D01*
Y0093917D01*
X0084392Y0094726D01*
D02*
G37*
G36*
X0077701D02*
X0074939D01*
Y0091964D01*
X0077701D01*
Y00925246D01*
X00778183Y00925732D01*
X00783006Y0092091D01*
X0078693D01*
Y0093345D01*
Y0094599D01*
X00783006D01*
X00778183Y00941168D01*
X0077701Y00941654D01*
Y0094726D01*
D02*
G37*
G36*
X0063246Y00900993D02*
Y0089259D01*
X00641449D01*
X00639109Y00898239D01*
X0063246Y00900993D01*
D02*
G37*
G36*
X0062992D02*
X00623271Y00898239D01*
X00620931Y0089259D01*
X0062992D01*
Y00900993D01*
D02*
G37*
G36*
X0070866Y00899943D02*
Y0089154D01*
X00717649D01*
X00715309Y00897189D01*
X0070866Y00899943D01*
D02*
G37*
G36*
X0070612D02*
X00699471Y00897189D01*
X00697131Y0089154D01*
X0070612D01*
Y00899943D01*
D02*
G37*
G36*
X00914621Y0094659D02*
X00903159D01*
X0089257Y00942204D01*
X00884466Y009341D01*
X0088008Y00923511D01*
Y00912049D01*
X00884466Y0090146D01*
X0089257Y00893356D01*
X00903159Y0088897D01*
X00914621D01*
X0092521Y00893356D01*
X00933314Y0090146D01*
X009377Y00912049D01*
Y00923511D01*
X00933314Y009341D01*
X0092521Y00942204D01*
X00914621Y0094659D01*
D02*
G37*
G36*
X00114621D02*
X00103159D01*
X0009257Y00942204D01*
X00084466Y009341D01*
X0008008Y00923511D01*
Y00912049D01*
X00084466Y0090146D01*
X0009257Y00893356D01*
X00103159Y0088897D01*
X00114621D01*
X0012521Y00893356D01*
X00133314Y0090146D01*
X001377Y00912049D01*
Y00923511D01*
X00133314Y009341D01*
X0012521Y00942204D01*
X00114621Y0094659D01*
D02*
G37*
G36*
X00559726Y00889171D02*
X00558497D01*
Y0088228D01*
X00567362D01*
X00565497Y00886781D01*
X00559726Y00889171D01*
D02*
G37*
G36*
X00555956D02*
X00554727D01*
X00548956Y00886781D01*
X00547091Y0088228D01*
X00555956D01*
Y00889171D01*
D02*
G37*
G36*
X0049907Y00889171D02*
X0049784D01*
Y0088228D01*
X00506705D01*
X00504841Y00886781D01*
X0049907Y00889171D01*
D02*
G37*
G36*
X004953D02*
X0049407D01*
X00488299Y00886781D01*
X00486435Y0088228D01*
X004953D01*
Y00889171D01*
D02*
G37*
G36*
X00641449Y0089005D02*
X0063246D01*
Y00881647D01*
X00639109Y00884401D01*
X00641449Y0089005D01*
D02*
G37*
G36*
X0062992D02*
X00620931D01*
X00623271Y00884401D01*
X0062992Y00881647D01*
Y0089005D01*
D02*
G37*
G36*
X00717649Y00889D02*
X0070866D01*
Y00880597D01*
X00715309Y00883351D01*
X00717649Y00889D01*
D02*
G37*
G36*
X0070612D02*
X00697131D01*
X00699471Y00883351D01*
X0070612Y00880597D01*
Y00889D01*
D02*
G37*
G36*
X00308529Y00893496D02*
X00304799D01*
Y0088011D01*
X00322659D01*
X00318892Y00889203D01*
X00308529Y00893496D01*
D02*
G37*
G36*
X00302259D02*
X00298529D01*
X00288166Y00889203D01*
X002844Y0088011D01*
X00302259D01*
Y00893496D01*
D02*
G37*
G36*
X00596772Y0090424D02*
X00589408D01*
X005842Y00899032D01*
Y00891668D01*
X00584842Y00891025D01*
Y00875906D01*
X00584303Y00875368D01*
X00568536D01*
Y0087712D01*
X0056742D01*
X00566714Y00878176D01*
X00567362Y0087974D01*
X00557226D01*
X00547091D01*
X00547739Y00878176D01*
X00547034Y0087712D01*
X00545917D01*
Y008595D01*
X00556901D01*
X00558417Y00858872D01*
X0058772D01*
X00593552Y00861288D01*
X00598922Y00866658D01*
X00601338Y0087249D01*
Y00891025D01*
X0060198Y00891668D01*
Y00899032D01*
X00596772Y0090424D01*
D02*
G37*
G36*
X00322659Y0087757D02*
X00304799D01*
Y00864184D01*
X00308529D01*
X00318892Y00868477D01*
X00322659Y0087757D01*
D02*
G37*
G36*
X00302259D02*
X002844D01*
X00288166Y00868477D01*
X00298529Y00864184D01*
X00302259D01*
Y0087757D01*
D02*
G37*
G36*
X00796621Y00872387D02*
X00793733D01*
Y00863617D01*
X00802503D01*
Y00866506D01*
X00796621Y00872387D01*
D02*
G37*
G36*
X00791192D02*
X00788304D01*
X00782422Y00866506D01*
Y00863617D01*
X00791192D01*
Y00872387D01*
D02*
G37*
G36*
X00213528Y0089487D02*
X00203528D01*
X00192193Y00890175D01*
X00187498Y0087884D01*
X00192193Y00867505D01*
X00203528Y0086281D01*
X00213528D01*
X00224863Y00867505D01*
X00229558Y0087884D01*
X00224863Y00890175D01*
X00213528Y0089487D01*
D02*
G37*
G36*
X00506705Y0087974D02*
X0049657D01*
X00486435D01*
X00487083Y00878176D01*
X00486377Y0087712D01*
X0048526D01*
Y008595D01*
X0050788D01*
Y0087712D01*
X00506763D01*
X00506057Y00878176D01*
X00506705Y0087974D01*
D02*
G37*
G36*
X006425Y0087623D02*
X0061988D01*
Y0085561D01*
X006425D01*
Y0087623D01*
D02*
G37*
G36*
X00802503Y00861077D02*
X00793733D01*
Y00852308D01*
X00796621D01*
X00802503Y00858189D01*
Y00861077D01*
D02*
G37*
G36*
X00791192D02*
X00782422D01*
Y00858189D01*
X00788304Y00852308D01*
X00791192D01*
Y00861077D01*
D02*
G37*
G36*
X00822547Y00873658D02*
X00813178D01*
X00806553Y00867032D01*
Y00857663D01*
X00813178Y00851038D01*
X00822547D01*
X00829173Y00857663D01*
Y00867032D01*
X00822547Y00873658D01*
D02*
G37*
G36*
X00778372D02*
X00755752D01*
Y00851038D01*
X00778372D01*
Y00873658D01*
D02*
G37*
G36*
X00065928Y0084963D02*
X00058854D01*
X0005232Y00846923D01*
X00047318Y00841922D01*
X00044611Y00835387D01*
Y00828313D01*
X00047318Y00821778D01*
X0005232Y00816777D01*
X00058854Y0081407D01*
X00065928D01*
X00072463Y00816777D01*
X00077464Y00821778D01*
X00080171Y00828313D01*
Y00835387D01*
X00077464Y00841922D01*
X00072463Y00846923D01*
X00065928Y0084963D01*
D02*
G37*
G36*
X00335987Y0082296D02*
X00324413D01*
X0031623Y00814777D01*
Y00803203D01*
X00324413Y0079502D01*
X00335987D01*
X0034417Y00803203D01*
Y00814777D01*
X00335987Y0082296D01*
D02*
G37*
G36*
X00065675Y0079756D02*
X00063661D01*
Y0078232D01*
X00078901D01*
Y00784334D01*
X00076388Y00790402D01*
X00071743Y00795046D01*
X00065675Y0079756D01*
D02*
G37*
G36*
X00061121D02*
X00059107D01*
X00053039Y00795046D01*
X00048395Y00790402D01*
X00045881Y00784334D01*
Y0078232D01*
X00061121D01*
Y0079756D01*
D02*
G37*
G36*
X004572Y0078613D02*
X0044958D01*
Y00783718D01*
X00454788Y0077851D01*
X004572D01*
Y0078613D01*
D02*
G37*
G36*
X00526178Y0090402D02*
X00517762D01*
X0051181Y00898068D01*
Y00889652D01*
X00513722Y0088774D01*
Y00829375D01*
X00508758Y00824411D01*
X00507428D01*
X00501477Y0081846D01*
Y00810043D01*
X00507428Y00804091D01*
X00508758D01*
X00509912Y00802937D01*
Y00779551D01*
X00508Y00777638D01*
Y00774053D01*
X00506827Y00773568D01*
X00464302Y00816092D01*
X0045847Y00818508D01*
X0044323D01*
X00437398Y00816092D01*
X00421543Y00800238D01*
X0042037Y00800723D01*
Y0082296D01*
X0039243D01*
Y0079502D01*
X00414666D01*
X00415153Y00793847D01*
X00406794Y00785488D01*
X00385851D01*
X00380128Y0079121D01*
X00371712D01*
X0036576Y00785258D01*
Y00776842D01*
X00371712Y0077089D01*
X00376523D01*
X00381105Y00768992D01*
X0041021D01*
X00416042Y00771408D01*
X00446646Y00802012D01*
X00455054D01*
X00459603Y00797463D01*
X00459117Y0079629D01*
X00454788D01*
X0044958Y00791082D01*
Y0078867D01*
X0045847D01*
Y007874D01*
X0045974D01*
Y0077851D01*
X00462152D01*
X0046736Y00783718D01*
Y00788046D01*
X00468533Y00788532D01*
X00504708Y00752358D01*
X0051054Y00749942D01*
X0060071D01*
X00606542Y00752358D01*
X00708744Y0085456D01*
X007187D01*
Y0087518D01*
X0069608D01*
Y00865224D01*
X00597294Y00766438D01*
X00527196D01*
X0052671Y00767611D01*
X0052832Y00769222D01*
Y00777638D01*
X00526408Y00779551D01*
Y00806353D01*
X00523992Y00812186D01*
X00521926Y00814251D01*
X00527802Y00820127D01*
X00530218Y00825959D01*
Y0088774D01*
X0053213Y00889652D01*
Y00898068D01*
X00526178Y0090402D01*
D02*
G37*
G36*
X00078901Y0077978D02*
X00063661D01*
Y0076454D01*
X00065675D01*
X00071743Y00767054D01*
X00076388Y00771698D01*
X00078901Y00777766D01*
Y0077978D01*
D02*
G37*
G36*
X00061121D02*
X00045881D01*
Y00777766D01*
X00048395Y00771698D01*
X00053039Y00767054D01*
X00059107Y0076454D01*
X00061121D01*
Y0077978D01*
D02*
G37*
G36*
X00232282Y0072517D02*
X0022987D01*
Y0071755D01*
X0023749D01*
Y00719962D01*
X00232282Y0072517D01*
D02*
G37*
G36*
X0022733D02*
X00224918D01*
X0021971Y00719962D01*
Y0071755D01*
X0022733D01*
Y0072517D01*
D02*
G37*
G36*
X0023749Y0071501D02*
X0022987D01*
Y0070739D01*
X00232282D01*
X0023749Y00712598D01*
Y0071501D01*
D02*
G37*
G36*
X0022733D02*
X0021971D01*
Y00712598D01*
X00224918Y0070739D01*
X0022733D01*
Y0071501D01*
D02*
G37*
G36*
X00960593Y0070376D02*
X0095758D01*
Y0069469D01*
X0096665D01*
Y00697703D01*
X00960593Y0070376D01*
D02*
G37*
G36*
X0095504D02*
X00952027D01*
X0094597Y00697703D01*
Y0069469D01*
X0095504D01*
Y0070376D01*
D02*
G37*
G36*
X0096665Y0069215D02*
X0095758D01*
Y0068308D01*
X00960593D01*
X0096665Y00689137D01*
Y0069215D01*
D02*
G37*
G36*
X0095504D02*
X0094597D01*
Y00689137D01*
X00952027Y0068308D01*
X0095504D01*
Y0069215D01*
D02*
G37*
G36*
X00318098Y00690335D02*
X00315685D01*
Y00682715D01*
X00323305D01*
Y00685128D01*
X00318098Y00690335D01*
D02*
G37*
G36*
X00313145D02*
X00310733D01*
X00305525Y00685128D01*
Y00682715D01*
X00313145D01*
Y00690335D01*
D02*
G37*
G36*
X0071392Y0070503D02*
X006907D01*
Y0068181D01*
X0071392D01*
Y0070503D01*
D02*
G37*
G36*
X00996555Y0070219D02*
X00987185D01*
X0098056Y00695565D01*
Y00686195D01*
X00987185Y0067957D01*
X00996555D01*
X0100318Y00686195D01*
Y00695565D01*
X00996555Y0070219D01*
D02*
G37*
G36*
X00670165D02*
X00660795D01*
X0065417Y00695565D01*
Y00686195D01*
X00660795Y0067957D01*
X00670165D01*
X0067679Y00686195D01*
Y00695565D01*
X00670165Y0070219D01*
D02*
G37*
G36*
X00323305Y00680175D02*
X00315685D01*
Y00672555D01*
X00318098D01*
X00323305Y00677763D01*
Y00680175D01*
D02*
G37*
G36*
X00313145D02*
X00305525D01*
Y00677763D01*
X00310733Y00672555D01*
X00313145D01*
Y00680175D01*
D02*
G37*
G36*
X00961119Y0067963D02*
X00951501D01*
X009447Y00672829D01*
Y00663211D01*
X00951501Y0065641D01*
X00961119D01*
X0096792Y00663211D01*
Y00672829D01*
X00961119Y0067963D01*
D02*
G37*
G36*
X00996555Y0067679D02*
X00987185D01*
X0098056Y00670165D01*
Y00660795D01*
X00987185Y0065417D01*
X00996555D01*
X0100318Y00660795D01*
Y00670165D01*
X00996555Y0067679D01*
D02*
G37*
G36*
X0056122Y0060926D02*
X005386D01*
Y0058664D01*
X0056122D01*
Y0060926D01*
D02*
G37*
G36*
X00529195D02*
X00519825D01*
X005132Y00602635D01*
Y00593265D01*
X00519825Y0058664D01*
X00529195D01*
X0053582Y00593265D01*
Y00602635D01*
X00529195Y0060926D01*
D02*
G37*
G36*
X00554595Y0058386D02*
X00545225D01*
X005386Y00577235D01*
Y00567865D01*
X00545225Y0056124D01*
X00554595D01*
X0056122Y00567865D01*
Y00577235D01*
X00554595Y0058386D01*
D02*
G37*
G36*
X00529195D02*
X00519825D01*
X005132Y00577235D01*
Y00567865D01*
X00519825Y0056124D01*
X00529195D01*
X0053582Y00567865D01*
Y00577235D01*
X00529195Y0058386D01*
D02*
G37*
G36*
X00452995D02*
X00443625D01*
X00437Y00577235D01*
Y00567865D01*
X00443625Y0056124D01*
X00452995D01*
X0045962Y00567865D01*
Y00577235D01*
X00452995Y0058386D01*
D02*
G37*
G36*
X00623919Y0055719D02*
X0062103D01*
Y0054842D01*
X006298D01*
Y00551309D01*
X00623919Y0055719D01*
D02*
G37*
G36*
X0061849D02*
X00615601D01*
X0060972Y00551309D01*
Y0054842D01*
X0061849D01*
Y0055719D01*
D02*
G37*
G36*
X006298Y0054588D02*
X0062103D01*
Y0053711D01*
X00623919D01*
X006298Y00542991D01*
Y0054588D01*
D02*
G37*
G36*
X0061849D02*
X0060972D01*
Y00542991D01*
X00615601Y0053711D01*
X0061849D01*
Y0054588D01*
D02*
G37*
G36*
X00521098Y0063246D02*
X00512682D01*
X0050673Y00626508D01*
Y00618092D01*
X00512682Y0061214D01*
X00521098D01*
X00523011Y00614052D01*
X00565792D01*
Y00553224D01*
X00563582Y00552308D01*
X00532886Y00521612D01*
X00532528Y0052197D01*
X00524112D01*
X0051816Y00516018D01*
Y00507602D01*
X00524112Y0050165D01*
X0053086D01*
Y0050038D01*
X0054864D01*
Y00502792D01*
X00543432Y00508D01*
X0053848D01*
Y00511654D01*
X00569061Y00542235D01*
X0057404Y00540172D01*
X00585343D01*
X00589675Y0053584D01*
X00599045D01*
X0060567Y00542465D01*
Y00551835D01*
X00599045Y0055846D01*
X00589675D01*
X00587883Y00556668D01*
X00582288D01*
Y00617836D01*
X00579872Y00623668D01*
X00575408Y00628132D01*
X00569576Y00630548D01*
X00523011D01*
X00521098Y0063246D01*
D02*
G37*
G36*
X00670165Y0054979D02*
X00660795D01*
X0065417Y00543165D01*
Y00533795D01*
X00660795Y0052717D01*
X00670165D01*
X0067679Y00533795D01*
Y00543165D01*
X00670165Y0054979D01*
D02*
G37*
G36*
X00624445Y0053306D02*
X00615075D01*
X0060845Y00526435D01*
Y00517065D01*
X00615075Y0051044D01*
X00624445D01*
X0063107Y00517065D01*
Y00526435D01*
X00624445Y0053306D01*
D02*
G37*
G36*
X00599045D02*
X00589675D01*
X0058305Y00526435D01*
Y00517065D01*
X00589675Y0051044D01*
X00599045D01*
X0060567Y00517065D01*
Y00526435D01*
X00599045Y0053306D01*
D02*
G37*
G36*
X00670165Y0052439D02*
X00660795D01*
X0065417Y00517765D01*
Y00508395D01*
X00656783Y00505782D01*
X00656297Y00504608D01*
X00627496D01*
X00624445Y0050766D01*
X00615075D01*
X0060845Y00501035D01*
Y00491665D01*
X00609574Y00490542D01*
X00609087Y00489369D01*
X0060728D01*
X00603677Y00487876D01*
X00602957Y00488953D01*
X0060567Y00491665D01*
Y00501035D01*
X00599045Y0050766D01*
X00589675D01*
X0058305Y00501035D01*
Y00491665D01*
X00589675Y0048504D01*
X00598878D01*
X00599658Y00484024D01*
X00597894Y0048226D01*
X00589675D01*
X0058305Y00475635D01*
Y00466265D01*
X00589675Y0045964D01*
X00599045D01*
X0060567Y00466265D01*
Y00474484D01*
X00607434Y00476248D01*
X0060845Y00475468D01*
Y00466265D01*
X00615075Y0045964D01*
X00624445D01*
X0063107Y00466265D01*
Y00468205D01*
X00632243Y00468691D01*
X00653228Y00447706D01*
X00653228Y00447706D01*
X00653228Y00447706D01*
X00653972Y00446962D01*
X00656658Y00445849D01*
X00656956Y00444351D01*
X0065417Y00441565D01*
Y00432195D01*
X00660795Y0042557D01*
X00670165D01*
X0067679Y00432195D01*
Y00441565D01*
X00674177Y00444178D01*
X00674663Y00445351D01*
X00690235D01*
X006907Y00444229D01*
Y00434611D01*
X00697501Y0042781D01*
X00707119D01*
X0071392Y00434611D01*
Y00444229D01*
X00714385Y00445351D01*
X00739307D01*
X00760069Y00435704D01*
X00761273Y00435653D01*
X00762386Y00435191D01*
X00927362D01*
X009447Y00417854D01*
Y00409211D01*
X00951501Y0040241D01*
X00961119D01*
X0096792Y00409211D01*
Y00418829D01*
X00961119Y0042563D01*
X00952476D01*
X00951566Y0042654D01*
X00952092Y0042781D01*
X00961119D01*
X0096792Y00434611D01*
Y00444229D01*
X00961119Y0045103D01*
X00952476D01*
X00951566Y0045194D01*
X00952092Y0045321D01*
X00961119D01*
X0096792Y00460011D01*
Y00469629D01*
X00961119Y0047643D01*
X00951501D01*
X009447Y00469629D01*
Y00460011D01*
X00947208Y00457503D01*
X00946489Y00456426D01*
X00945497Y00456837D01*
X0094361Y00457618D01*
X0094361Y00457618D01*
X0094361Y00457618D01*
X00763459D01*
X00711888Y00481583D01*
X00711614Y00483105D01*
X0071392Y00485411D01*
Y00495029D01*
X00707119Y0050183D01*
X00697501D01*
X006907Y00495029D01*
Y00492987D01*
X0068943Y00492461D01*
X00678893Y00502998D01*
X00675005Y00504608D01*
X00674663D01*
X00674177Y00505782D01*
X0067679Y00508395D01*
Y00517765D01*
X00670165Y0052439D01*
D02*
G37*
G36*
X00961119Y0052723D02*
X00951501D01*
X009447Y00520429D01*
Y00510811D01*
X00951501Y0050401D01*
X00961119D01*
X0096792Y00510811D01*
Y00520429D01*
X00961119Y0052723D01*
D02*
G37*
G36*
X00707119D02*
X00697501D01*
X006907Y00520429D01*
Y00510811D01*
X00697501Y0050401D01*
X00707119D01*
X0071392Y00510811D01*
Y00520429D01*
X00707119Y0052723D01*
D02*
G37*
G36*
X00996555Y0052439D02*
X00987185D01*
X0098056Y00517765D01*
Y00508395D01*
X00987185Y0050177D01*
X00996555D01*
X0100318Y00508395D01*
Y00517765D01*
X00996555Y0052439D01*
D02*
G37*
G36*
X00188835Y0052163D02*
X00179465D01*
X0017284Y00515005D01*
Y00505635D01*
X00179465Y0049901D01*
X00188835D01*
X0019546Y00505635D01*
Y00515005D01*
X00188835Y0052163D01*
D02*
G37*
G36*
X00163435D02*
X00154065D01*
X0014744Y00515005D01*
Y00505635D01*
X00154065Y0049901D01*
X00163435D01*
X0017006Y00505635D01*
Y00515005D01*
X00163435Y0052163D01*
D02*
G37*
G36*
X0054864Y0049784D02*
X0054102D01*
Y0049022D01*
X00543432D01*
X0054864Y00495428D01*
Y0049784D01*
D02*
G37*
G36*
X0053848D02*
X0053086D01*
Y00495428D01*
X00536068Y0049022D01*
X0053848D01*
Y0049784D01*
D02*
G37*
G36*
X00961119Y0050183D02*
X00951501D01*
X009447Y00495029D01*
Y00485411D01*
X00951501Y0047861D01*
X00961119D01*
X0096792Y00485411D01*
Y00495029D01*
X00961119Y0050183D01*
D02*
G37*
G36*
X00996555Y0049899D02*
X00987185D01*
X0098056Y00492365D01*
Y00482995D01*
X00987185Y0047637D01*
X00996555D01*
X0100318Y00482995D01*
Y00492365D01*
X00996555Y0049899D01*
D02*
G37*
G36*
X00188835Y0049623D02*
X00179465D01*
X0017284Y00489605D01*
Y00480235D01*
X00179465Y0047361D01*
X00188835D01*
X0019546Y00480235D01*
Y00489605D01*
X00188835Y0049623D01*
D02*
G37*
G36*
X00163435D02*
X00154065D01*
X0014744Y00489605D01*
Y00480235D01*
X00154065Y0047361D01*
X00163435D01*
X0017006Y00480235D01*
Y00489605D01*
X00163435Y0049623D01*
D02*
G37*
G36*
X00369297Y0046679D02*
X0036703D01*
Y0045952D01*
X003743D01*
Y00461787D01*
X00369297Y0046679D01*
D02*
G37*
G36*
X0036449D02*
X00362223D01*
X0035722Y00461787D01*
Y0045952D01*
X0036449D01*
Y0046679D01*
D02*
G37*
G36*
X00996555Y0047359D02*
X00987185D01*
X0098056Y00466965D01*
Y00457595D01*
X00987185Y0045097D01*
X00996555D01*
X0100318Y00457595D01*
Y00466965D01*
X00996555Y0047359D01*
D02*
G37*
G36*
X003743Y0045698D02*
X0036703D01*
Y0044971D01*
X00369297D01*
X003743Y00454713D01*
Y0045698D01*
D02*
G37*
G36*
X0036449D02*
X0035722D01*
Y00454713D01*
X00362223Y0044971D01*
X0036449D01*
Y0045698D01*
D02*
G37*
G36*
X00188835Y0047083D02*
X00179465D01*
X0017284Y00464205D01*
Y00454835D01*
X00179465Y0044821D01*
X00188835D01*
X0019546Y00454835D01*
Y00464205D01*
X00188835Y0047083D01*
D02*
G37*
G36*
X00163435D02*
X00154065D01*
X0014744Y00464205D01*
Y00454835D01*
X00154065Y0044821D01*
X00163435D01*
X0017006Y00454835D01*
Y00464205D01*
X00163435Y0047083D01*
D02*
G37*
G36*
X00349122Y0044936D02*
X0034671D01*
Y0044174D01*
X0035433D01*
Y00444152D01*
X00349122Y0044936D01*
D02*
G37*
G36*
X0034417D02*
X00341758D01*
X0033655Y00444152D01*
Y0044174D01*
X0034417D01*
Y0044936D01*
D02*
G37*
G36*
X00624445Y0045686D02*
X00615075D01*
X0060845Y00450235D01*
Y00440865D01*
X00615075Y0043424D01*
X00624445D01*
X0063107Y00440865D01*
Y00450235D01*
X00624445Y0045686D01*
D02*
G37*
G36*
X00599045D02*
X00589675D01*
X0058305Y00450235D01*
Y00440865D01*
X00589675Y0043424D01*
X00599045D01*
X0060567Y00440865D01*
Y00450235D01*
X00599045Y0045686D01*
D02*
G37*
G36*
X0035433Y004392D02*
X0034671D01*
Y0043158D01*
X00349122D01*
X0035433Y00436788D01*
Y004392D01*
D02*
G37*
G36*
X0034417D02*
X0033655D01*
Y00436788D01*
X00341758Y0043158D01*
X0034417D01*
Y004392D01*
D02*
G37*
G36*
X00996555Y0044819D02*
X00987185D01*
X0098056Y00441565D01*
Y00432195D01*
X00987185Y0042557D01*
X00996555D01*
X0100318Y00432195D01*
Y00441565D01*
X00996555Y0044819D01*
D02*
G37*
G36*
X00188835Y0044543D02*
X00179465D01*
X0017284Y00438805D01*
Y00429435D01*
X00179465Y0042281D01*
X00188835D01*
X0019546Y00429435D01*
Y00438805D01*
X00188835Y0044543D01*
D02*
G37*
G36*
X00163435D02*
X00154065D01*
X0014744Y00438805D01*
Y00429435D01*
X00154065Y0042281D01*
X00163435D01*
X0017006Y00429435D01*
Y00438805D01*
X00163435Y0044543D01*
D02*
G37*
G36*
X00379602Y0042672D02*
X0037719D01*
Y004191D01*
X0038481D01*
Y00421512D01*
X00379602Y0042672D01*
D02*
G37*
G36*
X0037465D02*
X00372238D01*
X0036703Y00421512D01*
Y004191D01*
X0037465D01*
Y0042672D01*
D02*
G37*
G36*
X0038481Y0041656D02*
X0037719D01*
Y0040894D01*
X00379602D01*
X0038481Y00414148D01*
Y0041656D01*
D02*
G37*
G36*
X0037465D02*
X0036703D01*
Y00414148D01*
X00372238Y0040894D01*
X0037465D01*
Y0041656D01*
D02*
G37*
G36*
X00707119Y0042563D02*
X00697501D01*
X006907Y00418829D01*
Y00409211D01*
X00697501Y0040241D01*
X00707119D01*
X0071392Y00409211D01*
Y00418829D01*
X00707119Y0042563D01*
D02*
G37*
G36*
X00996555Y0042279D02*
X00987185D01*
X0098056Y00416165D01*
Y00406795D01*
X00987185Y0040017D01*
X00996555D01*
X0100318Y00406795D01*
Y00416165D01*
X00996555Y0042279D01*
D02*
G37*
G36*
X00670165D02*
X00660795D01*
X0065417Y00416165D01*
Y00406795D01*
X00660795Y0040017D01*
X00670165D01*
X0067679Y00406795D01*
Y00416165D01*
X00670165Y0042279D01*
D02*
G37*
G36*
X00188835Y0042003D02*
X00179465D01*
X0017284Y00413405D01*
Y00404035D01*
X00179465Y0039741D01*
X00188835D01*
X0019546Y00404035D01*
Y00413405D01*
X00188835Y0042003D01*
D02*
G37*
G36*
X00163435D02*
X00154065D01*
X0014744Y00413405D01*
Y00404035D01*
X00154065Y0039741D01*
X00163435D01*
X0017006Y00404035D01*
Y00413405D01*
X00163435Y0042003D01*
D02*
G37*
G36*
X00128886Y0051562D02*
X00122574D01*
X0011811Y00511156D01*
Y00504844D01*
X00120232Y00502722D01*
Y00407868D01*
X0011811Y00405746D01*
Y00399434D01*
X00122574Y0039497D01*
X00128886D01*
X0013335Y00399434D01*
Y00405746D01*
X00131229Y00407868D01*
Y00502722D01*
X0013335Y00504844D01*
Y00511156D01*
X00128886Y0051562D01*
D02*
G37*
G36*
X00351662Y0039094D02*
X0034925D01*
Y0038332D01*
X0035687D01*
Y00385732D01*
X00351662Y0039094D01*
D02*
G37*
G36*
X0034671D02*
X00344298D01*
X0033909Y00385732D01*
Y0038332D01*
X0034671D01*
Y0039094D01*
D02*
G37*
G36*
X00961119Y0040023D02*
X00951501D01*
X009447Y00393429D01*
Y00383811D01*
X00951501Y0037701D01*
X00961119D01*
X0096792Y00383811D01*
Y00393429D01*
X00961119Y0040023D01*
D02*
G37*
G36*
X00707119D02*
X00697501D01*
X006907Y00393429D01*
Y00383811D01*
X00697501Y0037701D01*
X00707119D01*
X0071392Y00383811D01*
Y00393429D01*
X00707119Y0040023D01*
D02*
G37*
G36*
X00996555Y0039739D02*
X00987185D01*
X0098056Y00390765D01*
Y00381395D01*
X00987185Y0037477D01*
X00996555D01*
X0100318Y00381395D01*
Y00390765D01*
X00996555Y0039739D01*
D02*
G37*
G36*
X00670165D02*
X00660795D01*
X0065417Y00390765D01*
Y00381395D01*
X00660795Y0037477D01*
X00670165D01*
X0067679Y00381395D01*
Y00390765D01*
X00670165Y0039739D01*
D02*
G37*
G36*
X0035687Y0038078D02*
X0034925D01*
Y0037316D01*
X00351662D01*
X0035687Y00378368D01*
Y0038078D01*
D02*
G37*
G36*
X0034671D02*
X0033909D01*
Y00378368D01*
X00344298Y0037316D01*
X0034671D01*
Y0038078D01*
D02*
G37*
G36*
X00351747Y00364185D02*
X00349335D01*
Y00356565D01*
X00356955D01*
Y00358978D01*
X00351747Y00364185D01*
D02*
G37*
G36*
X00346795D02*
X00344383D01*
X00339175Y00358978D01*
Y00356565D01*
X00346795D01*
Y00364185D01*
D02*
G37*
G36*
X00961119Y0037483D02*
X00951501D01*
X009447Y00368029D01*
Y00358411D01*
X00951501Y0035161D01*
X00961119D01*
X0096792Y00358411D01*
Y00368029D01*
X00961119Y0037483D01*
D02*
G37*
G36*
X00707119D02*
X00697501D01*
X006907Y00368029D01*
Y00358411D01*
X00697501Y0035161D01*
X00707119D01*
X0071392Y00358411D01*
Y00368029D01*
X00707119Y0037483D01*
D02*
G37*
G36*
X00996555Y0037199D02*
X00987185D01*
X0098056Y00365365D01*
Y00355995D01*
X00987185Y0034937D01*
X00996555D01*
X0100318Y00355995D01*
Y00365365D01*
X00996555Y0037199D01*
D02*
G37*
G36*
X00670165D02*
X00660795D01*
X0065417Y00365365D01*
Y00355995D01*
X00660795Y0034937D01*
X00670165D01*
X0067679Y00355995D01*
Y00365365D01*
X00670165Y0037199D01*
D02*
G37*
G36*
X00546716Y0037951D02*
X00540404D01*
X0053594Y00375046D01*
Y00368734D01*
X00540404Y0036427D01*
X00543404D01*
X00554912Y00352762D01*
X005588Y00351152D01*
X00566222D01*
X00568344Y0034903D01*
X00574656D01*
X0057912Y00353494D01*
Y00359806D01*
X00574656Y0036427D01*
X00568344D01*
X00566222Y00362149D01*
X00561078D01*
X0055118Y00372046D01*
Y00375046D01*
X00546716Y0037951D01*
D02*
G37*
G36*
X00356955Y00354025D02*
X00349335D01*
Y00346405D01*
X00351747D01*
X00356955Y00351613D01*
Y00354025D01*
D02*
G37*
G36*
X00346795D02*
X00339175D01*
Y00351613D01*
X00344383Y00346405D01*
X00346795D01*
Y00354025D01*
D02*
G37*
G36*
X00599045Y0035526D02*
X00589675D01*
X0058305Y00348635D01*
Y00339265D01*
X00589675Y0033264D01*
X00599045D01*
X0060567Y00339265D01*
Y00348635D01*
X00599045Y0035526D01*
D02*
G37*
G36*
X00961119Y0034943D02*
X00951501D01*
X009447Y00342629D01*
Y00333011D01*
X00951501Y0032621D01*
X00961119D01*
X0096792Y00333011D01*
Y00342629D01*
X00961119Y0034943D01*
D02*
G37*
G36*
X00707119D02*
X00697501D01*
X006907Y00342629D01*
Y00333011D01*
X00697501Y0032621D01*
X00707119D01*
X0071392Y00333011D01*
Y00342629D01*
X00707119Y0034943D01*
D02*
G37*
G36*
X00996555Y0034659D02*
X00987185D01*
X0098056Y00339965D01*
Y00330595D01*
X00987185Y0032397D01*
X00996555D01*
X0100318Y00330595D01*
Y00339965D01*
X00996555Y0034659D01*
D02*
G37*
G36*
X00670165D02*
X00660795D01*
X0065417Y00339965D01*
Y00330595D01*
X00660795Y0032397D01*
X00670165D01*
X0067679Y00330595D01*
Y00339965D01*
X00670165Y0034659D01*
D02*
G37*
G36*
X00531476Y0036808D02*
X00525164D01*
X005207Y00363616D01*
Y00357304D01*
X00525164Y0035284D01*
X00528164D01*
X00553642Y00327362D01*
X0055753Y00325752D01*
X00566222D01*
X00568344Y0032363D01*
X00574656D01*
X0057912Y00328094D01*
Y00334406D01*
X00574656Y0033887D01*
X00568344D01*
X00566222Y00336749D01*
X00559808D01*
X0053594Y00360616D01*
Y00363616D01*
X00531476Y0036808D01*
D02*
G37*
G36*
X00624445Y0032986D02*
X00615075D01*
X0060845Y00323235D01*
Y00313865D01*
X00615075Y0030724D01*
X00624445D01*
X0063107Y00313865D01*
Y00323235D01*
X00624445Y0032986D01*
D02*
G37*
G36*
X00599045D02*
X00589675D01*
X0058305Y00323235D01*
Y00313865D01*
X00589675Y0030724D01*
X00599045D01*
X0060567Y00313865D01*
Y00323235D01*
X00599045Y0032986D01*
D02*
G37*
G36*
X00961119Y0032403D02*
X00951501D01*
X009447Y00317229D01*
Y00307611D01*
X00951501Y0030081D01*
X00961119D01*
X0096792Y00307611D01*
Y00317229D01*
X00961119Y0032403D01*
D02*
G37*
G36*
X00707119D02*
X00697501D01*
X006907Y00317229D01*
Y00307611D01*
X00697501Y0030081D01*
X00707119D01*
X0071392Y00307611D01*
Y00317229D01*
X00707119Y0032403D01*
D02*
G37*
G36*
X00996555Y0032119D02*
X00987185D01*
X0098056Y00314565D01*
Y00305195D01*
X00987185Y0029857D01*
X00996555D01*
X0100318Y00305195D01*
Y00314565D01*
X00996555Y0032119D01*
D02*
G37*
G36*
X00670165D02*
X00660795D01*
X0065417Y00314565D01*
Y00305195D01*
X00660795Y0029857D01*
X00670165D01*
X0067679Y00305195D01*
Y00314565D01*
X00670165Y0032119D01*
D02*
G37*
G36*
X00517506Y0035792D02*
X00511194D01*
X0050673Y00353456D01*
Y00347144D01*
X00511194Y0034268D01*
X00514194D01*
X00554912Y00301962D01*
X005588Y00300352D01*
X00566222D01*
X00568344Y0029823D01*
X00574656D01*
X0057912Y00302694D01*
Y00309006D01*
X00574656Y0031347D01*
X00568344D01*
X00566222Y00311349D01*
X00561078D01*
X0052197Y00350456D01*
Y00353456D01*
X00517506Y0035792D01*
D02*
G37*
G36*
X00188835Y0031843D02*
X00179465D01*
X0017284Y00311805D01*
Y00302435D01*
X00179465Y0029581D01*
X00188835D01*
X0019546Y00302435D01*
Y00311805D01*
X00188835Y0031843D01*
D02*
G37*
G36*
X0006669Y0030353D02*
X0005842D01*
Y0029526D01*
X00061102D01*
X0006669Y00300848D01*
Y0030353D01*
D02*
G37*
G36*
X0005588D02*
X0004761D01*
Y00300848D01*
X00053198Y0029526D01*
X0005588D01*
Y0030353D01*
D02*
G37*
G36*
X00624445Y0030446D02*
X00615075D01*
X0060845Y00297835D01*
Y00288465D01*
X00615075Y0028184D01*
X00624445D01*
X0063107Y00288465D01*
Y00297835D01*
X00624445Y0030446D01*
D02*
G37*
G36*
X00599045D02*
X00589675D01*
X0058305Y00297835D01*
Y00288465D01*
X00589675Y0028184D01*
X00599045D01*
X0060567Y00288465D01*
Y00297835D01*
X00599045Y0030446D01*
D02*
G37*
G36*
X00961119Y0029863D02*
X00951501D01*
X009447Y00291829D01*
Y00282211D01*
X00951501Y0027541D01*
X00961119D01*
X0096792Y00282211D01*
Y00291829D01*
X00961119Y0029863D01*
D02*
G37*
G36*
X00707119D02*
X00697501D01*
X006907Y00291829D01*
Y00282211D01*
X00697501Y0027541D01*
X00707119D01*
X0071392Y00282211D01*
Y00291829D01*
X00707119Y0029863D01*
D02*
G37*
G36*
X00996555Y0029579D02*
X00987185D01*
X0098056Y00289165D01*
Y00279795D01*
X00987185Y0027317D01*
X00996555D01*
X0100318Y00279795D01*
Y00289165D01*
X00996555Y0029579D01*
D02*
G37*
G36*
X00670165D02*
X00660795D01*
X0065417Y00289165D01*
Y00279795D01*
X00660795Y0027317D01*
X00670165D01*
X0067679Y00279795D01*
Y00289165D01*
X00670165Y0029579D01*
D02*
G37*
G36*
X00500996Y0034776D02*
X00494684D01*
X0049022Y00343296D01*
Y00336984D01*
X00494684Y0033252D01*
X00497684D01*
X00553642Y00276562D01*
X0055753Y00274952D01*
X00566222D01*
X00568344Y0027283D01*
X00574656D01*
X0057912Y00277294D01*
Y00283606D01*
X00574656Y0028807D01*
X00568344D01*
X00566222Y00285949D01*
X00559808D01*
X0050546Y00340296D01*
Y00343296D01*
X00500996Y0034776D01*
D02*
G37*
G36*
X00874158Y002995D02*
X00865742D01*
X0085979Y00293549D01*
Y00285132D01*
X00864452Y0028047D01*
Y0027729D01*
X00841002D01*
Y00271925D01*
X00828344D01*
Y00277236D01*
X00804329D01*
Y002792D01*
X0080899Y00283862D01*
Y00292278D01*
X00803038Y0029823D01*
X00794622D01*
X0078867Y00292278D01*
Y00283862D01*
X00793332Y002792D01*
Y00277236D01*
X00789724D01*
Y00255616D01*
X00803711D01*
X00804197Y00254443D01*
X00791472Y00241719D01*
X007823D01*
X00777638Y0024638D01*
X00769222D01*
X0076327Y00240428D01*
Y00232012D01*
X00769222Y0022606D01*
X00777638D01*
X007823Y00230721D01*
X0079375D01*
X00797638Y00232332D01*
X00818522Y00253216D01*
X00819516Y00255616D01*
X00828344D01*
Y00260928D01*
X00841002D01*
Y0025567D01*
X00879622D01*
Y0027729D01*
X00875449D01*
Y0028047D01*
X0088011Y00285132D01*
Y00293549D01*
X00874158Y002995D01*
D02*
G37*
G36*
X00087028Y0029021D02*
X00078072D01*
X0007174Y00283878D01*
Y00274922D01*
X00078072Y0026859D01*
X00087028D01*
X0009336Y00274922D01*
Y00283878D01*
X00087028Y0029021D01*
D02*
G37*
G36*
X00599045Y0027906D02*
X00589675D01*
X0058305Y00272435D01*
Y00263065D01*
X00589675Y0025644D01*
X00599045D01*
X0060567Y00263065D01*
Y00272435D01*
X00599045Y0027906D01*
D02*
G37*
G36*
X00961119Y0027323D02*
X00951501D01*
X009447Y00266429D01*
Y00256811D01*
X00951501Y0025001D01*
X00961119D01*
X0096792Y00256811D01*
Y00266429D01*
X00961119Y0027323D01*
D02*
G37*
G36*
X00707119D02*
X00697501D01*
X006907Y00266429D01*
Y00256811D01*
X00697501Y0025001D01*
X00707119D01*
X0071392Y00256811D01*
Y00266429D01*
X00707119Y0027323D01*
D02*
G37*
G36*
X00996555Y0027039D02*
X00987185D01*
X0098056Y00263765D01*
Y00254395D01*
X00987185Y0024777D01*
X00996555D01*
X0100318Y00254395D01*
Y00263765D01*
X00996555Y0027039D01*
D02*
G37*
G36*
X00670165D02*
X00660795D01*
X0065417Y00263765D01*
Y00254395D01*
X00660795Y0024777D01*
X00670165D01*
X0067679Y00254395D01*
Y00263765D01*
X00670165Y0027039D01*
D02*
G37*
G36*
X0019431Y0024108D02*
X0018669D01*
Y00238668D01*
X00191898Y0023346D01*
X0019431D01*
Y0024108D01*
D02*
G37*
G36*
X00155384Y00233287D02*
X00152971D01*
Y00225667D01*
X00160591D01*
Y0022808D01*
X00155384Y00233287D01*
D02*
G37*
G36*
X00150431D02*
X00148019D01*
X00142811Y0022808D01*
Y00225667D01*
X00150431D01*
Y00233287D01*
D02*
G37*
G36*
X00961119Y0024783D02*
X00951501D01*
X009447Y00241029D01*
Y00231411D01*
X00951501Y0022461D01*
X00961119D01*
X0096792Y00231411D01*
Y00241029D01*
X00961119Y0024783D01*
D02*
G37*
G36*
X00707119D02*
X00697501D01*
X006907Y00241029D01*
Y00231411D01*
X00697501Y0022461D01*
X00707119D01*
X0071392Y00231411D01*
Y00241029D01*
X00707119Y0024783D01*
D02*
G37*
G36*
X00996555Y0024499D02*
X00987185D01*
X0098056Y00238365D01*
Y00228995D01*
X00987185Y0022237D01*
X00996555D01*
X0100318Y00228995D01*
Y00238365D01*
X00996555Y0024499D01*
D02*
G37*
G36*
X00670165D02*
X00660795D01*
X0065417Y00238365D01*
Y00228995D01*
X00660795Y0022237D01*
X00670165D01*
X0067679Y00228995D01*
Y00238365D01*
X00670165Y0024499D01*
D02*
G37*
G36*
X00160591Y00223127D02*
X00152971D01*
Y00215507D01*
X00155384D01*
X00160591Y00220715D01*
Y00223127D01*
D02*
G37*
G36*
X00150431D02*
X00142811D01*
Y00220715D01*
X00148019Y00215507D01*
X00150431D01*
Y00223127D01*
D02*
G37*
G36*
X00554595Y0023461D02*
X00545225D01*
X005386Y00227985D01*
Y00218615D01*
X00545225Y0021199D01*
X00554595D01*
X0056122Y00218615D01*
Y00227985D01*
X00554595Y0023461D01*
D02*
G37*
G36*
X00300595D02*
X00291225D01*
X002846Y00227985D01*
Y00218615D01*
X00291225Y0021199D01*
X00300595D01*
X0030722Y00218615D01*
Y00227985D01*
X00300595Y0023461D01*
D02*
G37*
G36*
X00275195D02*
X00265825D01*
X002592Y00227985D01*
Y00218615D01*
X00265825Y0021199D01*
X00275195D01*
X0028182Y00218615D01*
Y00227985D01*
X00275195Y0023461D01*
D02*
G37*
G36*
X0100318Y0021959D02*
X0098056D01*
Y0019697D01*
X0100318D01*
Y0021959D01*
D02*
G37*
G36*
X0067679D02*
X0065417D01*
Y0019697D01*
X0067679D01*
Y0021959D01*
D02*
G37*
G36*
X00554595Y0020921D02*
X00545225D01*
X005386Y00202585D01*
Y00193215D01*
X00545225Y0018659D01*
X00554595D01*
X0056122Y00193215D01*
Y00202585D01*
X00554595Y0020921D01*
D02*
G37*
G36*
X0028182D02*
X002592D01*
Y0018659D01*
X0028182D01*
Y0020921D01*
D02*
G37*
G36*
X00531528Y0014902D02*
X00522572D01*
X0051624Y00142688D01*
Y00133733D01*
X00522572Y001274D01*
X00531528D01*
X0053786Y00133733D01*
Y00142688D01*
X00531528Y0014902D01*
D02*
G37*
G36*
X00379128D02*
X00370172D01*
X0036384Y00142688D01*
Y00133733D01*
X00370172Y001274D01*
X00379128D01*
X0038546Y00133733D01*
Y00142688D01*
X00379128Y0014902D01*
D02*
G37*
G36*
X00914621Y0014659D02*
X00903159D01*
X0089257Y00142204D01*
X00884466Y001341D01*
X0088008Y00123511D01*
Y00112049D01*
X00884466Y00101461D01*
X0089257Y00093356D01*
X00903159Y0008897D01*
X00914621D01*
X0092521Y00093356D01*
X00933314Y00101461D01*
X009377Y00112049D01*
Y00123511D01*
X00933314Y001341D01*
X0092521Y00142204D01*
X00914621Y0014659D01*
D02*
G37*
G36*
X00114621D02*
X00103159D01*
X0009257Y00142204D01*
X00084466Y001341D01*
X0008008Y00123511D01*
Y00112049D01*
X00084466Y00101461D01*
X0009257Y00093356D01*
X00103159Y0008897D01*
X00114621D01*
X0012521Y00093356D01*
X00133314Y00101461D01*
X001377Y00112049D01*
Y00123511D01*
X00133314Y001341D01*
X0012521Y00142204D01*
X00114621Y0014659D01*
D02*
G37*
%LPD*%
G36*
X00737428Y00457589D02*
X00737154Y00456348D01*
X00711917D01*
X00711431Y00457522D01*
X0071392Y00460011D01*
Y00467332D01*
X00714991Y00468015D01*
X00737428Y00457589D01*
D02*
G37*
G36*
X00654243Y00492438D02*
X0065417Y00492365D01*
Y00482995D01*
X00660795Y0047637D01*
X00670165D01*
X0067679Y00482995D01*
Y0048789D01*
X00677963Y00488376D01*
X0068285Y00483489D01*
X00682946Y00483393D01*
X00682946Y00483393D01*
X00682946Y00483393D01*
X00683169Y0048317D01*
X00683631Y00482979D01*
X00686384Y00478858D01*
X00693672Y00473989D01*
X00693796Y00472725D01*
X006907Y00469629D01*
Y00460011D01*
X00693189Y00457522D01*
X00692703Y00456348D01*
X00677203D01*
X00676717Y00457522D01*
X0067679Y00457595D01*
Y00466965D01*
X00670165Y0047359D01*
X00660795D01*
X0065417Y00466965D01*
Y00463975D01*
X00652997Y00463489D01*
X00628728Y00487758D01*
X00628677Y00487779D01*
X00628429Y00489025D01*
X0063107Y00491665D01*
Y00493611D01*
X00653757D01*
X00654243Y00492438D01*
D02*
G37*
%LPC*%
G36*
X00275195Y0058386D02*
X00265825D01*
X002592Y00577235D01*
Y00567865D01*
X00265825Y0056124D01*
X00275195D01*
X0028182Y00567865D01*
Y00577235D01*
X00275195Y0058386D01*
D02*
G37*
G36*
X00707119Y0062883D02*
X00697501D01*
X006907Y00622029D01*
Y00612411D01*
X00697501Y0060561D01*
X00707119D01*
X0071392Y00612411D01*
Y00622029D01*
X00707119Y0062883D01*
D02*
G37*
G36*
Y0060343D02*
X00697501D01*
X006907Y00596629D01*
Y00587011D01*
X00697501Y0058021D01*
X00707119D01*
X0071392Y00587011D01*
Y00596629D01*
X00707119Y0060343D01*
D02*
G37*
G36*
X00061628Y0044261D02*
X00052672D01*
X0004634Y00436278D01*
Y00427322D01*
X00052672Y0042099D01*
X00061628D01*
X0006796Y00427322D01*
Y00436278D01*
X00061628Y0044261D01*
D02*
G37*
G36*
Y0039181D02*
X00052672D01*
X0004634Y00385478D01*
Y00376522D01*
X00052672Y0037019D01*
X00061628D01*
X0006796Y00376522D01*
Y00385478D01*
X00061628Y0039181D01*
D02*
G37*
%LPD*%
D10*
X00157168Y0029464D02*
G03*
X00160332Y0029464I00001582J0001248D01*
G01*
X00644634Y00354781D02*
G03*
X00629125Y00357986I-00026862J-00090855D01*
G01*
X00628599Y00357994D02*
G03*
X00620431Y00356692I00005549J-00061108D01*
G01*
X00629125Y00357986D02*
G03*
X00628599Y00357994I-00000297J-00002523D01*
G01*
X00646313Y00353115D02*
G03*
X00644634Y00354781I-00002423J-00000762D01*
G01*
X00157312Y00345423D02*
G03*
X00157026Y0034544I-00000297J-00002523D01*
G01*
X00182712Y00345423D02*
G03*
X00182426Y0034544I-00000297J-00002523D01*
G01*
X00160485Y0034544D02*
G03*
X00160204Y00345424I0J-0000254D01*
G01*
X00185885Y0034544D02*
G03*
X00185604Y00345424I0J-0000254D01*
G01*
X00182568Y0026924D02*
G03*
X00185732Y0026924I00001582J0001248D01*
G01*
X0016256D02*
G03*
X00161151Y00269371I-00000931J-00002363D01*
G01*
X00149855Y00272825D02*
G03*
X00161151Y00269371I00008895J00008895D01*
G01*
X00149816Y00272864D02*
G03*
X00149854Y00272825I0000751J00007431D01*
G01*
X00146173Y00282006D02*
G03*
X00149814Y00272866I00012577J-00000286D01*
G01*
X00195719Y00261261D02*
G03*
X00189091Y00267889I-00011569J-00004941D01*
G01*
X0014454Y00370381D02*
G03*
X00146381Y0036957I00001861J00001729D01*
G01*
X00141095Y00375063D02*
G03*
X00144539Y00370381I00023534J00013707D01*
G01*
X00140934Y00375342D02*
G03*
X00141095Y00375063I00023695J00013428D01*
G01*
X00182712Y00345423D02*
G03*
X00185604Y00345424I00001438J00012498D01*
G01*
X00146173Y00282006D02*
G03*
X00146173Y00282035I-0000254J00000028D01*
G01*
X00157312Y00345423D02*
G03*
X00160204Y00345424I00001438J00012498D01*
G01*
X00957489Y0055257D02*
G03*
X00955131Y0055257I-00001179J-0001155D01*
G01*
X00705613Y0065375D02*
G03*
X00706303Y0065365I00000706J0000244D01*
G01*
X00698312D02*
G03*
X00699012Y00653752I-00000011J0000254D01*
G01*
X00705613Y0065375D02*
G03*
X00699012Y00653752I-00003304J-0001113D01*
G01*
X00604119Y00360364D02*
G03*
X00620431Y00356692I00012032J00015381D01*
G01*
X00597715Y00368225D02*
G03*
X0060412Y00360364I00020497J00010158D01*
G01*
X00597426Y00368515D02*
G03*
X00597418Y00368523I-00001796J-00001796D01*
G01*
X00584202Y00381002D02*
G03*
X005842Y00381I00005122J-00005126D01*
G01*
X00585914Y0038227D02*
G03*
X00584202Y00381002I0000341J-00006394D01*
G01*
X00703489Y0055257D02*
G03*
X00701131Y0055257I-00001179J-0001155D01*
G01*
X00704346Y0045085D02*
G03*
X00700274Y0045085I-00002036J-0001143D01*
G01*
X00696943Y00478335D02*
G03*
X00707468Y00477202I00007095J00016472D01*
G01*
X00687057Y00487058D02*
G03*
X00696943Y00478335I00018279J00010752D01*
G01*
X00446984Y00126765D02*
G03*
X00454422Y0012667I00003866J00011445D01*
G01*
X00455161Y0012678D02*
G03*
X00454422Y0012667I0J-0000254D01*
G01*
X00332532Y00190657D02*
G03*
X00332565Y00190562I00001388J00000435D01*
G01*
X00332566Y0019056D02*
G03*
X00332565Y00190562I-00002373J-00000906D01*
G01*
X0033274Y00130031D02*
G03*
X0033274Y00146389I-0000889J00008179D01*
G01*
X00332661Y00192477D02*
G03*
X00332532Y00190657I000023J-00001077D01*
G01*
X00332661Y00192477D02*
G03*
X0033407Y00196255I-00020547J00009818D01*
G01*
X0033407D02*
G03*
X00334155Y00197104I-00002449J00000674D01*
G01*
X0033476Y00201832D02*
G03*
X00334155Y00197104I0001195J-00003932D01*
G01*
X0033476Y00201832D02*
G03*
X00334883Y00202653I-00002417J00000781D01*
G01*
D02*
G03*
X00333007Y00211352I-00022769J-00000359D01*
G01*
D02*
G03*
X00332804Y00211806I-00020893J-00009058D01*
G01*
X0046039Y00134322D02*
G03*
X0046039Y00142099I-0000954J00003888D01*
G01*
X00098884Y00404309D02*
G03*
X00098869Y00404324I-00001848J-00001743D01*
G01*
X00098835Y00404359D02*
G03*
X00098832Y00404362I-00001799J-00001793D01*
G01*
X00168384Y00293896D02*
X00176898Y00285382D01*
X00150386Y00295384D02*
X0015113Y0029464D01*
X00160332D02*
X0016764D01*
X00168384Y00293896D01*
X0010668Y0033909D02*
X00150386Y00295384D01*
X0015113Y0029464D02*
X00157168D01*
X00358892Y00759678D02*
Y00778508D01*
X0042799Y0075819D02*
X004572Y007874D01*
X0036038Y0075819D02*
X0042799D01*
X00358892Y00759678D02*
X0036038Y0075819D01*
X00276629Y00696999D02*
X00358938Y00779308D01*
X0024384Y0062484D02*
X0026797Y0064897D01*
X0017145Y0062484D02*
X0024384D01*
X0026797Y0064897D02*
X0045974D01*
X0015748Y0063881D02*
X0017145Y0062484D01*
X0004202Y0049414D02*
X0004445D01*
X0002667Y0047879D02*
X0004202Y0049414D01*
X00056217Y00587077D02*
Y00590887D01*
X0006731Y0060198D01*
X0004318Y0057404D02*
X00056217Y00587077D01*
X0006731Y0060198D02*
X0025273D01*
X0056515Y0016637D02*
X0057531Y0017653D01*
X00635Y0014859D02*
Y0025019D01*
X0048895Y00099739D02*
X00491489Y000972D01*
X0048895Y00099739D02*
Y0010033D01*
X00644634Y00354781D02*
X00644634Y00354781D01*
X0064643Y00352743D02*
X0064643Y00352353D01*
Y0014478D02*
Y00352353D01*
X00646313Y00353115D02*
X0064643Y00352743D01*
X00628599Y00357994D02*
X00628599Y00357993D01*
X00028158Y003175D02*
X000889D01*
X0002667Y00318988D02*
X00028158Y003175D01*
X0002667Y00318988D02*
Y0047879D01*
X00157312Y00345423D02*
Y00345423D01*
X00182712Y00345423D02*
Y00345423D01*
X00157015Y0034544D02*
X00157026Y0034544D01*
X00182415Y0034544D02*
X00182426Y0034544D01*
X0014478Y0034544D02*
X00157015D01*
X00160485D02*
X00182415D01*
X00185885D02*
X0020946D01*
X00213868Y00350012D02*
X00217794D01*
X0019431Y0036957D02*
X00213868Y00350012D01*
X00146381Y0036957D02*
X0019431D01*
X0005715Y002794D02*
X0019939Y0013716D01*
X00151701Y00224397D02*
Y00227147D01*
X00154703Y00230149D01*
Y00230683D01*
X0016637Y0024235D01*
X0014373D02*
X0016637D01*
X0019558D01*
X0016256Y0026924D02*
X00163515Y0026924D01*
X00157628Y00257442D02*
X0015875Y0025632D01*
X00148958Y00257442D02*
X00157628D01*
X0009398Y002921D02*
X0014373Y0024235D01*
X00163515Y0026924D02*
X00182568D01*
X00149814Y00272866D02*
X00149816Y00272864D01*
X00180778Y0028172D02*
X0018415D01*
X0029845Y0011281D02*
X0031115Y0012551D01*
X0019939Y0013716D02*
X002974D01*
X0029845Y0013821D01*
X0031115Y0012551D02*
Y0018266D01*
X0029591Y001979D02*
X0031115Y0018266D01*
X0019605Y0026093D02*
X0022733Y0022965D01*
X00195719Y00261261D02*
X0019605Y0026093D01*
X00195719Y00261261D02*
X00195719Y00261261D01*
X00189091Y00267889D02*
X00189091Y00267889D01*
X0018876Y0026822D02*
X00189091Y00267889D01*
X00188484Y00268496D02*
X0018876Y0026822D01*
X0018774Y0026924D02*
X00188484Y00268496D01*
X00185732Y0026924D02*
X00185732D01*
X0018774D01*
X00146173Y00282006D02*
X00146173Y00282006D01*
X000889Y003175D02*
X00148958Y00257442D01*
X0006985Y002921D02*
X0009398D01*
X0005715Y003048D02*
X0006985Y002921D01*
X0009779Y0033147D02*
X00146173Y00283087D01*
X00081256Y00331494D02*
X0008255Y003302D01*
X00073636Y00331494D02*
X00081256D01*
X0006223Y003429D02*
X00073636Y00331494D01*
X0013335Y0033401D02*
X0014478Y0034544D01*
X00039588Y003429D02*
X0006223D01*
X000381Y00344388D02*
X00039588Y003429D01*
X00139952Y00376324D02*
X00140696Y0037558D01*
X0009779Y0033147D02*
Y0038608D01*
X0010668Y0033909D02*
Y00396108D01*
X00140934Y00375342D02*
X00140934Y00375342D01*
X00140696Y0037558D02*
X00140934Y00375342D01*
X00215138Y00343662D02*
X0031369Y0024511D01*
X00217794Y00350012D02*
X00313806Y00254D01*
X00211238Y00343662D02*
X00215138D01*
X0020946Y0034544D02*
X00211238Y00343662D01*
X00394342Y0023749D02*
X0039751D01*
X00403362Y00243342D01*
X0031369Y0024511D02*
X00391904D01*
X00392167Y00245373D01*
X0038862Y00260187D02*
X00403362Y00245446D01*
X00313806Y00254D02*
X00383794D01*
X003937Y00261573D02*
X00402543Y0025273D01*
X0040005Y00261838D02*
X00401538Y0026035D01*
X0040005Y00261838D02*
Y0039624D01*
X003937Y00261573D02*
Y0039751D01*
X0038862Y00260187D02*
Y00400049D01*
X00348022Y00355338D02*
X00348065Y00355295D01*
X00348022Y00355338D02*
Y00382008D01*
X00146173Y00282035D02*
Y00283087D01*
X00177116Y00285382D02*
X00180778Y0028172D01*
X00176898Y00285382D02*
X00177116D01*
X00358892Y00778508D02*
X00362663Y00844074D01*
X0036322Y00844631D01*
Y0091418D01*
X0027686Y005207D02*
X0034566D01*
X0034544Y0044047D02*
X0034671D01*
X0034544D02*
X0034671Y004392D01*
Y0038332D02*
Y004392D01*
Y0038332D02*
X0034798Y0038205D01*
X00348022Y00382008D01*
X0034671Y0044047D02*
X0036449Y0045825D01*
X0036576D01*
X0037592Y0044809D01*
X0034566Y005207D02*
X0039751Y0057255D01*
X0037592Y0041783D02*
Y0044809D01*
X0029591Y0059795D02*
X0030861Y0058525D01*
Y00558322D02*
Y0058525D01*
Y00558322D02*
X0031115Y00555782D01*
Y0055372D02*
Y00555782D01*
X0033274Y0056007D02*
Y006223D01*
Y0056007D02*
X0034417Y0054864D01*
X0037211Y0057255D02*
X0038481Y0058525D01*
X0035687Y0067564D02*
X00358358D01*
X00363438Y0068072D01*
X0097282Y0058293D02*
X0099187Y0056388D01*
X0100318Y00554058D02*
Y0062877D01*
X0097282Y0058293D02*
Y00622733D01*
X0095631Y0064262D02*
X0095758Y0064135D01*
X00964543Y0063101D02*
X0097282Y00622733D01*
X00946188Y0063101D02*
X00964543D01*
X0099187Y0064008D02*
X0100318Y0062877D01*
X0099187Y0064008D02*
Y0064135D01*
X0095758D02*
X009906D01*
X00818534Y00266426D02*
X00850758D01*
X00850812Y0026648D01*
X00869812D02*
X0086995Y00266618D01*
Y0028934D01*
X0092964Y0044069D02*
X0095631Y0041402D01*
X00762386Y0044069D02*
X0092964D01*
X00944354Y00451376D02*
X0095631Y0043942D01*
X0094361Y0045212D02*
X00944354Y00451376D01*
X00762244Y0045212D02*
X0094361D01*
X00708775Y00476966D02*
X00762244Y0045212D01*
X00703489Y0055257D02*
X00955131D01*
X00957489D02*
X01001692D01*
X0100318Y00554058D01*
X0059055Y0068072D02*
X0061762Y0065365D01*
X00698312D01*
X00706303D02*
X00923548D01*
X009906Y0064135D02*
X0099187Y0064262D01*
X00923548Y0065365D02*
X00946188Y0063101D01*
X0099187Y0064135D02*
Y0064262D01*
X008382Y00928725D02*
Y0093345D01*
Y00928725D02*
X00843262Y00923663D01*
Y00862347D02*
Y00923663D01*
X00491489Y000972D02*
X00531517Y0009826D01*
X00531567Y00098261D01*
X00531593Y00098261D01*
X00531611Y00098261D01*
X0056515D01*
X00566711D01*
X0056515D02*
Y0016637D01*
X00517038Y00194458D02*
X00517696D01*
X00521138Y001979D01*
X0052451D01*
X0051181Y002106D02*
X0052451Y001979D01*
X0051181Y002106D02*
Y0025146D01*
X0055753Y0028045D02*
X005715D01*
X005588Y0030585D02*
X0056896D01*
X0049784Y0034014D02*
X0055753Y0028045D01*
X0051435Y003503D02*
X005588Y0030585D01*
X0055753Y0033125D02*
X0057023D01*
X0052832Y0036046D02*
X0055753Y0033125D01*
X005588Y0035665D02*
X0056896D01*
X0054356Y0037189D02*
X005588Y0035665D01*
X0057785Y000762D02*
X0064643Y0014478D01*
X00566711Y00098261D02*
X00593635Y00125185D01*
X0057023Y0008382D02*
X00635Y0014859D01*
X00597426Y00368515D02*
X00597715Y00368226D01*
X00596752Y00369189D02*
X00597418Y00368523D01*
X005958Y00369254D02*
X00596752Y00369189D01*
X0059436Y0036935D02*
X005958Y00369254D01*
X0058166Y0037846D02*
X005842Y00381D01*
X00584202Y00381002D01*
X00585914Y0038227D02*
X00585914D01*
X005715Y0040767D02*
X006096D01*
X0057023Y0040894D02*
X005715Y0040767D01*
X0052832Y0051181D02*
X0053086D01*
X0053975Y0049911D02*
X0057404Y005334D01*
X0053086Y0051181D02*
X0056747Y0054842D01*
X0057404Y005334D02*
X0058039D01*
X0058166Y0053467D01*
X0056747Y0054842D02*
X0057404D01*
X0060684Y0038227D02*
X0061976Y0036935D01*
X00585914Y0038227D02*
X0060684D01*
X006096Y0040767D02*
X0061976Y0041783D01*
Y0042015D01*
X00657116Y00451594D02*
X0065786Y0045085D01*
X0062484Y0048387D02*
X00657116Y00451594D01*
X0059436Y0047095D02*
X0060728Y0048387D01*
X0062484D01*
X0061976Y0049635D02*
X00622144Y00498734D01*
X00627102D01*
X00627478Y0049911D01*
X00675005D01*
X0058166Y0053467D02*
X0060728D01*
X0061976Y0054715D01*
X0065024Y00609362D02*
X00658893Y0060071D01*
X0065024Y00609362D02*
Y006096D01*
X0064145Y0061839D02*
X0065024Y006096D01*
X0062748Y0061839D02*
X0064145D01*
X0058293Y0066294D02*
X0062748Y0061839D01*
X0077343Y0023622D02*
X0079375D01*
X00814634Y00257104D01*
Y00262526D01*
X00818534Y00266426D01*
X0079883Y0026713D02*
X00799534Y00266426D01*
X0079883Y0026713D02*
Y0028807D01*
X00741031Y00450613D02*
X00762386Y0044069D01*
X00740522Y0045085D02*
X00741031Y00450613D01*
X00704346Y0045085D02*
X00740522D01*
X0065786D02*
X00700274D01*
X00675005Y0049911D02*
X00686739Y00487376D01*
X0069457Y0055257D02*
X00701131D01*
X00693826Y00553314D02*
X0069457Y0055257D01*
X0068199Y0056515D02*
X00693826Y00553314D01*
X0068199Y0056515D02*
Y00599222D01*
X00680502Y0060071D02*
X0068199Y00599222D01*
X00658893Y0060071D02*
X00680502D01*
X00708266Y00477202D02*
X00708775Y00476966D01*
X00707468Y00477202D02*
X00707705D01*
X00707705D02*
X00708266D01*
X00686834Y00487281D02*
X00687057Y00487058D01*
X00686739Y00487376D02*
X00686834Y00487281D01*
X00446587Y00126765D02*
X00446984D01*
X0045085Y0011281D02*
X00453043Y00115003D01*
X0047625Y0011281D02*
X0047625D01*
X0037951Y000762D02*
X0057785D01*
X0047625Y0011281D02*
X0048895Y0012551D01*
X0040364Y0008382D02*
X0057023D01*
X0032385Y0011281D02*
X0033274Y001217D01*
Y00130031D01*
X0034925Y0011281D02*
X00351179Y00110881D01*
Y00104531D02*
Y00110881D01*
Y00104531D02*
X0037951Y000762D01*
X0037465Y0011281D02*
X0040364Y0008382D01*
X0040005Y0011281D02*
X0041275Y0012551D01*
X0042926D01*
X0042545Y0011281D02*
X0043158D01*
X00445535Y00126765D01*
X00446587D01*
X00332565Y00190562D02*
X00332565Y00190562D01*
X00332566Y0019056D02*
X0033274Y00190242D01*
Y00146389D02*
Y00190242D01*
X00383964Y00154296D02*
Y00227112D01*
Y00154296D02*
X0040005Y0013821D01*
X0042926Y0012551D02*
X0043688Y0013313D01*
Y0024638D01*
X0050419Y0018161D02*
X00517038Y00194458D01*
X0048514Y0019304D02*
X0049657Y0018161D01*
X0048895Y0015599D02*
X005012Y0016824D01*
X0049657Y0018161D02*
X0050419D01*
X005012Y0016824D02*
X00501713D01*
X00334155Y00197104D02*
X00334155D01*
X0032131Y002233D02*
X00332804Y00211806D01*
X00383964Y00227112D02*
X00394342Y0023749D01*
X0041021Y002106D02*
X0042291Y001979D01*
X00496726Y00225684D02*
Y00234794D01*
X0048514Y0019304D02*
Y0023241D01*
X0041021Y002106D02*
Y0023495D01*
X00496726Y00225684D02*
X0049911Y002233D01*
X0040894Y002794D02*
X0045212D01*
X00455161Y0012678D02*
X0045593D01*
X0046039Y0013124D01*
Y00134322D01*
Y00142099D02*
Y00142099D01*
Y0023176D01*
X0048895Y0012551D02*
Y0015599D01*
X00403362Y00243342D02*
Y00245446D01*
X0041021Y0023495D02*
X004191Y0024384D01*
X004318Y0026035D02*
X0046039Y0023176D01*
X0043053Y0025273D02*
X0043688Y0024638D01*
X0044958Y0026797D02*
X0048514Y0023241D01*
X00402543Y0025273D02*
X0043053D01*
X0045212Y002794D02*
X00496726Y00234794D01*
X00401538Y0026035D02*
X004318D01*
X0040767Y0026797D02*
X0044958D01*
X00130406Y00376324D02*
X00139952D01*
X00129662Y00377068D02*
X00130406Y00376324D01*
X00126474Y00380256D02*
X00129662Y00377068D01*
X0012573Y00381D02*
X00126474Y00380256D01*
X0012319Y00381D02*
X0012573D01*
X0009017Y003937D02*
X0009779Y0038608D01*
X00105981Y00396843D02*
X0010668Y00396108D01*
X00098884Y00404309D02*
X00105981Y00396843D01*
X00098855Y00404339D02*
X00098869Y00404324D01*
X00098835Y00404359D02*
X00098855Y00404339D01*
X00077965Y004191D02*
X00101382D01*
X00071338Y003937D02*
X0009017D01*
X0006985Y00395188D02*
X00071338Y003937D01*
X0006985Y00395188D02*
Y00411358D01*
X00083844Y00405106D02*
X00098088D01*
X0008255Y004064D02*
X00083844Y00405106D01*
X000381Y00344388D02*
Y0046736D01*
X0006985Y00411358D02*
X00077592Y004191D01*
X00077964D01*
X00077965Y004191D01*
X0005715Y004572D02*
X0005969D01*
X0006985Y0046736D01*
X000381D02*
X0003937Y0046863D01*
X0006985Y0046736D02*
Y0053975D01*
X00098088Y00405106D02*
X00098832Y00404362D01*
X00101382Y004191D02*
X0010287Y00420588D01*
Y0043688D01*
X0008255Y004572D02*
X0010287Y0043688D01*
X0012573Y0040259D02*
Y00508D01*
X0010414Y0052324D02*
X0012294D01*
X0013923Y0053953D01*
X0015494D02*
X0015875Y0053572D01*
X0013923Y0053953D02*
X0015494D01*
X0006985Y0053975D02*
X0008001Y0054991D01*
Y0054991D01*
X0010795Y0055858D02*
X001651D01*
X0008001Y0054991D02*
X0010287Y0057277D01*
X0019536D01*
X0008128Y0058801D02*
X0008255Y0058928D01*
X0022479Y0052451D02*
Y0054334D01*
X0018415Y0053572D02*
Y00539092D01*
X00180598Y00542644D02*
X0018415Y00539092D01*
X00180598Y00542644D02*
Y00543083D01*
X001651Y0055858D02*
X00180598Y00543083D01*
X0020828Y0058928D02*
X0027686Y005207D01*
X0019536Y0057277D02*
X0022479Y0054334D01*
X0025273Y0060198D02*
X0026416Y0061341D01*
X00149515Y0061087D02*
X0019812D01*
X0020193Y0061468D01*
X0026416Y0061341D02*
X0028702D01*
X0020193Y0061468D02*
X0021209D01*
X0027686Y0062611D02*
X002921Y0064135D01*
X0043688Y0043307D02*
Y0044577D01*
X0038862Y00400049D02*
X0040386Y00415289D01*
X0038989Y0044831D02*
X0040386Y0043434D01*
Y00415289D02*
Y0043434D01*
X003937Y0039751D02*
X0042418Y0042799D01*
X0040005Y0039624D02*
X0043688Y0043307D01*
X0042291Y0045593D02*
X0042418Y0045466D01*
Y0042799D02*
Y0045466D01*
X00436388Y00445278D02*
X0043688Y0044577D01*
X0039751Y0059795D02*
X0041021Y0058525D01*
X0040767Y0054991D02*
Y00551972D01*
X0041021Y00554512D01*
Y0058525D01*
X00420526Y00570166D02*
X0042291Y0057255D01*
Y0059795D02*
Y0059795D01*
X0047371Y0057255D02*
X0048641Y0058525D01*
Y006043D01*
X0030734Y0063373D02*
X0043793D01*
X0037338Y0066421D02*
X0037465Y0066294D01*
X0038481Y0058525D02*
Y0061976D01*
X0043793Y0063373D02*
X0047371Y0059795D01*
X0044936Y0064135D02*
X0048641Y006043D01*
X00496828Y00600233D02*
X0049911Y0059795D01*
X00363438Y0068072D02*
X0059055D01*
X0045974Y0064897D02*
X00496828Y00611882D01*
X0037465Y0066294D02*
X0058293D01*
X00496828Y00600233D02*
Y00611882D01*
X004572Y007874D02*
X0045847D01*
X0028702Y0061341D02*
X0030734Y0063373D01*
X002921Y0064135D02*
X0044936D01*
X0008255Y0058928D02*
X0020828D01*
X0014224Y00618145D02*
X00149515Y0061087D01*
X0014224Y00618145D02*
Y0061976D01*
X0013081Y0063373D02*
X00131426D01*
X00136506Y0063881D01*
X0015748D01*
D20*
X0037592Y0078105D02*
X00377295D01*
X00381105Y0077724D02*
X0041021D01*
X00377295Y0078105D02*
X00381105Y0077724D01*
X0041021D02*
X0044323Y0081026D01*
X00276629Y00696999D02*
X00292908Y0068072D01*
X00257348Y0071628D02*
X00276629Y00696999D01*
X0070639Y0086487D02*
X0070739D01*
X0051054Y0075819D02*
X0060071D01*
X007037Y0086218D02*
X0070639Y0086487D01*
X0060071Y0075819D02*
X007037Y0086118D01*
Y0086218D01*
X0003683Y002794D02*
X0005715D01*
X0001651Y0029972D02*
X0003683Y002794D01*
X0001651Y0029972D02*
Y0063754D01*
X0012297Y00744D01*
X0013716D01*
X0051816Y0077343D02*
Y00806353D01*
X00511637Y00812877D02*
X0051816Y00806353D01*
X00511637Y00812877D02*
Y00815626D01*
X0052197Y00825959D01*
Y0089386D01*
X00558417Y0086712D02*
X0058772D01*
X00557226Y0086831D02*
X00558417Y0086712D01*
X0058772D02*
X0059309Y0087249D01*
Y0089535D01*
X00557226Y0088101D02*
Y00912607D01*
X005588Y0091418D01*
X0070739Y0089027D02*
X0075311D01*
X00785831Y00922991D01*
Y00931081D01*
X007882Y0093345D01*
X0059309Y0054842D02*
X0059436Y0054715D01*
X0057404Y0054842D02*
X0059309D01*
X0057404D02*
Y00617836D01*
X00569576Y006223D02*
X0057404Y00617836D01*
X0051689Y006223D02*
X00569576D01*
X00618629Y0054715D02*
X0061976D01*
X002286Y0071628D02*
X00257348D01*
X0044323Y0081026D02*
X0045847D01*
X0051054Y0075819D01*
X0049657Y0088101D02*
Y0091418D01*
X00292908Y0068072D02*
X0031369D01*
X00314415Y00681445D01*
D23*
X00799534Y00266426D02*
D03*
X00818534D02*
D03*
X00869812Y0026648D02*
D03*
X00850812D02*
D03*
D69*
X00140696Y0037558D02*
D03*
X00707705Y00477202D02*
D03*
X00446587Y00126765D02*
D03*
D70*
X0029675Y0086952D02*
Y00874544D01*
X00301046Y0087884D01*
X0030353D01*
X00308529D01*
X00343869Y0091418D01*
X0036322D01*
X0063119Y0089132D02*
X00632271D01*
X00632329Y00891377D01*
X00630051D02*
X00632329D01*
X00650051Y009091D01*
X00607249Y0091418D02*
X00630051Y00891377D01*
X0049657Y0091418D02*
X005588D01*
X00607249D01*
X00650051Y009091D02*
X00685989D01*
X00693428Y00901661D01*
Y00898233D02*
Y00901661D01*
Y00898233D02*
X00698346D01*
X00706309Y0089027D01*
X0070739D01*
X00062391Y0078105D02*
X0020828D01*
X0029675Y0086952D01*
X0036322Y0091418D02*
X0049657D01*
X0005207Y0078105D02*
X00062391D01*
D71*
X00557226Y0086831D02*
D03*
X0049657Y0086831D02*
D03*
D72*
X00557226Y0088101D02*
D03*
X0049657Y0088101D02*
D03*
D73*
X0063119Y0086592D02*
D03*
X0070739Y0086487D02*
D03*
D74*
X0063119Y0089132D02*
D03*
X0070739Y0089027D02*
D03*
D75*
X0043532Y0094085D02*
D03*
X0041832D02*
D03*
X0040132D02*
D03*
Y0099085D02*
D03*
X0041832D02*
D03*
X0043532D02*
D03*
D76*
X0049657Y0096901D02*
D03*
X0064516D02*
D03*
D77*
X0052197D02*
D03*
X0054737D02*
D03*
X0067056D02*
D03*
X0069596D02*
D03*
D78*
X0066548Y0020828D02*
D03*
X0061976Y0026775D02*
D03*
X0099187Y0020828D02*
D03*
X0015875Y0053572D02*
D03*
D79*
X0066548Y0023368D02*
D03*
Y0025908D02*
D03*
Y0028448D02*
D03*
Y0030988D02*
D03*
Y0033528D02*
D03*
Y0036068D02*
D03*
Y0038608D02*
D03*
Y0041148D02*
D03*
Y0043688D02*
D03*
Y0046228D02*
D03*
Y0048768D02*
D03*
Y0051308D02*
D03*
Y0053848D02*
D03*
Y0056388D02*
D03*
Y0058928D02*
D03*
Y0061468D02*
D03*
Y0064008D02*
D03*
Y0066548D02*
D03*
Y0069088D02*
D03*
X0059436Y0054715D02*
D03*
X0061976D02*
D03*
X0059436Y0052175D02*
D03*
X0061976D02*
D03*
X0059436Y0049635D02*
D03*
X0061976D02*
D03*
X0059436Y0047095D02*
D03*
X0061976D02*
D03*
X0059436Y0044555D02*
D03*
X0061976D02*
D03*
X0059436Y0042015D02*
D03*
X0061976D02*
D03*
X0059436Y0039475D02*
D03*
X0061976D02*
D03*
X0059436Y0036935D02*
D03*
X0061976D02*
D03*
X0059436Y0034395D02*
D03*
X0061976D02*
D03*
X0059436Y0031855D02*
D03*
X0061976D02*
D03*
X0059436Y0029315D02*
D03*
X0061976D02*
D03*
X0059436Y0026775D02*
D03*
X0027051Y0057255D02*
D03*
Y0059795D02*
D03*
X0029591Y0057255D02*
D03*
Y0059795D02*
D03*
X0032131Y0057255D02*
D03*
Y0059795D02*
D03*
X0034671Y0057255D02*
D03*
Y0059795D02*
D03*
X0037211Y0057255D02*
D03*
Y0059795D02*
D03*
X0039751Y0057255D02*
D03*
Y0059795D02*
D03*
X0042291Y0057255D02*
D03*
Y0059795D02*
D03*
X0044831Y0057255D02*
D03*
Y0059795D02*
D03*
X0047371Y0057255D02*
D03*
Y0059795D02*
D03*
X0049911Y0057255D02*
D03*
Y0059795D02*
D03*
X0052451Y0057255D02*
D03*
Y0059795D02*
D03*
X0054991Y0057255D02*
D03*
X0099187Y0023368D02*
D03*
Y0025908D02*
D03*
Y0028448D02*
D03*
Y0030988D02*
D03*
Y0033528D02*
D03*
Y0036068D02*
D03*
Y0038608D02*
D03*
Y0041148D02*
D03*
Y0043688D02*
D03*
Y0046228D02*
D03*
Y0048768D02*
D03*
Y0051308D02*
D03*
Y0053848D02*
D03*
Y0056388D02*
D03*
Y0058928D02*
D03*
Y0061468D02*
D03*
Y0064008D02*
D03*
Y0066548D02*
D03*
Y0069088D02*
D03*
X00792462Y00862347D02*
D03*
X00817862D02*
D03*
X00843262D02*
D03*
X0018415Y0025632D02*
D03*
X0015875D02*
D03*
X0018415Y0028172D02*
D03*
X0015875D02*
D03*
X0018415Y0030712D02*
D03*
X0015875D02*
D03*
X0018415Y0033252D02*
D03*
X0015875D02*
D03*
X0018415Y0035792D02*
D03*
X0015875D02*
D03*
X0018415Y0038332D02*
D03*
X0015875D02*
D03*
X0018415Y0040872D02*
D03*
X0015875D02*
D03*
X0018415Y0043412D02*
D03*
X0015875D02*
D03*
X0018415Y0045952D02*
D03*
X0015875D02*
D03*
X0018415Y0048492D02*
D03*
X0015875D02*
D03*
X0018415Y0051032D02*
D03*
X0015875D02*
D03*
X0018415Y0053572D02*
D03*
X0027051Y002233D02*
D03*
X0029591Y001979D02*
D03*
Y002233D02*
D03*
X0032131Y001979D02*
D03*
Y002233D02*
D03*
X0034671Y001979D02*
D03*
Y002233D02*
D03*
X0037211Y001979D02*
D03*
Y002233D02*
D03*
X0039751Y001979D02*
D03*
Y002233D02*
D03*
X0042291Y001979D02*
D03*
Y002233D02*
D03*
X0044831Y001979D02*
D03*
Y002233D02*
D03*
X0047371Y001979D02*
D03*
Y002233D02*
D03*
X0049911Y001979D02*
D03*
Y002233D02*
D03*
X0052451Y001979D02*
D03*
Y002233D02*
D03*
X0054991Y001979D02*
D03*
Y002233D02*
D03*
D80*
Y0059795D02*
D03*
X00767063Y00862347D02*
D03*
X0027051Y001979D02*
D03*
D81*
X003302Y0080899D02*
D03*
D82*
X004064D02*
D03*
D83*
X0095631Y0023622D02*
D03*
Y0026162D02*
D03*
Y0028702D02*
D03*
Y0031242D02*
D03*
Y0033782D02*
D03*
Y0036322D02*
D03*
Y0038862D02*
D03*
Y0041402D02*
D03*
Y0043942D02*
D03*
Y0046482D02*
D03*
Y0049022D02*
D03*
Y0051562D02*
D03*
Y0054102D02*
D03*
Y0056642D02*
D03*
Y0059182D02*
D03*
Y0061722D02*
D03*
Y0064262D02*
D03*
Y0066802D02*
D03*
Y0069342D02*
D03*
X0070231Y0026162D02*
D03*
Y0028702D02*
D03*
Y0031242D02*
D03*
Y0033782D02*
D03*
Y0036322D02*
D03*
Y0038862D02*
D03*
Y0041402D02*
D03*
Y0043942D02*
D03*
Y0046482D02*
D03*
Y0049022D02*
D03*
Y0051562D02*
D03*
Y0054102D02*
D03*
Y0056642D02*
D03*
Y0059182D02*
D03*
Y0061722D02*
D03*
Y0064262D02*
D03*
Y0023622D02*
D03*
Y0066802D02*
D03*
D84*
Y0069342D02*
D03*
D85*
X0090889Y0011778D02*
D03*
Y0091778D02*
D03*
X0010889Y0011778D02*
D03*
Y0091778D02*
D03*
D86*
X008382Y0093345D02*
D03*
X008132D02*
D03*
X007882D02*
D03*
D87*
X007632D02*
D03*
D88*
X0052705Y0011281D02*
D03*
X0050165D02*
D03*
X0047625D02*
D03*
X0045085D02*
D03*
X0042545D02*
D03*
X0040005D02*
D03*
X0037465D02*
D03*
X0034925D02*
D03*
X0032385D02*
D03*
X0029845D02*
D03*
Y0013821D02*
D03*
D03*
D03*
X0052705D02*
D03*
X0050165D02*
D03*
X0047625D02*
D03*
X0045085D02*
D03*
X0042545D02*
D03*
X0040005D02*
D03*
X0037465D02*
D03*
X0034925D02*
D03*
X0032385D02*
D03*
X0029845D02*
D03*
D03*
X0005715Y002794D02*
D03*
D03*
Y003048D02*
D03*
Y003302D02*
D03*
Y003556D02*
D03*
Y00381D02*
D03*
Y004064D02*
D03*
Y004318D02*
D03*
Y004572D02*
D03*
Y004826D02*
D03*
Y00508D02*
D03*
Y002794D02*
D03*
D03*
D03*
X0008255D02*
D03*
Y003048D02*
D03*
Y003302D02*
D03*
Y003556D02*
D03*
Y00381D02*
D03*
Y004064D02*
D03*
Y004318D02*
D03*
Y004572D02*
D03*
Y004826D02*
D03*
Y00508D02*
D03*
D89*
X00062391Y0083185D02*
D03*
Y0078105D02*
D03*
D90*
X00208528Y0087884D02*
D03*
X00303529D02*
D03*
D91*
X0024511Y0062611D02*
D03*
X0004445Y0049414D02*
D03*
X0004318Y0057404D02*
D03*
X0057531Y0017653D02*
D03*
X0048895Y0010033D02*
D03*
X0052197Y0089386D02*
D03*
X0051689Y006223D02*
D03*
X0051816Y0077343D02*
D03*
X0045847Y007874D02*
D03*
X00511637Y00814251D02*
D03*
X0077343Y0023622D02*
D03*
X0079883Y0028807D02*
D03*
X0086995Y0028934D02*
D03*
X00593635Y00125185D02*
D03*
X00501713Y0016824D02*
D03*
X00151701Y00224397D02*
D03*
X0019558Y0024235D02*
D03*
X0022733Y0022965D02*
D03*
X0012319Y00381D02*
D03*
X0034798Y0038205D02*
D03*
X00348065Y00355295D02*
D03*
X0003937Y0046863D02*
D03*
X0010414Y0052324D02*
D03*
X0010795Y0055858D02*
D03*
X0022479Y0052451D02*
D03*
X0034544Y0044047D02*
D03*
X0037592Y0041783D02*
D03*
X0008128Y0058801D02*
D03*
X0013716Y00744D02*
D03*
X0014224Y0061976D02*
D03*
X002286Y0071628D02*
D03*
X0027686Y0062611D02*
D03*
X00314415Y00681445D02*
D03*
X0035687Y0067564D02*
D03*
X0037338Y0066421D02*
D03*
X0037592Y0078105D02*
D03*
X0053975Y0049911D02*
D03*
X0052832Y0051181D02*
D03*
D92*
X00635Y0025019D02*
D03*
X0059309Y0089535D02*
D03*
X0040767Y0054991D02*
D03*
X004191Y0024384D02*
D03*
X0051181Y0025146D02*
D03*
X0057023Y0040894D02*
D03*
X0031115Y0055372D02*
D03*
X0034417Y0054864D02*
D03*
X0038989Y0044831D02*
D03*
X0033274Y006223D02*
D03*
X0038481Y0061976D02*
D03*
X00436388Y00445278D02*
D03*
X0042291Y0045593D02*
D03*
D93*
X00383794Y00254D02*
D03*
X00392167Y00245373D02*
D03*
X0012573Y0040259D02*
D03*
X0013335Y0033401D02*
D03*
X0040767Y0026797D02*
D03*
X0040894Y002794D02*
D03*
X0049784Y0034014D02*
D03*
X0051435Y003503D02*
D03*
X0052832Y0036046D02*
D03*
X0054356Y0037189D02*
D03*
X005715Y0028045D02*
D03*
Y0030585D02*
D03*
Y0033125D02*
D03*
Y0035665D02*
D03*
X0012573Y00508D02*
D03*
X0013081Y0063373D02*
D03*
X0021209Y0061468D02*
D03*
D94*
X0036576Y0045825D02*
D03*
M02*
