G04*
G04 #@! TF.GenerationSoftware,Altium Limited,Altium Designer,21.3.2 (30)*
G04*
G04 Layer_Color=128*
%FSTAX44Y44*%
%MOMM*%
G71*
G04*
G04 #@! TF.SameCoordinates,F8E9BDDD-FC12-4FEB-8D7F-7DE70A56B409*
G04*
G04*
G04 #@! TF.FilePolarity,Positive*
G04*
G01*
G75*
%ADD95C,0.0508*%
D95*
X00554227Y0086831D02*
X00560227D01*
X00557226Y0086531D02*
Y0087131D01*
X00554227Y0088101D02*
X00560227D01*
X00557226Y0087801D02*
Y0088401D01*
X0049357Y0086831D02*
X0049957D01*
X0049657Y0086531D02*
Y0087131D01*
X0049357Y0088101D02*
X0049957D01*
X0049657Y0087801D02*
Y0088401D01*
X0062719Y0086592D02*
X0063519D01*
X0063119Y0086192D02*
Y0086992D01*
X0062719Y0089132D02*
X0063519D01*
X0063119Y0088732D02*
Y0089532D01*
X0043157Y0094085D02*
X0043907D01*
X0043532Y009371D02*
Y009446D01*
X0041457Y0094085D02*
X0042207D01*
X0041832Y009371D02*
Y009446D01*
X0039757Y0094085D02*
X0040507D01*
X0040132Y009371D02*
Y009446D01*
X0039757Y0099085D02*
X0040507D01*
X0040132Y009871D02*
Y009946D01*
X0041457Y0099085D02*
X0042207D01*
X0041832Y009871D02*
Y009946D01*
X0043157Y0099085D02*
X0043907D01*
X0043532Y009871D02*
Y009946D01*
X0049037Y0096901D02*
X0050277D01*
X0049657Y0096281D02*
Y0097521D01*
X0051577Y0096901D02*
X0052817D01*
X0052197Y0096281D02*
Y0097521D01*
X0054117Y0096901D02*
X0055357D01*
X0054737Y0096281D02*
Y0097521D01*
X0063896Y0096901D02*
X0065136D01*
X0064516Y0096281D02*
Y0097521D01*
X0066436Y0096901D02*
X0067676D01*
X0067056Y0096281D02*
Y0097521D01*
X0068976Y0096901D02*
X0070216D01*
X0069596Y0096281D02*
Y0097521D01*
X0066098Y0020828D02*
X0066998D01*
X0066548Y0020378D02*
Y0021278D01*
X0066098Y0023368D02*
X0066998D01*
X0066548Y0022918D02*
Y0023818D01*
X0066098Y0025908D02*
X0066998D01*
X0066548Y0025458D02*
Y0026358D01*
X0066098Y0028448D02*
X0066998D01*
X0066548Y0027998D02*
Y0028898D01*
X0066098Y0030988D02*
X0066998D01*
X0066548Y0030538D02*
Y0031438D01*
X0066098Y0033528D02*
X0066998D01*
X0066548Y0033078D02*
Y0033978D01*
X0066098Y0036068D02*
X0066998D01*
X0066548Y0035618D02*
Y0036518D01*
X0066098Y0038608D02*
X0066998D01*
X0066548Y0038158D02*
Y0039058D01*
X0066098Y0041148D02*
X0066998D01*
X0066548Y0040698D02*
Y0041598D01*
X0066098Y0043688D02*
X0066998D01*
X0066548Y0043238D02*
Y0044138D01*
X0066098Y0046228D02*
X0066998D01*
X0066548Y0045778D02*
Y0046678D01*
X0066098Y0048768D02*
X0066998D01*
X0066548Y0048318D02*
Y0049218D01*
X0066098Y0051308D02*
X0066998D01*
X0066548Y0050858D02*
Y0051758D01*
X0066098Y0053848D02*
X0066998D01*
X0066548Y0053398D02*
Y0054298D01*
X0066098Y0056388D02*
X0066998D01*
X0066548Y0055938D02*
Y0056838D01*
X0066098Y0058928D02*
X0066998D01*
X0066548Y0058478D02*
Y0059378D01*
X0066098Y0061468D02*
X0066998D01*
X0066548Y0061018D02*
Y0061918D01*
X0066098Y0064008D02*
X0066998D01*
X0066548Y0063558D02*
Y0064458D01*
X0066098Y0066548D02*
X0066998D01*
X0066548Y0066098D02*
Y0066998D01*
X0066098Y0069088D02*
X0066998D01*
X0066548Y0068638D02*
Y0069538D01*
X0058986Y0054715D02*
X0059886D01*
X0059436Y0054265D02*
Y0055165D01*
X0061526Y0054715D02*
X0062426D01*
X0061976Y0054265D02*
Y0055165D01*
X0058986Y0052175D02*
X0059886D01*
X0059436Y0051725D02*
Y0052625D01*
X0061526Y0052175D02*
X0062426D01*
X0061976Y0051725D02*
Y0052625D01*
X0058986Y0049635D02*
X0059886D01*
X0059436Y0049185D02*
Y0050085D01*
X0061526Y0049635D02*
X0062426D01*
X0061976Y0049185D02*
Y0050085D01*
X0058986Y0047095D02*
X0059886D01*
X0059436Y0046645D02*
Y0047545D01*
X0061526Y0047095D02*
X0062426D01*
X0061976Y0046645D02*
Y0047545D01*
X0058986Y0044555D02*
X0059886D01*
X0059436Y0044105D02*
Y0045005D01*
X0061526Y0044555D02*
X0062426D01*
X0061976Y0044105D02*
Y0045005D01*
X0058986Y0042015D02*
X0059886D01*
X0059436Y0041565D02*
Y0042465D01*
X0061526Y0042015D02*
X0062426D01*
X0061976Y0041565D02*
Y0042465D01*
X0058986Y0039475D02*
X0059886D01*
X0059436Y0039025D02*
Y0039925D01*
X0061526Y0039475D02*
X0062426D01*
X0061976Y0039025D02*
Y0039925D01*
X0058986Y0036935D02*
X0059886D01*
X0059436Y0036485D02*
Y0037385D01*
X0061526Y0036935D02*
X0062426D01*
X0061976Y0036485D02*
Y0037385D01*
X0058986Y0034395D02*
X0059886D01*
X0059436Y0033945D02*
Y0034845D01*
X0061526Y0034395D02*
X0062426D01*
X0061976Y0033945D02*
Y0034845D01*
X0058986Y0031855D02*
X0059886D01*
X0059436Y0031405D02*
Y0032305D01*
X0061526Y0031855D02*
X0062426D01*
X0061976Y0031405D02*
Y0032305D01*
X0058986Y0029315D02*
X0059886D01*
X0059436Y0028865D02*
Y0029765D01*
X0061526Y0029315D02*
X0062426D01*
X0061976Y0028865D02*
Y0029765D01*
X0058986Y0026775D02*
X0059886D01*
X0059436Y0026325D02*
Y0027225D01*
X0061526Y0026775D02*
X0062426D01*
X0061976Y0026325D02*
Y0027225D01*
X0026601Y0057255D02*
X0027501D01*
X0027051Y0056805D02*
Y0057705D01*
X0026601Y0059795D02*
X0027501D01*
X0027051Y0059345D02*
Y0060245D01*
X0029141Y0057255D02*
X0030041D01*
X0029591Y0056805D02*
Y0057705D01*
X0029141Y0059795D02*
X0030041D01*
X0029591Y0059345D02*
Y0060245D01*
X0031681Y0057255D02*
X0032581D01*
X0032131Y0056805D02*
Y0057705D01*
X0031681Y0059795D02*
X0032581D01*
X0032131Y0059345D02*
Y0060245D01*
X0034221Y0057255D02*
X0035121D01*
X0034671Y0056805D02*
Y0057705D01*
X0034221Y0059795D02*
X0035121D01*
X0034671Y0059345D02*
Y0060245D01*
X0036761Y0057255D02*
X0037661D01*
X0037211Y0056805D02*
Y0057705D01*
X0036761Y0059795D02*
X0037661D01*
X0037211Y0059345D02*
Y0060245D01*
X0039301Y0057255D02*
X0040201D01*
X0039751Y0056805D02*
Y0057705D01*
X0039301Y0059795D02*
X0040201D01*
X0039751Y0059345D02*
Y0060245D01*
X0041841Y0057255D02*
X0042741D01*
X0042291Y0056805D02*
Y0057705D01*
X0041841Y0059795D02*
X0042741D01*
X0042291Y0059345D02*
Y0060245D01*
X0044381Y0057255D02*
X0045281D01*
X0044831Y0056805D02*
Y0057705D01*
X0044381Y0059795D02*
X0045281D01*
X0044831Y0059345D02*
Y0060245D01*
X0046921Y0057255D02*
X0047821D01*
X0047371Y0056805D02*
Y0057705D01*
X0046921Y0059795D02*
X0047821D01*
X0047371Y0059345D02*
Y0060245D01*
X0049461Y0057255D02*
X0050361D01*
X0049911Y0056805D02*
Y0057705D01*
X0049461Y0059795D02*
X0050361D01*
X0049911Y0059345D02*
Y0060245D01*
X0052001Y0057255D02*
X0052901D01*
X0052451Y0056805D02*
Y0057705D01*
X0052001Y0059795D02*
X0052901D01*
X0052451Y0059345D02*
Y0060245D01*
X0054541Y0057255D02*
X0055441D01*
X0054991Y0056805D02*
Y0057705D01*
X0054541Y0059795D02*
X0055441D01*
X0054991Y0059345D02*
Y0060245D01*
X00325755Y0080899D02*
X00334645D01*
X003302Y00804545D02*
Y00813435D01*
X00401955Y0080899D02*
X00410845D01*
X004064Y00804545D02*
Y00813435D01*
X0095111Y0023622D02*
X0096151D01*
X0095631Y0023102D02*
Y0024142D01*
X0095111Y0026162D02*
X0096151D01*
X0095631Y0025642D02*
Y0026682D01*
X0095111Y0028702D02*
X0096151D01*
X0095631Y0028182D02*
Y0029222D01*
X0095111Y0031242D02*
X0096151D01*
X0095631Y0030722D02*
Y0031762D01*
X0095111Y0033782D02*
X0096151D01*
X0095631Y0033262D02*
Y0034302D01*
X0095111Y0036322D02*
X0096151D01*
X0095631Y0035802D02*
Y0036842D01*
X0095111Y0038862D02*
X0096151D01*
X0095631Y0038342D02*
Y0039382D01*
X0095111Y0041402D02*
X0096151D01*
X0095631Y0040882D02*
Y0041922D01*
X0095111Y0043942D02*
X0096151D01*
X0095631Y0043422D02*
Y0044462D01*
X0095111Y0046482D02*
X0096151D01*
X0095631Y0045962D02*
Y0047002D01*
X0095111Y0049022D02*
X0096151D01*
X0095631Y0048502D02*
Y0049542D01*
X0095111Y0051562D02*
X0096151D01*
X0095631Y0051042D02*
Y0052082D01*
X0095111Y0054102D02*
X0096151D01*
X0095631Y0053582D02*
Y0054622D01*
X0095111Y0056642D02*
X0096151D01*
X0095631Y0056122D02*
Y0057162D01*
X0095111Y0059182D02*
X0096151D01*
X0095631Y0058662D02*
Y0059702D01*
X0095111Y0061722D02*
X0096151D01*
X0095631Y0061202D02*
Y0062242D01*
X0095111Y0064262D02*
X0096151D01*
X0095631Y0063742D02*
Y0064782D01*
X0095111Y0066802D02*
X0096151D01*
X0095631Y0066282D02*
Y0067322D01*
X0095111Y0069342D02*
X0096151D01*
X0095631Y0068822D02*
Y0069862D01*
X0069711Y0026162D02*
X0070751D01*
X0070231Y0025642D02*
Y0026682D01*
X0069711Y0028702D02*
X0070751D01*
X0070231Y0028182D02*
Y0029222D01*
X0069711Y0031242D02*
X0070751D01*
X0070231Y0030722D02*
Y0031762D01*
X0069711Y0033782D02*
X0070751D01*
X0070231Y0033262D02*
Y0034302D01*
X0069711Y0036322D02*
X0070751D01*
X0070231Y0035802D02*
Y0036842D01*
X0069711Y0038862D02*
X0070751D01*
X0070231Y0038342D02*
Y0039382D01*
X0069711Y0041402D02*
X0070751D01*
X0070231Y0040882D02*
Y0041922D01*
X0069711Y0043942D02*
X0070751D01*
X0070231Y0043422D02*
Y0044462D01*
X0069711Y0046482D02*
X0070751D01*
X0070231Y0045962D02*
Y0047002D01*
X0069711Y0049022D02*
X0070751D01*
X0070231Y0048502D02*
Y0049542D01*
X0069711Y0051562D02*
X0070751D01*
X0070231Y0051042D02*
Y0052082D01*
X0069711Y0054102D02*
X0070751D01*
X0070231Y0053582D02*
Y0054622D01*
X0069711Y0056642D02*
X0070751D01*
X0070231Y0056122D02*
Y0057162D01*
X0069711Y0059182D02*
X0070751D01*
X0070231Y0058662D02*
Y0059702D01*
X0069711Y0061722D02*
X0070751D01*
X0070231Y0061202D02*
Y0062242D01*
X0069711Y0064262D02*
X0070751D01*
X0070231Y0063742D02*
Y0064782D01*
X0069711Y0023622D02*
X0070751D01*
X0070231Y0023102D02*
Y0024142D01*
X0069711Y0066802D02*
X0070751D01*
X0070231Y0066282D02*
Y0067322D01*
X0069711Y0069342D02*
X0070751D01*
X0070231Y0068822D02*
Y0069862D01*
X0089139Y0011778D02*
X0092639D01*
X0090889Y0010028D02*
Y0013528D01*
X0098737Y0020828D02*
X0099637D01*
X0099187Y0020378D02*
Y0021278D01*
X0098737Y0023368D02*
X0099637D01*
X0099187Y0022918D02*
Y0023818D01*
X0098737Y0025908D02*
X0099637D01*
X0099187Y0025458D02*
Y0026358D01*
X0098737Y0028448D02*
X0099637D01*
X0099187Y0027998D02*
Y0028898D01*
X0098737Y0030988D02*
X0099637D01*
X0099187Y0030538D02*
Y0031438D01*
X0098737Y0033528D02*
X0099637D01*
X0099187Y0033078D02*
Y0033978D01*
X0098737Y0036068D02*
X0099637D01*
X0099187Y0035618D02*
Y0036518D01*
X0098737Y0038608D02*
X0099637D01*
X0099187Y0038158D02*
Y0039058D01*
X0098737Y0041148D02*
X0099637D01*
X0099187Y0040698D02*
Y0041598D01*
X0098737Y0043688D02*
X0099637D01*
X0099187Y0043238D02*
Y0044138D01*
X0098737Y0046228D02*
X0099637D01*
X0099187Y0045778D02*
Y0046678D01*
X0098737Y0048768D02*
X0099637D01*
X0099187Y0048318D02*
Y0049218D01*
X0098737Y0051308D02*
X0099637D01*
X0099187Y0050858D02*
Y0051758D01*
X0098737Y0053848D02*
X0099637D01*
X0099187Y0053398D02*
Y0054298D01*
X0098737Y0056388D02*
X0099637D01*
X0099187Y0055938D02*
Y0056838D01*
X0098737Y0058928D02*
X0099637D01*
X0099187Y0058478D02*
Y0059378D01*
X0098737Y0061468D02*
X0099637D01*
X0099187Y0061018D02*
Y0061918D01*
X0098737Y0064008D02*
X0099637D01*
X0099187Y0063558D02*
Y0064458D01*
X0098737Y0066548D02*
X0099637D01*
X0099187Y0066098D02*
Y0066998D01*
X0098737Y0069088D02*
X0099637D01*
X0099187Y0068638D02*
Y0069538D01*
X0070339Y0086487D02*
X0071139D01*
X0070739Y0086087D02*
Y0086887D01*
X0070339Y0089027D02*
X0071139D01*
X0070739Y0088627D02*
Y0089427D01*
X00833755Y0093345D02*
X00842645D01*
X008382Y00929005D02*
Y00937895D01*
X00808755Y0093345D02*
X00817645D01*
X008132Y00929005D02*
Y00937895D01*
X00783755Y0093345D02*
X00792645D01*
X007882Y00929005D02*
Y00937895D01*
X00758755Y0093345D02*
X00767645D01*
X007632Y00929005D02*
Y00937895D01*
X00762562Y00862347D02*
X00771562D01*
X00767063Y00857848D02*
Y00866848D01*
X00787962Y00862347D02*
X00796963D01*
X00792462Y00857848D02*
Y00866848D01*
X00813363Y00862347D02*
X00822363D01*
X00817862Y00857848D02*
Y00866848D01*
X00838763Y00862347D02*
X00847763D01*
X00843262Y00857848D02*
Y00866848D01*
X0089139Y0091778D02*
X0092639D01*
X0090889Y0090028D02*
Y0093528D01*
X0052185Y0011281D02*
X0053225D01*
X0052705Y0010761D02*
Y0011801D01*
X0049645Y0011281D02*
X0050685D01*
X0050165Y0010761D02*
Y0011801D01*
X0047105Y0011281D02*
X0048145D01*
X0047625Y0010761D02*
Y0011801D01*
X0044565Y0011281D02*
X0045605D01*
X0045085Y0010761D02*
Y0011801D01*
X0042025Y0011281D02*
X0043065D01*
X0042545Y0010761D02*
Y0011801D01*
X0039485Y0011281D02*
X0040525D01*
X0040005Y0010761D02*
Y0011801D01*
X0036945Y0011281D02*
X0037985D01*
X0037465Y0010761D02*
Y0011801D01*
X0034405Y0011281D02*
X0035445D01*
X0034925Y0010761D02*
Y0011801D01*
X0031865Y0011281D02*
X0032905D01*
X0032385Y0010761D02*
Y0011801D01*
X0029325Y0011281D02*
X0030365D01*
X0029845Y0010761D02*
Y0011801D01*
X0029325Y0013821D02*
X0030365D01*
X0029845Y0013301D02*
Y0014341D01*
X0029325Y0013821D02*
X0030365D01*
X0029845Y0013301D02*
Y0014341D01*
X0029325Y0013821D02*
X0030365D01*
X0029845Y0013301D02*
Y0014341D01*
X0052185Y0013821D02*
X0053225D01*
X0052705Y0013301D02*
Y0014341D01*
X0049645Y0013821D02*
X0050685D01*
X0050165Y0013301D02*
Y0014341D01*
X0047105Y0013821D02*
X0048145D01*
X0047625Y0013301D02*
Y0014341D01*
X0044565Y0013821D02*
X0045605D01*
X0045085Y0013301D02*
Y0014341D01*
X0042025Y0013821D02*
X0043065D01*
X0042545Y0013301D02*
Y0014341D01*
X0039485Y0013821D02*
X0040525D01*
X0040005Y0013301D02*
Y0014341D01*
X0036945Y0013821D02*
X0037985D01*
X0037465Y0013301D02*
Y0014341D01*
X0034405Y0013821D02*
X0035445D01*
X0034925Y0013301D02*
Y0014341D01*
X0031865Y0013821D02*
X0032905D01*
X0032385Y0013301D02*
Y0014341D01*
X0029325Y0013821D02*
X0030365D01*
X0029845Y0013301D02*
Y0014341D01*
X0029325Y0013821D02*
X0030365D01*
X0029845Y0013301D02*
Y0014341D01*
X0005195Y002794D02*
X0006235D01*
X0005715Y002742D02*
Y002846D01*
X0005195Y002794D02*
X0006235D01*
X0005715Y002742D02*
Y002846D01*
X0005195Y003048D02*
X0006235D01*
X0005715Y002996D02*
Y0031D01*
X0005195Y003302D02*
X0006235D01*
X0005715Y00325D02*
Y003354D01*
X0005195Y003556D02*
X0006235D01*
X0005715Y003504D02*
Y003608D01*
X0005195Y00381D02*
X0006235D01*
X0005715Y003758D02*
Y003862D01*
X0005195Y004064D02*
X0006235D01*
X0005715Y004012D02*
Y004116D01*
X0005195Y004318D02*
X0006235D01*
X0005715Y004266D02*
Y00437D01*
X0005195Y004572D02*
X0006235D01*
X0005715Y00452D02*
Y004624D01*
X0005195Y004826D02*
X0006235D01*
X0005715Y004774D02*
Y004878D01*
X0005195Y00508D02*
X0006235D01*
X0005715Y005028D02*
Y005132D01*
X0005195Y002794D02*
X0006235D01*
X0005715Y002742D02*
Y002846D01*
X0005195Y002794D02*
X0006235D01*
X0005715Y002742D02*
Y002846D01*
X0005195Y002794D02*
X0006235D01*
X0005715Y002742D02*
Y002846D01*
X0007735Y002794D02*
X0008775D01*
X0008255Y002742D02*
Y002846D01*
X0007735Y003048D02*
X0008775D01*
X0008255Y002996D02*
Y0031D01*
X0007735Y003302D02*
X0008775D01*
X0008255Y00325D02*
Y003354D01*
X0007735Y003556D02*
X0008775D01*
X0008255Y003504D02*
Y003608D01*
X0007735Y00381D02*
X0008775D01*
X0008255Y003758D02*
Y003862D01*
X0007735Y004064D02*
X0008775D01*
X0008255Y004012D02*
Y004116D01*
X0007735Y004318D02*
X0008775D01*
X0008255Y004266D02*
Y00437D01*
X0007735Y004572D02*
X0008775D01*
X0008255Y00452D02*
Y004624D01*
X0007735Y004826D02*
X0008775D01*
X0008255Y004774D02*
Y004878D01*
X0007735Y00508D02*
X0008775D01*
X0008255Y005028D02*
Y005132D01*
X0009139Y0011778D02*
X0012639D01*
X0010889Y0010028D02*
Y0013528D01*
X0017965Y0025632D02*
X0018865D01*
X0018415Y0025182D02*
Y0026082D01*
X0015425Y0025632D02*
X0016325D01*
X0015875Y0025182D02*
Y0026082D01*
X0017965Y0028172D02*
X0018865D01*
X0018415Y0027722D02*
Y0028622D01*
X0015425Y0028172D02*
X0016325D01*
X0015875Y0027722D02*
Y0028622D01*
X0017965Y0030712D02*
X0018865D01*
X0018415Y0030262D02*
Y0031162D01*
X0015425Y0030712D02*
X0016325D01*
X0015875Y0030262D02*
Y0031162D01*
X0017965Y0033252D02*
X0018865D01*
X0018415Y0032802D02*
Y0033702D01*
X0015425Y0033252D02*
X0016325D01*
X0015875Y0032802D02*
Y0033702D01*
X0017965Y0035792D02*
X0018865D01*
X0018415Y0035342D02*
Y0036242D01*
X0015425Y0035792D02*
X0016325D01*
X0015875Y0035342D02*
Y0036242D01*
X0017965Y0038332D02*
X0018865D01*
X0018415Y0037882D02*
Y0038782D01*
X0015425Y0038332D02*
X0016325D01*
X0015875Y0037882D02*
Y0038782D01*
X0017965Y0040872D02*
X0018865D01*
X0018415Y0040422D02*
Y0041322D01*
X0015425Y0040872D02*
X0016325D01*
X0015875Y0040422D02*
Y0041322D01*
X0017965Y0043412D02*
X0018865D01*
X0018415Y0042962D02*
Y0043862D01*
X0015425Y0043412D02*
X0016325D01*
X0015875Y0042962D02*
Y0043862D01*
X0017965Y0045952D02*
X0018865D01*
X0018415Y0045502D02*
Y0046402D01*
X0015425Y0045952D02*
X0016325D01*
X0015875Y0045502D02*
Y0046402D01*
X0017965Y0048492D02*
X0018865D01*
X0018415Y0048042D02*
Y0048942D01*
X0015425Y0048492D02*
X0016325D01*
X0015875Y0048042D02*
Y0048942D01*
X0017965Y0051032D02*
X0018865D01*
X0018415Y0050582D02*
Y0051482D01*
X0015425Y0051032D02*
X0016325D01*
X0015875Y0050582D02*
Y0051482D01*
X0017965Y0053572D02*
X0018865D01*
X0018415Y0053122D02*
Y0054022D01*
X0015425Y0053572D02*
X0016325D01*
X0015875Y0053122D02*
Y0054022D01*
X0026601Y001979D02*
X0027501D01*
X0027051Y001934D02*
Y002024D01*
X0026601Y002233D02*
X0027501D01*
X0027051Y002188D02*
Y002278D01*
X0029141Y001979D02*
X0030041D01*
X0029591Y001934D02*
Y002024D01*
X0029141Y002233D02*
X0030041D01*
X0029591Y002188D02*
Y002278D01*
X0031681Y001979D02*
X0032581D01*
X0032131Y001934D02*
Y002024D01*
X0031681Y002233D02*
X0032581D01*
X0032131Y002188D02*
Y002278D01*
X0034221Y001979D02*
X0035121D01*
X0034671Y001934D02*
Y002024D01*
X0034221Y002233D02*
X0035121D01*
X0034671Y002188D02*
Y002278D01*
X0036761Y001979D02*
X0037661D01*
X0037211Y001934D02*
Y002024D01*
X0036761Y002233D02*
X0037661D01*
X0037211Y002188D02*
Y002278D01*
X0039301Y001979D02*
X0040201D01*
X0039751Y001934D02*
Y002024D01*
X0039301Y002233D02*
X0040201D01*
X0039751Y002188D02*
Y002278D01*
X0041841Y001979D02*
X0042741D01*
X0042291Y001934D02*
Y002024D01*
X0041841Y002233D02*
X0042741D01*
X0042291Y002188D02*
Y002278D01*
X0044381Y001979D02*
X0045281D01*
X0044831Y001934D02*
Y002024D01*
X0044381Y002233D02*
X0045281D01*
X0044831Y002188D02*
Y002278D01*
X0046921Y001979D02*
X0047821D01*
X0047371Y001934D02*
Y002024D01*
X0046921Y002233D02*
X0047821D01*
X0047371Y002188D02*
Y002278D01*
X0049461Y001979D02*
X0050361D01*
X0049911Y001934D02*
Y002024D01*
X0049461Y002233D02*
X0050361D01*
X0049911Y002188D02*
Y002278D01*
X0052001Y001979D02*
X0052901D01*
X0052451Y001934D02*
Y002024D01*
X0052001Y002233D02*
X0052901D01*
X0052451Y002188D02*
Y002278D01*
X0054541Y001979D02*
X0055441D01*
X0054991Y001934D02*
Y002024D01*
X0054541Y002233D02*
X0055441D01*
X0054991Y002188D02*
Y002278D01*
X00056041Y0083185D02*
X00068741D01*
X00062391Y008255D02*
Y008382D01*
X00056041Y0078105D02*
X00068741D01*
X00062391Y007747D02*
Y007874D01*
X0009139Y0091778D02*
X0012639D01*
X0010889Y0090028D02*
Y0093528D01*
X00202529Y0087884D02*
X00214528D01*
X00208529Y0087284D02*
Y00884839D01*
X0029753Y0087884D02*
X00309529D01*
X0030353Y0087284D02*
Y00884839D01*
X00241554Y0062611D02*
X00248666D01*
X0024511Y00622554D02*
Y00629666D01*
X00040894Y0049414D02*
X00048006D01*
X0004445Y00490584D02*
Y00497696D01*
X00039624Y0057404D02*
X00046736D01*
X0004318Y00570484D02*
Y00577596D01*
X00571754Y0017653D02*
X00578866D01*
X0057531Y00172974D02*
Y00180086D01*
X00631444Y0025019D02*
X00638556D01*
X00635Y00246634D02*
Y00253746D01*
X00485394Y0010033D02*
X00492506D01*
X0048895Y00096774D02*
Y00103886D01*
X00518414Y0089386D02*
X00525526D01*
X0052197Y00890304D02*
Y00897416D01*
X00589534Y0089535D02*
X00596646D01*
X0059309Y00891794D02*
Y00898906D01*
X00404114Y0054991D02*
X00411226D01*
X0040767Y00546354D02*
Y00553466D01*
X00513334Y006223D02*
X00520446D01*
X0051689Y00618744D02*
Y00625856D01*
X00514604Y0077343D02*
X00521716D01*
X0051816Y00769874D02*
Y00776986D01*
X00454914Y007874D02*
X00462026D01*
X0045847Y00783844D02*
Y00790956D01*
X00508081Y00814251D02*
X00515193D01*
X00511637Y00810695D02*
Y00817807D01*
X00769874Y0023622D02*
X00776986D01*
X0077343Y00232664D02*
Y00239776D01*
X00795274Y0028807D02*
X00802386D01*
X0079883Y00284514D02*
Y00291626D01*
X00866394Y0028934D02*
X00873506D01*
X0086995Y00285784D02*
Y00292896D01*
X00590079Y00125185D02*
X00597191D01*
X00593635Y00121629D02*
Y00128741D01*
X00498157Y0016824D02*
X00505269D01*
X00501713Y00164684D02*
Y00171796D01*
X00148145Y00224397D02*
X00155257D01*
X00151701Y00220841D02*
Y00227953D01*
X00192024Y0024235D02*
X00199136D01*
X0019558Y00238794D02*
Y00245906D01*
X00223774Y0022965D02*
X00230886D01*
X0022733Y00226094D02*
Y00233206D01*
X00382524Y00254D02*
X00385064D01*
X00383794Y0025273D02*
Y0025527D01*
X00390897Y00245373D02*
X00393437D01*
X00392167Y00244103D02*
Y00246643D01*
X00119634Y00381D02*
X00126746D01*
X0012319Y00377444D02*
Y00384556D01*
X0012446Y0040259D02*
X00127D01*
X0012573Y0040132D02*
Y0040386D01*
X0013208Y0033401D02*
X0013462D01*
X0013335Y0033274D02*
Y0033528D01*
X00344424Y0038205D02*
X00351536D01*
X0034798Y00378494D02*
Y00385606D01*
X00344509Y00355295D02*
X00351621D01*
X00348065Y00351739D02*
Y00358851D01*
X00415544Y0024384D02*
X00422656D01*
X004191Y00240284D02*
Y00247396D01*
X004064Y0026797D02*
X0040894D01*
X0040767Y002667D02*
Y0026924D01*
Y002794D02*
X0041021D01*
X0040894Y0027813D02*
Y0028067D01*
X0049657Y0034014D02*
X0049911D01*
X0049784Y0033887D02*
Y0034141D01*
X00508254Y0025146D02*
X00515366D01*
X0051181Y00247904D02*
Y00255016D01*
X0051308Y003503D02*
X0051562D01*
X0051435Y0034903D02*
Y0035157D01*
X0052705Y0036046D02*
X0052959D01*
X0052832Y0035919D02*
Y0036173D01*
X0054229Y0037189D02*
X0054483D01*
X0054356Y0037062D02*
Y0037316D01*
X00566674Y0040894D02*
X00573786D01*
X0057023Y00405384D02*
Y00412496D01*
Y0028045D02*
X0057277D01*
X005715Y0027918D02*
Y0028172D01*
X0057023Y0030585D02*
X0057277D01*
X005715Y0030458D02*
Y0030712D01*
X0057023Y0033125D02*
X0057277D01*
X005715Y0032998D02*
Y0033252D01*
X0057023Y0035665D02*
X0057277D01*
X005715Y0035538D02*
Y0035792D01*
X00035814Y0046863D02*
X00042926D01*
X0003937Y00465074D02*
Y00472186D01*
X00100584Y0052324D02*
X00107696D01*
X0010414Y00519684D02*
Y00526796D01*
X00104394Y0055858D02*
X00111506D01*
X0010795Y00555024D02*
Y00562136D01*
X0012446Y00508D02*
X00127D01*
X0012573Y0050673D02*
Y0050927D01*
X00221234Y0052451D02*
X00228346D01*
X0022479Y00520954D02*
Y00528066D01*
X0030734Y0055372D02*
X0031496D01*
X0031115Y0054991D02*
Y0055753D01*
X00340614Y0054864D02*
X00347726D01*
X0034417Y00545084D02*
Y00552196D01*
X00341884Y0044047D02*
X00348996D01*
X0034544Y00436914D02*
Y00444026D01*
X0036276Y0045825D02*
X0036876D01*
X0036576Y0045525D02*
Y0046125D01*
X00372364Y0041783D02*
X00379476D01*
X0037592Y00414274D02*
Y00421386D01*
X00386334Y0044831D02*
X00393446D01*
X0038989Y00444754D02*
Y00451866D01*
X00077724Y0058801D02*
X00084836D01*
X0008128Y00584454D02*
Y00591566D01*
X0012954Y0063373D02*
X0013208D01*
X0013081Y0063246D02*
Y00635D01*
X00133604Y00744D02*
X00140716D01*
X0013716Y00740444D02*
Y00747556D01*
X00138684Y0061976D02*
X00145796D01*
X0014224Y00616204D02*
Y00623316D01*
X0021082Y0061468D02*
X0021336D01*
X0021209Y0061341D02*
Y0061595D01*
X00225044Y0071628D02*
X00232156D01*
X002286Y00712724D02*
Y00719836D01*
X00273304Y0062611D02*
X00280416D01*
X0027686Y00622554D02*
Y00629666D01*
X00310859Y00681445D02*
X00317971D01*
X00314415Y00677889D02*
Y00685001D01*
X00329184Y006223D02*
X00336296D01*
X0033274Y00618744D02*
Y00625856D01*
X00353314Y0067564D02*
X00360426D01*
X0035687Y00672084D02*
Y00679196D01*
X00369824Y0066421D02*
X00376936D01*
X0037338Y00660654D02*
Y00667766D01*
X00372364Y0078105D02*
X00379476D01*
X0037592Y00777494D02*
Y00784606D01*
X00381254Y0061976D02*
X00388366D01*
X0038481Y00616204D02*
Y00623316D01*
X00432832Y00445278D02*
X00439944D01*
X00436388Y00441722D02*
Y00448834D01*
X00419354Y0045593D02*
X00426466D01*
X0042291Y00452374D02*
Y00459486D01*
X00536194Y0049911D02*
X00543306D01*
X0053975Y00495554D02*
Y00502666D01*
X00524764Y0051181D02*
X00531876D01*
X0052832Y00508254D02*
Y00515366D01*
M02*
