G04*
G04 #@! TF.GenerationSoftware,Altium Limited,Altium Designer,21.3.2 (30)*
G04*
G04 Layer_Color=2752767*
%FSTAX44Y44*%
%MOMM*%
G71*
G04*
G04 #@! TF.SameCoordinates,F8E9BDDD-FC12-4FEB-8D7F-7DE70A56B409*
G04*
G04*
G04 #@! TF.FilePolarity,Positive*
G04*
G01*
G75*
%ADD95C,0.0508*%
%ADD96C,0.0677*%
%ADD97C,0.0339*%
D95*
X00555195Y00866278D02*
Y00870342D01*
X00559258D01*
Y00866278D01*
X00555195D01*
Y00878978D02*
Y00883042D01*
X00559258D01*
Y00878978D01*
X00555195D01*
X00494538Y00866278D02*
Y00870342D01*
X00498602D01*
Y00866278D01*
X00494538D01*
Y00878978D02*
Y00883042D01*
X00498602D01*
Y00878978D01*
X00494538D01*
X0043532Y00938818D02*
X00433288Y00942882D01*
X00437352D01*
X0043532Y00938818D01*
X0041832D02*
X00416288Y00942882D01*
X00420352D01*
X0041832Y00938818D01*
X0040132D02*
X00399288Y00942882D01*
X00403352D01*
X0040132Y00938818D01*
Y00988818D02*
X00399288Y00992882D01*
X00403352D01*
X0040132Y00988818D01*
X0041832D02*
X00416288Y00992882D01*
X00420352D01*
X0041832Y00988818D01*
X0043532D02*
X00433288Y00992882D01*
X00437352D01*
X0043532Y00988818D01*
X0049657Y00966978D02*
X00497586Y00967994D01*
X00498602D01*
X00497586Y0096901D01*
X00498602Y00970026D01*
X00497586D01*
X0049657Y00971042D01*
X00495554Y00970026D01*
X00494538D01*
X00495554Y0096901D01*
X00494538Y00967994D01*
X00495554D01*
X0049657Y00966978D01*
X0052197D02*
X00522986Y00967994D01*
X00524002D01*
X00522986Y0096901D01*
X00524002Y00970026D01*
X00522986D01*
X0052197Y00971042D01*
X00520954Y00970026D01*
X00519938D01*
X00520954Y0096901D01*
X00519938Y00967994D01*
X00520954D01*
X0052197Y00966978D01*
X0054737D02*
X00548386Y00967994D01*
X00549402D01*
X00548386Y0096901D01*
X00549402Y00970026D01*
X00548386D01*
X0054737Y00971042D01*
X00546354Y00970026D01*
X00545338D01*
X00546354Y0096901D01*
X00545338Y00967994D01*
X00546354D01*
X0054737Y00966978D01*
X0064516D02*
X00646176Y00967994D01*
X00647192D01*
X00646176Y0096901D01*
X00647192Y00970026D01*
X00646176D01*
X0064516Y00971042D01*
X00644144Y00970026D01*
X00643128D01*
X00644144Y0096901D01*
X00643128Y00967994D01*
X00644144D01*
X0064516Y00966978D01*
X0067056D02*
X00671576Y00967994D01*
X00672592D01*
X00671576Y0096901D01*
X00672592Y00970026D01*
X00671576D01*
X0067056Y00971042D01*
X00669544Y00970026D01*
X00668528D01*
X00669544Y0096901D01*
X00668528Y00967994D01*
X00669544D01*
X0067056Y00966978D01*
X0069596D02*
X00696976Y00967994D01*
X00697992D01*
X00696976Y0096901D01*
X00697992Y00970026D01*
X00696976D01*
X0069596Y00971042D01*
X00694944Y00970026D01*
X00693928D01*
X00694944Y0096901D01*
X00693928Y00967994D01*
X00694944D01*
X0069596Y00966978D01*
X00663448Y00206248D02*
X00664464Y0020828D01*
X00663448Y00210312D01*
X0066548Y00209296D01*
X00667512Y00210312D01*
X00666496Y0020828D01*
X00667512Y00206248D01*
X0066548Y00207264D01*
X00663448Y00206248D01*
Y00231648D02*
X00664464Y0023368D01*
X00663448Y00235712D01*
X0066548Y00234696D01*
X00667512Y00235712D01*
X00666496Y0023368D01*
X00667512Y00231648D01*
X0066548Y00232664D01*
X00663448Y00231648D01*
Y00257048D02*
X00664464Y0025908D01*
X00663448Y00261112D01*
X0066548Y00260096D01*
X00667512Y00261112D01*
X00666496Y0025908D01*
X00667512Y00257048D01*
X0066548Y00258064D01*
X00663448Y00257048D01*
Y00282448D02*
X00664464Y0028448D01*
X00663448Y00286512D01*
X0066548Y00285496D01*
X00667512Y00286512D01*
X00666496Y0028448D01*
X00667512Y00282448D01*
X0066548Y00283464D01*
X00663448Y00282448D01*
Y00307848D02*
X00664464Y0030988D01*
X00663448Y00311912D01*
X0066548Y00310896D01*
X00667512Y00311912D01*
X00666496Y0030988D01*
X00667512Y00307848D01*
X0066548Y00308864D01*
X00663448Y00307848D01*
Y00333248D02*
X00664464Y0033528D01*
X00663448Y00337312D01*
X0066548Y00336296D01*
X00667512Y00337312D01*
X00666496Y0033528D01*
X00667512Y00333248D01*
X0066548Y00334264D01*
X00663448Y00333248D01*
Y00358648D02*
X00664464Y0036068D01*
X00663448Y00362712D01*
X0066548Y00361696D01*
X00667512Y00362712D01*
X00666496Y0036068D01*
X00667512Y00358648D01*
X0066548Y00359664D01*
X00663448Y00358648D01*
Y00384048D02*
X00664464Y0038608D01*
X00663448Y00388112D01*
X0066548Y00387096D01*
X00667512Y00388112D01*
X00666496Y0038608D01*
X00667512Y00384048D01*
X0066548Y00385064D01*
X00663448Y00384048D01*
Y00409448D02*
X00664464Y0041148D01*
X00663448Y00413512D01*
X0066548Y00412496D01*
X00667512Y00413512D01*
X00666496Y0041148D01*
X00667512Y00409448D01*
X0066548Y00410464D01*
X00663448Y00409448D01*
Y00434848D02*
X00664464Y0043688D01*
X00663448Y00438912D01*
X0066548Y00437896D01*
X00667512Y00438912D01*
X00666496Y0043688D01*
X00667512Y00434848D01*
X0066548Y00435864D01*
X00663448Y00434848D01*
Y00460248D02*
X00664464Y0046228D01*
X00663448Y00464312D01*
X0066548Y00463296D01*
X00667512Y00464312D01*
X00666496Y0046228D01*
X00667512Y00460248D01*
X0066548Y00461264D01*
X00663448Y00460248D01*
Y00485648D02*
X00664464Y0048768D01*
X00663448Y00489712D01*
X0066548Y00488696D01*
X00667512Y00489712D01*
X00666496Y0048768D01*
X00667512Y00485648D01*
X0066548Y00486664D01*
X00663448Y00485648D01*
Y00511048D02*
X00664464Y0051308D01*
X00663448Y00515112D01*
X0066548Y00514096D01*
X00667512Y00515112D01*
X00666496Y0051308D01*
X00667512Y00511048D01*
X0066548Y00512064D01*
X00663448Y00511048D01*
Y00536448D02*
X00664464Y0053848D01*
X00663448Y00540512D01*
X0066548Y00539496D01*
X00667512Y00540512D01*
X00666496Y0053848D01*
X00667512Y00536448D01*
X0066548Y00537464D01*
X00663448Y00536448D01*
Y00561848D02*
X00664464Y0056388D01*
X00663448Y00565912D01*
X0066548Y00564896D01*
X00667512Y00565912D01*
X00666496Y0056388D01*
X00667512Y00561848D01*
X0066548Y00562864D01*
X00663448Y00561848D01*
Y00587248D02*
X00664464Y0058928D01*
X00663448Y00591312D01*
X0066548Y00590296D01*
X00667512Y00591312D01*
X00666496Y0058928D01*
X00667512Y00587248D01*
X0066548Y00588264D01*
X00663448Y00587248D01*
Y00612648D02*
X00664464Y0061468D01*
X00663448Y00616712D01*
X0066548Y00615696D01*
X00667512Y00616712D01*
X00666496Y0061468D01*
X00667512Y00612648D01*
X0066548Y00613664D01*
X00663448Y00612648D01*
Y00638048D02*
X00664464Y0064008D01*
X00663448Y00642112D01*
X0066548Y00641096D01*
X00667512Y00642112D01*
X00666496Y0064008D01*
X00667512Y00638048D01*
X0066548Y00639064D01*
X00663448Y00638048D01*
Y00663448D02*
X00664464Y0066548D01*
X00663448Y00667512D01*
X0066548Y00666496D01*
X00667512Y00667512D01*
X00666496Y0066548D01*
X00667512Y00663448D01*
X0066548Y00664464D01*
X00663448Y00663448D01*
Y00688848D02*
X00664464Y0069088D01*
X00663448Y00692912D01*
X0066548Y00691896D01*
X00667512Y00692912D01*
X00666496Y0069088D01*
X00667512Y00688848D01*
X0066548Y00689864D01*
X00663448Y00688848D01*
X00592328Y00545118D02*
X00593344Y0054715D01*
X00592328Y00549182D01*
X0059436Y00548166D01*
X00596392Y00549182D01*
X00595376Y0054715D01*
X00596392Y00545118D01*
X0059436Y00546134D01*
X00592328Y00545118D01*
X00617728D02*
X00618744Y0054715D01*
X00617728Y00549182D01*
X0061976Y00548166D01*
X00621792Y00549182D01*
X00620776Y0054715D01*
X00621792Y00545118D01*
X0061976Y00546134D01*
X00617728Y00545118D01*
X00592328Y00519718D02*
X00593344Y0052175D01*
X00592328Y00523782D01*
X0059436Y00522766D01*
X00596392Y00523782D01*
X00595376Y0052175D01*
X00596392Y00519718D01*
X0059436Y00520734D01*
X00592328Y00519718D01*
X00617728D02*
X00618744Y0052175D01*
X00617728Y00523782D01*
X0061976Y00522766D01*
X00621792Y00523782D01*
X00620776Y0052175D01*
X00621792Y00519718D01*
X0061976Y00520734D01*
X00617728Y00519718D01*
X00592328Y00494318D02*
X00593344Y0049635D01*
X00592328Y00498382D01*
X0059436Y00497366D01*
X00596392Y00498382D01*
X00595376Y0049635D01*
X00596392Y00494318D01*
X0059436Y00495334D01*
X00592328Y00494318D01*
X00617728D02*
X00618744Y0049635D01*
X00617728Y00498382D01*
X0061976Y00497366D01*
X00621792Y00498382D01*
X00620776Y0049635D01*
X00621792Y00494318D01*
X0061976Y00495334D01*
X00617728Y00494318D01*
X00592328Y00468918D02*
X00593344Y0047095D01*
X00592328Y00472982D01*
X0059436Y00471966D01*
X00596392Y00472982D01*
X00595376Y0047095D01*
X00596392Y00468918D01*
X0059436Y00469934D01*
X00592328Y00468918D01*
X00617728D02*
X00618744Y0047095D01*
X00617728Y00472982D01*
X0061976Y00471966D01*
X00621792Y00472982D01*
X00620776Y0047095D01*
X00621792Y00468918D01*
X0061976Y00469934D01*
X00617728Y00468918D01*
X00592328Y00443518D02*
X00593344Y0044555D01*
X00592328Y00447582D01*
X0059436Y00446566D01*
X00596392Y00447582D01*
X00595376Y0044555D01*
X00596392Y00443518D01*
X0059436Y00444534D01*
X00592328Y00443518D01*
X00617728D02*
X00618744Y0044555D01*
X00617728Y00447582D01*
X0061976Y00446566D01*
X00621792Y00447582D01*
X00620776Y0044555D01*
X00621792Y00443518D01*
X0061976Y00444534D01*
X00617728Y00443518D01*
X00592328Y00418118D02*
X00593344Y0042015D01*
X00592328Y00422182D01*
X0059436Y00421166D01*
X00596392Y00422182D01*
X00595376Y0042015D01*
X00596392Y00418118D01*
X0059436Y00419134D01*
X00592328Y00418118D01*
X00617728D02*
X00618744Y0042015D01*
X00617728Y00422182D01*
X0061976Y00421166D01*
X00621792Y00422182D01*
X00620776Y0042015D01*
X00621792Y00418118D01*
X0061976Y00419134D01*
X00617728Y00418118D01*
X00592328Y00392718D02*
X00593344Y0039475D01*
X00592328Y00396782D01*
X0059436Y00395766D01*
X00596392Y00396782D01*
X00595376Y0039475D01*
X00596392Y00392718D01*
X0059436Y00393734D01*
X00592328Y00392718D01*
X00617728D02*
X00618744Y0039475D01*
X00617728Y00396782D01*
X0061976Y00395766D01*
X00621792Y00396782D01*
X00620776Y0039475D01*
X00621792Y00392718D01*
X0061976Y00393734D01*
X00617728Y00392718D01*
X00592328Y00367318D02*
X00593344Y0036935D01*
X00592328Y00371382D01*
X0059436Y00370366D01*
X00596392Y00371382D01*
X00595376Y0036935D01*
X00596392Y00367318D01*
X0059436Y00368334D01*
X00592328Y00367318D01*
X00617728D02*
X00618744Y0036935D01*
X00617728Y00371382D01*
X0061976Y00370366D01*
X00621792Y00371382D01*
X00620776Y0036935D01*
X00621792Y00367318D01*
X0061976Y00368334D01*
X00617728Y00367318D01*
X00592328Y00341918D02*
X00593344Y0034395D01*
X00592328Y00345982D01*
X0059436Y00344966D01*
X00596392Y00345982D01*
X00595376Y0034395D01*
X00596392Y00341918D01*
X0059436Y00342934D01*
X00592328Y00341918D01*
X00617728D02*
X00618744Y0034395D01*
X00617728Y00345982D01*
X0061976Y00344966D01*
X00621792Y00345982D01*
X00620776Y0034395D01*
X00621792Y00341918D01*
X0061976Y00342934D01*
X00617728Y00341918D01*
X00592328Y00316518D02*
X00593344Y0031855D01*
X00592328Y00320582D01*
X0059436Y00319566D01*
X00596392Y00320582D01*
X00595376Y0031855D01*
X00596392Y00316518D01*
X0059436Y00317534D01*
X00592328Y00316518D01*
X00617728D02*
X00618744Y0031855D01*
X00617728Y00320582D01*
X0061976Y00319566D01*
X00621792Y00320582D01*
X00620776Y0031855D01*
X00621792Y00316518D01*
X0061976Y00317534D01*
X00617728Y00316518D01*
X00592328Y00291118D02*
X00593344Y0029315D01*
X00592328Y00295182D01*
X0059436Y00294166D01*
X00596392Y00295182D01*
X00595376Y0029315D01*
X00596392Y00291118D01*
X0059436Y00292134D01*
X00592328Y00291118D01*
X00617728D02*
X00618744Y0029315D01*
X00617728Y00295182D01*
X0061976Y00294166D01*
X00621792Y00295182D01*
X00620776Y0029315D01*
X00621792Y00291118D01*
X0061976Y00292134D01*
X00617728Y00291118D01*
X00592328Y00265718D02*
X00593344Y0026775D01*
X00592328Y00269782D01*
X0059436Y00268766D01*
X00596392Y00269782D01*
X00595376Y0026775D01*
X00596392Y00265718D01*
X0059436Y00266734D01*
X00592328Y00265718D01*
X00617728D02*
X00618744Y0026775D01*
X00617728Y00269782D01*
X0061976Y00268766D01*
X00621792Y00269782D01*
X00620776Y0026775D01*
X00621792Y00265718D01*
X0061976Y00266734D01*
X00617728Y00265718D01*
X00268478Y00570518D02*
X00269494Y0057255D01*
X00268478Y00574582D01*
X0027051Y00573566D01*
X00272542Y00574582D01*
X00271526Y0057255D01*
X00272542Y00570518D01*
X0027051Y00571534D01*
X00268478Y00570518D01*
Y00595918D02*
X00269494Y0059795D01*
X00268478Y00599982D01*
X0027051Y00598966D01*
X00272542Y00599982D01*
X00271526Y0059795D01*
X00272542Y00595918D01*
X0027051Y00596934D01*
X00268478Y00595918D01*
X00293878Y00570518D02*
X00294894Y0057255D01*
X00293878Y00574582D01*
X0029591Y00573566D01*
X00297942Y00574582D01*
X00296926Y0057255D01*
X00297942Y00570518D01*
X0029591Y00571534D01*
X00293878Y00570518D01*
Y00595918D02*
X00294894Y0059795D01*
X00293878Y00599982D01*
X0029591Y00598966D01*
X00297942Y00599982D01*
X00296926Y0059795D01*
X00297942Y00595918D01*
X0029591Y00596934D01*
X00293878Y00595918D01*
X00319278Y00570518D02*
X00320294Y0057255D01*
X00319278Y00574582D01*
X0032131Y00573566D01*
X00323342Y00574582D01*
X00322326Y0057255D01*
X00323342Y00570518D01*
X0032131Y00571534D01*
X00319278Y00570518D01*
Y00595918D02*
X00320294Y0059795D01*
X00319278Y00599982D01*
X0032131Y00598966D01*
X00323342Y00599982D01*
X00322326Y0059795D01*
X00323342Y00595918D01*
X0032131Y00596934D01*
X00319278Y00595918D01*
X00344678Y00570518D02*
X00345694Y0057255D01*
X00344678Y00574582D01*
X0034671Y00573566D01*
X00348742Y00574582D01*
X00347726Y0057255D01*
X00348742Y00570518D01*
X0034671Y00571534D01*
X00344678Y00570518D01*
Y00595918D02*
X00345694Y0059795D01*
X00344678Y00599982D01*
X0034671Y00598966D01*
X00348742Y00599982D01*
X00347726Y0059795D01*
X00348742Y00595918D01*
X0034671Y00596934D01*
X00344678Y00595918D01*
X00370078Y00570518D02*
X00371094Y0057255D01*
X00370078Y00574582D01*
X0037211Y00573566D01*
X00374142Y00574582D01*
X00373126Y0057255D01*
X00374142Y00570518D01*
X0037211Y00571534D01*
X00370078Y00570518D01*
Y00595918D02*
X00371094Y0059795D01*
X00370078Y00599982D01*
X0037211Y00598966D01*
X00374142Y00599982D01*
X00373126Y0059795D01*
X00374142Y00595918D01*
X0037211Y00596934D01*
X00370078Y00595918D01*
X00395478Y00570518D02*
X00396494Y0057255D01*
X00395478Y00574582D01*
X0039751Y00573566D01*
X00399542Y00574582D01*
X00398526Y0057255D01*
X00399542Y00570518D01*
X0039751Y00571534D01*
X00395478Y00570518D01*
Y00595918D02*
X00396494Y0059795D01*
X00395478Y00599982D01*
X0039751Y00598966D01*
X00399542Y00599982D01*
X00398526Y0059795D01*
X00399542Y00595918D01*
X0039751Y00596934D01*
X00395478Y00595918D01*
X00420878Y00570518D02*
X00421894Y0057255D01*
X00420878Y00574582D01*
X0042291Y00573566D01*
X00424942Y00574582D01*
X00423926Y0057255D01*
X00424942Y00570518D01*
X0042291Y00571534D01*
X00420878Y00570518D01*
Y00595918D02*
X00421894Y0059795D01*
X00420878Y00599982D01*
X0042291Y00598966D01*
X00424942Y00599982D01*
X00423926Y0059795D01*
X00424942Y00595918D01*
X0042291Y00596934D01*
X00420878Y00595918D01*
X00446278Y00570518D02*
X00447294Y0057255D01*
X00446278Y00574582D01*
X0044831Y00573566D01*
X00450342Y00574582D01*
X00449326Y0057255D01*
X00450342Y00570518D01*
X0044831Y00571534D01*
X00446278Y00570518D01*
Y00595918D02*
X00447294Y0059795D01*
X00446278Y00599982D01*
X0044831Y00598966D01*
X00450342Y00599982D01*
X00449326Y0059795D01*
X00450342Y00595918D01*
X0044831Y00596934D01*
X00446278Y00595918D01*
X00471678Y00570518D02*
X00472694Y0057255D01*
X00471678Y00574582D01*
X0047371Y00573566D01*
X00475742Y00574582D01*
X00474726Y0057255D01*
X00475742Y00570518D01*
X0047371Y00571534D01*
X00471678Y00570518D01*
Y00595918D02*
X00472694Y0059795D01*
X00471678Y00599982D01*
X0047371Y00598966D01*
X00475742Y00599982D01*
X00474726Y0059795D01*
X00475742Y00595918D01*
X0047371Y00596934D01*
X00471678Y00595918D01*
X00497078Y00570518D02*
X00498094Y0057255D01*
X00497078Y00574582D01*
X0049911Y00573566D01*
X00501142Y00574582D01*
X00500126Y0057255D01*
X00501142Y00570518D01*
X0049911Y00571534D01*
X00497078Y00570518D01*
Y00595918D02*
X00498094Y0059795D01*
X00497078Y00599982D01*
X0049911Y00598966D01*
X00501142Y00599982D01*
X00500126Y0059795D01*
X00501142Y00595918D01*
X0049911Y00596934D01*
X00497078Y00595918D01*
X00522478Y00570518D02*
X00523494Y0057255D01*
X00522478Y00574582D01*
X0052451Y00573566D01*
X00526542Y00574582D01*
X00525526Y0057255D01*
X00526542Y00570518D01*
X0052451Y00571534D01*
X00522478Y00570518D01*
Y00595918D02*
X00523494Y0059795D01*
X00522478Y00599982D01*
X0052451Y00598966D01*
X00526542Y00599982D01*
X00525526Y0059795D01*
X00526542Y00595918D01*
X0052451Y00596934D01*
X00522478Y00595918D01*
X00547878Y00570518D02*
X00548894Y0057255D01*
X00547878Y00574582D01*
X0054991Y00573566D01*
X00551942Y00574582D01*
X00550926Y0057255D01*
X00551942Y00570518D01*
X0054991Y00571534D01*
X00547878Y00570518D01*
Y00595918D02*
X00548894Y0059795D01*
X00547878Y00599982D01*
X0054991Y00598966D01*
X00551942Y00599982D01*
X00550926Y0059795D01*
X00551942Y00595918D01*
X0054991Y00596934D01*
X00547878Y00595918D01*
X00329184Y00807974D02*
Y00806958D01*
X00331216D01*
Y00807974D01*
X00332232D01*
Y00810006D01*
X00331216D01*
Y00811022D01*
X00329184D01*
Y00810006D01*
X00328168D01*
Y00807974D01*
X00329184D01*
X00405384D02*
Y00806958D01*
X00407416D01*
Y00807974D01*
X00408432D01*
Y00810006D01*
X00407416D01*
Y00811022D01*
X00405384D01*
Y00810006D01*
X00404368D01*
Y00807974D01*
X00405384D01*
X00954278Y00234188D02*
X00955294D01*
X0095631Y00235204D01*
X00957326Y00234188D01*
X00958342D01*
Y00235204D01*
X00957326Y0023622D01*
X00958342Y00237236D01*
Y00238252D01*
X00957326D01*
X0095631Y00237236D01*
X00955294Y00238252D01*
X00954278D01*
Y00237236D01*
X00955294Y0023622D01*
X00954278Y00235204D01*
Y00234188D01*
Y00259588D02*
X00955294D01*
X0095631Y00260604D01*
X00957326Y00259588D01*
X00958342D01*
Y00260604D01*
X00957326Y0026162D01*
X00958342Y00262636D01*
Y00263652D01*
X00957326D01*
X0095631Y00262636D01*
X00955294Y00263652D01*
X00954278D01*
Y00262636D01*
X00955294Y0026162D01*
X00954278Y00260604D01*
Y00259588D01*
Y00284988D02*
X00955294D01*
X0095631Y00286004D01*
X00957326Y00284988D01*
X00958342D01*
Y00286004D01*
X00957326Y0028702D01*
X00958342Y00288036D01*
Y00289052D01*
X00957326D01*
X0095631Y00288036D01*
X00955294Y00289052D01*
X00954278D01*
Y00288036D01*
X00955294Y0028702D01*
X00954278Y00286004D01*
Y00284988D01*
Y00310388D02*
X00955294D01*
X0095631Y00311404D01*
X00957326Y00310388D01*
X00958342D01*
Y00311404D01*
X00957326Y0031242D01*
X00958342Y00313436D01*
Y00314452D01*
X00957326D01*
X0095631Y00313436D01*
X00955294Y00314452D01*
X00954278D01*
Y00313436D01*
X00955294Y0031242D01*
X00954278Y00311404D01*
Y00310388D01*
Y00335788D02*
X00955294D01*
X0095631Y00336804D01*
X00957326Y00335788D01*
X00958342D01*
Y00336804D01*
X00957326Y0033782D01*
X00958342Y00338836D01*
Y00339852D01*
X00957326D01*
X0095631Y00338836D01*
X00955294Y00339852D01*
X00954278D01*
Y00338836D01*
X00955294Y0033782D01*
X00954278Y00336804D01*
Y00335788D01*
Y00361188D02*
X00955294D01*
X0095631Y00362204D01*
X00957326Y00361188D01*
X00958342D01*
Y00362204D01*
X00957326Y0036322D01*
X00958342Y00364236D01*
Y00365252D01*
X00957326D01*
X0095631Y00364236D01*
X00955294Y00365252D01*
X00954278D01*
Y00364236D01*
X00955294Y0036322D01*
X00954278Y00362204D01*
Y00361188D01*
Y00386588D02*
X00955294D01*
X0095631Y00387604D01*
X00957326Y00386588D01*
X00958342D01*
Y00387604D01*
X00957326Y0038862D01*
X00958342Y00389636D01*
Y00390652D01*
X00957326D01*
X0095631Y00389636D01*
X00955294Y00390652D01*
X00954278D01*
Y00389636D01*
X00955294Y0038862D01*
X00954278Y00387604D01*
Y00386588D01*
Y00411988D02*
X00955294D01*
X0095631Y00413004D01*
X00957326Y00411988D01*
X00958342D01*
Y00413004D01*
X00957326Y0041402D01*
X00958342Y00415036D01*
Y00416052D01*
X00957326D01*
X0095631Y00415036D01*
X00955294Y00416052D01*
X00954278D01*
Y00415036D01*
X00955294Y0041402D01*
X00954278Y00413004D01*
Y00411988D01*
Y00437388D02*
X00955294D01*
X0095631Y00438404D01*
X00957326Y00437388D01*
X00958342D01*
Y00438404D01*
X00957326Y0043942D01*
X00958342Y00440436D01*
Y00441452D01*
X00957326D01*
X0095631Y00440436D01*
X00955294Y00441452D01*
X00954278D01*
Y00440436D01*
X00955294Y0043942D01*
X00954278Y00438404D01*
Y00437388D01*
Y00462788D02*
X00955294D01*
X0095631Y00463804D01*
X00957326Y00462788D01*
X00958342D01*
Y00463804D01*
X00957326Y0046482D01*
X00958342Y00465836D01*
Y00466852D01*
X00957326D01*
X0095631Y00465836D01*
X00955294Y00466852D01*
X00954278D01*
Y00465836D01*
X00955294Y0046482D01*
X00954278Y00463804D01*
Y00462788D01*
Y00488188D02*
X00955294D01*
X0095631Y00489204D01*
X00957326Y00488188D01*
X00958342D01*
Y00489204D01*
X00957326Y0049022D01*
X00958342Y00491236D01*
Y00492252D01*
X00957326D01*
X0095631Y00491236D01*
X00955294Y00492252D01*
X00954278D01*
Y00491236D01*
X00955294Y0049022D01*
X00954278Y00489204D01*
Y00488188D01*
Y00513588D02*
X00955294D01*
X0095631Y00514604D01*
X00957326Y00513588D01*
X00958342D01*
Y00514604D01*
X00957326Y0051562D01*
X00958342Y00516636D01*
Y00517652D01*
X00957326D01*
X0095631Y00516636D01*
X00955294Y00517652D01*
X00954278D01*
Y00516636D01*
X00955294Y0051562D01*
X00954278Y00514604D01*
Y00513588D01*
Y00538988D02*
X00955294D01*
X0095631Y00540004D01*
X00957326Y00538988D01*
X00958342D01*
Y00540004D01*
X00957326Y0054102D01*
X00958342Y00542036D01*
Y00543052D01*
X00957326D01*
X0095631Y00542036D01*
X00955294Y00543052D01*
X00954278D01*
Y00542036D01*
X00955294Y0054102D01*
X00954278Y00540004D01*
Y00538988D01*
Y00564388D02*
X00955294D01*
X0095631Y00565404D01*
X00957326Y00564388D01*
X00958342D01*
Y00565404D01*
X00957326Y0056642D01*
X00958342Y00567436D01*
Y00568452D01*
X00957326D01*
X0095631Y00567436D01*
X00955294Y00568452D01*
X00954278D01*
Y00567436D01*
X00955294Y0056642D01*
X00954278Y00565404D01*
Y00564388D01*
Y00589788D02*
X00955294D01*
X0095631Y00590804D01*
X00957326Y00589788D01*
X00958342D01*
Y00590804D01*
X00957326Y0059182D01*
X00958342Y00592836D01*
Y00593852D01*
X00957326D01*
X0095631Y00592836D01*
X00955294Y00593852D01*
X00954278D01*
Y00592836D01*
X00955294Y0059182D01*
X00954278Y00590804D01*
Y00589788D01*
Y00615188D02*
X00955294D01*
X0095631Y00616204D01*
X00957326Y00615188D01*
X00958342D01*
Y00616204D01*
X00957326Y0061722D01*
X00958342Y00618236D01*
Y00619252D01*
X00957326D01*
X0095631Y00618236D01*
X00955294Y00619252D01*
X00954278D01*
Y00618236D01*
X00955294Y0061722D01*
X00954278Y00616204D01*
Y00615188D01*
Y00640588D02*
X00955294D01*
X0095631Y00641604D01*
X00957326Y00640588D01*
X00958342D01*
Y00641604D01*
X00957326Y0064262D01*
X00958342Y00643636D01*
Y00644652D01*
X00957326D01*
X0095631Y00643636D01*
X00955294Y00644652D01*
X00954278D01*
Y00643636D01*
X00955294Y0064262D01*
X00954278Y00641604D01*
Y00640588D01*
Y00665988D02*
X00955294D01*
X0095631Y00667004D01*
X00957326Y00665988D01*
X00958342D01*
Y00667004D01*
X00957326Y0066802D01*
X00958342Y00669036D01*
Y00670052D01*
X00957326D01*
X0095631Y00669036D01*
X00955294Y00670052D01*
X00954278D01*
Y00669036D01*
X00955294Y0066802D01*
X00954278Y00667004D01*
Y00665988D01*
Y00691388D02*
X00955294D01*
X0095631Y00692404D01*
X00957326Y00691388D01*
X00958342D01*
Y00692404D01*
X00957326Y0069342D01*
X00958342Y00694436D01*
Y00695452D01*
X00957326D01*
X0095631Y00694436D01*
X00955294Y00695452D01*
X00954278D01*
Y00694436D01*
X00955294Y0069342D01*
X00954278Y00692404D01*
Y00691388D01*
X00700278Y00259588D02*
X00701294D01*
X0070231Y00260604D01*
X00703326Y00259588D01*
X00704342D01*
Y00260604D01*
X00703326Y0026162D01*
X00704342Y00262636D01*
Y00263652D01*
X00703326D01*
X0070231Y00262636D01*
X00701294Y00263652D01*
X00700278D01*
Y00262636D01*
X00701294Y0026162D01*
X00700278Y00260604D01*
Y00259588D01*
Y00284988D02*
X00701294D01*
X0070231Y00286004D01*
X00703326Y00284988D01*
X00704342D01*
Y00286004D01*
X00703326Y0028702D01*
X00704342Y00288036D01*
Y00289052D01*
X00703326D01*
X0070231Y00288036D01*
X00701294Y00289052D01*
X00700278D01*
Y00288036D01*
X00701294Y0028702D01*
X00700278Y00286004D01*
Y00284988D01*
Y00310388D02*
X00701294D01*
X0070231Y00311404D01*
X00703326Y00310388D01*
X00704342D01*
Y00311404D01*
X00703326Y0031242D01*
X00704342Y00313436D01*
Y00314452D01*
X00703326D01*
X0070231Y00313436D01*
X00701294Y00314452D01*
X00700278D01*
Y00313436D01*
X00701294Y0031242D01*
X00700278Y00311404D01*
Y00310388D01*
Y00335788D02*
X00701294D01*
X0070231Y00336804D01*
X00703326Y00335788D01*
X00704342D01*
Y00336804D01*
X00703326Y0033782D01*
X00704342Y00338836D01*
Y00339852D01*
X00703326D01*
X0070231Y00338836D01*
X00701294Y00339852D01*
X00700278D01*
Y00338836D01*
X00701294Y0033782D01*
X00700278Y00336804D01*
Y00335788D01*
Y00361188D02*
X00701294D01*
X0070231Y00362204D01*
X00703326Y00361188D01*
X00704342D01*
Y00362204D01*
X00703326Y0036322D01*
X00704342Y00364236D01*
Y00365252D01*
X00703326D01*
X0070231Y00364236D01*
X00701294Y00365252D01*
X00700278D01*
Y00364236D01*
X00701294Y0036322D01*
X00700278Y00362204D01*
Y00361188D01*
Y00386588D02*
X00701294D01*
X0070231Y00387604D01*
X00703326Y00386588D01*
X00704342D01*
Y00387604D01*
X00703326Y0038862D01*
X00704342Y00389636D01*
Y00390652D01*
X00703326D01*
X0070231Y00389636D01*
X00701294Y00390652D01*
X00700278D01*
Y00389636D01*
X00701294Y0038862D01*
X00700278Y00387604D01*
Y00386588D01*
Y00411988D02*
X00701294D01*
X0070231Y00413004D01*
X00703326Y00411988D01*
X00704342D01*
Y00413004D01*
X00703326Y0041402D01*
X00704342Y00415036D01*
Y00416052D01*
X00703326D01*
X0070231Y00415036D01*
X00701294Y00416052D01*
X00700278D01*
Y00415036D01*
X00701294Y0041402D01*
X00700278Y00413004D01*
Y00411988D01*
Y00437388D02*
X00701294D01*
X0070231Y00438404D01*
X00703326Y00437388D01*
X00704342D01*
Y00438404D01*
X00703326Y0043942D01*
X00704342Y00440436D01*
Y00441452D01*
X00703326D01*
X0070231Y00440436D01*
X00701294Y00441452D01*
X00700278D01*
Y00440436D01*
X00701294Y0043942D01*
X00700278Y00438404D01*
Y00437388D01*
Y00462788D02*
X00701294D01*
X0070231Y00463804D01*
X00703326Y00462788D01*
X00704342D01*
Y00463804D01*
X00703326Y0046482D01*
X00704342Y00465836D01*
Y00466852D01*
X00703326D01*
X0070231Y00465836D01*
X00701294Y00466852D01*
X00700278D01*
Y00465836D01*
X00701294Y0046482D01*
X00700278Y00463804D01*
Y00462788D01*
Y00488188D02*
X00701294D01*
X0070231Y00489204D01*
X00703326Y00488188D01*
X00704342D01*
Y00489204D01*
X00703326Y0049022D01*
X00704342Y00491236D01*
Y00492252D01*
X00703326D01*
X0070231Y00491236D01*
X00701294Y00492252D01*
X00700278D01*
Y00491236D01*
X00701294Y0049022D01*
X00700278Y00489204D01*
Y00488188D01*
Y00513588D02*
X00701294D01*
X0070231Y00514604D01*
X00703326Y00513588D01*
X00704342D01*
Y00514604D01*
X00703326Y0051562D01*
X00704342Y00516636D01*
Y00517652D01*
X00703326D01*
X0070231Y00516636D01*
X00701294Y00517652D01*
X00700278D01*
Y00516636D01*
X00701294Y0051562D01*
X00700278Y00514604D01*
Y00513588D01*
Y00538988D02*
X00701294D01*
X0070231Y00540004D01*
X00703326Y00538988D01*
X00704342D01*
Y00540004D01*
X00703326Y0054102D01*
X00704342Y00542036D01*
Y00543052D01*
X00703326D01*
X0070231Y00542036D01*
X00701294Y00543052D01*
X00700278D01*
Y00542036D01*
X00701294Y0054102D01*
X00700278Y00540004D01*
Y00538988D01*
Y00564388D02*
X00701294D01*
X0070231Y00565404D01*
X00703326Y00564388D01*
X00704342D01*
Y00565404D01*
X00703326Y0056642D01*
X00704342Y00567436D01*
Y00568452D01*
X00703326D01*
X0070231Y00567436D01*
X00701294Y00568452D01*
X00700278D01*
Y00567436D01*
X00701294Y0056642D01*
X00700278Y00565404D01*
Y00564388D01*
Y00589788D02*
X00701294D01*
X0070231Y00590804D01*
X00703326Y00589788D01*
X00704342D01*
Y00590804D01*
X00703326Y0059182D01*
X00704342Y00592836D01*
Y00593852D01*
X00703326D01*
X0070231Y00592836D01*
X00701294Y00593852D01*
X00700278D01*
Y00592836D01*
X00701294Y0059182D01*
X00700278Y00590804D01*
Y00589788D01*
Y00615188D02*
X00701294D01*
X0070231Y00616204D01*
X00703326Y00615188D01*
X00704342D01*
Y00616204D01*
X00703326Y0061722D01*
X00704342Y00618236D01*
Y00619252D01*
X00703326D01*
X0070231Y00618236D01*
X00701294Y00619252D01*
X00700278D01*
Y00618236D01*
X00701294Y0061722D01*
X00700278Y00616204D01*
Y00615188D01*
Y00640588D02*
X00701294D01*
X0070231Y00641604D01*
X00703326Y00640588D01*
X00704342D01*
Y00641604D01*
X00703326Y0064262D01*
X00704342Y00643636D01*
Y00644652D01*
X00703326D01*
X0070231Y00643636D01*
X00701294Y00644652D01*
X00700278D01*
Y00643636D01*
X00701294Y0064262D01*
X00700278Y00641604D01*
Y00640588D01*
Y00234188D02*
X00701294D01*
X0070231Y00235204D01*
X00703326Y00234188D01*
X00704342D01*
Y00235204D01*
X00703326Y0023622D01*
X00704342Y00237236D01*
Y00238252D01*
X00703326D01*
X0070231Y00237236D01*
X00701294Y00238252D01*
X00700278D01*
Y00237236D01*
X00701294Y0023622D01*
X00700278Y00235204D01*
Y00234188D01*
Y00665988D02*
X00701294D01*
X0070231Y00667004D01*
X00703326Y00665988D01*
X00704342D01*
Y00667004D01*
X00703326Y0066802D01*
X00704342Y00669036D01*
Y00670052D01*
X00703326D01*
X0070231Y00669036D01*
X00701294Y00670052D01*
X00700278D01*
Y00669036D01*
X00701294Y0066802D01*
X00700278Y00667004D01*
Y00665988D01*
Y00691388D02*
X00701294D01*
X0070231Y00692404D01*
X00703326Y00691388D01*
X00704342D01*
Y00692404D01*
X00703326Y0069342D01*
X00704342Y00694436D01*
Y00695452D01*
X00703326D01*
X0070231Y00694436D01*
X00701294Y00695452D01*
X00700278D01*
Y00694436D01*
X00701294Y0069342D01*
X00700278Y00692404D01*
Y00691388D01*
X00906858Y0011778D02*
X0090889Y00119812D01*
X00910922Y0011778D01*
X0090889Y00115748D01*
X00906858Y0011778D01*
X00989838Y00206248D02*
X00990854Y0020828D01*
X00989838Y00210312D01*
X0099187Y00209296D01*
X00993902Y00210312D01*
X00992886Y0020828D01*
X00993902Y00206248D01*
X0099187Y00207264D01*
X00989838Y00206248D01*
Y00231648D02*
X00990854Y0023368D01*
X00989838Y00235712D01*
X0099187Y00234696D01*
X00993902Y00235712D01*
X00992886Y0023368D01*
X00993902Y00231648D01*
X0099187Y00232664D01*
X00989838Y00231648D01*
Y00257048D02*
X00990854Y0025908D01*
X00989838Y00261112D01*
X0099187Y00260096D01*
X00993902Y00261112D01*
X00992886Y0025908D01*
X00993902Y00257048D01*
X0099187Y00258064D01*
X00989838Y00257048D01*
Y00282448D02*
X00990854Y0028448D01*
X00989838Y00286512D01*
X0099187Y00285496D01*
X00993902Y00286512D01*
X00992886Y0028448D01*
X00993902Y00282448D01*
X0099187Y00283464D01*
X00989838Y00282448D01*
Y00307848D02*
X00990854Y0030988D01*
X00989838Y00311912D01*
X0099187Y00310896D01*
X00993902Y00311912D01*
X00992886Y0030988D01*
X00993902Y00307848D01*
X0099187Y00308864D01*
X00989838Y00307848D01*
Y00333248D02*
X00990854Y0033528D01*
X00989838Y00337312D01*
X0099187Y00336296D01*
X00993902Y00337312D01*
X00992886Y0033528D01*
X00993902Y00333248D01*
X0099187Y00334264D01*
X00989838Y00333248D01*
Y00358648D02*
X00990854Y0036068D01*
X00989838Y00362712D01*
X0099187Y00361696D01*
X00993902Y00362712D01*
X00992886Y0036068D01*
X00993902Y00358648D01*
X0099187Y00359664D01*
X00989838Y00358648D01*
Y00384048D02*
X00990854Y0038608D01*
X00989838Y00388112D01*
X0099187Y00387096D01*
X00993902Y00388112D01*
X00992886Y0038608D01*
X00993902Y00384048D01*
X0099187Y00385064D01*
X00989838Y00384048D01*
Y00409448D02*
X00990854Y0041148D01*
X00989838Y00413512D01*
X0099187Y00412496D01*
X00993902Y00413512D01*
X00992886Y0041148D01*
X00993902Y00409448D01*
X0099187Y00410464D01*
X00989838Y00409448D01*
Y00434848D02*
X00990854Y0043688D01*
X00989838Y00438912D01*
X0099187Y00437896D01*
X00993902Y00438912D01*
X00992886Y0043688D01*
X00993902Y00434848D01*
X0099187Y00435864D01*
X00989838Y00434848D01*
Y00460248D02*
X00990854Y0046228D01*
X00989838Y00464312D01*
X0099187Y00463296D01*
X00993902Y00464312D01*
X00992886Y0046228D01*
X00993902Y00460248D01*
X0099187Y00461264D01*
X00989838Y00460248D01*
Y00485648D02*
X00990854Y0048768D01*
X00989838Y00489712D01*
X0099187Y00488696D01*
X00993902Y00489712D01*
X00992886Y0048768D01*
X00993902Y00485648D01*
X0099187Y00486664D01*
X00989838Y00485648D01*
Y00511048D02*
X00990854Y0051308D01*
X00989838Y00515112D01*
X0099187Y00514096D01*
X00993902Y00515112D01*
X00992886Y0051308D01*
X00993902Y00511048D01*
X0099187Y00512064D01*
X00989838Y00511048D01*
Y00536448D02*
X00990854Y0053848D01*
X00989838Y00540512D01*
X0099187Y00539496D01*
X00993902Y00540512D01*
X00992886Y0053848D01*
X00993902Y00536448D01*
X0099187Y00537464D01*
X00989838Y00536448D01*
Y00561848D02*
X00990854Y0056388D01*
X00989838Y00565912D01*
X0099187Y00564896D01*
X00993902Y00565912D01*
X00992886Y0056388D01*
X00993902Y00561848D01*
X0099187Y00562864D01*
X00989838Y00561848D01*
Y00587248D02*
X00990854Y0058928D01*
X00989838Y00591312D01*
X0099187Y00590296D01*
X00993902Y00591312D01*
X00992886Y0058928D01*
X00993902Y00587248D01*
X0099187Y00588264D01*
X00989838Y00587248D01*
Y00612648D02*
X00990854Y0061468D01*
X00989838Y00616712D01*
X0099187Y00615696D01*
X00993902Y00616712D01*
X00992886Y0061468D01*
X00993902Y00612648D01*
X0099187Y00613664D01*
X00989838Y00612648D01*
Y00638048D02*
X00990854Y0064008D01*
X00989838Y00642112D01*
X0099187Y00641096D01*
X00993902Y00642112D01*
X00992886Y0064008D01*
X00993902Y00638048D01*
X0099187Y00639064D01*
X00989838Y00638048D01*
Y00663448D02*
X00990854Y0066548D01*
X00989838Y00667512D01*
X0099187Y00666496D01*
X00993902Y00667512D01*
X00992886Y0066548D01*
X00993902Y00663448D01*
X0099187Y00664464D01*
X00989838Y00663448D01*
Y00688848D02*
X00990854Y0069088D01*
X00989838Y00692912D01*
X0099187Y00691896D01*
X00993902Y00692912D01*
X00992886Y0069088D01*
X00993902Y00688848D01*
X0099187Y00689864D01*
X00989838Y00688848D01*
X00837184Y00932434D02*
Y00931418D01*
X00839216D01*
Y00932434D01*
X00840232D01*
Y00934466D01*
X00839216D01*
Y00935482D01*
X00837184D01*
Y00934466D01*
X00836168D01*
Y00932434D01*
X00837184D01*
X00812184D02*
Y00931418D01*
X00814216D01*
Y00932434D01*
X00815232D01*
Y00934466D01*
X00814216D01*
Y00935482D01*
X00812184D01*
Y00934466D01*
X00811168D01*
Y00932434D01*
X00812184D01*
X00787184D02*
Y00931418D01*
X00789216D01*
Y00932434D01*
X00790232D01*
Y00934466D01*
X00789216D01*
Y00935482D01*
X00787184D01*
Y00934466D01*
X00786168D01*
Y00932434D01*
X00787184D01*
X00762184D02*
Y00931418D01*
X00764216D01*
Y00932434D01*
X00765232D01*
Y00934466D01*
X00764216D01*
Y00935482D01*
X00762184D01*
Y00934466D01*
X00761168D01*
Y00932434D01*
X00762184D01*
X00765031Y00860315D02*
X00766047Y00862347D01*
X00765031Y0086438D01*
X00767063Y00863363D01*
X00769094Y0086438D01*
X00768079Y00862347D01*
X00769094Y00860315D01*
X00767063Y00861331D01*
X00765031Y00860315D01*
X00790431D02*
X00791447Y00862347D01*
X00790431Y0086438D01*
X00792462Y00863363D01*
X00794494Y0086438D01*
X00793478Y00862347D01*
X00794494Y00860315D01*
X00792462Y00861331D01*
X00790431Y00860315D01*
X00815831D02*
X00816846Y00862347D01*
X00815831Y0086438D01*
X00817862Y00863363D01*
X00819894Y0086438D01*
X00818878Y00862347D01*
X00819894Y00860315D01*
X00817862Y00861331D01*
X00815831Y00860315D01*
X0084123D02*
X00842246Y00862347D01*
X0084123Y0086438D01*
X00843262Y00863363D01*
X00845294Y0086438D01*
X00844278Y00862347D01*
X00845294Y00860315D01*
X00843262Y00861331D01*
X0084123Y00860315D01*
X00906858Y0091778D02*
X0090889Y00919812D01*
X00910922Y0091778D01*
X0090889Y00915748D01*
X00906858Y0091778D01*
X00525018Y00110778D02*
X00526034D01*
X0052705Y00111794D01*
X00528066Y00110778D01*
X00529082D01*
Y00111794D01*
X00528066Y0011281D01*
X00529082Y00113826D01*
Y00114842D01*
X00528066D01*
X0052705Y00113826D01*
X00526034Y00114842D01*
X00525018D01*
Y00113826D01*
X00526034Y0011281D01*
X00525018Y00111794D01*
Y00110778D01*
X00499618D02*
X00500634D01*
X0050165Y00111794D01*
X00502666Y00110778D01*
X00503682D01*
Y00111794D01*
X00502666Y0011281D01*
X00503682Y00113826D01*
Y00114842D01*
X00502666D01*
X0050165Y00113826D01*
X00500634Y00114842D01*
X00499618D01*
Y00113826D01*
X00500634Y0011281D01*
X00499618Y00111794D01*
Y00110778D01*
X00474218D02*
X00475234D01*
X0047625Y00111794D01*
X00477266Y00110778D01*
X00478282D01*
Y00111794D01*
X00477266Y0011281D01*
X00478282Y00113826D01*
Y00114842D01*
X00477266D01*
X0047625Y00113826D01*
X00475234Y00114842D01*
X00474218D01*
Y00113826D01*
X00475234Y0011281D01*
X00474218Y00111794D01*
Y00110778D01*
X00448818D02*
X00449834D01*
X0045085Y00111794D01*
X00451866Y00110778D01*
X00452882D01*
Y00111794D01*
X00451866Y0011281D01*
X00452882Y00113826D01*
Y00114842D01*
X00451866D01*
X0045085Y00113826D01*
X00449834Y00114842D01*
X00448818D01*
Y00113826D01*
X00449834Y0011281D01*
X00448818Y00111794D01*
Y00110778D01*
X00423418D02*
X00424434D01*
X0042545Y00111794D01*
X00426466Y00110778D01*
X00427482D01*
Y00111794D01*
X00426466Y0011281D01*
X00427482Y00113826D01*
Y00114842D01*
X00426466D01*
X0042545Y00113826D01*
X00424434Y00114842D01*
X00423418D01*
Y00113826D01*
X00424434Y0011281D01*
X00423418Y00111794D01*
Y00110778D01*
X00398018D02*
X00399034D01*
X0040005Y00111794D01*
X00401066Y00110778D01*
X00402082D01*
Y00111794D01*
X00401066Y0011281D01*
X00402082Y00113826D01*
Y00114842D01*
X00401066D01*
X0040005Y00113826D01*
X00399034Y00114842D01*
X00398018D01*
Y00113826D01*
X00399034Y0011281D01*
X00398018Y00111794D01*
Y00110778D01*
X00372618D02*
X00373634D01*
X0037465Y00111794D01*
X00375666Y00110778D01*
X00376682D01*
Y00111794D01*
X00375666Y0011281D01*
X00376682Y00113826D01*
Y00114842D01*
X00375666D01*
X0037465Y00113826D01*
X00373634Y00114842D01*
X00372618D01*
Y00113826D01*
X00373634Y0011281D01*
X00372618Y00111794D01*
Y00110778D01*
X00347218D02*
X00348234D01*
X0034925Y00111794D01*
X00350266Y00110778D01*
X00351282D01*
Y00111794D01*
X00350266Y0011281D01*
X00351282Y00113826D01*
Y00114842D01*
X00350266D01*
X0034925Y00113826D01*
X00348234Y00114842D01*
X00347218D01*
Y00113826D01*
X00348234Y0011281D01*
X00347218Y00111794D01*
Y00110778D01*
X00321818D02*
X00322834D01*
X0032385Y00111794D01*
X00324866Y00110778D01*
X00325882D01*
Y00111794D01*
X00324866Y0011281D01*
X00325882Y00113826D01*
Y00114842D01*
X00324866D01*
X0032385Y00113826D01*
X00322834Y00114842D01*
X00321818D01*
Y00113826D01*
X00322834Y0011281D01*
X00321818Y00111794D01*
Y00110778D01*
X00296418D02*
X00297434D01*
X0029845Y00111794D01*
X00299466Y00110778D01*
X00300482D01*
Y00111794D01*
X00299466Y0011281D01*
X00300482Y00113826D01*
Y00114842D01*
X00299466D01*
X0029845Y00113826D01*
X00297434Y00114842D01*
X00296418D01*
Y00113826D01*
X00297434Y0011281D01*
X00296418Y00111794D01*
Y00110778D01*
Y00136178D02*
X00297434D01*
X0029845Y00137194D01*
X00299466Y00136178D01*
X00300482D01*
Y00137194D01*
X00299466Y0013821D01*
X00300482Y00139226D01*
Y00140242D01*
X00299466D01*
X0029845Y00139226D01*
X00297434Y00140242D01*
X00296418D01*
Y00139226D01*
X00297434Y0013821D01*
X00296418Y00137194D01*
Y00136178D01*
X00297434D01*
X0029845Y00137194D01*
X00299466Y00136178D01*
X00300482D01*
Y00137194D01*
X00299466Y0013821D01*
X00300482Y00139226D01*
Y00140242D01*
X00299466D01*
X0029845Y00139226D01*
X00297434Y00140242D01*
X00296418D01*
Y00139226D01*
X00297434Y0013821D01*
X00296418Y00137194D01*
Y00136178D01*
X00297434D01*
X0029845Y00137194D01*
X00299466Y00136178D01*
X00300482D01*
Y00137194D01*
X00299466Y0013821D01*
X00300482Y00139226D01*
Y00140242D01*
X00299466D01*
X0029845Y00139226D01*
X00297434Y00140242D01*
X00296418D01*
Y00139226D01*
X00297434Y0013821D01*
X00296418Y00137194D01*
Y00136178D01*
X00525018D02*
X00526034D01*
X0052705Y00137194D01*
X00528066Y00136178D01*
X00529082D01*
Y00137194D01*
X00528066Y0013821D01*
X00529082Y00139226D01*
Y00140242D01*
X00528066D01*
X0052705Y00139226D01*
X00526034Y00140242D01*
X00525018D01*
Y00139226D01*
X00526034Y0013821D01*
X00525018Y00137194D01*
Y00136178D01*
X00499618D02*
X00500634D01*
X0050165Y00137194D01*
X00502666Y00136178D01*
X00503682D01*
Y00137194D01*
X00502666Y0013821D01*
X00503682Y00139226D01*
Y00140242D01*
X00502666D01*
X0050165Y00139226D01*
X00500634Y00140242D01*
X00499618D01*
Y00139226D01*
X00500634Y0013821D01*
X00499618Y00137194D01*
Y00136178D01*
X00474218D02*
X00475234D01*
X0047625Y00137194D01*
X00477266Y00136178D01*
X00478282D01*
Y00137194D01*
X00477266Y0013821D01*
X00478282Y00139226D01*
Y00140242D01*
X00477266D01*
X0047625Y00139226D01*
X00475234Y00140242D01*
X00474218D01*
Y00139226D01*
X00475234Y0013821D01*
X00474218Y00137194D01*
Y00136178D01*
X00448818D02*
X00449834D01*
X0045085Y00137194D01*
X00451866Y00136178D01*
X00452882D01*
Y00137194D01*
X00451866Y0013821D01*
X00452882Y00139226D01*
Y00140242D01*
X00451866D01*
X0045085Y00139226D01*
X00449834Y00140242D01*
X00448818D01*
Y00139226D01*
X00449834Y0013821D01*
X00448818Y00137194D01*
Y00136178D01*
X00423418D02*
X00424434D01*
X0042545Y00137194D01*
X00426466Y00136178D01*
X00427482D01*
Y00137194D01*
X00426466Y0013821D01*
X00427482Y00139226D01*
Y00140242D01*
X00426466D01*
X0042545Y00139226D01*
X00424434Y00140242D01*
X00423418D01*
Y00139226D01*
X00424434Y0013821D01*
X00423418Y00137194D01*
Y00136178D01*
X00398018D02*
X00399034D01*
X0040005Y00137194D01*
X00401066Y00136178D01*
X00402082D01*
Y00137194D01*
X00401066Y0013821D01*
X00402082Y00139226D01*
Y00140242D01*
X00401066D01*
X0040005Y00139226D01*
X00399034Y00140242D01*
X00398018D01*
Y00139226D01*
X00399034Y0013821D01*
X00398018Y00137194D01*
Y00136178D01*
X00372618D02*
X00373634D01*
X0037465Y00137194D01*
X00375666Y00136178D01*
X00376682D01*
Y00137194D01*
X00375666Y0013821D01*
X00376682Y00139226D01*
Y00140242D01*
X00375666D01*
X0037465Y00139226D01*
X00373634Y00140242D01*
X00372618D01*
Y00139226D01*
X00373634Y0013821D01*
X00372618Y00137194D01*
Y00136178D01*
X00347218D02*
X00348234D01*
X0034925Y00137194D01*
X00350266Y00136178D01*
X00351282D01*
Y00137194D01*
X00350266Y0013821D01*
X00351282Y00139226D01*
Y00140242D01*
X00350266D01*
X0034925Y00139226D01*
X00348234Y00140242D01*
X00347218D01*
Y00139226D01*
X00348234Y0013821D01*
X00347218Y00137194D01*
Y00136178D01*
X00321818D02*
X00322834D01*
X0032385Y00137194D01*
X00324866Y00136178D01*
X00325882D01*
Y00137194D01*
X00324866Y0013821D01*
X00325882Y00139226D01*
Y00140242D01*
X00324866D01*
X0032385Y00139226D01*
X00322834Y00140242D01*
X00321818D01*
Y00139226D01*
X00322834Y0013821D01*
X00321818Y00137194D01*
Y00136178D01*
X00296418D02*
X00297434D01*
X0029845Y00137194D01*
X00299466Y00136178D01*
X00300482D01*
Y00137194D01*
X00299466Y0013821D01*
X00300482Y00139226D01*
Y00140242D01*
X00299466D01*
X0029845Y00139226D01*
X00297434Y00140242D01*
X00296418D01*
Y00139226D01*
X00297434Y0013821D01*
X00296418Y00137194D01*
Y00136178D01*
X00297434D01*
X0029845Y00137194D01*
X00299466Y00136178D01*
X00300482D01*
Y00137194D01*
X00299466Y0013821D01*
X00300482Y00139226D01*
Y00140242D01*
X00299466D01*
X0029845Y00139226D01*
X00297434Y00140242D01*
X00296418D01*
Y00139226D01*
X00297434Y0013821D01*
X00296418Y00137194D01*
Y00136178D01*
X00055118Y00277368D02*
X00056134D01*
X0005715Y00278384D01*
X00058166Y00277368D01*
X00059182D01*
Y00278384D01*
X00058166Y002794D01*
X00059182Y00280416D01*
Y00281432D01*
X00058166D01*
X0005715Y00280416D01*
X00056134Y00281432D01*
X00055118D01*
Y00280416D01*
X00056134Y002794D01*
X00055118Y00278384D01*
Y00277368D01*
X00056134D01*
X0005715Y00278384D01*
X00058166Y00277368D01*
X00059182D01*
Y00278384D01*
X00058166Y002794D01*
X00059182Y00280416D01*
Y00281432D01*
X00058166D01*
X0005715Y00280416D01*
X00056134Y00281432D01*
X00055118D01*
Y00280416D01*
X00056134Y002794D01*
X00055118Y00278384D01*
Y00277368D01*
Y00302768D02*
X00056134D01*
X0005715Y00303784D01*
X00058166Y00302768D01*
X00059182D01*
Y00303784D01*
X00058166Y003048D01*
X00059182Y00305816D01*
Y00306832D01*
X00058166D01*
X0005715Y00305816D01*
X00056134Y00306832D01*
X00055118D01*
Y00305816D01*
X00056134Y003048D01*
X00055118Y00303784D01*
Y00302768D01*
Y00328168D02*
X00056134D01*
X0005715Y00329184D01*
X00058166Y00328168D01*
X00059182D01*
Y00329184D01*
X00058166Y003302D01*
X00059182Y00331216D01*
Y00332232D01*
X00058166D01*
X0005715Y00331216D01*
X00056134Y00332232D01*
X00055118D01*
Y00331216D01*
X00056134Y003302D01*
X00055118Y00329184D01*
Y00328168D01*
Y00353568D02*
X00056134D01*
X0005715Y00354584D01*
X00058166Y00353568D01*
X00059182D01*
Y00354584D01*
X00058166Y003556D01*
X00059182Y00356616D01*
Y00357632D01*
X00058166D01*
X0005715Y00356616D01*
X00056134Y00357632D01*
X00055118D01*
Y00356616D01*
X00056134Y003556D01*
X00055118Y00354584D01*
Y00353568D01*
Y00378968D02*
X00056134D01*
X0005715Y00379984D01*
X00058166Y00378968D01*
X00059182D01*
Y00379984D01*
X00058166Y00381D01*
X00059182Y00382016D01*
Y00383032D01*
X00058166D01*
X0005715Y00382016D01*
X00056134Y00383032D01*
X00055118D01*
Y00382016D01*
X00056134Y00381D01*
X00055118Y00379984D01*
Y00378968D01*
Y00404368D02*
X00056134D01*
X0005715Y00405384D01*
X00058166Y00404368D01*
X00059182D01*
Y00405384D01*
X00058166Y004064D01*
X00059182Y00407416D01*
Y00408432D01*
X00058166D01*
X0005715Y00407416D01*
X00056134Y00408432D01*
X00055118D01*
Y00407416D01*
X00056134Y004064D01*
X00055118Y00405384D01*
Y00404368D01*
Y00429768D02*
X00056134D01*
X0005715Y00430784D01*
X00058166Y00429768D01*
X00059182D01*
Y00430784D01*
X00058166Y004318D01*
X00059182Y00432816D01*
Y00433832D01*
X00058166D01*
X0005715Y00432816D01*
X00056134Y00433832D01*
X00055118D01*
Y00432816D01*
X00056134Y004318D01*
X00055118Y00430784D01*
Y00429768D01*
Y00455168D02*
X00056134D01*
X0005715Y00456184D01*
X00058166Y00455168D01*
X00059182D01*
Y00456184D01*
X00058166Y004572D01*
X00059182Y00458216D01*
Y00459232D01*
X00058166D01*
X0005715Y00458216D01*
X00056134Y00459232D01*
X00055118D01*
Y00458216D01*
X00056134Y004572D01*
X00055118Y00456184D01*
Y00455168D01*
Y00480568D02*
X00056134D01*
X0005715Y00481584D01*
X00058166Y00480568D01*
X00059182D01*
Y00481584D01*
X00058166Y004826D01*
X00059182Y00483616D01*
Y00484632D01*
X00058166D01*
X0005715Y00483616D01*
X00056134Y00484632D01*
X00055118D01*
Y00483616D01*
X00056134Y004826D01*
X00055118Y00481584D01*
Y00480568D01*
Y00505968D02*
X00056134D01*
X0005715Y00506984D01*
X00058166Y00505968D01*
X00059182D01*
Y00506984D01*
X00058166Y00508D01*
X00059182Y00509016D01*
Y00510032D01*
X00058166D01*
X0005715Y00509016D01*
X00056134Y00510032D01*
X00055118D01*
Y00509016D01*
X00056134Y00508D01*
X00055118Y00506984D01*
Y00505968D01*
Y00277368D02*
X00056134D01*
X0005715Y00278384D01*
X00058166Y00277368D01*
X00059182D01*
Y00278384D01*
X00058166Y002794D01*
X00059182Y00280416D01*
Y00281432D01*
X00058166D01*
X0005715Y00280416D01*
X00056134Y00281432D01*
X00055118D01*
Y00280416D01*
X00056134Y002794D01*
X00055118Y00278384D01*
Y00277368D01*
X00056134D01*
X0005715Y00278384D01*
X00058166Y00277368D01*
X00059182D01*
Y00278384D01*
X00058166Y002794D01*
X00059182Y00280416D01*
Y00281432D01*
X00058166D01*
X0005715Y00280416D01*
X00056134Y00281432D01*
X00055118D01*
Y00280416D01*
X00056134Y002794D01*
X00055118Y00278384D01*
Y00277368D01*
X00056134D01*
X0005715Y00278384D01*
X00058166Y00277368D01*
X00059182D01*
Y00278384D01*
X00058166Y002794D01*
X00059182Y00280416D01*
Y00281432D01*
X00058166D01*
X0005715Y00280416D01*
X00056134Y00281432D01*
X00055118D01*
Y00280416D01*
X00056134Y002794D01*
X00055118Y00278384D01*
Y00277368D01*
X00080518D02*
X00081534D01*
X0008255Y00278384D01*
X00083566Y00277368D01*
X00084582D01*
Y00278384D01*
X00083566Y002794D01*
X00084582Y00280416D01*
Y00281432D01*
X00083566D01*
X0008255Y00280416D01*
X00081534Y00281432D01*
X00080518D01*
Y00280416D01*
X00081534Y002794D01*
X00080518Y00278384D01*
Y00277368D01*
Y00302768D02*
X00081534D01*
X0008255Y00303784D01*
X00083566Y00302768D01*
X00084582D01*
Y00303784D01*
X00083566Y003048D01*
X00084582Y00305816D01*
Y00306832D01*
X00083566D01*
X0008255Y00305816D01*
X00081534Y00306832D01*
X00080518D01*
Y00305816D01*
X00081534Y003048D01*
X00080518Y00303784D01*
Y00302768D01*
Y00328168D02*
X00081534D01*
X0008255Y00329184D01*
X00083566Y00328168D01*
X00084582D01*
Y00329184D01*
X00083566Y003302D01*
X00084582Y00331216D01*
Y00332232D01*
X00083566D01*
X0008255Y00331216D01*
X00081534Y00332232D01*
X00080518D01*
Y00331216D01*
X00081534Y003302D01*
X00080518Y00329184D01*
Y00328168D01*
Y00353568D02*
X00081534D01*
X0008255Y00354584D01*
X00083566Y00353568D01*
X00084582D01*
Y00354584D01*
X00083566Y003556D01*
X00084582Y00356616D01*
Y00357632D01*
X00083566D01*
X0008255Y00356616D01*
X00081534Y00357632D01*
X00080518D01*
Y00356616D01*
X00081534Y003556D01*
X00080518Y00354584D01*
Y00353568D01*
Y00378968D02*
X00081534D01*
X0008255Y00379984D01*
X00083566Y00378968D01*
X00084582D01*
Y00379984D01*
X00083566Y00381D01*
X00084582Y00382016D01*
Y00383032D01*
X00083566D01*
X0008255Y00382016D01*
X00081534Y00383032D01*
X00080518D01*
Y00382016D01*
X00081534Y00381D01*
X00080518Y00379984D01*
Y00378968D01*
Y00404368D02*
X00081534D01*
X0008255Y00405384D01*
X00083566Y00404368D01*
X00084582D01*
Y00405384D01*
X00083566Y004064D01*
X00084582Y00407416D01*
Y00408432D01*
X00083566D01*
X0008255Y00407416D01*
X00081534Y00408432D01*
X00080518D01*
Y00407416D01*
X00081534Y004064D01*
X00080518Y00405384D01*
Y00404368D01*
Y00429768D02*
X00081534D01*
X0008255Y00430784D01*
X00083566Y00429768D01*
X00084582D01*
Y00430784D01*
X00083566Y004318D01*
X00084582Y00432816D01*
Y00433832D01*
X00083566D01*
X0008255Y00432816D01*
X00081534Y00433832D01*
X00080518D01*
Y00432816D01*
X00081534Y004318D01*
X00080518Y00430784D01*
Y00429768D01*
Y00455168D02*
X00081534D01*
X0008255Y00456184D01*
X00083566Y00455168D01*
X00084582D01*
Y00456184D01*
X00083566Y004572D01*
X00084582Y00458216D01*
Y00459232D01*
X00083566D01*
X0008255Y00458216D01*
X00081534Y00459232D01*
X00080518D01*
Y00458216D01*
X00081534Y004572D01*
X00080518Y00456184D01*
Y00455168D01*
Y00480568D02*
X00081534D01*
X0008255Y00481584D01*
X00083566Y00480568D01*
X00084582D01*
Y00481584D01*
X00083566Y004826D01*
X00084582Y00483616D01*
Y00484632D01*
X00083566D01*
X0008255Y00483616D01*
X00081534Y00484632D01*
X00080518D01*
Y00483616D01*
X00081534Y004826D01*
X00080518Y00481584D01*
Y00480568D01*
Y00505968D02*
X00081534D01*
X0008255Y00506984D01*
X00083566Y00505968D01*
X00084582D01*
Y00506984D01*
X00083566Y00508D01*
X00084582Y00509016D01*
Y00510032D01*
X00083566D01*
X0008255Y00509016D01*
X00081534Y00510032D01*
X00080518D01*
Y00509016D01*
X00081534Y00508D01*
X00080518Y00506984D01*
Y00505968D01*
X00106858Y0011778D02*
X0010889Y00119812D01*
X00110922Y0011778D01*
X0010889Y00115748D01*
X00106858Y0011778D01*
X00182118Y00254288D02*
X00183134Y0025632D01*
X00182118Y00258352D01*
X0018415Y00257336D01*
X00186182Y00258352D01*
X00185166Y0025632D01*
X00186182Y00254288D01*
X0018415Y00255304D01*
X00182118Y00254288D01*
X00156718D02*
X00157734Y0025632D01*
X00156718Y00258352D01*
X0015875Y00257336D01*
X00160782Y00258352D01*
X00159766Y0025632D01*
X00160782Y00254288D01*
X0015875Y00255304D01*
X00156718Y00254288D01*
X00182118Y00279688D02*
X00183134Y0028172D01*
X00182118Y00283752D01*
X0018415Y00282736D01*
X00186182Y00283752D01*
X00185166Y0028172D01*
X00186182Y00279688D01*
X0018415Y00280704D01*
X00182118Y00279688D01*
X00156718D02*
X00157734Y0028172D01*
X00156718Y00283752D01*
X0015875Y00282736D01*
X00160782Y00283752D01*
X00159766Y0028172D01*
X00160782Y00279688D01*
X0015875Y00280704D01*
X00156718Y00279688D01*
X00182118Y00305088D02*
X00183134Y0030712D01*
X00182118Y00309152D01*
X0018415Y00308136D01*
X00186182Y00309152D01*
X00185166Y0030712D01*
X00186182Y00305088D01*
X0018415Y00306104D01*
X00182118Y00305088D01*
X00156718D02*
X00157734Y0030712D01*
X00156718Y00309152D01*
X0015875Y00308136D01*
X00160782Y00309152D01*
X00159766Y0030712D01*
X00160782Y00305088D01*
X0015875Y00306104D01*
X00156718Y00305088D01*
X00182118Y00330488D02*
X00183134Y0033252D01*
X00182118Y00334552D01*
X0018415Y00333536D01*
X00186182Y00334552D01*
X00185166Y0033252D01*
X00186182Y00330488D01*
X0018415Y00331504D01*
X00182118Y00330488D01*
X00156718D02*
X00157734Y0033252D01*
X00156718Y00334552D01*
X0015875Y00333536D01*
X00160782Y00334552D01*
X00159766Y0033252D01*
X00160782Y00330488D01*
X0015875Y00331504D01*
X00156718Y00330488D01*
X00182118Y00355888D02*
X00183134Y0035792D01*
X00182118Y00359952D01*
X0018415Y00358936D01*
X00186182Y00359952D01*
X00185166Y0035792D01*
X00186182Y00355888D01*
X0018415Y00356904D01*
X00182118Y00355888D01*
X00156718D02*
X00157734Y0035792D01*
X00156718Y00359952D01*
X0015875Y00358936D01*
X00160782Y00359952D01*
X00159766Y0035792D01*
X00160782Y00355888D01*
X0015875Y00356904D01*
X00156718Y00355888D01*
X00182118Y00381288D02*
X00183134Y0038332D01*
X00182118Y00385352D01*
X0018415Y00384336D01*
X00186182Y00385352D01*
X00185166Y0038332D01*
X00186182Y00381288D01*
X0018415Y00382304D01*
X00182118Y00381288D01*
X00156718D02*
X00157734Y0038332D01*
X00156718Y00385352D01*
X0015875Y00384336D01*
X00160782Y00385352D01*
X00159766Y0038332D01*
X00160782Y00381288D01*
X0015875Y00382304D01*
X00156718Y00381288D01*
X00182118Y00406688D02*
X00183134Y0040872D01*
X00182118Y00410752D01*
X0018415Y00409736D01*
X00186182Y00410752D01*
X00185166Y0040872D01*
X00186182Y00406688D01*
X0018415Y00407704D01*
X00182118Y00406688D01*
X00156718D02*
X00157734Y0040872D01*
X00156718Y00410752D01*
X0015875Y00409736D01*
X00160782Y00410752D01*
X00159766Y0040872D01*
X00160782Y00406688D01*
X0015875Y00407704D01*
X00156718Y00406688D01*
X00182118Y00432088D02*
X00183134Y0043412D01*
X00182118Y00436152D01*
X0018415Y00435136D01*
X00186182Y00436152D01*
X00185166Y0043412D01*
X00186182Y00432088D01*
X0018415Y00433104D01*
X00182118Y00432088D01*
X00156718D02*
X00157734Y0043412D01*
X00156718Y00436152D01*
X0015875Y00435136D01*
X00160782Y00436152D01*
X00159766Y0043412D01*
X00160782Y00432088D01*
X0015875Y00433104D01*
X00156718Y00432088D01*
X00182118Y00457488D02*
X00183134Y0045952D01*
X00182118Y00461552D01*
X0018415Y00460536D01*
X00186182Y00461552D01*
X00185166Y0045952D01*
X00186182Y00457488D01*
X0018415Y00458504D01*
X00182118Y00457488D01*
X00156718D02*
X00157734Y0045952D01*
X00156718Y00461552D01*
X0015875Y00460536D01*
X00160782Y00461552D01*
X00159766Y0045952D01*
X00160782Y00457488D01*
X0015875Y00458504D01*
X00156718Y00457488D01*
X00182118Y00482888D02*
X00183134Y0048492D01*
X00182118Y00486952D01*
X0018415Y00485936D01*
X00186182Y00486952D01*
X00185166Y0048492D01*
X00186182Y00482888D01*
X0018415Y00483904D01*
X00182118Y00482888D01*
X00156718D02*
X00157734Y0048492D01*
X00156718Y00486952D01*
X0015875Y00485936D01*
X00160782Y00486952D01*
X00159766Y0048492D01*
X00160782Y00482888D01*
X0015875Y00483904D01*
X00156718Y00482888D01*
X00182118Y00508288D02*
X00183134Y0051032D01*
X00182118Y00512352D01*
X0018415Y00511336D01*
X00186182Y00512352D01*
X00185166Y0051032D01*
X00186182Y00508288D01*
X0018415Y00509304D01*
X00182118Y00508288D01*
X00156718D02*
X00157734Y0051032D01*
X00156718Y00512352D01*
X0015875Y00511336D01*
X00160782Y00512352D01*
X00159766Y0051032D01*
X00160782Y00508288D01*
X0015875Y00509304D01*
X00156718Y00508288D01*
X00182118Y00533688D02*
X00183134Y0053572D01*
X00182118Y00537752D01*
X0018415Y00536736D01*
X00186182Y00537752D01*
X00185166Y0053572D01*
X00186182Y00533688D01*
X0018415Y00534704D01*
X00182118Y00533688D01*
X00156718D02*
X00157734Y0053572D01*
X00156718Y00537752D01*
X0015875Y00536736D01*
X00160782Y00537752D01*
X00159766Y0053572D01*
X00160782Y00533688D01*
X0015875Y00534704D01*
X00156718Y00533688D01*
X00268478Y00195868D02*
X00269494Y001979D01*
X00268478Y00199932D01*
X0027051Y00198916D01*
X00272542Y00199932D01*
X00271526Y001979D01*
X00272542Y00195868D01*
X0027051Y00196884D01*
X00268478Y00195868D01*
Y00221268D02*
X00269494Y002233D01*
X00268478Y00225332D01*
X0027051Y00224316D01*
X00272542Y00225332D01*
X00271526Y002233D01*
X00272542Y00221268D01*
X0027051Y00222284D01*
X00268478Y00221268D01*
X00293878Y00195868D02*
X00294894Y001979D01*
X00293878Y00199932D01*
X0029591Y00198916D01*
X00297942Y00199932D01*
X00296926Y001979D01*
X00297942Y00195868D01*
X0029591Y00196884D01*
X00293878Y00195868D01*
Y00221268D02*
X00294894Y002233D01*
X00293878Y00225332D01*
X0029591Y00224316D01*
X00297942Y00225332D01*
X00296926Y002233D01*
X00297942Y00221268D01*
X0029591Y00222284D01*
X00293878Y00221268D01*
X00319278Y00195868D02*
X00320294Y001979D01*
X00319278Y00199932D01*
X0032131Y00198916D01*
X00323342Y00199932D01*
X00322326Y001979D01*
X00323342Y00195868D01*
X0032131Y00196884D01*
X00319278Y00195868D01*
Y00221268D02*
X00320294Y002233D01*
X00319278Y00225332D01*
X0032131Y00224316D01*
X00323342Y00225332D01*
X00322326Y002233D01*
X00323342Y00221268D01*
X0032131Y00222284D01*
X00319278Y00221268D01*
X00344678Y00195868D02*
X00345694Y001979D01*
X00344678Y00199932D01*
X0034671Y00198916D01*
X00348742Y00199932D01*
X00347726Y001979D01*
X00348742Y00195868D01*
X0034671Y00196884D01*
X00344678Y00195868D01*
Y00221268D02*
X00345694Y002233D01*
X00344678Y00225332D01*
X0034671Y00224316D01*
X00348742Y00225332D01*
X00347726Y002233D01*
X00348742Y00221268D01*
X0034671Y00222284D01*
X00344678Y00221268D01*
X00370078Y00195868D02*
X00371094Y001979D01*
X00370078Y00199932D01*
X0037211Y00198916D01*
X00374142Y00199932D01*
X00373126Y001979D01*
X00374142Y00195868D01*
X0037211Y00196884D01*
X00370078Y00195868D01*
Y00221268D02*
X00371094Y002233D01*
X00370078Y00225332D01*
X0037211Y00224316D01*
X00374142Y00225332D01*
X00373126Y002233D01*
X00374142Y00221268D01*
X0037211Y00222284D01*
X00370078Y00221268D01*
X00395478Y00195868D02*
X00396494Y001979D01*
X00395478Y00199932D01*
X0039751Y00198916D01*
X00399542Y00199932D01*
X00398526Y001979D01*
X00399542Y00195868D01*
X0039751Y00196884D01*
X00395478Y00195868D01*
Y00221268D02*
X00396494Y002233D01*
X00395478Y00225332D01*
X0039751Y00224316D01*
X00399542Y00225332D01*
X00398526Y002233D01*
X00399542Y00221268D01*
X0039751Y00222284D01*
X00395478Y00221268D01*
X00420878Y00195868D02*
X00421894Y001979D01*
X00420878Y00199932D01*
X0042291Y00198916D01*
X00424942Y00199932D01*
X00423926Y001979D01*
X00424942Y00195868D01*
X0042291Y00196884D01*
X00420878Y00195868D01*
Y00221268D02*
X00421894Y002233D01*
X00420878Y00225332D01*
X0042291Y00224316D01*
X00424942Y00225332D01*
X00423926Y002233D01*
X00424942Y00221268D01*
X0042291Y00222284D01*
X00420878Y00221268D01*
X00446278Y00195868D02*
X00447294Y001979D01*
X00446278Y00199932D01*
X0044831Y00198916D01*
X00450342Y00199932D01*
X00449326Y001979D01*
X00450342Y00195868D01*
X0044831Y00196884D01*
X00446278Y00195868D01*
Y00221268D02*
X00447294Y002233D01*
X00446278Y00225332D01*
X0044831Y00224316D01*
X00450342Y00225332D01*
X00449326Y002233D01*
X00450342Y00221268D01*
X0044831Y00222284D01*
X00446278Y00221268D01*
X00471678Y00195868D02*
X00472694Y001979D01*
X00471678Y00199932D01*
X0047371Y00198916D01*
X00475742Y00199932D01*
X00474726Y001979D01*
X00475742Y00195868D01*
X0047371Y00196884D01*
X00471678Y00195868D01*
Y00221268D02*
X00472694Y002233D01*
X00471678Y00225332D01*
X0047371Y00224316D01*
X00475742Y00225332D01*
X00474726Y002233D01*
X00475742Y00221268D01*
X0047371Y00222284D01*
X00471678Y00221268D01*
X00497078Y00195868D02*
X00498094Y001979D01*
X00497078Y00199932D01*
X0049911Y00198916D01*
X00501142Y00199932D01*
X00500126Y001979D01*
X00501142Y00195868D01*
X0049911Y00196884D01*
X00497078Y00195868D01*
Y00221268D02*
X00498094Y002233D01*
X00497078Y00225332D01*
X0049911Y00224316D01*
X00501142Y00225332D01*
X00500126Y002233D01*
X00501142Y00221268D01*
X0049911Y00222284D01*
X00497078Y00221268D01*
X00522478Y00195868D02*
X00523494Y001979D01*
X00522478Y00199932D01*
X0052451Y00198916D01*
X00526542Y00199932D01*
X00525526Y001979D01*
X00526542Y00195868D01*
X0052451Y00196884D01*
X00522478Y00195868D01*
Y00221268D02*
X00523494Y002233D01*
X00522478Y00225332D01*
X0052451Y00224316D01*
X00526542Y00225332D01*
X00525526Y002233D01*
X00526542Y00221268D01*
X0052451Y00222284D01*
X00522478Y00221268D01*
X00547878Y00195868D02*
X00548894Y001979D01*
X00547878Y00199932D01*
X0054991Y00198916D01*
X00551942Y00199932D01*
X00550926Y001979D01*
X00551942Y00195868D01*
X0054991Y00196884D01*
X00547878Y00195868D01*
Y00221268D02*
X00548894Y002233D01*
X00547878Y00225332D01*
X0054991Y00224316D01*
X00551942Y00225332D01*
X00550926Y002233D01*
X00551942Y00221268D01*
X0054991Y00222284D01*
X00547878Y00221268D01*
X00060359Y00829818D02*
Y00833882D01*
X00064423D01*
Y00829818D01*
X00060359D01*
X00061375Y00830834D02*
Y00832866D01*
X00063407D01*
Y00830834D01*
X00061375D01*
X00060359Y00779018D02*
Y00783082D01*
X00064423D01*
Y00779018D01*
X00060359D01*
X00061375Y00780034D02*
Y00782066D01*
X00063407D01*
Y00780034D01*
X00061375D01*
X00106858Y0091778D02*
X0010889Y00919812D01*
X00110922Y0091778D01*
X0010889Y00915748D01*
X00106858Y0091778D01*
X0030353Y00876808D02*
X00301498Y00880872D01*
X00305562D01*
X0030353Y00876808D01*
Y00877824D02*
X00302514Y00879856D01*
X00304546D01*
X0030353Y00877824D01*
X0024511Y00624078D02*
X00246126Y00625094D01*
X00247142D01*
X00246126Y0062611D01*
X00247142Y00627126D01*
X00246126D01*
X0024511Y00628142D01*
X00244094Y00627126D01*
X00243078D01*
X00244094Y0062611D01*
X00243078Y00625094D01*
X00244094D01*
X0024511Y00624078D01*
Y00625094D02*
X00245618Y00625602D01*
X00246126D01*
X00245618Y0062611D01*
X00246126Y00626618D01*
X00245618D01*
X0024511Y00627126D01*
X00244602Y00626618D01*
X00244094D01*
X00244602Y0062611D01*
X00244094Y00625602D01*
X00244602D01*
X0024511Y00625094D01*
X0004445Y00492108D02*
X00045466Y00493124D01*
X00046482D01*
X00045466Y0049414D01*
X00046482Y00495156D01*
X00045466D01*
X0004445Y00496172D01*
X00043434Y00495156D01*
X00042418D01*
X00043434Y0049414D01*
X00042418Y00493124D01*
X00043434D01*
X0004445Y00492108D01*
Y00493124D02*
X00044958Y00493632D01*
X00045466D01*
X00044958Y0049414D01*
X00045466Y00494648D01*
X00044958D01*
X0004445Y00495156D01*
X00043942Y00494648D01*
X00043434D01*
X00043942Y0049414D01*
X00043434Y00493632D01*
X00043942D01*
X0004445Y00493124D01*
X0004318Y00572008D02*
X00044196Y00573024D01*
X00045212D01*
X00044196Y0057404D01*
X00045212Y00575056D01*
X00044196D01*
X0004318Y00576072D01*
X00042164Y00575056D01*
X00041148D01*
X00042164Y0057404D01*
X00041148Y00573024D01*
X00042164D01*
X0004318Y00572008D01*
Y00573024D02*
X00043688Y00573532D01*
X00044196D01*
X00043688Y0057404D01*
X00044196Y00574548D01*
X00043688D01*
X0004318Y00575056D01*
X00042672Y00574548D01*
X00042164D01*
X00042672Y0057404D01*
X00042164Y00573532D01*
X00042672D01*
X0004318Y00573024D01*
X0057531Y00174498D02*
X00576326Y00175514D01*
X00577342D01*
X00576326Y0017653D01*
X00577342Y00177546D01*
X00576326D01*
X0057531Y00178562D01*
X00574294Y00177546D01*
X00573278D01*
X00574294Y0017653D01*
X00573278Y00175514D01*
X00574294D01*
X0057531Y00174498D01*
Y00175514D02*
X00575818Y00176022D01*
X00576326D01*
X00575818Y0017653D01*
X00576326Y00177038D01*
X00575818D01*
X0057531Y00177546D01*
X00574802Y00177038D01*
X00574294D01*
X00574802Y0017653D01*
X00574294Y00176022D01*
X00574802D01*
X0057531Y00175514D01*
X00635Y00248158D02*
X00636016Y00249174D01*
X00637032D01*
X00636016Y0025019D01*
X00637032Y00251206D01*
X00636016D01*
X00635Y00252222D01*
X00633984Y00251206D01*
X00632968D01*
X00633984Y0025019D01*
X00632968Y00249174D01*
X00633984D01*
X00635Y00248158D01*
Y00249174D02*
X00635508Y00249682D01*
X00636016D01*
X00635508Y0025019D01*
X00636016Y00250698D01*
X00635508D01*
X00635Y00251206D01*
X00634492Y00250698D01*
X00633984D01*
X00634492Y0025019D01*
X00633984Y00249682D01*
X00634492D01*
X00635Y00249174D01*
X0048895Y00098298D02*
X00489966Y00099314D01*
X00490982D01*
X00489966Y0010033D01*
X00490982Y00101346D01*
X00489966D01*
X0048895Y00102362D01*
X00487934Y00101346D01*
X00486918D01*
X00487934Y0010033D01*
X00486918Y00099314D01*
X00487934D01*
X0048895Y00098298D01*
Y00099314D02*
X00489458Y00099822D01*
X00489966D01*
X00489458Y0010033D01*
X00489966Y00100838D01*
X00489458D01*
X0048895Y00101346D01*
X00488442Y00100838D01*
X00487934D01*
X00488442Y0010033D01*
X00487934Y00099822D01*
X00488442D01*
X0048895Y00099314D01*
X0052197Y00891828D02*
X00522986Y00892844D01*
X00524002D01*
X00522986Y0089386D01*
X00524002Y00894876D01*
X00522986D01*
X0052197Y00895892D01*
X00520954Y00894876D01*
X00519938D01*
X00520954Y0089386D01*
X00519938Y00892844D01*
X00520954D01*
X0052197Y00891828D01*
Y00892844D02*
X00522478Y00893352D01*
X00522986D01*
X00522478Y0089386D01*
X00522986Y00894368D01*
X00522478D01*
X0052197Y00894876D01*
X00521462Y00894368D01*
X00520954D01*
X00521462Y0089386D01*
X00520954Y00893352D01*
X00521462D01*
X0052197Y00892844D01*
X0059309Y00893318D02*
X00594106Y00894334D01*
X00595122D01*
X00594106Y0089535D01*
X00595122Y00896366D01*
X00594106D01*
X0059309Y00897382D01*
X00592074Y00896366D01*
X00591058D01*
X00592074Y0089535D01*
X00591058Y00894334D01*
X00592074D01*
X0059309Y00893318D01*
Y00894334D02*
X00593598Y00894842D01*
X00594106D01*
X00593598Y0089535D01*
X00594106Y00895858D01*
X00593598D01*
X0059309Y00896366D01*
X00592582Y00895858D01*
X00592074D01*
X00592582Y0089535D01*
X00592074Y00894842D01*
X00592582D01*
X0059309Y00894334D01*
X0040767Y00547878D02*
X00408686Y00548894D01*
X00409702D01*
X00408686Y0054991D01*
X00409702Y00550926D01*
X00408686D01*
X0040767Y00551942D01*
X00406654Y00550926D01*
X00405638D01*
X00406654Y0054991D01*
X00405638Y00548894D01*
X00406654D01*
X0040767Y00547878D01*
Y00548894D02*
X00408178Y00549402D01*
X00408686D01*
X00408178Y0054991D01*
X00408686Y00550418D01*
X00408178D01*
X0040767Y00550926D01*
X00407162Y00550418D01*
X00406654D01*
X00407162Y0054991D01*
X00406654Y00549402D01*
X00407162D01*
X0040767Y00548894D01*
X0051689Y00620268D02*
X00517906Y00621284D01*
X00518922D01*
X00517906Y006223D01*
X00518922Y00623316D01*
X00517906D01*
X0051689Y00624332D01*
X00515874Y00623316D01*
X00514858D01*
X00515874Y006223D01*
X00514858Y00621284D01*
X00515874D01*
X0051689Y00620268D01*
Y00621284D02*
X00517398Y00621792D01*
X00517906D01*
X00517398Y006223D01*
X00517906Y00622808D01*
X00517398D01*
X0051689Y00623316D01*
X00516382Y00622808D01*
X00515874D01*
X00516382Y006223D01*
X00515874Y00621792D01*
X00516382D01*
X0051689Y00621284D01*
X0051816Y00771398D02*
X00519176Y00772414D01*
X00520192D01*
X00519176Y0077343D01*
X00520192Y00774446D01*
X00519176D01*
X0051816Y00775462D01*
X00517144Y00774446D01*
X00516128D01*
X00517144Y0077343D01*
X00516128Y00772414D01*
X00517144D01*
X0051816Y00771398D01*
Y00772414D02*
X00518668Y00772922D01*
X00519176D01*
X00518668Y0077343D01*
X00519176Y00773938D01*
X00518668D01*
X0051816Y00774446D01*
X00517652Y00773938D01*
X00517144D01*
X00517652Y0077343D01*
X00517144Y00772922D01*
X00517652D01*
X0051816Y00772414D01*
X0045847Y00785368D02*
X00459486Y00786384D01*
X00460502D01*
X00459486Y007874D01*
X00460502Y00788416D01*
X00459486D01*
X0045847Y00789432D01*
X00457454Y00788416D01*
X00456438D01*
X00457454Y007874D01*
X00456438Y00786384D01*
X00457454D01*
X0045847Y00785368D01*
Y00786384D02*
X00458978Y00786892D01*
X00459486D01*
X00458978Y007874D01*
X00459486Y00787908D01*
X00458978D01*
X0045847Y00788416D01*
X00457962Y00787908D01*
X00457454D01*
X00457962Y007874D01*
X00457454Y00786892D01*
X00457962D01*
X0045847Y00786384D01*
X00511637Y00812219D02*
X00512653Y00813235D01*
X00513669D01*
X00512653Y00814251D01*
X00513669Y00815267D01*
X00512653D01*
X00511637Y00816283D01*
X00510621Y00815267D01*
X00509605D01*
X00510621Y00814251D01*
X00509605Y00813235D01*
X00510621D01*
X00511637Y00812219D01*
Y00813235D02*
X00512145Y00813743D01*
X00512653D01*
X00512145Y00814251D01*
X00512653Y00814759D01*
X00512145D01*
X00511637Y00815267D01*
X00511129Y00814759D01*
X00510621D01*
X00511129Y00814251D01*
X00510621Y00813743D01*
X00511129D01*
X00511637Y00813235D01*
X0077343Y00234188D02*
X00774446Y00235204D01*
X00775462D01*
X00774446Y0023622D01*
X00775462Y00237236D01*
X00774446D01*
X0077343Y00238252D01*
X00772414Y00237236D01*
X00771398D01*
X00772414Y0023622D01*
X00771398Y00235204D01*
X00772414D01*
X0077343Y00234188D01*
Y00235204D02*
X00773938Y00235712D01*
X00774446D01*
X00773938Y0023622D01*
X00774446Y00236728D01*
X00773938D01*
X0077343Y00237236D01*
X00772922Y00236728D01*
X00772414D01*
X00772922Y0023622D01*
X00772414Y00235712D01*
X00772922D01*
X0077343Y00235204D01*
X0079883Y00286038D02*
X00799846Y00287054D01*
X00800862D01*
X00799846Y0028807D01*
X00800862Y00289086D01*
X00799846D01*
X0079883Y00290102D01*
X00797814Y00289086D01*
X00796798D01*
X00797814Y0028807D01*
X00796798Y00287054D01*
X00797814D01*
X0079883Y00286038D01*
Y00287054D02*
X00799338Y00287562D01*
X00799846D01*
X00799338Y0028807D01*
X00799846Y00288578D01*
X00799338D01*
X0079883Y00289086D01*
X00798322Y00288578D01*
X00797814D01*
X00798322Y0028807D01*
X00797814Y00287562D01*
X00798322D01*
X0079883Y00287054D01*
X0086995Y00287308D02*
X00870966Y00288324D01*
X00871982D01*
X00870966Y0028934D01*
X00871982Y00290356D01*
X00870966D01*
X0086995Y00291372D01*
X00868934Y00290356D01*
X00867918D01*
X00868934Y0028934D01*
X00867918Y00288324D01*
X00868934D01*
X0086995Y00287308D01*
Y00288324D02*
X00870458Y00288832D01*
X00870966D01*
X00870458Y0028934D01*
X00870966Y00289848D01*
X00870458D01*
X0086995Y00290356D01*
X00869442Y00289848D01*
X00868934D01*
X00869442Y0028934D01*
X00868934Y00288832D01*
X00869442D01*
X0086995Y00288324D01*
X00593635Y00123153D02*
X00594651Y00124169D01*
X00595667D01*
X00594651Y00125185D01*
X00595667Y00126201D01*
X00594651D01*
X00593635Y00127217D01*
X00592619Y00126201D01*
X00591603D01*
X00592619Y00125185D01*
X00591603Y00124169D01*
X00592619D01*
X00593635Y00123153D01*
Y00124169D02*
X00594143Y00124677D01*
X00594651D01*
X00594143Y00125185D01*
X00594651Y00125693D01*
X00594143D01*
X00593635Y00126201D01*
X00593127Y00125693D01*
X00592619D01*
X00593127Y00125185D01*
X00592619Y00124677D01*
X00593127D01*
X00593635Y00124169D01*
X00501713Y00166208D02*
X00502729Y00167224D01*
X00503745D01*
X00502729Y0016824D01*
X00503745Y00169256D01*
X00502729D01*
X00501713Y00170272D01*
X00500697Y00169256D01*
X00499681D01*
X00500697Y0016824D01*
X00499681Y00167224D01*
X00500697D01*
X00501713Y00166208D01*
Y00167224D02*
X00502221Y00167732D01*
X00502729D01*
X00502221Y0016824D01*
X00502729Y00168748D01*
X00502221D01*
X00501713Y00169256D01*
X00501205Y00168748D01*
X00500697D01*
X00501205Y0016824D01*
X00500697Y00167732D01*
X00501205D01*
X00501713Y00167224D01*
X00151701Y00222365D02*
X00152717Y00223381D01*
X00153733D01*
X00152717Y00224397D01*
X00153733Y00225413D01*
X00152717D01*
X00151701Y00226429D01*
X00150685Y00225413D01*
X00149669D01*
X00150685Y00224397D01*
X00149669Y00223381D01*
X00150685D01*
X00151701Y00222365D01*
Y00223381D02*
X00152209Y00223889D01*
X00152717D01*
X00152209Y00224397D01*
X00152717Y00224905D01*
X00152209D01*
X00151701Y00225413D01*
X00151193Y00224905D01*
X00150685D01*
X00151193Y00224397D01*
X00150685Y00223889D01*
X00151193D01*
X00151701Y00223381D01*
X0019558Y00240318D02*
X00196596Y00241334D01*
X00197612D01*
X00196596Y0024235D01*
X00197612Y00243366D01*
X00196596D01*
X0019558Y00244382D01*
X00194564Y00243366D01*
X00193548D01*
X00194564Y0024235D01*
X00193548Y00241334D01*
X00194564D01*
X0019558Y00240318D01*
Y00241334D02*
X00196088Y00241842D01*
X00196596D01*
X00196088Y0024235D01*
X00196596Y00242858D01*
X00196088D01*
X0019558Y00243366D01*
X00195072Y00242858D01*
X00194564D01*
X00195072Y0024235D01*
X00194564Y00241842D01*
X00195072D01*
X0019558Y00241334D01*
X0022733Y00227618D02*
X00228346Y00228634D01*
X00229362D01*
X00228346Y0022965D01*
X00229362Y00230666D01*
X00228346D01*
X0022733Y00231682D01*
X00226314Y00230666D01*
X00225298D01*
X00226314Y0022965D01*
X00225298Y00228634D01*
X00226314D01*
X0022733Y00227618D01*
Y00228634D02*
X00227838Y00229142D01*
X00228346D01*
X00227838Y0022965D01*
X00228346Y00230158D01*
X00227838D01*
X0022733Y00230666D01*
X00226822Y00230158D01*
X00226314D01*
X00226822Y0022965D01*
X00226314Y00229142D01*
X00226822D01*
X0022733Y00228634D01*
X00381762Y00251968D02*
X00382778Y00254D01*
X00381762Y00256032D01*
X00383794Y00255016D01*
X00385826Y00256032D01*
X0038481Y00254D01*
X00385826Y00251968D01*
X00383794Y00252984D01*
X00381762Y00251968D01*
X00382778Y00252984D02*
X00383286Y00254D01*
X00382778Y00255016D01*
X00383794Y00254508D01*
X0038481Y00255016D01*
X00384302Y00254D01*
X0038481Y00252984D01*
X00383794Y00253492D01*
X00382778Y00252984D01*
X00390135Y00243341D02*
X00391151Y00245373D01*
X00390135Y00247405D01*
X00392167Y00246389D01*
X00394199Y00247405D01*
X00393183Y00245373D01*
X00394199Y00243341D01*
X00392167Y00244357D01*
X00390135Y00243341D01*
X00391151Y00244357D02*
X00391659Y00245373D01*
X00391151Y00246389D01*
X00392167Y00245881D01*
X00393183Y00246389D01*
X00392675Y00245373D01*
X00393183Y00244357D01*
X00392167Y00244865D01*
X00391151Y00244357D01*
X0012319Y00378968D02*
X00124206Y00379984D01*
X00125222D01*
X00124206Y00381D01*
X00125222Y00382016D01*
X00124206D01*
X0012319Y00383032D01*
X00122174Y00382016D01*
X00121158D01*
X00122174Y00381D01*
X00121158Y00379984D01*
X00122174D01*
X0012319Y00378968D01*
Y00379984D02*
X00123698Y00380492D01*
X00124206D01*
X00123698Y00381D01*
X00124206Y00381508D01*
X00123698D01*
X0012319Y00382016D01*
X00122682Y00381508D01*
X00122174D01*
X00122682Y00381D01*
X00122174Y00380492D01*
X00122682D01*
X0012319Y00379984D01*
X00123698Y00400558D02*
X00124714Y0040259D01*
X00123698Y00404622D01*
X0012573Y00403606D01*
X00127762Y00404622D01*
X00126746Y0040259D01*
X00127762Y00400558D01*
X0012573Y00401574D01*
X00123698Y00400558D01*
X00124714Y00401574D02*
X00125222Y0040259D01*
X00124714Y00403606D01*
X0012573Y00403098D01*
X00126746Y00403606D01*
X00126238Y0040259D01*
X00126746Y00401574D01*
X0012573Y00402082D01*
X00124714Y00401574D01*
X00131318Y00331978D02*
X00132334Y0033401D01*
X00131318Y00336042D01*
X0013335Y00335026D01*
X00135382Y00336042D01*
X00134366Y0033401D01*
X00135382Y00331978D01*
X0013335Y00332994D01*
X00131318Y00331978D01*
X00132334Y00332994D02*
X00132842Y0033401D01*
X00132334Y00335026D01*
X0013335Y00334518D01*
X00134366Y00335026D01*
X00133858Y0033401D01*
X00134366Y00332994D01*
X0013335Y00333502D01*
X00132334Y00332994D01*
X0034798Y00380018D02*
X00348996Y00381034D01*
X00350012D01*
X00348996Y0038205D01*
X00350012Y00383066D01*
X00348996D01*
X0034798Y00384082D01*
X00346964Y00383066D01*
X00345948D01*
X00346964Y0038205D01*
X00345948Y00381034D01*
X00346964D01*
X0034798Y00380018D01*
Y00381034D02*
X00348488Y00381542D01*
X00348996D01*
X00348488Y0038205D01*
X00348996Y00382558D01*
X00348488D01*
X0034798Y00383066D01*
X00347472Y00382558D01*
X00346964D01*
X00347472Y0038205D01*
X00346964Y00381542D01*
X00347472D01*
X0034798Y00381034D01*
X00348065Y00353263D02*
X00349081Y00354279D01*
X00350097D01*
X00349081Y00355295D01*
X00350097Y00356311D01*
X00349081D01*
X00348065Y00357327D01*
X00347049Y00356311D01*
X00346033D01*
X00347049Y00355295D01*
X00346033Y00354279D01*
X00347049D01*
X00348065Y00353263D01*
Y00354279D02*
X00348573Y00354787D01*
X00349081D01*
X00348573Y00355295D01*
X00349081Y00355803D01*
X00348573D01*
X00348065Y00356311D01*
X00347557Y00355803D01*
X00347049D01*
X00347557Y00355295D01*
X00347049Y00354787D01*
X00347557D01*
X00348065Y00354279D01*
X004191Y00241808D02*
X00420116Y00242824D01*
X00421132D01*
X00420116Y0024384D01*
X00421132Y00244856D01*
X00420116D01*
X004191Y00245872D01*
X00418084Y00244856D01*
X00417068D01*
X00418084Y0024384D01*
X00417068Y00242824D01*
X00418084D01*
X004191Y00241808D01*
Y00242824D02*
X00419608Y00243332D01*
X00420116D01*
X00419608Y0024384D01*
X00420116Y00244348D01*
X00419608D01*
X004191Y00244856D01*
X00418592Y00244348D01*
X00418084D01*
X00418592Y0024384D01*
X00418084Y00243332D01*
X00418592D01*
X004191Y00242824D01*
X00405638Y00265938D02*
X00406654Y0026797D01*
X00405638Y00270002D01*
X0040767Y00268986D01*
X00409702Y00270002D01*
X00408686Y0026797D01*
X00409702Y00265938D01*
X0040767Y00266954D01*
X00405638Y00265938D01*
X00406654Y00266954D02*
X00407162Y0026797D01*
X00406654Y00268986D01*
X0040767Y00268478D01*
X00408686Y00268986D01*
X00408178Y0026797D01*
X00408686Y00266954D01*
X0040767Y00267462D01*
X00406654Y00266954D01*
X00406908Y00277368D02*
X00407924Y002794D01*
X00406908Y00281432D01*
X0040894Y00280416D01*
X00410972Y00281432D01*
X00409956Y002794D01*
X00410972Y00277368D01*
X0040894Y00278384D01*
X00406908Y00277368D01*
X00407924Y00278384D02*
X00408432Y002794D01*
X00407924Y00280416D01*
X0040894Y00279908D01*
X00409956Y00280416D01*
X00409448Y002794D01*
X00409956Y00278384D01*
X0040894Y00278892D01*
X00407924Y00278384D01*
X00495808Y00338108D02*
X00496824Y0034014D01*
X00495808Y00342172D01*
X0049784Y00341156D01*
X00499872Y00342172D01*
X00498856Y0034014D01*
X00499872Y00338108D01*
X0049784Y00339124D01*
X00495808Y00338108D01*
X00496824Y00339124D02*
X00497332Y0034014D01*
X00496824Y00341156D01*
X0049784Y00340648D01*
X00498856Y00341156D01*
X00498348Y0034014D01*
X00498856Y00339124D01*
X0049784Y00339632D01*
X00496824Y00339124D01*
X0051181Y00249428D02*
X00512826Y00250444D01*
X00513842D01*
X00512826Y0025146D01*
X00513842Y00252476D01*
X00512826D01*
X0051181Y00253492D01*
X00510794Y00252476D01*
X00509778D01*
X00510794Y0025146D01*
X00509778Y00250444D01*
X00510794D01*
X0051181Y00249428D01*
Y00250444D02*
X00512318Y00250952D01*
X00512826D01*
X00512318Y0025146D01*
X00512826Y00251968D01*
X00512318D01*
X0051181Y00252476D01*
X00511302Y00251968D01*
X00510794D01*
X00511302Y0025146D01*
X00510794Y00250952D01*
X00511302D01*
X0051181Y00250444D01*
X00512318Y00348268D02*
X00513334Y003503D01*
X00512318Y00352332D01*
X0051435Y00351316D01*
X00516382Y00352332D01*
X00515366Y003503D01*
X00516382Y00348268D01*
X0051435Y00349284D01*
X00512318Y00348268D01*
X00513334Y00349284D02*
X00513842Y003503D01*
X00513334Y00351316D01*
X0051435Y00350808D01*
X00515366Y00351316D01*
X00514858Y003503D01*
X00515366Y00349284D01*
X0051435Y00349792D01*
X00513334Y00349284D01*
X00526288Y00358428D02*
X00527304Y0036046D01*
X00526288Y00362492D01*
X0052832Y00361476D01*
X00530352Y00362492D01*
X00529336Y0036046D01*
X00530352Y00358428D01*
X0052832Y00359444D01*
X00526288Y00358428D01*
X00527304Y00359444D02*
X00527812Y0036046D01*
X00527304Y00361476D01*
X0052832Y00360968D01*
X00529336Y00361476D01*
X00528828Y0036046D01*
X00529336Y00359444D01*
X0052832Y00359952D01*
X00527304Y00359444D01*
X00541528Y00369858D02*
X00542544Y0037189D01*
X00541528Y00373922D01*
X0054356Y00372906D01*
X00545592Y00373922D01*
X00544576Y0037189D01*
X00545592Y00369858D01*
X0054356Y00370874D01*
X00541528Y00369858D01*
X00542544Y00370874D02*
X00543052Y0037189D01*
X00542544Y00372906D01*
X0054356Y00372398D01*
X00544576Y00372906D01*
X00544068Y0037189D01*
X00544576Y00370874D01*
X0054356Y00371382D01*
X00542544Y00370874D01*
X0057023Y00406908D02*
X00571246Y00407924D01*
X00572262D01*
X00571246Y0040894D01*
X00572262Y00409956D01*
X00571246D01*
X0057023Y00410972D01*
X00569214Y00409956D01*
X00568198D01*
X00569214Y0040894D01*
X00568198Y00407924D01*
X00569214D01*
X0057023Y00406908D01*
Y00407924D02*
X00570738Y00408432D01*
X00571246D01*
X00570738Y0040894D01*
X00571246Y00409448D01*
X00570738D01*
X0057023Y00409956D01*
X00569722Y00409448D01*
X00569214D01*
X00569722Y0040894D01*
X00569214Y00408432D01*
X00569722D01*
X0057023Y00407924D01*
X00569468Y00278418D02*
X00570484Y0028045D01*
X00569468Y00282482D01*
X005715Y00281466D01*
X00573532Y00282482D01*
X00572516Y0028045D01*
X00573532Y00278418D01*
X005715Y00279434D01*
X00569468Y00278418D01*
X00570484Y00279434D02*
X00570992Y0028045D01*
X00570484Y00281466D01*
X005715Y00280958D01*
X00572516Y00281466D01*
X00572008Y0028045D01*
X00572516Y00279434D01*
X005715Y00279942D01*
X00570484Y00279434D01*
X00569468Y00303818D02*
X00570484Y0030585D01*
X00569468Y00307882D01*
X005715Y00306866D01*
X00573532Y00307882D01*
X00572516Y0030585D01*
X00573532Y00303818D01*
X005715Y00304834D01*
X00569468Y00303818D01*
X00570484Y00304834D02*
X00570992Y0030585D01*
X00570484Y00306866D01*
X005715Y00306358D01*
X00572516Y00306866D01*
X00572008Y0030585D01*
X00572516Y00304834D01*
X005715Y00305342D01*
X00570484Y00304834D01*
X00569468Y00329218D02*
X00570484Y0033125D01*
X00569468Y00333282D01*
X005715Y00332266D01*
X00573532Y00333282D01*
X00572516Y0033125D01*
X00573532Y00329218D01*
X005715Y00330234D01*
X00569468Y00329218D01*
X00570484Y00330234D02*
X00570992Y0033125D01*
X00570484Y00332266D01*
X005715Y00331758D01*
X00572516Y00332266D01*
X00572008Y0033125D01*
X00572516Y00330234D01*
X005715Y00330742D01*
X00570484Y00330234D01*
X00569468Y00354618D02*
X00570484Y0035665D01*
X00569468Y00358682D01*
X005715Y00357666D01*
X00573532Y00358682D01*
X00572516Y0035665D01*
X00573532Y00354618D01*
X005715Y00355634D01*
X00569468Y00354618D01*
X00570484Y00355634D02*
X00570992Y0035665D01*
X00570484Y00357666D01*
X005715Y00357158D01*
X00572516Y00357666D01*
X00572008Y0035665D01*
X00572516Y00355634D01*
X005715Y00356142D01*
X00570484Y00355634D01*
X0003937Y00466598D02*
X00040386Y00467614D01*
X00041402D01*
X00040386Y0046863D01*
X00041402Y00469646D01*
X00040386D01*
X0003937Y00470662D01*
X00038354Y00469646D01*
X00037338D01*
X00038354Y0046863D01*
X00037338Y00467614D01*
X00038354D01*
X0003937Y00466598D01*
Y00467614D02*
X00039878Y00468122D01*
X00040386D01*
X00039878Y0046863D01*
X00040386Y00469138D01*
X00039878D01*
X0003937Y00469646D01*
X00038862Y00469138D01*
X00038354D01*
X00038862Y0046863D01*
X00038354Y00468122D01*
X00038862D01*
X0003937Y00467614D01*
X0010414Y00521208D02*
X00105156Y00522224D01*
X00106172D01*
X00105156Y0052324D01*
X00106172Y00524256D01*
X00105156D01*
X0010414Y00525272D01*
X00103124Y00524256D01*
X00102108D01*
X00103124Y0052324D01*
X00102108Y00522224D01*
X00103124D01*
X0010414Y00521208D01*
Y00522224D02*
X00104648Y00522732D01*
X00105156D01*
X00104648Y0052324D01*
X00105156Y00523748D01*
X00104648D01*
X0010414Y00524256D01*
X00103632Y00523748D01*
X00103124D01*
X00103632Y0052324D01*
X00103124Y00522732D01*
X00103632D01*
X0010414Y00522224D01*
X0010795Y00556548D02*
X00108966Y00557564D01*
X00109982D01*
X00108966Y0055858D01*
X00109982Y00559596D01*
X00108966D01*
X0010795Y00560612D01*
X00106934Y00559596D01*
X00105918D01*
X00106934Y0055858D01*
X00105918Y00557564D01*
X00106934D01*
X0010795Y00556548D01*
Y00557564D02*
X00108458Y00558072D01*
X00108966D01*
X00108458Y0055858D01*
X00108966Y00559088D01*
X00108458D01*
X0010795Y00559596D01*
X00107442Y00559088D01*
X00106934D01*
X00107442Y0055858D01*
X00106934Y00558072D01*
X00107442D01*
X0010795Y00557564D01*
X00123698Y00505968D02*
X00124714Y00508D01*
X00123698Y00510032D01*
X0012573Y00509016D01*
X00127762Y00510032D01*
X00126746Y00508D01*
X00127762Y00505968D01*
X0012573Y00506984D01*
X00123698Y00505968D01*
X00124714Y00506984D02*
X00125222Y00508D01*
X00124714Y00509016D01*
X0012573Y00508508D01*
X00126746Y00509016D01*
X00126238Y00508D01*
X00126746Y00506984D01*
X0012573Y00507492D01*
X00124714Y00506984D01*
X0022479Y00522478D02*
X00225806Y00523494D01*
X00226822D01*
X00225806Y0052451D01*
X00226822Y00525526D01*
X00225806D01*
X0022479Y00526542D01*
X00223774Y00525526D01*
X00222758D01*
X00223774Y0052451D01*
X00222758Y00523494D01*
X00223774D01*
X0022479Y00522478D01*
Y00523494D02*
X00225298Y00524002D01*
X00225806D01*
X00225298Y0052451D01*
X00225806Y00525018D01*
X00225298D01*
X0022479Y00525526D01*
X00224282Y00525018D01*
X00223774D01*
X00224282Y0052451D01*
X00223774Y00524002D01*
X00224282D01*
X0022479Y00523494D01*
X00310134Y00552704D02*
Y00551688D01*
X00312166D01*
Y00552704D01*
X00313182D01*
Y00554736D01*
X00312166D01*
Y00555752D01*
X00310134D01*
Y00554736D01*
X00309118D01*
Y00552704D01*
X00310134D01*
X00310642Y00553212D02*
Y00552704D01*
X00311658D01*
Y00553212D01*
X00312166D01*
Y00554228D01*
X00311658D01*
Y00554736D01*
X00310642D01*
Y00554228D01*
X00310134D01*
Y00553212D01*
X00310642D01*
X0034417Y00546608D02*
X00345186Y00547624D01*
X00346202D01*
X00345186Y0054864D01*
X00346202Y00549656D01*
X00345186D01*
X0034417Y00550672D01*
X00343154Y00549656D01*
X00342138D01*
X00343154Y0054864D01*
X00342138Y00547624D01*
X00343154D01*
X0034417Y00546608D01*
Y00547624D02*
X00344678Y00548132D01*
X00345186D01*
X00344678Y0054864D01*
X00345186Y00549148D01*
X00344678D01*
X0034417Y00549656D01*
X00343662Y00549148D01*
X00343154D01*
X00343662Y0054864D01*
X00343154Y00548132D01*
X00343662D01*
X0034417Y00547624D01*
X0034544Y00438438D02*
X00346456Y00439454D01*
X00347472D01*
X00346456Y0044047D01*
X00347472Y00441486D01*
X00346456D01*
X0034544Y00442502D01*
X00344424Y00441486D01*
X00343408D01*
X00344424Y0044047D01*
X00343408Y00439454D01*
X00344424D01*
X0034544Y00438438D01*
Y00439454D02*
X00345948Y00439962D01*
X00346456D01*
X00345948Y0044047D01*
X00346456Y00440978D01*
X00345948D01*
X0034544Y00441486D01*
X00344932Y00440978D01*
X00344424D01*
X00344932Y0044047D01*
X00344424Y00439962D01*
X00344932D01*
X0034544Y00439454D01*
X00363728Y00456218D02*
Y00460282D01*
X00367792D01*
Y00456218D01*
X00363728D01*
X0037592Y00415798D02*
X00376936Y00416814D01*
X00377952D01*
X00376936Y0041783D01*
X00377952Y00418846D01*
X00376936D01*
X0037592Y00419862D01*
X00374904Y00418846D01*
X00373888D01*
X00374904Y0041783D01*
X00373888Y00416814D01*
X00374904D01*
X0037592Y00415798D01*
Y00416814D02*
X00376428Y00417322D01*
X00376936D01*
X00376428Y0041783D01*
X00376936Y00418338D01*
X00376428D01*
X0037592Y00418846D01*
X00375412Y00418338D01*
X00374904D01*
X00375412Y0041783D01*
X00374904Y00417322D01*
X00375412D01*
X0037592Y00416814D01*
X0038989Y00446278D02*
X00390906Y00447294D01*
X00391922D01*
X00390906Y0044831D01*
X00391922Y00449326D01*
X00390906D01*
X0038989Y00450342D01*
X00388874Y00449326D01*
X00387858D01*
X00388874Y0044831D01*
X00387858Y00447294D01*
X00388874D01*
X0038989Y00446278D01*
Y00447294D02*
X00390398Y00447802D01*
X00390906D01*
X00390398Y0044831D01*
X00390906Y00448818D01*
X00390398D01*
X0038989Y00449326D01*
X00389382Y00448818D01*
X00388874D01*
X00389382Y0044831D01*
X00388874Y00447802D01*
X00389382D01*
X0038989Y00447294D01*
X0008128Y00585978D02*
X00082296Y00586994D01*
X00083312D01*
X00082296Y0058801D01*
X00083312Y00589026D01*
X00082296D01*
X0008128Y00590042D01*
X00080264Y00589026D01*
X00079248D01*
X00080264Y0058801D01*
X00079248Y00586994D01*
X00080264D01*
X0008128Y00585978D01*
Y00586994D02*
X00081788Y00587502D01*
X00082296D01*
X00081788Y0058801D01*
X00082296Y00588518D01*
X00081788D01*
X0008128Y00589026D01*
X00080772Y00588518D01*
X00080264D01*
X00080772Y0058801D01*
X00080264Y00587502D01*
X00080772D01*
X0008128Y00586994D01*
X00128778Y00631698D02*
X00129794Y0063373D01*
X00128778Y00635762D01*
X0013081Y00634746D01*
X00132842Y00635762D01*
X00131826Y0063373D01*
X00132842Y00631698D01*
X0013081Y00632714D01*
X00128778Y00631698D01*
X00129794Y00632714D02*
X00130302Y0063373D01*
X00129794Y00634746D01*
X0013081Y00634238D01*
X00131826Y00634746D01*
X00131318Y0063373D01*
X00131826Y00632714D01*
X0013081Y00633222D01*
X00129794Y00632714D01*
X0013716Y00741968D02*
X00138176Y00742984D01*
X00139192D01*
X00138176Y00744D01*
X00139192Y00745016D01*
X00138176D01*
X0013716Y00746032D01*
X00136144Y00745016D01*
X00135128D01*
X00136144Y00744D01*
X00135128Y00742984D01*
X00136144D01*
X0013716Y00741968D01*
Y00742984D02*
X00137668Y00743492D01*
X00138176D01*
X00137668Y00744D01*
X00138176Y00744508D01*
X00137668D01*
X0013716Y00745016D01*
X00136652Y00744508D01*
X00136144D01*
X00136652Y00744D01*
X00136144Y00743492D01*
X00136652D01*
X0013716Y00742984D01*
X0014224Y00617728D02*
X00143256Y00618744D01*
X00144272D01*
X00143256Y0061976D01*
X00144272Y00620776D01*
X00143256D01*
X0014224Y00621792D01*
X00141224Y00620776D01*
X00140208D01*
X00141224Y0061976D01*
X00140208Y00618744D01*
X00141224D01*
X0014224Y00617728D01*
Y00618744D02*
X00142748Y00619252D01*
X00143256D01*
X00142748Y0061976D01*
X00143256Y00620268D01*
X00142748D01*
X0014224Y00620776D01*
X00141732Y00620268D01*
X00141224D01*
X00141732Y0061976D01*
X00141224Y00619252D01*
X00141732D01*
X0014224Y00618744D01*
X00210058Y00612648D02*
X00211074Y0061468D01*
X00210058Y00616712D01*
X0021209Y00615696D01*
X00214122Y00616712D01*
X00213106Y0061468D01*
X00214122Y00612648D01*
X0021209Y00613664D01*
X00210058Y00612648D01*
X00211074Y00613664D02*
X00211582Y0061468D01*
X00211074Y00615696D01*
X0021209Y00615188D01*
X00213106Y00615696D01*
X00212598Y0061468D01*
X00213106Y00613664D01*
X0021209Y00614172D01*
X00211074Y00613664D01*
X002286Y00714248D02*
X00229616Y00715264D01*
X00230632D01*
X00229616Y0071628D01*
X00230632Y00717296D01*
X00229616D01*
X002286Y00718312D01*
X00227584Y00717296D01*
X00226568D01*
X00227584Y0071628D01*
X00226568Y00715264D01*
X00227584D01*
X002286Y00714248D01*
Y00715264D02*
X00229108Y00715772D01*
X00229616D01*
X00229108Y0071628D01*
X00229616Y00716788D01*
X00229108D01*
X002286Y00717296D01*
X00228092Y00716788D01*
X00227584D01*
X00228092Y0071628D01*
X00227584Y00715772D01*
X00228092D01*
X002286Y00715264D01*
X0027686Y00624078D02*
X00277876Y00625094D01*
X00278892D01*
X00277876Y0062611D01*
X00278892Y00627126D01*
X00277876D01*
X0027686Y00628142D01*
X00275844Y00627126D01*
X00274828D01*
X00275844Y0062611D01*
X00274828Y00625094D01*
X00275844D01*
X0027686Y00624078D01*
Y00625094D02*
X00277368Y00625602D01*
X00277876D01*
X00277368Y0062611D01*
X00277876Y00626618D01*
X00277368D01*
X0027686Y00627126D01*
X00276352Y00626618D01*
X00275844D01*
X00276352Y0062611D01*
X00275844Y00625602D01*
X00276352D01*
X0027686Y00625094D01*
X00314415Y00679413D02*
X00315431Y00680429D01*
X00316447D01*
X00315431Y00681445D01*
X00316447Y00682461D01*
X00315431D01*
X00314415Y00683477D01*
X00313399Y00682461D01*
X00312383D01*
X00313399Y00681445D01*
X00312383Y00680429D01*
X00313399D01*
X00314415Y00679413D01*
Y00680429D02*
X00314923Y00680937D01*
X00315431D01*
X00314923Y00681445D01*
X00315431Y00681953D01*
X00314923D01*
X00314415Y00682461D01*
X00313907Y00681953D01*
X00313399D01*
X00313907Y00681445D01*
X00313399Y00680937D01*
X00313907D01*
X00314415Y00680429D01*
X0033274Y00620268D02*
X00333756Y00621284D01*
X00334772D01*
X00333756Y006223D01*
X00334772Y00623316D01*
X00333756D01*
X0033274Y00624332D01*
X00331724Y00623316D01*
X00330708D01*
X00331724Y006223D01*
X00330708Y00621284D01*
X00331724D01*
X0033274Y00620268D01*
Y00621284D02*
X00333248Y00621792D01*
X00333756D01*
X00333248Y006223D01*
X00333756Y00622808D01*
X00333248D01*
X0033274Y00623316D01*
X00332232Y00622808D01*
X00331724D01*
X00332232Y006223D01*
X00331724Y00621792D01*
X00332232D01*
X0033274Y00621284D01*
X0035687Y00673608D02*
X00357886Y00674624D01*
X00358902D01*
X00357886Y0067564D01*
X00358902Y00676656D01*
X00357886D01*
X0035687Y00677672D01*
X00355854Y00676656D01*
X00354838D01*
X00355854Y0067564D01*
X00354838Y00674624D01*
X00355854D01*
X0035687Y00673608D01*
Y00674624D02*
X00357378Y00675132D01*
X00357886D01*
X00357378Y0067564D01*
X00357886Y00676148D01*
X00357378D01*
X0035687Y00676656D01*
X00356362Y00676148D01*
X00355854D01*
X00356362Y0067564D01*
X00355854Y00675132D01*
X00356362D01*
X0035687Y00674624D01*
X0037338Y00662178D02*
X00374396Y00663194D01*
X00375412D01*
X00374396Y0066421D01*
X00375412Y00665226D01*
X00374396D01*
X0037338Y00666242D01*
X00372364Y00665226D01*
X00371348D01*
X00372364Y0066421D01*
X00371348Y00663194D01*
X00372364D01*
X0037338Y00662178D01*
Y00663194D02*
X00373888Y00663702D01*
X00374396D01*
X00373888Y0066421D01*
X00374396Y00664718D01*
X00373888D01*
X0037338Y00665226D01*
X00372872Y00664718D01*
X00372364D01*
X00372872Y0066421D01*
X00372364Y00663702D01*
X00372872D01*
X0037338Y00663194D01*
X0037592Y00779018D02*
X00376936Y00780034D01*
X00377952D01*
X00376936Y0078105D01*
X00377952Y00782066D01*
X00376936D01*
X0037592Y00783082D01*
X00374904Y00782066D01*
X00373888D01*
X00374904Y0078105D01*
X00373888Y00780034D01*
X00374904D01*
X0037592Y00779018D01*
Y00780034D02*
X00376428Y00780542D01*
X00376936D01*
X00376428Y0078105D01*
X00376936Y00781558D01*
X00376428D01*
X0037592Y00782066D01*
X00375412Y00781558D01*
X00374904D01*
X00375412Y0078105D01*
X00374904Y00780542D01*
X00375412D01*
X0037592Y00780034D01*
X0038481Y00617728D02*
X00385826Y00618744D01*
X00386842D01*
X00385826Y0061976D01*
X00386842Y00620776D01*
X00385826D01*
X0038481Y00621792D01*
X00383794Y00620776D01*
X00382778D01*
X00383794Y0061976D01*
X00382778Y00618744D01*
X00383794D01*
X0038481Y00617728D01*
Y00618744D02*
X00385318Y00619252D01*
X00385826D01*
X00385318Y0061976D01*
X00385826Y00620268D01*
X00385318D01*
X0038481Y00620776D01*
X00384302Y00620268D01*
X00383794D01*
X00384302Y0061976D01*
X00383794Y00619252D01*
X00384302D01*
X0038481Y00618744D01*
X00436388Y00443246D02*
X00437404Y00444262D01*
X0043842D01*
X00437404Y00445278D01*
X0043842Y00446294D01*
X00437404D01*
X00436388Y0044731D01*
X00435372Y00446294D01*
X00434356D01*
X00435372Y00445278D01*
X00434356Y00444262D01*
X00435372D01*
X00436388Y00443246D01*
Y00444262D02*
X00436896Y0044477D01*
X00437404D01*
X00436896Y00445278D01*
X00437404Y00445786D01*
X00436896D01*
X00436388Y00446294D01*
X0043588Y00445786D01*
X00435372D01*
X0043588Y00445278D01*
X00435372Y0044477D01*
X0043588D01*
X00436388Y00444262D01*
X0042291Y00453898D02*
X00423926Y00454914D01*
X00424942D01*
X00423926Y0045593D01*
X00424942Y00456946D01*
X00423926D01*
X0042291Y00457962D01*
X00421894Y00456946D01*
X00420878D01*
X00421894Y0045593D01*
X00420878Y00454914D01*
X00421894D01*
X0042291Y00453898D01*
Y00454914D02*
X00423418Y00455422D01*
X00423926D01*
X00423418Y0045593D01*
X00423926Y00456438D01*
X00423418D01*
X0042291Y00456946D01*
X00422402Y00456438D01*
X00421894D01*
X00422402Y0045593D01*
X00421894Y00455422D01*
X00422402D01*
X0042291Y00454914D01*
X0053975Y00497078D02*
X00540766Y00498094D01*
X00541782D01*
X00540766Y0049911D01*
X00541782Y00500126D01*
X00540766D01*
X0053975Y00501142D01*
X00538734Y00500126D01*
X00537718D01*
X00538734Y0049911D01*
X00537718Y00498094D01*
X00538734D01*
X0053975Y00497078D01*
Y00498094D02*
X00540258Y00498602D01*
X00540766D01*
X00540258Y0049911D01*
X00540766Y00499618D01*
X00540258D01*
X0053975Y00500126D01*
X00539242Y00499618D01*
X00538734D01*
X00539242Y0049911D01*
X00538734Y00498602D01*
X00539242D01*
X0053975Y00498094D01*
X0052832Y00509778D02*
X00529336Y00510794D01*
X00530352D01*
X00529336Y0051181D01*
X00530352Y00512826D01*
X00529336D01*
X0052832Y00513842D01*
X00527304Y00512826D01*
X00526288D01*
X00527304Y0051181D01*
X00526288Y00510794D01*
X00527304D01*
X0052832Y00509778D01*
Y00510794D02*
X00528828Y00511302D01*
X00529336D01*
X00528828Y0051181D01*
X00529336Y00512318D01*
X00528828D01*
X0052832Y00512826D01*
X00527812Y00512318D01*
X00527304D01*
X00527812Y0051181D01*
X00527304Y00511302D01*
X00527812D01*
X0052832Y00510794D01*
D96*
X00633222Y0086592D02*
G03*
X00633222Y0086592I-00002032J0D01*
G01*
Y0089132D02*
G03*
X00633222Y0089132I-00002032J0D01*
G01*
X00709422Y0086487D02*
G03*
X00709422Y0086487I-00002032J0D01*
G01*
Y0089027D02*
G03*
X00709422Y0089027I-00002032J0D01*
G01*
X00210561Y0087884D02*
G03*
X00210561Y0087884I-00002032J0D01*
G01*
D97*
X00209545D02*
G03*
X00209545Y0087884I-00001016J0D01*
G01*
M02*
