M48
;Layer_Color=9474304
;FILE_FORMAT=4:4
METRIC,LZ
;TYPE=PLATED
T1F00S00C0.2540
T2F00S00C0.6000
T3F00S00C0.7112
T4F00S00C0.7500
T5F00S00C0.7620
T6F00S00C0.8000
T7F00S00C0.8890
T8F00S00C0.9000
T9F00S00C1.0400
T11F00S00C1.2400
T12F00S00C1.2700
T13F00S00C3.5000
%
T01
X0013335Y0033401
X00383794Y00254
X00392167Y00245373
X0040767Y0026797
X0040894Y002794
X0049784Y0034014
X0051435Y003503
X0052832Y0036046
X0054356Y0037189
X005715Y0035665
Y0033125
Y0030585
Y0028045
X0012573Y0040259
Y00508
X0013081Y0063373
X0021209Y0061468
T02
X0036576Y0045825
X0049657Y0086831
Y0088101
X00557226Y0088101
Y0086831
T03
X00151701Y00224397
X0019558Y0024235
X0022733Y0022965
X00348065Y00355295
X0034798Y0038205
X0012319Y00381
X004191Y0024384
X0051181Y0025146
X00501713Y0016824
X0048895Y0010033
X00593635Y00125185
X0057531Y0017653
X00635Y0025019
X0077343Y0023622
X0079883Y0028807
X0086995Y0028934
X0057023Y0040894
X0053975Y0049911
X0052832Y0051181
X0051689Y006223
X0051816Y0077343
X0045847Y007874
X0040767Y0054991
X0042291Y0045593
X00436388Y00445278
X0038989Y0044831
X0037592Y0041783
X0034544Y0044047
X0034417Y0054864
X0033274Y006223
X0038481Y0061976
X0037338Y0066421
X0035687Y0067564
X00314415Y00681445
X0027686Y0062611
X0024511
X002286Y0071628
X0013716Y00744
X0014224Y0061976
X0008128Y0058801
X0004318Y0057404
X0010795Y0055858
X0010414Y0052324
X0004445Y0049414
X0003937Y0046863
X0022479Y0052451
X0037592Y0078105
X00511637Y00814251
X0052197Y0089386
X0059309Y0089535
T04
X0040132Y0094085
X0041832
X0043532
Y0099085
X0041832
X0040132
T05
X0031115Y0055372
T06
X0063119Y0086592
Y0089132
X0070739Y0089027
Y0086487
T07
X003302Y0080899
X004064
X007632Y0093345
X007882
X008132
X008382
T08
X0015875Y0025632
X0018415
Y0028172
X0015875
Y0030712
X0018415
Y0033252
X0015875
Y0035792
X0018415
Y0038332
X0015875
X0027051Y002233
Y001979
X0029591
Y002233
X0032131
Y001979
X0034671
Y002233
X0037211
Y001979
X0039751
Y002233
X0042291
Y001979
X0044831
Y002233
X0047371
Y001979
X0049911
Y002233
X0052451
Y001979
X0054991
Y002233
X0059436Y0026775
Y0029315
Y0031855
Y0034395
Y0036935
Y0039475
X0061976
Y0036935
Y0034395
Y0031855
Y0029315
Y0026775
X0066548Y0025908
Y0023368
Y0020828
Y0028448
Y0030988
Y0033528
Y0036068
Y0038608
X0099187
Y0036068
Y0033528
Y0030988
Y0028448
Y0025908
Y0023368
Y0020828
Y0041148
Y0043688
Y0046228
Y0048768
Y0051308
Y0053848
Y0056388
Y0058928
Y0061468
Y0064008
Y0066548
Y0069088
X0066548
Y0066548
Y0064008
Y0061468
Y0058928
Y0056388
Y0053848
Y0051308
Y0048768
Y0046228
Y0043688
Y0041148
X0061976Y0042015
Y0044555
Y0047095
Y0049635
Y0052175
Y0054715
X0059436
Y0052175
Y0049635
Y0047095
Y0044555
Y0042015
X0054991Y0057255
X0052451
X0049911
X0047371
X0044831
X0042291
X0039751
Y0059795
X0042291
X0044831
X0047371
X0049911
X0052451
X0054991
X0037211
X0034671
X0032131
X0029591
X0027051
Y0057255
X0029591
X0032131
X0034671
X0037211
X0018415Y0053572
Y0051032
Y0048492
Y0045952
Y0043412
Y0040872
X0015875
Y0043412
Y0045952
Y0048492
Y0051032
Y0053572
X00767063Y00862347
X00792462
X00817862
X00843262
T09
X0005715Y002794
Y003048
Y003302
Y003556
Y00381
X0008255
Y003556
Y003302
Y003048
Y002794
X0029845Y0013821
Y0011281
X0032385
X0034925
X0037465
Y0013821
X0034925
X0032385
X0040005
Y0011281
X0042545
X0045085
X0047625
X0050165
X0052705
Y0013821
X0050165
X0047625
X0045085
X0042545
X0070231Y0023622
Y0026162
Y0028702
Y0031242
Y0033782
Y0036322
Y0038862
X0095631
Y0036322
Y0033782
Y0031242
Y0028702
Y0026162
Y0023622
Y0041402
Y0043942
Y0046482
Y0049022
Y0051562
Y0054102
Y0056642
Y0059182
Y0061722
Y0064262
Y0066802
Y0069342
X0070231
Y0066802
Y0064262
Y0061722
Y0059182
Y0056642
Y0054102
Y0051562
Y0049022
Y0046482
Y0043942
Y0041402
X0008255Y004064
X0005715
Y004318
Y004572
Y004826
Y00508
X0008255
Y004826
Y004572
Y004318
T11
X0049657Y0096901
X0052197
X0054737
X0064516
X0067056
X0069596
T12
X00062391Y0078105
Y0083185
T13
X0010889Y0011778
X0090889
X0010889Y0091778
X0090889
M30
