G04*
G04 #@! TF.GenerationSoftware,Altium Limited,Altium Designer,21.3.2 (30)*
G04*
G04 Layer_Color=255*
%FSTAX44Y44*%
%MOMM*%
G71*
G04*
G04 #@! TF.SameCoordinates,F8E9BDDD-FC12-4FEB-8D7F-7DE70A56B409*
G04*
G04*
G04 #@! TF.FilePolarity,Positive*
G04*
G01*
G75*
%ADD23R,1.2000X1.4000*%
G04:AMPARAMS|DCode=24|XSize=5.5mm|YSize=1.5mm|CornerRadius=0.1875mm|HoleSize=0mm|Usage=FLASHONLY|Rotation=90.000|XOffset=0mm|YOffset=0mm|HoleType=Round|Shape=RoundedRectangle|*
%AMROUNDEDRECTD24*
21,1,5.5000,1.1250,0,0,90.0*
21,1,5.1250,1.5000,0,0,90.0*
1,1,0.3750,0.5625,2.5625*
1,1,0.3750,0.5625,-2.5625*
1,1,0.3750,-0.5625,-2.5625*
1,1,0.3750,-0.5625,2.5625*
%
%ADD24ROUNDEDRECTD24*%
%ADD25R,1.4000X1.2000*%
%ADD26O,1.4500X0.3000*%
%ADD27O,0.3000X1.4500*%
%ADD28R,0.8000X1.2000*%
%ADD29R,1.3970X1.2700*%
%ADD30R,1.2700X1.3970*%
G04:AMPARAMS|DCode=31|XSize=1.34mm|YSize=3.29mm|CornerRadius=0.1675mm|HoleSize=0mm|Usage=FLASHONLY|Rotation=270.000|XOffset=0mm|YOffset=0mm|HoleType=Round|Shape=RoundedRectangle|*
%AMROUNDEDRECTD31*
21,1,1.3400,2.9550,0,0,270.0*
21,1,1.0050,3.2900,0,0,270.0*
1,1,0.3350,-1.4775,-0.5025*
1,1,0.3350,-1.4775,0.5025*
1,1,0.3350,1.4775,0.5025*
1,1,0.3350,1.4775,-0.5025*
%
%ADD31ROUNDEDRECTD31*%
%ADD32R,1.7000X1.7000*%
%ADD33R,1.7000X1.7000*%
%ADD71R,1.5000X1.0000*%
%ADD72O,1.5000X1.0000*%
%ADD73R,1.5000X1.3000*%
%ADD74O,1.5000X1.3000*%
%ADD75O,1.2000X2.2000*%
%ADD76R,1.8600X1.8600*%
%ADD77C,1.8600*%
%ADD78R,1.5000X1.5000*%
%ADD79C,1.5000*%
%ADD80R,1.5000X1.5000*%
%ADD81C,2.0320*%
%ADD82R,2.0320X2.0320*%
%ADD83C,1.5600*%
%ADD84R,1.5600X1.5600*%
%ADD85C,5.0000*%
%ADD86C,2.0000*%
%ADD87R,2.0000X2.0000*%
%ADD88C,1.4000*%
%ADD89C,2.7940*%
%ADD90O,3.2000X2.2000*%
D23*
X00296614Y00505206D02*
D03*
X00315614D02*
D03*
X00615334Y00624586D02*
D03*
X00596334D02*
D03*
X00612844Y00807112D02*
D03*
X00631844D02*
D03*
X00598786Y00215018D02*
D03*
X00617786D02*
D03*
X00600056Y00185808D02*
D03*
X00619056D02*
D03*
X00596334Y00600456D02*
D03*
X00615334D02*
D03*
D24*
X0023495Y0035987D02*
D03*
Y0044487D02*
D03*
D25*
X00271746Y00397856D02*
D03*
Y00378856D02*
D03*
X00271814Y00417044D02*
D03*
Y00436044D02*
D03*
X00507966Y00493326D02*
D03*
Y00474326D02*
D03*
X00202538Y00718034D02*
D03*
Y00737034D02*
D03*
X00203808Y00803074D02*
D03*
Y00784074D02*
D03*
X00408332Y00869026D02*
D03*
Y00850026D02*
D03*
X00532738Y00798264D02*
D03*
Y00817264D02*
D03*
X00488342Y00809606D02*
D03*
Y00828606D02*
D03*
X00594968Y00954474D02*
D03*
Y00973474D02*
D03*
X00164492Y00674766D02*
D03*
Y00693766D02*
D03*
X00190466D02*
D03*
Y00674766D02*
D03*
X00333348Y00681374D02*
D03*
Y00662374D02*
D03*
D26*
X003259Y0046215D02*
D03*
Y0045715D02*
D03*
Y0045215D02*
D03*
Y0044715D02*
D03*
Y0044215D02*
D03*
Y0043715D02*
D03*
Y0043215D02*
D03*
Y0042715D02*
D03*
Y0042215D02*
D03*
Y0041715D02*
D03*
Y0041215D02*
D03*
Y0040715D02*
D03*
Y0040215D02*
D03*
Y0039715D02*
D03*
Y0039215D02*
D03*
Y0038715D02*
D03*
Y0038215D02*
D03*
Y0037715D02*
D03*
Y0037215D02*
D03*
Y0036715D02*
D03*
Y0036215D02*
D03*
Y0035715D02*
D03*
Y0035215D02*
D03*
Y0034715D02*
D03*
Y0034215D02*
D03*
X004804D02*
D03*
Y0034715D02*
D03*
Y0035215D02*
D03*
Y0035715D02*
D03*
Y0036215D02*
D03*
Y0036715D02*
D03*
Y0037215D02*
D03*
Y0037715D02*
D03*
Y0038215D02*
D03*
Y0038715D02*
D03*
Y0039215D02*
D03*
Y0039715D02*
D03*
Y0040215D02*
D03*
Y0040715D02*
D03*
Y0041215D02*
D03*
Y0041715D02*
D03*
Y0042215D02*
D03*
Y0042715D02*
D03*
Y0043215D02*
D03*
Y0043715D02*
D03*
Y0044215D02*
D03*
Y0044715D02*
D03*
Y0045215D02*
D03*
Y0045715D02*
D03*
Y0046215D02*
D03*
D27*
X0034315Y003249D02*
D03*
X0034815D02*
D03*
X0035315D02*
D03*
X0035815D02*
D03*
X0036315D02*
D03*
X0036815D02*
D03*
X0037315D02*
D03*
X0037815D02*
D03*
X0038315D02*
D03*
X0038815D02*
D03*
X0039315D02*
D03*
X0039815D02*
D03*
X0040315D02*
D03*
X0040815D02*
D03*
X0041315D02*
D03*
X0041815D02*
D03*
X0042315D02*
D03*
X0042815D02*
D03*
X0043315D02*
D03*
X0043815D02*
D03*
X0044315D02*
D03*
X0044815D02*
D03*
X0045315D02*
D03*
X0045815D02*
D03*
X0046315D02*
D03*
Y004794D02*
D03*
X0045815D02*
D03*
X0045315D02*
D03*
X0044815D02*
D03*
X0044315D02*
D03*
X0043815D02*
D03*
X0043315D02*
D03*
X0042815D02*
D03*
X0042315D02*
D03*
X0041815D02*
D03*
X0041315D02*
D03*
X0040815D02*
D03*
X0040315D02*
D03*
X0039815D02*
D03*
X0039315D02*
D03*
X0038815D02*
D03*
X0038315D02*
D03*
X0037815D02*
D03*
X0037315D02*
D03*
X0036815D02*
D03*
X0036315D02*
D03*
X0035815D02*
D03*
X0035315D02*
D03*
X0034815D02*
D03*
X0034315D02*
D03*
D28*
X0017018Y0078662D02*
D03*
Y0071662D02*
D03*
D29*
X0037973Y0086995D02*
D03*
Y0084709D02*
D03*
D30*
X0043434Y0076581D02*
D03*
X004572D02*
D03*
D31*
X0044577Y0081407D02*
D03*
Y0085707D02*
D03*
D32*
X0056642Y0078868D02*
D03*
Y0082168D02*
D03*
D33*
X0070611Y0080772D02*
D03*
X0067311D02*
D03*
D71*
X00557226Y0086831D02*
D03*
X0049657Y0086831D02*
D03*
D72*
X00557226Y0088101D02*
D03*
X0049657Y0088101D02*
D03*
D73*
X0063119Y0086592D02*
D03*
X0070739Y0086487D02*
D03*
D74*
X0063119Y0089132D02*
D03*
X0070739Y0089027D02*
D03*
D75*
X0043532Y0094085D02*
D03*
X0041832D02*
D03*
X0040132D02*
D03*
Y0099085D02*
D03*
X0041832D02*
D03*
X0043532D02*
D03*
D76*
X0049657Y0096901D02*
D03*
X0064516D02*
D03*
D77*
X0052197D02*
D03*
X0054737D02*
D03*
X0067056D02*
D03*
X0069596D02*
D03*
D78*
X0066548Y0020828D02*
D03*
X0061976Y0026775D02*
D03*
X0099187Y0020828D02*
D03*
X0015875Y0053572D02*
D03*
D79*
X0066548Y0023368D02*
D03*
Y0025908D02*
D03*
Y0028448D02*
D03*
Y0030988D02*
D03*
Y0033528D02*
D03*
Y0036068D02*
D03*
Y0038608D02*
D03*
Y0041148D02*
D03*
Y0043688D02*
D03*
Y0046228D02*
D03*
Y0048768D02*
D03*
Y0051308D02*
D03*
Y0053848D02*
D03*
Y0056388D02*
D03*
Y0058928D02*
D03*
Y0061468D02*
D03*
Y0064008D02*
D03*
Y0066548D02*
D03*
Y0069088D02*
D03*
X0059436Y0054715D02*
D03*
X0061976D02*
D03*
X0059436Y0052175D02*
D03*
X0061976D02*
D03*
X0059436Y0049635D02*
D03*
X0061976D02*
D03*
X0059436Y0047095D02*
D03*
X0061976D02*
D03*
X0059436Y0044555D02*
D03*
X0061976D02*
D03*
X0059436Y0042015D02*
D03*
X0061976D02*
D03*
X0059436Y0039475D02*
D03*
X0061976D02*
D03*
X0059436Y0036935D02*
D03*
X0061976D02*
D03*
X0059436Y0034395D02*
D03*
X0061976D02*
D03*
X0059436Y0031855D02*
D03*
X0061976D02*
D03*
X0059436Y0029315D02*
D03*
X0061976D02*
D03*
X0059436Y0026775D02*
D03*
X0027051Y0057255D02*
D03*
Y0059795D02*
D03*
X0029591Y0057255D02*
D03*
Y0059795D02*
D03*
X0032131Y0057255D02*
D03*
Y0059795D02*
D03*
X0034671Y0057255D02*
D03*
Y0059795D02*
D03*
X0037211Y0057255D02*
D03*
Y0059795D02*
D03*
X0039751Y0057255D02*
D03*
Y0059795D02*
D03*
X0042291Y0057255D02*
D03*
Y0059795D02*
D03*
X0044831Y0057255D02*
D03*
Y0059795D02*
D03*
X0047371Y0057255D02*
D03*
Y0059795D02*
D03*
X0049911Y0057255D02*
D03*
Y0059795D02*
D03*
X0052451Y0057255D02*
D03*
Y0059795D02*
D03*
X0054991Y0057255D02*
D03*
X0099187Y0023368D02*
D03*
Y0025908D02*
D03*
Y0028448D02*
D03*
Y0030988D02*
D03*
Y0033528D02*
D03*
Y0036068D02*
D03*
Y0038608D02*
D03*
Y0041148D02*
D03*
Y0043688D02*
D03*
Y0046228D02*
D03*
Y0048768D02*
D03*
Y0051308D02*
D03*
Y0053848D02*
D03*
Y0056388D02*
D03*
Y0058928D02*
D03*
Y0061468D02*
D03*
Y0064008D02*
D03*
Y0066548D02*
D03*
Y0069088D02*
D03*
X00792462Y00862347D02*
D03*
X00817862D02*
D03*
X00843262D02*
D03*
X0018415Y0025632D02*
D03*
X0015875D02*
D03*
X0018415Y0028172D02*
D03*
X0015875D02*
D03*
X0018415Y0030712D02*
D03*
X0015875D02*
D03*
X0018415Y0033252D02*
D03*
X0015875D02*
D03*
X0018415Y0035792D02*
D03*
X0015875D02*
D03*
X0018415Y0038332D02*
D03*
X0015875D02*
D03*
X0018415Y0040872D02*
D03*
X0015875D02*
D03*
X0018415Y0043412D02*
D03*
X0015875D02*
D03*
X0018415Y0045952D02*
D03*
X0015875D02*
D03*
X0018415Y0048492D02*
D03*
X0015875D02*
D03*
X0018415Y0051032D02*
D03*
X0015875D02*
D03*
X0018415Y0053572D02*
D03*
X0027051Y002233D02*
D03*
X0029591Y001979D02*
D03*
Y002233D02*
D03*
X0032131Y001979D02*
D03*
Y002233D02*
D03*
X0034671Y001979D02*
D03*
Y002233D02*
D03*
X0037211Y001979D02*
D03*
Y002233D02*
D03*
X0039751Y001979D02*
D03*
Y002233D02*
D03*
X0042291Y001979D02*
D03*
Y002233D02*
D03*
X0044831Y001979D02*
D03*
Y002233D02*
D03*
X0047371Y001979D02*
D03*
Y002233D02*
D03*
X0049911Y001979D02*
D03*
Y002233D02*
D03*
X0052451Y001979D02*
D03*
Y002233D02*
D03*
X0054991Y001979D02*
D03*
Y002233D02*
D03*
D80*
Y0059795D02*
D03*
X00767063Y00862347D02*
D03*
X0027051Y001979D02*
D03*
D81*
X003302Y0080899D02*
D03*
D82*
X004064D02*
D03*
D83*
X0095631Y0023622D02*
D03*
Y0026162D02*
D03*
Y0028702D02*
D03*
Y0031242D02*
D03*
Y0033782D02*
D03*
Y0036322D02*
D03*
Y0038862D02*
D03*
Y0041402D02*
D03*
Y0043942D02*
D03*
Y0046482D02*
D03*
Y0049022D02*
D03*
Y0051562D02*
D03*
Y0054102D02*
D03*
Y0056642D02*
D03*
Y0059182D02*
D03*
Y0061722D02*
D03*
Y0064262D02*
D03*
Y0066802D02*
D03*
Y0069342D02*
D03*
X0070231Y0026162D02*
D03*
Y0028702D02*
D03*
Y0031242D02*
D03*
Y0033782D02*
D03*
Y0036322D02*
D03*
Y0038862D02*
D03*
Y0041402D02*
D03*
Y0043942D02*
D03*
Y0046482D02*
D03*
Y0049022D02*
D03*
Y0051562D02*
D03*
Y0054102D02*
D03*
Y0056642D02*
D03*
Y0059182D02*
D03*
Y0061722D02*
D03*
Y0064262D02*
D03*
Y0023622D02*
D03*
Y0066802D02*
D03*
D84*
Y0069342D02*
D03*
D85*
X0090889Y0011778D02*
D03*
Y0091778D02*
D03*
X0010889Y0011778D02*
D03*
Y0091778D02*
D03*
D86*
X008382Y0093345D02*
D03*
X008132D02*
D03*
X007882D02*
D03*
D87*
X007632D02*
D03*
D88*
X0052705Y0011281D02*
D03*
X0050165D02*
D03*
X0047625D02*
D03*
X0045085D02*
D03*
X0042545D02*
D03*
X0040005D02*
D03*
X0037465D02*
D03*
X0034925D02*
D03*
X0032385D02*
D03*
X0029845D02*
D03*
Y0013821D02*
D03*
D03*
D03*
X0052705D02*
D03*
X0050165D02*
D03*
X0047625D02*
D03*
X0045085D02*
D03*
X0042545D02*
D03*
X0040005D02*
D03*
X0037465D02*
D03*
X0034925D02*
D03*
X0032385D02*
D03*
X0029845D02*
D03*
D03*
X0005715Y002794D02*
D03*
D03*
Y003048D02*
D03*
Y003302D02*
D03*
Y003556D02*
D03*
Y00381D02*
D03*
Y004064D02*
D03*
Y004318D02*
D03*
Y004572D02*
D03*
Y004826D02*
D03*
Y00508D02*
D03*
Y002794D02*
D03*
D03*
D03*
X0008255D02*
D03*
Y003048D02*
D03*
Y003302D02*
D03*
Y003556D02*
D03*
Y00381D02*
D03*
Y004064D02*
D03*
Y004318D02*
D03*
Y004572D02*
D03*
Y004826D02*
D03*
Y00508D02*
D03*
D89*
X00062391Y0083185D02*
D03*
Y0078105D02*
D03*
D90*
X00208528Y0087884D02*
D03*
X00303529D02*
D03*
M02*
