G04*
G04 #@! TF.GenerationSoftware,Altium Limited,Altium Designer,21.3.2 (30)*
G04*
G04 Layer_Color=32896*
%FSTAX44Y44*%
%MOMM*%
G71*
G04*
G04 #@! TF.SameCoordinates,71E4571F-97C7-41C0-9591-7C9436880AE0*
G04*
G04*
G04 #@! TF.FilePolarity,Positive*
G04*
G01*
G75*
%ADD11C,0.2540*%
D11*
X00042754Y0033274D02*
Y00342897D01*
X00037676D01*
X00035983Y00341204D01*
Y00337818D01*
X00037676Y00336126D01*
X00042754D01*
X00032597Y00339511D02*
Y00334433D01*
X00030904Y0033274D01*
X00025826D01*
Y00339511D01*
X00022441Y0033274D02*
X00019055D01*
X00020748D01*
Y00342897D01*
X00022441D01*
X00007205Y00341204D02*
X00008898Y00342897D01*
X00012284D01*
X00013977Y00341204D01*
Y00339511D01*
X00012284Y00337818D01*
X00008898D01*
X00007205Y00336126D01*
Y00334433D01*
X00008898Y0033274D01*
X00012284D01*
X00013977Y00334433D01*
X00035983Y00290404D02*
X00037676Y00292097D01*
X00041061D01*
X00042754Y00290404D01*
Y00283633D01*
X00041061Y0028194D01*
X00037676D01*
X00035983Y00283633D01*
Y00287018D01*
X00039368D01*
X00032597Y0028194D02*
Y00292097D01*
X00025826Y0028194D01*
Y00292097D01*
X00022441D02*
Y0028194D01*
X00017362D01*
X00015669Y00283633D01*
Y00290404D01*
X00017362Y00292097D01*
X00022441D01*
X00042754Y00368297D02*
Y0035814D01*
X00037676D01*
X00035983Y00359833D01*
Y00366604D01*
X00037676Y00368297D01*
X00042754D01*
X00032597Y0035814D02*
X00029212D01*
X00030904D01*
Y00364911D01*
X00032597D01*
X00024133D02*
Y0035814D01*
Y00361526D01*
X00022441Y00363218D01*
X00020748Y00364911D01*
X00019055D01*
X00007205Y00366604D02*
X00008898Y00368297D01*
X00012284D01*
X00013977Y00366604D01*
Y00364911D01*
X00012284Y00363218D01*
X00008898D01*
X00007205Y00361526D01*
Y00359833D01*
X00008898Y0035814D01*
X00012284D01*
X00013977Y00359833D01*
X00035983Y00392004D02*
X00037676Y00393697D01*
X00041061D01*
X00042754Y00392004D01*
Y00385233D01*
X00041061Y0038354D01*
X00037676D01*
X00035983Y00385233D01*
Y00388618D01*
X00039368D01*
X00032597Y0038354D02*
Y00393697D01*
X00025826Y0038354D01*
Y00393697D01*
X00022441D02*
Y0038354D01*
X00017362D01*
X00015669Y00385233D01*
Y00392004D01*
X00017362Y00393697D01*
X00022441D01*
X00032599Y00265427D02*
X0003937D01*
Y00260348D01*
X00035984Y00262041D01*
X00034292D01*
X00032599Y00260348D01*
Y00256963D01*
X00034292Y0025527D01*
X00037677D01*
X0003937Y00256963D01*
X00029213Y00265427D02*
Y00258656D01*
X00025828Y0025527D01*
X00022442Y00258656D01*
Y00265427D01*
X00035983Y00417404D02*
X00037676Y00419097D01*
X00041061D01*
X00042754Y00417404D01*
Y00410633D01*
X00041061Y0040894D01*
X00037676D01*
X00035983Y00410633D01*
Y00414018D01*
X00039368D01*
X00032597Y0040894D02*
Y00419097D01*
X00025826Y0040894D01*
Y00419097D01*
X00022441D02*
Y0040894D01*
X00017362D01*
X00015669Y00410633D01*
Y00417404D01*
X00017362Y00419097D01*
X00022441D01*
X00035983Y00444074D02*
X00037676Y00445767D01*
X00041061D01*
X00042754Y00444074D01*
Y00437303D01*
X00041061Y0043561D01*
X00037676D01*
X00035983Y00437303D01*
Y00440688D01*
X00039368D01*
X00032597Y0043561D02*
Y00445767D01*
X00025826Y0043561D01*
Y00445767D01*
X00022441D02*
Y0043561D01*
X00017362D01*
X00015669Y00437303D01*
Y00444074D01*
X00017362Y00445767D01*
X00022441D01*
X0014224Y0043307D02*
Y00443227D01*
X00137162D01*
X00135469Y00441534D01*
Y00438148D01*
X00137162Y00436456D01*
X0014224D01*
X00132083Y00443227D02*
Y0043307D01*
X00128698Y00436456D01*
X00125312Y0043307D01*
Y00443227D01*
X00121927Y0043307D02*
Y00443227D01*
X00118541Y00439841D01*
X00115155Y00443227D01*
Y0043307D01*
X0011177Y00443227D02*
Y0043307D01*
X00104999D01*
X0014224Y004064D02*
Y00416557D01*
X00137162D01*
X00135469Y00414864D01*
Y00411478D01*
X00137162Y00409786D01*
X0014224D01*
X00132083Y00416557D02*
Y004064D01*
X00128698Y00409786D01*
X00125312Y004064D01*
Y00416557D01*
X00121927Y004064D02*
Y00416557D01*
X00118541Y00413171D01*
X00115155Y00416557D01*
Y004064D01*
X0011177D02*
Y00416557D01*
X00106692D01*
X00104999Y00414864D01*
Y00411478D01*
X00106692Y00409786D01*
X0011177D01*
X00108384D02*
X00104999Y004064D01*
X00140547Y00391157D02*
Y00381D01*
X00135469D01*
X00133776Y00382693D01*
Y00389464D01*
X00135469Y00391157D01*
X00140547D01*
X00130391D02*
X00127005D01*
X00128698D01*
Y00381D01*
X00130391D01*
X00127005D01*
X00121927D02*
Y00391157D01*
X00116848D01*
X00115155Y00389464D01*
Y00386078D01*
X00116848Y00384386D01*
X00121927D01*
X00118541D02*
X00115155Y00381D01*
X0011177D02*
Y00391157D01*
X00106692D01*
X00104999Y00389464D01*
Y00386078D01*
X00106692Y00384386D01*
X0011177D01*
X00108384D02*
X00104999Y00381D01*
X00140547Y00365757D02*
Y003556D01*
X00135469D01*
X00133776Y00357293D01*
Y00364064D01*
X00135469Y00365757D01*
X00140547D01*
X00130391D02*
X00127005D01*
X00128698D01*
Y003556D01*
X00130391D01*
X00127005D01*
X00121927D02*
Y00365757D01*
X00116848D01*
X00115155Y00364064D01*
Y00360678D01*
X00116848Y00358986D01*
X00121927D01*
X00118541D02*
X00115155Y003556D01*
X0011177Y00365757D02*
Y003556D01*
X00104999D01*
X00135469Y00289557D02*
X0014224D01*
Y002794D01*
X00135469D01*
X0014224Y00284478D02*
X00138854D01*
X00132083Y002794D02*
Y00286171D01*
X00127005D01*
X00125312Y00284478D01*
Y002794D01*
X00121927D02*
Y00289557D01*
X00116848D01*
X00115155Y00287864D01*
Y00284478D01*
X00116848Y00282786D01*
X00121927D01*
X00118541D02*
X00115155Y002794D01*
X00104999D02*
X0011177D01*
X00104999Y00286171D01*
Y00287864D01*
X00106692Y00289557D01*
X00110077D01*
X0011177Y00287864D01*
X00132083Y00262887D02*
X00138854D01*
Y0025273D01*
X00132083D01*
X00138854Y00257808D02*
X00135469D01*
X00128698Y0025273D02*
Y00259501D01*
X00123619D01*
X00121927Y00257808D01*
Y0025273D01*
X00118541D02*
Y00262887D01*
X00113463D01*
X0011177Y00261194D01*
Y00257808D01*
X00113463Y00256116D01*
X00118541D01*
X00115155D02*
X0011177Y0025273D01*
X00108384D02*
X00104999D01*
X00106692D01*
Y00262887D01*
X00108384Y00261194D01*
X00135469Y00344167D02*
X0014224D01*
Y0033401D01*
X00135469D01*
X0014224Y00339088D02*
X00138854D01*
X00132083Y0033401D02*
Y00340781D01*
X00127005D01*
X00125312Y00339088D01*
Y0033401D01*
X00121927Y00344167D02*
Y0033401D01*
X00115155D01*
X00104999D02*
X0011177D01*
X00104999Y00340781D01*
Y00342474D01*
X00106692Y00344167D01*
X00110077D01*
X0011177Y00342474D01*
X00132083Y00313687D02*
X00138854D01*
Y0030353D01*
X00132083D01*
X00138854Y00308608D02*
X00135469D01*
X00128698Y0030353D02*
Y00310301D01*
X00123619D01*
X00121927Y00308608D01*
Y0030353D01*
X00118541Y00313687D02*
Y0030353D01*
X0011177D01*
X00108384D02*
X00104999D01*
X00106692D01*
Y00313687D01*
X00108384Y00311994D01*
X0053594Y00127422D02*
Y00152814D01*
X00523244D01*
X00519012Y00148582D01*
Y00140118D01*
X00523244Y00135886D01*
X0053594D01*
X00506316Y00127422D02*
X00497852D01*
X0049362Y00131654D01*
Y00140118D01*
X00497852Y0014435D01*
X00506316D01*
X00510548Y00140118D01*
Y00131654D01*
X00506316Y00127422D01*
X00485156Y0014435D02*
Y00131654D01*
X00480924Y00127422D01*
X00476693Y00131654D01*
X00472461Y00127422D01*
X00468229Y00131654D01*
Y0014435D01*
X00447069Y00127422D02*
X00455533D01*
X00459765Y00131654D01*
Y00140118D01*
X00455533Y0014435D01*
X00447069D01*
X00442837Y00140118D01*
Y00135886D01*
X00459765D01*
X00434373Y0014435D02*
Y00127422D01*
Y00135886D01*
X00430141Y00140118D01*
X00425909Y0014435D01*
X00421677D01*
X00408981Y0012319D02*
X00392053D01*
X00383589Y00152814D02*
Y00127422D01*
X00370893D01*
X00366661Y00131654D01*
Y00135886D01*
X00370893Y00140118D01*
X00383589D01*
X00370893D01*
X00366661Y0014435D01*
Y00148582D01*
X00370893Y00152814D01*
X00383589D01*
X00353965Y00127422D02*
X00345502D01*
X0034127Y00131654D01*
Y00140118D01*
X00345502Y0014435D01*
X00353965D01*
X00358197Y00140118D01*
Y00131654D01*
X00353965Y00127422D01*
X00328574Y0014435D02*
X0032011D01*
X00315878Y00140118D01*
Y00127422D01*
X00328574D01*
X00332806Y00131654D01*
X00328574Y00135886D01*
X00315878D01*
X00307414Y0014435D02*
Y00127422D01*
Y00135886D01*
X00303182Y00140118D01*
X0029895Y0014435D01*
X00294718D01*
X00265094Y00152814D02*
Y00127422D01*
X0027779D01*
X00282022Y00131654D01*
Y00140118D01*
X0027779Y0014435D01*
X00265094D01*
X0025663Y0012319D02*
X00239702D01*
X00231238Y00152814D02*
Y00135886D01*
X00222775Y00127422D01*
X00214311Y00135886D01*
Y00152814D01*
X00188919Y00127422D02*
X00205847D01*
X00188919Y0014435D01*
Y00148582D01*
X00193151Y00152814D01*
X00201615D01*
X00205847Y00148582D01*
X00180455Y00127422D02*
Y00131654D01*
X00176223D01*
Y00127422D01*
X00180455D01*
X00159295Y00148582D02*
X00155063Y00152814D01*
X00146599D01*
X00142367Y00148582D01*
Y00131654D01*
X00146599Y00127422D01*
X00155063D01*
X00159295Y00131654D01*
Y00148582D01*
X0099187Y00882224D02*
X00990177Y00883917D01*
X00986792D01*
X00985099Y00882224D01*
Y00880531D01*
X00986792Y00878838D01*
X00988484D01*
X00986792D01*
X00985099Y00877146D01*
Y00875453D01*
X00986792Y0087376D01*
X00990177D01*
X0099187Y00875453D01*
X00981713Y0087376D02*
Y00875453D01*
X00980021D01*
Y0087376D01*
X00981713D01*
X00973249Y00882224D02*
X00971557Y00883917D01*
X00968171D01*
X00966478Y00882224D01*
Y00880531D01*
X00968171Y00878838D01*
X00969864D01*
X00968171D01*
X00966478Y00877146D01*
Y00875453D01*
X00968171Y0087376D01*
X00971557D01*
X00973249Y00875453D01*
X00963093Y00883917D02*
Y00877146D01*
X00959707Y0087376D01*
X00956321Y00877146D01*
Y00883917D01*
X00936008Y00882224D02*
X00937701Y00883917D01*
X00941086D01*
X00942779Y00882224D01*
Y00875453D01*
X00941086Y0087376D01*
X00937701D01*
X00936008Y00875453D01*
Y00878838D01*
X00939394D01*
X00932622Y0087376D02*
Y00883917D01*
X00925851Y0087376D01*
Y00883917D01*
X00922466D02*
Y0087376D01*
X00917387D01*
X00915695Y00875453D01*
Y00882224D01*
X00917387Y00883917D01*
X00922466D01*
X00359836Y00322576D02*
X003683D01*
Y00316228D01*
X00364068D01*
X003683D01*
Y0030988D01*
X00355604Y00322576D02*
Y0030988D01*
X00349256D01*
X0034714Y00311996D01*
Y00314112D01*
X00349256Y00316228D01*
X00355604D01*
X00349256D01*
X0034714Y00318344D01*
Y0032046D01*
X00349256Y00322576D01*
X00355604D01*
X0042545D02*
Y00314112D01*
X00421218Y0030988D01*
X00416986Y00314112D01*
Y00322576D01*
X0040429Y00318344D02*
X00410638D01*
X00412754Y00316228D01*
Y00311996D01*
X00410638Y0030988D01*
X0040429D01*
X0046355Y00422906D02*
Y00414442D01*
X00459318Y0041021D01*
X00455086Y00414442D01*
Y00422906D01*
X00448738Y0041021D02*
X00444506D01*
X0044239Y00412326D01*
Y00416558D01*
X00444506Y00418674D01*
X00448738D01*
X00450854Y00416558D01*
Y00412326D01*
X00448738Y0041021D01*
X00438158Y00418674D02*
Y00412326D01*
X00436042Y0041021D01*
X00429694D01*
Y00418674D01*
X00423346Y0042079D02*
Y00418674D01*
X00425462D01*
X0042123D01*
X00423346D01*
Y00412326D01*
X0042123Y0041021D01*
X0040386Y00422906D02*
Y00414442D01*
X00399628Y0041021D01*
X00395396Y00414442D01*
Y00422906D01*
X00391164Y0041021D02*
X00386932D01*
X00389048D01*
Y00418674D01*
X00391164D01*
X00380584Y0041021D02*
Y00418674D01*
X00374236D01*
X0037212Y00416558D01*
Y0041021D01*
X00339516Y0042079D02*
X00341632Y00422906D01*
X00345864D01*
X0034798Y0042079D01*
Y00412326D01*
X00345864Y0041021D01*
X00341632D01*
X00339516Y00412326D01*
Y00416558D01*
X00343748D01*
X00335284Y0041021D02*
Y00422906D01*
X0032682Y0041021D01*
Y00422906D01*
X00322588D02*
Y0041021D01*
X0031624D01*
X00314124Y00412326D01*
Y0042079D01*
X0031624Y00422906D01*
X00322588D01*
X00797734Y00094822D02*
X00800696Y00097784D01*
X00806621D01*
X00809583Y00094822D01*
Y00082972D01*
X00806621Y0008001D01*
X00800696D01*
X00797734Y00082972D01*
Y00088897D01*
X00803659D01*
X00791809Y0008001D02*
Y00097784D01*
X00779959Y0008001D01*
Y00097784D01*
X00774035D02*
Y0008001D01*
X00765148D01*
X00762185Y00082972D01*
Y00094822D01*
X00765148Y00097784D01*
X00774035D01*
X0087207Y0008001D02*
X0088392D01*
X0087207Y0009186D01*
Y00094822D01*
X00875033Y00097784D01*
X00880958D01*
X0088392Y00094822D01*
X00857259Y0008001D02*
Y00097784D01*
X00866146Y00088897D01*
X00854296D01*
X00848372Y00097784D02*
Y00085935D01*
X00842447Y0008001D01*
X00836522Y00085935D01*
Y00097784D01*
X0090932Y00087037D02*
Y00092962D01*
Y00089999D01*
X00927094D01*
X00924132Y00087037D01*
X0090932Y00113698D02*
Y00101849D01*
X0092117Y00113698D01*
X00924132D01*
X00927094Y00110736D01*
Y00104811D01*
X00924132Y00101849D01*
X00927094Y00119623D02*
X00915245D01*
X0090932Y00125548D01*
X00915245Y00131472D01*
X00927094D01*
X00922862Y00161709D02*
X00925824Y00158747D01*
Y00152822D01*
X00922862Y0014986D01*
X00911012D01*
X0090805Y00152822D01*
Y00158747D01*
X00911012Y00161709D01*
X00916937D01*
Y00155785D01*
X0090805Y00167634D02*
X00925824D01*
X0090805Y00179484D01*
X00925824D01*
Y00185408D02*
X0090805D01*
Y00194296D01*
X00911012Y00197258D01*
X00922862D01*
X00925824Y00194296D01*
Y00185408D01*
X0075988Y00712004D02*
X00761996Y00709888D01*
Y00705656D01*
X0075988Y0070354D01*
X00751416D01*
X007493Y00705656D01*
Y00709888D01*
X00751416Y00712004D01*
X00755648D01*
Y00707772D01*
X007493Y00716236D02*
X00761996D01*
X007493Y007247D01*
X00761996D01*
Y00728932D02*
X007493D01*
Y0073528D01*
X00751416Y00737396D01*
X0075988D01*
X00761996Y0073528D01*
Y00728932D01*
X00708656Y00552014D02*
Y00547782D01*
X0070654Y00545666D01*
X00698076D01*
X0069596Y00547782D01*
Y00552014D01*
X00698076Y0055413D01*
X0070654D01*
X00708656Y00552014D01*
Y00558362D02*
X00698076D01*
X0069596Y00560477D01*
Y0056471D01*
X00698076Y00566825D01*
X00708656D01*
Y00571057D02*
Y00579521D01*
Y00575289D01*
X0069596D01*
Y00592217D02*
Y00583753D01*
X00704424Y00592217D01*
X0070654D01*
X00708656Y00590101D01*
Y00585869D01*
X0070654Y00583753D01*
X0074591Y00520274D02*
X00748026Y00518158D01*
Y00513926D01*
X0074591Y0051181D01*
X00737446D01*
X0073533Y00513926D01*
Y00518158D01*
X00737446Y00520274D01*
X00743794Y00524506D02*
X00737446D01*
X0073533Y00526622D01*
Y0053297D01*
X00743794D01*
Y00537202D02*
X0073533D01*
X00739562D01*
X00741678Y00539318D01*
X00743794Y00541434D01*
Y0054355D01*
Y00549898D02*
X0073533D01*
X00739562D01*
X00741678Y00552014D01*
X00743794Y0055413D01*
Y00556246D01*
X0073533Y00568941D02*
Y0056471D01*
X00737446Y00562593D01*
X00741678D01*
X00743794Y0056471D01*
Y00568941D01*
X00741678Y00571058D01*
X00739562D01*
Y00562593D01*
X0073533Y00575289D02*
X00743794D01*
Y00581637D01*
X00741678Y00583753D01*
X0073533D01*
X0074591Y00590101D02*
X00743794D01*
Y00587985D01*
Y00592217D01*
Y00590101D01*
X00737446D01*
X0073533Y00592217D01*
X0076835Y00560477D02*
Y0056471D01*
Y00562593D01*
X00781046D01*
X0077893Y00560477D01*
X0076835Y00579521D02*
Y00571057D01*
X00776814Y00579521D01*
X0077893D01*
X00781046Y00577405D01*
Y00573173D01*
X0077893Y00571057D01*
X00781046Y00583753D02*
X00772582D01*
X0076835Y00587985D01*
X00772582Y00592217D01*
X00781046D01*
X00819146Y0053297D02*
X0080645D01*
Y00539318D01*
X00808566Y00541434D01*
X00810682D01*
X00812798Y00539318D01*
Y0053297D01*
Y00539318D01*
X00814914Y00541434D01*
X0081703D01*
X00819146Y00539318D01*
Y0053297D01*
X00814914Y00545666D02*
X0080645D01*
X00810682D01*
X00812798Y00547782D01*
X00814914Y00549898D01*
Y00552014D01*
Y00560477D02*
Y0056471D01*
X00812798Y00566825D01*
X0080645D01*
Y00560477D01*
X00808566Y00558362D01*
X00810682Y00560477D01*
Y00566825D01*
X0080645Y00571057D02*
X00819146D01*
X00810682D02*
X00814914Y00577405D01*
X00810682Y00571057D02*
X0080645Y00577405D01*
Y00590101D02*
Y00585869D01*
X00808566Y00583753D01*
X00812798D01*
X00814914Y00585869D01*
Y00590101D01*
X00812798Y00592217D01*
X00810682D01*
Y00583753D01*
X00855976Y00556246D02*
Y00552014D01*
X0085386Y00549898D01*
X00845396D01*
X0084328Y00552014D01*
Y00556246D01*
X00845396Y00558362D01*
X0085386D01*
X00855976Y00556246D01*
Y00562593D02*
X00845396D01*
X0084328Y0056471D01*
Y00568941D01*
X00845396Y00571058D01*
X00855976D01*
Y00575289D02*
Y00583753D01*
Y00579521D01*
X0084328D01*
Y00587985D02*
Y00592217D01*
Y00590101D01*
X00855976D01*
X0085386Y00587985D01*
X00730246Y0070354D02*
Y00712004D01*
Y00707772D01*
X0071755D01*
X00730246Y00716236D02*
X0071755D01*
X00723898D01*
X00726014Y00718352D01*
Y00722584D01*
X00723898Y007247D01*
X0071755D01*
Y0073528D02*
Y00731048D01*
X00719666Y00728932D01*
X00723898D01*
X00726014Y00731048D01*
Y0073528D01*
X00723898Y00737396D01*
X00721782D01*
Y00728932D01*
X00726014Y00741628D02*
X0071755D01*
X00721782D01*
X00723898Y00743744D01*
X00726014Y0074586D01*
Y00747976D01*
X0071755Y00754324D02*
X00726014D01*
Y0075644D01*
X00723898Y00758556D01*
X0071755D01*
X00723898D01*
X00726014Y00760672D01*
X00723898Y00762788D01*
X0071755D01*
X00726014Y00769136D02*
Y00773367D01*
X00723898Y00775483D01*
X0071755D01*
Y00769136D01*
X00719666Y0076702D01*
X00721782Y00769136D01*
Y00775483D01*
X0071755Y00779715D02*
Y00783947D01*
Y00781831D01*
X00730246D01*
Y00779715D01*
X00674788Y0070612D02*
X00662092D01*
Y00712468D01*
X00664208Y00714584D01*
X00666324D01*
X0066844Y00712468D01*
Y0070612D01*
Y00712468D01*
X00670556Y00714584D01*
X00672672D01*
X00674788Y00712468D01*
Y0070612D01*
X00662092Y00720932D02*
Y00725164D01*
X00664208Y0072728D01*
X0066844D01*
X00670556Y00725164D01*
Y00720932D01*
X0066844Y00718816D01*
X00664208D01*
X00662092Y00720932D01*
Y00733628D02*
Y0073786D01*
X00664208Y00739976D01*
X0066844D01*
X00670556Y0073786D01*
Y00733628D01*
X0066844Y00731512D01*
X00664208D01*
X00662092Y00733628D01*
X00672672Y00746324D02*
X00670556D01*
Y00744208D01*
Y0074844D01*
Y00746324D01*
X00664208D01*
X00662092Y0074844D01*
X00670556Y00754788D02*
X00662092D01*
X00666324D01*
X0066844Y00756904D01*
X00670556Y00759019D01*
Y00761135D01*
Y00769599D02*
Y00773831D01*
X0066844Y00775947D01*
X00662092D01*
Y00769599D01*
X00664208Y00767484D01*
X00666324Y00769599D01*
Y00775947D01*
X0065786Y00780179D02*
X00670556D01*
Y00786527D01*
X0066844Y00788643D01*
X00664208D01*
X00662092Y00786527D01*
Y00780179D01*
X00659976Y00792875D02*
Y00801339D01*
X00662092Y00814035D02*
Y00805571D01*
X00670556Y00814035D01*
X00672672D01*
X00674788Y00811919D01*
Y00807687D01*
X00672672Y00805571D01*
X0078232Y0070354D02*
X00795016D01*
Y00709888D01*
X007929Y00712004D01*
X00788668D01*
X00786552Y00709888D01*
Y0070354D01*
X00795016Y00716236D02*
X0078232D01*
X00786552Y00720468D01*
X0078232Y007247D01*
X00795016D01*
X0078232Y00728932D02*
X00795016D01*
X00790784Y00733164D01*
X00795016Y00737396D01*
X0078232D01*
Y00741628D02*
X00795016D01*
Y00747976D01*
X007929Y00750092D01*
X00788668D01*
X00786552Y00747976D01*
Y00741628D01*
Y0074586D02*
X0078232Y00750092D01*
X00836286Y0070354D02*
X0082359D01*
Y00709888D01*
X00825706Y00712004D01*
X0083417D01*
X00836286Y00709888D01*
Y0070354D01*
Y00716236D02*
Y00720468D01*
Y00718352D01*
X0082359D01*
Y00716236D01*
Y00720468D01*
Y00726816D02*
X00836286D01*
Y00733164D01*
X0083417Y0073528D01*
X00829938D01*
X00827822Y00733164D01*
Y00726816D01*
Y00731048D02*
X0082359Y0073528D01*
Y00739512D02*
X00836286D01*
Y0074586D01*
X0083417Y00747976D01*
X00829938D01*
X00827822Y0074586D01*
Y00739512D01*
Y00743744D02*
X0082359Y00747976D01*
X00870368Y0070354D02*
X00857672D01*
Y00709888D01*
X00859788Y00712004D01*
X00861904D01*
X0086402Y00709888D01*
Y0070354D01*
Y00709888D01*
X00866136Y00712004D01*
X00868252D01*
X00870368Y00709888D01*
Y0070354D01*
X00857672Y00718352D02*
Y00722584D01*
X00859788Y007247D01*
X0086402D01*
X00866136Y00722584D01*
Y00718352D01*
X0086402Y00716236D01*
X00859788D01*
X00857672Y00718352D01*
Y00731048D02*
Y0073528D01*
X00859788Y00737396D01*
X0086402D01*
X00866136Y0073528D01*
Y00731048D01*
X0086402Y00728932D01*
X00859788D01*
X00857672Y00731048D01*
X00868252Y00743744D02*
X00866136D01*
Y00741628D01*
Y0074586D01*
Y00743744D01*
X00859788D01*
X00857672Y0074586D01*
X00866136Y00752208D02*
X00857672D01*
X00861904D01*
X0086402Y00754324D01*
X00866136Y0075644D01*
Y00758556D01*
Y0076702D02*
Y00771252D01*
X0086402Y00773367D01*
X00857672D01*
Y0076702D01*
X00859788Y00764903D01*
X00861904Y0076702D01*
Y00773367D01*
X0085344Y00777599D02*
X00866136D01*
Y00783947D01*
X0086402Y00786063D01*
X00859788D01*
X00857672Y00783947D01*
Y00777599D01*
X00855556Y00790295D02*
Y00798759D01*
X00857672Y00802991D02*
Y00807223D01*
Y00805107D01*
X00870368D01*
X00868252Y00802991D01*
X00305218Y0070354D02*
X00292522D01*
Y00709888D01*
X00294638Y00712004D01*
X00296754D01*
X0029887Y00709888D01*
Y0070354D01*
Y00709888D01*
X00300986Y00712004D01*
X00303102D01*
X00305218Y00709888D01*
Y0070354D01*
X00292522Y00718352D02*
Y00722584D01*
X00294638Y007247D01*
X0029887D01*
X00300986Y00722584D01*
Y00718352D01*
X0029887Y00716236D01*
X00294638D01*
X00292522Y00718352D01*
Y00731048D02*
Y0073528D01*
X00294638Y00737396D01*
X0029887D01*
X00300986Y0073528D01*
Y00731048D01*
X0029887Y00728932D01*
X00294638D01*
X00292522Y00731048D01*
X00303102Y00743744D02*
X00300986D01*
Y00741628D01*
Y0074586D01*
Y00743744D01*
X00294638D01*
X00292522Y0074586D01*
X00300986Y00752208D02*
X00292522D01*
X00296754D01*
X0029887Y00754324D01*
X00300986Y0075644D01*
Y00758556D01*
Y0076702D02*
Y00771252D01*
X0029887Y00773367D01*
X00292522D01*
Y0076702D01*
X00294638Y00764903D01*
X00296754Y0076702D01*
Y00773367D01*
X0028829Y00777599D02*
X00300986D01*
Y00783947D01*
X0029887Y00786063D01*
X00294638D01*
X00292522Y00783947D01*
Y00777599D01*
X00290406Y00790295D02*
Y00798759D01*
X00292522Y00802991D02*
Y00807223D01*
Y00805107D01*
X00305218D01*
X00303102Y00802991D01*
X00271136Y0070354D02*
X0025844D01*
Y00709888D01*
X00260556Y00712004D01*
X0026902D01*
X00271136Y00709888D01*
Y0070354D01*
Y00716236D02*
Y00720468D01*
Y00718352D01*
X0025844D01*
Y00716236D01*
Y00720468D01*
Y00726816D02*
X00271136D01*
Y00733164D01*
X0026902Y0073528D01*
X00264788D01*
X00262672Y00733164D01*
Y00726816D01*
Y00731048D02*
X0025844Y0073528D01*
X00271136Y00739512D02*
X0025844D01*
Y00747976D01*
X0021717Y0070354D02*
X00229866D01*
Y00709888D01*
X0022775Y00712004D01*
X00223518D01*
X00221402Y00709888D01*
Y0070354D01*
X00229866Y00716236D02*
X0021717D01*
X00221402Y00720468D01*
X0021717Y007247D01*
X00229866D01*
X0021717Y00728932D02*
X00229866D01*
X00225634Y00733164D01*
X00229866Y00737396D01*
X0021717D01*
X00229866Y00741628D02*
X0021717D01*
Y00750092D01*
X00105828Y0069977D02*
X00093132D01*
Y00706118D01*
X00095248Y00708234D01*
X00097364D01*
X0009948Y00706118D01*
Y0069977D01*
Y00706118D01*
X00101596Y00708234D01*
X00103712D01*
X00105828Y00706118D01*
Y0069977D01*
X00093132Y00714582D02*
Y00718814D01*
X00095248Y0072093D01*
X0009948D01*
X00101596Y00718814D01*
Y00714582D01*
X0009948Y00712466D01*
X00095248D01*
X00093132Y00714582D01*
Y00727278D02*
Y0073151D01*
X00095248Y00733626D01*
X0009948D01*
X00101596Y0073151D01*
Y00727278D01*
X0009948Y00725162D01*
X00095248D01*
X00093132Y00727278D01*
X00103712Y00739974D02*
X00101596D01*
Y00737858D01*
Y0074209D01*
Y00739974D01*
X00095248D01*
X00093132Y0074209D01*
X00101596Y00748438D02*
X00093132D01*
X00097364D01*
X0009948Y00750554D01*
X00101596Y0075267D01*
Y00754786D01*
Y00763249D02*
Y00767481D01*
X0009948Y00769597D01*
X00093132D01*
Y00763249D01*
X00095248Y00761133D01*
X00097364Y00763249D01*
Y00769597D01*
X000889Y00773829D02*
X00101596D01*
Y00780177D01*
X0009948Y00782293D01*
X00095248D01*
X00093132Y00780177D01*
Y00773829D01*
X00091016Y00786525D02*
Y00794989D01*
X00093132Y00807685D02*
Y00799221D01*
X00101596Y00807685D01*
X00103712D01*
X00105828Y00805569D01*
Y00801337D01*
X00103712Y00799221D01*
X00165096Y0070354D02*
Y00712004D01*
Y00707772D01*
X001524D01*
X00165096Y00716236D02*
X001524D01*
X00158748D01*
X00160864Y00718352D01*
Y00722584D01*
X00158748Y007247D01*
X001524D01*
Y0073528D02*
Y00731048D01*
X00154516Y00728932D01*
X00158748D01*
X00160864Y00731048D01*
Y0073528D01*
X00158748Y00737396D01*
X00156632D01*
Y00728932D01*
X00160864Y00741628D02*
X001524D01*
X00156632D01*
X00158748Y00743744D01*
X00160864Y0074586D01*
Y00747976D01*
X001524Y00754324D02*
X00160864D01*
Y0075644D01*
X00158748Y00758556D01*
X001524D01*
X00158748D01*
X00160864Y00760672D01*
X00158748Y00762788D01*
X001524D01*
X00160864Y00769136D02*
Y00773367D01*
X00158748Y00775483D01*
X001524D01*
Y00769136D01*
X00154516Y0076702D01*
X00156632Y00769136D01*
Y00775483D01*
X001524Y00779715D02*
Y00783947D01*
Y00781831D01*
X00165096D01*
Y00779715D01*
X00290826Y00560056D02*
Y00555824D01*
X0028871Y00553708D01*
X00280246D01*
X0027813Y00555824D01*
Y00560056D01*
X00280246Y00562172D01*
X0028871D01*
X00290826Y00560056D01*
Y00566404D02*
X00280246D01*
X0027813Y0056852D01*
Y00572752D01*
X00280246Y00574868D01*
X00290826D01*
Y00579099D02*
Y00587563D01*
Y00583331D01*
X0027813D01*
X0028871Y00591795D02*
X00290826Y00593911D01*
Y00598143D01*
X0028871Y00600259D01*
X00286594D01*
X00284478Y00598143D01*
Y00596027D01*
Y00598143D01*
X00282362Y00600259D01*
X00280246D01*
X0027813Y00598143D01*
Y00593911D01*
X00280246Y00591795D01*
X00253996Y0053678D02*
X002413D01*
Y00543128D01*
X00243416Y00545244D01*
X00245532D01*
X00247648Y00543128D01*
Y0053678D01*
Y00543128D01*
X00249764Y00545244D01*
X0025188D01*
X00253996Y00543128D01*
Y0053678D01*
X00249764Y00549476D02*
X002413D01*
X00245532D01*
X00247648Y00551592D01*
X00249764Y00553708D01*
Y00555824D01*
Y00564287D02*
Y0056852D01*
X00247648Y00570635D01*
X002413D01*
Y00564287D01*
X00243416Y00562172D01*
X00245532Y00564287D01*
Y00570635D01*
X002413Y00574867D02*
X00253996D01*
X00245532D02*
X00249764Y00581215D01*
X00245532Y00574867D02*
X002413Y00581215D01*
Y00593911D02*
Y00589679D01*
X00243416Y00587563D01*
X00247648D01*
X00249764Y00589679D01*
Y00593911D01*
X00247648Y00596027D01*
X00245532D01*
Y00587563D01*
X002032Y00564287D02*
Y0056852D01*
Y00566404D01*
X00215896D01*
X0021378Y00564287D01*
X002032Y00583331D02*
Y00574867D01*
X00211664Y00583331D01*
X0021378D01*
X00215896Y00581215D01*
Y00576983D01*
X0021378Y00574867D01*
X00215896Y00587563D02*
X00207432D01*
X002032Y00591795D01*
X00207432Y00596027D01*
X00215896D01*
X0018076Y00524084D02*
X00182876Y00521968D01*
Y00517736D01*
X0018076Y0051562D01*
X00172296D01*
X0017018Y00517736D01*
Y00521968D01*
X00172296Y00524084D01*
X00178644Y00528316D02*
X00172296D01*
X0017018Y00530432D01*
Y0053678D01*
X00178644D01*
Y00541012D02*
X0017018D01*
X00174412D01*
X00176528Y00543128D01*
X00178644Y00545244D01*
Y0054736D01*
Y00553708D02*
X0017018D01*
X00174412D01*
X00176528Y00555824D01*
X00178644Y0055794D01*
Y00560056D01*
X0017018Y00572752D02*
Y0056852D01*
X00172296Y00566404D01*
X00176528D01*
X00178644Y0056852D01*
Y00572752D01*
X00176528Y00574868D01*
X00174412D01*
Y00566404D01*
X0017018Y00579099D02*
X00178644D01*
Y00585447D01*
X00176528Y00587563D01*
X0017018D01*
X0018076Y00593911D02*
X00178644D01*
Y00591795D01*
Y00596027D01*
Y00593911D01*
X00172296D01*
X0017018Y00596027D01*
X00143506Y00555824D02*
Y00551592D01*
X0014139Y00549476D01*
X00132926D01*
X0013081Y00551592D01*
Y00555824D01*
X00132926Y0055794D01*
X0014139D01*
X00143506Y00555824D01*
Y00562172D02*
X00132926D01*
X0013081Y00564287D01*
Y0056852D01*
X00132926Y00570635D01*
X00143506D01*
Y00574867D02*
Y00583331D01*
Y00579099D01*
X0013081D01*
Y00593911D02*
X00143506D01*
X00137158Y00587563D01*
Y00596027D01*
X0019473Y00712004D02*
X00196846Y00709888D01*
Y00705656D01*
X0019473Y0070354D01*
X00186266D01*
X0018415Y00705656D01*
Y00709888D01*
X00186266Y00712004D01*
X00190498D01*
Y00707772D01*
X0018415Y00716236D02*
X00196846D01*
X0018415Y007247D01*
X00196846D01*
Y00728932D02*
X0018415D01*
Y0073528D01*
X00186266Y00737396D01*
X0019473D01*
X00196846Y0073528D01*
Y00728932D01*
X00746339Y00963927D02*
X0075311D01*
Y0095377D01*
X00746339D01*
X0075311Y00958848D02*
X00749724D01*
X00742953Y0095377D02*
Y00963927D01*
X00736182Y0095377D01*
Y00963927D01*
X00727718Y0095377D02*
Y00963927D01*
X00732797Y00958848D01*
X00726025D01*
X00705712Y00963927D02*
X00712483D01*
Y0095377D01*
X00705712D01*
X00712483Y00958848D02*
X00709098D01*
X00702326Y0095377D02*
Y00963927D01*
X00695555Y0095377D01*
Y00963927D01*
X0069217Y00962234D02*
X00690477Y00963927D01*
X00687091D01*
X00685398Y00962234D01*
Y00960541D01*
X00687091Y00958848D01*
X00688784D01*
X00687091D01*
X00685398Y00957156D01*
Y00955463D01*
X00687091Y0095377D01*
X00690477D01*
X0069217Y00955463D01*
X00665085Y00962234D02*
X00666778Y00963927D01*
X00670163D01*
X00671856Y00962234D01*
Y00955463D01*
X00670163Y0095377D01*
X00666778D01*
X00665085Y00955463D01*
Y00958848D01*
X00668471D01*
X006617Y0095377D02*
Y00963927D01*
X00654928Y0095377D01*
Y00963927D01*
X00651543D02*
Y0095377D01*
X00646464D01*
X00644772Y00955463D01*
Y00962234D01*
X00646464Y00963927D01*
X00651543D01*
X00631229Y00962234D02*
X00629537Y00963927D01*
X00626151D01*
X00624458Y00962234D01*
Y00960541D01*
X00626151Y00958848D01*
X00627844D01*
X00626151D01*
X00624458Y00957156D01*
Y00955463D01*
X00626151Y0095377D01*
X00629537D01*
X00631229Y00955463D01*
X00621073Y0095377D02*
Y00955463D01*
X0061938D01*
Y0095377D01*
X00621073D01*
X00612609Y00962234D02*
X00610916Y00963927D01*
X0060753D01*
X00605838Y00962234D01*
Y00960541D01*
X0060753Y00958848D01*
X00609223D01*
X0060753D01*
X00605838Y00957156D01*
Y00955463D01*
X0060753Y0095377D01*
X00610916D01*
X00612609Y00955463D01*
X00602452Y00963927D02*
Y00957156D01*
X00599066Y0095377D01*
X00595681Y00957156D01*
Y00963927D01*
X00235799D02*
X0024257D01*
Y0095377D01*
X00235799D01*
X0024257Y00958848D02*
X00239184D01*
X00232413Y0095377D02*
Y00963927D01*
X00225642Y0095377D01*
Y00963927D01*
X00215485Y0095377D02*
X00222257D01*
X00215485Y00960541D01*
Y00962234D01*
X00217178Y00963927D01*
X00220564D01*
X00222257Y00962234D01*
X00195172Y00963927D02*
X00201943D01*
Y0095377D01*
X00195172D01*
X00201943Y00958848D02*
X00198557D01*
X00191786Y0095377D02*
Y00963927D01*
X00185015Y0095377D01*
Y00963927D01*
X0018163Y0095377D02*
X00178244D01*
X00179937D01*
Y00963927D01*
X0018163Y00962234D01*
X00156238D02*
X00157931Y00963927D01*
X00161316D01*
X00163009Y00962234D01*
Y00955463D01*
X00161316Y0095377D01*
X00157931D01*
X00156238Y00955463D01*
Y00958848D01*
X00159623D01*
X00152852Y0095377D02*
Y00963927D01*
X00146081Y0095377D01*
Y00963927D01*
X00142696D02*
Y0095377D01*
X00137617D01*
X00135924Y00955463D01*
Y00962234D01*
X00137617Y00963927D01*
X00142696D01*
X00122382Y00962234D02*
X00120689Y00963927D01*
X00117304D01*
X00115611Y00962234D01*
Y00960541D01*
X00117304Y00958848D01*
X00118996D01*
X00117304D01*
X00115611Y00957156D01*
Y00955463D01*
X00117304Y0095377D01*
X00120689D01*
X00122382Y00955463D01*
X00112225Y0095377D02*
Y00955463D01*
X00110533D01*
Y0095377D01*
X00112225D01*
X00103761Y00962234D02*
X00102069Y00963927D01*
X00098683D01*
X0009699Y00962234D01*
Y00960541D01*
X00098683Y00958848D01*
X00100376D01*
X00098683D01*
X0009699Y00957156D01*
Y00955463D01*
X00098683Y0095377D01*
X00102069D01*
X00103761Y00955463D01*
X00093605Y00963927D02*
Y00957156D01*
X00090219Y0095377D01*
X00086834Y00957156D01*
Y00963927D01*
X00892812Y00919475D02*
X00897891D01*
X0090043Y00916936D01*
Y00906779D01*
X00897891Y0090424D01*
X00892812D01*
X00890273Y00906779D01*
Y00916936D01*
X00892812Y00919475D01*
X00885195D02*
Y00906779D01*
X00882656Y0090424D01*
X00877577D01*
X00875038Y00906779D01*
Y00919475D01*
X0086996D02*
X00859803D01*
X00864882D01*
Y0090424D01*
X00854725D02*
X00849646D01*
X00852186D01*
Y00919475D01*
X00854725Y00916936D01*
X00819176Y00919475D02*
X00824255D01*
X00826794Y00916936D01*
Y00906779D01*
X00824255Y0090424D01*
X00819176D01*
X00816637Y00906779D01*
Y00916936D01*
X00819176Y00919475D01*
X00811559D02*
Y00906779D01*
X0080902Y0090424D01*
X00803941D01*
X00801402Y00906779D01*
Y00919475D01*
X00796324D02*
X00786167D01*
X00791245D01*
Y0090424D01*
X00770932D02*
X00781089D01*
X00770932Y00914397D01*
Y00916936D01*
X00773471Y00919475D01*
X00778549D01*
X00781089Y00916936D01*
X00382272Y00922015D02*
X00387351D01*
X0038989Y00919476D01*
Y00909319D01*
X00387351Y0090678D01*
X00382272D01*
X00379733Y00909319D01*
Y00919476D01*
X00382272Y00922015D01*
X00374655D02*
Y00909319D01*
X00372116Y0090678D01*
X00367037D01*
X00364498Y00909319D01*
Y00922015D01*
X0035942D02*
X00349263D01*
X00354342D01*
Y0090678D01*
X00344185Y00919476D02*
X00341646Y00922015D01*
X00336567D01*
X00334028Y00919476D01*
Y00916937D01*
X00336567Y00914398D01*
X00339106D01*
X00336567D01*
X00334028Y00911858D01*
Y00909319D01*
X00336567Y0090678D01*
X00341646D01*
X00344185Y00909319D01*
X00306097Y00922015D02*
X00311175D01*
X00313715Y00919476D01*
Y00909319D01*
X00311175Y0090678D01*
X00306097D01*
X00303558Y00909319D01*
Y00919476D01*
X00306097Y00922015D01*
X0029848D02*
Y00909319D01*
X0029594Y0090678D01*
X00290862D01*
X00288323Y00909319D01*
Y00922015D01*
X00283244D02*
X00273088D01*
X00278166D01*
Y0090678D01*
X00260392D02*
Y00922015D01*
X00268009Y00914398D01*
X00257853D01*
M02*
