G04*
G04 #@! TF.GenerationSoftware,Altium Limited,Altium Designer,21.3.2 (30)*
G04*
G04 Layer_Physical_Order=1*
G04 Layer_Color=255*
%FSTAX44Y44*%
%MOMM*%
G71*
G04*
G04 #@! TF.SameCoordinates,71E4571F-97C7-41C0-9591-7C9436880AE0*
G04*
G04*
G04 #@! TF.FilePolarity,Positive*
G04*
G01*
G75*
%ADD11C,0.2540*%
%ADD13C,0.5080*%
%ADD16C,0.3810*%
%ADD19R,0.9900X3.7900*%
%ADD20R,1.2700X1.3970*%
%ADD21R,1.2000X1.4000*%
%ADD22R,1.4000X1.2000*%
%ADD23R,1.7000X1.7000*%
G04:AMPARAMS|DCode=24|XSize=7.3mm|YSize=4mm|CornerRadius=0mm|HoleSize=0mm|Usage=FLASHONLY|Rotation=180.000|XOffset=0mm|YOffset=0mm|HoleType=Round|Shape=Octagon|*
%AMOCTAGOND24*
4,1,8,-3.6500,1.0000,-3.6500,-1.0000,-2.6500,-2.0000,2.6500,-2.0000,3.6500,-1.0000,3.6500,1.0000,2.6500,2.0000,-2.6500,2.0000,-3.6500,1.0000,0.0*
%
%ADD24OCTAGOND24*%

G04:AMPARAMS|DCode=25|XSize=2.33mm|YSize=1.55mm|CornerRadius=0.3875mm|HoleSize=0mm|Usage=FLASHONLY|Rotation=270.000|XOffset=0mm|YOffset=0mm|HoleType=Round|Shape=RoundedRectangle|*
%AMROUNDEDRECTD25*
21,1,2.3300,0.7750,0,0,270.0*
21,1,1.5550,1.5500,0,0,270.0*
1,1,0.7750,-0.3875,-0.7775*
1,1,0.7750,-0.3875,0.7775*
1,1,0.7750,0.3875,0.7775*
1,1,0.7750,0.3875,-0.7775*
%
%ADD25ROUNDEDRECTD25*%
%ADD53R,10.8400X7.8800*%
%ADD54C,1.2700*%
%ADD55C,3.0480*%
%ADD56C,2.5400*%
%ADD57C,1.5240*%
%ADD58C,1.0160*%
%ADD59R,2.0000X2.0000*%
%ADD60C,2.0000*%
%ADD61C,2.7940*%
%ADD62R,1.5000X1.5000*%
%ADD63C,1.5000*%
%ADD64R,2.1000X2.1000*%
%ADD65C,2.1000*%
%ADD66C,1.8000*%
%ADD67C,1.6500*%
%ADD68R,2.0000X2.0000*%
%ADD69C,1.9400*%
%ADD70R,1.9400X1.9400*%
%ADD71R,3.8100X3.8100*%
%ADD72C,3.8100*%
%ADD73C,5.0000*%
%ADD74C,1.5240*%
%ADD75C,1.2700*%
%ADD76C,3.0480*%
%ADD77C,1.0160*%
G36*
X00995366Y00004124D02*
X00004124D01*
Y00312337D01*
X00008817Y00314281D01*
X00049577Y00273521D01*
X00049736Y00267135D01*
X0004838Y00265779D01*
Y00257461D01*
X00052922Y0025292D01*
Y0021705D01*
X0004838D01*
Y0019697D01*
X00052922D01*
Y0019031D01*
X0004838Y00185769D01*
Y00177451D01*
X00052922Y0017291D01*
Y0016491D01*
X0004838Y00160369D01*
Y00152051D01*
X00052922Y0014751D01*
Y0013951D01*
X0004838Y00134969D01*
Y00126651D01*
X00052922Y0012211D01*
Y0011411D01*
X0004838Y00109569D01*
Y00101251D01*
X00054261Y0009537D01*
X00062579D01*
X0006846Y00101251D01*
Y00109569D01*
X00063918Y0011411D01*
Y0012211D01*
X0006846Y00126651D01*
Y00134969D01*
X00063918Y0013951D01*
Y0014751D01*
X0006846Y00152051D01*
Y00160369D01*
X00063918Y0016491D01*
Y0017291D01*
X0006846Y00177451D01*
Y00185769D01*
X00063918Y0019031D01*
Y0019697D01*
X0006846D01*
Y0021705D01*
X00063918D01*
Y0025292D01*
X0006846Y00257461D01*
X0007354Y00259682D01*
X0007378Y00259527D01*
Y0025158D01*
X0009386D01*
Y0027166D01*
X00082443D01*
X00082328Y002719D01*
X00085529Y0027698D01*
X00087979D01*
X0009386Y00282861D01*
Y00291179D01*
X00087979Y0029706D01*
X00084578D01*
X00084426Y002973D01*
X00087223Y0030238D01*
X00087979D01*
X0009386Y00308261D01*
Y00316579D01*
X00087979Y0032246D01*
X00084578D01*
X00084426Y003227D01*
X00087223Y0032778D01*
X00087979D01*
X0009386Y00333661D01*
Y00341979D01*
X00087979Y0034786D01*
X00084578D01*
X00084426Y003481D01*
X00087223Y0035318D01*
X00087979D01*
X0009252Y00357721D01*
X0015494D01*
X00158828Y00359332D01*
X00183466Y0038397D01*
X00184822Y00383408D01*
X00188463Y00380296D01*
X00188546Y00380097D01*
X00188546Y00371756D01*
X00188546Y00366676D01*
Y00362566D01*
X00198086D01*
X00207626D01*
Y00365593D01*
X00207626Y00369836D01*
X00212359Y00370673D01*
X00225588D01*
X00226422Y00368662D01*
X00234755Y00360328D01*
Y0035687D01*
X00240392Y00343262D01*
X00254Y00337625D01*
X00267608Y00343262D01*
X00273245Y0035687D01*
Y003683D01*
X00267608Y00381908D01*
X00253638Y00395878D01*
X0024003Y00401515D01*
X00226422Y00395878D01*
X00223953Y00389918D01*
X00198086D01*
X00197038Y00390357D01*
X00195642Y00396146D01*
X00261358Y00461861D01*
X00310321D01*
X00312198Y00456782D01*
X0029567Y00440253D01*
X00290033Y00426645D01*
Y00327442D01*
X00284953Y00326315D01*
X00279798Y0033147D01*
X0027686D01*
Y0032131D01*
Y0031115D01*
X00279798D01*
X00284953Y00316305D01*
X00290033Y00315178D01*
Y00080612D01*
X0029567Y00067004D01*
X00345802Y00016872D01*
X0035941Y00011235D01*
X00373018Y00016872D01*
X00378655Y0003048D01*
X00373018Y00044088D01*
X00328523Y00088583D01*
Y00418674D01*
X00335104Y00425255D01*
X00356519D01*
X00367338Y00414436D01*
X00369838Y00408399D01*
Y00391467D01*
X00364758Y00391354D01*
X00357492Y0039862D01*
X00353568D01*
Y0038608D01*
Y0037354D01*
X00357492D01*
X00364838Y00380886D01*
Y00385888D01*
X00369838Y0038608D01*
X0037467Y00374416D01*
X00386334Y00369584D01*
X00397998Y00374416D01*
X00399437Y0037789D01*
X00404517D01*
X00406762Y00372472D01*
X0042037Y00366835D01*
X00433978Y00372472D01*
X00437454Y00380862D01*
X00452637Y00396045D01*
X0046798D01*
Y0038446D01*
X0046798Y003813D01*
X0046798Y0037622D01*
Y00370076D01*
X00447064Y0034916D01*
X00415334D01*
X00408292Y00356202D01*
X00397904D01*
X00390558Y00348856D01*
Y00338468D01*
X00397904Y00331122D01*
X00408292D01*
X00415334Y00338163D01*
X00449342D01*
X0045323Y00339774D01*
X00475756Y003623D01*
X0048706D01*
Y0037622D01*
X0048706Y0037938D01*
X0048706Y0038446D01*
Y00396045D01*
X00611788D01*
X0065913Y00348703D01*
Y0033274D01*
X0070231D01*
Y00335085D01*
X00771808D01*
X00780142Y00326752D01*
X0079375Y00321115D01*
X00807358Y00326752D01*
X00812995Y0034036D01*
X00807358Y00353968D01*
X00793388Y00367938D01*
X0077978Y00373575D01*
X0070231D01*
Y0037592D01*
X00686347D01*
X00633368Y00428898D01*
X0061976Y00434535D01*
X00444665D01*
X00431057Y00428898D01*
X00411276Y00409118D01*
X00405243Y00410269D01*
X00404406Y00412204D01*
X00405579Y00415036D01*
Y00422656D01*
X00399942Y00436264D01*
X00378098Y00458108D01*
X00374801Y00459474D01*
X00374015Y00465298D01*
X00415368Y00506652D01*
X00416978Y0051054D01*
Y0053088D01*
X0042164Y00535542D01*
Y00543958D01*
X00415688Y0054991D01*
X00407272D01*
X0040132Y00543958D01*
Y00535542D01*
X00405981Y0053088D01*
Y00512818D01*
X00366022Y00472859D01*
X00340136D01*
X00338032Y00477938D01*
X00343329Y00483235D01*
X00346147Y00490039D01*
Y00511739D01*
X00345656Y00512925D01*
Y00520688D01*
X00342024D01*
Y00548652D01*
X00344474D01*
Y00567732D01*
X00330554D01*
X00324876Y00567732D01*
X0032302Y00572812D01*
X0032766Y00577452D01*
Y0058039D01*
X0030734D01*
Y00577452D01*
X0031198Y00572812D01*
X00310124Y00567732D01*
X00308394D01*
Y00559462D01*
X00316934D01*
Y00558192D01*
X00318204D01*
Y00548652D01*
X00322314D01*
X00325474Y00548652D01*
X00331026Y00548652D01*
Y00522401D01*
X00326656Y00520688D01*
Y00520688D01*
X00318315D01*
X00318116Y0052077D01*
X00257378D01*
X00248382Y00529766D01*
Y00552631D01*
X00245564Y00559435D01*
X00238125Y00566874D01*
X0023132Y00569692D01*
X00226536D01*
Y00623176D01*
X00231616Y0062334D01*
X00238846Y0061611D01*
X00249234D01*
X00249991Y00616867D01*
X00260644Y00606214D01*
Y00570534D01*
X00255228D01*
Y00556614D01*
X00255228Y00553454D01*
X00255228Y00548374D01*
Y00544264D01*
X00264768D01*
X00274308D01*
Y00548374D01*
X00274308Y00551534D01*
X00274308Y00556614D01*
Y00570534D01*
X00268892D01*
Y00607922D01*
X00267684Y00610838D01*
X00255823Y00622699D01*
X0025658Y00623456D01*
Y00633844D01*
X00249234Y0064119D01*
X00238846D01*
X002315Y00633844D01*
Y00628929D01*
X00226536Y0062865D01*
X00221704Y00640314D01*
X0021004Y00645146D01*
X00198376Y00640314D01*
X00193544Y0062865D01*
X0018858Y00628929D01*
Y00633844D01*
X00181234Y0064119D01*
X00170846D01*
X001635Y00633844D01*
Y00623456D01*
X00163771Y00623185D01*
X00141986Y006014D01*
X00140577Y00597998D01*
Y00595986D01*
X00135497Y00593882D01*
X00135018Y0059436D01*
X00126602D01*
X00126064Y00593823D01*
X0006721D01*
X00066843Y00594371D01*
X00066013Y00597849D01*
X00068582Y00600912D01*
X00121949D01*
X00128753Y0060373D01*
X00141133Y0061611D01*
X00147234D01*
X0015458Y00623456D01*
Y00633844D01*
X00147234Y0064119D01*
X00136846D01*
X001295Y00633844D01*
Y00631694D01*
X00117963Y00620157D01*
X00067657D01*
X0006574Y00622074D01*
X0005618D01*
X00054846Y0062074D01*
X00050153Y00622684D01*
Y00649184D01*
X00054846Y00651128D01*
X0005618Y00649794D01*
X0006574D01*
X00067657Y00651712D01*
X00104949D01*
X00111753Y0065453D01*
X00124133Y0066691D01*
X00130234D01*
X0013758Y00674256D01*
Y00684644D01*
X00130234Y0069199D01*
X00119846D01*
X001125Y00684644D01*
Y00682494D01*
X00100963Y00670957D01*
X00067657D01*
X0006574Y00672874D01*
X00058153D01*
X00055956Y00677862D01*
X00086814Y00708719D01*
X00089633Y00715523D01*
Y00795408D01*
X00120998Y00826774D01*
X00123548D01*
X00144698Y00805624D01*
Y0080298D01*
X0014543Y00801212D01*
Y0078579D01*
X0017151D01*
Y0081187D01*
X00163006D01*
X00161124Y00816414D01*
X00134338Y008432D01*
X00127534Y00846019D01*
X00121839D01*
X00119735Y00851099D01*
X00135498Y00866862D01*
X00137109Y0087075D01*
Y00901606D01*
X0014415D01*
Y00902234D01*
X00148843Y00904178D01*
X00151416Y00901606D01*
X0015534D01*
Y00914146D01*
X0015788D01*
Y00901606D01*
X00161804D01*
X0016911Y00908912D01*
X00176416Y00901606D01*
X00186804D01*
X0019411Y00908912D01*
X00201416Y00901606D01*
X00211805D01*
X0021915Y00908952D01*
Y0091934D01*
X00211805Y00926686D01*
X00201416D01*
X0019411Y0091938D01*
X00186804Y00926686D01*
X00176416D01*
X0016911Y0091938D01*
X00161804Y00926686D01*
X00156864D01*
X0015476Y00931766D01*
X00158356Y00935362D01*
X00236614D01*
X00300238Y00871738D01*
X0030607Y00869322D01*
X00353187D01*
X00353336Y00869099D01*
X00350621Y00864018D01*
X0034925D01*
X00345362Y00862408D01*
X00323772Y00840818D01*
X00322161Y0083693D01*
Y0079121D01*
X00323772Y00787322D01*
X0033942Y00771674D01*
Y0075073D01*
X0035069Y0073946D01*
X00405117D01*
X0041889Y00725688D01*
X00424722Y00723272D01*
X00510158D01*
X0051599Y00725688D01*
X00517548Y00727245D01*
X00521902Y00724415D01*
Y0071882D01*
Y0065947D01*
X0051711D01*
Y0063339D01*
X0054319D01*
Y0065947D01*
X00538398D01*
Y00710572D01*
X0061993D01*
X00622034Y00705492D01*
X00597716Y00681174D01*
X00594897Y0067437D01*
Y0063627D01*
X00597716Y00629466D01*
X0062092Y00606262D01*
Y0060355D01*
X0062768Y0059679D01*
X0063724D01*
X00639157Y00598708D01*
X00685875D01*
X00692679Y00601526D01*
X00704723Y0061357D01*
X00710824D01*
X0071817Y00620916D01*
Y00631304D01*
X00710824Y0063865D01*
X00700436D01*
X0069309Y00631304D01*
Y00629154D01*
X00681889Y00617952D01*
X00639157D01*
X0063724Y0061987D01*
X00634528D01*
X00614142Y00640256D01*
Y00670384D01*
X00665934Y00722176D01*
X00668753Y0072898D01*
Y00820244D01*
X00707566Y00859057D01*
X0076327D01*
X00770074Y00861876D01*
X00817064Y00908866D01*
X00819883Y0091567D01*
Y00938774D01*
X0082677Y00945661D01*
Y00959339D01*
X00817099Y0096901D01*
X00803421D01*
X0079375Y00959339D01*
Y00945661D01*
X00800638Y00938774D01*
Y00919656D01*
X00759284Y00878303D01*
X0070358D01*
X00696776Y00875484D01*
X00652326Y00831034D01*
X00650868Y00827514D01*
X00645788Y00828524D01*
Y00857479D01*
X006477Y00859392D01*
Y00867808D01*
X00641748Y0087376D01*
X00633332D01*
X0062738Y00867808D01*
Y00859392D01*
X00629292Y00857479D01*
Y00736206D01*
X00620154Y00727068D01*
X00538398D01*
Y0072891D01*
X00535982Y00734742D01*
X00524358Y00746366D01*
Y00760853D01*
X0052562Y0076541D01*
X00529438Y0076541D01*
X0053184D01*
Y007869D01*
Y0080839D01*
X0052868D01*
X0052562Y0080839D01*
X0052054Y0080839D01*
X0051168D01*
X0050862Y0080839D01*
X0050354Y0080839D01*
X0050038D01*
Y007869D01*
Y0076541D01*
X005066Y0076541D01*
X00507862Y00760853D01*
Y00740888D01*
X00506742Y00739768D01*
X00447832D01*
X00446822Y00744848D01*
X00449622Y00746008D01*
X00469024Y0076541D01*
X004726Y0076541D01*
X0047768Y0076541D01*
X0048654D01*
X004896Y0076541D01*
X0049468Y0076541D01*
X0049784D01*
Y007869D01*
Y0080839D01*
X0049162Y0080839D01*
X00490228Y00812893D01*
Y00813315D01*
X00487812Y00819147D01*
X0047752Y00829439D01*
Y00833518D01*
X00471568Y0083947D01*
X00463152D01*
X00457429Y00833748D01*
X004175D01*
Y0083677D01*
X0040623Y0084804D01*
X00381238D01*
X00381Y00853021D01*
X00384888Y00854632D01*
X00395048Y00864792D01*
X00396659Y0086868D01*
Y00944588D01*
X00400773Y00948702D01*
X00409294Y00948702D01*
X00414374Y00948702D01*
X00428294D01*
Y00953047D01*
X0048768D01*
X00488414Y00953352D01*
X0054737D01*
Y00949325D01*
X0056515D01*
Y00968375D01*
X0054737D01*
Y00964349D01*
X00487984D01*
X0048725Y00964044D01*
X00428294D01*
Y00967782D01*
X00414374D01*
X00411214Y00967782D01*
X00406134Y00967782D01*
X00392214D01*
Y00957478D01*
X00387272Y00952536D01*
X00385662Y00948648D01*
Y00870958D01*
X00378722Y00864018D01*
X00372491D01*
X00370387Y00869099D01*
X0037465Y00873362D01*
Y00881778D01*
X00368698Y0088773D01*
X00360282D01*
X00358369Y00885818D01*
X00309486D01*
X00245862Y00949442D01*
X0024003Y00951858D01*
X0015494D01*
X00149108Y00949442D01*
X00130698Y00931032D01*
X00128898Y00926686D01*
X00123462D01*
X00121357Y00931766D01*
X00172003Y00982412D01*
X00616782D01*
X00667428Y00931766D01*
X00665324Y00926686D01*
X00660686D01*
X00658113Y00924114D01*
X0065342Y00926058D01*
Y00926686D01*
X0062834D01*
Y00901606D01*
X0065342D01*
Y00902234D01*
X00658113Y00904178D01*
X00660686Y00901606D01*
X0066461D01*
Y00914146D01*
X0066715D01*
Y00901606D01*
X00671074D01*
X0067838Y00908912D01*
X00685686Y00901606D01*
X00696074D01*
X0070338Y00908912D01*
X00710686Y00901606D01*
X00721075D01*
X0072842Y00908952D01*
Y0091934D01*
X00721075Y00926686D01*
X00710686D01*
X0070338Y0091938D01*
X00696074Y00926686D01*
X00685686D01*
X00684929Y00925929D01*
X00621406Y00989452D01*
X0061849Y0099066D01*
X00619393Y00995366D01*
X00995366D01*
Y00004124D01*
D02*
G37*
G36*
X00170295Y0099066D02*
X00167379Y00989452D01*
X0005461Y00876683D01*
X0004953Y00878787D01*
Y00884318D01*
X00043578Y0089027D01*
X00042295Y00893368D01*
X00046504Y00897576D01*
X00049972D01*
X00054738Y0089281D01*
X00062102D01*
X0006731Y00898018D01*
Y00905382D01*
X00062102Y0091059D01*
X00054738D01*
X00049972Y00905824D01*
X00044795D01*
X0004188Y00904616D01*
X00008817Y00871554D01*
X00004124Y00873498D01*
Y00995366D01*
X00169393D01*
X00170295Y0099066D01*
D02*
G37*
G36*
X0011907Y00922294D02*
Y00901606D01*
X00126112D01*
Y00873028D01*
X00057072Y00803988D01*
X0005704Y0080391D01*
X00056752D01*
X000508Y00797958D01*
Y00789542D01*
X00056752Y0078359D01*
X00065168D01*
X00065694Y00784116D01*
X00070388Y00782172D01*
Y00719509D01*
X00035874Y00684995D01*
X00030794Y006871D01*
Y00823792D01*
X00088442Y0088144D01*
X00088502Y0088138D01*
X00096918D01*
X0010287Y00887332D01*
Y00895748D01*
X00096918Y009017D01*
X0009527Y00905679D01*
X0011399Y00924399D01*
X0011907Y00922294D01*
D02*
G37*
G36*
X00035162Y0086995D02*
X00040693D01*
X00042797Y0086487D01*
X00020634Y00842707D01*
X00015554Y00844811D01*
Y00850462D01*
X00035102Y0087001D01*
X00035162Y0086995D01*
D02*
G37*
G36*
X0033942Y00828899D02*
Y0081423D01*
X0035069Y0080296D01*
X0040623D01*
X004175Y0081423D01*
Y00817252D01*
X00462175D01*
X00465148Y00818483D01*
X00470161Y0081347D01*
X00468057Y0080839D01*
X0045762D01*
Y00777334D01*
X00440374Y00760088D01*
X0043942D01*
X00437904Y0075946D01*
X00436264D01*
X00435104Y007583D01*
X00433588Y00757672D01*
X0043296Y00756156D01*
X004318Y00754996D01*
Y00753356D01*
X00431172Y0075184D01*
X004318Y00750324D01*
Y00748684D01*
X0043296Y00747524D01*
X00433588Y00746008D01*
X00435104Y0074538D01*
X00435636Y00744848D01*
X00434748Y00739768D01*
X00428138D01*
X00417338Y00750568D01*
X004175Y0075073D01*
Y0077327D01*
X0040623Y0078454D01*
X0035069D01*
X00346398Y00780248D01*
X00333158Y00793488D01*
Y00830825D01*
X0033434Y00831614D01*
X0033942Y00828899D01*
D02*
G37*
G36*
X00193544Y00623176D02*
Y00572223D01*
X00172973D01*
X00166168Y00569404D01*
X00163629Y00566864D01*
X00162896Y00565096D01*
X00161543Y00563742D01*
Y00561828D01*
X0016081Y0056006D01*
X00161543Y00558292D01*
Y00556378D01*
X00162896Y00555024D01*
X00163629Y00553256D01*
X00165397Y00552523D01*
X0016675Y0055117D01*
X00168664D01*
X00170433Y00550438D01*
X00172201Y0055117D01*
X00174115D01*
X00175468Y00552523D01*
X00176565Y00552977D01*
X00201462D01*
X0020232Y00552622D01*
Y0055156D01*
X00204884D01*
X0021004Y00549424D01*
X002142Y00551147D01*
X0021589Y00550448D01*
X00227335D01*
X00229137Y00548645D01*
Y00541467D01*
X002244Y0054064D01*
X00224058Y0054064D01*
X0021463D01*
Y005296D01*
Y0051856D01*
X002244D01*
Y00524953D01*
X00229137Y0052578D01*
X00231956Y00518976D01*
X00246588Y00504344D01*
X00253392Y00501525D01*
X00318116D01*
X00318315Y00501608D01*
X00326656D01*
X00326903Y0049663D01*
Y00494025D01*
X003251Y00492223D01*
X00248233D01*
X00241429Y00489404D01*
X00219384Y0046736D01*
X00219312D01*
X0021336Y00461408D01*
Y00452992D01*
X00219312Y0044704D01*
X002238D01*
X00225904Y0044196D01*
X00154838Y00370895D01*
X00152777Y00371254D01*
X0015105Y00376712D01*
X001524Y00378062D01*
Y00386478D01*
X00146448Y0039243D01*
X00138032D01*
X00137674Y00392072D01*
X00114719Y00415028D01*
Y0049784D01*
X00113108Y00501728D01*
X00100408Y00514428D01*
X0009652Y00516039D01*
X0008012D01*
X00079557Y00521119D01*
X0008382Y00525382D01*
Y00533798D01*
X00077868Y0053975D01*
X00069452D01*
X000635Y00533798D01*
Y00525382D01*
X00068162Y0052072D01*
Y00514017D01*
X00069772Y00510129D01*
X00073249Y00506652D01*
X00077137Y00505042D01*
X00078941D01*
X00079363Y00499962D01*
X0007378Y00494379D01*
Y00486061D01*
X00079661Y0048018D01*
X00087979D01*
X0009386Y00486061D01*
Y00494379D01*
X00088277Y00499962D01*
X00088699Y00505042D01*
X00094242D01*
X00103722Y00495562D01*
Y0041275D01*
X00105332Y00408862D01*
X0013208Y00382114D01*
Y00378062D01*
X00136343Y00373798D01*
X00134239Y00368718D01*
X0009252D01*
X00087979Y0037326D01*
X00079661D01*
X0007378Y00367379D01*
Y00364106D01*
X00071771Y00361241D01*
X000687Y00359885D01*
X0006846Y00360016D01*
Y00367379D01*
X00062579Y0037326D01*
X00054261D01*
X0004838Y00367379D01*
X00045353Y00366125D01*
X00030794Y00380683D01*
Y00591016D01*
X00035874Y0059312D01*
X00051598Y00577396D01*
X00058402Y00574577D01*
X00126064D01*
X00126602Y0057404D01*
X0013222D01*
X00135589Y00570785D01*
X00135848Y00569304D01*
Y00556614D01*
X00135848Y00553454D01*
X00135848Y00548374D01*
Y00544264D01*
X00145388D01*
X00154928D01*
Y00548374D01*
X00154928Y00551534D01*
X00154928Y00556614D01*
Y00570534D01*
X00150199D01*
Y00581677D01*
X00150226Y00581743D01*
Y00591738D01*
X00150199Y00591803D01*
Y00596005D01*
X00170575Y00616381D01*
X00170846Y0061611D01*
X00181234D01*
X00188464Y0062334D01*
X00193544Y00623176D01*
D02*
G37*
G36*
X00049764Y0035005D02*
X00049865Y00344671D01*
X00048752Y00343278D01*
X00043534Y00342543D01*
X00023174Y00362903D01*
Y00369455D01*
X00028254Y00371559D01*
X00049764Y0035005D01*
D02*
G37*
G36*
Y0032465D02*
X00049865Y00319271D01*
X00048752Y00317878D01*
X00043534Y00317143D01*
X00015554Y00345123D01*
Y00351675D01*
X00020634Y00353779D01*
X00049764Y0032465D01*
D02*
G37*
G36*
Y00299249D02*
X00049872Y0029351D01*
X00048895Y00292264D01*
X00043383Y00291379D01*
X00009204Y00325558D01*
Y00333172D01*
X00013897Y00335116D01*
X00049764Y00299249D01*
D02*
G37*
%LPC*%
G36*
X0058801Y00968375D02*
X0058039D01*
Y0096012D01*
X0058801D01*
Y00968375D01*
D02*
G37*
G36*
X0057785D02*
X0057023D01*
Y0096012D01*
X0057785D01*
Y00968375D01*
D02*
G37*
G36*
X0058801Y0095758D02*
X0058039D01*
Y00949325D01*
X0058801D01*
Y0095758D01*
D02*
G37*
G36*
X0057785D02*
X0057023D01*
Y00949325D01*
X0057785D01*
Y0095758D01*
D02*
G37*
G36*
X00352279Y0097155D02*
X00338601D01*
X0032893Y00961879D01*
Y00948201D01*
X00338601Y0093853D01*
X00352279D01*
X0036195Y00948201D01*
Y00961879D01*
X00352279Y0097155D01*
D02*
G37*
G36*
X00301479D02*
X00287801D01*
X0027813Y00961879D01*
Y00948201D01*
X00287801Y0093853D01*
X00301479D01*
X0031115Y00948201D01*
Y00961879D01*
X00301479Y0097155D01*
D02*
G37*
G36*
X00961407Y0097754D02*
X00938593D01*
X0092246Y00961407D01*
Y00938593D01*
X00938593Y0092246D01*
X00961407D01*
X0097754Y00938593D01*
Y00961407D01*
X00961407Y0097754D01*
D02*
G37*
G36*
X0055585Y0093634D02*
X0050038D01*
Y0089567D01*
X0055585D01*
Y0093634D01*
D02*
G37*
G36*
X0049784D02*
X0044237D01*
Y0089567D01*
X0049784D01*
Y0093634D01*
D02*
G37*
G36*
X0055585Y0089313D02*
X0050038D01*
Y0085246D01*
X0055585D01*
Y0089313D01*
D02*
G37*
G36*
X0049784D02*
X0044237D01*
Y0085246D01*
X0049784D01*
Y0089313D01*
D02*
G37*
G36*
X00955389Y008584D02*
X009525D01*
Y0084963D01*
X0096127D01*
Y00852519D01*
X00955389Y008584D01*
D02*
G37*
G36*
X0094996D02*
X00947071D01*
X0094119Y00852519D01*
Y0084963D01*
X0094996D01*
Y008584D01*
D02*
G37*
G36*
X00574438Y0085471D02*
X005715D01*
Y0084582D01*
X0058039D01*
Y00848758D01*
X00574438Y0085471D01*
D02*
G37*
G36*
X0056896D02*
X00566022D01*
X0056007Y00848758D01*
Y0084582D01*
X0056896D01*
Y0085471D01*
D02*
G37*
G36*
X0096127Y0084709D02*
X009525D01*
Y0083832D01*
X00955389D01*
X0096127Y00844201D01*
Y0084709D01*
D02*
G37*
G36*
X0094996D02*
X0094119D01*
Y00844201D01*
X00947071Y0083832D01*
X0094996D01*
Y0084709D01*
D02*
G37*
G36*
X00867899Y0096901D02*
X00854221D01*
X0084455Y00959339D01*
Y00945661D01*
X00852812Y00937399D01*
Y0088265D01*
X00855228Y00876818D01*
X00889Y00843046D01*
Y00840342D01*
X00894952Y0083439D01*
X00903368D01*
X0090932Y00840342D01*
Y00848758D01*
X00903368Y0085471D01*
X00900664D01*
X00869308Y00886066D01*
Y00937399D01*
X0087757Y00945661D01*
Y00959339D01*
X00867899Y0096901D01*
D02*
G37*
G36*
X00955389Y00833D02*
X009525D01*
Y0082423D01*
X0096127D01*
Y00827119D01*
X00955389Y00833D01*
D02*
G37*
G36*
X0094996D02*
X00947071D01*
X0094119Y00827119D01*
Y0082423D01*
X0094996D01*
Y00833D01*
D02*
G37*
G36*
X0085598Y00827405D02*
X008382D01*
Y00823083D01*
X00825804D01*
Y00826828D01*
X00811884D01*
X00808724Y00826828D01*
X00803644Y00826828D01*
X00789724D01*
Y00815524D01*
X00768272Y00794072D01*
X00766662Y00790184D01*
Y00732528D01*
X00723584Y0068945D01*
X00717436D01*
X0071009Y00682104D01*
Y00671716D01*
X00717436Y0066437D01*
X00727824D01*
X0073517Y00671716D01*
Y00682104D01*
X0073348Y00683794D01*
X00776048Y00726362D01*
X00777658Y0073025D01*
Y00787906D01*
X007975Y00807748D01*
X00806804Y00807748D01*
X00811884Y00807748D01*
X00825804D01*
Y00812085D01*
X008382D01*
Y00808355D01*
X0085598D01*
Y00827405D01*
D02*
G37*
G36*
X0087884D02*
X0087122D01*
Y0081915D01*
X0087884D01*
Y00827405D01*
D02*
G37*
G36*
X0086868D02*
X0086106D01*
Y0081915D01*
X0086868D01*
Y00827405D01*
D02*
G37*
G36*
X0096127Y0082169D02*
X009525D01*
Y0081292D01*
X00955389D01*
X0096127Y00818801D01*
Y0082169D01*
D02*
G37*
G36*
X0094996D02*
X0094119D01*
Y00818801D01*
X00947071Y0081292D01*
X0094996D01*
Y0082169D01*
D02*
G37*
G36*
X00736641Y0082076D02*
X0073251D01*
Y0080899D01*
X0074428D01*
Y00813121D01*
X00736641Y0082076D01*
D02*
G37*
G36*
X0072997D02*
X00725839D01*
X007182Y00813121D01*
Y0080899D01*
X0072997D01*
Y0082076D01*
D02*
G37*
G36*
X0087884Y0081661D02*
X0087122D01*
Y00808355D01*
X0087884D01*
Y0081661D01*
D02*
G37*
G36*
X0086868D02*
X0086106D01*
Y00808355D01*
X0086868D01*
Y0081661D01*
D02*
G37*
G36*
X0027559Y00809625D02*
X0026797D01*
Y0080137D01*
X0027559D01*
Y00809625D01*
D02*
G37*
G36*
X0026543D02*
X0025781D01*
Y0080137D01*
X0026543D01*
Y00809625D01*
D02*
G37*
G36*
X00128871Y0081187D02*
X0012474D01*
Y008001D01*
X0013651D01*
Y00804231D01*
X00128871Y0081187D01*
D02*
G37*
G36*
X001222D02*
X00118069D01*
X0011043Y00804231D01*
Y008001D01*
X001222D01*
Y0081187D01*
D02*
G37*
G36*
X00955389Y008076D02*
X009525D01*
Y0079883D01*
X0096127D01*
Y00801719D01*
X00955389Y008076D01*
D02*
G37*
G36*
X0094996D02*
X00947071D01*
X0094119Y00801719D01*
Y0079883D01*
X0094996D01*
Y008076D01*
D02*
G37*
G36*
X0074428Y0080645D02*
X0073251D01*
Y0079468D01*
X00736641D01*
X0074428Y00802319D01*
Y0080645D01*
D02*
G37*
G36*
X0072997D02*
X007182D01*
Y00802319D01*
X00725839Y0079468D01*
X0072997D01*
Y0080645D01*
D02*
G37*
G36*
X0070928Y0082076D02*
X006832D01*
Y0079468D01*
X0070928D01*
Y0082076D01*
D02*
G37*
G36*
X0027559Y0079883D02*
X0026797D01*
Y00790575D01*
X0027559D01*
Y0079883D01*
D02*
G37*
G36*
X0026543D02*
X0025781D01*
Y00790575D01*
X0026543D01*
Y0079883D01*
D02*
G37*
G36*
X0053438Y0080839D02*
Y0078817D01*
X005406D01*
Y0080839D01*
X0053438D01*
D02*
G37*
G36*
X0058039Y0084328D02*
X0056007D01*
Y00840342D01*
X00563482Y0083693D01*
X00561377Y0083185D01*
X00558402D01*
X0055245Y00825898D01*
Y00817482D01*
X00558402Y0081153D01*
X00566818D01*
X00570001Y00814712D01*
X00585714D01*
X00594972Y00805454D01*
Y00794625D01*
X00597005Y00789715D01*
X00601915Y00787682D01*
X00609665D01*
X00614575Y00789715D01*
X00616609Y00794625D01*
Y00810175D01*
X00614575Y00815085D01*
X00609665Y00817119D01*
X00606636D01*
X00594962Y00828792D01*
X0058913Y00831208D01*
X0057844D01*
X00576336Y00836288D01*
X0058039Y00840342D01*
Y0084328D01*
D02*
G37*
G36*
X0096127Y0079629D02*
X009525D01*
Y0078752D01*
X00955389D01*
X0096127Y00793401D01*
Y0079629D01*
D02*
G37*
G36*
X0094996D02*
X0094119D01*
Y00793401D01*
X00947071Y0078752D01*
X0094996D01*
Y0079629D01*
D02*
G37*
G36*
X0013651Y0079756D02*
X0012474D01*
Y0078579D01*
X00128871D01*
X0013651Y00793429D01*
Y0079756D01*
D02*
G37*
G36*
X001222D02*
X0011043D01*
Y00793429D01*
X00118069Y0078579D01*
X001222D01*
Y0079756D01*
D02*
G37*
G36*
X0023466Y00816924D02*
X0020828D01*
X00205364Y00815716D01*
X00199014Y00809366D01*
X00197806Y0080645D01*
Y00751008D01*
X00189748Y0074295D01*
X00184804D01*
X0018034Y00738486D01*
Y00732174D01*
X00184804Y0072771D01*
X00191116D01*
X0019558Y00732174D01*
Y00737118D01*
X00204166Y00745704D01*
X0020738Y00745096D01*
X00209246Y00744147D01*
Y00736558D01*
X00213662D01*
Y00689726D01*
X0021487Y0068681D01*
X00215768Y00685912D01*
X002145Y00684644D01*
Y00674256D01*
X00221846Y0066691D01*
X00232234D01*
X0023958Y00674256D01*
Y00684644D01*
X00232234Y0069199D01*
X0022191D01*
Y00732966D01*
X00225502Y00736558D01*
X00231639Y00736558D01*
Y00727001D01*
X0023325Y00723113D01*
X00234142Y00722221D01*
X0023368Y00721758D01*
Y00713342D01*
X00239632Y0070739D01*
X00248048D01*
X00251836Y00711178D01*
X00256916Y00709073D01*
Y0069199D01*
X00255846D01*
X002485Y00684644D01*
Y00674256D01*
X00255846Y0066691D01*
X00266234D01*
X0027358Y00674256D01*
Y00684644D01*
X00266234Y0069199D01*
X00265164D01*
Y00736558D01*
X00270776Y00736558D01*
X00275737Y00736272D01*
Y00725874D01*
X00277348Y00721986D01*
X00302651Y00696683D01*
X00300707Y0069199D01*
X002825D01*
Y0066691D01*
X00293972D01*
X00307286Y00653596D01*
X0031409Y00650778D01*
X00347632D01*
X0034955Y0064886D01*
X0035911D01*
X0036587Y0065562D01*
Y0066518D01*
X0035911Y0067194D01*
X0034955D01*
X00347632Y00670023D01*
X00332165D01*
X00330061Y00675102D01*
X0033274Y00677782D01*
Y00686198D01*
X00326788Y0069215D01*
X00322736D01*
X00286735Y00728152D01*
Y00736558D01*
X00289776D01*
Y00755638D01*
X00275856D01*
X00272696Y00755638D01*
X00267616Y00755638D01*
X00253696D01*
Y00736558D01*
X00256916D01*
Y00726027D01*
X00251836Y00723922D01*
X00248048Y0072771D01*
X00244205D01*
X00242637Y00729279D01*
Y00736558D01*
X00245326D01*
Y00755638D01*
X00231406D01*
X00228246Y00755638D01*
X00223166Y00755638D01*
X00211134D01*
X00209246Y00755638D01*
X00206054Y00759396D01*
Y00783891D01*
X00209995Y00787619D01*
X00212705Y00787184D01*
X00213662Y00786784D01*
X0021487Y00783868D01*
X00221874Y00776864D01*
X0022479Y00775656D01*
X0028194D01*
X00284856Y00776864D01*
X00288249Y00780257D01*
X00289457Y00783173D01*
Y00790575D01*
X0029845D01*
Y00809625D01*
X0028067D01*
Y00790575D01*
X00281209D01*
Y00784881D01*
X00280232Y00783904D01*
X00246185D01*
X00245326Y00788628D01*
X00245326Y00788984D01*
Y00807708D01*
X0024091D01*
Y00810675D01*
X00239702Y00813591D01*
X00237577Y00815716D01*
X0023466Y00816924D01*
D02*
G37*
G36*
X00955389Y007822D02*
X009525D01*
Y0077343D01*
X0096127D01*
Y00776319D01*
X00955389Y007822D01*
D02*
G37*
G36*
X0094996D02*
X00947071D01*
X0094119Y00776319D01*
Y0077343D01*
X0094996D01*
Y007822D01*
D02*
G37*
G36*
X005406Y0078563D02*
X0053438D01*
Y0076541D01*
X005406D01*
Y0078563D01*
D02*
G37*
G36*
X0096127Y0077089D02*
X009525D01*
Y0076212D01*
X00955389D01*
X0096127Y00768001D01*
Y0077089D01*
D02*
G37*
G36*
X0094996D02*
X0094119D01*
Y00768001D01*
X00947071Y0076212D01*
X0094996D01*
Y0077089D01*
D02*
G37*
G36*
X00609665Y00774418D02*
X0060706D01*
Y0076097D01*
X00616609D01*
Y00767475D01*
X00614575Y00772385D01*
X00609665Y00774418D01*
D02*
G37*
G36*
X0060452D02*
X00601915D01*
X00597005Y00772385D01*
X00594972Y00767475D01*
Y0076097D01*
X0060452D01*
Y00774418D01*
D02*
G37*
G36*
X00859732Y00775958D02*
X00854652Y00775958D01*
X00840732D01*
Y00763969D01*
X00840313Y00762958D01*
Y0076046D01*
X00829728Y00749875D01*
X00824649Y00751979D01*
Y00756878D01*
X00825716D01*
Y00775958D01*
X00811796D01*
X00808636Y00775958D01*
X00803556Y00775958D01*
X00789636D01*
Y00764654D01*
X00786742Y0076176D01*
X00785131Y00757872D01*
Y00689146D01*
X0077809Y00682104D01*
Y00671716D01*
X00785436Y0066437D01*
X00795824D01*
X0080317Y00671716D01*
Y00682104D01*
X00796128Y00689146D01*
Y00727909D01*
X00801208Y00730013D01*
X00804782Y0072644D01*
X00813198D01*
X00814438Y0072768D01*
X00819131Y00725736D01*
Y00689146D01*
X0081209Y00682104D01*
Y00671716D01*
X00819436Y0066437D01*
X00829824D01*
X0083717Y00671716D01*
Y00682104D01*
X00830128Y00689146D01*
Y00734722D01*
X008497Y00754294D01*
X0085077Y00756878D01*
X00857812Y00756878D01*
X00862892Y00756878D01*
X00870036D01*
X00903092Y00723822D01*
X0090698Y00722212D01*
X00914946D01*
X00918338Y0071882D01*
X00925702D01*
X0093091Y00724028D01*
Y00731392D01*
X00925702Y007366D01*
X00918338D01*
X00914946Y00733208D01*
X00909258D01*
X00876812Y00765654D01*
Y00775958D01*
X00862892D01*
X00859732Y00775958D01*
D02*
G37*
G36*
X00955389Y007568D02*
X009525D01*
Y0074803D01*
X0096127D01*
Y00750919D01*
X00955389Y007568D01*
D02*
G37*
G36*
X0094996D02*
X00947071D01*
X0094119Y00750919D01*
Y0074803D01*
X0094996D01*
Y007568D01*
D02*
G37*
G36*
X00616609Y0075843D02*
X0060706D01*
Y00744982D01*
X00609665D01*
X00614575Y00747015D01*
X00616609Y00751925D01*
Y0075843D01*
D02*
G37*
G36*
X0060452D02*
X00594972D01*
Y00751925D01*
X00597005Y00747015D01*
X00601915Y00744982D01*
X0060452D01*
Y0075843D01*
D02*
G37*
G36*
X00579518Y0075311D02*
X0057658D01*
Y0074422D01*
X0058547D01*
Y00747158D01*
X00579518Y0075311D01*
D02*
G37*
G36*
X0057404D02*
X00571102D01*
X0056515Y00747158D01*
Y0074422D01*
X0057404D01*
Y0075311D01*
D02*
G37*
G36*
X00980789Y008584D02*
X00972471D01*
X0096659Y00852519D01*
Y00844201D01*
X00968382Y00842409D01*
Y00828911D01*
X0096659Y00827119D01*
Y00818801D01*
X00968382Y00817009D01*
Y00803511D01*
X0096659Y00801719D01*
Y00793401D01*
X00968382Y00791609D01*
Y00778111D01*
X0096659Y00776319D01*
Y00768001D01*
X00968382Y00766209D01*
Y007568D01*
X0096659D01*
Y0073672D01*
X0098667D01*
Y007568D01*
X00984878D01*
Y00766209D01*
X0098667Y00768001D01*
Y00776319D01*
X00984878Y00778111D01*
Y00791609D01*
X0098667Y00793401D01*
Y00801719D01*
X00984878Y00803511D01*
Y00817009D01*
X0098667Y00818801D01*
Y00827119D01*
X00984878Y00828911D01*
Y00842409D01*
X0098667Y00844201D01*
Y00852519D01*
X00980789Y008584D01*
D02*
G37*
G36*
X0096127Y0074549D02*
X009525D01*
Y0073672D01*
X00955389D01*
X0096127Y00742601D01*
Y0074549D01*
D02*
G37*
G36*
X0094996D02*
X0094119D01*
Y00742601D01*
X00947071Y0073672D01*
X0094996D01*
Y0074549D01*
D02*
G37*
G36*
X0058547Y0074168D02*
X0057658D01*
Y0073279D01*
X00579518D01*
X0058547Y00738742D01*
Y0074168D01*
D02*
G37*
G36*
X0057404D02*
X0056515D01*
Y00738742D01*
X00571102Y0073279D01*
X0057404D01*
Y0074168D01*
D02*
G37*
G36*
X00198234Y0069199D02*
X0019431D01*
Y0068072D01*
X0020558D01*
Y00684644D01*
X00198234Y0069199D01*
D02*
G37*
G36*
X0019177D02*
X00187846D01*
X001805Y00684644D01*
Y0068072D01*
X0019177D01*
Y0069199D01*
D02*
G37*
G36*
X00761824Y0068945D02*
X007579D01*
Y0067818D01*
X0076917D01*
Y00682104D01*
X00761824Y0068945D01*
D02*
G37*
G36*
X0075536D02*
X00751436D01*
X0074409Y00682104D01*
Y0067818D01*
X0075536D01*
Y0068945D01*
D02*
G37*
G36*
X00693824D02*
X00683436D01*
X0067609Y00682104D01*
Y00679954D01*
X00664889Y00668753D01*
X00639157D01*
X0063724Y0067067D01*
X0062768D01*
X0062092Y0066391D01*
Y0065435D01*
X0062768Y0064759D01*
X0063724D01*
X00639157Y00649508D01*
X00668875D01*
X00675679Y00652326D01*
X00687723Y0066437D01*
X00693824D01*
X0070117Y00671716D01*
Y00682104D01*
X00693824Y0068945D01*
D02*
G37*
G36*
X0020558Y0067818D02*
X0019431D01*
Y0066691D01*
X00198234D01*
X0020558Y00674256D01*
Y0067818D01*
D02*
G37*
G36*
X0019177D02*
X001805D01*
Y00674256D01*
X00187846Y0066691D01*
X0019177D01*
Y0067818D01*
D02*
G37*
G36*
X00164234Y0069199D02*
X00153846D01*
X001465Y00684644D01*
Y00674256D01*
X00153846Y0066691D01*
X00164234D01*
X0017158Y00674256D01*
Y00684644D01*
X00164234Y0069199D01*
D02*
G37*
G36*
X0076917Y0067564D02*
X007579D01*
Y0066437D01*
X00761824D01*
X0076917Y00671716D01*
Y0067564D01*
D02*
G37*
G36*
X0075536D02*
X0074409D01*
Y00671716D01*
X00751436Y0066437D01*
X0075536D01*
Y0067564D01*
D02*
G37*
G36*
X0087117Y0068945D02*
X0084609D01*
Y0066437D01*
X00857562D01*
X00869606Y00652326D01*
X0087641Y00649508D01*
X00909156D01*
X00910659Y0065013D01*
X0091791D01*
X0092467Y0065689D01*
Y0066645D01*
X0091791Y0067321D01*
X0090835D01*
X00903893Y00668753D01*
X00880396D01*
X0087117Y00677978D01*
Y0068945D01*
D02*
G37*
G36*
X00463591Y0066074D02*
X0045946D01*
Y0064897D01*
X0047123D01*
Y00653101D01*
X00463591Y0066074D01*
D02*
G37*
G36*
X0045692D02*
X00452789D01*
X0044515Y00653101D01*
Y0064897D01*
X0045692D01*
Y0066074D01*
D02*
G37*
G36*
X00570551Y0065947D02*
X0056642D01*
Y006477D01*
X0057819D01*
Y00651831D01*
X00570551Y0065947D01*
D02*
G37*
G36*
X0056388D02*
X00559749D01*
X0055211Y00651831D01*
Y006477D01*
X0056388D01*
Y0065947D01*
D02*
G37*
G36*
X0047123Y0064643D02*
X0045946D01*
Y0063466D01*
X00463591D01*
X0047123Y00642299D01*
Y0064643D01*
D02*
G37*
G36*
X0045692D02*
X0044515D01*
Y00642299D01*
X00452789Y0063466D01*
X0045692D01*
Y0064643D01*
D02*
G37*
G36*
X0043623Y0066074D02*
X0041015D01*
Y0063466D01*
X0043623D01*
Y0066074D01*
D02*
G37*
G36*
X0057819Y0064516D02*
X0056642D01*
Y0063339D01*
X00570551D01*
X0057819Y00641029D01*
Y0064516D01*
D02*
G37*
G36*
X0056388D02*
X0055211D01*
Y00641029D01*
X00559749Y0063339D01*
X0056388D01*
Y0064516D01*
D02*
G37*
G36*
X00846824Y0063865D02*
X00836436D01*
X0082909Y00631304D01*
Y00620916D01*
X00836436Y0061357D01*
X00842537D01*
X00852041Y00604066D01*
X00858845Y00601247D01*
X00906432D01*
X0090835Y0059933D01*
X0091791D01*
X0092467Y0060609D01*
Y0061565D01*
X0091791Y0062241D01*
X0090835D01*
X00906432Y00620493D01*
X00862831D01*
X0085417Y00629154D01*
Y00631304D01*
X00846824Y0063865D01*
D02*
G37*
G36*
X00283234Y0064119D02*
X00272846D01*
X002655Y00633844D01*
Y00623456D01*
X00272846Y0061611D01*
X00278947D01*
X00292261Y00602796D01*
X00299065Y00599977D01*
X00347632D01*
X0034955Y0059806D01*
X0035911D01*
X0036587Y0060482D01*
Y0061438D01*
X0035911Y0062114D01*
X0034955D01*
X00347632Y00619222D01*
X00303051D01*
X0029058Y00631694D01*
Y00633844D01*
X00283234Y0064119D01*
D02*
G37*
G36*
X00415688Y0059563D02*
X0041275D01*
Y0058674D01*
X0042164D01*
Y00589678D01*
X00415688Y0059563D01*
D02*
G37*
G36*
X0041021D02*
X00407272D01*
X0040132Y00589678D01*
Y0058674D01*
X0041021D01*
Y0059563D01*
D02*
G37*
G36*
X00321708Y0059182D02*
X0031877D01*
Y0058293D01*
X0032766D01*
Y00585868D01*
X00321708Y0059182D01*
D02*
G37*
G36*
X0031623D02*
X00313292D01*
X0030734Y00585868D01*
Y0058293D01*
X0031623D01*
Y0059182D01*
D02*
G37*
G36*
X0042164Y005842D02*
X0041275D01*
Y0057531D01*
X00415688D01*
X0042164Y00581262D01*
Y005842D01*
D02*
G37*
G36*
X0041021D02*
X0040132D01*
Y00581262D01*
X00407272Y0057531D01*
X0041021D01*
Y005842D01*
D02*
G37*
G36*
X00315664Y00556922D02*
X00308394D01*
Y00548652D01*
X00315664D01*
Y00556922D01*
D02*
G37*
G36*
X00812824Y0063865D02*
X00802436D01*
X0079509Y00631304D01*
Y00620916D01*
X00802436Y0061357D01*
X00809192D01*
X0081299Y00609772D01*
Y00565454D01*
X00808948D01*
Y00551534D01*
X00808948Y00548374D01*
X00808948Y00543294D01*
Y00539184D01*
X00818488D01*
X00828028D01*
Y00543294D01*
X00828028Y00546454D01*
X00828028Y00551534D01*
Y00565454D01*
X00823987D01*
Y0061205D01*
X00822376Y00615938D01*
X00818784Y0061953D01*
X0082017Y00620916D01*
Y00631304D01*
X00812824Y0063865D01*
D02*
G37*
G36*
X00744824D02*
X00734436D01*
X0072709Y00631304D01*
Y00620916D01*
X00728022Y00619984D01*
X0072443Y00616392D01*
X0072282Y00612504D01*
Y00564184D01*
X00718778D01*
Y00550264D01*
X00718778Y00547104D01*
X00718778Y00542024D01*
Y00537914D01*
X00728318D01*
X00737858D01*
Y00542024D01*
X00737858Y00545184D01*
X00737858Y00550264D01*
Y00564184D01*
X00733817D01*
Y00610226D01*
X0073716Y0061357D01*
X00744824D01*
X0075217Y00620916D01*
Y00631304D01*
X00744824Y0063865D01*
D02*
G37*
G36*
X00274308Y00541724D02*
X00266038D01*
Y00534454D01*
X00274308D01*
Y00541724D01*
D02*
G37*
G36*
X00263498D02*
X00255228D01*
Y00534454D01*
X00263498D01*
Y00541724D01*
D02*
G37*
G36*
X00828028Y00536644D02*
X00819758D01*
Y00529374D01*
X00828028D01*
Y00536644D01*
D02*
G37*
G36*
X00817218D02*
X00808948D01*
Y00529374D01*
X00817218D01*
Y00536644D01*
D02*
G37*
G36*
X00737858Y00535374D02*
X00729588D01*
Y00528104D01*
X00737858D01*
Y00535374D01*
D02*
G37*
G36*
X00727048D02*
X00718778D01*
Y00528104D01*
X00727048D01*
Y00535374D01*
D02*
G37*
G36*
X00620158Y005461D02*
X00611742D01*
X0060579Y00540148D01*
Y00531732D01*
X00611742Y0052578D01*
X00620158D01*
X00622071Y00527692D01*
X00652254D01*
X0065532Y00526422D01*
X00675869D01*
X00677782Y0052451D01*
X00686198D01*
X0069215Y00530462D01*
Y00538878D01*
X00686198Y0054483D01*
X00677782D01*
X00675869Y00542918D01*
X00657116D01*
X0065405Y00544188D01*
X00622071D01*
X00620158Y005461D01*
D02*
G37*
G36*
X0088616Y0047636D02*
X0088265D01*
Y0046609D01*
X0089292D01*
Y004696D01*
X0088616Y0047636D01*
D02*
G37*
G36*
X0088011D02*
X008766D01*
X0086984Y004696D01*
Y0046609D01*
X0088011D01*
Y0047636D01*
D02*
G37*
G36*
X0078574Y0046698D02*
X0077597D01*
Y0045721D01*
X0078574D01*
Y0046698D01*
D02*
G37*
G36*
X0077343D02*
X0076366D01*
Y0045721D01*
X0077343D01*
Y0046698D01*
D02*
G37*
G36*
X00778824Y0063865D02*
X00768436D01*
X0076109Y00631304D01*
Y00620916D01*
X00764542Y00617463D01*
Y0049998D01*
X0076366D01*
Y00496412D01*
X0075984D01*
X00753036Y00493594D01*
X00736962Y0047752D01*
X00731122D01*
X0072517Y00471568D01*
Y00463152D01*
X00731122Y004572D01*
X00739538D01*
X00740562Y00458223D01*
X00740896D01*
X007477Y00461042D01*
X00763826Y00477168D01*
X0077255D01*
X00774318Y004779D01*
X0078574D01*
Y0049998D01*
X00783788D01*
Y00618533D01*
X0078617Y00620916D01*
Y00631304D01*
X00778824Y0063865D01*
D02*
G37*
G36*
X0089292Y0046355D02*
X0088265D01*
Y0045328D01*
X0088616D01*
X0089292Y0046004D01*
Y0046355D01*
D02*
G37*
G36*
X0088011D02*
X0086984D01*
Y0046004D01*
X008766Y0045328D01*
X0088011D01*
Y0046355D01*
D02*
G37*
G36*
X0078574Y0045467D02*
X0077597D01*
Y004449D01*
X0078574D01*
Y0045467D01*
D02*
G37*
G36*
X0077343D02*
X0076366D01*
Y004449D01*
X0077343D01*
Y0045467D01*
D02*
G37*
G36*
X0088616Y0052716D02*
X008766D01*
X0086984Y005204D01*
Y0051084D01*
X008766Y0050408D01*
X0088616D01*
X00887064Y00504983D01*
X00892378D01*
X00907956Y00489406D01*
Y00477934D01*
X00908584D01*
X00910528Y00473241D01*
X00907956Y00470668D01*
Y00466744D01*
X00933036D01*
Y00470668D01*
X00930464Y00473241D01*
X00932408Y00477934D01*
X00933036D01*
Y00480852D01*
X0093937D01*
X00950498Y00469724D01*
Y00415466D01*
X00935179Y00400148D01*
X00930088D01*
X00927984Y00405228D01*
X00933036Y0041028D01*
Y00420668D01*
X0092573Y00427974D01*
X00933036Y0043528D01*
Y00445668D01*
X0092573Y00452974D01*
X00933036Y0046028D01*
Y00464204D01*
X00907956D01*
Y0046028D01*
X00915262Y00452974D01*
X00907956Y00445668D01*
Y0043528D01*
X00915262Y00427974D01*
X00907956Y00420668D01*
Y00419598D01*
X00881634D01*
X00855885Y00445348D01*
X00853838Y0044958D01*
X0085979Y00455532D01*
Y00463948D01*
X00853838Y004699D01*
X00845422D01*
X0083947Y00463948D01*
Y00455532D01*
X00845422Y0044958D01*
X00845506D01*
Y0044577D01*
X00846714Y00442854D01*
X0087701Y00412558D01*
X00879926Y0041135D01*
X00907956D01*
Y0041028D01*
X00913395Y00404841D01*
X009124Y00399056D01*
X00908231Y00397329D01*
X00887276Y00376374D01*
X00884457Y0036957D01*
Y00092886D01*
X008693Y00077729D01*
X00863532Y0007801D01*
X00846654Y00094888D01*
X00833045Y00100525D01*
X00695329D01*
X00694441Y00102232D01*
X00693771Y00105605D01*
X00694328Y00106162D01*
X00699965Y0011977D01*
Y00214772D01*
X0070231Y00217117D01*
Y00235003D01*
X00689663Y0024765D01*
X00671777D01*
X0065913Y00235003D01*
Y00217117D01*
X00661475Y00214772D01*
Y00121566D01*
X00660205Y001185D01*
X00665842Y00104892D01*
X00678265Y00099746D01*
X00679131Y00097026D01*
X00679485Y00094562D01*
X00665842Y00080918D01*
X00660205Y0006731D01*
X00665842Y00053702D01*
X0067945Y00048065D01*
X00693058Y00053702D01*
X00701392Y00062035D01*
X00786429D01*
X00788373Y00057342D01*
X0078359Y00052559D01*
Y0004699D01*
X0081661D01*
Y00052559D01*
X00811827Y00057342D01*
X00813771Y00062035D01*
X00825074D01*
X00831655Y00055454D01*
Y0004572D01*
X0083439Y00039117D01*
Y00038881D01*
X00834557Y00038714D01*
X00837292Y00032112D01*
X00843895Y00029377D01*
X00844061Y0002921D01*
X00844297D01*
X008509Y00026475D01*
X00857503Y0002921D01*
X00857739D01*
X00857906Y00029377D01*
X00864508Y00032112D01*
X00867243Y00038714D01*
X0086741Y00038881D01*
Y00039117D01*
X00870145Y0004572D01*
Y00051357D01*
X00900884Y00082096D01*
X00903702Y000889D01*
Y00365584D01*
X00919021Y00380903D01*
X00939165D01*
X00945969Y00383721D01*
X00966924Y00404676D01*
X00969743Y0041148D01*
Y0047371D01*
X00966924Y00480514D01*
X0095016Y00497278D01*
X00943356Y00500097D01*
X00933036D01*
Y00503014D01*
X00921564D01*
X00903168Y0052141D01*
X00896364Y00524228D01*
X00889092D01*
X0088616Y0052716D01*
D02*
G37*
G36*
X00351028Y0039862D02*
X00347104D01*
X00339758Y00391274D01*
Y0038735D01*
X00351028D01*
Y0039862D01*
D02*
G37*
G36*
Y0038481D02*
X00339758D01*
Y00380886D01*
X00347104Y0037354D01*
X00351028D01*
Y0038481D01*
D02*
G37*
G36*
X00207626Y00360026D02*
X00199356D01*
Y00352756D01*
X00207626D01*
Y00360026D01*
D02*
G37*
G36*
X00196816D02*
X00188546D01*
Y00352756D01*
X00196816D01*
Y00360026D01*
D02*
G37*
G36*
X00849951Y003534D02*
X0084582D01*
Y0034163D01*
X0085759D01*
Y00345761D01*
X00849951Y003534D01*
D02*
G37*
G36*
X0084328D02*
X00839149D01*
X0083151Y00345761D01*
Y0034163D01*
X0084328D01*
Y003534D01*
D02*
G37*
G36*
X00374764Y00356202D02*
X00364376D01*
X0035703Y00348856D01*
Y00338468D01*
X00364376Y00331122D01*
X00374764D01*
X0038211Y00338468D01*
Y00348856D01*
X00374764Y00356202D01*
D02*
G37*
G36*
X0085759Y0033909D02*
X0084582D01*
Y0032732D01*
X00849951D01*
X0085759Y00334959D01*
Y0033909D01*
D02*
G37*
G36*
X0084328D02*
X0083151D01*
Y00334959D01*
X00839149Y0032732D01*
X0084328D01*
Y0033909D01*
D02*
G37*
G36*
X0027432Y0033147D02*
X00271382D01*
X0026543Y00325518D01*
Y0032258D01*
X0027432D01*
Y0033147D01*
D02*
G37*
G36*
X0020417Y0033285D02*
X0020066D01*
Y0032258D01*
X0021093D01*
Y0032609D01*
X0020417Y0033285D01*
D02*
G37*
G36*
X0019812D02*
X0019461D01*
X0018785Y0032609D01*
Y0032258D01*
X0019812D01*
Y0033285D01*
D02*
G37*
G36*
X0027432Y0032004D02*
X0026543D01*
Y00317102D01*
X00271382Y0031115D01*
X0027432D01*
Y0032004D01*
D02*
G37*
G36*
X0021093D02*
X0020066D01*
Y0030977D01*
X0020417D01*
X0021093Y0031653D01*
Y0032004D01*
D02*
G37*
G36*
X0019812D02*
X0018785D01*
Y0031653D01*
X0019461Y0030977D01*
X0019812D01*
Y0032004D01*
D02*
G37*
G36*
X0015337Y0033285D02*
X0014381D01*
X0013705Y0032609D01*
Y0031653D01*
X0014381Y0030977D01*
X0015337D01*
X0016013Y0031653D01*
Y0032609D01*
X0015337Y0033285D01*
D02*
G37*
G36*
X00979155Y0033101D02*
X00969015D01*
X00961845Y0032384D01*
Y003137D01*
X00966074Y00309472D01*
X00968665Y0030607D01*
X00966074Y00302668D01*
X00961845Y0029844D01*
Y002883D01*
X00964855Y0028529D01*
X00962751Y0028021D01*
X00961845D01*
Y0026924D01*
X00974085D01*
X00986325D01*
Y0028021D01*
X00985419D01*
X00983315Y0028529D01*
X00986325Y002883D01*
Y0029844D01*
X00982096Y00302668D01*
X00979505Y0030607D01*
X00982096Y00309472D01*
X00986325Y003137D01*
Y0032384D01*
X00979155Y0033101D01*
D02*
G37*
G36*
X00986325Y002667D02*
X00975355D01*
Y0025573D01*
X00986325D01*
Y002667D01*
D02*
G37*
G36*
X00972815D02*
X00961845D01*
Y0025573D01*
X00972815D01*
Y002667D01*
D02*
G37*
G36*
X00087979Y0021705D02*
X0008509D01*
Y0020828D01*
X0009386D01*
Y00211169D01*
X00087979Y0021705D01*
D02*
G37*
G36*
X0008255D02*
X00079661D01*
X0007378Y00211169D01*
Y0020828D01*
X0008255D01*
Y0021705D01*
D02*
G37*
G36*
X00843321Y0021878D02*
X0083919D01*
Y0020701D01*
X0085096D01*
Y00211141D01*
X00843321Y0021878D01*
D02*
G37*
G36*
X0009386Y0020574D02*
X0008509D01*
Y0019697D01*
X00087979D01*
X0009386Y00202851D01*
Y0020574D01*
D02*
G37*
G36*
X0008255D02*
X0007378D01*
Y00202851D01*
X00079661Y0019697D01*
X0008255D01*
Y0020574D01*
D02*
G37*
G36*
X0085096Y0020447D02*
X0083919D01*
Y001927D01*
X00843321D01*
X0085096Y00200339D01*
Y0020447D01*
D02*
G37*
G36*
X0056388Y00385005D02*
X00560343Y0038354D01*
X00556515D01*
X00553808Y00380833D01*
X00550272Y00379368D01*
X00549002Y00378098D01*
X00547537Y00374562D01*
X005461Y00373125D01*
Y00371093D01*
X00543365Y0036449D01*
Y0028829D01*
Y00282135D01*
X0036182D01*
X00348212Y00276498D01*
X00345802Y00274088D01*
X00340165Y0026048D01*
X00345802Y00246872D01*
X0035941Y00241235D01*
X00365228Y00243645D01*
X0056261D01*
X00576218Y00249282D01*
X00581855Y0026289D01*
Y00269045D01*
X00712399D01*
X00789312Y00192132D01*
X0080292Y00186495D01*
X00816528Y00192132D01*
X00819864Y00200185D01*
X00825266Y00199952D01*
X00832519Y001927D01*
X0083665D01*
Y0020574D01*
Y0021878D01*
X00832519D01*
X00825266Y00211528D01*
X00819864Y00211295D01*
X00816528Y00219348D01*
X00733978Y00301898D01*
X0072037Y00307535D01*
X00581855D01*
Y00362694D01*
X00583125Y0036576D01*
X0058166Y00369297D01*
Y00373125D01*
X00578953Y00375832D01*
X00577488Y00379368D01*
X00573952Y00380833D01*
X00571245Y0038354D01*
X00567417D01*
X0056388Y00385005D01*
D02*
G37*
G36*
X00087979Y0019165D02*
X0008509D01*
Y0018288D01*
X0009386D01*
Y00185769D01*
X00087979Y0019165D01*
D02*
G37*
G36*
X0008255D02*
X00079661D01*
X0007378Y00185769D01*
Y0018288D01*
X0008255D01*
Y0019165D01*
D02*
G37*
G36*
X00958069Y0018796D02*
X009525D01*
Y0017272D01*
X0096774D01*
Y00178289D01*
X00958069Y0018796D01*
D02*
G37*
G36*
X0094996D02*
X00944391D01*
X0093472Y00178289D01*
Y0017272D01*
X0094996D01*
Y0018796D01*
D02*
G37*
G36*
X0009386Y0018034D02*
X0008509D01*
Y0017157D01*
X00087979D01*
X0009386Y00177451D01*
Y0018034D01*
D02*
G37*
G36*
X0008255D02*
X0007378D01*
Y00177451D01*
X00079661Y0017157D01*
X0008255D01*
Y0018034D01*
D02*
G37*
G36*
X00087979Y0016625D02*
X0008509D01*
Y0015748D01*
X0009386D01*
Y00160369D01*
X00087979Y0016625D01*
D02*
G37*
G36*
X0008255D02*
X00079661D01*
X0007378Y00160369D01*
Y0015748D01*
X0008255D01*
Y0016625D01*
D02*
G37*
G36*
X0096774Y0017018D02*
X009525D01*
Y0015494D01*
X00958069D01*
X0096774Y00164611D01*
Y0017018D01*
D02*
G37*
G36*
X0094996D02*
X0093472D01*
Y00164611D01*
X00944391Y0015494D01*
X0094996D01*
Y0017018D01*
D02*
G37*
G36*
X0009386Y0015494D02*
X0008509D01*
Y0014617D01*
X00087979D01*
X0009386Y00152051D01*
Y0015494D01*
D02*
G37*
G36*
X0008255D02*
X0007378D01*
Y00152051D01*
X00079661Y0014617D01*
X0008255D01*
Y0015494D01*
D02*
G37*
G36*
X00087979Y0014085D02*
X0008509D01*
Y0013208D01*
X0009386D01*
Y00134969D01*
X00087979Y0014085D01*
D02*
G37*
G36*
X0008255D02*
X00079661D01*
X0007378Y00134969D01*
Y0013208D01*
X0008255D01*
Y0014085D01*
D02*
G37*
G36*
X0009386Y0012954D02*
X0008509D01*
Y0012077D01*
X00087979D01*
X0009386Y00126651D01*
Y0012954D01*
D02*
G37*
G36*
X0008255D02*
X0007378D01*
Y00126651D01*
X00079661Y0012077D01*
X0008255D01*
Y0012954D01*
D02*
G37*
G36*
X00087979Y0011545D02*
X0008509D01*
Y0010668D01*
X0009386D01*
Y00109569D01*
X00087979Y0011545D01*
D02*
G37*
G36*
X0008255D02*
X00079661D01*
X0007378Y00109569D01*
Y0010668D01*
X0008255D01*
Y0011545D01*
D02*
G37*
G36*
X00958069Y0013716D02*
X00944391D01*
X0093472Y00127489D01*
Y00113811D01*
X00944391Y0010414D01*
X00958069D01*
X0096774Y00113811D01*
Y00127489D01*
X00958069Y0013716D01*
D02*
G37*
G36*
X0009386Y0010414D02*
X0008509D01*
Y0009537D01*
X00087979D01*
X0009386Y00101251D01*
Y0010414D01*
D02*
G37*
G36*
X0008255D02*
X0007378D01*
Y00101251D01*
X00079661Y0009537D01*
X0008255D01*
Y0010414D01*
D02*
G37*
G36*
X0081661Y0004445D02*
X0080137D01*
Y0002921D01*
X00806939D01*
X0081661Y00038881D01*
Y0004445D01*
D02*
G37*
G36*
X0079883D02*
X0078359D01*
Y00038881D01*
X00793261Y0002921D01*
X0079883D01*
Y0004445D01*
D02*
G37*
G36*
X00961407Y0007754D02*
X00938593D01*
X0092246Y00061407D01*
Y00038593D01*
X00938593Y0002246D01*
X00961407D01*
X0097754Y00038593D01*
Y00061407D01*
X00961407Y0007754D01*
D02*
G37*
G36*
X00061407D02*
X00038593D01*
X0002246Y00061407D01*
Y00038593D01*
X00038593Y0002246D01*
X00061407D01*
X0007754Y00038593D01*
Y00061407D01*
X00061407Y0007754D01*
D02*
G37*
%LPD*%
G36*
X00813508Y00751798D02*
X00810582Y00748872D01*
X00810472Y00748608D01*
X00808625Y0074676D01*
X00804782D01*
X00801208Y00743187D01*
X00796128Y00745291D01*
Y0075233D01*
X00800677Y00756878D01*
X00806716Y00756878D01*
X00813304Y00756878D01*
X00813508Y00751798D01*
D02*
G37*
%LPC*%
G36*
X00061407Y0097754D02*
X00038593D01*
X0002246Y00961407D01*
Y00938593D01*
X00038593Y0092246D01*
X00061407D01*
X0007754Y00938593D01*
Y00961407D01*
X00061407Y0097754D01*
D02*
G37*
G36*
X00154928Y00541724D02*
X00146658D01*
Y00534454D01*
X00154928D01*
Y00541724D01*
D02*
G37*
G36*
X00144118D02*
X00135848D01*
Y00534454D01*
X00144118D01*
Y00541724D01*
D02*
G37*
G36*
X0021209Y0054064D02*
X0020232D01*
Y0053087D01*
X0021209D01*
Y0054064D01*
D02*
G37*
G36*
X00175658Y0053721D02*
X0017272D01*
Y0052832D01*
X0018161D01*
Y00531258D01*
X00175658Y0053721D01*
D02*
G37*
G36*
X0017018D02*
X00167242D01*
X0016129Y00531258D01*
Y0052832D01*
X0017018D01*
Y0053721D01*
D02*
G37*
G36*
X0021209Y0052833D02*
X0020232D01*
Y0051856D01*
X0021209D01*
Y0052833D01*
D02*
G37*
G36*
X0018161Y0052578D02*
X0017272D01*
Y0051689D01*
X00175658D01*
X0018161Y00522842D01*
Y0052578D01*
D02*
G37*
G36*
X0017018D02*
X0016129D01*
Y00522842D01*
X00167242Y0051689D01*
X0017018D01*
Y0052578D01*
D02*
G37*
G36*
X00062579Y0050026D02*
X00054261D01*
X0004838Y00494379D01*
Y00486061D01*
X00054261Y0048018D01*
X00062579D01*
X0006846Y00486061D01*
Y00494379D01*
X00062579Y0050026D01*
D02*
G37*
G36*
X00087979Y0047486D02*
X00079661D01*
X0007378Y00468979D01*
Y00460661D01*
X00079661Y0045478D01*
X00087979D01*
X0009386Y00460661D01*
Y00468979D01*
X00087979Y0047486D01*
D02*
G37*
G36*
X00062579D02*
X00054261D01*
X0004838Y00468979D01*
Y00460661D01*
X00054261Y0045478D01*
X00062579D01*
X0006846Y00460661D01*
Y00468979D01*
X00062579Y0047486D01*
D02*
G37*
G36*
Y0044946D02*
X0005969D01*
Y0044069D01*
X0006846D01*
Y00443579D01*
X00062579Y0044946D01*
D02*
G37*
G36*
X0005715D02*
X00054261D01*
X0004838Y00443579D01*
Y0044069D01*
X0005715D01*
Y0044946D01*
D02*
G37*
G36*
X00087979D02*
X00079661D01*
X0007378Y00443579D01*
Y00435261D01*
X00079661Y0042938D01*
X00087979D01*
X0009386Y00435261D01*
Y00443579D01*
X00087979Y0044946D01*
D02*
G37*
G36*
X0006846Y0043815D02*
X0005969D01*
Y0042938D01*
X00062579D01*
X0006846Y00435261D01*
Y0043815D01*
D02*
G37*
G36*
X0005715D02*
X0004838D01*
Y00435261D01*
X00054261Y0042938D01*
X0005715D01*
Y0043815D01*
D02*
G37*
G36*
X00136288Y0049403D02*
X00127872D01*
X0012192Y00488078D01*
Y00479662D01*
X00127872Y0047371D01*
X00134982D01*
X0018034Y00428352D01*
Y00427592D01*
X00186292Y0042164D01*
X00194708D01*
X0020066Y00427592D01*
Y00436008D01*
X00194708Y0044196D01*
X00193948D01*
X00145234Y00490674D01*
X0013843Y00493493D01*
X00136826D01*
X00136288Y0049403D01*
D02*
G37*
G36*
X00062579Y0042406D02*
X0005969D01*
Y0041529D01*
X0006846D01*
Y00418179D01*
X00062579Y0042406D01*
D02*
G37*
G36*
X0005715D02*
X00054261D01*
X0004838Y00418179D01*
Y0041529D01*
X0005715D01*
Y0042406D01*
D02*
G37*
G36*
X00087979D02*
X00079661D01*
X0007378Y00418179D01*
Y00409861D01*
X00079661Y0040398D01*
X00087979D01*
X0009386Y00409861D01*
Y00418179D01*
X00087979Y0042406D01*
D02*
G37*
G36*
X0006846Y0041275D02*
X0005969D01*
Y0040398D01*
X00062579D01*
X0006846Y00409861D01*
Y0041275D01*
D02*
G37*
G36*
X0005715D02*
X0004838D01*
Y00409861D01*
X00054261Y0040398D01*
X0005715D01*
Y0041275D01*
D02*
G37*
G36*
X00062579Y0039866D02*
X0005969D01*
Y0038989D01*
X0006846D01*
Y00392779D01*
X00062579Y0039866D01*
D02*
G37*
G36*
X0005715D02*
X00054261D01*
X0004838Y00392779D01*
Y0038989D01*
X0005715D01*
Y0039866D01*
D02*
G37*
G36*
X00087979D02*
X00079661D01*
X0007378Y00392779D01*
Y00384461D01*
X00079661Y0037858D01*
X00087979D01*
X0009386Y00384461D01*
Y00392779D01*
X00087979Y0039866D01*
D02*
G37*
G36*
X0006846Y0038735D02*
X0005969D01*
Y0037858D01*
X00062579D01*
X0006846Y00384461D01*
Y0038735D01*
D02*
G37*
G36*
X0005715D02*
X0004838D01*
Y00384461D01*
X00054261Y0037858D01*
X0005715D01*
Y0038735D01*
D02*
G37*
%LPD*%
D11*
X0007632Y0026785D02*
X0007759D01*
X0005461Y0027432D02*
X0006985D01*
X0007632Y0026785D01*
X0007759D02*
X0008382Y0026162D01*
X0001143Y00343415D02*
Y0085217D01*
Y00343415D02*
X00055125Y0029972D01*
X0001143Y0085217D02*
X0003937Y0088011D01*
X0001905Y00361195D02*
X00055125Y0032512D01*
X0001905Y00835291D02*
X00170295Y00986536D01*
X0001905Y00361195D02*
Y00835291D01*
X0002667Y00378975D02*
Y008255D01*
X0009271Y0089154D01*
X0002667Y00378975D02*
X00055125Y0035052D01*
X0000508Y0032385D02*
X0005461Y0027432D01*
X0007112Y0029972D02*
X0008382Y0028702D01*
X00055125Y0029972D02*
X0007112D01*
Y0035052D02*
X0008382Y0033782D01*
X00055125Y0035052D02*
X0007112D01*
Y0032512D02*
X0008382Y0031242D01*
X00055125Y0032512D02*
X0007112D01*
X0084963Y0044577D02*
Y0045974D01*
X00879926Y00415474D02*
X00920496D01*
X0084963Y0044577D02*
X00879926Y00415474D01*
X00264768Y00561994D02*
Y00607922D01*
X0024404Y0062865D02*
X00264768Y00607922D01*
X00217786Y00689726D02*
Y00746098D01*
X0026104Y0067945D02*
Y00744754D01*
X0022704Y0067945D02*
Y00680472D01*
X00217786Y00689726D02*
X0022704Y00680472D01*
X0026104Y00744902D02*
X00262236Y00746098D01*
X0026104Y00744754D02*
Y00744902D01*
X00170295Y00986536D02*
X0061849D01*
X0069088Y00914146D01*
X0000508Y00861984D02*
X00044795Y009017D01*
X0000508Y0032385D02*
Y00861984D01*
X00044795Y009017D02*
X0005842D01*
X00285333Y00783173D02*
Y00795873D01*
X0028956Y008001D01*
X00217786Y00786784D02*
Y00798168D01*
Y00786784D02*
X0022479Y0077978D01*
X0028194D01*
X00285333Y00783173D01*
X0020193Y007493D02*
Y0080645D01*
X0020828Y008128D02*
X0023466D01*
X0020193Y0080645D02*
X0020828Y008128D01*
X00236786Y00798168D02*
Y00810675D01*
X0023466Y008128D02*
X00236786Y00810675D01*
X0018796Y0073533D02*
X0020193Y007493D01*
D13*
X00419754Y00958242D02*
X00420058Y00958546D01*
X0048768D01*
X00487984Y0095885D02*
X0055626D01*
X0048768Y00958546D02*
X00487984Y0095885D01*
X0056134Y0094183D02*
X00566731Y00947221D01*
X00568126D01*
X0057912Y00958215D01*
Y0095885D01*
X0049911Y008944D02*
X0051502Y0091031D01*
X0019939Y0032131D02*
X0027559D01*
X0015494Y0036322D02*
X0025908Y0046736D01*
X003683D02*
X0041148Y0051054D01*
X0025908Y0046736D02*
X003683D01*
X0021121Y005296D02*
Y0053175D01*
Y0052745D02*
Y005296D01*
X0021336D01*
X00174D02*
X0021121D01*
X0017145Y0052705D02*
X00174Y005296D01*
X0005842Y0010541D02*
Y0013081D01*
Y0015621D01*
Y0018161D01*
Y0020701D01*
Y0026162D01*
X0009652Y0051054D02*
X0010922Y0049784D01*
X00077137Y0051054D02*
X0009652D01*
X00199966Y00542994D02*
X0021121Y0053175D01*
X00145388Y00542994D02*
X00199966D01*
X0051391Y0091142D02*
X0052197Y0091948D01*
X0049911Y008944D02*
X0051502Y0091031D01*
X0052308Y0091837D02*
X0053788D01*
X0051391Y008944D02*
Y0091142D01*
X0053788Y0091837D02*
X0056134Y0094183D01*
X0039116Y0086868D02*
Y00948648D01*
X00381Y0085852D02*
X0039116Y0086868D01*
X0034925Y0085852D02*
X00381D01*
X0032766Y0083693D02*
X0034925Y0085852D01*
X0032766Y0079121D02*
Y0083693D01*
Y0079121D02*
X0035687Y00762D01*
X0037846D01*
X0082463Y00737D02*
X00845812Y00758182D01*
X0082463Y0067691D02*
Y00737D01*
X00845812Y00762958D02*
X00849272Y00766418D01*
X00845812Y00758182D02*
Y00762958D01*
X00817176Y00766418D02*
X0081915Y00764444D01*
X0080899Y00739349D02*
X0081447Y00744829D01*
Y00744984D02*
X0081915Y00749664D01*
Y00764444D01*
X0081447Y00744829D02*
Y00744984D01*
X0073963Y00623816D02*
Y0062611D01*
X00728318Y00612504D02*
X0073963Y00623816D01*
X0072263Y0068072D02*
X0077216Y0073025D01*
Y00790184D01*
X0079063Y0067691D02*
Y00757872D01*
X0080763Y00622908D02*
Y0062611D01*
Y00622908D02*
X00818488Y0061205D01*
X0072263Y0067691D02*
Y0068072D01*
X00818488Y00556914D02*
Y0061205D01*
X00798176Y00765418D02*
Y00766418D01*
X0079063Y00757872D02*
X00798176Y00765418D01*
X00798264Y00816288D02*
Y00817288D01*
X0077216Y00790184D02*
X00798264Y00816288D01*
X00728318Y00555644D02*
Y00612504D01*
X00281236Y00725874D02*
X0032385Y0068326D01*
X0010922Y0041275D02*
X001397Y0038227D01*
X0014224D01*
X00403098Y00343662D02*
X00449342D01*
X0047652Y0037084D01*
X0047752D01*
X0010922Y0041275D02*
Y0049784D01*
X0007366Y00514017D02*
X00077137Y0051054D01*
X0007366Y00514017D02*
Y0052959D01*
X0006096Y0079375D02*
Y008001D01*
X0013161Y0087075D01*
Y00914146D01*
X0041148Y0051054D02*
Y0053975D01*
X0008382Y0036322D02*
X0015494D01*
X0047752Y0041402D02*
X0047879Y0041529D01*
X0047752Y0038984D02*
Y0041402D01*
X0032258Y0068199D02*
X0032385Y0068326D01*
X00281236Y00725874D02*
Y00746098D01*
X00316934Y00557192D02*
Y00558192D01*
X00264768Y00542994D02*
X00302736D01*
X00316934Y00557192D01*
X00335934Y00558192D02*
X00336525Y00557601D01*
Y00511739D02*
Y00557601D01*
X00871732Y00761958D02*
X00872732D01*
X0090698Y0072771D01*
X00868272Y00765418D02*
Y00766418D01*
Y00765418D02*
X00871732Y00761958D01*
X0090698Y0072771D02*
X0092202D01*
X0057658Y0088519D02*
X0065913D01*
X0056134Y0090043D02*
X0057658Y0088519D01*
X0065913D02*
X0066588Y0089194D01*
X0080899Y007366D02*
Y00739349D01*
X0024384Y0071755D02*
Y00720299D01*
X00237138Y00727001D02*
Y00745746D01*
Y00727001D02*
X0024384Y00720299D01*
X00236786Y00746098D02*
X00237138Y00745746D01*
X00817264Y00817288D02*
X0081756Y00817584D01*
X00846794D01*
X0084709Y0081788D01*
X00397294Y00953782D02*
X00400754Y00957242D01*
X0039116Y00948648D02*
X00396294Y00953782D01*
X00400754Y00957242D02*
Y00958242D01*
X00396294Y00953782D02*
X00397294D01*
X0056134Y0090043D02*
Y0094183D01*
X0066588Y0089194D02*
Y00914146D01*
D16*
X00145388Y00597998D02*
X0017604Y0062865D01*
X00145388Y00561994D02*
Y00581716D01*
X00145415Y00581743D01*
Y00591738D01*
X00145388Y00591764D02*
X00145415Y00591738D01*
X00145388Y00591764D02*
Y00597998D01*
D19*
X0053311Y007869D02*
D03*
X0051611D02*
D03*
X0049911D02*
D03*
X0048211D02*
D03*
X0046511D02*
D03*
D20*
X0057912Y0095885D02*
D03*
X0055626D02*
D03*
X002667Y008001D02*
D03*
X0028956D02*
D03*
X0084709Y0081788D02*
D03*
X0086995D02*
D03*
D21*
X00419754Y00958242D02*
D03*
X00400754D02*
D03*
X00217786Y00798168D02*
D03*
X00236786D02*
D03*
X00217786Y00746098D02*
D03*
X00236786D02*
D03*
X00262236D02*
D03*
X00281236D02*
D03*
X00337116Y00511148D02*
D03*
X00318116D02*
D03*
X00316934Y00558192D02*
D03*
X00335934D02*
D03*
X00868272Y00766418D02*
D03*
X00849272D02*
D03*
X00798264Y00817288D02*
D03*
X00817264D02*
D03*
X00817176Y00766418D02*
D03*
X00798176D02*
D03*
D22*
X00145388Y00561994D02*
D03*
Y00542994D02*
D03*
X00264768Y00561994D02*
D03*
Y00542994D02*
D03*
X0047752Y0037084D02*
D03*
Y0038984D02*
D03*
X00198086Y00361296D02*
D03*
Y00380296D02*
D03*
X00728318Y00536644D02*
D03*
Y00555644D02*
D03*
X00818488Y00537914D02*
D03*
Y00556914D02*
D03*
D23*
X0021336Y005626D02*
D03*
Y005296D02*
D03*
X007747Y0045594D02*
D03*
Y0048894D02*
D03*
D24*
X0037846Y008255D02*
D03*
Y00762D02*
D03*
D25*
X0060579Y007597D02*
D03*
Y008024D02*
D03*
D53*
X0049911Y008944D02*
D03*
D54*
X0051778Y0089053D02*
X00563274Y00845036D01*
X0003949Y0045454D02*
X0005417Y0043986D01*
X0005798D01*
X0005842Y0043942D01*
X0003949Y0045454D02*
Y00540051D01*
X00049349Y0054991D02*
X0008636D01*
X0003949Y00540051D02*
X00049349Y0054991D01*
X0041148Y0058547D02*
X0043434D01*
X00321997D02*
X0041148D01*
X003175Y0058166D02*
X00318187D01*
X0043434Y0058547D02*
X0045819Y0060932D01*
X00318187Y0058166D02*
X00321997Y0058547D01*
X00317217Y00581377D02*
X003175Y0058166D01*
X00316934Y00558192D02*
X00317217Y00558475D01*
Y00581377D01*
X0084709Y0049911D02*
X0088138Y0046482D01*
X00819138Y00527062D02*
X0084709Y0049911D01*
X0018542Y00785332D02*
Y0085217D01*
X0021004Y0062865D02*
X00211437Y00627253D01*
X0031409Y006604D02*
X0035433D01*
X0029504Y0067945D02*
X0031409Y006604D01*
X00299065Y006096D02*
X0035433D01*
X00280015Y0062865D02*
X00299065Y006096D01*
X0027804Y0062865D02*
X00280015D01*
X00121949Y00610534D02*
X00140065Y0062865D01*
X00104949Y00661334D02*
X00123065Y0067945D01*
X0012504D01*
X00140065Y0062865D02*
X0014204D01*
X0006096Y00661334D02*
X00104949D01*
X0006096Y00610534D02*
X00121949D01*
X00058402Y005842D02*
X0013081D01*
X00170433Y0056006D02*
X00172973Y005626D01*
X0051391Y008944D02*
X0051778Y0089053D01*
X0052165Y008944D02*
X0052768Y0090043D01*
X0053721D01*
X0051391Y008944D02*
X0052165D01*
X0049911D02*
X0051391D01*
X00142403Y00742315D02*
X0018542Y00785332D01*
X0015661Y0088098D02*
X0018542Y0085217D01*
X001905Y0084709D01*
X0008001Y00799393D02*
X00117013Y00836396D01*
X0015432Y0080298D02*
Y0080961D01*
Y0080298D02*
X0015847Y0079883D01*
X00127534Y00836396D02*
X0015432Y0080961D01*
X00117013Y00836396D02*
X00127534D01*
X0008001Y00715523D02*
Y00799393D01*
X0004053Y00602072D02*
X00058402Y005842D01*
X0004053Y00602072D02*
Y00676043D01*
X0008001Y00715523D01*
X0086995Y0081788D02*
Y00835841D01*
X007668Y0084328D02*
X00862511D01*
X0086995Y00835841D01*
X0063246Y0065913D02*
X00668875D01*
X00686655Y0067691D01*
X0068863D01*
X00774165Y00488405D02*
Y00625575D01*
X00685875Y0060833D02*
X00703655Y0062611D01*
X0063246Y0060833D02*
X00685875D01*
X00703655Y0062611D02*
X0070563D01*
X0085863Y0067691D02*
X0087641Y0065913D01*
X00843605Y0062611D02*
X00858845Y0061087D01*
X0077363Y0062611D02*
X00774165Y00625575D01*
X0084163Y0062611D02*
X00843605D01*
X00858845Y0061087D02*
X0091313D01*
X00911696Y0066167D02*
X0091313D01*
X00909156Y0065913D02*
X00911696Y0066167D01*
X0087641Y0065913D02*
X00909156D01*
X0096012Y0041148D02*
Y0047371D01*
X008509Y0004572D02*
X00859753Y00054573D01*
X00920496Y00490474D02*
X00943356D01*
X00859753Y00054573D02*
X0089408Y000889D01*
X00943356Y00490474D02*
X0096012Y0047371D01*
X00896364Y00514606D02*
X00920496Y00490474D01*
X00789904Y0045809D02*
X00797344Y0046553D01*
X007747Y0045594D02*
X0077685Y0045809D01*
X00789904D01*
X00797344Y0046553D02*
Y0051707D01*
X00248233Y004826D02*
X00329086D01*
X00336525Y00490039D01*
Y00511739D01*
X0022352Y00457887D02*
X00248233Y004826D01*
X0022352Y004572D02*
Y00457887D01*
X00198086Y00380296D02*
X00237369D01*
X00239343Y0038227D02*
X0024003D01*
X00237369Y00380296D02*
X00239343Y0038227D01*
X0008636Y0054991D02*
X0013208Y0050419D01*
X0019939D01*
X0077255Y0048679D02*
X007747Y0048894D01*
X0075984Y0048679D02*
X0077255D01*
X00740896Y00467846D02*
X0075984Y0048679D01*
X00735816Y00467846D02*
X00740896D01*
X0073533Y0046736D02*
X00735816Y00467846D01*
X0070866Y00454479D02*
Y00475469D01*
X00760031Y0044704D02*
X0076678Y0045379D01*
X0070866Y00454479D02*
X00716099Y0044704D01*
X00760031D01*
X00706488Y0047764D02*
X0070866Y00475469D01*
X00706488Y0047764D02*
Y00488161D01*
X00717582Y00499255D01*
X0076678Y0045379D02*
X0077255D01*
X00717582Y00499255D02*
Y00522887D01*
X00727668Y00532972D01*
X00728018Y00536644D02*
X00728318D01*
X00727668Y00532972D02*
Y00536294D01*
X00728018Y00536644D01*
X00797344Y0051707D02*
X00818188Y00537914D01*
X00198086Y00361296D02*
X00198386D01*
X0019939Y00360292D01*
Y0032131D02*
Y00360292D01*
X0045819Y0060932D02*
Y006477D01*
X0013843Y0048387D02*
X001905Y004318D01*
X0013208Y0048387D02*
X0013843D01*
X00680085Y00225425D02*
X0068072Y0022606D01*
X00939165Y00390525D02*
X0096012Y0041148D01*
X0089408Y0036957D02*
X00915035Y00390525D01*
X00939165D01*
X0089408Y000889D02*
Y0036957D01*
X00819138Y00527062D02*
Y00537564D01*
X00818788Y00537914D02*
X00819138Y00537564D01*
X00882394Y00514606D02*
X00896364D01*
X0088138Y0051562D02*
X00882394Y00514606D01*
X00920169Y00465147D02*
X00920496Y00465474D01*
X0088138Y0046482D02*
X00881707Y00465147D01*
X00920169D01*
X0023876Y0052578D02*
Y00552631D01*
X0021336Y005626D02*
X0021589Y0056007D01*
X0023876Y0052578D02*
X00253392Y00511148D01*
X00318116D01*
X0021589Y0056007D02*
X0023132D01*
X0023876Y00552631D01*
X00172973Y005626D02*
X0021336D01*
X0019939Y0050419D02*
X0021121Y0051601D01*
Y0052745D01*
X0073124Y0080772D02*
X007668Y0084328D01*
X0095123Y0074676D02*
Y0077216D01*
Y0079756D01*
Y0082296D01*
Y0084836D01*
X0086995Y0081788D02*
X0092075D01*
X0095123Y0084836D01*
X00563274Y00845036D02*
X00569744D01*
X0057023Y0084455D01*
X0065913Y0082423D02*
X0070358Y0086868D01*
X0076327D01*
X0081026Y0091567D01*
X0060452Y0063627D02*
Y0067437D01*
X0065913Y0072898D01*
Y0082423D01*
X0060452Y0063627D02*
X0063246Y0060833D01*
X0081026Y0091567D02*
Y009525D01*
X0023495Y0084709D02*
X002667Y0081534D01*
X001905Y0084709D02*
X0023495D01*
X002667Y008001D02*
Y0081534D01*
X00141605Y00742315D02*
X00142403D01*
X0015661Y0088098D02*
Y00914146D01*
X0021004Y0056592D02*
X0021336Y005626D01*
D55*
X00386334Y00415036D02*
Y00422656D01*
X00309278Y00080612D02*
Y00426645D01*
X00327133Y004445D01*
X0036449D01*
X00386334Y00422656D01*
X0056261Y0028829D02*
Y0036449D01*
X0072037Y0028829D02*
X0080292Y0020574D01*
X0056261Y0028829D02*
X0072037D01*
X0056261Y0026289D02*
Y0028829D01*
X0035941Y0026048D02*
X0036182Y0026289D01*
X0056261D01*
X00309278Y00080612D02*
X0035941Y0003048D01*
X00444665Y0041529D02*
X0047879D01*
X0042037Y00390995D02*
X00444665Y0041529D01*
X0042037Y0038608D02*
Y00390995D01*
X00254Y0035687D02*
Y003683D01*
X0024003Y0038227D02*
X00254Y003683D01*
X0056261Y0036449D02*
X0056388Y0036576D01*
X0047879Y0041529D02*
X0061976D01*
X0068072Y0035433D01*
X0077978D02*
X0079375Y0034036D01*
X0068072Y0035433D02*
X0077978D01*
X0067945Y001185D02*
X0068072Y0011977D01*
Y0022606D01*
X0067945Y0006731D02*
X0069342Y0008128D01*
X00833045D01*
X008509Y0004572D02*
Y00063425D01*
X00833045Y0008128D02*
X008509Y00063425D01*
D56*
X00386334Y0038608D02*
Y00415036D01*
X00141605Y00742315D02*
X0019304Y0069088D01*
X0021004Y0056592D02*
Y0062865D01*
X0019304Y0067945D02*
Y0069088D01*
X0012347Y0076045D02*
X00141605Y00742315D01*
X0012347Y0076045D02*
Y0079883D01*
D57*
X0021844Y0065405D02*
X0028702D01*
X003048Y0063627D02*
X0036068D01*
X0028702Y0065405D02*
X003048Y0063627D01*
X0036068D02*
X0041148Y0058547D01*
X0019304Y0067945D02*
X0021844Y0065405D01*
X008636Y0063881D02*
X0095123D01*
Y0074676D01*
Y0063881D02*
X00961353D01*
X00818788Y00537914D02*
X00833824D01*
X00818488D02*
X00818788D01*
X00818188D02*
X00818488D01*
X00833824D02*
X0085852Y0056261D01*
X0095377D01*
X0097028Y0057912D01*
X00961353Y0063881D02*
X0097028Y00629883D01*
Y0057912D02*
Y00629883D01*
X0084963Y0065278D02*
X008636Y0063881D01*
X0078076Y0065278D02*
X0084963D01*
X0075663Y0067691D02*
X0078076Y0065278D01*
X0081915Y0047117D02*
X0084709Y0049911D01*
X0081915Y00417847D02*
Y0047117D01*
Y00417847D02*
X0084455Y00392447D01*
Y0034036D02*
Y00392447D01*
Y00213929D02*
Y0034036D01*
X0083792Y00207299D02*
X0084455Y00213929D01*
X0083792Y0020574D02*
Y00207299D01*
D58*
X0024003Y0094361D02*
X0030607Y0087757D01*
X0036449D01*
X0053311Y007869D02*
Y008604D01*
X0049911Y008944D02*
X0053311Y008604D01*
X00559198Y0060706D02*
X0056515Y00613012D01*
Y0064643D01*
X0049883Y0060706D02*
X00559198D01*
X0045819Y006477D02*
X0049883Y0060706D01*
X0046736Y00827935D02*
Y0082931D01*
Y00827935D02*
X0048198Y00813315D01*
X00462175Y008255D02*
X00465985Y0082931D01*
X0046736D01*
X0048198Y0078703D02*
Y00813315D01*
X0037846Y008255D02*
X00462175D01*
X0051611Y0074295D02*
X0053015Y0072891D01*
X0015494Y0094361D02*
X0024003D01*
X0013653Y009252D02*
X0015494Y0094361D01*
X0013653Y00919066D02*
Y009252D01*
X0065532Y0053467D02*
X0068199D01*
X0061595Y0053594D02*
X0065405D01*
X0065532Y0053467D01*
X0059922Y0075313D02*
X0060312D01*
X00576282Y00743922D02*
X00590012D01*
X0057531Y0074295D02*
X00576282Y00743922D01*
X0060579Y007558D02*
Y007597D01*
X0060312Y0075313D02*
X0060579Y007558D01*
X00590012Y00743922D02*
X0059922Y0075313D01*
X0086106Y0088265D02*
Y009525D01*
Y0088265D02*
X0089916Y0084455D01*
X0097663Y0074676D02*
Y0077216D01*
Y0079756D01*
Y0082296D01*
Y0084836D01*
X0013161Y00914146D02*
X0013653Y00919066D01*
X0053015Y0071882D02*
Y0072891D01*
Y0064643D02*
Y0071882D01*
X0063754Y0073279D02*
Y008636D01*
X0053015Y0071882D02*
X0062357D01*
X0063754Y0073279D01*
X0051611Y0074295D02*
Y007869D01*
Y00737472D02*
Y0074295D01*
X0056261Y0082169D02*
X0056388Y0082296D01*
X0058913D02*
X0060579Y008063D01*
Y008024D02*
Y008063D01*
X0056388Y0082296D02*
X0058913D01*
X0057859Y007869D02*
X0059922Y0076627D01*
X0060579Y007597D02*
Y007636D01*
X0060312Y0076627D02*
X0060579Y007636D01*
X0059922Y0076627D02*
X0060312D01*
X0053311Y007869D02*
X0057859D01*
X0044379Y0075184D02*
X0046498Y0077303D01*
X0043942Y0075184D02*
X0044379D01*
X0048198Y0078703D02*
X0048211Y007869D01*
X00394242Y00762D02*
X00424722Y0073152D01*
X00510158D01*
X0051611Y00737472D01*
X0037846Y00762D02*
X00394242D01*
X0049911Y007869D02*
Y008944D01*
D59*
X0013161Y00914146D02*
D03*
X0064088D02*
D03*
D60*
X0015661D02*
D03*
X0018161D02*
D03*
X0020661D02*
D03*
X0036957Y00343662D02*
D03*
X00403098D02*
D03*
X0042037Y0038608D02*
D03*
X00386334D02*
D03*
X00352298D02*
D03*
X0012504Y0067945D02*
D03*
X0014204Y0062865D02*
D03*
X0015904Y0067945D02*
D03*
X0017604Y0062865D02*
D03*
X0019304Y0067945D02*
D03*
X0021004Y0062865D02*
D03*
X0022704Y0067945D02*
D03*
X0024404Y0062865D02*
D03*
X0026104Y0067945D02*
D03*
X0027804Y0062865D02*
D03*
X0066588Y00914146D02*
D03*
X0069088D02*
D03*
X0071588D02*
D03*
X0068863Y0067691D02*
D03*
X0070563Y0062611D02*
D03*
X0072263Y0067691D02*
D03*
X0073963Y0062611D02*
D03*
X0075663Y0067691D02*
D03*
X0077363Y0062611D02*
D03*
X0079063Y0067691D02*
D03*
X0080763Y0062611D02*
D03*
X0082463Y0067691D02*
D03*
X0084163Y0062611D02*
D03*
X00920496Y00465474D02*
D03*
Y00440474D02*
D03*
Y00415474D02*
D03*
D61*
X0095123Y0017145D02*
D03*
Y0012065D02*
D03*
X008509Y0004572D02*
D03*
X008001D02*
D03*
X0086106Y009525D02*
D03*
X0081026D02*
D03*
X0034544Y0095504D02*
D03*
X0029464D02*
D03*
D62*
X0005842Y0020701D02*
D03*
X0008382Y0026162D02*
D03*
X0097663Y0074676D02*
D03*
D63*
X0008382Y0020701D02*
D03*
X0005842Y0018161D02*
D03*
X0008382D02*
D03*
X0005842Y0015621D02*
D03*
X0008382D02*
D03*
X0005842Y0013081D02*
D03*
X0008382D02*
D03*
X0005842Y0010541D02*
D03*
X0008382D02*
D03*
X0005842Y0026162D02*
D03*
X0008382Y0028702D02*
D03*
X0005842D02*
D03*
X0008382Y0031242D02*
D03*
X0005842D02*
D03*
X0008382Y0033782D02*
D03*
X0005842D02*
D03*
X0008382Y0036322D02*
D03*
X0005842D02*
D03*
X0008382Y0038862D02*
D03*
X0005842D02*
D03*
X0008382Y0041402D02*
D03*
X0005842D02*
D03*
X0008382Y0043942D02*
D03*
X0005842D02*
D03*
X0008382Y0046482D02*
D03*
X0005842D02*
D03*
X0008382Y0049022D02*
D03*
X0005842D02*
D03*
X0095123Y0074676D02*
D03*
X0097663Y0077216D02*
D03*
X0095123D02*
D03*
X0097663Y0079756D02*
D03*
X0095123D02*
D03*
X0097663Y0082296D02*
D03*
X0095123D02*
D03*
X0097663Y0084836D02*
D03*
X0095123D02*
D03*
D64*
X0069624Y0080772D02*
D03*
X0015847Y0079883D02*
D03*
X0080292Y0020574D02*
D03*
X0079375Y0034036D02*
D03*
X0042319Y006477D02*
D03*
X0053015Y0064643D02*
D03*
D65*
X0073124Y0080772D02*
D03*
X0012347Y0079883D02*
D03*
X0083792Y0020574D02*
D03*
X0084455Y0034036D02*
D03*
X0045819Y006477D02*
D03*
X0056515Y0064643D02*
D03*
D66*
X0014859Y0032131D02*
D03*
X0019939D02*
D03*
X0091313Y0066167D02*
D03*
Y0061087D02*
D03*
X0088138Y0051562D02*
D03*
Y0046482D02*
D03*
X0035433Y006604D02*
D03*
Y006096D02*
D03*
X0006096Y00661334D02*
D03*
Y00610534D02*
D03*
X0067945Y0006731D02*
D03*
Y001185D02*
D03*
X0063246Y0060833D02*
D03*
Y0065913D02*
D03*
D67*
X0035941Y0026048D02*
D03*
Y0003048D02*
D03*
D68*
X0029504Y0067945D02*
D03*
X0085863Y0067691D02*
D03*
X00920496Y00490474D02*
D03*
D69*
X00974085Y0031877D02*
D03*
Y0029337D02*
D03*
D70*
Y0026797D02*
D03*
D71*
X0068072Y0035433D02*
D03*
D72*
Y0022606D02*
D03*
D73*
X0095Y0095D02*
D03*
X0005D02*
D03*
X0095Y0005D02*
D03*
X0005D02*
D03*
D74*
X0027559Y0032131D02*
D03*
X0041148Y0058547D02*
D03*
X003175Y0058166D02*
D03*
X0017145Y0052705D02*
D03*
X0084963Y0045974D02*
D03*
X0046736Y0082931D02*
D03*
X0068199Y0053467D02*
D03*
X0022352Y004572D02*
D03*
X0014224Y0038227D02*
D03*
X0024003D02*
D03*
X0007366Y0052959D02*
D03*
X0006096Y0079375D02*
D03*
X0073533Y0046736D02*
D03*
X0041148Y0053975D02*
D03*
X00254Y0035687D02*
D03*
X0061595Y0053594D02*
D03*
X0057531Y0074295D02*
D03*
X0013208Y0048387D02*
D03*
X001905Y004318D02*
D03*
X0032258Y0068199D02*
D03*
X0013081Y005842D02*
D03*
X0009271Y0089154D02*
D03*
X0003937Y0088011D02*
D03*
X0080899Y007366D02*
D03*
X0024384Y0071755D02*
D03*
X0089916Y0084455D02*
D03*
X0057023D02*
D03*
X0036449Y0087757D02*
D03*
X0063754Y008636D02*
D03*
X0056261Y0082169D02*
D03*
D75*
X00170433Y0056006D02*
D03*
X0047752Y0091948D02*
D03*
X0052197D02*
D03*
X0045847Y0089916D02*
D03*
X0053721Y0090043D02*
D03*
X0005842Y009017D02*
D03*
X0092202Y0072771D02*
D03*
D76*
X0056388Y0036576D02*
D03*
D77*
X0043942Y0075184D02*
D03*
X0018796Y0073533D02*
D03*
M02*
