M48
;Layer_Color=9474304
;FILE_FORMAT=4:4
METRIC,LZ
;TYPE=PLATED
T1F00S00C0.5080
T2F00S00C0.7112
T3F00S00C0.8000
T4F00S00C0.8890
T5F00S00C0.9000
T6F00S00C1.0160
T7F00S00C1.1000
T8F00S00C1.2700
T9F00S00C1.2900
T10F00S00C1.3300
T11F00S00C1.5240
T12F00S00C2.0320
T13F00S00C3.3000
%
T01
X0043942Y0075184
X0018796Y0073533
T02
X0092202Y0072771
X00170433Y0056006
X0005842Y009017
X0045847Y0089916
X0047752Y0091948
X0052197
X0053721Y0090043
T03
X0014859Y0032131
X0019939
X0088138Y0046482
Y0051562
X0091313Y0061087
Y0066167
X0063246Y0065913
Y0060833
X0035433Y006096
Y006604
X0006096Y00661334
Y00610534
T04
X00920496Y00415474
Y00440474
Y00465474
Y00490474
X0020661Y00914146
X0018161
X0015661
X0013161
X0064088
X0066588
X0069088
X0071588
T05
X0005842Y0010541
Y0013081
Y0015621
Y0018161
Y0020701
X0008382
Y0018161
Y0015621
Y0013081
Y0010541
Y0026162
X0005842
Y0028702
X0008382
Y0031242
X0005842
Y0033782
X0008382
Y0036322
X0005842
Y0038862
X0008382
X0079375Y0034036
X0084455
X0083792Y0020574
X0080292
X0095123Y0074676
X0097663
Y0077216
X0095123
X0056515Y0064643
X0053015
X0045819Y006477
X0042319
X0008382Y0049022
Y0046482
Y0043942
Y0041402
X0005842
Y0043942
Y0046482
Y0049022
X0012347Y0079883
X0015847
X0069624Y0080772
X0073124
X0095123Y0079756
X0097663
Y0082296
X0095123
Y0084836
X0097663
T06
X0014224Y0038227
X0024003
X00254Y0035687
X0027559Y0032131
X0084963Y0045974
X0080899Y007366
X0057531Y0074295
X0061595Y0053594
X0068199Y0053467
X0073533Y0046736
X0041148Y0053975
Y0058547
X003175Y0058166
X0032258Y0068199
X0024384Y0071755
X0013081Y005842
X0017145Y0052705
X0013208Y0048387
X0007366Y0052959
X001905Y004318
X0022352Y004572
X0006096Y0079375
X0003937Y0088011
X0009271Y0089154
X0036449Y0087757
X0046736Y0082931
X0056261Y0082169
X0057023Y0084455
X0063754Y008636
X0089916Y0084455
T07
X0035941Y0003048
Y0026048
X0036957Y00343662
X00386334Y0038608
X00352298
X0042037
X00403098Y00343662
X0067945Y001185
Y0006731
T08
X008001Y0004572
X008509
X0095123Y0012065
Y0017145
X0034544Y0095504
X0029464
X0081026Y009525
X0086106
T09
X00974085Y0026797
Y0029337
Y0031877
T10
X0080763Y0062611
X0084163
X0082463Y0067691
X0085863
X0079063
X0075663
X0072263
X0068863
X0070563Y0062611
X0073963
X0077363
X0027804Y0062865
X0024404
X0021004
X0017604
X0014204
X0012504Y0067945
X0015904
X0019304
X0022704
X0026104
X0029504
T11
X0068072Y0022606
Y0035433
T12
X0056388Y0036576
T13
X0005Y0005
X0095
X0005Y0095
X0095
M30
