G04*
G04 #@! TF.GenerationSoftware,Altium Limited,Altium Designer,21.3.2 (30)*
G04*
G04 Layer_Color=8421504*
%FSTAX44Y44*%
%MOMM*%
G71*
G04*
G04 #@! TF.SameCoordinates,71E4571F-97C7-41C0-9591-7C9436880AE0*
G04*
G04*
G04 #@! TF.FilePolarity,Positive*
G04*
G01*
G75*
%ADD19R,0.9900X3.7900*%
%ADD20R,1.2700X1.3970*%
%ADD21R,1.2000X1.4000*%
%ADD22R,1.4000X1.2000*%
%ADD23R,1.7000X1.7000*%
G04:AMPARAMS|DCode=24|XSize=7.3mm|YSize=4mm|CornerRadius=0mm|HoleSize=0mm|Usage=FLASHONLY|Rotation=180.000|XOffset=0mm|YOffset=0mm|HoleType=Round|Shape=Octagon|*
%AMOCTAGOND24*
4,1,8,-3.6500,1.0000,-3.6500,-1.0000,-2.6500,-2.0000,2.6500,-2.0000,3.6500,-1.0000,3.6500,1.0000,2.6500,2.0000,-2.6500,2.0000,-3.6500,1.0000,0.0*
%
%ADD24OCTAGOND24*%

G04:AMPARAMS|DCode=25|XSize=2.33mm|YSize=1.55mm|CornerRadius=0.3875mm|HoleSize=0mm|Usage=FLASHONLY|Rotation=270.000|XOffset=0mm|YOffset=0mm|HoleType=Round|Shape=RoundedRectangle|*
%AMROUNDEDRECTD25*
21,1,2.3300,0.7750,0,0,270.0*
21,1,1.5550,1.5500,0,0,270.0*
1,1,0.7750,-0.3875,-0.7775*
1,1,0.7750,-0.3875,0.7775*
1,1,0.7750,0.3875,0.7775*
1,1,0.7750,0.3875,-0.7775*
%
%ADD25ROUNDEDRECTD25*%
G36*
X0049631Y009131D02*
X0048381D01*
Y009283D01*
X0049631D01*
Y009131D01*
D02*
G37*
G36*
X0047821D02*
X0046571D01*
Y009283D01*
X0047821D01*
Y009131D01*
D02*
G37*
G36*
X0046011D02*
X0044761D01*
Y009283D01*
X0046011D01*
Y009131D01*
D02*
G37*
G36*
X0049631Y008868D02*
X0048381D01*
Y00902D01*
X0049631D01*
Y008868D01*
D02*
G37*
G36*
X0047821D02*
X0046571D01*
Y00902D01*
X0047821D01*
Y008868D01*
D02*
G37*
G36*
X0046011D02*
X0044761D01*
Y00902D01*
X0046011D01*
Y008868D01*
D02*
G37*
G36*
X0049631Y008605D02*
X0048381D01*
Y008757D01*
X0049631D01*
Y008605D01*
D02*
G37*
G36*
X0047821D02*
X0046571D01*
Y008757D01*
X0047821D01*
Y008605D01*
D02*
G37*
G36*
X0046011D02*
X0044761D01*
Y008757D01*
X0046011D01*
Y008605D01*
D02*
G37*
G36*
X0055061Y009131D02*
X0053811D01*
Y009283D01*
X0055061D01*
Y009131D01*
D02*
G37*
G36*
X0053251D02*
X0052001D01*
Y009283D01*
X0053251D01*
Y009131D01*
D02*
G37*
G36*
X0051441D02*
X0050191D01*
Y009283D01*
X0051441D01*
Y009131D01*
D02*
G37*
G36*
X0055061Y008868D02*
X0053811D01*
Y00902D01*
X0055061D01*
Y008868D01*
D02*
G37*
G36*
X0053251D02*
X0052001D01*
Y00902D01*
X0053251D01*
Y008868D01*
D02*
G37*
G36*
X0051441D02*
X0050191D01*
Y00902D01*
X0051441D01*
Y008868D01*
D02*
G37*
G36*
X0055061Y008605D02*
X0053811D01*
Y008757D01*
X0055061D01*
Y008605D01*
D02*
G37*
G36*
X0053251D02*
X0052001D01*
Y008757D01*
X0053251D01*
Y008605D01*
D02*
G37*
G36*
X0051441D02*
X0050191D01*
Y008757D01*
X0051441D01*
Y008605D01*
D02*
G37*
D19*
X0053311Y007869D02*
D03*
X0051611D02*
D03*
X0049911D02*
D03*
X0048211D02*
D03*
X0046511D02*
D03*
D20*
X0057912Y0095885D02*
D03*
X0055626D02*
D03*
X002667Y008001D02*
D03*
X0028956D02*
D03*
X0084709Y0081788D02*
D03*
X0086995D02*
D03*
D21*
X00419754Y00958242D02*
D03*
X00400754D02*
D03*
X00217786Y00798168D02*
D03*
X00236786D02*
D03*
X00217786Y00746098D02*
D03*
X00236786D02*
D03*
X00262236D02*
D03*
X00281236D02*
D03*
X00337116Y00511148D02*
D03*
X00318116D02*
D03*
X00316934Y00558192D02*
D03*
X00335934D02*
D03*
X00868272Y00766418D02*
D03*
X00849272D02*
D03*
X00798264Y00817288D02*
D03*
X00817264D02*
D03*
X00817176Y00766418D02*
D03*
X00798176D02*
D03*
D22*
X00145388Y00561994D02*
D03*
Y00542994D02*
D03*
X00264768Y00561994D02*
D03*
Y00542994D02*
D03*
X0047752Y0037084D02*
D03*
Y0038984D02*
D03*
X00198086Y00361296D02*
D03*
Y00380296D02*
D03*
X00728318Y00536644D02*
D03*
Y00555644D02*
D03*
X00818488Y00537914D02*
D03*
Y00556914D02*
D03*
D23*
X0021336Y005626D02*
D03*
Y005296D02*
D03*
X007747Y0045594D02*
D03*
Y0048894D02*
D03*
D24*
X0037846Y008255D02*
D03*
Y00762D02*
D03*
D25*
X0060579Y007597D02*
D03*
Y008024D02*
D03*
M02*
