G04*
G04 #@! TF.GenerationSoftware,Altium Limited,Altium Designer,21.3.2 (30)*
G04*
G04 Layer_Color=8388736*
%FSTAX44Y44*%
%MOMM*%
G71*
G04*
G04 #@! TF.SameCoordinates,71E4571F-97C7-41C0-9591-7C9436880AE0*
G04*
G04*
G04 #@! TF.FilePolarity,Negative*
G04*
G01*
G75*
%ADD26R,11.0432X8.0832*%
%ADD27R,1.1932X3.9932*%
%ADD28R,1.4732X1.6002*%
%ADD29R,1.4032X1.6032*%
%ADD30R,1.6032X1.4032*%
%ADD31R,1.9032X1.9032*%
G04:AMPARAMS|DCode=32|XSize=7.5032mm|YSize=4.2032mm|CornerRadius=0mm|HoleSize=0mm|Usage=FLASHONLY|Rotation=180.000|XOffset=0mm|YOffset=0mm|HoleType=Round|Shape=Octagon|*
%AMOCTAGOND32*
4,1,8,-3.7516,1.0508,-3.7516,-1.0508,-2.7008,-2.1016,2.7008,-2.1016,3.7516,-1.0508,3.7516,1.0508,2.7008,2.1016,-2.7008,2.1016,-3.7516,1.0508,0.0*
%
%ADD32OCTAGOND32*%

G04:AMPARAMS|DCode=33|XSize=2.5332mm|YSize=1.7532mm|CornerRadius=0.4891mm|HoleSize=0mm|Usage=FLASHONLY|Rotation=270.000|XOffset=0mm|YOffset=0mm|HoleType=Round|Shape=RoundedRectangle|*
%AMROUNDEDRECTD33*
21,1,2.5332,0.7750,0,0,270.0*
21,1,1.5550,1.7532,0,0,270.0*
1,1,0.9782,-0.3875,-0.7775*
1,1,0.9782,-0.3875,0.7775*
1,1,0.9782,0.3875,0.7775*
1,1,0.9782,0.3875,-0.7775*
%
%ADD33ROUNDEDRECTD33*%
%ADD34R,2.2032X2.2032*%
%ADD35C,2.2032*%
%ADD36C,2.9972*%
%ADD37R,1.7032X1.7032*%
%ADD38C,1.7032*%
%ADD39R,2.3032X2.3032*%
%ADD40C,2.3032*%
%ADD41C,2.0032*%
%ADD42C,1.8532*%
%ADD43R,2.2032X2.2032*%
%ADD44C,2.1432*%
%ADD45R,2.1432X2.1432*%
%ADD46R,4.0132X4.0132*%
%ADD47C,4.0132*%
%ADD48C,5.2032*%
%ADD49C,1.7272*%
%ADD50C,1.4732*%
%ADD51C,3.2512*%
%ADD52C,1.2192*%
D26*
X0049911Y008944D02*
D03*
D27*
X0053311Y007869D02*
D03*
X0051611D02*
D03*
X0049911D02*
D03*
X0048211D02*
D03*
X0046511D02*
D03*
D28*
X0057912Y0095885D02*
D03*
X0055626D02*
D03*
X002667Y008001D02*
D03*
X0028956D02*
D03*
X0084709Y0081788D02*
D03*
X0086995D02*
D03*
D29*
X00419754Y00958242D02*
D03*
X00400754D02*
D03*
X00217786Y00798168D02*
D03*
X00236786D02*
D03*
X00217786Y00746098D02*
D03*
X00236786D02*
D03*
X00262236D02*
D03*
X00281236D02*
D03*
X00337116Y00511148D02*
D03*
X00318116D02*
D03*
X00316934Y00558192D02*
D03*
X00335934D02*
D03*
X00868272Y00766418D02*
D03*
X00849272D02*
D03*
X00798264Y00817288D02*
D03*
X00817264D02*
D03*
X00817176Y00766418D02*
D03*
X00798176D02*
D03*
D30*
X00145388Y00561994D02*
D03*
Y00542994D02*
D03*
X00264768Y00561994D02*
D03*
Y00542994D02*
D03*
X0047752Y0037084D02*
D03*
Y0038984D02*
D03*
X00198086Y00361296D02*
D03*
Y00380296D02*
D03*
X00728318Y00536644D02*
D03*
Y00555644D02*
D03*
X00818488Y00537914D02*
D03*
Y00556914D02*
D03*
D31*
X0021336Y005626D02*
D03*
Y005296D02*
D03*
X007747Y0045594D02*
D03*
Y0048894D02*
D03*
D32*
X0037846Y008255D02*
D03*
Y00762D02*
D03*
D33*
X0060579Y007597D02*
D03*
Y008024D02*
D03*
D34*
X0013161Y00914146D02*
D03*
X0064088D02*
D03*
D35*
X0015661D02*
D03*
X0018161D02*
D03*
X0020661D02*
D03*
X0036957Y00343662D02*
D03*
X00403098D02*
D03*
X0042037Y0038608D02*
D03*
X00386334D02*
D03*
X00352298D02*
D03*
X0012504Y0067945D02*
D03*
X0014204Y0062865D02*
D03*
X0015904Y0067945D02*
D03*
X0017604Y0062865D02*
D03*
X0019304Y0067945D02*
D03*
X0021004Y0062865D02*
D03*
X0022704Y0067945D02*
D03*
X0024404Y0062865D02*
D03*
X0026104Y0067945D02*
D03*
X0027804Y0062865D02*
D03*
X0066588Y00914146D02*
D03*
X0069088D02*
D03*
X0071588D02*
D03*
X0068863Y0067691D02*
D03*
X0070563Y0062611D02*
D03*
X0072263Y0067691D02*
D03*
X0073963Y0062611D02*
D03*
X0075663Y0067691D02*
D03*
X0077363Y0062611D02*
D03*
X0079063Y0067691D02*
D03*
X0080763Y0062611D02*
D03*
X0082463Y0067691D02*
D03*
X0084163Y0062611D02*
D03*
X00920496Y00465474D02*
D03*
Y00440474D02*
D03*
Y00415474D02*
D03*
D36*
X0095123Y0017145D02*
D03*
Y0012065D02*
D03*
X008509Y0004572D02*
D03*
X008001D02*
D03*
X0086106Y009525D02*
D03*
X0081026D02*
D03*
X0034544Y0095504D02*
D03*
X0029464D02*
D03*
D37*
X0005842Y0020701D02*
D03*
X0008382Y0026162D02*
D03*
X0097663Y0074676D02*
D03*
D38*
X0008382Y0020701D02*
D03*
X0005842Y0018161D02*
D03*
X0008382D02*
D03*
X0005842Y0015621D02*
D03*
X0008382D02*
D03*
X0005842Y0013081D02*
D03*
X0008382D02*
D03*
X0005842Y0010541D02*
D03*
X0008382D02*
D03*
X0005842Y0026162D02*
D03*
X0008382Y0028702D02*
D03*
X0005842D02*
D03*
X0008382Y0031242D02*
D03*
X0005842D02*
D03*
X0008382Y0033782D02*
D03*
X0005842D02*
D03*
X0008382Y0036322D02*
D03*
X0005842D02*
D03*
X0008382Y0038862D02*
D03*
X0005842D02*
D03*
X0008382Y0041402D02*
D03*
X0005842D02*
D03*
X0008382Y0043942D02*
D03*
X0005842D02*
D03*
X0008382Y0046482D02*
D03*
X0005842D02*
D03*
X0008382Y0049022D02*
D03*
X0005842D02*
D03*
X0095123Y0074676D02*
D03*
X0097663Y0077216D02*
D03*
X0095123D02*
D03*
X0097663Y0079756D02*
D03*
X0095123D02*
D03*
X0097663Y0082296D02*
D03*
X0095123D02*
D03*
X0097663Y0084836D02*
D03*
X0095123D02*
D03*
D39*
X0069624Y0080772D02*
D03*
X0015847Y0079883D02*
D03*
X0080292Y0020574D02*
D03*
X0079375Y0034036D02*
D03*
X0042319Y006477D02*
D03*
X0053015Y0064643D02*
D03*
D40*
X0073124Y0080772D02*
D03*
X0012347Y0079883D02*
D03*
X0083792Y0020574D02*
D03*
X0084455Y0034036D02*
D03*
X0045819Y006477D02*
D03*
X0056515Y0064643D02*
D03*
D41*
X0014859Y0032131D02*
D03*
X0019939D02*
D03*
X0091313Y0066167D02*
D03*
Y0061087D02*
D03*
X0088138Y0051562D02*
D03*
Y0046482D02*
D03*
X0035433Y006604D02*
D03*
Y006096D02*
D03*
X0006096Y00661334D02*
D03*
Y00610534D02*
D03*
X0067945Y0006731D02*
D03*
Y001185D02*
D03*
X0063246Y0060833D02*
D03*
Y0065913D02*
D03*
D42*
X0035941Y0026048D02*
D03*
Y0003048D02*
D03*
D43*
X0029504Y0067945D02*
D03*
X0085863Y0067691D02*
D03*
X00920496Y00490474D02*
D03*
D44*
X00974085Y0031877D02*
D03*
Y0029337D02*
D03*
D45*
Y0026797D02*
D03*
D46*
X0068072Y0035433D02*
D03*
D47*
Y0022606D02*
D03*
D48*
X0095Y0095D02*
D03*
X0005D02*
D03*
X0095Y0005D02*
D03*
X0005D02*
D03*
D49*
X0027559Y0032131D02*
D03*
X0041148Y0058547D02*
D03*
X003175Y0058166D02*
D03*
X0017145Y0052705D02*
D03*
X0084963Y0045974D02*
D03*
X0046736Y0082931D02*
D03*
X0068199Y0053467D02*
D03*
X0022352Y004572D02*
D03*
X0014224Y0038227D02*
D03*
X0024003D02*
D03*
X0007366Y0052959D02*
D03*
X0006096Y0079375D02*
D03*
X0073533Y0046736D02*
D03*
X0041148Y0053975D02*
D03*
X00254Y0035687D02*
D03*
X0061595Y0053594D02*
D03*
X0057531Y0074295D02*
D03*
X0013208Y0048387D02*
D03*
X001905Y004318D02*
D03*
X0032258Y0068199D02*
D03*
X0013081Y005842D02*
D03*
X0009271Y0089154D02*
D03*
X0003937Y0088011D02*
D03*
X0080899Y007366D02*
D03*
X0024384Y0071755D02*
D03*
X0089916Y0084455D02*
D03*
X0057023D02*
D03*
X0036449Y0087757D02*
D03*
X0063754Y008636D02*
D03*
X0056261Y0082169D02*
D03*
D50*
X00170433Y0056006D02*
D03*
X0047752Y0091948D02*
D03*
X0052197D02*
D03*
X0045847Y0089916D02*
D03*
X0053721Y0090043D02*
D03*
X0005842Y009017D02*
D03*
X0092202Y0072771D02*
D03*
D51*
X0056388Y0036576D02*
D03*
D52*
X0043942Y0075184D02*
D03*
X0018796Y0073533D02*
D03*
M02*
